<svg id="Calque_1" data-name="Calque 1" xmlns="http://www.w3.org/2000/svg" width="30cm" height="33.4cm" viewBox="0 0 850.3937 946.7717">
  <g>
    <path d="M473.6733,109.0316c-93.4851,27.0885-189.189,72.6478-264.7565,148.0739S87.9314,428.3769,60.8431,521.8621L33.06,651.3238A1153.0288,1153.0288,0,0,0,22.506,770.2252,100.4761,100.4761,0,0,0,128.3521,876.0774a1151.442,1151.442,0,0,0,118.9017-10.559l129.6029-27.7831c93.3427-27.0824,189.1893-72.6479,264.6154-148.074S762.4636,518.39,789.5458,424.9048l27.7831-129.4617a1151.331,1151.331,0,0,0,10.559-118.9017A100.475,100.475,0,0,0,722.0367,70.6946,1153.0442,1153.0442,0,0,0,603.1346,81.2483Z" fill="#020303"/>
    <path d="M817.3289,295.4421a942.9438,942.9438,0,0,1-27.7831,129.4617L473.6733,109.0316A943.9033,943.9033,0,0,1,603.1346,81.2483Z" fill="#020303"/>
    <path d="M376.8567,837.7343a944.0725,944.0725,0,0,1-129.6029,27.7831L33.06,651.3235A943.8457,943.8457,0,0,1,60.8431,521.8618Z" fill="#020303"/>
    <path d="M464.5087,394.7605l39.3081-39.3081,39.3081-39.3268,9.8348-9.8162a27.7972,27.7972,0,1,1,39.3142,39.3081l-9.8224,9.8347L543.1247,394.76l-39.3081,39.3142L385.886,552.0049,346.5718,591.313,307.2637,630.64l-9.8348,9.8223a27.7972,27.7972,0,0,1-39.3081-39.3142l9.8163-9.8347,39.3268-39.3081Z" fill="#020303"/>
    <g>
      <path d="M346.572,591.3132l29.48,29.4919a27.7994,27.7994,0,1,1-39.2667,39.3617l-.0475-.0475-29.4734-29.48-68.8-68.8a27.7951,27.7951,0,0,1,39.3081-39.3081l29.4918,29.4733Z" fill="#020303"/>
      <path d="M425.1943,512.697l29.4918,29.4858a27.8038,27.8038,0,1,1-39.3268,39.3141h0l-29.4735-29.4918L346.5716,512.697l-29.4857-29.48a27.8,27.8,0,1,1,39.22-39.4092l.0888.0887,29.4916,29.4858Z" fill="#020303"/>
      <path d="M464.5087,473.3828l29.4855,29.4919a27.8039,27.8039,0,1,0,39.3145-39.3268l-29.4919-29.4733L464.5087,394.76l-29.48-29.4858a27.7994,27.7994,0,1,0-39.3673,39.2611l.0472.0472,29.4855,29.4918Z" fill="#020303"/>
      <path d="M582.4515,355.4524l29.48,29.4734A27.7993,27.7993,0,0,1,572.6172,424.24l-29.4919-29.48L503.8172,355.452,474.3439,325.96a27.7951,27.7951,0,0,1,39.2249-39.3913l.0832.0832Z" fill="#020303"/>
    </g>
    <path d="M486.145,748.4167a13.8873,13.8873,0,0,1-6.51-26.1787,466.8933,466.8933,0,0,0,112.6382-81.8187,467.7859,467.7859,0,0,0,81.8431-112.65A13.89,13.89,0,0,1,699.0447,540.03q-.1817.3694-.385.7276a494.7539,494.7539,0,0,1-86.7483,119.301,495.5844,495.5844,0,0,1-119.2878,86.7472A13.6919,13.6919,0,0,1,486.145,748.4167Z" fill="#020303"/>
    <path d="M164.052,426.3361A13.8882,13.8882,0,0,1,151.784,405.96,472.7762,472.7762,0,0,1,357.7713,199.9042a13.8979,13.8979,0,0,1,12.988,24.5745A444.7589,444.7589,0,0,0,176.29,418.9476,13.8955,13.8955,0,0,1,164.052,426.3361Z" fill="#020303"/>
  </g>
</svg>
