<svg id="Calque_1" data-name="Calque 1" xmlns="http://www.w3.org/2000/svg" width="30cm" height="33.4cm" viewBox="0 0 850.3937 946.7717">
  <g id="Capa_1" data-name="Capa 1">
    <g>
      <rect x="326.9808" y="797.7082" width="197.7761" height="56.1095" fill="#020303"/>
      <path d="M320.3953,719.3338c25.8378,0,25.8378,30.286,25.8378,40.22v36.7126H504.161V759.5538c0-9.934,0-40.22,25.836-40.22H556.73V407.1069H293.6635V719.3338Z" fill="#020303"/>
      <rect x="367.5351" y="198.487" width="115.3156" height="29.7011" fill="#020303"/>
      <polygon points="425.192 264.696 292.813 264.696 389.59 315.51 425.192 315.51 460.796 315.51 557.581 264.696 425.192 264.696" fill="#020303"/>
      <rect x="268.5257" y="239.7475" width="303.195" height="24.9478" fill="#020303"/>
      <path d="M609.04,315.5105H572.6634c-13.8833,0-15.0839-11.2624-15.0839-25.1455V214.07c0-13.8831,1.2006-25.1376,15.0839-25.1376H609.04c13.8831,0,15.0839,11.2545,15.0839,25.1376V290.365C624.1238,304.2481,622.9231,315.5105,609.04,315.5105Z" fill="#020303"/>
      <path d="M241.36,315.5105h36.3618c13.8893,0,15.09-11.2624,15.09-25.1455V214.07c0-13.8831-1.2007-25.1376-15.09-25.1376H241.36c-13.8833,0-15.09,11.2545-15.09,25.1376V290.365C226.27,304.2481,227.4768,315.5105,241.36,315.5105Z" fill="#020303"/>
      <path d="M244.2311,83.1341v57.1935H353.6442l12.9188-29.5192H483.8369l12.911,29.5192H606.17V83.1341a10.0609,10.0609,0,0,0-10.0659-10.0556H254.2851a10.0461,10.0461,0,0,0-10.054,10.0383Z" fill="#020303"/>
      <rect x="379.625" y="73.0785" width="91.7799" height="37.7298" fill="#020303"/>
      <rect x="365.7495" y="240.8113" width="119.5306" height="23.8841" fill="#020303"/>
      <polygon points="485.28 264.696 425.192 264.696 365.75 264.696 365.75 298.598 389.59 315.51 425.192 315.51 460.796 315.51 485.28 298.141 485.28 264.696" fill="#020303"/>
      <path d="M425.1921,15.58c-20.93,0-37.8961,112.2765-37.8961,250.77V381.4h75.7922V266.35C463.0884,127.8567,446.1149,15.58,425.1921,15.58Z" fill="#020303"/>
      <path d="M261.7825,73.0785v74.3568L241.0418,171.83l3.1889-88.6957S241.9068,73.0785,261.7825,73.0785Z" fill="#020303"/>
      <path d="M588.6118,73.0785v74.3568L609.3589,171.83,606.17,83.1339S608.4785,73.0785,588.6118,73.0785Z" fill="#020303"/>
      <rect x="556.7302" y="401.153" width="31.8817" height="50.9364" fill="#020303"/>
      <rect x="261.7818" y="401.153" width="31.8816" height="50.9364" fill="#020303"/>
      <path d="M609.04,861.002H572.6634c-13.8833,0-15.0839-11.27-15.0839-25.1377v-76.31c0-13.8675,1.2006-25.1222,15.0839-25.1222H609.04c13.8831,0,15.0839,11.2547,15.0839,25.1222v76.31C624.1238,849.7318,622.9231,861.002,609.04,861.002Z" fill="#020303"/>
      <path d="M241.36,861.002h36.3618c13.8893,0,15.09-11.27,15.09-25.1377v-76.31c0-13.8675-1.2007-25.1222-15.09-25.1222H241.36c-13.8833,0-15.09,11.2547-15.09,25.1222v76.31C226.27,849.7318,227.4768,861.002,241.36,861.002Z" fill="#020303"/>
      <polygon points="575.565 686.009 556.73 708.61 556.73 506.831 575.565 506.831 575.565 686.009" fill="#020303"/>
      <polygon points="274.821 686.009 293.664 708.61 293.664 506.831 274.821 506.831 274.821 686.009" fill="#020303"/>
      <path d="M414.7354,382.2212H435.658a25.1376,25.1376,0,0,1,25.1376,25.1376v90.7767a25.13,25.13,0,0,1-25.13,25.13H414.7266a25.1375,25.1375,0,0,1-25.1376-25.1375V407.3666a25.1454,25.1454,0,0,1,25.1454-25.1454Z" fill="#020303"/>
      <path d="M414.7278,387.2481h20.9366a20.103,20.103,0,0,1,20.1031,20.1031h0v90.77a20.1092,20.1092,0,0,1-20.1092,20.1093h-20.93A20.1107,20.1107,0,0,1,394.6171,498.12V407.359a20.1107,20.1107,0,0,1,20.1105-20.1109Z" fill="#020303"/>
      <path d="M333.1928,892.4279V834.6028c0-4.5417,6.6289-19.3968,91.9993-19.3968,85.379,0,92.0009,14.8551,92.0009,19.3968v57.8251Z" fill="#020303"/>
      <path d="M425.1921,820.2344c-48.0278,0-86.9634,6.4393-86.9634,14.3684V887.4H512.1656V834.6028C512.1646,826.6737,473.2278,820.2344,425.1921,820.2344Z" fill="#020303"/>
      <polygon points="333.192 892.427 333.192 931.191 344.388 892.427 333.192 892.427" fill="#020303"/>
      <polygon points="517.193 892.427 517.193 931.191 506.012 892.427 517.193 892.427" fill="#020303"/>
      <path d="M271.7,477.9348l64.9254-19.1464,6.7206-46.6685c-1.7094.5551-3.4854,1.0249-5.3007,1.4729l-5.9384,41.2832-60.0429,17.7108C271.8506,474.9121,271.7532,476.7573,271.7,477.9348Z" fill="#020303"/>
      <path d="M578.6935,477.9348l-64.9192-19.1464L507.03,412.12c1.7327.5551,3.4932,1.0249,5.3161,1.4729l5.9244,41.2838,60.0415,17.7108C578.541,474.9121,578.6327,476.7573,578.6935,477.9348Z" fill="#020303"/>
      <path d="M485.9941,474.7821s.6378,3.57,1.4279,9.8811c.7434,6.2963,1.7015,15.3327,2.2024,26.231.4245,10.8905.6688,23.6262.0156,37.2742-.4557,6.8125-.8825,13.8519-1.7621,20.9755-.714,7.1546-1.868,14.3544-3.0084,21.5541-1.4122,7.1687-2.6424,14.3841-4.6932,21.2944-1.7015,6.9868-4.0407,13.6856-6.1668,20.201-2.1861,6.3646-4.3675,12.6234-5.9768,18.4855a162.6375,162.6375,0,0,0-4.1012,16.829c-1.7313,10.5561-1.9584,19.61-.5305,25.7162a19.1375,19.1375,0,0,0,3.85,8.9464,9.6587,9.6587,0,0,1-1.7391-1.9442,21.9034,21.9034,0,0,1-3.2118-6.7144,46.3587,46.3587,0,0,1-2.0281-11.4226,83.6671,83.6671,0,0,1,.5014-15.0373,168.59,168.59,0,0,1,3.19-17.4822c1.5489-6.1809,3.6067-12.3634,5.6959-18.8945,2.0126-6.4252,4.2074-13.0164,5.78-19.9132,1.8385-6.82,3.1434-13.8989,4.6628-20.93,1.2148-7.0784,2.4607-14.1709,3.2507-21.2194.9877-7.0162,1.518-13.9887,2.05-20.7179,1.2146-13.4647,1.52-26.11,1.5644-36.9475C487.1935,489.2655,485.9941,474.7821,485.9941,474.7821Z" fill="#020303"/>
      <path d="M366.7684,474.7821s-1.2086,14.4834-.98,36.1651c.0449,10.8377.3482,23.4827,1.5644,36.9474.5381,6.7286,1.07,13.7011,2.0421,20.718.7978,7.0489,2.0359,14.1414,3.2585,21.2194,1.5181,7.0317,2.8245,14.11,4.6629,20.93,1.5726,6.8965,3.775,13.4879,5.78,19.9132,2.0951,6.5311,4.1544,12.7135,5.6959,18.8945a168.7321,168.7321,0,0,1,3.1978,17.4821,83.7677,83.7677,0,0,1,.493,15.0373,46.7557,46.7557,0,0,1-2.02,11.4226,22.119,22.119,0,0,1-3.2117,6.7144,9.8715,9.8715,0,0,1-1.7467,1.9443,19.1409,19.1409,0,0,0,3.8493-8.9465c1.4278-6.1062,1.2008-15.16-.524-25.7162a166.3221,166.3221,0,0,0-4.1-16.8289c-1.6176-5.8623-3.8061-12.1209-5.9767-18.4855-2.134-6.5155-4.4726-13.2142-6.1747-20.201-2.05-6.91-3.28-14.1257-4.6932-21.2944-1.1384-7.2-2.2848-14.4-3.0064-21.5541-.8742-7.1236-1.3143-14.1631-1.7545-20.9756-.6532-13.6482-.41-26.3834.0156-37.2741.5015-10.8983,1.4419-19.9358,2.1862-26.2311C366.1145,478.3515,366.7684,474.7821,366.7684,474.7821Z" fill="#020303"/>
      <path d="M455.7673,498.12v-75.74l-6.5682,8.4455V503.02H401.8323V430.8261l-7.2154-9.2886V498.12a20.13,20.13,0,0,0,20.1109,20.1106h20.93A20.1282,20.1282,0,0,0,455.7673,498.12Z" fill="#020303"/>
      <g>
        <path d="M461.4569,193.474q-.5716-12.3252-1.3065-24.0971l-72.6646,72.6709q-.1819,12.0079-.19,24.3024V267.62Z" fill="#020303"/>
        <path d="M389.5435,181.3222c-.4775,8.643-.8648,17.529-1.1994,26.581l69.4439-69.4358c-.714-7.9743-1.4964-15.6827-2.3318-23.0565Z" fill="#020303"/>
        <path d="M394.701,117.49c-.9954,8.94-1.8992,18.3345-2.7189,28.1161l59.5407-59.5429c-1.207-7.7216-2.4916-14.9376-3.8433-21.5526Z" fill="#020303"/>
      </g>
      <g>
        <path d="M369.19,887.4h12.2968V822.1927c-4.3441.4106-8.4689.8825-12.2968,1.4279Z" fill="#020303"/>
        <path d="M414.72,820.34c-4.1933.0762-8.2854.2287-12.2888.3949V887.4H414.72Z" fill="#020303"/>
        <path d="M435.666,887.4h12.2872V820.7352c-3.9941-.1662-8.0878-.3187-12.2872-.3949Z" fill="#020303"/>
        <path d="M481.1943,823.6205c-3.8277-.5459-7.9508-1.0173-12.2872-1.4278V887.4h12.2872Z" fill="#020303"/>
      </g>
      <path d="M355.4832,407.1069s24.7372-17.6957,31.8134-28.2515,75.7922,0,75.7922,0,19.697,23.2384,31.8193,28.2515,23.3628,47.77,23.3628,47.77L369.19,448.2994Z" fill="#020303"/>
      <rect x="271.7002" y="778.6399" width="316.9117" height="33.4554" fill="#020303"/>
      <rect x="262.9206" y="740.364" width="108.5592" height="20.4829" transform="translate(-464.0729 519.0094) rotate(-50.5798)" fill="#020303"/>
      <rect x="482.0345" y="736.6912" width="108.5592" height="20.4829" transform="translate(299.8621 1635.5449) rotate(-129.4202)" fill="#020303"/>
    </g>
  </g>
</svg>
