<svg id="Calque_1" data-name="Calque 1" xmlns="http://www.w3.org/2000/svg" width="30cm" height="33.4cm" viewBox="0 0 850.3937 946.7717">
  <path d="M799.41,230.0766c-4.856-1.4176-10.54-1.33-14.6551-3.8891-10.4244-6.39-22.942-2.4426-33.5339-8.091-6.5861-3.5546-12.6925-6.8482-17.89-12.5833-3.3512-3.722-9.5158-4.8851-14.4517-7.0658a22.5671,22.5671,0,0,0-5.9974-1.9629c-2.4424-.3419-5.3646-.9087-7.3783.0581-5.4013,2.6389-10.2282,2.4428-14.8806-1.1629-5.423-4.202-10.5335,1.1048-15.8475.5088a8.3016,8.3016,0,0,0-1.1048,4.2307c1.1921,9.3412-1.8174,16.9231-8.4327,23.5967-2.0791,2.0718-2.6171,5.6264-4.0638,8.9485,1.0758.1383,2.2171.2836,4.1435.5376-1.25,4.74-2.3844,9.4283-3.7439,14.0008-1.7372,5.8448-3.5255,11.6382-5.452,17.4032-1.2212,3.5477-1.8463,3.78-5.91,3.1842a15.7331,15.7331,0,0,1-8.6578,13.5718c-5.4522,2.9512-7.553,8.12-6.4191,14.5388.1673.9088.0873,2.5225-.4289,2.7845-6.499,3.3514-6.7823,9.1959-7.6329,15.5858-1.483,10.9041-9.8282,16.9231-18.69,21.9827-3.9473,2.21-8.0035,4.5654-12.3216,5.7646-4.7107,1.2721-9.7412,1.5051-14.6551,1.8168-9.2833.5962-17.4613-3.1257-26.09-5.939-10.57-3.3805-18.1735-9.7119-25.363-17.432a26.6265,26.6265,0,0,0-7.9233-5.685c-10.0464-4.7105-13.3176-15.4984-20.638-22.63-5.8518-5.6775-11.1657-11.9218-17.4394-18.7116,2.9805-1.5632,4.9724-2.61,6.3608-3.3512-2.4134-2.7551-4.9433-5.99-7.8654-8.8615-.9669-.9377-2.8134-1.1631-4.2895-1.3594-3.4894-.5161-3.5185-.4289-3.5767-5.1977,1.8176-.1455,3.664-.2835,5.51-.4.3418-.48.6834-.9379,1.0249-1.4176-10.0026-.5962-11.6456-10.3951-18.29-14.4812-5.1394-3.1548-11.0205-5.11-16.5527-7.6692-1.4247-.6542-3.1839-1.2793-4.0053-2.4427-3.213-4.5141-7.2112-5.3356-12.3509-4.0562-8.665,2.1517-17.2647.3055-25.3338-2.3918-7.0151-2.3262-13.5431-6.39-19.8457-10.3876-2.0719-1.3087-4.151-4.9144-3.838-7.1608.7123-4.9068-2.21-5.452-4.5143-7.0148-1.1049-1.7013-3.01-3.3731-3.0962-5.1615-.08-2.0788,1.4537-4.2088,2.3912-6.6733-.516-.2327-2.0211-.9087-4.3761-1.9629,1.5051-1.9551,2.8933-3.7507,4.4563-5.7935-3.4021-4.3979-7.0658-9.174-10.7292-13.9137-3.322,4.6306-5.9393,4.347-9.0577.029a24.4867,24.4867,0,0,0-8.2363-6.928c-2.7845-1.4753-6.2228-3.6344-9.4577.0586-.5959.6759-2.8641.5376-3.9762,0-4.8853-2.3847-9.6829-3.4677-15.1643-1.8466-2.159.6542-4.8851-.4-7.3275-.8506-5.7066-1.1122-11.384-2.3917-17.1194-3.4676a8.3826,8.3826,0,0,0-3.1839.3709c-1.1923.2257-2.3264.9668-3.4605.9086-7.0733-.5375-14.1391-1.3375-21.2412-1.8169a18.3846,18.3846,0,0,0-5.62.8506c-5.4229,1.3085-10.8241,2.7551-16.0215,4.1146,1.3954,2.53.8867,4.318-3.2933,4.4924a92.2951,92.2951,0,0,0-9.1957,1.272c.8505,2.3046,1.33,3.6347,1.8169,4.9726-1.454.48-2.8716.9667-4.318,1.4176-.48.1743-.9961.1743-1.4758.3415-4.7179,1.5921-9.2831,3.8891-14.1391,4.6888-5.6847.9089-8.8033,4.1143-11.3621,8.716a17,17,0,0,1-3.6056,4.74c-6.5861,5.4811-14.4516,9.9157-19.7946,16.3853-5.9031,7.1822-15.3316,8.2654-21.1542,14.8224a2.4411,2.4411,0,0,1-1.9044.7124c-7.4951-1.3957-12.7219,4.0852-19.0825,6.0482-6.5573,1.9844-13.6014,2.4425-20.2456,4.2017a99.9086,99.9086,0,0,0-16.4942,5.9608c-7.4148,3.4386-14.5681,7.5022-19.9329,10.3373-3.8966,8.8034,1.9265,18.0064-5.4811,23.5674C67.69,273.75,65.08,282.379,60.682,290.1936c-2.4135,4.2308-5.91,7.9456-9.3486,11.471-6.1862,6.39-8.1781,14.4517-9,22.6879a342.8126,342.8126,0,0,0-2.1005,38.8987c.1961,13.9721,1.8168,27.9439,3.0676,41.9157.8213,8.8325-.5089,16.8356-6.8189,23.6255-1.0467,1.1053-2.1516,3.78-1.5846,4.6013,2.8349,4.0853,1.1048,7.4366-.3709,11.3841a44.0128,44.0128,0,0,0-2.297,14.3716c.705-1.5051,1.4176-3.0386,2.1226-4.5434.2908.0874.5743.1673.8869.2545-1.3086,4.6889-2.6171,9.3413-3.8674,14.03-.2543.9089-.8215,2.4935-.48,2.7551,6.1644,4.6234,2.5515,10.0753,1.7011,15.4185-.3129,1.8684.0869,4.6235,1.2793,5.8739,3.8311,4.0344,4.0347,3.838,3.9475,7.4148.48.058.996.1091,1.5051.1673.9671-7.4949,1.992-14.99,2.8135-22.4917.2835-2.5808-.0874-5.3069,4.3689-4.5945.7125,12.5181,2.1591,25.1014,1.9047,37.6489-.1673,8.8908-2.0427,17.89-4.1729,26.5843-3.889,15.8109-8.3748,31.4621-12.925,47.0772-1.1632,4.0346-4.1437,7.5528-5.19,11.5875-.8,3.1258-1.25,7.8365.48,9.9083,6.644,8.0109,9.7992,17.3522,12.5543,27.0058,3.6348,12.838,7.633,25.5886,10.5913,38.5647,3.068,13.3757,4.9071,27.0057,7.5821,40.4617,3.3732,17.0977,5.8161,34.2464,5.5031,51.7655-.0215,2.0719,1.9045,4.4855,3.4968,6.2229,4.1725,4.5143,6.3605,9.0286,3.5182,15.3313-2.6387,5.9317-.9377,9.3993,5.6558,9.9373,11.6093.9087,23.3421.9378,35.01.7124,3.1259-.0581,6.6732-1.8169,9.116-3.831,2.5514-2.101,1.9044-5.5684-.9959-7.2187-3.6057-2.0718-7.4952-4.1143-11.5-4.8777-11.7837-2.2463-17.5487-9.712-20.4418-20.7033-1.1922-4.4562-4.0344-8.4325-5.6557-12.8087-2.0718-5.6775-4.4853-11.4422-5.2778-17.3522-2.5878-18.5953-4.0344-37.3359-6.8186-55.9094-2.0718-13.9136-.48-27.4056,1.1633-41.116.8287-6.7023-.4217-13.6011-.5963-20.42-.0508-3.3514.2327-6.6736.371-10.0246.0581-1.25.596-2.61.2543-3.693-3.1476-9.8791,1.2793-18.4281,4.914-26.9694,4.1219-9.69,5.8228-19.7948,7.1315-30.1613.7924-6.4182,2.61-12.75,4.26-19.053.3927-1.4756,1.8685-2.6679,3.235-4.4853.9958,1.592,1.9845,2.4135,1.9556,3.264-.1675,8.3748-.4217,16.7852-.7925,25.16-.3127,7.2984-.567,14.6259-1.3087,21.8957-.9593,9.479-1.4466,19.22-3.9763,28.3361-1.6721,6.0482.5744,10.6207,2.8134,14.7352,8.1782,15.1641,18.4281,29.2812,25.8139,44.7582,10.0533,21.0955,18.29,43.0206,27.0931,64.6833,3.86,9.5447,6.8987,19.4239,10.9042,28.91,1.214,2.8642,4.2017,5.1395,6.7241,7.24,3.2132,2.6389,4.6887,5.3939,3.38,9.6829-1.788,5.9609-.4,9.0578,5.5395,9.1449,13.4847.1963,27.0351-.7418,40.5491-1.2794a8.9731,8.9731,0,0,0,2.4134-.9086c1.3085-7.9819-3.2059-13.3177-11.1592-13.5431-12.2128-.3126-21.0157-5.939-27.0057-16.6689-3.039-5.4521-7.9819-9.9443-10.5916-15.5347A242.1734,242.1734,0,0,1,150.8379,698.7c-5.4521-16.8355-10.25-33.8754-15.3312-50.8281a7.1293,7.1293,0,0,1-.6034-2.5587c1.4247-12.3508-4.34-23.5385-5.7356-35.3513-1.7009-14.7353-5.8739-29.5577-.2545-44.6125,1.8757-4.9652,1.563-10.8752,1.534-16.3856Q130.36,533.12,129.4,517.2767c-.3709-6.761,2.297-12.2712,5.5029-17.89,4.4345-7.7493,8.6944-15.5931,12.5542-23.6257,2.2974-4.8271,3.1842-10.3663,5.7066-15.0479,4.2018-7.8147,4.0056-15.5929,1.0252-23.4293-1.5339-3.9765-1.0536-7.3569-.3417-11.471,1.1629-7.044.3417-14.3718.37-21.5829,0-1.3084.08-2.58.1091-3.86,1.6792.1963,3.6347-.1162,4.9144.6833a62.05,62.05,0,0,1,8.8613,6.7825c15.6438,14.4588,32.538,27.2022,51.7366,36.5725,14.3136,6.9642,29.6738,10.5407,45.2087,13.8337,15.39,3.2638,30.7792,2.9515,46.2845,3.0387,9.4868.029,18.9954,0,28.5108,0a3.2948,3.2948,0,0,0,1.0757-.0291c9.0069-3.6929,17.3814,1.33,26.0391,1.7011,10.0827.4579,20.7327,3.1548,29.8775-4.2308.5671-.48,3.6058.6252,3.9475,1.5338,1.1339,3.2931,2.4133,6.8482,2.21,10.2209-.6471,10.2282-1.9848,20.42-3.01,30.6407-.7633,7.9232-2.1588,15.9055-2.1007,23.8291.1452,14.5389-2.8932,28.4817-6.1864,42.4245-1.5628,6.6156-4.5143,13.0051-5.4811,19.6785-.9668,6.8405-.567,13.9427-.2258,20.8993.88,17.2649,2.7768,34.4716,2.9514,51.7076.1672,17.4613-1.0248,34.9515-2.0717,52.42-.5161,8.4326-2.3045,16.807-2.9586,25.2393a9.6987,9.6987,0,0,0,2.5586,7.1023c5.3069,4.7108,4.8561,11.9-.1162,17.52-5.9608,6.8186-4.994,11.5874,3.7219,13.8337,6.39,1.6428,13.1506,2.0719,19.7951,2.5515,4.9649.3417,6.39,1.5919,4.2887,6.0772-2.1589,4.6307-.8868,6.448,3.7438,8.1491,10.0828,3.7218,20.449,3.86,30.9242,3.831,4.66-.0216,9.3993.5452,13.9719-.1676,4.8851-.7411,9.5666-2.6386,14.4226-4.0852-1.6139-9.32-4.5434-12.1838-13.6594-13.0124-9.6541-.88-20.1872-12.7215-20.7252-22.3463-.2252-4.5725-1.025-9.9082-3.5764-13.4268-5.1686-7.1022-6.6735-14.9972-8.0983-23.1168a269.2245,269.2245,0,0,1-4.34-57.3341c.3706-10.4753,1.134-20.8416,6.0481-30.3574,6.7024-12.9761,4.6525-26.5769,3.6348-40.2946-.625-8.57.1964-17.2871.4507-25.9521.0291-1.3886.6833-2.7845.6252-4.1727-.9958-20.958,3.5767-41.0359,9.0867-61.0778,3.8092-13.8919,5.852-28.2564,9.545-42.17.9666-3.5546,4.6228-7.4947,8.0326-9.0287,9.9373-4.4924,16.5817-12.1543,22.0919-20.8485,2.9805-4.6817,6.2517-5.1108,10.737-3.6858,8.3748,2.58,16.64,5.6774,25.16,7.6039,9.254,2.13,18.74,3.2712,28.169,4.6306,6.1064.9087,12.3218,2.3844,18.3991,1.9917,10.5043-.6541,20.9286-2.8132,31.4331-3.8962,22.7751-2.3846,40.7236-14.9023,58.2138-27.9657,6.1934-4.66,10.4752-11.7548,16.2107-17.0977,13.9211-12.9179,16.2182-31.7457,24.6217-47.4477,2.9295-5.4522,7.8075-9.9955,8.1491-16.8652.0582-1.3666,2.93-2.5587,4.827-4.0927-1.5338-2.1589-4.26-5.3645,2.1008-5.0522.6253-5.7064.2036-11.5,5.8229-15.7309,1.7593-1.3086,1.65-5.51,1.8169-8.4328.3708-6.1354,2.3554-7.7566,8.4325-8.4687,9.6029-1.1341,19.14-2.9806,28.7435-4.3688,3.6566-.5375,7.4657-.4291,11.1-1.1634,2.13-.4579,3.9474-2.2462,6.019-3.0676,4.856-1.9046,9.712-4.0057,14.7644-5.0812,2.13-.4873,4.914,1.221,7.2112,2.3262,4.2309,2.0426,7.8437,2.8929,12.2128-.5962,2.9224-2.3554,7.4438-2.697,11.13-4.1728,1.3374-.5375,3.3219-1.8169,3.3511-2.8423.5962-11.02-14.8224-32.3127-25.5522-35.4385Z" fill="#010101"/>
</svg>
