<svg id="Calque_1" data-name="Calque 1" xmlns="http://www.w3.org/2000/svg" width="30cm" height="33.4cm" viewBox="0 0 850.3937 946.7717">
  <path d="M789.737,126.8993c-9.53,57.9716-21.0445,113.6931-22.3681,170.4735-1.7206,67.3688,3.5736,133.5464,31.5,196.5475,16.5444,37.3242,31.8976,75.31,37.4565,116.34,5.8237,43.1477-9,75.7072-45.0007,100.7223-40.6331,28.1916-85.6339,43.9419-133.017,55.4568-58.7657,14.2944-117.3991,28.5887-175.6354,44.7361-35.8682,9.9266-70.2806,12.309-106.8106,2.1176-72.5307-20.118-145.8555-37.3242-218.7832-56.3833-36.3977-9.53-69.2218-26.471-99.9282-48.1773C19.2972,681.997,6.4588,646.3935,15.7236,601.5251a428.8087,428.8087,0,0,1,29.3829-90.0016C87.5925,418.3455,91.96,321.1968,76.607,221.798c-4.6324-30.177-9.5295-60.354-14.8237-94.3693,38.78,16.8092,71.3394,37.7213,104.1635,57.8393,31.7652,19.4562,62.7364,40.1036,93.5751,61.0157,17.4709,11.912,34.8094,15.3532,55.1921,7.28,73.3248-28.9858,147.0467-29.3829,220.5038-.2648,21.3092,8.4708,39.3095,4.7648,57.5746-7.9413,55.9862-38.6477,113.4284-74.7807,173.253-107.0753C773.1926,134.4436,780.6045,131.267,789.737,126.8993Z" fill="#010101" fill-rule="evenodd"/>
</svg>
