<svg id="Calque_1" data-name="Calque 1" xmlns="http://www.w3.org/2000/svg" width="30cm" height="33.4cm" viewBox="0 0 850.3937 946.7717">
  <path d="M812.1361,501.9428A371.4891,371.4891,0,0,0,707.9636,275.8066a36.6006,36.6006,0,0,0-50.7055,0,35.56,35.56,0,0,0-2.41,48.4149,351.489,351.489,0,0,1,39.2351,57.3715A260.7856,260.7856,0,0,1,659.6679,684.82a285.6115,285.6115,0,0,1-52.6643,44.2871V611.0478c-.347-128.9524-117.5951-183.5691-122.4149-185.4-78.9368-36.602-117.7144-127.3541-121.8422-137.673-19.1644-110.1419-84.3271-145.3687-107.9641-154.774-8.6028-26.9644-30.7453-58.0546-85.8129-61.38a11.5652,11.5652,0,0,0-9.9824,18.24,64.3451,64.3451,0,0,1,10.0952,35.7973c-22.032,5.6223-75.8372,25.1249-82.4939,82.6,0,.69-1.2625,16.8671-26.843,32.24a36.9433,36.9433,0,0,0-19.7347,21.1144c-5.1648,14.1124-1.84,31.3179,10.555,51.7424,1.4949,2.0628,34.4155,47.5,90.6394,40.3827a91.7712,91.7712,0,0,1-28.337,64.5924,12.179,12.179,0,0,0-2.1845,3.2124,201.4422,201.4422,0,0,0,18.0169,176.1073,9.9755,9.9755,0,0,0,2.1756,2.6421c.69.57,61.2672,54.15,43.5973,108.7668l-20.8845,60.69a14.3243,14.3243,0,0,1-8.0213,8.7221l-31.4367,13.3077a41.877,41.877,0,0,0,16.4007,80.3121h59.4351A39.4818,39.4818,0,0,0,226.68,846.9342l41.99-111.7469A131.3423,131.3423,0,0,0,323.39,783.1447l-19.1555,2.41a44.1631,44.1631,0,0,0-38.4122,49.2469q.09.7308.2051,1.4585a45.2068,45.2068,0,0,0,44.632,37.5169h175.76c8.2666.8024,16.1773,1.1475,22.9472,1.1475a190.994,190.994,0,0,0,71.9349-12.505,324.5294,324.5294,0,0,0,134.805-99.3549A476.3327,476.3327,0,0,0,784.9481,650.86a316.4657,316.4657,0,0,0,27.188-148.9176Z" fill="#010101"/>
</svg>
