<svg id="Calque_1" data-name="Calque 1" xmlns="http://www.w3.org/2000/svg" width="30cm" height="33.4cm" viewBox="0 0 850.3937 946.7717">
  <path d="M425.1968,61.3483C197.6376,61.3483,13.16,245.8261,13.16,473.3855S197.6368,885.4233,425.1968,885.4233,837.234,700.9448,837.234,473.3855C836.9792,245.9334,652.6489,61.6032,425.1968,61.3483ZM439.904,180.1376l143.2417-57.2587a385.4374,385.4374,0,0,1,47.0651,25.37l.3754.2347a386.7822,386.7822,0,0,1,42.3975,31.0907l1.1536,1.0059q9.0238,7.6854,17.55,15.9008c.7176.704,1.4687,1.3748,2.1863,2.0922q8.9424,8.7316,17.3224,18c.4628.5231.9054,1.0729,1.3681,1.596,4.9024,5.4926,9.6168,11.18,14.1907,16.9605,1.1,1.3747,2.2,2.75,3.2659,4.1243,4.9628,6.4247,9.7644,12.9633,14.2979,19.71L715.7636,380.3486,575.2718,427.1858,439.9378,318.8989ZM120.36,239.3344q1.5995-2.062,3.2527-4.1176,6.78-8.601,14.0229-16.7861c.5231-.5767,1.0058-1.1668,1.5222-1.7437q8.3293-9.2846,17.2554-17.993c.6841-.6706,1.3681-1.3747,2.0857-1.9918q8.46-8.1581,17.4029-15.8071l1.375-1.1533a388.22,388.22,0,0,1,41.995-30.9029l.5365-.342a385.8337,385.8337,0,0,1,46.7838-25.343L410.49,180.1376v138.72L275.1493,427.1237,134.6575,380.3745,106.102,258.99c4.5753-6.7323,9.3225-13.2576,14.2584-19.6555Zm-16.5508,444.811q-6.0558-9.2345-11.5818-18.818l-.892-1.5424q-5.4926-9.5364-10.3948-19.388l-.114-.208A382.6512,382.6512,0,0,1,62.74,601.6105v-.134c-2.4411-6.8674-4.6675-13.9023-6.7263-20.9774l-.7446-2.6088q-2.8268-9.9688-5.1236-20.1594c-.1341-.6638-.3017-1.2943-.4359-1.9515a382.2569,382.2569,0,0,1-7.2562-46.5218l83.8493-100.6142L265.8209,455.145l40.4929,161.9579L239.78,705.6267ZM516.6579,846.8678c-6.8674,1.7035-13.9158,3.1722-20.964,4.4934-.9859.1943-1.9918.3553-2.9777.5364-6.0022,1.0731-12.0714,1.9918-18.1541,2.743-1.6229.2077-3.2323.4292-4.8481.6237-5.6465.6572-11.3471,1.1534-17.0608,1.5626-1.7973.1206-3.5743.3017-5.3718.4157-7.303.4494-14.6664.711-22.0839.711q-10.19,0-20.26-.5366c-.8115,0-1.5888-.1342-2.401-.1945q-8.9626-.513-17.8587-1.368l-.6843-.1275a391.3868,391.3868,0,0,1-38.729-6.1766l-81.2411-127.199,65.4873-87.3231H520.8828l66.56,87.9ZM800.7852,555.7929c-.141.6571-.3019,1.2943-.4426,1.9514q-2.304,10.18-5.1236,20.1594l-.7379,2.6088c-2.0655,7.0751-4.2852,14.0832-6.733,20.9774v.134a381.3989,381.3989,0,0,1-18.087,42.5786l-.1141.2077q-4.9294,9.8592-10.3948,19.3882l-.892,1.5424q-5.4926,9.6168-11.5616,18.7911L611.19,705.4985l-66.9969-88.45,40.4732-161.9178,139.5185-46.5016,83.8494,100.6151a381.3923,381.3923,0,0,1-7.2493,46.5487Z" fill="#020303"/>
</svg>
