<svg id="Calque_1" data-name="Calque 1" xmlns="http://www.w3.org/2000/svg" width="30cm" height="33.4cm" viewBox="0 0 850.3937 946.7717">
  <path d="M160.683,724.68c-117.2718-173.0185-34.57-308.0591-34.57-308.0591-19.1734-5.7109-80.63,34.6039-80.63,34.6039,34.5693-126.69,224.789-234.3417,224.789-234.3417-21.1091-7.8172-80.7639,7.5817-80.7639,7.5817C345.19,74.6611,535.41,130.373,535.41,130.373c5.7448-32.5988,99.8016-90.2822,99.8016-90.2822-9.5195,9.5194-13.4275,61.4569-13.4275,61.4569,9.5192-17.2347,40.3147-34.57,40.3147-34.57-17.2336,40.3151,0,126.69,0,126.69C712.068,243.6353,767.78,416.62,767.78,416.62l21.1437,30.6623c26.9875,38.512,17.1011,99.0356-9.5194,113.3974-99.9688,53.8751-109.6228-44.2243-109.6228-44.2243-82.568-9.5194-144.0249-101.773-144.0249-101.773C414.33,472.2,476.4223,634.7965,524.4536,697.1565c61.826,80.0952,16.5675,209.5244,16.5675,209.5244S276.4176,895.7252,160.683,724.6792Z" fill="#010101"/>
</svg>
