<svg id="Calque_1" data-name="Calque 1" xmlns="http://www.w3.org/2000/svg" width="30cm" height="33.4cm" viewBox="0 0 850.3937 946.7717">
  <g>
    <path d="M27.4859,642.8252s56.6916,113.193,139.5613,59.5778c0,0,7.9462,118.253,18.5883,119.69,10.4761,1.4492,109.0478,0,109.0478,0s-26-31.4043-38.6377-38.2695c-12.6377-7.0433,16.9731-79.259,38.6377-94.961,21.6647-15.7136,66.0748-81.7888,76.0045-109.404,0,0,48.5674,5.0478,76.5509,21.1182s75.6482,72.94,110.675,67.7021c0,0,1.9836,57.0478-5.7844,70.0538-7.5779,12.9939,13.54,71.6691,16.4387,85.209h60.29s3.2544-17.1512-3.0644-21.8429-14.4431-6.8652-14.9894-21.4865c-.5345-14.6212,5.2379-107.9668,14.4431-111.934,9.217-3.9672,74.3891-42.9731,74.3891-42.9731s-15.7137,134.6916-14.4431,145.524c1.259,10.8322,15.524,55.0642,15.524,55.0642H767.517s-15.8921-28.1736-21.8428-31.4158c-5.9625-3.2544,6.3189-166.82,21.8428-189.5657s35.93-70.7785,48.3892-111.9341c12.4477-40.99,10.6422-78.5338,7.0315-95.6856s-38.6258-98.2155-32.1286-106.34,42.9609-71.1347,38.4475-77.9881c-4.5135-6.8652-20.3943-33.4-24.5509-42.4264-4.1453-9.027-16.4266-28.8863-43.6857-44.054s-115.3667-6.3188-129.6316.9027-51.6317,37.9132-56.3233,65.35c-4.6916,27.4492-4.1571,28.1617,2.53,43.3294,6.6751,15.1676,2.5179,33.7677,2.5179,33.7677s5.7846,9.2051,7.9462,9.5614c2.1736.3682,14.99-12.9941,14.99-12.9941s-1.271,66.0749-32.6753,70.5883c-31.4158,4.5136-278.7542.1782-330.03,36.8323C189.0683,410.464,159.6478,451.81,154.41,505.6152c-5.5943,53.7931-9.5733,129.4415-126.9235,137.21Z" fill="#010101"/>
    <path d="M101.5068,673.6948c-16.7828-5.7724-32.3187-15.1676-36.2859-17.5074,2.8862,1.4371,27.081,12.2695,53.6152,6.8533,32.8653-6.6752,44.232-86.1123,44.232-86.1123,1.8054-12.46,3.0763-24.3726,4.1572-34.4805,4.5135-44.7783,19.503-54.708,19.503-54.708C173.9,528.3612,193.95,659.43,193.95,659.43L167.2253,702.403C90.4963,753.6784,24.6,636.6845,24.6,636.6845s32.3189,38.6377,76.9071,37.01Z" fill="#010101"/>
    <path d="M65.2209,656.1874a4.1429,4.1429,0,0,1-.9027-.5464A4.1429,4.1429,0,0,0,65.2209,656.1874Z" fill="#010101"/>
    <path d="M370.51,579.2683s-37.0105,74.0209-69.3291,100.0209c-32.3067,26-52.8906,95.6856-45.3128,104.5343,7.59,8.8488,35.027,29.064,35.027,40.0749h-46.94s19.6811-8.8368,0-25.2754c-19.6812-16.4267-31.5943-10.8324-36.2859-30.5015-4.6922-19.6812,11.1885-61.5733,36.2859-75.1138s69.8636-73.2964,76.182-85.934,7.9461-21.2964,7.9461-21.2964,37.01-7.2216,42.4266-6.509Z" fill="#010101"/>
    <path d="M777.6247,520.9615s-7.0433,69.8641-42.961,117.5283l5.7725-24.3727-43.3293,57.9506,3.4326-42.6049c-.1781.1781,41.1557-35.93,77.0853-108.5014Z" fill="#010101"/>
    <path d="M553.5785,601.4794s-30.6917,8.6712-60.6588-11.7347l-29.967-20.4058,10.2859,21.4865s-48.0209-35.7391-85.7558-40.7994-52.1782,0-52.1782,0l-7.2215,35.5613s66.443-27.081,118.9773,14.8115c52.5346,41.88,110.6751,67.7019,110.6751,67.7019Z" fill="#010101"/>
    <path d="M674.3613,363.7146s-29.4329-7.0441-47.4869-28.8862c0,0,14.265,81.0523,36.108,97.669,0,0-35.3832-2.708-68.7829-119.3341l12.2814-33.7677L621.28,292.0333s4.6916,19.1348,13.3618,15.8922c8.6587-3.2545-.3684,37.3668,39.7185,55.789Z" fill="#010101"/>
    <path d="M761.3762,236.0665s-14.4431,53.8053-32.3189,64.8157c-18.054,11.01-54.34,12.2816-54.34,12.2816s34.8488,34.6585,71.1347,5.2259c0,0-16.9731,23.2919-34.8488,25.2755,0,0,14.265,5.9625,23.47,0,0,0-18.5883,31.2379-47.8428,33.59,0,0,29.7889,10.2859,61.2051-10.12,31.4158-20.3937,42.7947-76.1826,42.7947-76.1826s-12.8278,10.286-21.3084,1.0809c-8.6706-9.027-7.946-55.967-7.946-55.967Z" fill="#010101"/>
    <path d="M625.0692,242.5634s-13.1721-5.9506-14.7994-29.5988l-3.7889,29.5988-6.8653,19.3248s17.3293,29.2426,18.7785,29.064c1.4371-.1782-1.4492-30.87,6.6751-48.3893Z" fill="#010101"/>
    <path d="M760.1169,167.83s23.47,23.6481,24.0046,45.135c.5463,21.4746-12.2695,73.6527,6.3188,74.199,0,0-16.0584,17.5075-26.3563,3.7889-10.2859-13.7186-8.6588-44.7784-8.6588-44.7784S778.349,198.7,760.1169,167.83Z" fill="#010101"/>
    <path d="M764.0843,351.6113s21.8428,45.3128,9.5734,88.4639c0,0,21.8427-10.8323,26.3562-31.0478,0,0,2.1616,106.696-51.6317,162.8413l-19.3248,32.3188s33.4,2.7081,54.708-29.064,47.8428-116.8158,45.313-151.6526c-2.53-34.8487-36.6423-115.5449-36.6423-115.5449Z" fill="#010101"/>
    <path d="M325.7432,492.2534S293.6026,603.641,260.9275,614.1171h20.0369s-12.6377,36.8322-46.2155,57.9506c-33.5774,20.94-30.5135,86.1241-30.5135,86.1241s11.1887-55.2544,39.7186-65.5409S350.65,606.895,325.7429,492.2528Z" fill="#010101"/>
    <path d="M777.6247,516.27S725.09,589.9225,688.08,604.188l12.2815-21.8428s-26.7246,26.1781-43.1512,31.9507L640.7835,620.08,619.297,672.2463c.178-.1781,133.9548-39.8967,158.3277-155.9759Z" fill="#010101"/>
    <path d="M616.767,377.255,587.8808,349.45s-18.7784,12.8158-74.7455,14.4431c-55.7889,1.6273-249.8682-8.8488-306.3695,33.0314,0,0,37.3667-37.0106,100.3772-43.6856s248.0626-7.768,262.8621-16.07a240.0134,240.0134,0,0,0,28.7081-19.491Z" fill="#010101"/>
    <path d="M589.508,169.9917s-11.9131,32.6751-6.1407,46.7618c5.7725,14.0749,6.1407,26,4.1571,35.2051-1.9955,9.3833-1.8053,25.81-1.8053,25.81s-4.8817-11.1887-4.7038-15.88c.19-4.6922-3.6108-25.6436-3.6108-25.6436s-7.0314-25.4537-5.7723-31.2261c1.0808-5.9626,17.8756-35.0269,17.8756-35.0269Z" fill="#010101"/>
    <path d="M652.5184,230.4721c1.6154.3563,30.6917,1.4491,29.064,8.3024-1.6272,6.8652-21.6646,26.3563-29.064,22.3888-7.4115-3.9672-21.6646-20.2156-20.4059-21.1183,1.4491-.7245,12.2815-11.3788,20.4059-9.5733Z" fill="#010101"/>
    <path d="M707.0364,317.6772c-5.9625,0-13.1842-2.7081-22.2111-8.1243A248.8067,248.8067,0,0,1,663.16,294.2071c-1.9835-1.6273-4.3233-3.2545-5.7724-4.3348-1.6272,1.0808-4.1572,3.4325-6.3188,5.2379-7.9462,7.0315-16.07,14.4431-23.6482,12.8158-5.5943-1.2709-9.5734-6.8652-11.5569-16.6167-3.7889-17.8638-.9028-50.0044,12.0913-59.5778a5.1681,5.1681,0,1,1,6.1407,8.3144c-6.497,4.6923-10.8323,25.988-8.8488,43.6856,1.0928,10.476,3.8009,13.54,4.5135,13.8967,2.7079.3682,11.0224-7.2216,14.6332-10.2859,6.6751-5.9626,10.6422-9.5734,15.1557-8.3025,1.9955.5345,3.979,1.983,10.12,6.6752a235.39,235.39,0,0,0,20.5719,14.6213c11.9251,7.2215,16.973,7.0434,19.1467,6.3188,13.35-4.87,21.1182-15.1557,21.2964-15.1557a5.16,5.16,0,0,1,8.3312,6.09l-.0288.039a59.5881,59.5881,0,0,1-25.9881,18.7784,14.23,14.23,0,0,1-5.9625,1.271Z" fill="#010101"/>
    <path d="M670.2043,318.2115c-8.1243,0-15.5241-.1781-19.3129-.5343-11.9132-1.4492-15.7136-13.1842-16.07-19.3249a5.0907,5.0907,0,0,1,4.75-5.41q.06-.0039.1193-.0064a5.2,5.2,0,0,1,5.4162,4.8818c0,.3562.7245,8.8368,7.0434,9.5613,10.2979,1.2709,51.8217,0,52.3563,0a5.2456,5.2456,0,0,1,5.416,5.06,5.3588,5.3588,0,0,1-5.0478,5.4162c-1.271-.1782-19.3249.3562-34.6706.3562Z" fill="#010101"/>
    <path d="M654.1338,266.9362a5.2724,5.2724,0,0,1-1.6154-.3564c-17.6975-5.9625-25.8218-27.8053-26.178-28.8862a4.9572,4.9572,0,0,1,2.1616-6.1406c22.7456-13.8968,55.7889-.9027,57.226-.3564a5.3361,5.3361,0,0,1,3.2545,5.4162c-2.53,20.762-31.9506,29.6108-33.2215,29.967a3.3343,3.3343,0,0,1-1.6273.3564Zm-16.4267-28.5184c2.7081,5.2379,8.3024,14.2649,16.4267,17.8757,6.6866-2.3518,19.1467-8.3144,23.1137-16.7949-7.946-2.53-25.6317-6.6752-39.54-1.0808Z" fill="#010101"/>
    <path d="M656.1293,288.6008a5.0988,5.0988,0,0,1-5.06-4.6922c-2.3518-22.1991-2.3518-22.1991.9027-24.1946a5.09,5.09,0,0,1,7.5779,5.2381c0,1.9829.9027,10.476,1.6271,17.8756a5.241,5.241,0,0,1-4.5134,5.7725Z" fill="#010101"/>
    <path d="M728.8792,197.9749a11.5537,11.5537,0,1,1,0-.0058Z" fill="#010101"/>
    <path d="M649.9886,197.9749a11.557,11.557,0,1,1-11.5571-11.5569h0a11.5555,11.5555,0,0,1,11.5569,11.5539Z" fill="#010101"/>
    <path d="M121.5443,720.6349a80.0528,80.0528,0,0,1-25.0853-3.967c-49.47-16.2485-75.6482-75.47-76.729-78a4.9825,4.9825,0,0,1,1.4371-5.9507,5.1571,5.1571,0,0,1,6.1407-.3683c.1782,0,20.94,11.5569,70.41-13.1721,33.5778-16.7949,39.1722-51.4535,45.6812-91.3622,3.2424-19.6691,6.4969-39.8967,13.54-59.21,22.9236-63.3667,57.95-96.5878,120.5927-114.4639,43.6975-12.46,144.4311-15.7022,217.9175-18.2321,35.5614-1.0808,63.545-2.1737,73.8308-3.6107,27.4491-4.3349,32.3189-52.7246,32.497-53.0808a5.3459,5.3459,0,0,1,5.6067-4.6918,5.2167,5.2167,0,0,1,4.6916,5.5942c-.1781,2.3519-5.7844,56.87-41.1676,62.4641-10.8323,1.6272-39.1721,2.7081-75.1018,3.7888-72.94,2.3519-172.9609,5.6065-215.3877,17.8758C221.3874,381.0437,188.5346,412.46,166.87,472.2154c-6.6867,18.41-9.93,38.2694-13.006,57.4042-6.6751,40.99-12.8159,79.8053-51.2754,98.94-33.4,16.6047-55.2424,18.054-67.702,16.4266,9.5733,17.1512,31.9625,51.0974,65.3622,61.93,21.1183,6.8533,43.5074,3.6109,66.6212-9.93a5.1385,5.1385,0,0,1,5.2261,8.8488c-17.6857,9.74-34.3024,14.7994-50.5509,14.7994Z" fill="#010101"/>
    <path d="M243.9544,828.602H190.3392c-7.59,0-13.7308-5.6063-14.8115-13.54L162.5338,723.165a57.9026,57.9026,0,0,1,9.205-40.4429l16.6049-24.5509c-4.1452-20.0377-30.87-160.8579,13.9088-226.22,12.2695-18.054,29.064-28.7081,49.8263-31.9506a5.262,5.262,0,0,1,5.9626,4.3349,5.1317,5.1317,0,0,1-4.1876,5.9274q-.0735.0126-.1473.0231c-17.8757,2.7081-32.3188,12.1034-42.973,27.6273-44.7661,65.35-12.0912,218.8083-11.9132,220.4355a5.0074,5.0074,0,0,1-.7245,3.967l-17.8765,26.369a47.29,47.29,0,0,0-7.4,33.21l13.006,91.8966a4.8537,4.8537,0,0,0,4.6923,4.5135h53.6152a4.5679,4.5679,0,0,0,4.1571-2.8862,6.1941,6.1941,0,0,0-.7244-6.497c-5.9627-7.2215-14.99-12.6377-26.7247-16.2485-11.1885-3.4326-23.47-13.9086-18.5882-45.1351,3.7889-23.8383,18.41-45.681,40.0748-59.7559,17.3293-11.3788,63.3667-41.3458,83.0479-119.88a122.2971,122.2971,0,0,0,.7246-55.4326l-7.0441-31.7724a5.1606,5.1606,0,0,1,3.9525-6.1352l.0265-.0056a5.0668,5.0668,0,0,1,6.0866,3.7812q.0231.0985.0421.1979l7.0441,31.7724a132.4286,132.4286,0,0,1-.7246,60.1243c-20.5718,82.5014-69.1392,114.0957-87.5608,126.0092C228.61,708.9,215.6156,728.2129,212.3611,749.165c-3.0643,19.1347.7246,30.5015,11.3789,33.5778,13.7185,4.1452,24.3727,10.6543,31.7724,19.4909a16.6846,16.6846,0,0,1,2.1617,17.52,15.4611,15.4611,0,0,1-13.7186,8.8488Z" fill="#010101"/>
    <path d="M557.5453,673.3386a4.7059,4.7059,0,0,1-1.6153-.19c-1.8054-.5345-46.5838-15.7021-105.6148-63.5448-40.8117-33.2216-94.7829-26.3563-123.3127-19.1347a5.21,5.21,0,0,1-2.55-10.103l.02-.0049c30.3353-7.59,88.1077-14.99,132.34,21.1182,57.404,46.762,101.8262,61.5614,102.3607,61.74a5.13,5.13,0,0,1,3.2642,6.48l-.01.0294a4.897,4.897,0,0,1-4.8817,3.6109Z" fill="#010101"/>
    <g>
      <path d="M291.7972,828.602H243.9544a5.2381,5.2381,0,0,1-.0456-10.4761h41.9257c-2.7081-7.2216-11.5449-13.3618-19.4909-18.9565-6.3188-4.3349-11.735-8.1242-14.8115-12.6378-9.027-13.54,7.0434-82.1451,48.3892-113.7394,38.6378-29.4329,65.35-94.7829,65.7185-95.5073a5.1424,5.1424,0,1,1,9.5615,3.7889c-1.0808,2.7079-28.1617,68.7948-68.961,99.8427-38.9941,29.6109-51.2755,91.7184-46.0374,99.6527,1.9829,2.8982,6.8652,6.3188,12.0912,9.93,11.3789,7.9461,25.4656,17.6977,24.7407,32.8652a5.3608,5.3608,0,0,1-5.238,5.2381Z" fill="#010101"/>
      <path d="M767.161,828.602h-66.8a5.2171,5.2171,0,0,1-4.7038-2.8982,240.3987,240.3987,0,0,1-11.5449-28.1618c-5.4162-16.2484-4.5134-39.8966-4.5134-40.7993L695.1232,623.69a5.1813,5.1813,0,0,1,10.2858,1.2589L689.8851,757.6451s-.7245,22.3888,4.1573,36.8323c3.6107,10.6541,7.5777,19.491,9.5614,24.0044h56.5131c-3.2544-6.4968-10.6541-12.9939-17.6975-19.3128l-.7246-.5463C727.7982,785.9849,738.63,628.738,768.9657,592.63c28.6962-33.9341,45.1351-117.35,45.3128-118.0748,0-.1782.1783-.5344.1783-.7125,19.1347-52.5465-10.8323-131.7934-21.1184-149.491-10.8322-18.9566-8.3141-33.4-8.1241-33.9461a5.1656,5.1656,0,0,1,5.9982-4.17c.0437.0078.0871.0162.1306.0251a5.2226,5.2226,0,0,1,4.1571,5.9506c0,.19-1.8053,11.5569,7.0441,26.9027,10.654,18.6,42.0583,102.0045,22.0209,157.9715-1.4372,7.2216-17.8758,87.3831-47.4746,122.41-28.8863,34.1242-35.5733,179.09-28.1736,191.7275l.5463.3689c10.6542,9.5612,21.6648,19.4909,22.9237,31.7723a5.24,5.24,0,0,1-1.2589,3.9672,9.306,9.306,0,0,1-3.9672,1.2709Z" fill="#010101"/>
    </g>
    <path d="M674.7175,368.9405a4.8413,4.8413,0,0,1-2.1616-.5343c-33.4-15.3458-42.9731-59.756-43.3293-61.5614a5.2862,5.2862,0,0,1,3.9671-6.1407,5.1994,5.1994,0,0,1,6.1406,3.9671c0,.3682,9.0271,41.1676,37.557,54.34a5.2139,5.2139,0,0,1,2.5179,6.8652A5.0683,5.0683,0,0,1,674.7175,368.9405Z" fill="#010101"/>
    <path d="M628.3239,828.602H568.2a5.12,5.12,0,0,1-4.5134-2.7081c-1.0809-2.1736-27.9836-52.3563-16.7829-89.1885,6.1286-20.4059,5.9505-39.54,5.5942-59.7559-.178-13.1842-.3682-26.9027,1.2591-41.1677,1.9835-16.4267-.9028-49.1017-8.1243-91.7185a211.7088,211.7088,0,0,1-.5344-69.1392,5.207,5.207,0,0,1,10.2908,1.5967l-.0049.0306a210.9313,210.9313,0,0,0,.5464,65.7065c5.226,30.8818,10.8324,72.216,8.1243,94.6048-1.6273,13.54-1.4492,26.9027-1.271,39.8966.3682,20.0494.7245,40.8118-5.9507,62.8324-8.4925,28.1616,9.3832,67.88,14.6213,78.5344h51.81c-.5345-4.87-2.7081-13.3619-12.46-22.3888-12.4476-11.7352-2.7081-72.3938.7245-90.6258,10.476-57.0479,32.497-128.0045,60.6587-139.74a5.096,5.096,0,0,1,3.979,9.3832h0c-19.1347,7.9461-41.5239,61.5734-54.162,130.5344-9.205,50.1946-7.9461,79.0808-3.9791,82.6916,18.9566,17.6852,15.5359,35.3832,15.3458,36.1081a5.0562,5.0562,0,0,1-5.0478,4.5134Z" fill="#010101"/>
    <path d="M674.3613,447.2968a4.1266,4.1266,0,0,1-2.53-.7246c-69.3293-39.7186-79.0808-129.7977-79.4371-133.7768a4.9982,4.9982,0,0,1,4.3584-5.565q.1663-.02.3338-.0293a5.1129,5.1129,0,0,1,5.5855,4.5917c.0032.0334.0062.0669.0088.1005,0,.9027,9.5733,88.6421,74.2105,125.6525a5.28,5.28,0,0,1,1.9836,7.044,5.16,5.16,0,0,1-4.5135,2.7081Z" fill="#010101"/>
    <path d="M625.0692,673.3386a5.0691,5.0691,0,0,1-4.6916-3.2545,5.4,5.4,0,0,1,2.7081-6.8653c76.0044-31.9505,125.1179-80.34,145.69-144.0632a5.1382,5.1382,0,1,1,9.7659,3.1989l-.0145.0436C756.8624,589.0193,705.9553,639.57,627.0527,672.7918a4.73,4.73,0,0,1-1.9836.5464Z" fill="#010101"/>
    <path d="M740.4361,377.4331a4.9643,4.9643,0,0,1-4.5135-2.7081,5.1019,5.1019,0,0,1,1.8567-6.9722q.0628-.0364.1269-.0712c42.07-23.1138,44.6-70.2319,44.6-70.5883a5.15,5.15,0,0,1,10.2878.5019l-.0017.0326c0,2.1736-2.7081,53.2589-50.0046,79.2588A4.9392,4.9392,0,0,1,740.4361,377.4331Z" fill="#010101"/>
    <path d="M621.2805,297.272a5.0784,5.0784,0,0,1-1.6273-.1782c-21.8428-7.0433-22.5674-33.946-22.5674-35.0268a5.0973,5.0973,0,0,1,4.9543-5.2363c.0352-.0009.07-.0016.1057-.0018a5.2094,5.2094,0,0,1,5.2379,5.06c0,.3564.7126,20.7621,15.3458,25.4537a5.3608,5.3608,0,0,1,3.4207,6.497,5.1018,5.1018,0,0,1-4.87,3.4325Z" fill="#010101"/>
  </g>
</svg>
