<svg id="Calque_1" data-name="Calque 1" xmlns="http://www.w3.org/2000/svg" width="30cm" height="33.4cm" viewBox="0 0 850.3937 946.7717">
  <path d="M675.3028,518.2174C655.31,455.2413,629.0049,395.342,586.8089,343.5428c-11.4949-14.1262-22.2984-28.8807-33.07-43.5714-21.8054-29.62-34.469-63.5641-39.6918-99.2737-5.12-34.93-12.5761-68.6838-26.5754-101.11-1.7726-4.0621-1.5579-10.0563.0238-14.3411,3.951-10.5883,14.1977-21.4873,12.7035-30.8041-2.1065-13.3236,3.14-20.12,10.1277-28.507a9.6507,9.6507,0,0,0,1.6457-4.9046,6.2426,6.2426,0,0,0-4.69-6.5586,8.6672,8.6672,0,0,0-5.3739-.1194c-26.4563,11.8927-54.931,21.146-78.2234,37.6648-16.8924,11.9563-31.6392,17.203-49.899,11.3362-30.4943-9.8177-60.1856-8.3231-90.2112,1.6136C277.8276,66.86,269.544,66.796,264.48,63.942c-29.1271-16.3043-57.7294-33.539-86.451-50.5508-2.7667-1.6137-6.2722-2.9174-7.8541-2.9174-1.59,0-1.9641,2.3847-.8747,5.3978a45.01,45.01,0,0,0,4.4755,10.0639c7.1072,11.05,19.7785,19.6274,13.1009,36.1465-1.12,2.7583,1.86,9.03,4.7855,11.36,16.3925,12.9816,12.5447,31.0271,8.1962,45.7734-8.013,27.0206-10.2468,54.0647-5.7159,81.0771,3.57,21.2094-1.5181,39.3181-8.4425,58.6038a179.3647,179.3647,0,0,0-10.2783,50.0818,599.156,599.156,0,0,0,.4926,80.7674c2.2339,28.507,6.8923,56.9263,12.0515,85.1152,5.2151,28.6661,12.8545,56.8951,18.38,85.5211,2.8617,14.9053-.3738,32.1715,6.0572,44.9067,7.3615,14.6271,7.608,28.1968,6.7736,42.88-1.8045,32.02,1.9238,63.3814,22.9739,88.5017,19.1586,22.8866,33.8172,49.8435,60.806,66.2673,17.0118,10.4059,15.5572,24.6832-2.5518,34.2862-12.0753,6.3913-25.9,9.6189-39.1276,13.7525-16.0819,5.0638-26.1457,19.063-25.0567,35.8684.747,11.956,7.0513,18.6575,21.4558,22.3539,3.0762.7792,4.0066-.8027,2.1463-3.3867-10.78-14.9291-11.153-22.7275-1.0576-30.0572,2.5755-1.8919,5.31-.5245,6.0573,2.5442,2.6712,10.6521,6.2088,10.9939,19.874,6.3356,4.841-1.6456,9.7144-3.2594,13.9992-4.7141a7.6827,7.6827,0,0,1,8.5135,3.0685c2.393,3.8873,4.5954,7.425,6.71,10.8115,1.6693,2.7028,3.72,4.5947,4.5628,4.2212.8666-.3739,1.55-3.2594,1.55-6.4632V876.0011c0-3.1955,1.3358-3.5379,2.9811-.8348,1.55,2.5441,2.8539,4.7213,4.2532,7.0512a4.2971,4.2971,0,0,0,7.0513.8348c5-4.9684,9.4122-9.4042,13.88-13.7843,4.0383-3.9747,8.1322-7.886,12.2341-11.8367,2.3292-2.2021,3.943-1.36,2.8539,1.6215-.7074,1.9238-1.5821,3.72-2.3532,5.5568-11.3676,26.766-3.3227,54.6209,20.74,70.9891a6.046,6.046,0,0,0,3.3549.6757c1.9239-.0239,1.7967-2.0429-.0956-4.5948-7.1066-9.5951-11.7333-19.9294-8.5375-33.221.779-3.0767,3.4182-3.45,6.0892-1.7091,7.3527,4.69,12.3534-.9937,16.8292-7.2659,5.5564-7.7983,10.6765-15.9308,15.5253-24.19,6.0576-10.3743,14.3171-18.1647,26.639-15.4064,14.1977,3.2357,29.5,6.5266,33.8173,24.35,2.7028,11.0179,8.7921,18.9118,20.5572,21.6386a23.0736,23.0736,0,0,1,6.1848,2.9811c2.6943,1.6773,2.9175,4.5073.4292,6.4944-2.7583,2.17-4.9364,3.9115-7.2659,5.4615-2.0824,1.3992-4.2529,2.6391-6.7969,4.07-2.7979,1.5186-2.4563,3.0131.7155,3.1082,22.696.8032,27.8791-4.7854,29.7471-27.8866a256.4812,256.4812,0,0,0,.2147-26.7667c-.063-3.1718,1.5822-3.792,3.6007-1.3037,12.2026,14.7146,25.9634,30.86,38.85,47.665,7.6393,9.9372,16.9561,15.6766,29.0314,16.1455,13.4189.5248,26.83.2466,41.5523.1511a4.9051,4.9051,0,0,0,5-5.7079c-3.7285-27.2669-6.8048-51.1791-10.4373-74.9958-1.892-12.6077-1.3037-23.9437,4.57-36.0509a339.5925,339.5925,0,0,0,20.0561-53.7545c14.8736-52.1649,17.5129-105.673,15.9628-159.5153-.0955-3.1957,1.8283-4.4437,4.2846-2.7979,2.48,1.6453,4.0941.4372,3.6329-2.7269-1.6454-11.2166-3.1081-21.3364-4.6583-31.83-.4692-3.14,1.0576-3.943,3.3867-1.7729.31.31.62.5883.93.8668,2.3291,2.1781,4.9367,3.6329,5.867,3.2357.8984-.3737,1.24-3.2357.8426-6.3993-1.6455-12.2662-2.5519-24.7469-6.2483-36.3294Z" fill="#010101"/>
</svg>
