<svg id="Calque_1" data-name="Calque 1" xmlns="http://www.w3.org/2000/svg" width="30cm" height="33.4cm" viewBox="0 0 850.3937 946.7717">
  <path d="M791.1114,326.87c-11.1637-14.4321-9.3583-18.1033-25.4242-9.7684-20.8945,2.9478-42.4382-21.0435-62.4371-25.4462-27.1629-6.0074-53.3407,2.1268-75.9293,17.4018-25.3644,17.2011-39.3263,45.9978-72.3844,45.0949-30.2-.8133-58.7359-3.6117-88.5849,3.2686-62.1761,14.3127-108.7557,56.1689-167.2006,78.3767C260.9661,450.2892,223.2441,454.11,183.0445,454.11H80.1165c-40.5727,0-66.72,25.5066-66.72,68.4669,7.2309-3.1193,12.1559-18.0141,19.6781-24.3646,7.1414-6.0372,13.7307-5.1939,22.5882-5.1939a226.7531,226.7531,0,0,1,54.3332,6.94q60.6462,14.742,121.2926,29.4687c20.2,4.9029,41.3936,5.8356,61.7731,10.2085,12.2083,2.59,24.5957,6.291,37.0727,7.3132,16.3874,1.373,24.7228,8.8577,38.2743,16.73,1.112,1.082,6.067.791,7.8132,1.9549a63.0476,63.0476,0,0,1-7.5819,16.29,72.944,72.944,0,0,1-27.8342,25.2151c-14.8653,7.38-10.701,25.2151-18.1633,37.8713-7.4626,12.6189-23.1407,28.5951-23.1407,44.1322a16.6672,16.6672,0,0,0,8.216-2.1566c5.6264,9.44,7.44,31.3343,18.6332,31.3343h23.0513c.2387.2015.38.3209.38.3209a90.3523,90.3523,0,0,1,16.268,2.8878c4.3132,1.3356,1.4251-4.052-4.1412-8.104H369.02c1.284.291,2.5673.6418,3.7911,1.0149,4.0518,1.2535,2.9473-2.3283-.8433-6.3207,1.2537.2911,2.4776.5821,3.6417.9627,6.0894,1.8881-2.2761-9.7977-12.2458-11.8951-4.5744-2.9177-10.5816-4.6637-16.5812-7.1711-11.9548-4.9251.5222-37.17,5.8281-43.8115,16.529-20.8121,39.4084-30.8416,62.7581-43.3786-9.6788,32.2968,23.4391,18.7753,41.1024,29.3569,11.2531,7.6934,25.4765,25.8866,39.5279,31.7744a99.9151,99.9151,0,0,1,9.7384,12.9094c3.6416,6.0671,4.0744-8.9174-1.3134-19.0364a8.9308,8.9308,0,0,1,1.8357.2911c.1418.6716.2612,1.112.2612,1.112s9.2383,9.88,14.8052,19.1482c3.5894,5.9772,4.664-4.4848,1.6045-15.3574a29.422,29.422,0,0,0,5.9473.8434c1.3731,1.8653,2.7686,3.8206,3.9331,5.7682,2.5967,4.3208,3.53-2.0072,1.9549-9.671a10.844,10.844,0,0,0-.7538-4.9625,23.6716,23.6716,0,0,0-4.8729-7.9847c-.4029-.4627-.8134-.9029-1.2537-1.3434-8.1862-8.2159-20.9837-13.5815-26.4089-25.2375-5.3579-10.35-33.4311-10.0292-43.289-14.5216-14.0737-6.44,3.0375-30.6031,9.1564-39.2072,9.4994-13.38,21.8647-24.7449,33.73-36.0281,9.97-9.47,50.2213-7.8652,64.9742-11.6858,14.4547-3.7909,32.2969-16.3575,46.9829-16.3575,16.82,0,26.9688,22.5063,45.0125,22.5063-.6119-2.5668,0-5.7384,0-8.3951,16.2306,7.2908,25.738,2.6567,32.82,18.5963-.09,1.3132-.09,2.3058-.09,2.3058a79.5619,79.5619,0,0,1,5.4548,12.559c.5224,1.6642,1.1343,1.4329,1.6641.1493a15.38,15.38,0,0,0,5.8282-3.3207,63.1784,63.1784,0,0,1,2.3282,6.2906c1.5154,4.9625,3.91-3.4326,3.1791-12.0666.5521-.694,1.0819-1.4251,1.5746-2.1564a67.5918,67.5918,0,0,1,3.9026,9.5069c1.7236,5.6266,4.7833-9.9994.41-17.5515,1.955-5.0145,2.2461-9.7905-.5224-12.5888-4.5221-4.5223-7.9623-15.2753-12.2154-16.708-11.0144-3.6417-26.0882-2.8581-32.588-14.3651,4.6039.3732,9.5,2.3283,14.0814,2.3283,0-20.2005-32.1551-21.1333-45.0126-21.1333,0-18.8871,3.3579-38.1251,12.2456-55.0048,4.5149-8.6264,18.7155-31.894,30.4015-31.894,17.0215,0,23.4988,19.7678,34.1326,29.5283,4.9849,4.5821,11.6637,6.8806,17.35,10.5295C746.9205,430.61,767.9046,450.4,785.4559,450.4c27.633,0-20.5512-56.3106-25.6555-62.84,9.9175-6.5894,76.5187,47.0425,76.5187-1.955,0-27.3718-30.0209-41.304-45.2063-58.7359Z" fill="#010101"/>
</svg>
