<svg id="Calque_1" data-name="Calque 1" xmlns="http://www.w3.org/2000/svg" width="30cm" height="33.4cm" viewBox="0 0 850.3937 946.7717">
  <path d="M532.8749,103.6848c2.508,5.2438,1.254,9.12.4561,13.3376,5.0158-.912,7.6377-4.9019,11.1716-7.41,32.945-22.5713,68.5119-36.9349,109.3227-34.5409,4.9019.3419,10.83-1.254,13.9076,4.2178,1.254,2.28-2.3939,5.9278-12.1976,12.3117,6.0418,0,9.9177.1139,13.7936,0,45.5986-1.71,80.8236,18.4674,107.7267,53.4644,24.2813,31.691,38.3028,68.17,44.6867,108.2967-7.7518-.342-10.4877-6.9538-16.4155-10.83,2.3939,22.7993,4.7878,44.9147,1.4819,67.258-6.7258-.798-6.84-6.1558-8.6637-9.8037-12.3116-25.0793-31.5771-41.3808-59.3922-45.8266-27.7012-4.4459-45.3706,14.1355-42.1787,42.0647,4.3318,38.8729,20.8613,73.3,37.3908,107.8408,18.5815,38.8728,40.2408,76.6057,50.0445,118.8984,31.1211,134.972-10.9436,254.6683-133.262,323.18-37.1628,20.8614-78.2016,28.0431-120.38,30.3231-63.04,3.3059-126.1942,1.9379-189.2343,1.9379-10.1457,0-20.1774,0-30.2091,1.71a55.6993,55.6993,0,0,1-29.8671-2.6219,49.2415,49.2415,0,0,0-36.707.228c-12.4256,4.9018-25.0792,5.4718-37.9608,3.0779-6.9538-1.2539-14.0216-1.4819-12.8816-12.0836.684-5.8138-5.13-3.1919-7.8658-3.42-7.0678-.57-9.3477-3.5339-6.7258-10.1457.798-2.166,3.3059-4.4459,1.14-6.7259-7.8658-8.4357,0-12.8815,4.9018-16.5295,9.4618-7.0678,20.7474-11.2856,31.9191-15.0475,6.1558-2.0519,11.7416.228,16.9855,3.1919,22.2293,12.6536,46.5106,13.11,71.02,12.8816,3.5339,0,7.98-.456,9.12-3.6479,1.4819-3.7619-3.1919-5.8138-5.5859-7.8658-7.7517-6.4978-15.8455-12.54-23.7112-18.8095-31.8051-25.1932-53.35-56.4283-58.7083-97.581-2.1659-16.5295-1.14-32.717,6.84-47.7646,3.7619-7.0678,7.5238-14.1356,11.1717-21.2033,3.1919-6.0418,9.2337-11.6277,5.0158-19.0375-4.2179-7.2958-11.97-3.7618-18.2394-3.99-27.3592-.912-53.35-9.12-79.7976-15.2756-6.3839-1.482-12.6537-4.1039-19.38-3.5339-3.7619.342-8.0937.798-9.5757,5.0159-1.2539,3.5339,1.254,6.6118,3.42,9.4617,6.9538,8.8917,6.7258,9.69-4.2178,13.4516-28.2712,9.5757-54.8324-3.42-60.3042-29.1831a24.5033,24.5033,0,0,1,.9119-14.3636c8.55-20.4053,20.2914-38.0748,41.4948-47.4225,9.5757-4.2179,18.9234-8.8918,28.6131-12.54,23.3693-8.7777,34.883-26.4472,38.5309-50.1585,1.5959-10.26,3.3059-20.6333,4.1039-31.007,1.4819-20.2914-10.3737-33.857-30.5511-35.909a278.4859,278.4859,0,0,1-60.19-12.54,112.8667,112.8667,0,0,1-49.0185-32.375c-6.7258-7.41-8.0938-15.3895-3.42-23.9393,14.0216-25.6492,28.1571-51.1844,42.7487-76.4917,6.4978-11.2856,16.4155-19.8354,27.4732-26.6752,21.7733-13.5656,33.743-33.059,37.6188-58.48,5.3579-34.997,18.6955-66.802,41.2668-94.5032,1.5959-1.9379,2.9639-3.8759,4.6739-5.5858,2.6219-2.7359,5.3578-7.0678,9.0057-6.27,4.7878,1.0259,2.3939,6.3838,3.1919,9.8037.57,2.6219,1.026,5.3578,1.71,9.0057,3.7619-1.3679,3.7619-8.3217,8.2078-5.7,2.9639,1.71,2.0519,5.7,2.28,8.7777.456,10.6017-1.0259,21.3174,3.0779,33.173,8.8918-21.2033,17.67-40.9248,40.9248-48.5625,2.1659,6.9538-2.5079,11.7416-3.1919,18.0114,6.27,3.42,9.2337-6.3838,16.1875-4.3318-2.0519,11.6276-4.2178,23.5973-6.3838,35.2249,2.28,1.14,3.42.456,4.4459-.57,2.0519-1.9379,4.56-4.3319,7.1818-2.7359,2.85,1.8239,2.6219,5.4718,2.0519,8.6637-1.14,5.8139-2.394,11.6277-3.5339,17.3275-.342,1.938-1.368,5.4719,1.254,5.13,11.97-1.71,5.7,6.4978,5.2438,10.0317-1.938,15.5035-4.7879,30.8931-7.1818,46.3966-2.7359,18.0114,4.2179,33.515,13.11,48.3345,24.5093,40.9248,61.1022,66.688,104.6489,84.0155,29.5251,11.7416,59.5062,22.4573,88.2334,38.9868-26.5612-69.31-25.4213-137.7078,2.7359-205.08C489.67,143.8116,507.2257,120.7843,532.8749,103.6848Z" fill="#010101" fill-rule="evenodd"/>
</svg>
