<svg id="Calque_1" data-name="Calque 1" xmlns="http://www.w3.org/2000/svg" width="30cm" height="33.4cm" viewBox="0 0 850.3937 946.7717">
  <g>
    <path d="M212.414,447.0328c-79.6291,119.49-88.2419,240.9607-47.0516,286.0186,42.1339,46.1211,166.7943,32.7369,326.2916-73.5946,0,0-252.5374,93.04-292.4118,39.8743C160.3117,647.3216,210.1544,455.8053,212.414,447.0328Zm418.2554,59.9446c79.6157-119.4768,88.2684-241.094,47.065-286.1382-42.1473-45.9885-166.8078-32.5642-326.305,73.754,0,0,252.5374-93.04,292.4118-39.8743C682.7716,306.6886,632.9281,498.2049,630.6694,506.9774ZM785.2354,114.64c76.0271,82.2742-1.7279,333.3229-200.5412,531.525C389.31,840.9648,142.9,905.5613,68.88,835.7811a49.11,49.11,0,0,1-3.7217-3.7217c-75.6284-82.66-11.5635-320.0312,187.25-518.18,195.65-194.9855,448.44-278.8544,528.9993-203.0932A52.3535,52.3535,0,0,1,785.2354,114.64Z" fill="#020303"/>
    <path d="M760.9919,139.3757l-.1594-.1594a25.961,25.961,0,0,0-2.26-2.26,104.7,104.7,0,0,0-72.97-22.4491c-102.0385,0-270.8,76.439-413.4437,218.4449C90.6378,513.7029,25.8287,736.8662,91.1828,808.2413a25.31,25.31,0,0,0,2.2329,2.2328c60.2234,56.7273,285.3541,4.5991,473.6407-182.9965,186.1068-185.296,258.2794-418.5335,193.9355-488.1017Z" fill="#020303"/>
    <path d="M546.468,610.7968C404.7414,751.9785,215.6439,787.8788,165.4156,733.0781c-54.7742-59.81-18.9537-238.4086,122.7864-379.59s335.3829-191.131,390.4627-131.6517S688.1947,469.6283,546.468,610.7968Z" fill="#020303"/>
    <path d="M199.2422,699.3311c39.8743,53.1657,292.4118-39.8743,292.4118-39.8743-159.4972,106.3315-284.1577,119.756-326.2915,73.6345-41.2036-45.0579-32.551-166.5284,47.0515-286.0184C210.1544,455.8053,160.3117,647.3218,199.2422,699.3311Z" fill="#020303"/>
    <g>
      <path d="M677.7344,220.8392c41.2033,45.0579,32.5639,166.6747-47.0518,286.1515,2.26-8.7725,52.1024-200.2888,13.1585-252.2585-39.8743-53.1657-292.4118,39.8743-292.4118,39.8743C510.9266,188.275,635.5872,174.8507,677.7344,220.8392Z" fill="#020303"/>
      <path d="M210.8192,258.9723C408.7155,61.2088,683.3037,14.0375,784.1722,107.7289l-2.7912,3.057c-80.5328-75.7612-333.3229,8.1079-528.9734,203.0933C53.5946,512.0281-10.47,749.4,65.1583,832.0594a49.1262,49.1262,0,0,0,3.7215,3.7217l-2.9241,3.057c-1.0634-1.0634-2.1267-1.993-3.19-3.057C-35.1923,737.8772,10.7962,459.1282,210.8192,258.9723Z" fill="#020303"/>
      <path d="M787.628,110.9188c97.9579,97.9581,51.9695,376.6531-148.0533,576.8488C441.5453,885.6239,166.5586,932.81,65.9557,838.8913l2.9241-3.057c74.02,69.727,320.43,5.13,515.8144-189.6688,198.8133-198.2022,276.5683-449.2509,200.5414-531.525a52.6977,52.6977,0,0,0-3.8546-3.8546l2.7913-3.0569a41.2586,41.2586,0,0,1,3.4558,3.19Z" fill="#020303"/>
    </g>
    <path d="M93.4024,810.4741a27.0632,27.0632,0,0,1-2.22-2.2328c-51.6106-56.3557-21.9836-207.3466,82.1146-357.3932a456.0143,456.0143,0,0,1,6.8185-56.01C39.0671,572.6243-.3825,760.4723,65.1582,832.06a49.1262,49.1262,0,0,0,3.7215,3.7217c74.02,69.78,320.43,5.1836,515.8145-189.6157,13.9959-13.9428,27.3139-28.1638,40.1-42.5326a673.2732,673.2732,0,0,1-63.2008,29.241C374.4234,815.99,153.0544,866.6577,93.4024,810.4739Z" fill="#020303"/>
    <path d="M143.2189,621.6293a372.0227,372.0227,0,0,1,31.9-108.0327,346.4415,346.4415,0,0,1-1.8875-62.6691C69.2,600.8683,39.573,751.8858,91.1838,808.2415a27.0643,27.0643,0,0,0,2.22,2.2328c59.652,56.183,281.021,5.516,468.1778-177.6933a611.56,611.56,0,0,1-64.943,21.9707c-2.2994,1.7943-4.5988,3.6152-6.9115,5.3165l1.9272-.6114c-2.4588,1.6481-4.838,3.0569-7.2837,4.6519-84.6,55.2658-159.0181,84.2279-216.0658,91.8571-42.8914,5.7419-75.8941-.5184-96.0173-16.6674a88.3308,88.3308,0,0,1-14.9264-17.2929c-13.1984-20.0968-14.7-40.7516-15.87-60.0508a197.2354,197.2354,0,0,1,1.7279-40.3263Z" fill="#020303"/>
    <path d="M225.44,626.2283c-1.0633-1.0633-2.1265-1.993-3.19-3.0569a151.9276,151.9276,0,0,1-33.521-53.63c-6.4864,51.8366-7.4831,105.76,10.5267,129.791,37.9206,50.5075,268.0222-31.0628,290.4713-39.17,2.3127-1.7545,4.6121-3.5754,6.9115-5.3166C382.0927,686.2258,278.9908,676.2438,225.44,626.2283Z" fill="#020303"/>
    <path d="M65.1581,832.0594c-65.54-71.5873-26.09-259.4357,114.9578-437.2219a608.5873,608.5873,0,0,1,53.0727-157.1981c-7.5362,6.9252-15.0192,13.996-22.3694,21.3329C10.7962,459.1282-35.1923,737.8772,62.7658,835.7811c1.0634,1.0633,2.1267,1.993,3.19,3.057l2.9241-3.057A49.15,49.15,0,0,1,65.1581,832.0594Z" fill="#020303"/>
    <path d="M584.6942,646.1654C389.31,840.9648,142.9,905.5613,68.88,835.7811l-2.9241,3.057c100.603,93.9706,375.59,46.7854,573.619-151.11A721.5311,721.5311,0,0,0,776.69,496.4106,722.2341,722.2341,0,0,1,624.7819,603.6328Q605.6017,625.1251,584.6942,646.1654Z" fill="#020303"/>
    <ellipse cx="726.7283" cy="163.8692" rx="21.8212" ry="30.3664" transform="translate(96.9808 561.8707) rotate(-45)" fill="#020303"/>
    <ellipse cx="739.9862" cy="217.2384" rx="10.9638" ry="15.2562" transform="translate(63.1262 586.8769) rotate(-45)" fill="#020303"/>
    <ellipse cx="271.3571" cy="250.3125" rx="5.4754" ry="7.6282" transform="translate(-97.519 265.1933) rotate(-45)" fill="#020303"/>
    <path d="M172.3271,739.2187c20.0833,15.5509,54.2556,21.2662,96.0174,16.6676,57.0468-7.63,131.4657-36.5915,216.0658-91.8573,1.7943-1.3286,3.5753-2.6573,5.3165-3.9874-22.4492,8.1877-252.5508,89.797-290.4846,39.2895-18.01-24.0309-17.0129-77.9287-10.5268-129.7909a238.0041,238.0041,0,0,1-13.3978-55.226A383.5335,383.5335,0,0,0,143.2587,621.55a217.0239,217.0239,0,0,0-1.7677,40.406c.957,18.927,1.8209,35.7806,11.6561,53.6176a87.6667,87.6667,0,0,0,19.18,23.6456Z" fill="#020303"/>
  </g>
</svg>
