<svg id="Calque_1" data-name="Calque 1" xmlns="http://www.w3.org/2000/svg" width="30cm" height="33.4cm" viewBox="0 0 850.3937 946.7717">
  <path d="M785.0444,388.3441c-9.66-23.148-18.1271-46.7249-28.6606-69.6234-9.1376-19.8266-24.4264-31.615-41.7273-41.7274-9.8627-5.7537-20.8871-9.4728-31.4281-13.5506a7.7544,7.7544,0,0,1-4.6-8.4047c1.7386-8.6541,3.6562-17.7526,4.8728-26.9525.7641-5.6057-.6394-11.4846-.7016-17.2071-.0858-7.7962-.0314-15.5934.3039-23.39.5537-13.496-2.947-26.22-6.1828-39.1695-2.0659-8.28-.5768-17.5423-3.0094-25.6744-2.5027-8.4358.5146-18.6649-7.586-25.3935a1.1242,1.1242,0,0,1-.2418-.764c1.2786-13.1293-8.3741-22.29-12.7942-33.1981-4.4752-11.0868-11.8429-21.6509-24.2707-26.9528A82.5318,82.5318,0,0,1,616.0449,28.75a4.64,4.64,0,0,0-7.2509,2.5339c-3.8983,11.2662-7.8277,21.4719-10.1433,32.0048-2.2527,10.4786-7.7961,19.9517-6.0892,31.9513,1.2164,8.584-4.1089,17.9946-5.941,27.1627-.9744,4.8417-1.4579,9.7769-1.9726,14.7431-.3664,3.4384-2.5649,4.1089-4.6934,1.3957-5.1459-6.4869-9.6833-13.0047-15.866-16.8092-10.6579-6.5805-18.61-16.3495-29.058-22.5322-16.2949-9.6911-32.8858-19.7723-50.6465-25.9237-17.6047-6.12-36.73-8.3734-55.3947-10.7749-4.904-.6392-10.1433,1.2787-16.0531,3.1343a4.8582,4.8582,0,0,0-3.1032,7.1883c5.481,10.5644,10.4163,20.435,15.983,29.9078,9.2,15.71,18.7663,31.2487,28.7538,46.4755,5.6681,8.6464,12.5139,16.474,18.6963,24.7852,6.37,8.5608,12.2173,17.4878,18.8829,25.799,4.6,5.7228,10.2993,10.5957,15.2891,16.0531,5.5121,5.9956,11.18,11.9055,16.1155,18.3922,13.5193,17.69,18.7586,38.4916,21.5575,60.088a8.4455,8.4455,0,0,0,.6083,2.4326c7.1025,13.6208-.3586,22.2984-9.9564,30.4928-1.3721,1.1535-1.4891,3.7111-2.222,5.629-1.31,3.2278-2.0115,6.9156-4.0855,9.5664-6.3619,8.1318-7.5783,17.5738-8.3733,27.3815-.4836,6.0891-2.2845,12.0222-3.1343,18.0881a10.1849,10.1849,0,0,0,.0624,2.9238c.2416,1.5827-.8265,5.3016-2.2221,8.4359-5.3328,11.6948-9.0519,24.5123-19.9827,32.3715-2.799,2.0114-3.594,2.9546-1.4036,2.6819,2.1988-.2729,4.0544-.2729,4.1163-.0311s-2.5027,1.4035-5.73,2.6195c-.4836.1792-.9747.3665-1.4581.5456-3.2591,1.1928-4.3584,2.5886-2.5263,3.08,1.8247.4836.6939,1.8242-2.5649,2.9861-2.8614,1.0293-5.66,2.0037-8.4906,3.0094-3.2588,1.1618-4.6311,2.7127-3.1108,3.4774,1.52.7564.3663,1.98-2.5885,2.7053-2.9237.764-4.99,2.1052-4.5688,3.0484.3977.9124-2.0113,2.191-5.3873,2.8927a155.7673,155.7673,0,0,1-18.2752,3.1655,17.1231,17.1231,0,0,1-6.2452-.7252c-3.3134-.9512-8.5528-2.4717-11.999-2.4093-20.13.4288-54.5449,6.7286-68.4618,9.4105-3.3836.6395-8.8958,1.4894-12.3342,1.8558-4.662.46-9.6208.9746-14.7742,1.528-3.4074.3353-5.7541,1.0293-5.2081,1.5514.5534.5147-1.6687,1.7933-4.9278,2.8928-15.0472,5.0208-30.3363,10.1433-45.7189,15.2891-3.2592,1.0913-5.0522,2.4637-3.9529,3.0716,1.0916.5849-.6161,2.1362-3.8439,3.3216-8.6774,3.1108-17.3553,5.6992-24.177,10.7824-7.3446,5.5125-15.5309,9.8939-22.7816,15.7181-8.1945,6.5412-19.5539,9.0752-29.5414,13.3632-.9748.3973-1.9179.8264-3.1654,1.3719-1.7386.7332-1.7691,1.9491-.0311,2.7446,1.7.7561.85,3.0405-1.9183,5.1143-6.0034,4.4442-11.9442,8.865-17.9394,13.34-2.7757,2.0738-4.1712,4.2021-3.1655,4.7791,1.0291.577-.6159,2.4093-3.6253,4.0544-2.0427,1.1227-4.023,2.222-6.0347,3.3213-3.0094,1.6683-5.3249,3.2824-5.1457,3.6175.1872.3352,2.16.3043,4.4751-.1169,2.3159-.4287,2.1676,1.1853-.3351,3.5632-10.9619,10.4785-21.5887,20.6143-32.2462,30.7264-1.0992,1.0366-2.2527,2.0114-3.719,3.1963-2.0972,1.7389-1.52,2.5341,1.2474,1.77,2.7758-.764,3.4775.9435,1.583,3.8358-5.294,8.1318-10.44,16.17-15.9832,23.9357-3.54,4.9976-8.0459,9.2941-12.0612,13.948a1.0857,1.0857,0,0,0-.0624.733c.0933.4288,1.2163.5534,2.5885.3041,1.341-.2418.7952,1.8009-1.2164,4.6-3.3838,4.6-6.6425,9.1061-10.237,14.01-2.0114,2.7675-1.4271,3.8359,1.31,2.3779,2.7444-1.4657,3.8358-.0935,2.3778,3.0094-5.4185,11.5156-11.0555,21.5032-11.9124,33.5332-.4213,5.9408-3.5321,11.6635-6.5726,18.0958-1.466,3.1029-1.31,4.81.1791,3.7423,1.5283-1.068,2.2535.8186,1.6765,4.2024-2.7679,15.9907-5.4812,31.6151-8.1632,47.0525-.577,3.3836-.148,5.7537.9745,5.3014,1.1-.4911,1.2163,1.8247.2731,5.1457-.7563,2.62-1.4894,5.1458-2.2219,7.6486-.9748,3.3137-.7332,5.7228.491,5.4188,1.2472-.3354,1.2163,2.0425.608,5.4186-1.5513,8.8647-.5535,18.2437-7.04,25.5492-2.2843,2.5652-3.4069,4.0229-1.7618,4.0229s1.3409,2.2535-.6708,5.06c-.5456.7566-1.099,1.52-1.6451,2.2845-2.0112,2.7991-2.557,4.6858-1.1848,4.2256,1.341-.4523,2.5572-.6626,2.6741-.4523a.6772.6772,0,0,1,.1872.3978,16.2355,16.2355,0,0,1,0,2.4637c-1.7387,14.9226,3.072,26.524,17.3318,32.9562,10.2912,4.6544,17.7529,15.1333,31.21,13.8546,4.2342-.3976,8.8959,4.14,13.4023,6.3621.1873.0933.429,0,.733-.0859.3665-.1561.3976-.9748.0311-1.8321-.3657-.85,2.0664-.9748,5.45-.2732,2.44.5225,4.8415,1.0372,7.3131,1.5517,3.3448.7017,5.66.3351,5.1146-.8186-.5534-1.1307,1.6139-1.0061,4.904.0623,28.2,9.317,56.9462,5.45,85.4895,5.9644,3.4384.0625,5.8475-.3354,5.3875-1.0057s1.98-1.1854,5.4188-1.1854c9.8078,0,19.71.0625,29.6033-.0624a109.9414,109.9414,0,0,0,13.7687-.9435c10.1121-1.372,20.248-2.83,30.2979-4.5686,11.0555-1.9181,22.2043,2.44,33.5951-4.2026,6.6428-3.8982,12.7006-6.8525,15.0473-11.9677,1.4272-3.1341,3.68-6.76,7.0638-7.5548,6.2141-1.489,12.1239-2.83,17.8778-4.6,8.0692-2.4951,15.0786-5.4186,16.7782-16.0766,1.1929-7.5861.6081-14.5252-6.2684-18.5793a3.668,3.668,0,0,1-1.31-2.2534c-.3665-1.4036-3.384-2.7991-6.7909-3.1029-.764-.0623-1.5591-.1247-2.3471-.1873-3.4463-.3039-4.7873-2.9237-3.0175-5.8784,1.0368-1.7,2.0116-3.3213,2.9237-4.8416,1.77-2.9551,3.6254-5.1149,4.14-4.8732.5225.2729,1.0683,2.5573,1.2477,5.0916.1871,2.4947,1.5591,2.0659,3.0793-1.0372.7643-1.4971,1.466-2.9549,2.16-4.3894,1.5283-3.072,3.1422-5.45,3.5945-5.294.46.1792,1.0367,2.3079,1.2786,4.7793.2494,2.4639,1.4658,1.8557,2.7442-1.3409.4289-1.0372.8187-2.0429,1.2477-3.1108,1.2786-3.1963,2.4946-3.47,2.7443-.6395.21,2.8693,1.06,2.44,2.4947-.6939A26.1066,26.1066,0,0,1,420.4281,806.1c9.6213-4.1163,18.9147-9.0517,28.5356-13.1608,1.645-.7016,5.1147.3043,6.2761,1.7077,4.7171,5.66,8.74,11.9052,13.2466,17.7216q7.1688,9.18,14.8057,17.9711c6.4869,7.43,13.1841,14.65,19.7956,21.9864.3587.4285.6939.8887,1.029,1.3411.5537.795,1.497.6079,2.1052-.3355.577-.9744,2.2219.8265,3.6253,3.9609.4836,1.0992.9747,2.2219,1.4892,3.3835,1.4036,3.1654,2.8071,3.9842,3.1109,1.8555.3353-2.1361,2.16-1.5825,4.1088,1.2477,5.2081,7.586,10.229,14.9227,15.133,22.0793,1.9259,2.8307,3.5086,3.3527,3.5086,1.1539,0-2.1906,1.5826-1.6372,3.5007,1.2242,2.8924,4.2648,5.6057,8.28,8.5606,12.6071,1.9181,2.8615,3.1963,2.9862,2.8307.2727-.3667-2.6819-.2183-5.2081.3352-5.5743.5145-.3978,2.62,1.5281,4.6313,4.3271,1.1538,1.5828,2.3076,3.1343,3.438,4.717,2.0428,2.8071,4.3585,4.3583,5.0524,3.3836a3.2723,3.2723,0,0,0,.795-1.918c.0314-.2729-.21-.5458-.187-.8264,0-.0859.1559-.1794.3665-.3354.2495-.1483,2.682,1.3412,5.4809,3.3524,1.9258,1.3724,3.8437,2.7991,5.8473,4.2343,2.7757,2.0115,4.9041,2.3779,4.7561.8263-.156-1.5279,2.2844-1.7385,5.45-.3351a32.8917,32.8917,0,0,0,8.007,2.6429c6.9156,1.0994,14.3458-.21,20.9572,1.6764,13.1841,3.7813,24.24-2.035,33.0107-9.0129,5.5123-4.3817,10.658-5.5748,16.6613-6.12a20.8143,20.8143,0,0,0,10.7515-4.6935c3.4382-3.2592,6.947-6.6039,10.2914-9.777a8.9917,8.9917,0,0,0,1.77-9.8941c-3.867-7.6795-8.1007-14.3766-16.3572-16.84-3.29-.9746-4.8417-2.043-3.259-3.3836,1.5826-1.31.0624-2.4014-3.3759-2.4014h-2.8071c-3.4383,0-6.2451-.1559-6.2451-.3976a7.7638,7.7638,0,0,1,3.0484-1.193c1.6762-.4521.5147-1.98-2.62-3.4383-.9436-.4289-1.8555-.8492-2.7678-1.2785-3.1108-1.4657-4.4518-2.9237-2.9237-3.2906,1.4891-.3665.2418-1.98-2.7755-3.6254-5.7227-3.1029-11.4532-6.2448-17.2694-9.2544a23.9163,23.9163,0,0,0-4.0761-1.5824c-2.3156-.733-2.7445-1.8011-.9436-2.3156,1.8245-.5536,1.6764-1.7385-.3039-2.682-1.9491-.9435-1.6764-1.98.67-2.3471,2.3157-.3663,1.614-1.7307-1.5592-3.04-2.6742-1.0993-5.3251-2.1985-7.8512-3.259-3.2044-1.31-4.6624-3.875-3.2044-5.6057,1.31-1.5828,2.2845-2.7757,2.0116-3.4694a27.7457,27.7457,0,0,0-2.986-5.4889c-1.8871-2.8927-2.495-5.1457-1.2788-5.1148,1.1929.0624,1.7387-1.372,1.2242-3.1652-.3355-1.0994-.6394-2.1909-.8578-3.2906-1.3643-6.6973-1.3092-14.104-4.2334-20.0373-3.9841-8.1318-3.2278-14.4394,1.2786-20.076,2.1363-2.6744,4.8728-3.68,5.4576-2.7681.6082.9435,2.16-.3974,3.4383-2.9547,1.31-2.5573,2.7127-3.867,3.1031-2.8927.3662.9436,2.5027-.4288,4.7248-3.0484,1.8555-2.1907,3.7111-4.4128,5.6368-6.6972,2.222-2.62,4.4128-3.7191,4.8729-2.409.4835,1.3092,1.8554-.242,3.4071-3.3142,7.8277-15.4449,20.9805-27.6858,24.06-45.2909,0-.0933.1561-.148.3041-.1792a5.4093,5.4093,0,0,1,2.0428,1.4272c.9435.8575,2.4638-1.1229,3.407-4.4129,5.3953-18.5481,10.6345-36.4883,15.9285-54.7631a42.6567,42.6567,0,0,1,5.5434-10.9622c9.9876-13.7062,12.5525-23.0229,12.8878-28.5041.2106-3.4462-3.0485-7.8593-4.8728-10.7829-3.5944-5.7537-2.8381-11.9053-3.2906-17.9088-.6392-8.038.2418-16.2322.9123-24.24.304-3.4458.8185-6.0656,1.5517-5.73s.7016-2.16.7639-5.5981c.2417-14.7746,13.3087-18.4856,24.4264-23.148,3.1654-1.31,8.132-3.3524,11.1413-4.3273a14.613,14.613,0,0,0,5.1146-2.5259c3.9606-3.3838,6.8842-8.0071,10.1433-12.21a50.7073,50.7073,0,0,1,10.51-9.5665c6.76-4.9976,11.6012-12.49,17.6358-18.548A126.7324,126.7324,0,0,1,794.8211,435.73c7.3362-5.2078,8.8881-15.11,3.7111-22.9992a154.0572,154.0572,0,0,1-13.4879-24.3877Z" fill="#010101"/>
</svg>
