<svg id="Calque_1" data-name="Calque 1" xmlns="http://www.w3.org/2000/svg" width="30cm" height="33.4cm" viewBox="0 0 850.3937 946.7717">
  <g>
    <path d="M54.2849,855.0861c20.0634,36.9919,43.6379,65.5822,88.1535,68.8426,38.2459,2.884,77.4949,0,115.8661,0H666.9706c17.5555,0,40.3776,4.765,54.6727-6.5207a215.1191,215.1191,0,0,0,43.387-45.8949c11.9127-17.0539,21.192-35.9888,30.3459-54.6727,5.7682-11.7873,9.6556-18.4333,9.6556-31.2237,0-5.5175-2.0064-4.0127-7.0222-4.0127-3.1349,0-11.2857-2.3826-12.038-2.2571-40.6284,4.89-81.2567,11.16-122.1359,14.9222-12.54,1.1285-25.0792,2.3825-37.7442,3.511-5.0159.5016-12.1635-17.6808-18.5586-20.0634-18.5587-6.8967-45.268,8.4016-63.9521,1.63-4.3889-1.63-4.1381-5.2667-9.4047-6.3952-4.0127-.8778-10.2825.8778-14.4206,1.254-15.8,1.3793-20.3142,3.3857-32.603-6.019-7.5237-5.6429-19.5618,3.01-26.96-1.1286-5.2666-2.8841-13.9189-20.1888-14.5459-26.4586-2.5079-23.4491-35.1109-22.5713-53.5442-24.4522q-7.7118-.7526-15.4237-1.5048c1.1285.1253-3.26,4.3888-6.7714,4.3888a243.0059,243.0059,0,0,0-25.33,1.0032c-27.0856,3.1349-54.2966,6.27-81.3822,9.4047-5.2666.627-6.7713,5.392-9.9062,9.7809-8.9032,12.4143-17.6809,24.9539-26.584,37.368-7.273,10.2825-15.0476,29.5935-28.0888,32.3522-21.5681,4.5143-43.2617,9.0286-64.83,13.5428-5.8936,1.254-4.5143,15.8-12.1634,16.0507-12.0381.3762-23.9507.627-35.9887,1.0032-4.8905.1253-20.8158-2.1318-24.2015,1.7555-3.8873,4.5143-4.3889,5.8937-10.1571,6.27C46.8866,847.9385,49.52,854.8353,54.2849,855.0861Z"/>
    <path d="M157.6114,772.9516c-38.8728-.7523-77.62-1.63-116.4931-2.3825,32.7284-72.8552,60.3156-149.5977,76.9933-227.8449,8.7777-41.5061,14.9221-83.1376,20.3142-125.2708,2.3825-18.3078,3.7618-36.6157,5.5174-55.0489.7524-8.7777,0-18.057,1.7555-26.584,2.5079-12.4142.2508-16.9285,13.4174-17.8063q2.8214,131.29,5.5174,262.4542,1.6929,81.2568,3.3857,162.3881c.2508,13.5427.5016,27.0855.8778,40.6284,0,2.2571.1254,4.5142.1254,6.6459v20.0634c0,7.273-3.26,5.6429-10.2825,7.1476C158.2384,802.6705,157.9876,787.7484,157.6114,772.9516Z"/>
    <path d="M512.9841,235.002q-2.6333-74.8616-5.392-149.5976c-.3761-10.6587-.7524-21.4428-1.1285-32.1015,0-.3762-.1254-.7523-.1254-1.2539V50.2934c-.1254-2.8841-.2508-5.7682-.2508-8.6523-.1254-5.1413,1.2539-12.9158-2.1318-16.9285-9.1539-11.2857-8.7777,7.273-8.6523,10.7841.5016,12.79.8778,25.5808,1.3793,38.4966,1.63,47.0236,3.26,93.9217,5.0159,140.9453l20.69,586.4779,10.5332-21.4427Q522.5769,507.6132,512.9841,235.002Z"/>
    <path d="M530.038,688.0584q-4.3261-116.6184-8.6523-233.3623-6.5834-177.3729-13.1666-354.62c-.5016-14.2951-1.1286-28.7157-1.63-43.0109,0-1.1285-.1254-2.1317-.1254-3.26,0-.5016-.1254-1.0032-.1254-1.5048a9.4275,9.4275,0,0,1,0-1.8809v-1.254c0-1.3794-3.0095-.8778-3.7619-.8778-8.9032-.8777-7.3984,1.0032-9.7809,9.6555C481.51,97.944,477.6224,141.08,468.5939,181.9594c-9.2793,42.1332-18.1824,85.3948-33.6061,125.647-15.173,40.0014-24.5777,81.3821-40.503,121.2581C379.8135,465.48,369.4056,504.2276,352.7279,539.84q-30.6592,65.2688-60.3155,131.039c-5.2667,11.7873-10.5333,23.4491-15.9254,35.2363h3.26c45.0173-1.7556,90.0345-3.3857,135.1771-5.1412,28.9666-1.1286,57.8077-2.1318,86.7742-3.26,7.9-.2508,15.6745-.627,23.5745-.8778C532.17,696.46,530.2888,695.4567,530.038,688.0584Z"/>
    <path d="M671.9865,366.9188c-25.0792-50.9109-58.4346-97.182-85.6456-146.8389q-.3762.94-.7523,1.8809c-1.63,4.0127-5.5175,6.27-9.6555,4.5143.1253.2508.1253.3762.2508.627,28.8411,74.7361,56.4283,149.9738,85.3948,224.71,10.157,26.2078,34.2331,59.0616,24.4522,88.4043-11.411,34.2331-23.5745,68.09-36.7411,101.6962-9.53,24.3269-16.5523,51.0363-32.2268,72.3537a56.0064,56.0064,0,0,1-11.2856,11.16l7.7745-5.392c21.0666,18.6841,64.3283,10.7841,90.2853,12.1635,29.3427,1.5047,61.9457-2.7588,74.6107,30.3459C778.4478,623.3539,732.8037,490.5594,671.9865,366.9188Z"/>
    <path d="M539.3173,772.0738l56.1775-39.249c-4.7651,3.135-9.7809,6.0191-14.2952,9.2794C567.1553,752.01,553.3617,762.1675,539.3173,772.0738Z"/>
    <path d="M605.9027,725.5518l-10.4078,7.273A102.6748,102.6748,0,0,0,605.9027,725.5518Z"/>
    <path d="M158.3638,808.5641c-18.1825.7523-36.3649,2.0063-54.6728,1.3793-8.6523-.2508-17.43-.3762-25.957-2.2571-7.9-1.7556-14.9221-5.6428-23.1983-4.765,5.2667,11.9126,7.273,25.5808,6.7714,38.622,9.154-3.01,1.1286-27.5872-1.3793-34.7348,4.2634,1.1286,16.803,3.3857,17.1792,7.5238.627,6.3952-1.1285,25.2046,6.27,25.4554-.8777-9.1539-1.63-18.1824-2.5079-27.3364,7.0222,1.1286,11.0349-1.2539,12.665,5.7682,1.3794,5.8937,1.3794,21.5682,8.4016,21.0666-1.881-8.6524-3.7619-17.3047-5.6428-26.0824,3.511.2508,16.9284-.8778,18.057,1.63,3.5111,7.5238,7.1476,14.9222,10.6587,22.446,6.5206-6.3952-3.7619-17.5555-7.0222-23.8253,13.292.7523,27.0856-1.1286,40.3775-1.8809h1.254v-2.7588l-1.254-.1253Z"/>
    <polyline points="65.32 826.621 66.198 839.537 61.558 841.543"/>
    <polyline points="77.734 826.621 78.737 840.164 83.502 839.662"/>
    <polyline points="95.415 829.881 97.547 839.412 102.061 839.286"/>
    <polyline points="125.259 825.242 128.143 831.637 129.397 834.646 126.137 838.158 125.134 837.28"/>
    <path d="M631.1073,371.8092q22.5714,65.0807,45.0173,130.2866c6.27,18.0571,2.3825,34.6094-.627,52.541a346.0274,346.0274,0,0,1-16.0507,62.1965c7.3984-10.784,14.9222-21.4427,22.32-32.2268,3.6365-5.2667,21.0665-23.3237,20.0634-29.97-4.3889-29.2173-8.9031-58.4346-13.292-87.5266"/>
    <path d="M652.4247,634.5142l61.3187-4.64L652.2993,380.587c-6.3952-25.8317-11.411-46.1458-23.8253-69.3441q-19.3737-35.9261-38.622-71.852c-1.8809-3.5111-4.0127-8.7778-6.3952-14.0444a6.884,6.884,0,0,1-8.1507.8778l-.1254-.1254c22.6967,64.0774,45.0173,128.28,67.5886,192.4831,12.1634,34.6093,25.8316,70.3473,29.7189,106.9629,1.63,15.4237-3.5111,31.6-6.7714,46.522Z"/>
    <path d="M619.5709,710.8805a39.6984,39.6984,0,0,0,4.5142-4.64Z"/>
    <path d="M695.8118,630.5015,671.2342,393.7536,583.7076,225.0957a8.9852,8.9852,0,0,1-1.881,1.3794c45.6443,133.4215,87.9027,421.7073,42.3839,479.64Z"/>
    <path d="M163.505,530.5608q159.692-238.5036,319.51-476.8816c4.0127-6.0191,8.1507-12.0381,12.1634-18.1825Q383.2619,301.462,271.22,567.3019c-34.1077,81.0059-70.4726,161.2594-104.58,242.2654" fill="none" stroke="#000" stroke-miterlimit="10" stroke-width="3"/>
    <line x1="493.7985" y1="38.757" x2="259.6839" y2="730.9439" fill="none" stroke="#000" stroke-miterlimit="10" stroke-width="3"/>
    <path d="M506.7143,64.714c.7524,9.7809,1.5048,19.4364,2.2572,29.2173,1.3793,18.684,2.884,37.4934,4.2634,56.1775,2.0064,25.4554,3.8873,51.0362,5.8936,76.4917,2.2572,30.095,4.64,60.19,6.8968,90.2852q3.762,48.7164,7.5238,97.4329,3.7619,48.9045,7.5238,97.9344c2.3825,30.5966,4.64,61.1933,7.0221,91.6646q3.0095,39.5,6.019,79c1.5048,19.8126,3.01,39.6251,4.5143,59.5632q1.3167,16.74,2.6333,33.4808.1879,2.4452.3761,4.89" fill="none" stroke="#000" stroke-miterlimit="10" stroke-width="3"/>
    <path d="M433.6083,726.0534c19.5619,0,39.249-2.3825,55.1744,11.16,17.6808,15.1729,32.1014,18.8094,54.9235,18.8094,42.2585,0,84.1408-6.6459,125.8978-11.7872,17.3046-2.1318,34.6093-3.7619,52.0394-5.5175,20.1887-2.0063,40.5029-10.5333,59.9393-16.1761,6.8968-2.0063,13.7936-5.2667,20.8158-5.2667,14.5459,0-1.881,11.5365-4.89,13.4174-15.9253,9.7809-19.06,34.86-25.0793,51.9141" fill="none" stroke="#000" stroke-miterlimit="10" stroke-width="3"/>
    <path d="M790.8621,736.4613c-9.4047,4.64-26.7094,9.1539-34.2332,16.3015-8.0253,7.6491-13.2919,24.8284-18.8094,34.6093" fill="none" stroke="#000" stroke-miterlimit="10" stroke-width="3"/>
    <line x1="682.5198" y1="792.2626" x2="682.5198" y2="742.7311" fill="none" stroke="#000" stroke-miterlimit="10" stroke-width="3"/>
    <line x1="568.9108" y1="755.0199" x2="568.9108" y2="779.723" fill="none" stroke="#000" stroke-miterlimit="10" stroke-width="3"/>
    <line x1="603.8963" y1="776.5881" x2="610.9186" y2="751.5088" fill="none" stroke="#000" stroke-miterlimit="10" stroke-width="3"/>
    <path d="M686.5324,742.3549c8.2762,15.5492,16.4269,31.0983,24.7031,46.522,4.64-16.8031,9.2794-33.6062,13.7936-50.2839" fill="none" stroke="#000" stroke-miterlimit="10" stroke-width="3"/>
    <path d="M610.2916,261.21l-22.3205-46.3966q-.94,3.5737-2.2571,7.1476a8.5609,8.5609,0,0,1-3.5111,4.2635l3.26,5.6428L619.4455,281.9Z"/>
    <path d="M506.2128,52.1744v-.8778l-5.0159-7.5238V54.1807L508.8461,71.36Q507.1532,61.7672,506.2128,52.1744Z"/>
    <polyline points="506.714 43.647 577.563 232.87 587.846 238.513 600.761 241.523"/>
    <polygon points="647.158 321.525 587.971 214.939 613.677 299.832 647.158 321.525"/>
  </g>
</svg>
