<svg id="Calque_1" data-name="Calque 1" xmlns="http://www.w3.org/2000/svg" width="30cm" height="33.4cm" viewBox="0 0 850.3937 946.7717">
  <g id="object">
    <g>
      <path d="M281.4924,187.7331S80.4774,172.3818,39.3475,320.8259c0,0,16.22-10.5721,43.4471-11.2962,48.371-1.1586,72.8462,24.33,88.1975,25.7786Z" fill="#010101" fill-rule="evenodd"/>
      <g opacity="0.6">
        <g>
          <path d="M49.92,314.7433l3.4757-3.4757A19.7344,19.7344,0,0,0,49.92,314.7433Z" fill="#010101"/>
          <path d="M134.6414,235.5249c-22.5925,14.0479-56.626,30.1233-77.3357,51.2675,6.0825-4.7792,13.0341-8.9791,17.5236-12.1652,23.8959-17.3788,50.9779-31.7163,78.4943-42.5781,17.234-6.8067,35.4818-11.441,53.8744-15.0616C144.2,232.194,85.6911,268.255,39.4924,312.4262c8.8342-3.6206,17.9581-7.9653,27.082-12.6a139.4245,139.4245,0,0,0-13.3238,11.441c18.6822-16.0754,64.5913-22.5924,86.3148-26.7923,17.9581-3.4758,37.22-6.2274,55.757-5.9378-9.848.7241-20.5649,4.6344-29.3991,6.2274-27.2269,4.7792-54.5985,8.4-80.0874,19.1167,34.3231,5.793,81.2459-12.6,110.5-10.5721-16.7995-.8689-49.3848,7.8205-66.6188,12.4549,18.827,12.6,50.3986-.4345,65.75,14.4823l69.37-120.6379C220.8114,183.0988,171.2817,212.7876,134.6414,235.5249ZM133.0483,268.4c-6.9515,2.462-13.7582,4.7792-20.2752,7.386,38.6678-19.8408,79.0736-36.93,120.6379-30.9922C206.1842,261.3035,163.1716,257.9725,133.0483,268.4Z" fill="#010101"/>
          <path d="M44.5612,303.7368a72.5416,72.5416,0,0,1,12.7445-16.8C50.7886,291.8612,45.2853,297.6541,44.5612,303.7368Z" fill="#010101"/>
        </g>
      </g>
      <g>
        <path d="M789.2436,138.3483c-7.9653,0-70.8188,5.3585-78.6392,5.9378-23.0269,2.0275-25.4889-.1448-26.213-23.1717-.5793-18.3926-.5793-36.93-1.8827-55.3226-1.0138-13.0341-7.6756-19.5512-22.3028-17.234C592.7181,59.2747,530.01,63.33,457.7427,80.1293c-159.3059,36.93-222.1592,120.3483-300.2191,262.71-20.13,36.7851-31.2819,76.7564-37.3645,118.4656-11.2962,78.06,13.9031,143.3752,67.6326,198.553,16.9443,17.3788,37.0748,31.5715,57.7846,48.6607,2.0275-13.6135,13.1789,62.1293,54.5984,101.3764,2.7517-14.772,6.0826-25.1993,6.5171-35.6265.7241-16.51,8.4-26.5027,23.751-31.4267,2.8965-.869,5.5033-2.6068,8.255-3.91-1.4482-3.6206-2.462-6.5171-4.055-10.717,27.6613,8.11,50.5433,17.6685,67.6325,41.9988,37.0749,52.8606,84.1425,95.7283,142.796,124.5482,5.3585,2.6068,10.8618,5.0689,20.71,9.4136-4.2-8.5447-6.8067-12.4548-8.11-16.7995-5.7929-18.8271-11.5859-37.6541-16.51-56.7709-2.6068-10.1376-1.1585-21.8683-5.7929-30.7025A514.6806,514.6806,0,0,0,496.99,738.7864c-11.8756-16.22-20.9994-34.0335-14.4824-52.86,12.7445-37.22,1.3034-75.453,5.6481-116.0037-11.8755,10.2825-23.751,20.71-35.6265,30.9923h0v0c-13.6134,13.4685-28.53,30.1232-41.13,44.4608-8.6894,9.9928-8.6894,9.2687-22.4476,6.3723C285.5476,629.1551,358.249,537.7715,406.62,509.5309c-1.3034,1.8827-2.462,3.7654-3.91,5.5033-10.8618,12.8892-11.2962,20.42,2.1723,29.9784a143.0152,143.0152,0,0,1,47.5021,55.9019h0c.1449-3.4758-.5793-7.386.7241-10.4273,14.9168-38.8127,19.8409-78.35,9.9929-119.3345-.5793-2.3172,2.462-5.5033,4.2-8.5446l.4345.4344v-1.0137h0l-.5793.4344c2.8965-2.8965,5.5033-6.2274,8.8342-8.6894C549.416,400.9132,638.772,309.3848,778.5267,194.25c10.2824-8.5445,19.1167-19.696,26.0682-31.2819C814.1531,147.3274,807.9257,138.4932,789.2436,138.3483Zm-8.4,21.1443c-19.8408,11.0066-126.8653,43.447-149.7475,30.4129-36.061-20.42,14.6272-102.8247,33.1646-118.3208,1.1586-1.0137,2.7517-1.3034,6.9515-3.1861,1.1586,19.4063,2.0276,37.5093,3.1862,55.4674.29,4.7792,1.1585,9.4135,1.4482,14.0479.5793,13.4686,8.5446,16.6547,20.2753,15.4961,13.7582-1.4483,82.5494-7.386,96.3076-8.6894,1.1586,2.3172,2.462,4.7791,3.6206,7.0963C790.8366,154.4237,785.7678,156.7409,780.8437,159.4926Z" fill="#010101" fill-rule="evenodd"/>
        <path d="M502.3482,562.3915c-9.1239-28.2406-16.22-63.7223-25.1993-89.5009-1.3034-3.7654-5.9378-6.5171-9.4135-9.5584,1.7379,27.0821,3.4757,54.164,5.0688,80.8115C480.6247,546.4609,489.1693,558.6261,502.3482,562.3915Z" fill="#010101" fill-rule="evenodd"/>
      </g>
      <g opacity="0.5">
        <path d="M338.8425,216.6978c-9.1239-8.5445-20.565-22.3028-34.468-22.0131-26.0682,24.91,69.3705,53.73,17.8133,54.164-14.0479.1448-36.4955-5.793-47.3573,4.6343-14.3375,13.7583,7.386,26.7924-2.462,40.9851-10.4273,14.9168-37.22,5.2136-48.8055,16.9443-14.9168,14.9168-5.793,36.4956-4.2,52.4261,2.7516,26.2131-13.0341,20.42-29.9784,35.7715-6.8067,6.2273-10.4273,13.3237-12.1652,22.5924-2.7516,14.772,1.3034,11.1515,5.6481,22.158,11.8755,30.4129-13.4686,37.5093-22.7373,66.474-4.924,15.3513-.1448,20.42,3.7654,33.3094,1.8827,6.517,4.49,6.6619,4.49,15.0616,0,6.3722-6.5171,12.8893-5.5033,18.5374,2.0275,12.1652,13.3237,14.1927,17.8133,26.9372,4.4895,12.8892,1.1586,20.13,12.02,31.1371,7.386,7.5308,19.9857,17.5236,28.82,23.6062a39.7461,39.7461,0,0,0,7.386,3.91c-18.2478-19.6959-32.1508-59.3776-32.4405-75.3082-.1448-16.9444,12.31-21.8683,14.4824-36.2059,2.7516-18.5373-18.8271-26.7923-7.9653-45.1849,2.0275-3.4758,12.31-8.4,15.7857-13.9031,9.1239-13.7582,3.0413-12.7444,1.0138-25.3441-4.4895-27.3716,5.0688-17.5236,26.213-26.5027,43.1574-18.5373-23.1717-51.8467,6.9515-78.9287,12.8893-11.5859,39.2472-6.8068,47.9366-25.3442s-13.3237-27.8061-5.6481-47.6469c16.51-.8689-26.9372,2.6068-10.7169,7.2412,15.0616,4.3447,33.8887,14.6272,41.7091-3.7654,4.924-11.5859-11.1514-37.0748,11.1515-37.0748,6.0826,0,7.5308,12.7444,15.0616,12.7444,11.5859.1448,8.8342-11.7307,15.7857-10.7169Z" fill="#010101"/>
      </g>
      <path d="M635.2961,211.7738c2.3172,19.1167-8.979,54.5985-109.6314,78.6392-144.0993,34.6128-299.64,194.7876-285.8815,292.5434,16.3651,115.5691,117.1622,112.2382,133.6721,111.5141-17.8133-1.593-94.57-53.44-55.3226-100.2179,10.4273-12.31,26.7924-33.1646,36.0611-43.0126,13.4685-14.3375,39.6816-25.1993,50.5433-39.5368-3.6206,4.7792,37.5093-34.9024,67.1981-54.3088,54.8881-35.7714,85.1562-67.9222,131.3549-109.4865C657.02,299.6817,722.48,240.7385,778.2368,194.83A119,119,0,0,0,797.788,173.54C764.4787,191.0641,672.5158,207.8636,635.2961,211.7738Z" fill="#010101"/>
      <path d="M424.7228,332.1222c-19.5511-16.0755-88.9216,14.6271-105.5763,30.9922-17.6684,17.3788-25.4889,18.5374-57.7845,34.7576,23.1717.29,68.3567,20.71,88.9216,27.8061,20.71,6.9515,33.4542,19.5512,56.626,12.7445,41.4195-12.31,14.4823-56.4812,44.8953-83.5632Z" fill="#010101"/>
      <path d="M780.8437,159.4926c-19.8408,11.0066-126.8653,43.447-149.7475,30.4129-36.061-20.42,14.6272-102.8247,33.1646-118.3208,1.1586-1.0137,2.7517-1.3034,6.9515-3.1861,1.1586,19.4063,2.0276,37.5093,3.1862,55.4674.29,4.7792,1.1585,9.4135,1.4482,14.0479.5793,13.4686,8.5446,16.6547,20.2753,15.4961,13.7582-1.4483,82.5494-7.386,96.3076-8.6894,1.1586,2.3172,2.462,4.7791,3.6206,7.0963C790.8366,154.4237,785.7678,156.7409,780.8437,159.4926Z" fill="#010101" fill-rule="evenodd"/>
      <path d="M629.2136,189.7607s-30.2681-42.2885,41.854-121.3621l3.1862,37.7989s22.8821-57.64-5.9378-58.3638C639.496,46.9647,581.1322,153.12,629.2136,189.7607Z" fill="#010101" fill-rule="evenodd"/>
      <path d="M39.3476,320.8259s20.2752-131.0652,224.6212-130.92l10.4273-8.6894C269.1824,180.7816,85.6911,157.61,39.3476,320.8259Z" fill="#010101" fill-rule="evenodd"/>
      <path d="M452.5289,601.4938v-.1448s-.1448,0,0,.1448Z" fill="#010101"/>
      <path d="M652.0957,192.9468c9.1239-.869,19.1167-3.7654,29.11-7.386Z" fill="#010101"/>
      <path d="M434.426,443.3466C301.3332,517.9307,314.9466,576.8738,320.5947,591.2114c.5793-.869,25.1993-27.2268,37.799-41.7092,12.8892-14.9168,39.8264-27.082,50.6882-41.5643-3.6206,4.7791,37.5093-34.9025,67.1981-54.3088,54.8881-35.7715,70.3842-55.7571,116.7277-97.4662,26.0683-23.3166,24.4752-63.5775,50.3986-87.039l-.1448-.29C643.4063,268.9791,587.2148,357.7559,434.426,443.3466Z" fill="#010101" opacity="0.4" style="isolation: isolate"/>
      <g>
        <path d="M416.1782,501.7105c-1.3034,3.7654-2.462,8.4-3.1861,10.7169-3.91,10.8618-7.386,21.2891-7.5308,33.1646,15.0616.4344,18.2477-31.8612,21.8683-52.8606C423.5642,495.7727,419.7988,498.6692,416.1782,501.7105Z" fill="#010101"/>
        <path d="M430.6606,489.98c-1.4483,18.9718-7.9653,39.6816-8.9791,58.5086,14.1927-8.5445,11.441-46.0538,16.9444-64.7361l-.869.7241C435.44,486.2143,432.9778,488.097,430.6606,489.98Z" fill="#010101"/>
        <path d="M462.5217,465.36l-25.0544,26.5026c-1.7379,18.6823-11.8755,55.7571-.29,65.75a32.8131,32.8131,0,0,0,7.0964-11.1514c.1448,7.9653,1.4482,14.3375,4.2,16.7995a52.3538,52.3538,0,0,0,1.8827-5.0688c.5793,4.6343,2.0276,8.5446,5.0689,10.5721C467.0113,544.2886,435.7294,494.0348,462.5217,465.36Z" fill="#010101"/>
      </g>
      <path d="M429.502,105.9079s-82.1149,16.8-184.0706,136.2789c-102.1006,119.4793-172.7744,221.29-75.8875,377.12,0,0-110.6452-180.8845,98.19-348.0108C476.4248,104.17,429.502,105.9079,429.502,105.9079Z" fill="#010101" fill-rule="evenodd"/>
      <path d="M469.3285,92.4393s50.9778-29.8336,112.6726-29.6888Z" fill="#010101" fill-rule="evenodd"/>
      <path d="M235.873,684.7673S-82.8835,469.27,344.0562,172.9611c0,0,7.386,43.1574-1.4483,75.0186-18.3926,66.4739-105.4315,92.2525-143.9545,199.8564C151.4409,580.2048,235.873,684.7673,235.873,684.7673Z" fill="#010101" opacity="0.4" style="isolation: isolate"/>
      <g>
        <path d="M472.6594,98.5219S290.037,124.3005,354.9179,241.4627c39.5368,71.2531,154.5267,57.2052,234.614,26.213C589.5319,267.6757,422.2608,201.6362,472.6594,98.5219Z" fill="#010101"/>
        <g>
          <path d="M443.84,104.3148s-33.8887,147.43,122.6655,145.1131c0,0,5.0688-103.5487,15.2064-114.7,9.9929-11.1514,32.1509-59.2329,31.8612-74.5841Z" fill="#010101"/>
          <path d="M486.7073,230.7457c17.0891-29.6888,29.6888-68.3566,55.9018-98.3351,13.0342-14.9168,29.9785-25.6338,43.3023-40.2609,9.5583-10.4273,18.6822-21.1443,27.8061-32.006,0,0-82.8391,53.295-103.2591,59.2328s-69.805,16.365-69.805,16.365S433.1226,199.8983,486.7073,230.7457Z" fill="#010101"/>
          <path d="M460.6391,209.6015s40.4057-50.2538,48.6606-62.4189c8.11-12.1652,18.9719-17.5237,28.82-24.7649s75.453-62.2741,75.453-62.2741L443.9843,169.63S447.8946,192.802,460.6391,209.6015Z" fill="#010101"/>
          <g>
            <path d="M556.5122,116.3352a25.3644,25.3644,0,1,1-24.33-26.3579A25.3873,25.3873,0,0,1,556.5122,116.3352Z" fill="#010101"/>
            <path d="M554.195,113.149c-.4344,10.2825-10.1376,18.3926-21.7235,17.8133-11.5859-.4344-20.71-9.2687-20.2753-19.5511S522.3339,93.0186,533.92,93.4531C545.5056,94.0324,554.63,102.8666,554.195,113.149Z" fill="#010101"/>
            <g>
              <path d="M547.678,115.9007A16.9442,16.9442,0,0,1,530.01,131.8313a16.6827,16.6827,0,0,1-16.22-17.234,16.9608,16.9608,0,0,1,33.8888,1.3034Z" fill="#010101"/>
              <path d="M541.1609,114.8869a10.0728,10.0728,0,1,1-9.7032-10.5721A9.9965,9.9965,0,0,1,541.1609,114.8869Z" fill="#010101"/>
              <path d="M530.01,131.8313a16.75,16.75,0,0,0,17.6685-15.9306s-2.1724,15.6409-20.2753,10.2825c-17.9581-5.3585-10.1377-19.1167-10.1377-19.1167l-1.1585-.4345a16.6193,16.6193,0,0,0-2.462,7.9653A16.999,16.999,0,0,0,530.01,131.8313Z" fill="#010101"/>
            </g>
          </g>
        </g>
        <path d="M578.96,216.553s-31.4268,6.6619-14.4824-30.2681c17.0892-36.93,31.8612-131.9342,85.88-132.5135Z" fill="#010101" fill-rule="evenodd"/>
        <path d="M629.2136,189.7607s-59.5224,43.3022-52.7157,11.2962c6.9515-32.1508,17.234-38.8127,20.8546-77.0461s20.9994-65.8947,62.7085-75.1634C660.2058,48.7026,586.9251,159.0581,629.2136,189.7607Z" fill="#010101" fill-rule="evenodd"/>
        <path d="M628.2,184.6919S668.1711,169.1957,687.143,153.7c0,0,95.5835-12.8892,105.1418-8.8342,0,0-18.9718,15.2065-132.079,48.8055C660.2058,193.5261,640.365,199.319,628.2,184.6919Z" fill="#010101" fill-rule="evenodd"/>
        <path d="M652.3854,194.6847s134.2514-24.62,143.52-42.8678-89.2112-.1448-89.2112-.1448,97.0317-22.0132,103.1143-4.0551C809.6636,147.617,761.7271,180.0575,652.3854,194.6847Z" fill="#010101" fill-rule="evenodd"/>
        <path d="M435.8742,179.7678,351.8766,231.47s27.8061,31.5715,56.1915,38.0886l40.84-44.316Z" fill="#010101"/>
        <path d="M780.8437,159.4926c4.9241-2.7517,9.9929-5.0689,14.9168-7.5309-1.1585-2.3171-2.462-4.7791-3.6206-7.0963-13.7582,1.3034-82.5493,7.2412-96.3076,8.6894-11.7306,1.3034-19.6959-2.0275-20.2753-15.4961-.1447-4.7792-1.1585-9.4135-1.4482-14.0479-1.1586-18.1029-2.0276-36.061-3.1861-55.4674-4.2,1.8827-5.793,2.1724-6.9515,3.1861C645.5786,87.2257,594.89,169.63,630.8066,190.05c5.5032,3.1861,12.7444,3.91,20.8546,3.0413l29.11-7.386C699.0185,178.8989,771.2854,164.851,780.8437,159.4926Z" fill="#010101"/>
        <path d="M611.8348,256.38s-167.85,1.3034-168.8642-108.6177c0,0-38.2334,117.7415,143.9545,127.4447Z" fill="#010101"/>
        <path d="M442.8258,147.7619S389.6755,260.29,553.4709,281.7236l16.22-8.11S436.3087,276.22,442.8258,147.7619Z" fill="#010101" fill-rule="evenodd"/>
        <path d="M559.119,282.1581s-229.69,22.4476-218.3938-96.018c0,0-39.392,129.3274,142.6512,121.6517Z" fill="#010101"/>
      </g>
      <g opacity="0.3">
        <g>
          <path d="M438.4811,355.4388a6.1383,6.1383,0,0,1-1.0138.7241,5.0775,5.0775,0,0,1,.7241,1.1585Z" fill="#010101"/>
          <path d="M350.718,360.7972c-10.4273,4.2-21.5786,8.8342-33.1645,13.6134" fill="#010101"/>
        </g>
      </g>
      <path d="M261.3619,397.872s18.3926,6.2274,56.1915-23.6062c45.9091-36.061,72.8462-52.1364,107.1694-42.2885,0,0-25.7786-26.6475-81.8253,14.1927C342.8976,346.3148,309.1537,361.9558,261.3619,397.872Z" fill="#010101" fill-rule="evenodd"/>
      <path d="M405.6061,340.3771l-6.0826,3.3309c-20.2753-3.91-86.8941,40.6954-93.7008,58.2191,8.9791,3.7654,34.7577-12.31,58.5087-29.11-13.0341,14.1927-23.3166,31.1371-28.3854,47.3573,31.2819-16.6547,48.8055-56.626,75.453-79.2184-19.2615,20.13-49.9641,59.3776-53.15,87.9078,24.91-.4344,44.0263-62.9982,56.626-81.3908-8.8343,27.3716-28.3854,55.6122-40.84,81.97,25.6338-5.2136,31.8612-46.4883,44.6057-65.0257-6.9516,23.8959-22.158,46.0538-27.6613,70.6738,7.9653-3.0413,12.31-8.8342,15.3513-15.9306a27.1149,27.1149,0,0,0-.5793,6.0826c15.9306-3.62,24.91-55.6122,30.9922-72.2669C426.8952,347.4735,417.7713,340.3771,405.6061,340.3771Z" fill="#010101"/>
      <path d="M767.52,205.2568s-74.2944,31.4267-106.4452,24.4751l52.2812,18.5374Z" fill="#010101"/>
      <path d="M695.9772,153.41c-11.7307,1.3034-19.696-2.0275-20.2753-15.4961-.1448-4.7792-1.1586-9.4136-1.4482-14.0479-1.1586-18.1029-2.0276-36.061-3.1862-55.4674-4.2,1.8827-5.7929,2.1724-6.9515,3.1861-18.3926,15.4961-69.0808,97.9007-33.1646,118.3208,22.8821,13.0341,129.9067-19.4063,149.7475-30.4129,4.9241-2.7517,9.9929-5.0689,14.9168-7.5309-1.1585-2.3171-2.462-4.7791-3.62-7.0963C778.5266,146.024,709.7354,151.9617,695.9772,153.41Z" fill="#010101"/>
      <path d="M502.3482,562.3915c-9.1239-28.2406-16.22-63.7223-25.1993-89.5009-1.3034-3.7654-5.9378-6.5171-9.4135-9.5584,1.7379,27.0821,3.4757,54.164,5.0688,80.8115C480.6247,546.4609,489.1693,558.6261,502.3482,562.3915Z" fill="#010101"/>
      <path d="M452.5289,601.349h0v0Z" fill="#010101"/>
      <path d="M313.9329,599.6111s1.0138,65.75,97.611,82.6942l6.8067,29.544C418.3506,711.7045,274.2512,676.6572,313.9329,599.6111Z" fill="#010101" fill-rule="evenodd"/>
      <path d="M374.1794,535.31S307.271,575.86,311.9053,602.6524c4.49,26.7924,14.0479,68.2119,101.8109,84.2872l-12.31-33.3094s-63.4327-13.1789-64.012-49.24C336.815,570.3568,374.1794,535.31,374.1794,535.31Z" fill="#010101"/>
      <path d="M463.1011,471.4423c9.7032,40.2609,5.0688,79.2185-9.2687,117.4519L496.4105,550.95c-9.7032-2.7516-17.234-4.924-23.4615-6.6619-1.7379-26.7923-3.4757-53.8743-5.0688-80.8115l-.4344-.4344C465.563,465.7942,462.5217,469.1252,463.1011,471.4423Z" fill="#010101"/>
      <path d="M695.9772,153.41c-11.7307,1.3034-19.696-2.0275-20.2753-15.4961-.1448-4.7792-1.1586-9.4136-1.4482-14.0479-1.1586-18.1029-2.0276-36.061-3.1862-55.4674-4.2,1.8827-5.7929,2.1724-6.9515,3.1861-18.3926,15.4961-69.0808,97.9007-33.1646,118.3208,22.8821,13.0341,129.9067-19.4063,149.7475-30.4129,4.9241-2.7517,9.9929-5.0689,14.9168-7.5309-1.1585-2.3171-2.462-4.7791-3.62-7.0963C778.5266,146.024,709.7354,151.9617,695.9772,153.41Z" fill="#010101"/>
      <path d="M500.3207,556.1641c-8.255-25.7786-14.9168-59.3777-23.1718-83.1287-1.3034-3.7654-5.9378-6.5171-9.4135-9.5584,1.7379,27.082,3.4757,54.164,5.0688,80.8115C479.1764,546.0264,500.3207,556.1641,500.3207,556.1641Z" fill="#010101"/>
      <path d="M452.5289,601.4938v-.1448s-.1448,0,0,.1448Z" fill="#010101"/>
      <path d="M402.13,770.358c37.0748,52.8606,84.1424,95.7283,142.7959,124.5482,5.3585,2.6068,10.8618,5.0688,20.71,9.4135-4.2-8.5446-6.8067-12.4548-8.11-16.7995-5.7929-18.827-11.5858-37.6541-16.51-56.7708-2.6068-10.1376-1.1586-21.8683-5.793-30.7026a514.6794,514.6794,0,0,0-38.3782-61.1155c-11.8755-16.22-20.9994-34.0335-14.4823-52.8606,12.7444-37.22,1.3034-75.453,5.6481-116.0036-11.8756,10.2825-23.7511,20.71-35.6266,30.9922h0v0c-13.6134,13.4686-28.53,30.1233-41.13,44.4609-4.6343,5.3584-6.8067,7.6756-9.8479,8.11,0,5.6482-.869,73.57-12.7445,99.2041l2.3172,4.0551A112.4188,112.4188,0,0,1,402.13,770.358Z" fill="#010101" fill-rule="evenodd"/>
      <path d="M444.9981,778.0336c7.5309,5.0689,72.5566,66.3292,77.0461,60.2466,4.924-5.9378-65.1705-61.84-68.7911-65.75,2.6068,1.4482,5.2136,2.8964,7.6756,4.3447,9.7032,5.7929,42.7229,30.5577,54.3088,32.1508-.4344-3.3309-22.8821-21.1442-25.1993-23.6062-8.5445-8.8342-44.8952-41.2747-54.888-48.2262,16.365,6.8067,57.35,36.64,73.4255,35.0473.4344-6.9515-71.398-54.3088-85.5907-55.757,7.0963.8689,42.8678-.5794,44.1712-9.2688-15.4962-8.6894-30.413-6.517-47.2125-8.4,7.386-3.6206,14.1927-8.4,21.5787-12.02,4.924-2.3172,31.7163-18.8271,32.5853-25.1994-5.3585-3.6206-37.0749,15.9306-42.8678,17.9582-5.3585,1.8827-11.0066,6.8067-16.6547,7.3859,6.0826-6.0826,12.8893-11.1514,19.8408-16.365,6.3723-4.7792,33.5991-22.7373,36.4956-30.4129-9.1239-1.0138-38.6679,16.51-48.95,22.8821,4.9239-4.9241,27.6612-26.6476,34.6128-32.4405,3.91-3.1862,27.6612-22.8821,27.082-28.53-13.7583,3.6206-79.7978,55.3226-80.5219,62.4189,0,0-6.3722,76.9012-7.0963,77.1909C448.474,822.35,536.0921,883.7546,540.4368,878.3962,543.9126,873.9068,443.55,777.02,444.9981,778.0336Z" fill="#010101"/>
      <path d="M401.4063,654.0648s3.3309,2.1723,9.8479-8.11c6.6619-10.2824,53.8744-64.012,76.7565-75.5979C488.1555,570.3568,431.53,639.2928,401.4063,654.0648Z" fill="#010101"/>
      <path d="M454.122,318.0743s65.8947,15.9306,124.693-34.3232C578.815,283.6063,551.0089,352.3974,454.122,318.0743Z" fill="#010101"/>
      <line x1="482.2177" y1="345.7356" x2="603.7246" y2="286.0683" fill="#010101"/>
      <path d="M586.0562,288.2406s-.5793,46.1987-44.6056,63.2879C541.4505,351.3837,607.9245,342.4046,586.0562,288.2406Z" fill="#010101"/>
      <path d="M274.3961,181.3609S335.3667,67.6745,533.7749,69.2676C533.7749,69.2676,411.5439,76.7984,274.3961,181.3609Z" fill="#010101" fill-rule="evenodd"/>
    </g>
  </g>
</svg>
