<svg id="Calque_1" data-name="Calque 1" xmlns="http://www.w3.org/2000/svg" width="30cm" height="33.4cm" viewBox="0 0 850.3937 946.7717">
  <path d="M805.7388,389.0363c-3.66,3.8311-7.5853,7.2578-10.7431,11.3014-10.4035,13.3849-22.8442,24.7069-35.3869,35.8988-7.1913,6.3942-11.8295,7.1756-20.27,1.8985-2.4923-1.5764-5.0116-3.1595-7.3951-4.9a4.8846,4.8846,0,0,1-2.0713-2.8649c-.2648-4.578-.1355-9.1769-.2105-13.7824-.1086-5.3322.0475-10.6845-.5569-15.9551a16.4877,16.4877,0,0,0-5.7857-10.7119c-.4753.35-.7945.48-.9574.7264a6.3354,6.3354,0,0,0-.7131,1.3638c-1.779,4.7907-5.3307,8.1077-9.0181,11.3769-2.5744,2.3028-4.8555,4.9277-7.3478,7.3334-.8488.8016-1.8335,1.9257-2.8384,2.0353-3.7419.4044-7.6669.617-10.879-1.7956a94.2746,94.2746,0,0,1-11.8567-9.9308c-5.12-5.3525-10.159-10.8694-12.8413-18.1205-2.8115-7.58-6.044-14.9955-8.91-22.5687a31.4259,31.4259,0,0,1-1.5416-7.2033,3.3413,3.3413,0,0,1,1.1681-2.7824c4.2712-1.96,5.7856-6.1065,8.1693-9.6156,4.7808-7.0113,9.82-13.8371,14.83-20.6632,1.4873-2.09,2.9948-3.9888,1.0323-6.6136-3.1578-4.2012-10.0776-6.6135-14.75-4.3108a65.57,65.57,0,0,0-10.8179,7.203c-4.4072,3.3993-8.4884,7.1964-12.8958,10.6229-.9239.7266-3.2594,1.1035-3.7144.5415a6.6286,6.6286,0,0,1-.9239-4.1533c0-2.4055.9239-4.9277.4483-7.2031-2.1459-10.8147-8.7534-18.0177-18.7561-22.0546-3.898-1.5832-6.7909.24-7.3953,4.4686-.93,6.1817-1.5957,12.3981-2.6823,18.5525-.2649,1.6312-1.6433,3.05-2.4923,4.5782a17.3526,17.3526,0,0,1-4.0609-2.8373c-2.7838-3.5093-4.9844-7.5254-7.9588-10.8424a36.489,36.489,0,0,0-8.78-7.3333c-6.7637-3.8859-14.349-5.4348-22.0159-5.8942a36.1432,36.1432,0,0,0-12.5969,1.2613,227.4481,227.4481,0,0,0-23.6661,8.9919c-7.1574,3.1868-14.0569,2.44-21.3774.8839a72.99,72.99,0,0,0-17.9888-1.74,224.0007,224.0007,0,0,0-25.6488,2.8649,254.4974,254.4974,0,0,0-26.5793,5.25c-8.6991,2.3576-17.0584,6.0517-25.7033,8.6492a248.61,248.61,0,0,1-32.8131,8.0048,195.0072,195.0072,0,0,1-35.4682,2.94,336.8019,336.8019,0,0,1-53.58-5.8322c-16.0807-3.0021-32.2563-5.8118-48.52-7.2578-13.9282-1.2612-28.04-.2676-42.0692-.6993-9.31-.2878-18.62-1.3912-27.9375-2.0015-3.6057-.2469-7.3745-.7811-10.8176-.0548a102.9941,102.9941,0,0,0-16.3182,4.9477c-14.3221,5.6544-26.498,15.0779-39.2308,23.48a33.2485,33.2485,0,0,0-6.8179,5.62c-6.872,7.93-14.0026,15.715-20.1347,24.2341A96.7336,96.7336,0,0,0,66.07,395.17c-4.59,11.5069-5.86,23.8228-6.0779,36.2208-.102,7.4978.2651,14.9886-.2648,22.4592-.6381,8.6764-1.8812,17.3255-3.1578,25.9132-1.1679,7.902-4.054,14.9954-10.315,20.348-3.504,2.9744-6.9266,6.0243-10.1867,9.2659-.8763.8568-1.7792,3.1045-1.3514,3.6117,1.1136,1.3914,2.9405,3.05,4.509,3.05,8.0608.0548,15.3336-2.248,20.7936-8.7795a58.2316,58.2316,0,0,1,4.8826-5.0853,3.0179,3.0179,0,0,1,2.3631-.8293c.5568.2126,1.032,1.3913,1.1409,2.193.7945,6.9634-1.1948,13.44-4.0609,19.6012-3.2869,7.148-7.11,14.0226-10.6414,21.04a66.6076,66.6076,0,0,0-4.6923,9.9853c-1.589,5.0306-3.3682,10.2532-3.5244,15.42-.2174,6.8539,2.465,13.2757,6.7365,18.7379,4.054,5.1948,7.2116,10.5,6.39,17.62-.7943,6.8739-.6111,13.7277-5.7517,19.5119-3.8776,4.3385-2.39,11.1919,1.1885,15.7153,3.449,4.3656,8.3321,5.9968,12.8684,8.2722,3.185,1.583,6.893,3.3717,10.24,3.132,8.8828-.6167,17.7174-2.1381,26.5524-3.557,3.45-.562,4.4-2.8374,2.6483-5.8941-1.589-2.8372-3.6338-5.4621-5.46-8.1625-4.1694-6.1818-9.0454-12.1032-9.8943-19.8406a168.73,168.73,0,0,1-.7945-18.71,31.13,31.13,0,0,1,1.5074-10.3077,71.3917,71.3917,0,0,1,15.2246-24.6042c6.8723-7.2784,13.48-14.8036,20.4268-21.9787,3.7145-3.8242,7.9316-7.1206,12.55-11.2193.903,3.16,1.5346,5.1678,2.0441,7.2306,1.4057,5.6474,3.3682,11.2467,3.9523,16.9762,1.0322,10.3829.9238,20.9034,1.8265,31.32.6111,7.0114,3.7693,12.7684,10.9536,15.2837,1.99.6987,4.0608,1.2607,6.078,1.9325,6.9264,2.275,13.9007,4.4412,20.7457,6.9289,3.66,1.3433,5.5415,4.3932,4.9025,7.2854-.7131,3.29-1.99,6.4768-2.5736,9.773a47.4812,47.4812,0,0,0-.9508,10.5749c.0815,2.3507,1.6706,3.8786,4.638,3.5572a19.9406,19.9406,0,0,1,6.6077.8015c6.2068,1.5834,12.2845,3.4817,18.4913,4.9553a24.6123,24.6123,0,0,0,7.8231.5072c3.0217-.2124,5.9691-1.1516,8.9907-1.5489,5.3311-.6991,10.7164-1.0488,16.0265-1.878,3.0763-.5072,5.6976-2.3507,3.6338-4.8453-4.1154-4.9-7.9326-10.2255-12.8145-14.2145-4.9366-3.9884-11.0348-6.4489-16.549-9.7183-3.98-2.3846-8.6514-4.0433-10.8519-8.5941a98.6606,98.6606,0,0,1-9.8126-34.7473c-1.3039-15.8253,1.5075-31.3,5.8332-46.5013.53-1.9532,1.27-3.8586,1.9085-5.7022,1.908,0,3.6871-.4867,5.0387.0754,7.3,3.0842,14.6748,5.9694,21.6217,9.7183A118.2731,118.2731,0,0,0,270.2412,539.39c9.2084,1.8709,18.4642,3.5571,27.6929,5.3527a80.81,80.81,0,0,0,29.6827.8566q9.0351-1.5317,18.145-2.3576c11.7279-1.0691,23.4759-1.9533,35.2039-2.8648,3.022-.2125,6.1254.1919,9.0454-.3978,8.278-1.6658,16.4747-3.5913,24.671-5.5994,1.99-.48,2.8658-.2123,3.6059,1.7956,4.9845,13.68,6.3155,27.9489,6.791,42.3276.4,11.6715-.0816,23.37.1355,35.069a25.3781,25.3781,0,0,1-3.8232,13.3576,72.14,72.14,0,0,0-4.7741,9.8758,3.4913,3.4913,0,0,0,1.27,3.1595,35.5878,35.5878,0,0,0,8.9434,2.9472c7.4291,1.1512,14.9058,2.008,22.3893,2.7071,6.4444.61,12.9433.8566,19.415,1.1787a13.1014,13.1014,0,0,0,3.925-.514c3.4768-.9869,4.6448-3.3994,2.8386-6.4491-2.4652-4.1257-5.2494-8.06-7.986-12.0212A19.1558,19.1558,0,0,1,464.3364,612.9a67.0061,67.0061,0,0,1,8.3595-21.9519,16.5758,16.5758,0,0,1,1.99-2.248c1.9082,5.5445,3.5516,10.6847,5.46,15.6877,2.8658,7.5527,5.5482,15.2081,11.0894,21.3626,2.2541,2.4877,3.5041,5.195,1.46,8.5941a12.3643,12.3643,0,0,0-1.27,4.4207c-.584,3.7693-.6652,8.08,2.6757,10.1432a27.3348,27.3348,0,0,0,18.62,4.0437c5.813-.9388,11.5377-2.2207,17.3234-3.2967a41.3423,41.3423,0,0,0,16.02-6.3943c3.2936-2.2205,3.1306-3.7215-.2378-5.73a105.427,105.427,0,0,1-12.23-8.0323,24.9,24.9,0,0,1-7.0285-8.19c-2.2-4.6332-5.195-9.4785-3.7348-14.9135a116.9594,116.9594,0,0,0,4.346-29.1269c.0543-8.3-.129-16.5721-.4753-24.8714-.4278-10.04-1.25-20.0263,1.9353-29.8479,2.5466-7.8472,4.1634-9.2117,12.2575-8.5669a4.4748,4.4748,0,0,0,4.72-2.57c1.1409-2.1726,2.39-4.3108,3.4225-6.5389a7.9817,7.9817,0,0,1,6.628-4.7907,61.6394,61.6394,0,0,1,6.37-.3978c6.7365-.1647,15.5171-5.73,17.0857-11.4592a7.7092,7.7092,0,0,1,5.6975-6.0516,25.7482,25.7482,0,0,0,11.9112-7.6554,9.3291,9.3291,0,0,1,13.261-.6841q.2211.2015.4293.4168c4.6177,5.195,9.0453,10.5475,13.69,15.715,3.5517,3.9888,7.4768,7.0933,13.1811,8.1625,7.1372,1.316,14.1929,3.3441,20.1347,8.19a43.838,43.838,0,0,0,10.6616,6.4834c9.6294,4.0435,19.3946,7.7649,29.2072,11.2672,7.6941,2.7619,15.4357,3.9612,23.4488.4318,2.4648-1.0966,5.677-.6169,8.5426-.562,4.747.1027,9.3647.8018,13.6089-2.7071,6.7364-5.5925,9.704-12.9052,10.9808-21.2529.4007-2.5974.6651-5.4623,1.9626-7.6347,2.6551-4.4686,6.0233-8.5121,9.0181-12.7684,5.5956-7.9225,11.0079-16.01,16.8208-23.8022,5.4123-7.2784,11.246-14.2688,16.8136-21.4378,2.1529-2.7621,5.84-4.3657,6.1589-8.4914.1834-2.5428.448-5.0853.7673-7.6281.9778-7.7924,1.8266-15.6328,3.1306-23.37.4483-2.7073-.8217-3.9133-2.8113-5.8119Z" fill="#010101"/>
</svg>
