<svg id="Calque_1" data-name="Calque 1" xmlns="http://www.w3.org/2000/svg" width="30cm" height="33.4cm" viewBox="0 0 850.3937 946.7717">
  <path d="M839.44,574.8284s.2573-7.7347-9.8913-11.5836c-10.1487-3.8859-10.1487-14.52-29.4672-1.9579,0,0-5.8068-12.0768-18.8552-9.6629-13.0483,2.4214-37.2022-12.5624-46.8578-20.7833,0,0-2.414-5.3136-47.38-12.07-44.9592-6.756-18.3693-65.72,20.79-13.0558,0,0-8.2281,7.7349,14.0272,9.6629,22.2183,1.95,31.8813-10.6415,27.0535-20.2972V478.1763c0-1.9279-9.663-6.1525,6.2923-8.6255,15.926-2.5021,11.0981-9.7437,17.8836-20.3782,0,0-6.7855-23.2046-16.4484-31.8813,0,0,3.3927-18.3767-2.9-22.7411-6.3-4.3417-21.5045-20.04-21.5045-20.04a167.8592,167.8592,0,0,0,3.621-26.818c.7212-14.52-11.5838.7137-26.1041,8.6772,0,0-1.4352-5.7775-13.0483-2.87-11.5838,2.87-35.5021-4.0844-40.595-11.8489l-3.621,7.4773s-14.4907-7.963-18.8622-17.39c0,0-4.3348,3.6208,0,12.3272,0,0-42.0228.7214-59.4206,13.0556-17.42,12.3053-41.3382-3.996-41.3382-3.996s3.6209,10.4946,8.7136,12.673c5.0853,2.1857-23.9183-1.4352-40.5949,8.7135s-36.9667,0-66.6915-7.963c-29.7325-7.9924-117.443-7.9924-147.1679,7.963,0,0-21.762-36.2526-148.6247-28.29C11.5853,354.2131,28.9759,271.566,67.4146,277.3728c38.4091,5.7772-.7508-41.9123-44.2455-.3163C-20.3254,318.6818,42.0317,391.9012,139.17,375.2319,236.3075,358.5552,247.1774,399.15,247.1774,399.15a60.3044,60.3044,0,0,0-11.5911,26.8179c-2.9,16.6768-29.7251,33.3533-29.7251,33.3533s8.7139,5.8067,14.52,0c5.7773-5.8137-33.3459,42.0523-34.0967,59.45-.7211,17.39-41.3086,39.1523-41.3086,39.1523s-11.5839,21.0113-10.87,31.16c0,0-34.8105,31.1673-38.4311,32.6322-3.6284,1.4349-14.4911,15.9554-8.6844,23.1969,0,0-15.2342,38.4091,19.5763,20.2977,0,0,2.8777,15.9551,13.0264,15.234,0,0,3.65,14.55,15.9554,0,12.3272-14.5129,15.9553-18.8552,18.134-31.9107,2.1562-13.0485,13.7767-79.74,112.35-115.9931l-5.0558,9.4275s35.5023-7.9627,60.164-26.8252c24.6394-18.8549,66.6989-29.2317,127.0981,25.39a15.1379,15.1379,0,0,1-1.435-12.5626c2.4139-6.7854,15.4621,13.9975,24.6322,20.29,9.1993,6.27-.9788-3.3852,2.4138-10.6342,3.3927-7.2421,11.1277,8.7133,13.5415,12.0766,2.4138,3.3929,59.9136-7.249,82.6251-6.27,0,0,7.2706,17.8834-.4635,24.6394s32.3744,3.8489,36.2527,6.263c0,0,27.5393,33.8389,58.4711,44.966s40.1093,39.1527,42.5233,41.5665,22.2478-2.8995,38.1736,10.1488c15.9553,13.0558,26.59,9.17,32.4038,5.8067,5.8068-3.3927,8.2205,9.663,19.8044,2.414,0,0,11.6134,4.8352,17.39-7.2712,0,0,17.42-5.3209,7.7348-12.5624,0,0,8.2205-21.7326-12.5626-17.3906,0,0,.9788-12.5626-19.3187-9.6629-20.2974,2.9067-46.4015-7.242-58.4712-21.269-12.1062-14.005-28.5179-27.5467-28.5179-27.5467s28.9744,0,57.4923,18.8329c28.518,18.8625,56.55,15.9554,52.2082,5.8068,0,0,31.4176,1.9281,25.6111-22.2184,0,0,5.2914-7.249.6918-11.1278Z" fill="#010101"/>
</svg>
