<svg id="Calque_1" data-name="Calque 1" xmlns="http://www.w3.org/2000/svg" width="30cm" height="33.4cm" viewBox="0 0 850.3937 946.7717">
  <path d="M828.7013,783.5528c-62.3857-27.91-37.0072-47.1663-37.0072-47.1663,16.5532-3.7285,15.3561-17.7511,15.3561-17.7511-20.4519-11.492-26.8482-72.5781-26.8482-72.5781-12.69-33.1076-66.1484-56.0927-66.1484-56.0927-48.4992-24.18-39.5373,1.334-39.5373,1.334,41.9651,40.7355,20.4529,64.9168,20.4529,64.9168l-11.4921,95.5277c-5.0968,49.56-28.0807,53.4581-28.0807,53.4581-24.1813,0-19.0846-34.3393-19.0846-34.3393,0-26.848,25.5142-24.1812,25.5142-24.1812-3.8641-17.9216,8.9619-26.8491,8.9619-26.8491l-3.9-72.5437c-21.6156-26.8825-64.9158-85.4025-64.9158-85.4025-8.9619-22.8132-25.5151-10.1236-25.5151-10.1236-82.8381,53.4238-230.5937,14.0232-230.5937,14.0232,0,40.7355-22.8473,71.3464-22.8473,71.3464-22.984,47.1653-1.3349,73.74-1.3349,73.74l94.297,72.5438c29.141,25.5161,18.9822,45.968,18.9822,45.968H398.09c-30.6109,0-10.2949-38.2044-10.2949-38.2044-24.0444-6.43-104.3517-64.95-104.3517-64.95-36.8694-7.5924-14.0221-63.5829-14.0221-63.5829,0-37.0072-12.69-30.6109-12.69-30.6109-5.1981,17.785-37.0061,59.8545-37.0061,59.8545-21.65,85.2329,76.4421,132.3978,76.4421,132.3978,21.7534,15.3905,12.826,24.1812,12.826,24.1812h-34.476c-25.5151,0-14.0232-24.1812-14.0232-24.1812-27.943-1.1973-63.754-70.0125-63.754-70.0125-59.8544-49.6964-27.9087-72.5437-27.9087-72.5437,38.2034-30.5765,35.6732-76.4088,35.6732-76.4088-80.307-77.7418-59.8554-156.7161-59.8554-156.7161-21.7868-8.9608-31.9439,16.5554-31.9439,16.5554C91.191,630.7,18.5116,632.0343,18.5116,632.0343-12.0672,403.9721,153.6111,421.7571,153.6111,421.7571c35.6732-53.4582,104.3174-66.6609,162.3254-67.2074-35.9467-9.8844-48.2258-22.984-48.2258-22.984-35.2974-26.8491,9.2011-74.937,9.2011-74.937a42.4359,42.4359,0,0,1-11.082-6.9443c-21.1041-8.4473,63.0693-35.8089,63.0693-35.8089-7.4911-14.7069,136.81-39.6762,136.81-39.6762-13.1-31.808,13.8864-54.005,13.8864-54.005,59.3067-37.3835,85.5059,26.0616,85.5059,26.0616,21.1036-4.6856,19.0866,9.2343,15.6307,12.9626-4.274,4.55-19.9047,3.6261-20.59,9.7479-.786,8.14,8.3115,25.1394,4.412,32.2182-1.3329,2.3955-8.2761,4.6522-8.2761,4.6522-3.4894,12.1757.2734,17.7849-2.9419,18.0595-6.3963.5124-32.5951,3.3171-32.5951,3.3171-1.1962,12.3134-48.088,65.2237-48.088,65.2237,4.5488,9.6121,31.6369,7.5933,55.9549,3.4559,17.7849-19.7692,26.1991-35.9477,26.1991-35.9477C617.8767,97.62,740.1168,128.2307,740.1168,128.2307l26.062-29.9271-5.0967,45.8323,26.7468-40.77-11.3553,52.262c25.5151,36.87,17.751,76.4088,17.751,76.4088,31.6721,101.8206-3.8652,101.9229-3.8652,101.9229-26.7113,3.7628-47.1641-35.7755-47.1641-35.7755-21.6515-13.9211-33.1436-45.8313-33.1436-45.8313-31.8082,26.8492-6.2585,154.1849-6.2585,154.1849,19.0844,48.4647-21.65,106.9852-21.65,106.9852s-14.0231,3.8986,5.0613,6.2945c19.12,2.53,78.9748,61.1874,78.9748,61.1874,64.9158,26.7123,64.9158,156.7161,64.9158,156.7161,11.492,49.6963-2.3933,45.8324-2.3933,45.8324Z" fill="#020303"/>
</svg>
