<svg id="Calque_1" data-name="Calque 1" xmlns="http://www.w3.org/2000/svg" width="30cm" height="33.4cm" viewBox="0 0 850.3937 946.7717">
  <path d="M820.2765,673.1249l-81.2067-46.66,76.4512-44.2444a18.3805,18.3805,0,0,0,6.6159-25.1346l-18.5156-31.7417a18.3785,18.3785,0,0,0-25.1346-6.6141L665.4934,584.19l-50.3271-44.8371L726.66,490.2a18.3876,18.3876,0,0,0,0-33.63l-113.003-49.82,51.8421-29.35L779.0277,443.506a18.3717,18.3717,0,0,0,25.1273-6.6072l.004-.0068L822.6743,405.15a18.3769,18.3769,0,0,0-6.6124-25.1337l-.0016-.0009-77.0456-44.8542,81.2618-46.6926a18.3538,18.3538,0,0,0,6.7707-25.0578l-.0273-.0475-18.4243-31.8288a18.4481,18.4481,0,0,0-25.1679-6.7267L702.085,271.5454l-.0914-89.0987a18.3739,18.3739,0,0,0-18.4546-18.293h-.0038l-36.75.1637a18.3765,18.3765,0,0,0-18.2947,18.458v0l.1911,130.9466-56.47,31.9674-.1084-109.168a18.37,18.37,0,0,0-29.2884-16.6531l-80.8669,55.9683V200.6606l114.1212-65.3267a18.376,18.376,0,0,0,6.8387-25.0715l-.0007-.0011-18.23-31.907a18.3783,18.3783,0,0,0-25.0726-6.84l-77.6539,44.46v-65.26a18.379,18.379,0,0,0-18.3776-18.3776H406.8184a18.3782,18.3782,0,0,0-18.3776,18.3776V116.243L310.7875,71.5162a18.3757,18.3757,0,0,0-25.0717,6.8366l-.0009.0015-18.2312,31.907a18.3753,18.3753,0,0,0,6.8358,25.0714l.0022.0013L388.4429,201v74.463l-80.076-55.2052a18.3528,18.3528,0,0,0-11.0918-3.7334,3.2077,3.2077,0,0,0-.7184,0,18.3673,18.3673,0,0,0-18.3776,18.357v113.83l-56.225-49.6732.4851-131.7287a18.3751,18.3751,0,0,0-18.2912-18.4586h-.0018L167.4,148.6875a18.3788,18.3788,0,0,0-18.46,18.2933l-.3257,89.9152L66.9654,209.9849a18.45,18.45,0,0,0-25.1674,6.7258L23.374,248.54a18.3536,18.3536,0,0,0,6.695,25.0776l.0481.0277,81.2067,46.66L34.8723,364.55a18.38,18.38,0,0,0-6.6158,25.1346l18.5154,31.7418a18.3784,18.3784,0,0,0,25.1346,6.614L184.9,362.5805l50.326,44.8371L123.7339,456.57a18.3875,18.3875,0,0,0,0,33.63L236.7369,540.02l-51.8421,29.35L71.3655,503.2645a18.3716,18.3716,0,0,0-25.1273,6.6073l-.004.0067L27.7189,541.6219a18.377,18.377,0,0,0,6.6129,25.1336l.0011.0006L111.3785,611.61,30.1171,658.3032a18.3539,18.3539,0,0,0-6.7694,25.0579l.0274.0475,18.424,31.8288a18.4483,18.4483,0,0,0,25.1673,6.726l81.3405-46.7367.0913,89.0985A18.3765,18.3765,0,0,0,166.856,782.62h.0008l36.75-.1637A18.3743,18.3743,0,0,0,221.9,764.0017v-.0036L221.7093,633.05l56.47-31.9674.1086,109.168a18.37,18.37,0,0,0,29.2882,16.6531l80.8669-55.9683V746.11L274.3216,811.4366a18.3762,18.3762,0,0,0-6.8385,25.0719l0,.0008,18.2313,31.907a18.3779,18.3779,0,0,0,25.0724,6.84l77.6538-44.46V896.057a18.377,18.377,0,0,0,18.3764,18.3776h36.7562a18.3781,18.3781,0,0,0,18.3776-18.3776V830.5275l77.6539,44.7268a18.3758,18.3758,0,0,0,25.0718-6.8366l.0008-.0015,18.2311-31.9071a18.3748,18.3748,0,0,0-6.8351-25.0709l-.003-.0017L461.95,745.77V671.3073l80.0762,55.2052a18.3525,18.3525,0,0,0,11.0916,3.7334,3.1959,3.1959,0,0,0,.7184,0,18.3672,18.3672,0,0,0,18.3776-18.3565V598.0588l56.225,49.6732-.4841,131.7285a18.3757,18.3757,0,0,0,18.2925,18.4586h.0025l36.7465.1637a18.38,18.38,0,0,0,18.46-18.295l.3256-89.9152L783.429,736.784a18.45,18.45,0,0,0,25.1673-6.7258l18.4242-31.8288a18.3555,18.3555,0,0,0-6.7-25.0791Z" fill="#010101"/>
</svg>
