<svg id="Calque_1" data-name="Calque 1" xmlns="http://www.w3.org/2000/svg" width="30cm" height="33.4cm" viewBox="0 0 850.3937 946.7717">
  <path d="M832.392,509.4126c-.3669,4.6473-2.0791,8.8055-3.0575,13.2083a15.2914,15.2914,0,0,0-.3669,2.3236c-2.4459,7.7049-4.77,15.41-7.3379,22.9923a403.2276,403.2276,0,0,1-33.7546,74.8471,424.8388,424.8388,0,0,1-43.0493,61.2719c-9.1724,11.0069-19.201,21.1577-29.3518,31.3085-1.3453,1.3453-2.6906,2.9352-4.0359,4.4028-4.0358,3.4243-7.8271,6.971-11.863,10.1508a417.0892,417.0892,0,0,1-179.9021,91.969,368.0665,368.0665,0,0,1-36.812,6.7264c-1.1007.6115-2.6906.2446-3.7913.7338-1.59.2446-3.0575.2446-4.6474.3669H473.077c-1.59.7337-3.4243,0-5.1366.7337-4.77.2447-9.6616,0-14.4312.9784a49.2614,49.2614,0,0,1-5.9927.3669c-17.2442.6115-34.3661.2446-51.61,0-2.0791-.9784-4.28,0-6.36-.7338-2.6906-.2446-5.3812-.2446-8.3164-.3668-1.1007-.6115-2.6906-.2447-3.7913-.7338h-1.3453c-1.59-.2446-3.0574-.2446-4.6473-.3669-1.1007-.7338-2.6906-.2446-3.7913-.7338-1.59-.2446-3.0575-.2446-4.6474-.3668-1.1006-.7338-2.69-.2446-3.7912-.7338A446.2534,446.2534,0,0,1,305.6494,815.65a419.0212,419.0212,0,0,1-138.32-71.3005c-1.7121-1.3452-3.6689-2.4459-5.3811-3.7912a101.1017,101.1017,0,0,0-7.7049-6.7265,382.4817,382.4817,0,0,1-30.9417-28.8625,450.5044,450.5044,0,0,1-40.2364-48.3082,409.93,409.93,0,0,1-34.6107-57.97,417.0026,417.0026,0,0,1-28.3734-76.1924c-.6115-2.3236-1.3453-4.6473-2.0791-6.971,1.9568-4.6474,5.3812-8.3164,7.46-12.7191,18.8341-30.33,38.402-60.0489,60.2935-88.3,5.3812-6.9711,5.7481-6.9711,12.7192-1.1007,11.0069,9.05,20.9131,19.4456,31.92,28.618,5.0142,4.2805,5.1365,4.4028,9.1724-1.1007,14.7982-20.1794,29.5964-40.3587,43.7831-60.905,5.9927-8.6832,13.086-15.7766,22.87-19.9347,9.05-4.0359,15.5319-11.3738,21.5246-18.9564,17.8557-23.4815,33.6323-48.43,51.488-71.79,6.971-9.05,13.82-17.8557,21.1577-26.2944,8.4386-9.7839,11.4961-9.417,17.2442,2.0791a76.1535,76.1535,0,0,1,5.3812,12.1076c6.1149,18.5895,17.1218,34.6107,27.8842,50.7542,4.28,6.36,8.4386,12.7191,12.7191,19.201,1.3453,2.0791,2.9351,4.2805,5.6257,1.1007,15.41-17.8557,30.9417-35.4668,44.8839-54.5455,5.3811-7.0933,9.1724-15.1651,12.23-23.4814a360.256,360.256,0,0,1,22.2584-49.5312c11.1293-20.3017,19.8125-41.8263,31.6755-61.8834,3.7913-6.3595,7.8272-12.7191,12.8414-18.2225,7.0934-8.0718,12.4746-8.0718,19.201.6115,16.1435,20.7908,28.8627,43.7831,42.1933,66.2861,20.7909,34.6107,40.1141,69.9552,62.74,103.3428,5.748,8.4387,13.5751,14.5536,19.5678,22.9923,13.82,19.8124,25.6829,40.8479,36.8121,62.3725a24.0729,24.0729,0,0,0,3.7912,6.36c4.4027-6.7264,6.4819-14.0644,9.7839-20.7908,2.9353-5.9927,5.1366-12.23,8.3164-18.2226,2.9352-5.3812,4.28-5.6258,7.8272-.6115,13.2082,17.1219,26.2943,34.1215,39.5026,51.121,13.5752,17.4888,27.0281,35.1,40.7256,52.5887,14.7982,19.4455,29.9633,38.4019,44.7615,57.8475C830.68,505.3767,832.392,506.9666,832.392,509.4126Z"/>
</svg>
