<svg id="Calque_1" data-name="Calque 1" xmlns="http://www.w3.org/2000/svg" width="30cm" height="33.4cm" viewBox="0 0 850.3937 946.7717">
  <path d="M286.2544,432.2513c7.4079-9.3285,14.8159-18.52,22.2238-27.8484,12.0722-15.2274,23.87-30.592,35.9423-45.9567,8.6426-10.8375,17.56-21.5379,26.8881-31.6895A70.4858,70.4858,0,0,1,410.9549,304.67a135.8679,135.8679,0,0,0,58.5776-27.574c10.5632-8.5055,20.0289-18.1084,29.22-28.1228,18.7943-20.44,38-40.3321,57.2058-60.361,19.0687-19.8917,38.1372-39.6462,57.0686-59.5379q27.9855-29.4261,55.834-58.7149a60.2561,60.2561,0,0,0,6.9964-8.6426c2.6065-4.1155,6.0361-7.4079,11.3862-7.8195a5.21,5.21,0,0,0,3.43-2.1949c2.195-3.0181,3.0181-6.7221,4.6643-10.1517.5488-.96-.4115-1.3718-.96-1.92a43.6573,43.6573,0,0,1-6.5848-6.7221c-1.509-1.92-2.1949-4.1155-.6859-6.1733,4.6643-6.4476,10.0144-12.3465,18.1083-14.5415,4.8015-1.3718,9.74-.5487,14.5415.5488a6.1957,6.1957,0,0,1,2.3322,1.509c18.3827,14.5415,36.7653,28.9458,55.0108,43.4874,11.3863,9.0541,22.6354,18.2455,34.296,27.0253,4.6643,3.5668,6.4477,8.3682,7.2708,13.7184.96,7.6823-1.9206,14.13-6.3105,20.166a29.7956,29.7956,0,0,1-3.2924,3.9784c-2.8809,2.8809-5.6245,3.018-8.917.4115-1.2347-.96-2.1949-2.0577-3.43-3.018-1.0975-.8231-2.3321-1.509-3.5668-2.3321-5.8989,4.8014-10.7,10.426-12.8953,17.8339a17.2211,17.2211,0,0,1-4.5271,7.4079c-7.2707,6.9964-12.2094,15.5019-17.6968,23.7329q-18.1082,27.78-36.2166,55.6968c-14.5415,22.361-28.9458,44.8592-43.4874,67.22-14.13,21.8123-28.8087,43.2131-42.6643,65.1625-7.5451,12.0722-14.9531,24.1445-21.8123,36.6282-5.35,9.6029-8.231,20.0289-10.0144,30.7293-2.1949,13.0325-2.6065,26.2022-3.0181,39.3719a90.6448,90.6448,0,0,1-3.43,23.4585c-3.1552,10.0144-8.5054,18.7942-14.9531,27.0253q-49.5919,62.7617-99.047,125.3863c-12.8953,16.3249-25.6534,32.65-38.5487,48.8375-21.4008,27.0253-42.8015,54.1878-64.2022,81.2131-11.6607,14.6787-23.3213,29.3574-34.982,44.1733-22.4982,28.5343-44.8592,56.9314-67.22,85.4657-5.4874,6.9964-11.112,14.13-16.7365,21.1264-6.4477,7.9567-14.5416,13.7184-24.6932,16.0506-10.2888,2.3321-20.44.6859-30.18-2.7437a13.1831,13.1831,0,0,1-2.8809-1.9206l-51.0325-40.3322c-29.769-23.4584-59.4007-46.917-89.17-70.3755L42.3407,801.9627a11.649,11.649,0,0,1-3.2924-3.9784c-2.1949-5.35-4.9386-10.5632-6.31-16.1877-2.6065-10.5632-.8232-20.5776,4.1155-30.0434,3.1552-6.0361,7.4079-11.2491,11.5234-16.5992q33.7473-42.5956,67.4947-85.4657c2.6064-3.43,5.35-6.7221,8.0938-10.0145"/>
</svg>
