<svg id="Calque_1" data-name="Calque 1" xmlns="http://www.w3.org/2000/svg" width="30cm" height="33.4cm" viewBox="0 0 850.3937 946.7717">
  <g>
    <path d="M73.5344,720.3741c3.4838-9.7984,6.9677-19.379,13.9354-27.2177,2.3952-2.6129,4.5726-5.4436,6.75-8.0565,1.3065-1.3065,1.3065-1.5242,0-3.0484a84.2709,84.2709,0,0,0-9.3629-10.2339c-2.3951-1.96-4.5725-4.5726-6.9677-6.75a72.42,72.42,0,0,0-7.1855-6.75,12.1074,12.1074,0,0,1-4.79-6.0967,108.5811,108.5811,0,0,0-5.0081-11.54,1.9633,1.9633,0,0,1-.2177-1.0887c.871-.6532,1.7419-.2178,2.6129,0,5.879,1.96,11.9758,1.5242,18.0726,1.3064a81.9814,81.9814,0,0,0,21.7742-4.1371c3.9193-1.3064,6.75-4.137,9.3629-7.8387-1.96-1.3064-3.9194-2.1774-6.0968-3.4839a2.05,2.05,0,0,1,1.96-.8709,24.0655,24.0655,0,0,0,6.75-1.96c4.5725-2.3952,9.7983-3.9193,14.8064-5.4435a8.4817,8.4817,0,0,0,4.3549-2.8306,31.523,31.523,0,0,1,3.7016-3.9194,1.74,1.74,0,0,0,.4354-2.3951c-.8709-2.1775-1.5241-4.5726-2.3951-6.75-.6532-1.7419-2.1774-2.8306-3.2661-4.3548a15.652,15.652,0,0,0-7.4033-6.0967l-3.9193-1.96c-5.4436-2.6129-10.8871-5.008-17.2016-5.8791-6.75-.8709-12.8468-3.2661-19.3791-4.5726-.2177,0-.2177-.2177-.4355-.6532,1.5242-1.3064,3.0484-2.6129,4.5726-3.7016a8.1755,8.1755,0,0,0,3.0484-4.5726c1.3065-4.3548,1.3065-4.3548-2.1774-7.4032a10.2271,10.2271,0,0,0-6.5323-3.0484,41.1749,41.1749,0,0,1-5.008-1.0887A55.455,55.455,0,0,0,62.43,556.6322c-.4355,0-1.0887.2178-1.5242-.2177,0-.871.871-.871,1.3065-1.3065,2.8306-1.7419,5.4435-3.7016,8.2742-5.2258a2.2309,2.2309,0,0,0,1.3064-2.1774c0-.6532-.2177-1.0887-.2177-1.5242a4.1849,4.1849,0,0,0-2.6129-3.9193c-5.6613-3.2662-11.9758-5.2258-18.0726-6.9678-7.4032-1.96-14.371-5.4435-21.5565-8.4919-2.1774-.871-3.7016-2.8306-5.4435-4.3549.2177-1.0887,1.0887-1.0887,1.5242-1.3064a95.2734,95.2734,0,0,1,19.8145-8.9275c5.2258-1.7419,10.2338-4.137,15.2419-6.3145a6.0119,6.0119,0,0,0,1.742-1.3064,39.74,39.74,0,0,0,3.0483-6.9678,2.1016,2.1016,0,0,0-.4354-1.7419c-2.1774-3.4839-4.3549-6.5323-8.2742-8.4919-3.4839-1.5242-6.75-3.9193-9.7984-5.8791-1.0887-.6532-1.3065-1.0887-.4355-1.96a7.792,7.792,0,0,1,5.6613-3.4839c3.2661-.4355,6.5323-1.3065,9.3629-1.96a4.1093,4.1093,0,0,0,2.8307-2.1774c1.3064-3.0484,1.0887-3.9194-1.742-5.6613-3.0484-1.3065-5.879-2.8307-8.71-4.3548a3.1129,3.1129,0,0,1-1.0887-4.5726c.4355-.4355.871-1.0887,1.3065-1.3065.6532-.6532,1.5242-1.3065,1.3064-2.1774a4.5081,4.5081,0,0,0-2.3951-2.8307c-3.4839-1.0887-6.3146-3.4839-9.3629-5.008a15.5221,15.5221,0,0,1-4.5726-3.7016,78.2509,78.2509,0,0,0-8.71-8.2742,3.1056,3.1056,0,0,1-.871-3.9194c.2178-.6532.6533-.6532,1.0887-.6532h3.9194a37.7806,37.7806,0,0,0,13.9355-1.742c3.9194-1.3064,8.2742-2.8306,12.4113-4.1371a16.2283,16.2283,0,0,1-2.3952-6.0967,7.119,7.119,0,0,0-2.3951-3.2662c-1.3065-1.3064-2.8307-2.6129-4.1371-3.9193-1.5242-1.3065-1.3065-3.2662-1.3065-5.0081,0-1.0887.871-.6532,1.3065-.6532,2.6129.2177,5.008.4354,7.6209.4354,1.742.2178,1.742.2178,1.96-1.7419a3.6833,3.6833,0,0,0-1.5242-3.7016,30.0661,30.0661,0,0,0-6.3145-3.7016c-3.9194-1.3065-7.4032-2.8307-11.3226-4.1371-1.5242-.6532-3.4838-1.3065-4.79-2.6129q-2.2863-1.96,0-3.9194a12.0737,12.0737,0,0,0,1.742-1.3064,15.9212,15.9212,0,0,1,4.1371-1.5242c6.0967-1.3065,10.2338-5.4436,15.0241-8.9274.871-.6533,1.0888-1.3065.871-1.96a14.8256,14.8256,0,0,0-3.7016-6.75c-3.9193-3.9194-7.8387-7.1855-11.9758-10.6693-1.5242-1.3065-3.2661-2.8307-4.79-3.9194-1.0887-.871-1.0887-1.3065-.2177-2.1774a11.6053,11.6053,0,0,1,5.008-3.4839c1.742-.6532,3.7016-1.3065,5.6613-1.96a53.3788,53.3788,0,0,0-5.6613-8.0564,148.4963,148.4963,0,0,1-13.7177-17.2016c-1.96-3.0484-3.9194-6.3145-5.6613-9.5806a14.59,14.59,0,0,1-1.5242-6.75c-.2177-3.9193-1.5242-7.1854-2.8306-10.6693a40.0793,40.0793,0,0,1-1.96-5.4435c2.6129-.2178,5.008.4354,7.4032.6532,15.46,1.3065,30.7016,3.9193,46.379,6.0968,3.2662.4354,6.5323,1.0887,9.5807,1.7419,3.2661,1.0887,6.3145,1.7419,9.5806,2.6129-.2177-2.8306-1.7419-5.2258-2.1774-7.621.4355-.6532,1.3065-.4354,1.742-.2177,9.3629,1.3064,18.7258,3.9193,28.0887,6.75a45.3191,45.3191,0,0,0,11.9758,2.6129H132.76a4.4876,4.4876,0,0,0,3.9194-4.5726c0-1.3065-.6533-2.1774-.871-3.4839s0-1.7419,1.5242-1.3065a9.4254,9.4254,0,0,1,1.0887.2178c3.9194,1.5242,8.0565,3.2661,11.54,6.0968a116.2615,116.2615,0,0,0,11.54,8.9274,14.3511,14.3511,0,0,0,5.2258,2.3952A15.1738,15.1738,0,0,1,170.865,307.1c6.5323,2.6128,13.0645,2.3951,19.8145,2.8306,1.3065,0,1.5242-.2178,1.5242-1.3065a9.4356,9.4356,0,0,1,.871-4.137c.8709-1.96,2.1774-2.6129,4.1371-1.96a12.7488,12.7488,0,0,1,3.7016,2.1774,39.5973,39.5973,0,0,1,7.6209,8.2742,187.68,187.68,0,0,0,21.5565,25.4758c5.6613,5.4436,11.3225,10.8871,16.9839,16.1129l7.8387,7.8387a67.5466,67.5466,0,0,1,11.1048,14.8065,9.0341,9.0341,0,0,1,1.5242,2.8306c5.879,12.1936,16.7661,19.1613,28.0887,25.6936a9.5442,9.5442,0,0,0,5.0081,1.3064,55.5069,55.5069,0,0,0,8.4919-.4354,10.2058,10.2058,0,0,0,6.3145-3.4839c3.7016-3.9194,6.75-8.2742,7.8387-13.5a90.5753,90.5753,0,0,0,3.0484-21.7742,35.8606,35.8606,0,0,0-6.0968-20.4677,95.73,95.73,0,0,0-8.2742-10.8871c-3.9194-4.3549-7.4032-9.1452-11.3226-13.5-4.137-4.79-8.2742-9.7984-13.5-13.7178l-.6532-.6532c-11.9758-10.4516-11.9758-10.8871-17.8548-25.4758a9.4254,9.4254,0,0,1-.2178-1.0887,33.6149,33.6149,0,0,1,6.5323.871c3.7016.6532,6.75-.871,8.9274-3.9194a1.3746,1.3746,0,0,0,.2178-1.5242,18.5307,18.5307,0,0,0-1.3065-3.7016c-1.7419-3.0484-3.4839-6.0968-6.0968-8.4919-3.9193-3.2661-6.75-7.1855-9.7984-11.3226a9.5539,9.5539,0,0,1-1.96-5.879,45.3908,45.3908,0,0,1,5.4435,0c2.8307.4355,4.1371-1.3065,5.4436-3.0484a4.2418,4.2418,0,0,0,.4355-4.79,60.2607,60.2607,0,0,0-5.6614-11.9758c-2.3951-3.7016-3.0483-7.8387-2.8306-12.1936,1.5242.4355,2.6129,1.5242,3.9194,2.3952,3.7016,2.1774,6.5322.871,6.75-3.7016a36.2374,36.2374,0,0,0-.871-11.758,20.3819,20.3819,0,0,1-.2177-10.2339,126.8539,126.8539,0,0,0,1.3064-15.6774v-3.2661q2.613,2.2861,4.5726,3.9193a16.9422,16.9422,0,0,0,10.8871,5.0081c2.6129.2177,5.2258.871,7.8387,1.0887,3.2662.2177,6.3145-.871,9.3629-1.3065a1.3168,1.3168,0,0,0,1.0888-1.3064c.6532-3.9194,1.3064-7.621,1.7419-11.54.2178-1.3065-.4355-2.6129-.6532-3.9194-1.0887-5.0081-1.0887-5.2258,3.9193-3.9194,1.742.4355,3.7016.871,5.6613,1.3065,4.1371.4355,6.9678-2.1774,6.9678-6.5323,0-2.8306-.2178-5.879-.2178-8.71a43.0392,43.0392,0,0,1,2.3952-16.5484c1.5242-4.79,2.6129-9.7984,3.9193-14.8065.2178-.6532.2178-1.0887.6533-1.3064.8709.2177,1.0887,1.0887,1.5242,1.5242,1.96,2.6129,3.9193,5.008,6.0967,7.8387a6.8586,6.8586,0,0,0,5.0081,3.0484c4.3548.6532,8.9274,1.3064,13.0645,1.96,1.3065.2178,1.742-.2177,1.96-1.3064.4355-3.2661,1.0887-6.3145,1.3065-9.3629.2177-3.4839,1.0887-4.1371,4.3548-4.5726,1.96-.2177,4.1371-.4355,6.3145-.6532s2.1774-.2178,2.6129-2.6129c.6532-5.0081,1.3065-9.7984,1.7419-14.8065a16.3139,16.3139,0,0,1,.871-3.4838c1.0887-3.4839,2.8306-4.5726,6.3145-3.9194,2.1774.4355,4.5726,1.0887,6.75,1.5242a70.6894,70.6894,0,0,0,9.3629,1.7419,2.9274,2.9274,0,0,0,3.0484-1.3064c2.6129-4.1371,5.2258-8.492,7.8387-12.6291a9.2226,9.2226,0,0,0,1.3065-3.0484c1.0887-3.4838,1.96-6.75,3.0483-10.0161.6533-2.1774.6533-2.1774,2.8307-2.1774,3.0484.2177,6.3145.2177,9.3629.6532a7.4987,7.4987,0,0,0,4.3548-.8709,36.04,36.04,0,0,0,15.46-12.4113c6.3145-9.1452,11.9758-18.5081,18.9436-27.2178,1.3064-1.5242,2.6129-3.4838,3.9193-5.008a21.6873,21.6873,0,0,1,2.1774-2.3952c2.1774-1.96,3.4839-1.5242,4.1371,1.3065,1.3065,3.7016,1.5242,7.4032,1.96,11.3225,1.7419,14.5888,5.4435,28.3065,9.7983,42.242a4.3787,4.3787,0,0,0,.871,1.7419c2.1774,2.8307,4.5726,5.4436,6.75,8.0565.871,1.0887,1.5242.6532,2.3952.4354a58.8052,58.8052,0,0,1,8.4919-1.7419c.6532,0,1.3065-.2177,1.7419-.2177,3.0484,0,3.9193,1.0887,4.1371,3.9193,0,2.1774,0,4.3549-.2178,6.5323a31.5528,31.5528,0,0,0,4.79,17.2016,6.0053,6.0053,0,0,0,3.0484,2.6129c4.5726,1.96,9.3628,3.9193,13.9354,6.3145,1.96,1.0887,3.0484,2.3952,3.0484,4.5726a30.6334,30.6334,0,0,0,.6532,6.0968c.6532,3.4838-.2178,2.3951,3.0484,3.2661a28.9192,28.9192,0,0,0,6.5322,1.3064,2.2231,2.2231,0,0,1,2.1775,2.3952c.2177,2.3951.6532,4.5726.8709,6.9677a2.6405,2.6405,0,0,0,1.5242,2.6129c1.96,1.3065,3.9194,2.3952,5.6613,3.7016a2.78,2.78,0,0,0,2.613.4355c3.2661-1.0887,6.3145-1.7419,9.3628-2.6129.871-.2177,1.7419-.6532,2.613-.871,2.6129-.6532,3.4838.2178,3.2661,2.8307a40.4422,40.4422,0,0,1-1.3065,7.4032c-1.0887,5.879-1.0887,11.7581-1.0887,17.6371,0,3.0484,3.9193,6.75,6.75,6.75a59.1291,59.1291,0,0,0,6.0968-.2177c1.3064,0,1.7419.4354,1.96,1.7419a102.4714,102.4714,0,0,1,.6532,16.3307c0,4.5726,2.1775,7.8387,5.2258,10.6693a10.0825,10.0825,0,0,0,9.7984,2.6129c1.96-.4355,3.9193-1.0887,6.0968-1.5242a54.2785,54.2785,0,0,1,10.0161-1.96c1.7419-.2177,2.1774.2178,1.96,1.96-1.3065,8.9274-2.613,17.4194-4.1371,26.3468a61.1955,61.1955,0,0,0-1.3065,14.1532,23.9982,23.9982,0,0,0,.4355,3.9194,5.4089,5.4089,0,0,0,2.613,3.4839,21.7616,21.7616,0,0,0,3.0483,1.7419c1.0887.4355,1.3065,1.5242,1.0887,2.8307-.8709,2.6129-1.5242,5.4435-3.7016,7.4032-1.7419,1.7419-3.2661,3.7016-5.008,5.4435a10.9424,10.9424,0,0,0-2.613,6.0968c-.4355,1.96.4355,2.8306,2.613,2.8306,1.7419,0,3.4839-.2177,5.2258-.2177,1.3064,0,1.5242.4355,1.0887,1.5242-2.1775,3.2661-4.3549,6.5322-7.621,8.71-1.96,1.3064-3.9193,3.0483-6.3145,4.3548-2.8306,1.96-4.5726,4.79-6.3145,7.621a7.7355,7.7355,0,0,0-.871,1.96c-.2177,1.5242.2178,2.1774,1.5243,2.6129a23.6588,23.6588,0,0,0,3.9193.2178c1.0887,0,2.1774,0,2.6129.8709.6532,1.3065-.4355,1.96-1.3064,2.8307-1.3065,1.3064-2.613,2.6129-3.9194,3.7016-5.008,3.9193-9.3628,8.0564-14.371,11.9758-8.4919,6.75-12.629,15.6774-14.5887,26.3468-1.0887,6.75-1.5242,13.5,0,20.25a33.603,33.603,0,0,0,3.7017,9.1451c4.5725,7.4032,12.1935,10.8871,20.9032,9.1452a48.78,48.78,0,0,0,13.5-5.4436,93.8175,93.8175,0,0,0,36.7984-40.7177c2.6129-5.2258,5.2258-10.4516,8.0565-15.6774a22.5161,22.5161,0,0,1,5.2258-6.75c2.1774-1.96,4.137-4.1371,6.75-6.75q.3265,1.96.6532,3.9193c.2177.871.2177,1.3065.4355,2.1775.4355,1.5241.8709,1.96,2.3951,1.5241,3.9194-1.0887,6.9678-2.6129,9.5807-5.879,1.7419-2.1774,3.7016-4.3548,5.4435-6.75,2.8306-3.9194,6.75-7.1855,10.0162-10.6693,1.5242-1.5242,1.7419-1.5242,2.6129.6532,1.0887,2.1774,1.3065,4.79,3.9193,5.879a18.4669,18.4669,0,0,0,10.8871,1.0887c6.0968-1.5242,10.2339-5.4435,14.371-9.7984.871-.8709,1.5242-1.7419,2.3952-2.6129,1.3064-1.3064,1.7419-1.3064,2.6129.4355a15.4647,15.4647,0,0,1,1.7419,3.9194c.4355,1.0887.871,1.5242,2.1774,1.3064,3.9194-.8709,8.2742-1.5241,12.1936-2.3951.6532-.2178,1.3065-.6533,1.96-.871,10.0161-4.5726,20.0322-9.5806,30.0483-14.8064a28.8313,28.8313,0,0,0,4.3548-2.6129c5.0081-3.4839,10.8871-4.79,16.7662-6.0968a1.6435,1.6435,0,0,1,1.7419.2177,2.1014,2.1014,0,0,1-.4355,1.742,38.4852,38.4852,0,0,0-5.008,10.4516,62.0819,62.0819,0,0,1-5.6613,12.1936c-3.7017,6.75-6.0968,14.3709-8.71,21.7742-1.3065,3.2661.2177,6.0967,1.0887,8.9274.2177.8709.8709.8709,1.3065,1.0887,3.7016,1.3065,7.1854,2.8306,11.3226,2.8306,1.3064,0,2.3951,0,3.2661,1.0888a2.6292,2.6292,0,0,1-1.96,1.5241,16.5053,16.5053,0,0,0-6.5322,5.6613,37.8479,37.8479,0,0,0-5.2258,16.7662c-.2178,3.0483.4355,3.9193,3.2661,5.2258a94.9955,94.9955,0,0,0,13.0645,5.008c2.3952.871,2.3952.871.871,2.8307-3.9194,4.3548-7.621,8.9274-11.3226,13.7177a5.0257,5.0257,0,0,0-1.3065,4.1371c0,1.7419.6532,3.4839,2.3952,4.1371,2.8306,1.3065,5.4435,3.2661,8.9274,3.4839a4.1561,4.1561,0,0,1,1.7419.6532c0,1.3065-1.0887,1.7419-1.5242,2.3952-3.7016,3.9193-5.6613,8.71-7.621,13.7177a9.2623,9.2623,0,0,0-.4355,2.3952c-.4355,4.1371-.2177,4.1371,3.7017,5.6613,4.79,1.7419,10.0161,2.6129,14.8064,3.9194,3.2661.8709,6.75,1.5241,9.7984,3.0483-.2178,1.3065-1.0887,1.96-1.5243,3.0484a60.73,60.73,0,0,1-8.71,9.5806,20.72,20.72,0,0,0-4.1371,4.5726c-1.3065,1.96-1.3065,2.6129,0,4.5726a12.0682,12.0682,0,0,0,1.3065,1.742c.4355.4354.8709,1.0887,1.3064,1.5242-1.7419.8709-3.4839,1.5241-5.008,2.1774-2.8306,1.0887-4.79,3.0483-6.9678,5.008a4.9146,4.9146,0,0,0-1.3065,4.79c.871,2.1774,1.5243,3.9193,4.1371,3.9193a50.8662,50.8662,0,0,1,5.6613.871c2.1775.4355,2.613,1.0887,1.7419,3.2661-1.0887,2.3952-2.3951,4.79-3.4838,7.4032-1.3065,3.2662-2.8307,6.3145-3.9194,9.5807a7.18,7.18,0,0,0,.2178,5.2258,43.0806,43.0806,0,0,0,7.621,11.9758,4.5244,4.5244,0,0,0,2.6129,1.0887,60.2687,60.2687,0,0,1,10.8871,2.1774c1.3064.4355,3.0483.6532,3.2661,2.1774.2178,1.3065-1.5242,1.7419-2.6129,2.613a196.6411,196.6411,0,0,1-21.3387,10.887,5.5735,5.5735,0,0,0-3.2661,3.7017c-1.3065,4.1371-3.0484,8.2742-4.5726,12.4113a2.0143,2.0143,0,0,0,.4355,2.6129c1.96,2.3952,3.9193,4.79,6.5322,7.621-8.2741,3.2661-16.1128,6.9678-22.21,13.9355a81.44,81.44,0,0,1,5.4436,6.3145,4.1494,4.1494,0,0,0,2.1774,1.0887c2.3952.6532,4.5726,1.3064,6.9678,2.1774a13.0018,13.0018,0,0,1,2.3951,1.3065c.6532.6532.6532,1.0887,0,1.5242a9.0382,9.0382,0,0,1-2.8306,1.5242c-6.5322,3.2661-12.8467,6.5323-19.5967,9.5806a8.4046,8.4046,0,0,0-3.4839,3.2662c-1.3065,2.1774-2.3952,4.137-3.9194,6.3145a3.07,3.07,0,0,0-.2177,3.0483c1.3065,3.2662,2.3952,6.75,3.4839,10.0162a4.7107,4.7107,0,0,0,2.3952,2.6129,86.8616,86.8616,0,0,1,16.3306,9.5806,9.4724,9.4724,0,0,1,1.5242,1.3065c1.3065,1.0887,1.3065,1.3065,0,1.96a4.7583,4.7583,0,0,1-1.0887.6532c-7.8387,5.008-15.46,10.4515-23.0807,15.8951a9.1581,9.1581,0,0,0-3.9193,5.4435,33.6428,33.6428,0,0,0-1.3064,5.0081c-.6532,1.96-.4356,3.7016,1.3064,4.79l1.96,1.96c1.5242,1.7419,1.5242,1.96-.4355,3.2661a119.232,119.232,0,0,0-10.6694,7.621c-3.0483,2.1774-3.9193,5.879-4.79,9.1452v1.0887c1.3065,3.0484,2.8306,6.5322,5.6613,8.4919,2.1774,1.7419,4.5726,3.4839,6.75,5.2258.6532.6532,1.5242.8709,1.96,1.7419-1.3065,1.0887-3.0484.871-4.5726,1.3065-7.1855,1.3064-14.5888,2.8306-21.992,3.2661-1.0887,0-1.3064.6532-1.3064,1.5242q-.3267,3.9194-.6532,7.8387c-.2178,3.4839-.2178,3.4839-3.7017,4.1371-1.3064.4355-2.8306.871-3.9193,1.3065-1.3065.8709-2.1774,1.7419-1.96,3.4839s.4355,3.7016.6532,5.4435a9.7884,9.7884,0,0,0,1.3065,2.6129c2.3952,2.613,4.5726,5.4436,6.75,8.2742.4355.4355.6532,1.0887,1.3065,1.5242-1.7419.4355-3.2662-.2177-4.79-.4355a49.1372,49.1372,0,0,0-17.8548.4355c-5.6613,1.3065-11.3226,1.7419-17.4194,2.8306a33.2629,33.2629,0,0,1,3.9193,3.9194c-1.5242,1.0887-3.0483.8709-4.3548,1.0887a65.51,65.51,0,0,0-9.3629,2.3952c-.8709.2177-1.5242,1.0887-2.1774,1.5242a79.9535,79.9535,0,0,1-6.3145,5.008c-1.3065.871-1.3065,1.7419-1.3065,3.2661,1.0887,6.0968,2.8307,11.9758,4.1371,17.6372.2178.4355.2178.8709.4355,1.3064.2178,1.3065,0,1.7419-1.3064,1.3065-7.1855-1.5242-14.5888-3.2661-20.9033-7.1855a89.5152,89.5152,0,0,0-9.1452-4.5726c-2.1774-1.0887-3.2661-.6532-3.9193,1.7419-.4355,1.7419-.8709,3.7017-1.3064,6.0968-6.0968-5.2258-12.1936-9.7984-20.4678-10.8871a60.916,60.916,0,0,1,1.3065,6.0967c.2177,1.3065,1.0887,3.4839-.4355,4.3549-1.3065,1.0887-2.8306-.4355-3.9193-.871-4.5726-1.96-9.1452-4.1371-12.629-7.6209a73.1657,73.1657,0,0,0-9.3629-6.75,6.7779,6.7779,0,0,1-1.3065-.8709c-3.9193-1.3065-8.0565-2.8306-12.1935-4.3548V763.27a18.5726,18.5726,0,0,1-6.0968-5.4436c-1.7419-2.6129-4.1371-4.137-6.75-5.6613-5.008-2.6129-10.4516-4.3548-15.8951-6.3145s-10.8871-3.9193-16.3307-6.0967a61.3221,61.3221,0,0,1-8.2741-4.5726,10.1992,10.1992,0,0,1-3.9194-6.3145c-1.96-8.9274-6.75-15.8951-13.5-21.7742-6.5323-5.6613-13.9355-9.7984-21.5564-13.5-8.2742-3.9193-16.5484-7.4032-24.8226-11.3226a123.5537,123.5537,0,0,1-17.4193-9.7984,65.273,65.273,0,0,1-8.2742-7.1855c-9.1452,11.3226-20.4677,19.1613-32.4435,26.5646-18.7259,11.758-33.0968,27.6532-44.4194,46.1613-6.75,11.1048-12.629,22.6451-18.29,34.1855-2.3952,4.79-5.4435,9.3629-9.5806,12.629a35.0426,35.0426,0,0,0-10.0162,13.7177l-.6532,1.3065-.2177.2177a1.1668,1.1668,0,0,1-.6533-.8709c0-2.613-1.7419-3.7017-3.9193-4.1371a4.096,4.096,0,0,0-5.2258,1.3065,38.8315,38.8315,0,0,1-7.1855,5.008,40.8514,40.8514,0,0,0-3.9194,2.6129,10.8689,10.8689,0,0,1-3.7016,2.3952c-3.4839,1.96-6.75,3.9193-10.2338,6.0967a15.024,15.024,0,0,1-5.0081,1.742,11.5,11.5,0,0,0-.2178-2.8307c-.2177-1.96-1.0887-2.6129-3.0483-2.6129-4.1371.4355-8.0565,1.0887-11.7581,3.7016-6.75,4.3549-13.5,8.71-20.9032,11.3227-3.9194,1.3064-7.621,2.3951-11.54,3.4838a11.8931,11.8931,0,0,1-3.9193.2178c-1.96-.2178-2.3952-1.0887-1.742-2.8306,1.0888-2.8306,2.1775-5.6613,3.2662-8.2742,1.7419-4.3548,1.96-9.1452,2.3951-13.5.2178-1.7419-.4354-2.1774-2.1774-2.1774-5.2258-.6532-10.2338-1.0887-15.46-1.5243a26.1208,26.1208,0,0,0-8.2742.871c-2.1774.4355-2.1774.4355-2.3951-1.7419,0-2.1774,0-4.3548-.2178-6.5323-.2177-1.7419-.4355-1.96-2.1774-1.7419a80.0387,80.0387,0,0,0-12.4113,1.3065,4.428,4.428,0,0,1-5.0081-1.96,6.1085,6.1085,0,0,0-3.0483-2.1774,4.928,4.928,0,0,0-3.9194.2178c-5.6613,2.8306-11.758,4.5726-17.6371,6.75a8.8913,8.8913,0,0,1-4.1371.2177c-4.5726-.4355-9.3629-1.0887-14.1532-1.3064-1.96-.2178-2.1774-1.0887-1.3065-2.613a6.2132,6.2132,0,0,1,1.5242-1.7419c1.96-1.7419,3.9194-3.7016,6.0968-5.4435a32.5494,32.5494,0,0,0,6.0968-8.2742,5.13,5.13,0,0,0,.4354-5.008q-.3266-.98-.6532-1.96a5.1532,5.1532,0,0,0-3.0484-3.9193,39.3615,39.3615,0,0,0-11.758-4.79c-1.3065-.4355-1.96-1.0887-1.7419-2.3951a12.2692,12.2692,0,0,0,0-2.8307c0-3.9193-2.1775-6.0967-6.0968-6.3145-3.7016-.2177-7.4033-.2177-11.1049-.2177-3.0484,0-5.879,1.3065-8.71,1.96a37.1161,37.1161,0,0,1-11.9758,1.7419c-2.1775,0-3.0484-1.3065-1.96-3.2662a7.513,7.513,0,0,1,1.7419-1.96,59.5716,59.5716,0,0,0,8.492-9.7984,12.7569,12.7569,0,0,0-.871-15.46c-.871-.871-1.5242-1.7419-2.3952-2.6129-2.3951-2.3952-5.2258-3.9194-8.71-3.7017a29.0255,29.0255,0,0,1-4.3549,0A33.6041,33.6041,0,0,0,92.26,715.802C87.6876,713.6241,80.0666,716.0193,73.5344,720.3741Z"/>
    <path d="M320.4537,932.0192c-1.0887-10.4516-1.3065-20.9032-6.9678-30.2661.4355-.871,1.0887-.6532,1.5242-.6532a47.1664,47.1664,0,0,1,7.8387.2177,23.9228,23.9228,0,0,0,7.8388-.6532c10.6693-2.8306,21.5564-5.4435,32.008-9.3628a71.6834,71.6834,0,0,0,32.4435-23.7339c18.9436-24.6048,32.0081-52.04,40.0645-81.8709a334.6139,334.6139,0,0,0,8.9275-52.4759,480.0724,480.0724,0,0,0,1.0887-55.96c-.2178-3.7016-.2178-3.7016,3.0484-5.2257a23.7228,23.7228,0,0,1,2.3951-1.3065c.871,2.1774.871,4.3548,1.0887,6.75a399.2111,399.2111,0,0,1,1.5243,53.5645c-1.3065,32.6613-6.3145,64.6694-17.4194,95.3709-7.1855,20.25-17.2016,39.1936-30.9193,55.742-16.5484,20.0323-37.0162,33.75-62.2742,40.7177a44.5641,44.5641,0,0,0-14.371,6.3146,21.7321,21.7321,0,0,1-5.4436,2.8306C321.76,932.0192,321.1069,932.4547,320.4537,932.0192Z"/>
  </g>
</svg>
