<svg id="Calque_1" data-name="Calque 1" xmlns="http://www.w3.org/2000/svg" width="30cm" height="33.4cm" viewBox="0 0 850.3937 946.7717">
  <g>
    <path d="M637.5758,615.6648a415.4774,415.4774,0,0,0-8.5631-45.4215c-4.84-19.36-10.7969-38.3477-17.1261-57.1493-6.3293-18.9877-12.8446-37.7892-18.057-57.1492-6.8877-25.6892-11.1692-51.7507-11.1692-78.5569,0-7.8184.3723-15.823-.3723-23.6415a103.0836,103.0836,0,0,0-3.3508-20.1046c-5.0262-17.1261-16.0092-28.4815-33.3215-33.6938a101.1171,101.1171,0,0,0-21.2215-3.537c-7.4462-.5584-14.8923-.9307-22.5246-1.1169-2.6062-.1862-2.2339.1862-2.6062-2.42-3.5369-21.0354-7.26-42.0708-10.7969-63.2923-3.7231-21.5938-7.26-43.1877-10.983-64.7815-3.5369-20.6631-7.0739-41.14-10.6108-61.8031L455.7035,37.0988c-.1861-1.3031-.3723-2.7923-.5584-4.6539a17.9393,17.9393,0,0,1,4.4677,7.26,50.5136,50.5136,0,0,1,2.7923,15.8231,95.0383,95.0383,0,0,0,3.5369,21.78,68.9655,68.9655,0,0,0,5.2123,13.4031,4.2036,4.2036,0,0,0,2.6061,2.42,3.3866,3.3866,0,0,0,3.5369-1.3031,3.6448,3.6448,0,0,0,.1862-4.0954c-5.3984-10.4246-7.8185-21.5938-8.1908-33.3215a64.1929,64.1929,0,0,0-1.303-10.2385,49.1355,49.1355,0,0,0-3.537-10.4246c.1862-.1861.1862-.1861.3724-.1861.7446.3723,1.3031.5584,2.0477.9307A142.379,142.379,0,0,1,491.6312,50.13a55.89,55.89,0,0,0,6.8877,4.6539c5.0262,2.7923,9.4939,2.42,13.7754-1.3031a49.017,49.017,0,0,0,10.4246-13.4031,12.2248,12.2248,0,0,0,1.4892-7.26,11.6291,11.6291,0,0,0-5.0262-7.8184,30.5962,30.5962,0,0,0-9.4938-4.0954c-8.3769-2.2338-16.94-2.6062-25.6892-2.7923C472.83,17.9249,461.4743,18.67,450.305,19.6a11.4507,11.4507,0,0,1-2.6061-.1861A119.0557,119.0557,0,0,0,424.9881,13.83c-9.8661-1.3031-19.7323-1.4893-29.4123.7446-4.4676.9307-8.9354,2.2338-12.8446,5.0261-5.5846,3.7231-8.7492,9.1216-8.1907,15.8231.9307,10.0523,6.3292,17.4984,15.2646,21.9661a15.5566,15.5566,0,0,0,10.0523,1.3031c4.6538-.9308,8.0046-3.7231,10.6107-7.4461,5.5847-8.377,13.4031-14.1477,22.3385-18.4293.5584-.1861.9308-.7446,1.4892-.5584.1862.1861,0,.5584,0,.7446a94.7955,94.7955,0,0,0-9.68,26.2477Q423.7781,63.16,422.94,67.07c0,.3724-.1861.5585-.1861.9308a3.4883,3.4883,0,0,0,2.9784,4.0954,3.332,3.332,0,0,0,3.7231-2.9785c.7446-3.723,1.4892-7.4461,2.42-11.1692a91.091,91.091,0,0,1,7.8185-20.4769,32.1261,32.1261,0,0,1,5.7707-8.0046V30.77c-1.1169,6.5153-2.42,13.0307-3.723,19.36-2.9785,16.1953-5.957,32.3907-8.9354,48.7722-2.6061,14.3339-5.3985,28.8539-8.0046,43.1877-2.7923,15.4508-5.7708,30.9016-8.5631,46.3523s-5.7708,30.9016-8.5631,46.3523Q403.208,259.0872,398.74,283.38c-.7446,3.7231-1.3031,7.4461-2.0477,10.983-.1862.9308-.3723,1.4893-1.6754,1.6754-2.9784.1862-5.9569.5585-8.9353.9308a121.0047,121.0047,0,0,0-18.2431,3.3508c-14.3339,4.2815-25.8754,12.2861-33.5077,25.503a79.13,79.13,0,0,0-7.0739,18.0569c-2.7923,10.9831-3.5369,22.3385-3.9092,33.6939-.5585,25.1307.3723,50.0753.7446,75.2061.1862,15.0785.7446,30.3431,1.1169,45.4215a128.5416,128.5416,0,0,1-1.303,22.3385c-.9308,5.2123-2.6062,9.8661-6.1431,13.9615a90.8667,90.8667,0,0,0-12.2862,18.8016,55.3317,55.3317,0,0,0-4.2815,38.1615c.5585,2.2339.5585,2.2339-1.4893,3.3507-5.9569,3.537-11.5415,7.6324-16.0092,13.0308a38.1551,38.1551,0,0,0-9.1215,24.9446,72.7094,72.7094,0,0,0,1.1169,12.6584,3.5288,3.5288,0,0,1-1.4892,3.9093,234.9883,234.9883,0,0,0-32.9492,36.3c-12.4723,17.1261-22.1523,35.5554-27.5508,56.2184a124.9111,124.9111,0,0,0-2.6061,52.4954,120.7486,120.7486,0,0,0,20.1046,48.7724c11.5415,16.7538,26.2477,30.343,43.1876,41.5122,18.6154,12.4724,38.72,21.5939,59.7554,28.8539,30.5292,10.2384,61.9892,16.1954,94.1939,19.1738a280.3052,280.3052,0,0,0,45.0492.5584,195.7539,195.7539,0,0,0,38.72-6.5154c38.3477-10.4246,68.5045-32.2045,89.9122-65.8984,10.6108-16.7538,18.057-34.6246,23.6416-53.6123,7.8185-26.62,11.7276-53.7984,13.5892-81.3492,1.1169-14.52,1.4892-28.8538,1.6754-43.3738C641.1127,659.7832,640.5543,637.6309,637.5758,615.6648ZM497.7743,25.5573c4.6539.5584,9.1215,1.1169,13.5892,2.7923a14.0574,14.0574,0,0,1,4.2815,2.42,3.8138,3.8138,0,0,1,1.3031,4.6538,7.7781,7.7781,0,0,1-.7446,1.8616A48.5432,48.5432,0,0,1,508.1989,47.71c-2.42,2.42-3.9092,2.6061-6.8877.7446a69.0776,69.0776,0,0,1-5.9569-4.2816,136.5581,136.5581,0,0,0-29.9708-18.0569,11.0337,11.0337,0,0,0-1.1169-.7446A201.162,201.162,0,0,1,497.7743,25.5573ZM428.5251,26.86a61.1994,61.1994,0,0,0-23.6415,19.9185,8.09,8.09,0,0,1-1.117,1.3031c-3.1646,3.7231-7.26,4.84-11.5415,2.6061-6.5154-3.3507-10.4246-8.563-10.9831-15.823-.3723-4.4677,1.6754-7.8185,5.5846-10.0523a29.7614,29.7614,0,0,1,9.8662-3.537,71.0948,71.0948,0,0,1,26.62-.7446q5.8638.8378,11.7277,2.2339a3.3439,3.3439,0,0,1,1.6753.7446A83.3708,83.3708,0,0,0,428.5251,26.86Zm-5.7708,216.1246c-.9307,8.0046-1.6753,16.0092-2.6061,24.0138q-1.3962,12.8447-2.7923,25.6892c-.1862.9308-.3723,1.3031-1.3031,1.4893-3.9092.1861-8.0046.5584-12.1.7446,0-2.6062.7446-5.0262,1.1169-7.4462,4.84-26.0615,9.68-52.3092,14.52-78.3707,5.0262-26.9923,9.8662-53.9846,14.8923-80.9769a2.6453,2.6453,0,0,1,.3724-1.1169c-.1862-1.117.3723-2.2339.5584-3.3508-.1862-1.1169.3723-2.2338.5584-3.3508s.3724-2.2338.5585-3.3508c-.1862-.9307.3723-1.6753.3723-2.9784.5584,2.2338.5584,2.2338,0,3.9092a14.4724,14.4724,0,0,1-.3723,2.9785h0a10.8581,10.8581,0,0,1-.5585,4.2815,9.5044,9.5044,0,0,1-.5584,3.9092,97.2612,97.2612,0,0,1-1.3031,12.6585c-.9308,8.0046-1.8615,16.1954-2.6061,24.2-1.117,9.68-2.2339,19.1738-3.1647,28.8538-.9308,8.0047-1.6754,15.8231-2.6061,23.8277C424.6159,226.4172,423.6851,234.7941,422.7543,242.9849Zm33.6938,50.4477c-9.4938-.1862-18.8015-.1862-28.2953.1861-1.6754,0-1.6754,0-1.4893-1.6753q1.6755-16.4746,3.3508-32.9493c1.3031-12.2861,2.42-24.3861,3.7231-36.6722.9307-8.9354,1.6753-18.057,2.6061-26.9923,1.1169-10.6108,2.2339-21.2216,3.1646-31.8323.9308-8.9354,1.6754-17.8708,2.6062-26.8062.9308-9.1215,1.8615-18.0569,2.7923-27.1784q1.1169-10.89,2.2339-21.78c.5584-4.6539.9307-9.3077,1.4892-14.1477a4.7535,4.7535,0,0,1,.1861-2.2339,3.179,3.179,0,0,1,.1862,2.2339c.5584,10.6107.9308,21.2215,1.4892,31.6461.7446,17.3123,1.4892,34.8108,2.42,52.1231.5584,12.2861,1.1169,24.3861,1.6754,36.6723.7446,17.1261,1.4892,34.0661,2.2338,51.1923.3724,7.8184.7446,15.8231,1.117,23.6415.3723,7.4462.7446,14.8923.9307,22.5246C458.682,293.4326,458.8682,293.4326,456.4481,293.4326Zm34.997,1.1169c-8.0046-.3723-16.1954-.5585-24.2-.9308-1.6754,0-1.6754,0-1.8615-1.8615-.5585-11.9138-1.117-23.8277-1.4892-35.5554-.7446-16.3815-1.4892-32.7631-2.2339-49.3307L460.5436,181.74c-.7446-16.94-1.4893-34.0662-2.2339-51.0061q-.8378-20.3839-1.6754-40.7677a31.5809,31.5809,0,0,1-.1862-8.3769,11.8657,11.8657,0,0,1,.7447,4.4676c1.3031,7.4462,2.6061,15.0785,3.9092,22.5247,2.2339,13.0307,4.4677,25.8753,6.7015,38.9061,2.2339,12.8446,4.2816,25.6892,6.5154,38.5338,2.2339,13.0308,4.4677,25.8754,6.7016,38.9062,2.2338,12.6584,4.2815,25.5031,6.5154,38.1615,1.6753,10.0523,3.3507,20.2908,5.2122,30.3431v.7446A.9814.9814,0,0,1,491.4451,294.55Z" fill="#020303"/>
    <path d="M436.3436,116.5865a.1823.1823,0,0,0,.1861.1861A.1823.1823,0,0,1,436.3436,116.5865Z" fill="#020303"/>
    <path d="M457.1928,86.2434c-1.4892,1.1169-.5584,2.6062-.5584,3.9092C457.1928,88.85,456.262,87.36,457.1928,86.2434Z" fill="#020303"/>
    <path d="M434.6682,126.6388c.7446.5584.3723,1.303.5584,2.0477C435.4128,127.9418,435.9712,127.1972,434.6682,126.6388Z" fill="#020303"/>
    <path d="M435.2266,123.288c.5585.3723.1862,1.1169.5585,1.4892C435.7851,124.2188,436.3436,123.4742,435.2266,123.288Z" fill="#020303"/>
    <path d="M436.3436,120.4957q.2792-.8377-.5585-.5585l.5585.5585Z" fill="#020303"/>
    <path d="M436.7159,117.5172c-.1862-.1861-.1862-.3723-.3723-.7446C436.53,116.9588,436.3436,117.3311,436.7159,117.5172Z" fill="#020303"/>
    <path d="M448.8159,73.3988c-.1862-.1862-.1862-.1862-.3723,0h.3723Z" fill="#020303"/>
  </g>
</svg>
