<svg id="Calque_1" data-name="Calque 1" xmlns="http://www.w3.org/2000/svg" width="30cm" height="33.4cm" viewBox="0 0 850.3937 946.7717">
  <g>
    <path d="M575.335,809.2612c-.653-3.2364-1.2958-6.505-1.9147-9.8453C541.102,625.11,565.6878,157.9064,571.9642,49.707c-16.3747,6.541-40.3537,10.6488-65.3813,14.0092-50.7373,6.8094-118.1,10.5664-189.6812,10.5664-70.296,0-133.857-3.761-178.9686-10.59C113.4257,59.9832,95.426,55.74,83.1382,50.6043,87.07,159.4532,102.6008,632.43,82.231,798.8069c-.1682,1.36-.3526,2.7-.5307,4.0477C147.334,827.43,237.88,840.9185,337.9223,840.9185c89.7728,0,173.6174-11.2173,237.4117-31.6573ZM144.38,610.2966a10.0137,10.0137,0,0,1-20.0272,0V426.444a10.0137,10.0137,0,0,1,20.0272-.0952c0,.0317,0,.0635,0,.0952Zm0-236.1728a10.0137,10.0137,0,0,1-20.0272,0V339.5162a10.0137,10.0137,0,0,1,20.0272,0Z"/>
    <path d="M316.9017,76.2862c65.7079,0,128.668-3.2485,177.2864-9.1465,50.717-6.1524,71.075-13.8771,77.7761-17.432-6.7011-3.5546-27.059-9.6351-77.7761-15.7875C445.57,28.0222,382.61,24.7717,316.9017,24.7717c-65.4233,0-123.2265,3.1464-167.1624,9.1005-45.7085,6.1964-61.8186,13.5345-66.6011,16.7337,4.7825,3.2045,20.8926,10.38,66.6011,16.5746,43.9359,5.9582,101.7389,9.1071,167.1624,9.1071Z"/>
    <path d="M752.8416,166.1642c-16.2041-13.5664-39.9646-17.672-70.6165-12.1965L561.5453,177.92c-.9794,22.2044-1.9668,46.145-2.9,71.2975l65.0108-18.9741a75.17,75.17,0,0,1,66.0123,10.45A73.0869,73.0869,0,0,1,721.0114,297.7q.074,1.76.076,3.541V572.0249a44.01,44.01,0,0,1-43.9213,43.9923H554.5985q1.1663,41.9253,3.3285,76.9051H718.3924A64.865,64.865,0,0,0,783.117,628.06V264.8987c-.0182-49.3955-9.9158-81.6917-30.2756-98.7351Z"/>
    <path d="M575.335,809.2612c-65.5116,20.6744-146.5223,29.654-237.4117,29.654-100.3973,0-188.72-11.59-256.222-36.061-1.6925,9.8614-3.3786,17.7684-5.087,26.4842-6.8094,34.7035-15.41,61.7623-3.1444,75.952,11.47,13.2642,40.958,18.5495,90.1332,16.148.1622,0,.3264-.0119.4886-.0119H491.4664c.1622,0,.3264,0,.4886.0119,50.4589,2.4594,80.7605-3.23,92.6466-17.3976,13.3623-15.9262,2.2752-45.117-6.5369-83.906-.8838-3.8771-1.8394-6.8976-2.73-10.8737Z"/>
    <polygon points="144.381 287.321 112.748 318.002 112.748 643.212 280.466 620.31 144.381 287.321"/>
  </g>
</svg>
