<svg id="Calque_1" data-name="Calque 1" xmlns="http://www.w3.org/2000/svg" width="30cm" height="33.4cm" viewBox="0 0 850.3937 946.7717">
  <g>
    <path d="M302.6389,930.1646H547.7664a13.7476,13.7476,0,0,0,12.6827-7.6309,16.3635,16.3635,0,0,0-2.2444-16.9924c-21.7745-28.2791-44.8082-32.1028-65.13-35.4756-9.9878-1.6587-19.42-3.2237-27.7345-7.7758-19.4057-10.6261-27.2182-40.0214-29.4238-50.4109V548.9459a114.187,114.187,0,0,1,14.1526-55.1731q1.4953-2.7072,3.03-5.3049a101.5262,101.5262,0,0,1-27.11,3.7033.2521.2521,0,0,0-.0694,0,102.8243,102.8243,0,0,1-28.4258-4.0562q1.8239,3.0339,3.489,6.0108a114.3888,114.3888,0,0,1,14.5314,55.8607V811.2331c-2.2812,9.9834-10.667,40.2194-30.46,51.0576-8.3144,4.5519-17.7511,6.1211-27.7345,7.7757-20.3219,3.3728-43.355,7.1964-65.13,35.4777a16.3593,16.3593,0,0,0-2.2444,16.99,13.7478,13.7478,0,0,0,12.6951,7.6308Z"/>
    <path d="M520.487,33.5354c-6.1537-6.5863-44.7161-16.934-97.8038-16.934S331.5138,27.0492,325.36,33.6374c6.1537,6.5883,44.2356,17.0522,97.3231,17.0522S514.3327,40.1318,520.487,33.5354Z"/>
    <path d="M425.933,496.2478h.0552c28.6668,0,55.1894-15.0844,70.9633-40.3587,35.88-57.491,51.1556-143.4182,45.4018-255.3945A1144.6079,1144.6079,0,0,0,520.487,33.5354a100.8675,100.8675,0,0,1-21.8318,8.1286c-20.4035,5.3581-47.3361,8.3125-75.8418,8.3125s-55.4425-2.9544-75.8255-8.3165A101.3235,101.3235,0,0,1,325.36,33.6374a1129.8466,1129.8466,0,0,0-17.6571,165.8354c-3.2095,110.0157,13.17,198.7483,47.3646,256.6107A82.5284,82.5284,0,0,0,425.933,496.2478ZM331.1144,151.086a10.2027,10.2027,0,0,1,20.377,1.0761l-.0019.0358h0c-.4612,8.4124-.3387,12.6869-.1857,18.0964.0938,3.3033.2041,7.0494.2041,12.2877a10.2018,10.2018,0,0,1-20.4036,0h0c0-4.9478-.102-8.5409-.1917-11.7095-.1633-5.65-.3023-10.5266.202-19.7852ZM351.6955,354.56a10.2015,10.2015,0,0,1-9.9746-8.1164c-9.3062-44.52-13.6413-85.685-12.8911-122.3516a10.2039,10.2039,0,0,1,20.4036.4183h0c-.72,35.1267,3.4685,74.7461,12.4624,117.7587a10.2109,10.2109,0,0,1-9.9977,12.291Z"/>
    <polygon points="323.055 124.714 321.318 205.285 324.791 288.288 332.779 347.328 353.964 377.89 374.108 354.56 357.784 214.097 363.689 156.664 359.868 131.312 323.055 124.714"/>
  </g>
</svg>
