<svg id="Calque_1" data-name="Calque 1" xmlns="http://www.w3.org/2000/svg" width="30cm" height="33.4cm" viewBox="0 0 850.3937 946.7717">
  <g id="LkW7Tg.tif">
    <path d="M149.0848,814.1369q22.5582-44.3886,45.1163-88.8778c4.3263-8.4838,4.3263-8.5849-4.2231-12.7257q-81.58-39.8435-163.1606-79.7881c-9.2706-4.5449-9.3736-4.7468-4.7383-13.7356C33.41,596.79,44.6373,574.57,55.9678,552.3513c4.12-8.1808,4.9443-8.3827,13.1848-4.3429,11.8456,5.7569,23.6912,11.6148,36.0519,16.3617,17.6139,6.7668,30.1806,2.8279,40.1721-13.0288,5.9743-9.4937,11.1245-19.3915,16.1718-29.2892Q242.82,362.3749,323.988,202.6976c4.7383-9.2918,8.9615-18.786,13.0816-28.38,6.4893-15.0487,1.2361-29.5923-12.9786-38.48a337.3471,337.3471,0,0,0-36.979-19.3914c-5.6654-2.626-6.6954-5.656-3.8112-11.0088q18.0774-34.8441,35.5369-69.7893c2.9871-6.06,6.2833-6.2619,11.9485-3.4336q81.7348,40.2981,163.6756,80.1921c9.2706,4.5448,9.2706,4.5448,13.9058-4.545,13.7-26.8653,27.5025-53.63,40.8932-80.6971,3.1931-6.3627,6.2833-7.3727,12.7727-4.1408q35.0734,17.7241,70.5588,34.5406c6.7984,3.2319,7.21,6.3628,4.0173,12.5236-14.1117,27.1684-27.7085,54.64-41.9233,81.7071-3.1931,6.1609-2.06,8.9885,4.2232,11.8167,12.4637,5.6559,24.6183,11.9177,36.979,17.8765,8.6525,4.242,8.7555,4.242,12.8757-4.04,13.4942-26.4613,26.8843-52.9227,40.3781-79.3841,5.2533-10.2008,5.2533-10.2008,15.9658-4.9489,22.2488,10.9077,44.4985,21.7145,66.6446,32.6223,9.7856,4.7468,9.7856,4.8478,5.0473,14.14-14.3178,28.1784-28.4294,56.3567-43.0562,84.3331-3.2962,6.2618-2.06,9.5948,3.7082,13.2311,37.7,24.0375,67.0565,55.1446,83.9494,96.5537a135.4542,135.4542,0,0,1,9.4765,61.81c-3.5018,47.7718-25.6484,85.545-65.8206,112.7133-29.15,19.5935-62.0092,27.4713-97.134,27.4713-10.1976,0-20.3951-1.1109-31.1077-.404,8.6525,8.2818,17.408,16.5637,25.9574,24.9465,18.85,18.7855,33.6828,40.298,41.7172,65.5474,10.3006,32.2182,10.4035,64.5377-.9271,96.7556-22.1462,63.3255-68.2926,99.8866-133.4951,114.1272-44.7043,9.7968-88.6877,3.4336-131.538-11.11-6.9014-2.3229-10.3006-1.5149-13.5967,5.1509-15.76,31.6122-32.0347,63.1234-48.1035,94.5337q-43.4169-21.21-86.7311-42.419c1.236-2.8279,2.4721-5.6558,3.8112-8.3827,13.7-27.0674,27.2965-54.2358,41.4083-81.1011,3.3991-6.5648,2.1635-9.3931-4.4292-12.2206-11.2277-4.9489-22.0433-10.7053-33.0648-15.9577-13.5967-6.5648-11.4336-7.3728-18.232,5.7569q-21.94,42.7224-43.9833,85.444C206.8709,842.4162,177.9263,828.2766,149.0848,814.1369Zm190.251-266.7344c.103,0,.103.1009.2061.1009-8.55,16.6648-17.2019,33.3295-25.4423,50.1959-4.7383,9.7967-10.61,19.0886-13.3908,29.7943-2.6782,10.2007-.206,15.3516,8.7554,20.8054,21.8373,13.13,45.013,23.7343,68.087,34.4405,19.1589,8.8877,38.627,16.8666,59.7427,21.0075,67.2625,13.0287,121.1343-44.6409,114.7481-102.5126-2.9873-26.9663-20.1891-45.8529-41.4083-61.5075-12.5667-9.2918-26.4725-16.26-40.1722-23.8354-28.4294-15.6546-58.095-28.6833-87.04-43.3279-3.3991-1.7168-5.5623-1.212-7.4162,2.5248-12.0515,24.1381-24.4123,48.1755-36.67,72.3139ZM461.0883,308.6441c-10.9182,21.3105-21.5282,42.823-32.7558,64.0325-3.3991,6.4639-2.06,9.4938,4.4293,12.4227,15.4508,7.07,30.7986,14.6446,45.94,22.4214,24.6184,12.5237,49.9577,23.33,76.6361,31.1073,38.936,11.3117,72.0007,2.02,93.3229-27.4714,20.4979-28.4813,21.8372-63.9315-3.09-90.6958-15.5538-16.5636-35.33-27.6733-55.211-38.0761-27.8113-14.5434-56.4469-27.7745-84.5676-41.914-6.2833-3.1308-9.1671-2.02-12.1546,4.04C483.0284,266.0231,472.0068,287.3337,461.0883,308.6441Z" fill="#010101"/>
  </g>
</svg>
