<svg id="Calque_1" data-name="Calque 1" xmlns="http://www.w3.org/2000/svg" width="30cm" height="33.4cm" viewBox="0 0 850.3937 946.7717">
  <g>
    <g>
      <polygon points="425.751 351.969 425.751 11.606 713.533 480.652 425.751 351.969" fill="#010101"/>
      <path d="M426.3666,13.6986l285.5651,465.598L426.3666,351.5989v-337.9m-1.2314-4.31v343.072L715.1334,482.0057,425.1352,9.3887Z" fill="#010101"/>
    </g>
    <g>
      <polygon points="424.52 11.606 424.52 351.969 136.738 480.652 424.52 11.606" fill="#010101"/>
      <path d="M423.9038,13.6986v337.9L138.3386,479.2966,423.9038,13.6986m1.2314-4.31L135.137,482.0057,425.1352,352.4609V9.3886Z" fill="#010101"/>
    </g>
    <g>
      <polygon points="425.751 704.646 713.163 537.912 425.751 935.536 425.751 704.646" fill="#010101"/>
      <path d="M710.9466,540.0054,426.49,933.6887V705.015l284.4569-165.01Zm4.31-4.0641L425.1352,704.2762V937.383L715.2565,535.9417Z" fill="#010101"/>
    </g>
    <g>
      <polygon points="137.354 537.912 424.52 704.646 424.52 935.536 137.354 537.912" fill="#010101"/>
      <path d="M139.57,540.0054l284.3337,165.01V933.6887L139.57,540.0054m-4.433-4.0637L425.1352,937.383V704.2762L135.137,535.9417Z" fill="#010101"/>
    </g>
    <g>
      <polygon points="425.751 353.446 713.779 482.006 425.751 649.232 425.751 353.446" fill="#010101"/>
      <path d="M426.3666,354.4311,712.4243,482.1289,426.3666,648.2469V354.4311m-1.2314-1.97V650.34L715.1334,482.0057,425.1352,352.4609Z" fill="#010101"/>
    </g>
    <g>
      <polygon points="136.492 482.006 424.52 353.446 424.52 649.232 136.492 482.006" fill="#010101"/>
      <path d="M423.9038,354.4311V648.2469L137.8461,482.1289,423.9038,354.4311m1.2314-1.97L135.137,482.0057,425.1352,650.34V352.4611Z" fill="#010101"/>
    </g>
  </g>
</svg>
