<svg id="Calque_1" data-name="Calque 1" xmlns="http://www.w3.org/2000/svg" width="30cm" height="33.4cm" viewBox="0 0 850.3937 946.7717">
  <path d="M819.0931,434.357,442.7888,73.6521a25.4168,25.4168,0,0,0-35.184,0L30.9279,434.7294a42.9654,42.9654,0,0,0-12.5452,30.1738,42.4377,42.4377,0,0,0,42.3785,42.3783h59.3249V812.3933a67.7841,67.7841,0,0,0,67.77,67.7982H662.503a67.7841,67.7841,0,0,0,67.8046-67.7637V507.2825h59.3249a42.4377,42.4377,0,0,0,42.3785-42.3783A43.2811,43.2811,0,0,0,819.0931,434.357Z" fill="#010101"/>
</svg>
