<svg id="Calque_1" data-name="Calque 1" xmlns="http://www.w3.org/2000/svg" width="30cm" height="33.4cm" viewBox="0 0 850.3937 946.7717">
  <path d="M649.0857,746.453c-1.1381-59.2187-37.5655-111.0955-92.9127-142.9295-18.85-22.261-12.4137-45.0729-5.46-58.4763a119.452,119.452,0,0,0,13.9219-21.5564c25.0309-50.0038,12.7867-115.0753-15.1992-120.8254-18.7-3.8468-32.5438-3.0045-42.7619,29.1979l-.01.01.0023.0341q-1.76,5.4975-3.3493,12.26c-4.1154,11.2772-12.6525,26.1408-28.9231,25.5543-16.501-.5948-26.9735-18.8112-32.4508-32.1529l-5.7576-213.5909.0811-.0016c-.0425-.4028-.0687-.7913-.1064-1.1921l-.1567-5.6384c.6306-18.5344,11.7662-33.4,25.8447-33.67.6321-.0156,1.2208.1726,1.849.2173-.6652-1.4639-1.3151-2.98-1.9323-4.5636-6.4343-16.2575-10.63-38.12-11.1038-62.3266a191.42,191.42,0,0,1,7.1972-58.3036c.4716-1.541.9954-2.9613,1.4944-4.412l-.2076-10.755A29.6856,29.6856,0,0,1,448.96,28.01s-21.1287-3.0351-29.872-10.1834c-4.6177-3.77-8.1288-2.1574-10.4521.2035a17.3783,17.3783,0,0,0-3.2144,4.7952,17.3792,17.3792,0,0,0-3.3981-4.6668c-2.4148-2.2565-5.9983-3.7466-10.4552.2-8.4551,7.4729-29.4572,11.307-29.4572,11.307a29.525,29.525,0,0,1-9.5974,15.704l.2061,10.7569c.5748,1.4235,1.142,2.8264,1.6753,4.3448a191.0645,191.0645,0,0,1,9.4207,57.99c.4588,24.1956-2.8915,46.2237-8.7,62.7077q-.8466,2.3967-1.7611,4.63c.6278-.0705,1.2074-.27,1.846-.2819,12.7337-.2471,23.5651,11.5105,26.5212,27.436l5.986,222.13c-3.8261,14.7844-13.1953,39.6854-32.6909,36.6126-21.9672-3.4664-31.8807-24.3067-34.9895-32.58-.3731-1.1161-.738-2.2277-1.1116-3.2782-.01-.0258-.033-.1209-.033-.1209l-.0194.0036c-11.4717-32.0265-25.3651-32.3261-43.9429-27.7682-27.75,6.823-37.4714,72.3111-10.5561,121.3257a119.72,119.72,0,0,0,7.1738,11.33l-.0562.0253s.2469.2887.65.7753c1.1393,1.5895,2.2449,3.2074,3.4364,4.7228,8.8968,13.3046,26.422,48.4925-10.4587,79.5553l.0084.0079c-40.2924,33.4706-64.76,79.263-63.8107,129.3491,1.9106,99.6188,103.6962,178.4708,227.35,176.0967C552.31,928.7539,650.9892,846.0752,649.0857,746.453Z" fill="#020303"/>
</svg>
