<svg id="Calque_1" data-name="Calque 1" xmlns="http://www.w3.org/2000/svg" width="30cm" height="33.4cm" viewBox="0 0 850.3937 946.7717">
  <g>
    <path d="M712.6144,258.1322a29.0423,29.0423,0,0,1-.3969-3.8892c.28.5765.4551.774-.1131-.42a3.04,3.04,0,0,0-.5551-1.28c-.0186-.0068-.0432-.007-.043-.0208-.3206-.69-.7622-1.6057-1.3174-2.774-4.9-10.0464-4.0509-11.7146-6.2566-11.4476a26.5353,26.5353,0,0,1-6.41.2209c-1.9334-.3091-1.4-1.412-3.34-1.4319l-5.8262-.0619s-.5623,1.102-2.7716-.8517c-2.2136-1.98-3.3011-2.84-3.8361-4.7963-.5605-1.9421-1.0723-5.2844-3.0037-6.4251a25.4638,25.4638,0,0,0-4.99-1.9946c-.8218-.291-1.6354-1.9729-3.6005-2.8447-1.9243-.8288-4.1014-3.9213-4.94-4.1847-.8332-.2874-2.7615-2-4.1431-2.8293-1.3813-.8517-4.4224-2.5769-5.24-3.1387-.8287-.5684-5.3045.497-5.8457-.6216-.5382-1.1055-1.3817-1.1145-3.0442-1.6836-1.6567-.578-3.2967-1.709-5.8229-.8848-2.5049.7966-2.78-.3135-5.3163,1.3184-2.5105,1.6328-2.4961.2656-4.9943,1.0468-2.533.8232-1.9406-.56-4.4553-.8548-2.4876-.3184-3.3011-3.3891-6.0881-2.858-2.7669.5238-3.0454-.3089-4.1578-.6047-1.1066-.2749-.5293-2.2294-3.5945-3.0864-3.04-.8693-2.1765-2.7954-4.7108-.8872-2.5242,1.9231.5678.006-2.5242,1.9231a15.3717,15.3717,0,0,1-6.1343,2.1542c-2.777-.3134-.82-2.2278-2.777-.3134-1.9663,1.9291.8047,2.8078-1.9782,3.0412-2.7752.2624-3.344-.8709-1.643-3.6326,1.7106-2.7534,1.8458-2.7315,1.7224-3.8792-.5181-4.7342-1.0838-4.1871-2.9935-6.1491-1.9322-1.9618-2.7749-1.1412-4.1592-1.6953-1.362-.5814-3.878-.608-4.7119-1.7152-.8227-1.15-1.9283-.6013-2.7634-1.71a4.3261,4.3261,0,0,0-4.4521-1.1519c-1.3707.53-3.5782-1.7185-4.703-1.44-1.1084.2568-2.1881-2.554-3.5987-1.9946-1.3714.5249-1.3392-2.51-3.0231-1.98-1.6676.5478-1.079-2.508-2.7631-2.2492-1.6614.2374-1.94-.5873-3.32.7882-1.4328,1.3814-.85-.8322-2.2461-.302-1.3995.5522-3.0405-1.4209-4.467.2308-1.39,1.6707-1.366-.5831-2.7865,2.2092a26.9057,26.9057,0,0,1-3.3854,5.521c-2.5473,3.3189-2.5326,1.9287-5.3421,4.367-2.785,2.4859-1.6627.3-2.785,2.4859-1.1485,2.2273-.8806,1.1181-2.5448,2.4891-1.6709,1.3791-1.3842-.5671-1.6709,1.3791l-.3353,1.9325s.64-5.5574-1.8752-4.7412a47.4079,47.4079,0,0,1-5.5995,1.3291s-2.745-2.82-3.8412-2.8317c-1.1121-.0118-1.1291-.4786-2.76-1.9523-2.7568-2.5567,4.4428.58,5.8354.318,1.3926-.2413-.2782-.003,3.5954-.2179,3.9236-.2758,4.73.05,6.7041-.2464,1.9393-.2415,6.4051-2.6751,6.4051-2.6751a4.8458,4.8458,0,0,0,1.1517-2.5047,16.2677,16.2677,0,0,1,.86-3.6061,31.303,31.303,0,0,0,.89-4.7251c.3017-1.3714,1.7035-3.32-.8048-3.347-2.4809-.0262-5.81.5055-7.1983.2125-1.412-.3038-1.9368-1.1326-3.9044-.33-1.9553.8165-1.9464-.0206-5.8461-.8851-3.8767-.883-1.6232-3.3558-4.9925-.6182-3.3747,2.7431-5.0372,3.0143-5.0482,4.1081-.0117,1.1323,1.1371-.258,1.3576,3.0765.2338,3.353.2044,6.1317-.8989,5.8434-1.1-.28-2.4715-1.9753-2.1973-2.5256.2834-.57-1.5323-1.7494-1.9229-2.7916-1.6028-4.4677-3.0239-4.1923-1.8812-5.8673,1.1545-1.6808.8362-1.3815,2.275-3.3285,1.4081-1.9268-1.4063-1.113,2.519-2.7383,3.9227-1.6291,3.92-1.3544,5.871-2.7108,1.9648-1.3938,2.7961-1.3851,3.6628-3.0215.83-1.6619-.545-2.2454.8569-4.1861,1.4132-1.9334,2.1947,3.9279,1.132-3.0364a16.9465,16.9465,0,0,1-.2118-4.1761,2.8984,2.8984,0,0,0-1.3607-2.8017c-.8317-.2835-3.3136-2.5161-4.1448-2.5248-.8215-.0086-2.4694-2.2657-3.5751-1.9936-1.1371.2524-.8223-2.2492-1.0987-3.35-.2656-1.1082.3175-2.7819.3323-4.172.0146-1.3827.8755-2.7817-1.0746-4.7525-1.9251-1.9554-.7985-3.34-1.89-5.2864-1.1041-1.9811,1.1239-1.1074-1.0746-4.7663-2.1617-3.61-4.954-3.0874-4.954-3.0874s-.4772-.7793-1.15-1.7385a18.0215,18.0215,0,0,0-3.2559-3.8511c-1.3566-.87-5.7668-5.0788-7.4388-5.6758-1.6526-.5648-3.0345-1.4345-4.9968-2.2663-1.9278-.8428-2.17-3.0638-4.6657-2.5582-2.5231.52-.8231-2.2418-3.0739-2.2655-2.2-.0235-1.0858-1.6494-2.7415-1.3958-1.6619.2434-1.1073-1.9633-2.7875-1.711a3.7391,3.7391,0,0,1-.7109.0331c-1.5869-.117-3.6282-1.0769-4.8311-.3623-1.3987.8082-1.1-.0118-3.3364.7878-2.2427.8337-3.3409-2.2391-5.0026-1.1789-1.6583,1.1083.5623-.5267-3.0585-.5652-3.626-.0385-4.1646-.8795-6.0955-.0645-1.9822.8145-1.4411,2.1907-2.5408,2.4891-1.1058.2592-.24-2.7812-3.6083-1.1707-3.3542,1.6289-2.79.5361-4.4757,1.356a1.0593,1.0593,0,0,1-1.609-.3776,4.0692,4.0692,0,0,0-1.1572-1.3333c-3.294-1.9759-3.563-3.0775-4.9266-5.0482-1.3759-1.9653-7.4548-5.915-7.72-5.66-.3116.3069-.2966-1.1151-2.2431-.8274-1.94.2366-4.6972,1.4817-4.9836-.361a44.5108,44.5108,0,0,1-.5328-4.4524c-.2458-2.2127-1.63-2.7871-2.4242-4.186-.8189-1.3972-.283-2.774-2.48-3.3385-2.2268-.6037-2.774-.8991-3.603-2.304a6.4465,6.4465,0,0,0-3.8591-2.5283,22.1529,22.1529,0,0,1-3.0326-1.63,2.578,2.578,0,0,0-1.13-.3488c-1.1128-.0119-.5167-1.6806-2.1913-2.5543-1.6693-.8392-2.1945-2.7939-4.685-2.82-2.5053-.0263-4.0343-.9482-5.5669-.0588-4.7558,2.72-6.4393,2.9929-5.575,1.33a11.1068,11.1068,0,0,1,2.2409-3.5924,30.3527,30.3527,0,0,0,3.1209-4.4295c-3.0416-3.0819-2.4491-4.4661-4.13-4.4838-1.656-.0175-1.6442-1.1294-3.8833-.33-2.2337.8338-2.4991.2624-3.0341-1.16-.5544-1.339.5788-2.7365-.2584-3.0364-.8284-.2642-2.5041,1.3636-4.1965,2.4579-1.6869,1.1078-3.6269.7978-3.9086-.0414a20.8377,20.8377,0,0,1-.2243-3.6112s-4.2033,2.4519-4.7514.5232c-.5161-1.9678-.5072-2.8115.3538-3.9085.8455-1.1046-4.7719,1.8993.8455-1.1046a54.1828,54.1828,0,0,0,4.7608-2.9152c-2.774-.2594-6.6463-.8136-6.9772-.1686-.568,1.1069-4.4541,1.356-5.842,1.0509-1.387-.2773-.8342-1.1217-4.17-.3069-3.3364.788-2.463-2.5414-6.7092,1.5744l-4.1934,4.1435s-4.9964-1.1448-6.6793-.63c-1.6642.5412-2.4867-.87-5.5266-1.4471-3.0655-.5939-1.1075-1.6869-3.6006-2.5552-2.5-.8415-1.0709-3.3416-3.5976-2.2564s-1.9452,1.0923-5.0163,1.06c-3.049-.0323,2.2478-2.2011-4.7325-.05-6.975,2.1582-5.3183,4.4217-8.9147,2.1376-3.5914-2.27-1.37-1.9563-3.5914-2.27-.6248-.0941-.8962.0516-1.0214.2388a.5615.5615,0,0,1-.0782-.25,19.0419,19.0419,0,0,0-3.024-4.7461s.8755-3.6132-1.62-3.64c-2.4931-.0265-6.1327-1.1771-8.067-1.1976-1.9493-.0206-2.7685-1.4316-4.1314-1.71-1.412-.29-.297-1.6806-1.3793-3.3532-1.0883-1.6833,1.147-4.4383-1.6089-4.7514-2.7772-.3182-3.0292-3.0864-5.0042-.3418C275.692,21.2707,274,23.4908,273.72,25.1488c-.3114,1.6744,3.04.5846-.3263,3.0642-3.3654,2.4594-5.2908,1.6173-8.379,2.9511-3.0635,1.3709-3.6074,1.6427-4.2056,3.2941a5.9167,5.9167,0,0,0-.3107,3.9039c.2455,2.2413,4.9726,2.5533,4.9373,5.8915s1.088,1.1179.7687,5.8433c-.3373,4.7234,2.7419,3.9328-.355,6.394-3.0727,2.4724-3.8736.7971-5.5455.2318-1.6744-.583-4.6609-5.3231-4.927-7.3075-.2455-1.9324-3.322-.569.9075-5.81,4.2141-5.243,1.5287-13.6211,1.2528-14.4479-.26-.7982-2.0968-.36-1.9207-2.3464.0008-.0742-.0249-.1072.0018-.1763.3106-2.2215-.2644-2.7741,1.9743-2.7506,2.2242.0236,4.7118.5965,5.8453-.5052,1.1174-1.1262,3.6584-3.0215,2.8057-4.158-.7975-1.12.8527,1.1365.8527,1.1365a3.2966,3.2966,0,0,0,1.9377.31c.849-.2806.2741-.8538.0238-2.2523-.2546-1.3774.3-3.3216-2.2109-3.6123a18.1321,18.1321,0,0,0-5.5425-.0589c-3.0739.258-3.6175.2259-6.1277,1.5881a10.7924,10.7924,0,0,0-4.8021,4.38c-.5678,1.3842-.2834,1.96-3.3718,3.6064a20.0846,20.0846,0,0,0-4.7525,2.9977c-2.5137,1.9289.2761,1.6818-2.5137,1.9289-2.7836.2554.8284.8387-2.7836.2554-3.608-.6-3.0474-2.5491-5.5516-1.4558-2.5047,1.0855,2.5394-4.4109-2.5047,1.0855-5.0758,5.5048-1.13,3.0427-5.5964,3.2727-4.467.2432-5.8508-.0618-7.5223,1.0472-1.6954,1.0818-2.26,3.0258-3.9361,4.6715-1.6859,1.6424-.2939-.8385-.866,3.3229-.6247,4.1745.1639,8.36-1.5,9.9989-1.6982,1.6626-1.4078,1.6656-3.0884,1.6478-1.6836-.0178-1.916-1.971-3.8986,1.0578-1.9756,3.041-3.1353,6.0906-4.8245,7.185-1.6619,1.0822-1.3745.2624-2.7886,2.4849-1.4138,2.1992-.5886,1.93-1.4285,3.5952-.24.4485-.5058.5462-.8211.4906-.8418,3.0709-3.13,5.598-6.94,5.3006.923,2.7608-1.5064,4.5773-3.7038,6.0643,1.2852,1.2079,2.2742,2.0946,2.2742,2.0946s-.2964.2726-.3066,1.2246c-.01.9781.2892.4337.8194,1.9709.5615,1.537,2.2146,1.8166,2.0654,2.8088-.1624.9537,1.3784,1.1128.6559,2.7825a6.8884,6.8884,0,0,0-.3035,3.6136c-.01.9755.5123,3.889.5,4.9942-.0125,1.1341-1.5532,2.2167-1.4315,3.9044.1214,1.6347.5482.6854,1.2276,2.5014.6758,1.8152,1.6244,2.649,1.4853,3.887-.15,1.2794.1,2.53-.1792,4.044a41.1159,41.1159,0,0,1-.461,4.17,10.35,10.35,0,0,0,.9093,5.7363c.5524.6927,1.5427-.6992.2529,1.5332a16.604,16.604,0,0,1-2.8209,3.4294,23.4651,23.4651,0,0,0-1.5446,2.6345,13.1722,13.1722,0,0,0-1.4168,2.4955c-.5716,1.22-.4313,1.37-1.7026,2.0777-1.25.6542-.2551-.7238-1.25.6542-.9871,1.387,1.1405.0125-.9871,1.387-2.1031,1.3661-3.2023.3911-4.1868.9068-.9674.569-.6944.1412-1.8109.56-1.1069.3791-3.343,1.213-3.3613,2.8723a20.8439,20.8439,0,0,1-.7267,4.4428c-.3072,1.2711-.173.8474-.8481.9682-.718.141-.3276,1.5143-.598,1.93a8.5473,8.5473,0,0,0-.9722,1.959,2.6085,2.6085,0,0,0-.1616.6934c-.1479,1.0966.9446,2.1077.8062,2.9082-.136.8421-1.2724.83-2.2359.82-.9707-.01-1.8144-.5518-2.7793-.1657a25.5717,25.5717,0,0,0-3.7721,1.9176c-.4211.3946-.4241.6834-1.1391,1.0961-.6873.4039-2.78-.03-3.3442.3757-.5454.4248-.4107-.5852-1.518.4147-1.113.9518-1.396.2624-1.4109,1.6583-.0143,1.362-.8687,2.0541.1174,3.1636.9613,1.1427.6711,1.4235.95,2.2553.26.8248.6813.1346.54,1.5176-.179,1.4005.5459-.2651-1.4065,1.5214-1.969,1.7928-3.0732,2.2077-3.3951,3.1811-.2671.9557-.0087.823.1375,2.0728a8.3251,8.3251,0,0,1,.1249,2.5158c-.1653,1.2808-.05,4.7209-.6261,5.41a20.35,20.35,0,0,0-2.69,3.4519c-.8622,1.5353-.8521.5564-.87,2.2165-.0174,1.6576,1.2481,1.3945.4,2.774-.84,1.3945-1.6581-.1441-.84,1.3945.8085,1.5463,3.4473,1.8314,2.6052,2.53-.8294.6659-.9791.55-1.2561,1.3753-.2874.834-.4288,1.1034.799,2.1126,1.2446.9662,3.0407.8432,3.024,2.3736a2.9667,2.9667,0,0,0,1.254,2.3866s1.9329.9858,2.4912-.1082c.5708-1.1058,1.2845-1.9493,1.8441-3.1842.57-1.2481,1.8216-4.5137,2.1352-3.8611.8082,1.646-.9043,6.6476-.9043,6.6476s1.3689.0144.3735,2.1015c-.9988,2.0868-4.4848,4.5458-4.4848,4.5458a.8406.8406,0,0,0-.1547.0506c-.3951.2537-1.6455.982-2.219,1.455-.71.5373-1.9514.5242-3.2114,1.631-1.2786,1.0913.1293-.5657-2.1273,1.3455-2.2233,1.9266-3.2022,2.4694-3.7845,3.4406a36.9474,36.9474,0,0,0-1.5576,5.0018,17.0558,17.0558,0,0,0-1.312,3.4462c-.1407,1.2591-.1229-.42-.0237,2.232.0981,2.6722.1058,1.951.9336,3.76.8178,1.8158.2834,1.81,1.6378,2.8084,1.3839.9863,1.8262-.2573,2.3507,1.832.5344,2.0838,1.0809,1.543.8112,3.0568-.3033,1.5151.8218,1.1362-.722,2.2188-1.5524,1.0833-1.27-.29-1.5524,1.0833-.2776,1.3915.2591.8644-.0222,2.104-.2761,1.2438,1.2539,1.1268,2.882,2.95a8.6774,8.6774,0,0,0,4.84,2.4116,2.8,2.8,0,0,1,1.4007.1575c.7078.2833,2.7805.3053,2.6466,1.0136-.1713.7055,1.4978,2.0907,2.1685,2.9349.7017.8306,2.6427,1.6946,2.6308,2.8067a5.3411,5.3411,0,0,0,.3889,2.6475,30.0056,30.0056,0,0,1,1.7732,3.2088c-.0046.4324,2.0578,1.4382,2.0433,2.807-.015,1.41,2.3152,5.1906,2.5925,5.8805a3.9152,3.9152,0,0,0,.7928,1.8049,11.1333,11.1333,0,0,1,1.6542,2.8022,7.0521,7.0521,0,0,0,1.3934,2.0838c.52.7072,1.0893.9913,1.5034,1.5612.42.5641,1.3809.5742,1.9271,1.5386.5363.9823,1.7979.8732,1.9081,2.4074.1266,1.532.9715,2.7819,1.2152,4.5851.25,1.809.8158,2.0933,1.7527,5.4554a72.1044,72.1044,0,0,0,2.8352,7.3878c.543,1.5619.5521.6927,1.0921,1.96a45.3348,45.3348,0,0,0,3.4131,5.8827c.9633,1.2594,2.3551,1.1239,2.7539,2.8088a35.11,35.11,0,0,0,1.32,4.5927,24.1924,24.1924,0,0,0,2.3465,3.6319c.4123.7149.9735.2885,2.0431,2.8151,1.0764,2.5275-.148,2.366,1.7714,4.6109,1.9165,2.2458,3.3094,1.9923,3.4447,3.7813.12,1.8067,1.0786,3.2136,1.3164,4.3347.2542,1.1164,1.2579.56.8188,2.6528-.4266,2.0736-1.1213,2.3428-1.2828,3.87-.14,1.5437-.4475,1.1236.12,2.3575.502,1.2781.8169,1.2815,2.0617,2.5372l4.8273,3.9346a4.8013,4.8013,0,0,0,.7892,3.913c1.3764,1.6881,1.9219.02,2.4719,1.6994.53,1.6707,4.1662,1.1424,4.42,2.0025.272.8259,2.2067,1.9511,2.1948,3.0646-.0125,1.1268,1.3479,2.0182,2.2014,2.54,3.3219,1.9565,5.0045,1.1513,6.0958,2.5513,1.1066,1.4428,7.4424,6.4795,9.1108,6.7875,1.6494.2736,2.4721,1.6979,4.1468,2.2485,1.6494.586,3.0824-1.0656,4.433.3577,1.382,1.3844,3.3074,2.2411,4.1446,3.0856.8247.818,1.9527.5748,3.0614,1.16,1.0973.5511,2.4866.2874,3.3191.8569.84.55,3.04.8622,4.9656,3.6539a45.6524,45.6524,0,0,1,3.5465,5.63,11.1062,11.1062,0,0,0,4.9456,5.8718c3.5884,2.817.0207-1.9481,3.5884,2.817.5723.742,1.0267,1.3456,1.4387,1.8222,2.2706,2.6945,2.6123,2.2477,2.1415,2.9509a6.8926,6.8926,0,0,0-.6339,4.9971c.5605,1.9412.793,5.004,1.0564,6.4093.2757,1.3939.5268,2.7925.8059,3.88a7.3016,7.3016,0,0,1-.0385,3.6286,26.4472,26.4472,0,0,0-.6038,4.4719c-.0205,1.9155-.3076,1.6235.5182,3.6.7886,1.9583.8182-.8406,1.62,3.3436.79,4.1823,1.0621,4.7523.21,6.6915a29.9649,29.9649,0,0,0-1.9835,4.411c-1.1811,5.2815-1.4289,3.6333-1.464,6.9519-.0354,3.35,1.9629-2.7645-.3407,4.7374-2.3072,7.4734-2.2833,5.2357-2.3072,7.4734.4825,6.129.4374,6.8032.4649,7.7881.2285,5.8434-1.0247,20.29-2.4475,22.7892-1.4142,2.4742-2.523,3.023-2.5492,5.5256-.0265,2.4947,1.9019,3.0658.7508,5.8407-1.1325,2.7677-.2923,2.2356-1.1621,5.5723a28.0448,28.0448,0,0,0-.86,3.3089c-.897,3.8743-.34,3.88-1.2167,6.6626a23.7225,23.7225,0,0,0-.8631,2.7764c-1.4188,4.97-.8365,1.3812-1.7274,6.3828-.8871,4.9944,1.0853,1.6767-.8871,4.9944-.4529.7784-.6713.8969-.7842.7747-.0249.0862-.0265.1809-.0522.3089-1.1679,6.117-.9,6.12-.0946,8.9138.7952,2.7956,2.4818,1.4164,1.3433,4.743-1.16,3.32-1.6777,4.0419-2.2867,5.5539l-1.7215,4.1425c.2047,7.7848-1.7868,10.8109-1.2444,13.3453.517,2.4939-.0559,5.2731-.0823,7.7622-.0265,2.4963,1.0733,2.8105,1.0468,5.3126-.0263,2.4946.8046,3.07.2314,5.2622-.58,2.2326-.87,2.23-1.7085,4.7156a25.426,25.426,0,0,1-2.3052,5.27c-.8215,1.387.8429-.5565-.0263,2.4962-.8393,3.0532-1.9542,3.3186-3.38,6.0734-1.4384,2.77-1.68,1.3725-1.7094,4.1778-.0293,2.7589,1.6475,1.6761,1.047,5.2849-.6,3.6022-1.423,2.4921-2.8455,5.5266a53.6525,53.6525,0,0,1-3.96,7.2154c-1.1264,1.6556-.0294,2.7711-1.1736,6.0978-1.1658,3.314-.0352,3.3259-1.4773,5.5356-1.3924,2.2117-1.9425.5248-2.8158,3.0114-.8358,2.5055-1.2329,2.6514-2.8029,4.44-5.0724,5.7935-3.6791,5.8082-3.72,9.6931-.0414,3.905-.29,1.117.4975,5.5758.79,4.4533-1.4113,1.3558.79,4.4533a10.8289,10.8289,0,0,1,2.1617,5.85c.2542,1.1165.4944,5.8658.4944,5.8658a6.2463,6.2463,0,0,1,.5238,2.7695c-.2962.8478.2532.2865-1.4195,2.758-1.7073,2.5117-1.1156.2723-1.7073,2.5117l-.5674,2.1984a9.1091,9.1091,0,0,1-.6174,5.8327,24.8278,24.8278,0,0,1-2.5683,4.7016c-1.6852,2.4991-1.6619.2654-1.6852,2.4991-.0235,2.2181-.0413,3.8831.7809,5.2886a12.8827,12.8827,0,0,0,2.4729,3.074,7.12,7.12,0,0,0,3.044,1.71c3.3185,1.4181,3.5747,1.4209,4.9982.62,1.3778-.8412,1.39-1.9546,3.618-.8176,2.2127,1.1558,3.8675.8968,2.4822,2.8115-1.412,1.9268-3.9971.1527-3.0948,2.4825,1.07,2.79,2.219,1.3995,1.6331,4.1791-.6073,2.799.5447,1.1246-.6073,2.799-1.117,1.6338-.2765,1.933-.0352,3.3227.2759,1.387-2.2173,1.3611-2.2319,2.749a20.2766,20.2766,0,0,1-.3342,3.902c-.3084,1.93.55.5508-.3084,1.93-.8487,1.396-.2032-4.9982-.8487,1.396-.6027,6.3736-.0556,5.2527-.6027,6.3736a10.612,10.612,0,0,0-.6122,4.1677c-.0125,1.1192-.269.2736-.0236,2.2253.2729,1.9585,1.6139,2.2077,2.485,3.0883,2.7507,2.8064,1.3461,4.1825.5007,5.2791,0,0-3.8192-.8417-4.1985,1.9388-.9111,6.3631-2.0108,6.3515-.9111,6.3631s4.4138,4.7821,2.999,4.7671c-1.3689-.0147-1.6211-3.64-3.8683-1.4581-2.2394,2.2167-2.5231,2.7659-2.5351,3.891-.0117,1.1,1.3672,2.24,1.0563,4.1611a11.1871,11.1871,0,0,1-2.5366,4.4234l-3.122,4.4435s-3.0718,2.4641-2.4991.7968c.5739-1.6649,1.3567-3.5461-.2237-3.9195-3.9031-.8514-5.8281-2.8071-3.8765-3.3476,0,0-2.7145-3.9263-3.8474-3.1-3.9348,2.741-5.0614,3.8175-4.8073,4.9324.2821,1.1076,1.6716.8671,1.0733,2.5265-.5373,1.6809-.5309,1.1081-2.7858,2.48-2.2383,1.35-7.5067.7622-6.14,2.9831,1.3672,2.2394,4.9614,4.2127,5.798,3.6889.8342-.5582,4.24-4.143,4.24-4.143s3.0329.0323,2.7373,1.4453c-.277,1.366-1.1262,1.66.2542,2.4978,1.3825.824,6.1736-4.6757,5.8844-2.7231-.3111,1.9589.8216.0088.2359,3.0646l-.5913,3.0555c-.5976,3.0557-4.46.7841-5.0405,3.0085-.58,2.22-.2863,1.9323,1.3527,4.1763,1.65,2.2292,5.5719-1.0474,5.5543.6248-.0174,1.646-2.8272,4.4081-.2973,3.0324,2.5044-1.3627,1.9628-2.757,3.6166-1.0621,1.65,1.6925,5.6557,3.2841,4.4109,3.9458a12.8,12.8,0,0,1-7.25,1.3121s-2.7412-1.7009-3.6113.5081c-.8605,2.2175-1.16,3.0432-.3286,3.9014l-4.7817,5.7829s3.8769.3176,4.1437,2.547c.2455,2.2284,4.9395,4.5029,3.26,6.71a19.2707,19.2707,0,0,0-2.5586,6.0828s1.6533.5781,1.08,1.9744c-.58,1.3832-1.6649-.3359-2.8039,1.9063-1.1233,2.2186-.869,3.8947-.3061,4.71.5154.8671,4.9589,2.85,4.3915,3.9659-.5615,1.098-.1461,1.5552-2.2567,3.0161-3.9163,2.7643-4.183.5226-5.8592,2.1783-1.6956,1.6471-2.2307.2514.2418,2.5171,2.4917,2.2381,3.854,2.8,6.3688,2.8268,2.5054.0264,1.9845-3.3114,3.623-.5092,1.6423,2.7906,3.589,3.6328,3.562,6.1838-.0263,2.4945-.5858,1.9151-.331,4.1361.2636,2.2292,1.6236,3.0791,2.4725,2.7977.8372-.2458,2.4633,1.6913,3.0739-1.0722.5827-2.7728.6031-4.7085,1.1439-4.1634.5507.5516,2.4931.0264,3.3308.5811.8342.5758,2.2067,2.2629,3.0559,1.7269.8407-.5737,2.5256-3.0433,2.2139-1.3528a35.3813,35.3813,0,0,0-.6122,5.53c-.0208,1.9618-3.0421.5122-3.9038,2.2117-.8577,1.6355,1.094.5443.8145,2.7533-.3109,2.2353,2.51-1.62,1.3664,2.2531-1.1746,3.8587,3.6342-3.5765,5.2885-.78,1.6453,2.8027,3.8541,2.2453,5.2378,3.3883,1.3751,1.1333,3.6178-.2464,3.8783,2.2856a13.7175,13.7175,0,0,0,1.0587,4.1735c.2817.8264,3.3225,3.3672,1.0836,3.9089-2.2335.5229-4.1476-2.5584-6.1237-.63-1.9727,1.9208-2.4962.264-3.081,3.0364-.5793,2.7645-.0084.8084.52,3.3294.5142,2.5281-1.9878,3.3452,1.3458,4.19,3.3189.8585,6.9362.8967,8.0428,1.48,1.0941.5527,4.2211-2.45,4.2388-4.1289a17.3366,17.3366,0,0,0-.5248-5.2933c-.5138-1.9415,2.5712-5.2731,2.5712-5.2731l2.6316-1.651,2.974-1.8842s-1.941-1.6993,1.392-2.4728a7.9858,7.9858,0,0,1,5.5613.577l.3149.0033s3.0129,1.7109-1.7406,3.3477c-4.7132,1.6153-9.2217,6.0115-7.8651,6.8557,1.4065.8519,5.842.899,6.6792,1.1976.8282.2981,3.9111-.5257,3.5816.8465a9.745,9.745,0,0,1-1.9728,3.3313s-3.5723-2.8166-3.889.5186c-.3048,3.3475.2458,3.3534.2224,5.5527-.0238,2.2539,4.9754,2.8379,4.9608,4.2282-.0148,1.387,3.0315,1.7038.2549,2.4975a7.31,7.31,0,0,1-4.9965-.3106s-7.776-1.4653-8.6344-.3665c-.8426,1.0893-2.7677.7922-4.4538,2.1507-1.6889,1.3995-2.5683,4.452-.6187,3.8974,1.9555-.5324,6.93,2.5979,7.7734,1.7695.8338-.8412,3.9236-.2488,5.2916-.5091,1.3929-.27,5.2919-.4906,5.2919-.4906a5.4742,5.4742,0,0,0,1.9227,2.799c1.6382,1.3839,4.4183,1.7178,5.2614,1.1613.85-.5637-2.7688-1.4253,2.4907.0265.5108.14.9486.2249,1.3646.3249,3.9677.83,4.343-.4671,5.605.3139,1.3626.8385,5.6957-1.1,6.6726-.4946,3.606,2.2492,4.7206,1.1488,6.0979,2.0209,1.3881.8241,2.7716-.8279,4.1808-.2462,1.362.5595,4.72-.2265,4.72-.2265s4.161-1.0842,3.3613.0356c-.8455,1.1171,3.5814,1.4143,4.98.62,1.3995-.8426,6.1524-2.9969,6.1524-2.9969l-1.1214-1.4208s2.0064-3.0219-.8054-2.7616c-2.7609.2249-5.8021-1.74-8.5882-1.5081a15.0387,15.0387,0,0,1-6.1055-1.1783,20.8181,20.8181,0,0,0-3.8636-4.201c-1.9311-1.4091-2.2089-.589-2.7366-2.516-.5315-1.9693-.2309-5.3046-1.8951-4.4734-1.6926.8052-3.321-.8837-4.7309-1.4313-1.3839-.5956-3.8213-5.6318-4.6587-6.45-.8035-.8651-1.6592-.8748-1.0673-3.3694.5828-2.5025,1.7282-4.1712.3374-4.461-1.3907-.2707-1.6341-4.1726-4.1442-2.8031-2.508,1.362-2.795,1.359-4.185,1.3441-.0742-.0007-.0958-.027-.1425-.0276-1.2707-.2157-1.5893-2.7816-4.2841-3.6336-2.749-.8651-3.8956-1.154-3.878-2.8264a7.0609,7.0609,0,0,1,.1577-1.7244,1.8473,1.8473,0,0,1,1.2927-1.3226c1.3934-.5383,3.0489-.2443,5.546,1.1707,2.4816,1.4094,4.4213,2.2867,6.3586,2.0174,1.9707-.268,3.0914-1.9173,1.4246-3.0469-1.637-1.1423-3.5363-5.5855-4.9056-7.5522a30.8708,30.8708,0,0,1-3.01-5.8854c-.284-.8409.6031-4.7151.3525-6.3829-.267-1.6753-1.6244-4.7583.047-4.45,1.68.2806.58-1.9446,3.68-5.25,3.0847-3.306,3.9479-5.2384,6.1666-4.6546,2.1968.5709,4.7271.3195,4.9889-.5076.3-.8183-.7748-5.5772-.1822-6.6851.5553-1.1,4.5484-9.38,5.6753-11.3376,1.12-1.9368,3.0638-1.6408,5.0483-3.0085,1.9493-1.362,4.7358-1.3317,7.8172-4.3553,3.081-3.0278,6.4445-4.3889,6.7284-5.7614.3018-1.3862,1.4416-2.77.8848-3.8947-.5445-1.12.2958-1.6717-2.76-2.2491-3.0435-.6-1.074-3.3639.6149-4.4441,1.6713-1.11,2.4966-.2518,1.6947-3.3346-.8046-3.0581-.5032-5.0107-1.8932-5.0252s-2.4846-.8406-3.9021-.5741a20.7923,20.7923,0,0,1-5.5669-.0589c-1.3656-.3173-4.7082-.6219-5.2464-2.5833-.5357-1.9549-2.7545-2.5249-2.9872-5.5893a9.86,9.86,0,0,1,2.0162-6.9445,21.7883,21.7883,0,0,0,2.5576-6.0576c.2813-1.1361.0179-1.6782,1.1547-2.5031,1.1121-.8237,4.4691-2.7382,4.4691-2.7382s-1.1208,1.66,3.0519-.533c4.2124-2.1689,8.1487-6.2954,8.6868-5.4856.5471.8755,2.4343,5.3339,4.47-.4862a59.1722,59.1722,0,0,0,2.6013-10.2713l-1.6535-2.7954,2.0062-3.3166s1.3664-6.5279,2.5666-6.906c4.1881-1.3458,5.3086-3.2961,5.3086-3.2961s-4.38-4.497-4.1178-5.6218c.3055-1.11.87-2.2018,2.2606-1.8967,1.3905.29,1.7771-1.2571,3.0675.3076,3.005,3.6281,1.31,5.849,3.2688,5.5866,1.9429-.2576,1.8662,6.9792,4.1878-1.0693,2.298-8.0429,4.2771-9.9694,1.2058-10.0021-3.0489-.0321-4.3912-3.3572-6.389-1.1682a26.4756,26.4756,0,0,0-3.39,4.9777c-3.3209-.8861-5.4285-2.0231-5.51-3.122-.2482-3.0768-1.638-2.8028-1.3642-4.7693.3107-1.9327,1.1531-3.8714,1.47-5.2524a27.0015,27.0015,0,0,1,.5791-3.8971c.598-1.93-3.3042-3.63-1.8935-5.563,1.435-1.9284.0177-1.6667,4.47-.5215,4.452,1.1544,8.3444.0885,7.783,2.0325a3.3974,3.3974,0,0,0,3.28,4.4859c2.78.0295,4.7263-.7872,6.1134-.4873a13.0454,13.0454,0,0,0,4.7541-.2343c.7973-.2543,3.6113-1.0739,4.4664-2.1785.8176-1.09,7.8088-1.8655,3.366-3.5778-4.4375-1.72-4.988-2.2656-4.4168-3.6635a17.5811,17.5811,0,0,1,3.3933-3.8477c1.4238-5.2586,2.5517-5.82,2.5694-7.4991.0177-1.6649,1.9666-1.3555.3438-4.7185-1.6451-3.356-3.7878-5.0561-2.46-5.5757,5.5911-2.1527,5.0169-.7839,7.7764-.4968,2.8016.3185-1.1034.277,2.8016.3185a36.9,36.9,0,0,0,5.5422-.23s1.4058.869,5.8515.0624c4.4751-.7622,19.237-4.5046,20.3653-4.4926a38.6154,38.6154,0,0,0,4.1752-.5072s2.2242-1.671,2.7809-.8216c.5466.8569,2.2414-2.4645,3.0848-1.9154.822.5682,3.0672-1.3441,3.9156-2.1721.831-.8266.84-1.6627,1.97-2.2178a14.259,14.259,0,0,0,2.7857-2.1824,28.1086,28.1086,0,0,0,3.6761-6.071,6.8576,6.8576,0,0,1,2.2687-2.763c1.3995-.8254,1.4079-1.6487,1.6889-2.7732.2867-1.0894-.54.5547.0353-3.3227.6093-3.9064,1.1641-1.6745.621-5.0182-.5324-3.3443.6137-3.3322-1.8926-4.1818-2.5209-.85-2.7565-2.242-3.2982-3.65-.5441-1.3944-.0237,2.2394-.5441-1.3944-.53-3.6142,1.1871-4.4673.8871-5.8379-.532-2.5218.6209-5.544-.4969-5.8323-1.1007-.302-.2218-4.1778-2.7424-3.6636-2.4991.5324-8.583-2.8583-9.98-3.4443a5.7494,5.7494,0,0,1-2.7349-2.5321c-.8318-1.1086-1.1012-1.9331-.8-4.1963.3106-2.21,1.9368.89,1.4309-3.83-.4963-4.7462,1.7421-6.1185,1.1857-6.9541-.5475-.8543-1.3753-1.412-.5208-3.3578.855-1.9393-.8165-1.6526.8667-3.0389,1.6744-1.3776,2.2427-1.3715,1.7035-4.156a13.7054,13.7054,0,0,1,.0279-4.9374.1524.1524,0,0,0,.025-.0715s1.337,5.0233,1.014,7.799c-.2771,2.7964-.8387,3.0515-.859,4.9669-.0207,1.9709-.0157,7.5678-.379,8.3676-1.7005,3.8794-2.83,4.6972-1.9966,5.5553.8259.8312,2.7366,4.7579,4.6734,4.21,1.9668-.524,1.1871-1.49,3.08-.5123,3.3094,1.6939,5.8448-.2343,6.09,1.7233.2722,1.9526,2.4853,3.0739,4.1361,3.942,1.6473.8489,4.5.7306,5.5486,1.1586,2.7968,1.1538,2.4812,1.15,3.8987.911,1.3686-.276,3.0432.2874,4.44-.2434,1.4019-.5645.8336-1.67,3.0672-1.1056,2.2211.5821,3.9812.1017,5.002.6122,3.8591,1.9965,9.74-.4558,9.74-.4558s2.5282-3.3114,3.3656-3.5671c.8455-.26,1.6772.0176,3.6589-2.7523,1.9667-2.7451,3.3887-6.3442,4.2442-6.9023a8.5311,8.5311,0,0,0,3.1-3.5747,21.2069,21.2069,0,0,1,4.2042-5.2449,59.0635,59.0635,0,0,1,4.7933-3.8531s1.969-3.0141,1.7029-4.7027c-.2395-1.6554.8838-3.8961,1.4461-5.2786.5675-1.35.5765-2.1985,1.6973-3.03,1.0144-.7309,2.4439,2.5729,2.1188-.8612,1.8119-.4115,6.2631-3.5,6.2631-3.5a8.2774,8.2774,0,0,1,3.4023-3.56c2.2182-1.1155,3.9122-3.0189,4.752-3.2881.85-.28,1.9618-1.6649,3.08-2.7723,1.1325-1.0944,3.6586-3.0239,3.4044-5.533-.2487-2.48.3216-3.868,1.1648-4.6822.8428-.8487,1.0965.5565,2.2443-3.6053,1.1685-4.161.0442-4.1735,2.3159-6.6665,2.2388-2.4647,1.976-4.7733,7.3113-8.2647,0,0,4.8121-7.7178,5.9325-9.6689,1.1458-1.9376,1.7013-1.6414,2.257-3.0239a22.174,22.174,0,0,0,1.7457-5.8222c.0151-1.4171,1.7244-6.1057.91-7.2263-.8224-1.1011.3191-5.0085.3191-5.0085a14.95,14.95,0,0,0-1.9022-3.9112c-1.0784-1.3821.0176-1.6593-1.0548-3.6182-1.0921-1.9618-3.045-2.5353-1.0716-3.8964,1.9618-1.389,3.5871.5707,2.5227-2.7668-1.0922-3.3364-3.8573-4.782-1.6119-5.3039,2.23-.5092,5.0051.3426,6.395.0678a6.7628,6.7628,0,0,0,2.774-1.0712c.08-.0319.1237-.059.1734-.0791a16.1855,16.1855,0,0,1,2.96-3.2263,35.1807,35.1807,0,0,1,9.786-7.1185c3.0668-2.7732,1.982-3.89,3.0814-4.1551,1.1521-.25,2.26-1.09,3.651-1.0759a13.7424,13.7424,0,0,0,4.46-1.3411,11.1107,11.1107,0,0,1,3.0473,1.982c1.09,1.1254.5588.006,2.4961-.2428,1.9519-.2714,5.3075-.8012,5.3075-.8012s-6.1183-1.4535-3.0211-3.6389c3.0828-2.1931,3.0591.0324,5.8379-1.88,2.8008-1.8993,3.9172-.7818,4.79-3.5717.8638-2.77-.2374-4.7312.8638-2.77,1.0823,1.9672,1.357,1.1339,3.3034,1.412,1.952.311,4.75-1.0356,6.1405-.746,1.3627.2927,2.7949-1.36,3.3238-.53.5565.85,1.965-.8032,2.8016.32.7986,1.0944,2.2071,1.6888,4.15.5973,1.965-1.092,3.1063-3.0291,3.9225-1.9085.82,1.1151,2.4866.3086,3.0217.8691.5784.5657,2.7865.03,3.3881-1.8994a10.0677,10.0677,0,0,1,2.5434-4.7141c3.3621-2.4691-.0149,1.3886,5.052-3.2655,5.0553-4.7012,5.62-4.9792,5.6377-6.63.0176-1.6667-1.059-5.3055.6139-6.9488,1.6769-1.66,4.2092-3.029,4.7768-5.2494.6013-2.22.8633-1.927,4.2443-6.6322,3.3863-4.6781,1.7091-4.9789,3.404-6.33,1.6988-1.39,1.6188,6.1411,2.2627-3.3342.653-9.4285,1.4782-8.61.9614-10.822-.557-2.252-.8228-2.2548-.2552-3.63.5735-1.3825-.5237-2.7844,1.99-3.5737,2.5207-.8308,3.3488-1.9479,3.6443-2.7741a24.9365,24.9365,0,0,0,1.7334-4.9591c.0125-1.1325,1.7156-5.3024.6207-7.2214a6.1183,6.1183,0,0,1,.0532-5.0389c1.7275-4.4062,1.9906-4.1391,1.7481-6.3672-.2665-2.2294-2.458-5.3146-2.1419-7.8119.2891-2.4935,2.0021-6.38,1.4664-8.0436-.5264-1.6862.873-2.77.3374-5.56-.527-2.7788.05-4.7145-.2161-5.844-.2666-1.1083.5559-.2641-.24-3.6249-.805-3.3324-3.8422-4.2008-1.05-5.0149a16.993,16.993,0,0,1,2.78-.8059c3.3488-.7879,5.2886.0559,2.2265-1.0746-3.04-1.1385-4.4235-1.7422-4.4235-1.7422s-.5324-1.0972,2.5138-1.065c3.0649.0324,1.9487-.8148,4.1705-.2324,2.2277.5907-.292,2.2225,2.2277.5907,2.5116-1.6666,4.7437-2.1885,5.0577-4.419.2929-2.2137,2.2474-4.42,2.8365-5.2365.5643-.8156,1.4158-2.4742,1.4158-2.4742a20.9694,20.9694,0,0,1,.586-2.799c.2658-.8268.295-3.5923,1.1409-3.8736.84-.2815,1.387.305,3.6542-2.76,2.2617-3.0239,10.38-9.6152,12.64-11.803,2.2518-2.2271,3.0863-1.0933,4.5035-3.5936a54.9611,54.9611,0,0,1,3.354-4.9364c1.71-2.5037,2.5419-2.4949,3.1131-3.6074.5923-1.0722.8661-3.0339,1.7148-4.4128.8582-1.4089,2.2537-3.59,1.9992-4.99-.2624-1.3931.3163-4.4473.0559-5.2732a21.4347,21.4347,0,0,1-.53-3.358c-.2477-1.9443-1.3337-4.4646-.2063-5.8559A5.6517,5.6517,0,0,0,712.6144,258.1322Z"/>
    <path d="M382.4854,22.1143c1.644.0174,2.5117-1.6053.0411-3.8694C381.471,17.294,380.8272,22.0967,382.4854,22.1143Z"/>
    <path d="M382.8932,45.8187c2.1439.0226,1.4758-.1607,4.3067-.2783,2.8071-.1327,3.4488,1.3443,3.8329-2.7653.3653-4.1511-.4343-7.4509-3.4048-5.8369-2.1564,1.16-3.0249,4.1224-4.0409,5.7581C382.5749,44.3311,380.7492,45.7958,382.8932,45.8187Z"/>
  </g>
</svg>
