<svg id="Calque_1" data-name="Calque 1" xmlns="http://www.w3.org/2000/svg" width="30cm" height="33.4cm" viewBox="0 0 850.3937 946.7717">
  <g>
    <path d="M85.1043,450.7227c.1252,5.74-44.5709,87.878-44.5709,87.878l773.055,2.4153-59.1865-85.76L85.1043,450.7228Z" fill="#010101"/>
    <path d="M85.1043,450.7227s5.637-29.7961,16.1058-37.0438,203.7417-19.3272,203.7417-19.3272,44.2911-63.62,55.5655-70.0612,54.7609-8.8583,54.7609-8.8583l362.3859-5.6372s20.1324-.805,21.7429,4.8318,17.717,171.5294,17.717,171.5294l-45.9026,1.61-26.5747-41.07-116.7689,8.0528-36.2386,99.052-307.6253.8051L234.8906,453.9439Z" fill="#010101"/>
    <path d="M825.9823,474.0767c-12.8849-3.2216-46.7077-3.2216-46.7077-3.2216s-10.2561-30.6012-22.5486-30.6012c-13.69,0-109.5208,0-124.8217,2.4152-15.1823,2.3965-44.4205,84.75-48.6134,96.7751l-286.3757,3.0143s-48.3347-89.3206-64.4405-94.9576S83.4939,441.8637,72.22,446.6958s-14.4948,24.1593-14.4948,24.1593,145.45-1.7936,148.9808,0c13.2,6.7061,62.0082,84.5568,62.0082,84.5568l330.1736-.805s37.3674-80.6837,49.1237-82.9461c11.5367-2.22,87.7779-4.8316,93.415-1.61,20.1681,11.5244,53.9553,76.5035,59.5921,82.1407s27.38,2.4152,31.4066-.805S833.1849,475.8773,825.9823,474.0767Z" fill="#010101"/>
    <path d="M478.0917,333.954c2.902,2.4152-2.0133,47.11-2.0133,47.11s-4.8321,24.1591-10.6692,26.3738c-5.88,2.231-132.272,5.4358-133.8828,2.2142s41.0708-76.5031,45.9023-75.698S473.1648,329.8524,478.0917,333.954Z" fill="#010101"/>
    <path d="M382.7338,338.1271c4.2474.7075,75-2.9979,95.3991-1.1181a5.4826,5.4826,0,0,0-.7765-3.0548c-4.9264-4.1018-95.831.805-100.6626,0s-47.5127,72.4769-45.9022,75.698c.2183.436,2.7372.7536,6.9188.9726C343.8154,395.95,378.4119,337.4068,382.7338,338.1271Z" fill="#010101"/>
    <path d="M509.4081,330.3066c-3.8516,3.4285-9.3859,71.2928-7.4445,75.051,2.3117,4.4747,101.7541,2.684,106.5862.2685s16.9114-22.5883,17.7165-26.5948,6.0983-50.06,0-50.7144C618.238,327.4546,513.9275,326.285,509.4081,330.3066Z" fill="#010101"/>
    <path d="M513.9275,333.954c4.2413-3.7747,96.7694-1.6078,114.7136-.7826-.3717-4.1643-.9139-4.6977-2.3746-4.8546-8.029-.8624-112.3395-2.032-116.8583,1.99-3.8516,3.4285-9.3858,71.2928-7.4444,75.051.28.5409,1.9891.9893,4.7692,1.3574C506.8652,389.3574,510.6726,336.8509,513.9275,333.954Z" fill="#010101"/>
    <path d="M651.7484,326.763c-6.1785,4.119,1.61,68.4954,4.0267,71.7165s130.4592,3.22,132.8744,0-4.8317-70.8667-7.2477-73.2823S656.58,323.542,651.7484,326.763Z" fill="#010101"/>
    <path d="M655.2583,330.33c4.25-2.8331,103.1166-.8972,127.6246.5643-.7459-4.5956-1.0018-5.2183-1.4811-5.6971-2.4153-2.4161-124.8219-1.6552-129.6542,1.5658-6.1785,4.119,1.61,68.4954,4.0267,71.7165.2856.3814,2.3317.717,5.7186,1.0078C658.4522,381.4774,650.2745,333.6525,655.2583,330.33Z" fill="#010101"/>
    <path d="M99.6,432.1811s2.1473-11.523,10.7373-13.67,191.662-14.4953,191.662-14.4953l-9.0937,23.3135Z" fill="#010101"/>
    <rect x="284.2822" y="420.1215" width="511.0987" height="7.516" fill="#010101"/>
    <polygon points="592.982 548.97 275.692 548.97 294.482 544.675 581.707 544.675 592.982 548.97" fill="#010101"/>
    <polygon points="225.227 455.556 69.535 455.556 78.756 451.261 219.694 451.261 225.227 455.556" fill="#010101"/>
    <polygon points="762.094 452.333 626.805 452.333 634.816 448.038 757.288 448.038 762.094 452.333" fill="#010101"/>
    <polygon points="366.961 324.48 792.696 318.882 783.569 313.284 405.245 319.727 366.961 324.48" fill="#010101"/>
    <polygon points="332.593 406.006 462.791 404.016 469.233 399.184 478.093 333.954 481.045 333.954 473.798 404.016 468.428 411.016 330.184 411.016 332.593 406.006" fill="#010101"/>
    <polygon points="501.964 405.358 608.55 405.626 626 379.933 626.267 328.317 629.166 328.317 629.166 382.271 613.115 411.016 499.566 411.531 501.964 405.358" fill="#010101"/>
    <polygon points="655.259 399.184 782.227 399.184 785.986 395.426 777.932 325.364 782.496 325.364 792.696 397.841 788.619 404.821 658.48 403.479 655.259 399.184" fill="#010101"/>
    <rect x="483.7285" y="534.0715" width="103.0791" height="2.4161" fill="#010101"/>
    <path d="M486.5955,399.09c-.19-.0219-.377-.0251-.5654-.0365l-2.3832,20.7447c.1863.0314.3691.0711.5591.0936a10.4689,10.4689,0,0,0,2.39-20.8009h0Z" fill="#010101"/>
    <path d="M639.3033,397.2531c-.1905.0127-.3754.0433-.5617.0659l1.384,20.8347c.1887-.0022.376.0036.5667-.0088a10.4689,10.4689,0,1,0-1.3881-20.8918h-.0009Z" fill="#010101"/>
    <path d="M333.95,537.315c-2.54,0-11.165-.5663-15.5388-7.856a61.1586,61.1586,0,0,1-6.602-19.7784l-.0124-.15L310.18,412.5349l.1917-.3048c5.2075-8.2664,51.0688-80.8808,57.5583-84.9371,6.5433-4.0895,112.5791-4.9328,124.6487-5.0152l1.2974-.0092-.0838,1.2949c-.118,1.8191-1.021,9.8627-2.2707,20.9954-2.9769,26.5112-7.9571,70.8818-7.3955,77.0644.8015,8.8116.81,109.38.81,113.6566v1.2014l-150.1444.8115C334.6825,537.3005,334.389,537.315,333.95,537.315ZM314.211,509.41a59.522,59.522,0,0,0,6.2721,18.8053c3.7208,6.2021,11.2486,6.684,13.467,6.684.4291,0,.6843-.0172.7072-.0187l.0842-.0032,147.7788-.7987c-.0032-11.67-.0546-104.0441-.7994-112.2371-.5845-6.4268,4.2206-49.2295,7.4-77.5529,1.0124-9.0159,1.8447-16.4321,2.1486-19.5861-47.131.3417-117.5872,1.8438-122.0589,4.6389-4.5405,2.838-36.26,51.5923-56.6029,83.872Z" fill="#010101"/>
    <path d="M638.7505,442.722l-3.5232-82.11.0028-.0561c.5737-11.5706.3025-31.0538-2.87-34.0816-4.4116-4.2113-22.1154-3.8786-40.8578-3.5255-7.1193.1341-14.4828.2715-21.6524.185-15.13-.1846-76.61,1.5409-77.2287,1.5587l-.0684-2.4152c.62-.0187,62.1653-1.744,77.3263-1.559,7.1369.0868,14.4771-.0515,21.5777-.185,20.0924-.3792,37.44-.7048,42.5713,4.1938,4.9823,4.7556,3.7859,32.4587,3.6174,35.8923l3.5182,81.9983Z" fill="#010101"/>
    <path d="M811.4868,436.2273s-21.4748-.5366-23.6223-.5366-5.3689,2.1473-5.3689,4.8315,1.611,19.8647,2.1476,22.0114,3.7584,4.2956,7.516,4.2956,22.5486.5366,22.5486.5366Z" fill="#010101"/>
    <path d="M94.2308,421.732s-1.61,4.295-3.7582,8.59A50.6836,50.6836,0,0,0,87.2514,442.67l11.2744-1.61s7.516-13.9583,8.59-17.1793S94.2308,421.732,94.2308,421.732Z" fill="#010101"/>
    <polygon points="787.731 439.087 789.656 462.9 797.353 462.9 795.43 438.846 787.731 439.087" fill="#010101"/>
    <g>
      <g>
        <circle cx="161.6445" cy="564.4223" r="85.1567" fill="#010101"/>
        <path d="M193.6714,486.0379c24.756,14.8955,46.5907,39.4746,47.767,70.4487,1.61,42.4122-17.3789,90.5153-89.12,88.5831a106.143,106.143,0,0,1-34.5131-7.0939c12.8063,7.7051,31.3625,11.3882,47.3969,11.3882,47.03,0,81.5977-37.3743,81.5977-84.4046A85.18,85.18,0,0,0,193.6714,486.0379Z" fill="#010101"/>
        <circle cx="161.6446" cy="564.4223" r="51.9398" fill="#010101"/>
        <circle cx="161.6445" cy="564.4221" r="47.7118" transform="translate(-423.2483 615.4291) rotate(-79.0028)" fill="#010101"/>
        <circle cx="161.6448" cy="564.4225" r="33.8211" transform="translate(-421.9092 499.8738) rotate(-67.7068)" fill="#010101"/>
        <g>
          <g>
            <path d="M166.5337,586.9135a4.8891,4.8891,0,0,1-4.8891,4.8891h0a4.8893,4.8893,0,0,1-4.89-4.8889v-44.982a4.89,4.89,0,0,1,4.89-4.89h0a4.89,4.89,0,0,1,4.8891,4.89Z" fill="#010101"/>
            <path d="M184.1352,559.044a4.89,4.89,0,0,1,4.89,4.8894h0a4.8894,4.8894,0,0,1-4.8892,4.89H139.1533a4.89,4.89,0,0,1-4.8894-4.89h0a4.89,4.89,0,0,1,4.8894-4.8894Z" fill="#010101"/>
          </g>
          <g>
            <path d="M181.1779,577.0416a4.8893,4.8893,0,0,1,0,6.9145l0,0h0a4.8893,4.8893,0,0,1-6.9144,0l-31.807-31.8073a4.8889,4.8889,0,0,1,0-6.9139l0,0h0a4.89,4.89,0,0,1,6.9147,0Z" fill="#010101"/>
            <path d="M173.9173,544.8889a4.89,4.89,0,0,1,6.9147,0h0a4.8894,4.8894,0,0,1,0,6.9145l0,0-31.8068,31.8069a4.89,4.89,0,0,1-6.9146,0h0a4.89,4.89,0,0,1,0-6.9148Z" fill="#010101"/>
          </g>
          <circle cx="161.6446" cy="564.4222" r="19.5558" fill="#010101"/>
        </g>
        <path d="M84.5389,560.2441l7.2477-5.6372s.8051-26.5751,26.9774-46.305c23.9-18.0162,53.15-14.8981,53.15-14.8981l2.8189-5.6371s-36.6413-4.4294-62.0082,16.106C82.1742,528.6036,84.5389,560.2441,84.5389,560.2441Z" fill="#010101" opacity="0.4" style="isolation: isolate"/>
        <path d="M163.9618,541.3192a2.3155,2.3155,0,1,1-2.3155-2.3154h0A2.3158,2.3158,0,0,1,163.9618,541.3192Z" fill="#010101"/>
        <path d="M180.0677,547.7615a2.3151,2.3151,0,1,1,0-.0007Z" fill="#010101"/>
        <path d="M187.7181,564.0688a2.3154,2.3154,0,1,1-2.316-2.3149h.0006A2.3152,2.3152,0,0,1,187.7181,564.0688Z" fill="#010101"/>
        <path d="M180.8728,581.5843a2.3153,2.3153,0,1,1-2.3153-2.3152h0A2.3151,2.3151,0,0,1,180.8728,581.5843Z" fill="#010101"/>
        <path d="M163.7605,587.6243a2.3155,2.3155,0,1,1-2.3155-2.3155h0a2.3152,2.3152,0,0,1,2.3155,2.3147Z" fill="#010101"/>
        <path d="M147.6545,580.5774a2.3154,2.3154,0,1,1-2.316-2.3149h.0006A2.3157,2.3157,0,0,1,147.6545,580.5774Z" fill="#010101"/>
        <path d="M141.2119,564.27a2.3153,2.3153,0,1,1-2.3156-2.3149h0A2.3152,2.3152,0,0,1,141.2119,564.27Z" fill="#010101"/>
        <path d="M147.6545,547.7615a2.3154,2.3154,0,1,1-2.3154-2.3154h0A2.3154,2.3154,0,0,1,147.6545,547.7615Z" fill="#010101"/>
      </g>
      <path d="M172.3821,564.4222a10.7375,10.7375,0,1,1-10.7378-10.737h.0007A10.7374,10.7374,0,0,1,172.3821,564.4222Z" fill="#010101"/>
    </g>
    <g>
      <g>
        <circle cx="701.2595" cy="564.4229" r="85.1567" fill="#010101"/>
        <path d="M733.2861,486.0379c24.7557,14.8955,46.5908,39.4746,47.7671,70.4487,1.61,42.4122-17.3793,90.5153-89.12,88.5831a106.1417,106.1417,0,0,1-34.5116-7.0932c12.8062,7.7051,31.362,11.3882,47.3965,11.3882,47.0312,0,81.5978-37.3743,81.5978-84.4046A85.18,85.18,0,0,0,733.2861,486.0379Z" fill="#010101"/>
        <circle cx="701.2797" cy="564.4718" r="51.9384" transform="translate(33.3997 1168.0925) rotate(-80.938)" fill="#010101"/>
        <circle cx="701.259" cy="564.422" r="47.7118" fill="#010101"/>
        <circle cx="701.2591" cy="564.4218" r="33.8211" fill="#010101"/>
        <g>
          <g>
            <path d="M706.1485,586.9135a4.8892,4.8892,0,0,1-4.89,4.8885h0a4.8892,4.8892,0,0,1-4.8894-4.889h0V541.9317a4.89,4.89,0,0,1,4.8894-4.89h0a4.89,4.89,0,0,1,4.89,4.89Z" fill="#010101"/>
            <path d="M723.75,559.044a4.8892,4.8892,0,0,1,4.8894,4.889v0h0a4.8892,4.8892,0,0,1-4.8888,4.89H678.7683a4.89,4.89,0,0,1-4.89-4.89h0a4.89,4.89,0,0,1,4.89-4.8894Z" fill="#010101"/>
          </g>
          <g>
            <path d="M720.7928,577.0416a4.89,4.89,0,0,1,0,6.9147h0a4.89,4.89,0,0,1-6.9147,0L682.0714,552.149a4.8881,4.8881,0,0,1-.0015-6.9129l.0015-.0014h0a4.8888,4.8888,0,0,1,6.9138,0l0,0Z" fill="#010101"/>
            <path d="M713.5323,544.8889a4.89,4.89,0,0,1,6.9147,0h0a4.8894,4.8894,0,0,1,0,6.9145l0,0L688.64,583.6105a4.8889,4.8889,0,0,1-6.9141,0l0,0h0a4.8893,4.8893,0,0,1,0-6.9146l0,0Z" fill="#010101"/>
          </g>
          <circle cx="701.2588" cy="564.4222" r="19.5558" fill="#010101"/>
        </g>
        <path d="M624.1531,560.2441l7.2483-5.6372s.805-26.5751,26.9772-46.305c23.8991-18.0162,53.15-14.8981,53.15-14.8981l2.8183-5.6371s-36.64-4.4294-62.008,16.106C621.789,528.6036,624.1531,560.2441,624.1531,560.2441Z" fill="#010101" opacity="0.4" style="isolation: isolate"/>
        <path d="M703.5761,541.3192a2.3152,2.3152,0,1,1-2.315-2.3154A2.3152,2.3152,0,0,1,703.5761,541.3192Z" fill="#010101"/>
        <path d="M719.6819,547.7615a2.3151,2.3151,0,1,1-2.3148-2.3154,2.3151,2.3151,0,0,1,2.3148,2.3154Z" fill="#010101"/>
        <path d="M727.3325,564.0688a2.3153,2.3153,0,1,1-2.3156-2.3149h0A2.3152,2.3152,0,0,1,727.3325,564.0688Z" fill="#010101"/>
        <path d="M720.487,581.5843a2.3154,2.3154,0,1,1-2.3156-2.3152h0a2.3152,2.3152,0,0,1,2.3154,2.315Z" fill="#010101"/>
        <path d="M703.3745,587.6243a2.3153,2.3153,0,1,1-2.3151-2.3155h0a2.3151,2.3151,0,0,1,2.3148,2.3153Z" fill="#010101"/>
        <path d="M687.2689,580.5774a2.3153,2.3153,0,1,1-2.3156-2.3149h0A2.3152,2.3152,0,0,1,687.2689,580.5774Z" fill="#010101"/>
        <path d="M680.8267,564.27a2.3155,2.3155,0,1,1-2.316-2.3149h.0006A2.3155,2.3155,0,0,1,680.8267,564.27Z" fill="#010101"/>
        <path d="M687.2689,547.7615a2.3153,2.3153,0,1,1-2.3154-2.3154,2.3152,2.3152,0,0,1,2.3154,2.3154Z" fill="#010101"/>
      </g>
      <path d="M711.9961,564.4222a10.7372,10.7372,0,1,1-10.7374-10.737h0A10.7373,10.7373,0,0,1,711.9961,564.4222Z" fill="#010101"/>
    </g>
    <path d="M85.1043,468.44A89.1353,89.1353,0,0,0,71.42,500.6515c-3.7633,18.79-6.18,49.9289-6.18,49.9289H22.1581s-5.1319-4.295-5.8158-9.6639,1.6475-46.17,5.4108-48.3182c2.2248-1.2692,26.8432-3.22,26.8432-3.22l11.8117-27.38Z" fill="#010101"/>
    <path d="M368.2174,376.9921l2.5627,26.7411-6.982.62s-4.5569-2.64-5.839-11.0849a18.142,18.142,0,0,1,3.81-15.0012Z" fill="#010101"/>
    <path d="M359.9806,388.4462l-27.9173,11.0055s-7.2478,4.8322-5.1,9.6639,10.7468,1.5093,10.7468,1.5093l25.2229-16.5415Z" fill="#010101"/>
    <path d="M630.0253,300.1314a17.7057,17.7057,0,0,0-9.6637-2.95v-.0023h-.0781c-.4537-.01-.7263,0-.7263,0H420.11c-.805.5368-7.516-.8051-11.5424,4.8316-2.6845,3.7583-7.2478,15.5693-7.2478,15.5693l15.8375-.5368a14.8254,14.8254,0,0,1,2.4152-8.0531,16.0627,16.0627,0,0,1,6.7111-4.295H615.865c2.3047.0562,5.9231.349,6.6439,1.61a65.9223,65.9223,0,0,1,2.9531,7.7849l11.5423-.5371S634.32,303.3524,630.0253,300.1314Z" fill="#010101"/>
  </g>
</svg>
