<svg id="Calque_1" data-name="Calque 1" xmlns="http://www.w3.org/2000/svg" width="850.3937" height="946.7717" viewBox="0 0 850.3937 946.7717">
  <path d="M835.0534,379.0677a24.0754,24.0754,0,0,0-19.4391-16.3917L560.7675,325.6427,446.7935,94.713a24.0834,24.0834,0,0,0-43.1925,0l-113.9788,230.93L34.78,362.676a24.0832,24.0832,0,0,0-13.3458,41.0795L205.8352,583.51,162.31,837.3288a24.0828,24.0828,0,0,0,34.9429,25.3879L425.1965,742.8774,653.13,862.7151a24.0858,24.0858,0,0,0,34.9476-25.3895L644.5385,583.51,828.96,403.7539A24.0751,24.0751,0,0,0,835.0534,379.0677Z"/>
</svg>
