<svg id="Calque_1" data-name="Calque 1" xmlns="http://www.w3.org/2000/svg" width="850.3937" height="946.7717" viewBox="0 0 850.3937 946.7717">
  <g>
    <path d="M242.4512,747.3544c78.674,0,145.9086-56.0605,182.84-94.6967,36.97,38.6362,104.0149,94.6967,182.6889,94.6967,135.4541,0,230.1508-94.4694,230.1508-229.6584,0-149.0526-117.5376-245.4159-231.2114-338.56C553.2457,135.1214,497.64,89.667,455.0263,39.1369a37.6278,37.6278,0,0,0-28.6742-13.3333h-2.1969a37.7646,37.7646,0,0,0-28.7121,13.3333C352.7917,89.5913,297.2237,135.0835,243.55,179.0985,129.8379,272.2422,12.2625,368.5677,12.2625,517.6581,12.3,652.885,106.9213,747.3544,242.4512,747.3544Z" fill="#030104"/>
    <path d="M284.648,921.2553c93.7119-16.8181,188.1434-16.0984,281.1355,0-92.9921-139.848-140.5678-410.34-140.5678-410.34S378.36,781.4073,284.648,921.2553Z" fill="#030104"/>
  </g>
</svg>
