<svg id="Calque_1" data-name="Calque 1" xmlns="http://www.w3.org/2000/svg" width="30cm" height="33.4cm" viewBox="0 0 850.3937 946.7717">
  <g>
    <path d="M393.3991,52.2356l-.0883.0894a5.7816,5.7816,0,0,0,.07,8.1762l.0284.0277a5.865,5.865,0,1,0-.0085-8.2944l-.0012.0013Z" fill="#020303"/>
    <path d="M393.6064,87.2513l-.0883.0892a5.7837,5.7837,0,0,0,.07,8.179l.0285.0278a5.865,5.865,0,1,0-.01-8.2955Z" fill="#020303"/>
    <path d="M393.8148,122.268l-.0883.0894a5.7821,5.7821,0,0,0,.0683,8.1768l.0289.0282a5.865,5.865,0,1,0-.0089-8.2944Z" fill="#020303"/>
    <path d="M440.0876,51.9581l-.0883.0894a5.7849,5.7849,0,0,0,.0706,8.1807l.0266.026a5.8657,5.8657,0,1,0-.0088-8.2966Z" fill="#020303"/>
    <path d="M440.295,86.976l-.0881.0892a5.7833,5.7833,0,0,0,.0692,8.1786l.0288.0281a5.865,5.865,0,1,0-.01-8.2953Z" fill="#020303"/>
    <path d="M440.5023,121.9915l-.0881.0894a5.783,5.783,0,0,0,.0693,8.1781l.0276.027a5.865,5.865,0,1,0-.0088-8.2945Z" fill="#020303"/>
    <path d="M388.1844,487.8139c-46.7352.2777-75.08,8.03-88.83,24.2379-15.5112,18.1855-11.5872,43.803-7.0338,73.474,4.6366,30.257,9.8937,64.5507-3.3419,100.1693l-5.7241,15.25c-23.3143,61.7681-49.7471,131.7687-16.7018,179.258,24.2079,34.7961,76.3088,51.4729,159.2732,50.9775a5.8355,5.8355,0,0,0-.068-11.6709c-78.8343.4667-127.7769-14.5721-149.623-45.9693-29.5335-42.4472-4.2559-109.3993,18.0423-168.47l5.75-15.3051c14.2825-38.47,8.5425-75.9165,3.9306-106.0131-4.2853-27.9386-7.6638-50.0052,4.3759-64.1206,11.3225-13.4214,37.5317-19.8957,80.0191-20.1473a5.8361,5.8361,0,1,0-.0691-11.6719Z" fill="#020303"/>
    <path d="M458.223,487.4063a5.8335,5.8335,0,0,0,.0661,11.6668c42.4956-.2518,68.7474,6.0255,80.2563,19.1943,12.206,13.97,9.0889,36.0664,5.1348,64.0546-4.2613,30.15-9.5708,67.6651,5.17,105.96l5.9305,15.2441c23.0045,58.8023,49.0648,125.4423,20.04,168.24-21.4689,31.635-70.23,47.2751-149.0639,47.7422a5.836,5.836,0,1,0,.0691,11.6717c73.1231-.4287,122.1076-13.9113,148.9864-41.1274a83.4941,83.4941,0,0,0,9.6729-11.7315c32.4734-47.8764,5.2122-117.5682-18.83-179.0477L559.749,684.1c-13.6524-35.4739-8.8009-69.8342-4.5148-100.1529,4.2021-29.7144,7.822-55.3706-7.9-73.3578C533.2682,494.4946,504.9561,487.1254,458.223,487.4063Z" fill="#020303"/>
    <path d="M423.677,568.8206a53.01,53.01,0,1,0,37.5749,15.3045A53.01,53.01,0,0,0,423.677,568.8206Zm41.647,52.7626a42.3475,42.3475,0,0,1-41.1032,41.5931,41.3447,41.3447,0,1,1,41.1032-41.5931Z" fill="#020303"/>
    <path d="M494.8318,755.6741l-140.0793.83a5.8349,5.8349,0,0,0-5.8015,5.8683v.0021l.1352,23.349a5.8347,5.8347,0,0,0,5.8689,5.8h.0007l34.0692-.205L423.2125,802.49a5.883,5.883,0,0,0,3.693-.0216l34.0537-11.5758,34.0776-.1987a5.83,5.83,0,0,0,5.7994-5.86v-.011l-.1342-23.348a5.833,5.833,0,0,0-5.8646-5.8013h-.0058Zm-5.6987,23.3825-29.1892.1646a5.9849,5.9849,0,0,0-1.8444.3093l-33.1123,11.2572-33.2288-10.8594a5.886,5.886,0,0,0-1.848-.2874l-29.1849.177-.0648-11.676,128.4076-.76Z" fill="#020303"/>
    <path d="M399.8552,487.7456a5.8334,5.8334,0,0,0-5.8,5.8662l0,.0034,1.6538,280.1555a5.8356,5.8356,0,1,0,11.6709-.07h0l-1.6539-280.1533a5.8325,5.8325,0,0,0-5.8635-5.8016Z" fill="#020303"/>
    <path d="M420.6124,50.6152a5.8347,5.8347,0,0,0-5.8013,5.868v.0026l4.2466,717.1414a5.836,5.836,0,1,0,11.672-.0465l0-.0226L426.4828,56.4167a5.8347,5.8347,0,0,0-5.8678-5.8015Z" fill="#020303"/>
    <path d="M446.5429,487.4672a5.835,5.835,0,0,0-5.8015,5.8683v.0022L442.4,773.49a5.8361,5.8361,0,1,0,11.6719-.0692l-1.659-280.152a5.8348,5.8348,0,0,0-5.8681-5.8013Z" fill="#020303"/>
    <path d="M403.9061,167.435a5.84,5.84,0,0,0-5.9071,5.7663L394.0533,493.51a5.837,5.837,0,1,0,11.6732.1415l3.9383-320.3a5.8362,5.8362,0,0,0-5.7558-5.9157Z" fill="#020303"/>
    <path d="M438.702,167.2363a5.8527,5.8527,0,0,0-5.6955,5.9752L440.74,493.4448a5.8407,5.8407,0,0,0,11.6778-.2869l-7.7334-320.2337a5.8334,5.8334,0,0,0-5.9754-5.688Z" fill="#020303"/>
    <path d="M456.1925,144.1473A21.7694,21.7694,0,0,0,439.194,153.41a33.3977,33.3977,0,0,0-6.1737,20.0549,5.8366,5.8366,0,0,0,11.673-.0681h0a22.0265,22.0265,0,0,1,3.8767-13.03,10.2433,10.2433,0,0,1,7.6916-4.5485,5.836,5.836,0,0,0-.0691-11.6717Z" fill="#020303"/>
    <path d="M386.1569,144.56a5.832,5.832,0,0,0,.0609,11.6638c6.3278-.0314,11.7235,7.9618,11.7881,17.45a5.8365,5.8365,0,0,0,11.6728-.0683C409.5694,157.2464,399.2408,144.4907,386.1569,144.56Z" fill="#020303"/>
    <path d="M379.3273,27.5119a5.8592,5.8592,0,0,0-5.51,6.1587l6.5375,117.0488a5.8394,5.8394,0,1,0,11.66-.6574L385.4779,33.0135A5.8467,5.8467,0,0,0,379.3273,27.5119Z" fill="#020303"/>
    <path d="M461.6353,27.0184a5.845,5.845,0,0,0-6.092,5.5813l-5.1509,117.1321a5.8389,5.8389,0,0,0,11.667.5028L467.21,33.1022A5.8478,5.8478,0,0,0,461.6353,27.0184Z" fill="#020303"/>
    <path d="M420.4245,15.583c-36.7534.2216-44.7882,12.6835-46.0078,15.1825a5.9706,5.9706,0,0,0,2.5745,7.9611,5.6889,5.6889,0,0,0,7.6789-2.4007q.027-.0513.0527-.1032c.0482-.0488,6.0978-8.7827,35.77-8.9667,29.3294-.1695,35.6581,8.264,35.6818,8.24l-.0041-.0041a5.84,5.84,0,0,0,10.417-5.2836C465.326,27.7272,457.1821,15.3653,420.4245,15.583Z" fill="#020303"/>
    <path d="M479.3875,120.302l-22.1506.1311a5.8361,5.8361,0,1,0,.0579,11.672l.0112,0,22.1507-.1311a5.836,5.836,0,1,0-.0579-11.6719Z" fill="#020303"/>
    <path d="M479.3521,114.4664a5.8347,5.8347,0,0,0-5.8015,5.8678v.0026l.0691,11.6719a5.8361,5.8361,0,0,0,11.672-.0691l-.0692-11.6719a5.8347,5.8347,0,0,0-5.868-5.8013Z" fill="#020303"/>
    <path d="M479.1791,85.2854l-20.4179.1136a5.8361,5.8361,0,1,0,.0579,11.672l.0113,0,20.4179-.1138a5.836,5.836,0,0,0-.0692-11.6717Z" fill="#020303"/>
    <path d="M479.1458,79.4515a5.8327,5.8327,0,0,0-5.8,5.8652v.0041l.0692,11.6719a5.8361,5.8361,0,1,0,11.6719-.0691l-.07-11.6708a5.8349,5.8349,0,0,0-5.8685-5.8013Z" fill="#020303"/>
    <path d="M478.9547,44.4191a5.8348,5.8348,0,0,0-5.8013,5.8681V50.29l.0692,11.6719a5.8361,5.8361,0,1,0,11.6719-.0691h0L484.8254,50.22a5.8352,5.8352,0,0,0-5.8689-5.8013Z" fill="#020303"/>
    <path d="M478.9841,50.2511l-18.6852.1269a5.84,5.84,0,0,0,.0775,11.68l18.6852-.1272a5.84,5.84,0,0,0-.0775-11.68Z" fill="#020303"/>
    <path d="M384.8194,120.862l-22.1509.1311a5.8361,5.8361,0,1,0,.0594,11.672l.01,0,22.1506-.131a5.8361,5.8361,0,1,0-.0577-11.672Z" fill="#020303"/>
    <path d="M362.6331,115.1592a5.8336,5.8336,0,0,0-5.8,5.8663l0,.0032.0691,11.672a5.8361,5.8361,0,0,0,11.6719-.0691l-.07-11.6709a5.835,5.835,0,0,0-5.8683-5.8015Z" fill="#020303"/>
    <path d="M382.8824,85.8381l-20.4253.1354a5.84,5.84,0,0,0,.0776,11.68l20.4242-.1363a5.84,5.84,0,0,0-.0765-11.679Z" fill="#020303"/>
    <path d="M362.4258,80.1415a5.8352,5.8352,0,0,0-5.8015,5.8687v.0019l.0691,11.6719a5.836,5.836,0,1,0,11.672-.0463l0-.0228-.0691-11.6719a5.835,5.835,0,0,0-5.8683-5.8015Z" fill="#020303"/>
    <path d="M362.2111,45.12a5.8354,5.8354,0,0,0-5.8015,5.8691V50.99l.07,11.6708a5.8355,5.8355,0,0,0,11.6709-.068h0l-.0691-11.6719a5.835,5.835,0,0,0-5.8683-5.8015Z" fill="#020303"/>
    <path d="M380.9227,50.8512l-18.677.1024a5.8361,5.8361,0,1,0,.0511,11.672l.018,0,18.677-.1024a5.8361,5.8361,0,1,0-.0511-11.672Z" fill="#020303"/>
    <polygon points="382.649 487.885 398.635 487.885 403.594 170.472 397.933 158.067 386.528 147.591 380.347 85.854 380.347 39.32 380.347 34.001 396.177 24.626 426.505 24.626 440.565 23.248 463.174 33.724 455.73 150.072 440.291 159.445 438.895 179.271 440.841 202.178 447.407 489.736 458.222 487.406 468.412 491.667 500.945 495.25 535.96 507.106 551.399 527.783 551.399 568.819 546.987 611.872 545.333 657.363 579.797 755.673 593.856 815.891 584.207 872.412 549.745 904.392 498.187 921.486 440.742 926.725 394.054 925.071 350.412 919.832 315.674 909.906 287 894.192 267.424 872.135 256.121 840.429 258.328 796.318 266.047 764.059 286.173 709.502 299.407 670.047 303.543 643.027 299.958 592.849 294.72 549.563 298.303 521.166 313.192 505.726 339.382 496.077 370.978 491.667 382.649 487.885" fill="#020303"/>
  </g>
</svg>
