<svg id="Calque_1" data-name="Calque 1" xmlns="http://www.w3.org/2000/svg" width="30cm" height="33.4cm" viewBox="0 0 850.3937 946.7717">
  <g>
    <path d="M440.4053,827.1876v-.9614a4.1549,4.1549,0,0,0-.24-2.4035c0-.24-1.4421-2.6439-1.4421-2.8843-.24-.4807-2.1632-1.2017-2.644-.24,0,0-.4807.24.4807,4.5667-.4807,0-.721-.24-1.2017-.4808-.24-.24-.4807-.4807-.7211-.24-.4807.9614.9614,2.1631,2.4035,2.8842,0,5.5281,1.2018,10.5756.4807,12.7387-.24.4808-5.0474,2.4036-7.6913,2.1632-1.4421-.24-3.8456,0-4.5667-.721.7211-4.0861.9614-14.6616-6.49-13.2195a5.4565,5.4565,0,0,0-4.086,5.7685c.24,3.1246,2.6439,9.1334,3.1246,8.6527-2.6439,2.1632-6.97,4.8071-7.9317,7.9317a19.964,19.964,0,0,0-.721,6.49V872.374c0,1.4421,0,3.1246.9614,4.3263.721,1.2018,2.6439,1.9228,3.8456.9614,0-6.2492.9614-13.7.7211-19.9493,2.8842,11.0563,1.2018,23.795,2.4035,35.0916a2.182,2.182,0,0,0,.7211,1.6825,1.8141,1.8141,0,0,0,1.9228.24c4.8071-.4807,9.6142-1.2018,14.4213-1.9228a3.4168,3.4168,0,0,0,1.4421-.4807,1.801,1.801,0,0,0,.24-1.2018,87.7,87.7,0,0,0-.7211-15.8633c-.7211-5.5281-4.3264-21.8722-4.086-24.9968.24-1.6825,6.73-3.6053,8.8931-5.0474,1.4421-.9614,2.1632-1.6825,2.1632-3.365C442.5684,838.0035,441.1264,830.7929,440.4053,827.1876Z" fill="#020303"/>
    <path d="M464.2,863.7213a2.3406,2.3406,0,0,1-2.4035-1.9228l-12.258-41.3408c-.9614-5.2878-6.97-9.1334-13.7-9.1334H414.4471c-6.73,0-12.7388,3.8457-13.7,8.8931l-12.4983,41.5811a2.5094,2.5094,0,0,1-4.8071-1.442L395.7,819.0156c1.4422-7.2106,9.1335-12.7387,18.5072-12.7387h21.3915c9.3738,0,17.0651,5.5281,18.5072,12.9791l12.2581,41.1005a2.53,2.53,0,0,1-1.6825,3.1245A.8394.8394,0,0,1,464.2,863.7213Z" fill="#020303"/>
    <g>
      <path d="M468.767,853.8668V924.29a9.6423,9.6423,0,0,1-9.6141,9.6141h-68.26a9.6423,9.6423,0,0,1-9.6141-9.6141V853.8668a2.9226,2.9226,0,0,1,2.8842-2.8843h14.9019a6.4626,6.4626,0,0,1,6.4895,6.49v11.2967a4.3084,4.3084,0,0,0,4.3264,4.3263h30.5249a4.3083,4.3083,0,0,0,4.3264-4.3263V857.4721a6.4626,6.4626,0,0,1,6.49-6.49h14.902A3.0727,3.0727,0,0,1,468.767,853.8668Z" fill="#020303"/>
      <path d="M468.767,853.8668v3.8457h-8.4124c-4.807,0-8.6527,2.8843-8.6527,6.49v11.2966c0,2.4035-2.6439,4.3263-5.7685,4.3263H404.3523c-3.1246,0-5.7685-1.9228-5.7685-4.3263V864.2021c0-3.6053-3.8457-6.49-8.6527-6.49h-8.4124v-3.8457a2.9227,2.9227,0,0,1,2.8842-2.8843h14.9019a6.4627,6.4627,0,0,1,6.49,6.49v11.2967a4.3083,4.3083,0,0,0,4.3263,4.3263h30.5249a4.3083,4.3083,0,0,0,4.3264-4.3263V857.4721a6.4626,6.4626,0,0,1,6.49-6.49h14.902A3.0916,3.0916,0,0,1,468.767,853.8668Z" fill="#020303"/>
    </g>
    <path d="M400.5066,815.6506a1.3178,1.3178,0,0,1-1.4421-.9614l-22.3529-49.0321a1.6123,1.6123,0,0,1,2.8842-1.4421l18.2669,40.62-3.6053-39.6583c0-.9614.4807-1.6825,1.4421-1.6825a1.4389,1.4389,0,0,1,1.6825,1.4421l4.3264,49.0321a1.8074,1.8074,0,0,1-1.2018,1.6825Z" fill="#020303"/>
    <path d="M425.0226,810.1225a1.623,1.623,0,0,1-1.4421-.9614l-16.1037-43.2636a1.52,1.52,0,0,1,2.8843-.9614l12.979,35.0916V765.4168a1.643,1.643,0,0,1,1.6825-1.6825h0a1.643,1.643,0,0,1,1.6825,1.6825v43.2637a1.346,1.346,0,0,1-1.2018,1.4421Z" fill="#020303"/>
    <g>
      <path d="M448.8176,815.6506h-.4807a1.8075,1.8075,0,0,1-1.2018-1.6825l5.0475-49.0321a1.5669,1.5669,0,0,1,3.1246.24l-4.086,39.6583,18.9879-40.3793a1.65,1.65,0,0,1,2.1631-.7211,1.583,1.583,0,0,1,.7211,2.1632L450.0193,814.93A1.3215,1.3215,0,0,1,448.8176,815.6506Z" fill="#020303"/>
      <path d="M425.0226,810.1225h-.24a1.5232,1.5232,0,0,1-1.2018-1.4421V765.4168a1.643,1.643,0,0,1,1.6825-1.6825h0a1.6428,1.6428,0,0,1,1.6824,1.6825v34.6109l13.2195-35.0917a1.52,1.52,0,0,1,2.8842.9614l-16.1037,43.2637C426.2244,809.6418,425.7437,810.1225,425.0226,810.1225Z" fill="#020303"/>
    </g>
    <g>
      <path d="M425.0226,15.9947V705.5688H348.11L335.6112,693.07C200.7729,559.6742,57.2818,426.9991,76.51,233.5145c7.451-75.471,44.7058-125.2241,92.2957-157.4315a279.5027,279.5027,0,0,1,44.7058-24.516,364.0106,364.0106,0,0,1,63.4533-21.1511h0a515.8563,515.8563,0,0,1,65.1358-11.2967h.24a574.4559,574.4559,0,0,1,68.7411-3.1246h0c7.9316-.24,12.7387,0,13.94,0Z" fill="#020303"/>
      <path d="M425.0226,15.9947S151.02-25.8268,135.8774,229.9092c-10.3352,172.0931,121.1382,337.6967,229.0569,475.66h60.0883Z" fill="#020303"/>
      <path d="M425.0226,15.9947S244.0365-23.6637,225.5293,180.6368c-13.7,152.1437,77.6341,361.4915,159.835,525.1723h39.6583Z" fill="#020303"/>
      <path d="M694.94,495.74c-52.8778,74.75-124.7435,141.8086-192.7635,209.8286H425.2629V15.9947h.4807a25.5173,25.5173,0,0,0,3.6053-.24c2.4036-.24,5.7685-.24,9.8546-.24a537.1536,537.1536,0,0,1,68.741,3.3649,526.6973,526.6973,0,0,1,65.3762,11.2966c89.1711,21.6318,187.9564,74.99,200.6951,203.3391C783.63,334.463,749.26,419.0674,694.94,495.74Z" fill="#020303"/>
      <path d="M652.1567,465.9363c-45.9076,85.5659-109.6012,166.565-166.8053,239.6324H425.263V15.9947h.4807a33.3887,33.3887,0,0,1,3.6053-.4808q2.8844-.36,7.9317-.721c9.1334-.7211,23.0739-1.4421,39.6583-1.2018,27.16.7211,61.7709,4.5667,96.1414,16.3441,67.5393,23.3142,134.1172,77.6341,141.3278,199.974C718.9749,310.9083,692.536,390.225,652.1567,465.9363Z" fill="#020303"/>
      <path d="M596.8754,387.3408C565.6294,495.26,513.4727,608.466,464.681,705.5687H425.0226V15.9947h0c.24,0,1.6825-.24,4.086-.7211,1.6825-.24,4.0861-.4807,6.73-.9614a196.9046,196.9046,0,0,1,40.86-.7211,193.0431,193.0431,0,0,1,31.0056,5.0474C558.1785,31.6176,614.6615,71.0356,624.516,180.3964,630.0441,242.4076,618.2668,313.5522,596.8754,387.3408Z" fill="#020303"/>
      <path d="M438.7228,705.8091h-27.16c-34.8512-204.7811-80.5184-410.2833-58.1655-562.6674,13.9405-93.4976,41.5812-120.1768,58.1655-127.3874h0c.7211-.24,1.2018-.4807,1.9229-.721.4807-.24.721-.24.9614-.4808,6.49-2.1631,10.8159-1.4421,10.8159-1.4421a20.5779,20.5779,0,0,1,4.3263,0,29.3858,29.3858,0,0,1,6.49,1.4421c.24.24.7211.24.9614.4808.7211.24,1.2018.4807,1.9228.721,16.8248,7.451,44.225,33.89,57.6849,127.3874,1.6825,12.258,3.1245,24.9967,4.086,37.9758C511.55,328.6945,470.69,517.6123,438.7228,705.8091Z" fill="#020303"/>
      <polygon points="501.936 705.809 486.313 747.39 479.102 765.898 370.943 765.898 348.11 705.809 501.936 705.809" fill="#020303"/>
    </g>
  </g>
</svg>
