<svg id="Calque_1" data-name="Calque 1" xmlns="http://www.w3.org/2000/svg" width="30cm" height="33.4cm" viewBox="0 0 850.3937 946.7717">
  <g id="violin">
    <path d="M585.2538,764.5138c-3.07-8.4414-6.2885-16.7869-9.6154-25.0955-3.3742-8.3468-7.9409-16.7685-8.6977-25.9122a17.8716,17.8716,0,0,1,.9461-7.8337c1.8252-5.02,5.1671-6.1413,3.6973-11.9011-1.0169-4.0121-3.4555-8.3284-8.2269-6.9783-8.0984,2.32-41.8976,18.0431-49.9815-57.8132-8.1084-75.8518,26.6545-61.0707,26.6545-61.0707s7.134,3.2271,10.4707-1.17c3.3217-4.3775-1.4348-7.1524-3.3371-13.1742-1.9058-5.9988-6.1879-13.4121.9461-29.6011,7.1485-16.1844,18.5843-55.9613-1.9111-96.2091-20.4562-40.2526-65.6753-53.66-77.1019-55.0383-11.43-1.3968-43.9164-2.7764-43.9164-2.7764s-32.4669,1.38-43.8837,2.7764c-11.4214,1.3783-56.6543,14.7857-77.1163,55.0383-20.4883,40.2478-9.0578,80.0247-1.9105,96.2091,7.1432,16.189,2.8468,23.6023.9408,29.6011-1.8915,6.0218-6.6485,8.7968-3.3268,13.1742,3.3268,4.3971,10.4805,1.17,10.4805,1.17s34.753-14.7811,26.64,61.0707c-8.0794,75.8563-41.8819,60.1329-49.9625,57.8132-4.7768-1.35-7.219,2.9662-8.2463,6.9783-1.45,5.76,1.8776,6.8811,3.6987,11.9011a18.0726,18.0726,0,0,1,.9783,7.8337c-.7647,9.1437-5.347,17.5654-8.7062,25.9122-3.3518,8.3086-6.5742,16.6541-9.6252,25.0955-17.1391,47.1874,1.9006,114.7166,44.7488,140.63,42.8423,25.8931,115.2909,24.05,115.2909,24.05s72.4722,1.844,115.3343-24.05C583.3578,879.23,602.3889,811.7012,585.2538,764.5138Z" fill="#020303"/>
    <path d="M450.0956,139.31a3.0579,3.0579,0,0,1-3.0555,3.06H398.597a3.056,3.056,0,0,1-3.05-3.06v-.5039a3.0671,3.0671,0,0,1,3.05-3.07h48.4417a3.0687,3.0687,0,0,1,3.0569,3.07Z" fill="#020303"/>
    <path d="M398.8586,143.664a6.5118,6.5118,0,0,1-6.5107,6.5107h0a6.5018,6.5018,0,0,1-6.4928-6.5107v-9.2206a6.494,6.494,0,0,1,6.4862-6.502h.0065a6.504,6.504,0,0,1,6.5108,6.4971v9.2255Z" fill="#020303"/>
    <path d="M450.0956,107.8973a3.0656,3.0656,0,0,1-3.0569,3.0667H398.597a3.0638,3.0638,0,0,1-3.05-3.0667V107.39a3.0617,3.0617,0,0,1,3.05-3.0569h48.4417a3.0634,3.0634,0,0,1,3.0569,3.0569Z" fill="#020303"/>
    <path d="M398.8586,112.2517a6.5072,6.5072,0,0,1-6.5107,6.502h0a6.4971,6.4971,0,0,1-6.4928-6.5014v-9.2114a6.4984,6.4984,0,0,1,6.49-6.5072h.003a6.5085,6.5085,0,0,1,6.5108,6.5061v9.2119Z" fill="#020303"/>
    <path d="M400.29,90.7156a3.0656,3.0656,0,0,1,3.0666-3.0647H451.778a3.0647,3.0647,0,0,1,3.0707,3.0587v.5144a3.0572,3.0572,0,0,1-3.0575,3.057l-.0132,0H403.3647A3.0576,3.0576,0,0,1,400.29,91.24V91.224Z" fill="#020303"/>
    <path d="M451.5258,86.3618a6.5134,6.5134,0,0,1,6.5165-6.5008h0a6.5128,6.5128,0,0,1,6.4971,6.5008v9.216a6.5093,6.5093,0,0,1-6.4971,6.5118h0a6.5107,6.5107,0,0,1-6.5165-6.505V86.3618Z" fill="#020303"/>
    <path d="M400.29,122.1239a3.061,3.061,0,0,1,3.0651-3.0569H451.778a3.0606,3.0606,0,0,1,3.0707,3.0505v.5188a3.0682,3.0682,0,0,1-3.0707,3.0623H403.3647a3.0685,3.0685,0,0,1-3.0746-3.0623Z" fill="#020303"/>
    <path d="M451.5258,117.7639a6.51,6.51,0,0,1,6.5165-6.4971h0a6.5092,6.5092,0,0,1,6.4971,6.4971v9.2271a6.5072,6.5072,0,0,1-6.4971,6.5007h0a6.5077,6.5077,0,0,1-6.5165-6.499v-9.2288Z" fill="#020303"/>
    <path d="M445.5145,63.7055c0,4.3775-4.0029,7.9178-8.9649,7.9178h-22.7c-4.9667,0-8.9651-3.54-8.9651-7.9178V23.3007c0-4.3723,3.9984-7.9231,8.9651-7.9231h22.7c4.9621,0,8.9649,3.5509,8.9649,7.9231Z" fill="#020303"/>
    <path d="M458.9784,53.9713a4.1776,4.1776,0,0,1-3.9445,4.3773H395.3476a4.1663,4.1663,0,0,1-3.926-4.3773V42.0794a4.1814,4.1814,0,0,1,3.926-4.3871h59.6863a4.193,4.193,0,0,1,3.9445,4.3871Z" fill="#020303"/>
    <path d="M438.3884,70.9782H411.7016L405.58,159.03h39.2257Zm-17.1235,77.1492c0,1.0624-.6558,1.9381-1.4546,1.9381h-2.1958c-.8,0-1.4546-.8752-1.4546-1.9381V84.9835c0-1.0978.655-1.967,1.4546-1.967H419.81c.7989,0,1.4546.8692,1.4546,1.967Zm12.9751,0c0,1.0624-.65,1.9381-1.4585,1.9381h-2.2066c-.8074,0-1.4539-.8752-1.4539-1.9381V84.9835c0-1.0978.6465-1.967,1.4539-1.967h2.2066c.8081,0,1.4585.8692,1.4585,1.967Z" fill="#020303"/>
    <rect x="405.2377" y="158.1166" width="39.9102" height="4.1981" fill="#020303"/>
    <polygon points="405.447 162.315 393.226 577.553 425.181 577.553 457.158 577.553 444.953 162.315 405.447 162.315" fill="#020303"/>
    <path d="M335.0846,710.4635c7.0388-1.7875,7.6234-12.4344.2-14.3154a7.1582,7.1582,0,0,0-9.0649,6.0829c-.5131,4.7715,2.5951,9.8859,5.8944,13.08,5.2229,5.0758,13.9251,4.7342,19.4765.722,4.9444-3.574,8.6937-9.43,10.8617-15.0381a55.6125,55.6125,0,0,0,3.0885-13.9547c1.8158-17.415.1478-52.3671,3.1612-59.2968,2.9984-6.9021,3.7493-11.236,7.6518-11.6927,1.6733-.19,4.2309-.4277,5.6841.6465,1.7678,1.3121.4375,2.2429-.2287,3.65-2.1956,4.7439,1.4264,10.5713,6.9257,8.1373,2.9853-1.312,3.1844-4.7908,2.4617-7.529-.9164-3.5174-3.9542-5.6935-7.1906-7.0105-8.0038-3.2264-15.7889.7693-19.8046,7.9611a50.3035,50.3035,0,0,0-5.8569,24.1732l-1.05,36.7594a75.0752,75.0752,0,0,1-1.3975,11.8445c-1.235,6.35-3.07,13.08-7.6516,17.89a11.1446,11.1446,0,0,1-5.0344,3.3841c-1.5721.4186-5.4167.2287-6.5776-1.1412A7.87,7.87,0,0,1,335.0846,710.4635Z" fill="#020303"/>
    <path d="M515.3148,710.4635c-7.0525-1.7875-7.6182-12.4344-.2187-14.3154a7.1607,7.1607,0,0,1,9.0779,6.0829c.5176,4.7715-2.6041,9.8859-5.8842,13.08-5.2419,5.0758-13.9257,4.7342-19.4863.722-4.9385-3.574-8.6937-9.43-10.8709-15.0381a55.9607,55.9607,0,0,1-3.0891-13.9547c-1.7968-17.415-.1472-52.3671-3.1509-59.2968-3.0082-6.9021-3.765-11.236-7.6615-11.6927-1.6733-.19-4.2309-.4277-5.6935.6465-1.74,1.3121-.4277,2.2429.2273,3.65,2.2054,4.7439-1.4013,10.5713-6.9193,8.1373-2.9807-1.312-3.1654-4.7908-2.4564-7.529.921-3.5174,3.9437-5.6935,7.19-7.0105,8.0045-3.2264,15.8.7693,19.8239,7.9611a50.4112,50.4112,0,0,1,5.8379,24.1732l1.046,36.7594a76.03,76.03,0,0,0,1.4157,11.8445c1.23,6.35,3.07,13.08,7.6569,17.89a10.9942,10.9942,0,0,0,5.01,3.3841c1.5781.4186,5.4234.2287,6.5823-1.1412A7.7765,7.7765,0,0,0,515.3148,710.4635Z" fill="#020303"/>
    <path d="M461.83,687.9538a1.7219,1.7219,0,0,1-1.6554,1.7862l-.0219.0007H390.2273a1.7343,1.7343,0,0,1-1.6773-1.7869v-2.1864a1.7682,1.7682,0,0,1,1.6773-1.8253H460.153a1.7555,1.7555,0,0,1,1.6773,1.8253Z" fill="#020303"/>
    <path d="M445.2524,928.2423a2.02,2.02,0,0,1-2.0053,2.0339H407.139a2.0183,2.0183,0,0,1-2.0065-2.03v-8.2735a2.0313,2.0313,0,0,1,2.0065-2.0353h36.103a2.0326,2.0326,0,0,1,2.01,2.0353Z" fill="#020303"/>
    <path d="M457.6993,757.5361H392.68c0,16.6541,18.0029,72.9473,18.0029,72.9473,7.2168,21.1419,0,53.5751,0,78.3284,0,24.7723,14.4974,22.53,14.4974,22.53s14.53,2.2428,14.53-22.53c0-24.7533-7.2253-57.1864,0-78.3284C439.7108,830.4834,457.6993,774.19,457.6993,757.5361Z" fill="#020303"/>
    <path d="M402.6236,763.031c-4.744-37.6247-2.61-110.42-2.5811-111.1429l11.7919-489.5734,1.7969.0473L401.84,651.9269c-.01.722-2.1581,73.3848,2.5655,110.8754Z" fill="#020303"/>
    <rect x="418.0992" y="162.3521" width="1.7876" height="600.5257" fill="#020303"/>
    <path d="M447.7561,763.031l-1.7863-.2089c4.7289-37.492,2.59-110.1633,2.5721-110.8774L436.7544,162.362l1.7952-.0473,11.7932,489.5734C450.3669,652.6108,452.5054,725.426,447.7561,763.031Z" fill="#020303"/>
    <rect x="430.5139" y="162.3619" width="1.7725" height="600.5159" fill="#020303"/>
  </g>
</svg>
