<svg id="Calque_1" data-name="Calque 1" xmlns="http://www.w3.org/2000/svg" width="30cm" height="33.4cm" viewBox="0 0 850.3937 946.7717">
  <path d="M65.8921,438.8016c1.0981,2.0476,2.0551,4.1967,3.31,6.8323.455.9808.0551,1.3178-.8625.7922-9.5544-5.4515-18.3791-10.5109-27.18-15.5314a2.6835,2.6835,0,0,0-3.0594.4238c-.2745.2822-.5256.5566-.7686.8a2.6451,2.6451,0,0,0-.3373,3.091c4.2591,6.9578,8.0871,14.2841,13.2407,20.4733a81.7994,81.7994,0,0,0,17.6494,15.6256c20.0032,13.3273,39.982,26.8114,60.8788,38.64,8.5815,4.8713,19.43,5.7577,29.2664,8.3306,74.975,19.61,56.1019,11.4917,105.2848,59.2633,4.1654,4.0476,7.1383,10.2367,8.4875,15.9316.949,3.8908-.9807,9.1312-3.0986,13.0212-10.66,19.6734-28.1841,32.9773-44.7354,47.1908-1.1606,1.0116-1.1922,3.5529-1.4354,5.4517-1.8435,13.2726-4.2357,26.5051-5.0911,39.8328a66.6865,66.6865,0,0,0,2.7614,23.203c3.0277,9.8916,7.6558,19.3593,12.0723,28.7645,4.6514,9.9937,9.7736,12.66,21.0771,10.786a2.3526,2.3526,0,0,0,1.8985-2.29c-.3059-20.9051,12.8723-34.6872,26.9369-48.5087,15.2256-15.0138,33.0633-15.7824,51.905-12.9585a3.5039,3.5039,0,0,1,2.5729,2.1415c7.6322,23.7444,1.7491,47.6143,1.1685,71.3977-.3057,12.4646-.8941,24.968-.0626,37.3772,1.1926,17.7123-3.9219,33.0633-14.6136,46.7907-5.7029,7.3264-11.1231,8.1187-16.8574.9492-4.9887-6.252-8.6049-13.79-11.8841-21.1715-3.7412-8.3613-8.4007-10.48-13.7032-5.42a1.2522,1.2522,0,0,0,.4624,2.1726c5.7891,2.6986,7.8129,6.338,3.0986,13.3273-1.4119,2.0865-.0627,8.001,2.0786,10.1739,5.1222,5.2085,11.2174,9.4993,17.5634,14.4647.8549.6751.6668,1.4043-.4,1.5923-15.2336,2.5108-28.2547-2.0864-40.5393-9.7424-12.2292-7.6324-23.3207-3.0985-25.5563,9.86-.1571,1.0743.5175,1.506,1.467.9569,3.2235-1.8433,6.5891-3.8357,9.9932-5.7968a3.5777,3.5777,0,0,1,3.0045-.3373,2.4623,2.4623,0,0,1,.8236,2.573c-1.4356,7.6951,3.2476,9.2248,9.562,10.0874,5.7889.7925,11.3661,3.0911,17.1554,4.2831,4.8794,1.0117,9.8364,1.5374,15.1711,3.616,1.0119.369.98,1.0122-.063,1.3181-3.31,1.0118-6.5891,2.0551-9.9228,3.0042-8.15,2.3611-16.5826,4.0789-24.4583,7.2007-6.5263,2.6358-11.06,7.4444-10.5346,14.951a6.1087,6.1087,0,0,0,1.6551,3.3733l1.3726,1.38c.769.7688,1.5062.5178,1.6554-.5491.737-5.8832,1.2-8.6758,11.9853-7.3894,13.1154,1.5925,28.8273-5.64,41.0563-12.9583,12.81-7.6638,24.419-10.9113,38.6088-6.77,7.2013,2.0785,14.7709,3.0277,22.1837,4.1967,1.8356.3061,4.6281.2428,5.6713-.8944,8.9422-9.4679,15.1-5.1143,20.8342,3.8359.6116.9178,1.3176.8552,1.561-.2195,1.9922-9.0993-3.2162-13.8447-9.468-16.0807-6.1576-2.1806-13.9078-3.3415-20.01-1.6236-11.3038,3.2473-19.1477-.3375-25.7055-6.7776a2.529,2.529,0,0,1-.3373-3.0593c14.3393-22.4655,28.31-44.3119,42.2565-66.1577a2.4247,2.4247,0,0,0-.0627-2.8161c-.6119-.6117-.2748-.7688.7059-.3059,1.8357.8237,3.8277,1.71,6.4321,2.8788a1.1552,1.1552,0,0,0,1.7495-1.1687c-.1256-4.8083-.2433-8.9738-.3687-13.3277-.0317-1.0745.6743-1.4353,1.53-.7921,2.0235,1.53,3.9532,2.9651,5.82,4.4086a5.1412,5.1412,0,0,0,3.5293.7686.2307.2307,0,0,0,.1178-.0313,2.2093,2.2093,0,0,0,1.6862-2.3611c-.7373-5.9461-1.498-11.86-2.2356-17.8926a1.58,1.58,0,0,1,1.7181-1.8121c8.856.1885,14.0959-5.2947,12.0408-13.1154-3.3415-12.5272-8.0012-24.7249-11.3662-37.26-1.2627-4.7143-1.0746-9.8288-1.3491-15.0452a1.2812,1.2812,0,0,1,1.7726-1.3727c.8943.2747,1.7493.5492,2.6985.8239,1.0433.3373,1.6551-.2746,1.3806-1.3179-.4628-1.6865-.8862-3.1848-1.2864-4.7142a1.3808,1.3808,0,0,1,1.4354-1.8435c5.06.1881,9.868.3057,15.2022.494a2.78,2.78,0,0,1,2.4786,1.9611c10.2053,36.4285,18.8732,72.7389-10.08,106.6024a2.2488,2.2488,0,0,1-2.91.3375c-3.828-2.7613-8.3305-5.9774-14.3078-10.2368-.8629-.6119-1.561-.2429-1.5062.8238a61.7869,61.7869,0,0,0,.3061,6.3772c.675,3.8594,3.1613,10.2055,1.9061,11.06-3.3732,2.2669-7.8128,2.91-12.0488,3.9219a1.6677,1.6677,0,0,1-2.11-1.4746c-.0627-.612-.1256-1.1926-.18-1.773-.0947-1.0746-.7687-1.2863-1.5062-.4941-1.6862,1.8748-3.4591,3.8673-5.64,6.2207-.6987.8314-.455,1.6863.6117,1.93,4.4164,1.0429,8.0953,1.906,12.2292,2.8864,1.0433.2746,1.2865,1.0981.3687,1.6865-8.3386,5.3264-22.4893-3.0983-25.588,12.6528a1.4858,1.4858,0,0,0,1.6551,1.8042c8.7621-.4864,17.7749.1568,25.8-2.3846,16.8569-5.3342,29.6353-1.5062,40.8446,11.7663,4.5338,5.3261,8.95,13.0212,19.579,8.1188.9806-.463,1.6866-.0316,1.6237,1.0666-.18,3.6477-.3687,6.6518-.5175,9.2874-.0628,1.0747.7058,1.6238,1.6236,1.0118,5.7575-3.6788,7.6009-11.2484,2.4789-18.2925-3.2789-4.5027-8.7935-7.4443-13.5706-10.6917-3.4592-2.3611-7.8442-3.553-11.0289-6.1891-11.1544-9.2875-10.5426-12.2606-.2744-22.1283,10.2917-9.8915,19.4222-21.0145,29.2272-31.4945,1.3493-1.4433,3.2789-2.3611,6.252-4.2281a5.3781,5.3781,0,0,0,2.0551-3.0045c.6434-2.91,1.467-6.8952,2.3846-11.1858a1.0756,1.0756,0,0,1,1.9067-.6434c1.8041,1.5612,3.4907,3.0045,5.3576,4.6282a1.137,1.137,0,0,0,1.9922-.6118,11.663,11.663,0,0,0,.6751-3.6162c-.706-9.0756,3.6476-16.057,8.7619-22.9522,1.0433-1.4119.2747-4.5026-.2118-6.6832-1.3177-6.1266-2.8789-12.19-4.4476-18.6615-.2746-1.0354.3687-1.6236,1.38-1.2235,1.4434.5254,2.91,1.0746,4.7537,1.7492,1.0432.3689,1.5924-.1883,1.2865-1.2238-2.1494-7.02-4.0164-13.1784-6.0714-20.01-.3373-1.0433.1254-1.3492.98-.6751,1.0747.8237,1.9925,1.5608,2.8239,2.2041a3.4434,3.4434,0,0,0,2.6671.8316c.612-.1884.9178-1.2316.6432-2.267q-1.7061-7.0831-3.4043-14.2214A2.9135,2.9135,0,0,1,494.53,677.83c7.2006-4.44,15.32-7.9383,17.8061-18.0811.5177-2.1413,6.4009-5.9689,8.613-7.1066a327.0426,327.0426,0,0,1,46.2028-18.8732c4.1966-1.4119,9.9935,1.137,14.8019,2.6356,16.206,5.0516,32.02,11.6095,48.5006,15.3509,12.7782,2.8789,25.25-1.2234,36.2559-9.1931,13.5076-9.7738,27.8155-18.5045,41.0249-28.6784,15.72-12.1037,30.608-25.3134,45.9042-37.9972,9.2483-7.6874,18.779-15.0451,27.8783-22.9209,9.0444-7.8439,17.8691-15.9943,26.4741-24.3561,2.9727-2.8788,4.9025-6.8323,7.3894-10.268a128.8665,128.8665,0,0,1,7.75-10.3858c3.2162-3.6789,7.6325-6.4637,10.0172-10.5426,1.506-2.5415,1.2864-6.0637.6118-9.5306a6.6736,6.6736,0,0,1,.4941-3.7026c4.7772-9.4131,3.2161-11.1857-6.4322-18.8811-10.174-8.1185-20.042-8.3613-31.1335-3.6158-39.5269,16.92-79.1166,33.7377-118.6119,50.7437-51.0816,21.9718-51.113,23.2582-106.14,20.6854-31.9648-1.4984-63.6478-1.412-95.2678,1.53-1.1058.1255-1.2235-.2746-.3059-.8238,5.5773-3.4358,11.029-7.0206,16.363-10.8171a21.4432,21.4432,0,0,1,3.3966-1.93c9.2561-4.0477,18.3868-8.4248,27.6744-12.4409a36.0746,36.0746,0,0,1,9.3738-2.1178c14.8646-2.0162,26.8113-8.1816,33.2439-22.6072.6745-1.5686,2.487-2.6356,3.8671-3.8359,2.7219-2.3294,6.7381-4.071,8.0246-6.9809,2.8161-6.6524,5.42-12.6921,12.2527-16.7005,1.6-.949.8-6.0086.675-10.6366a3.2616,3.2616,0,0,1,1.8435-2.6986c4.84-2.2905,6.738-6.2439,4.9339-14.3393-1.2554-5.5772,5.6086-12.527,6.7694-19.2417,1.8357-10.66,6.5578-21.2027,1.3179-32.663-2.424-5.3027-1.7179-12.0409-2.5416-18.1045-1.8747-13.8841-2.8787-27.98-6.1262-41.5507-1.3178-5.4281-6.1342-9.9936-9.3817-14.0018a2.3189,2.3189,0,0,1,.22-2.9727l8.4248-8.4324a1.9835,1.9835,0,0,0,0-2.7844c-3.1612-3.1535-6.3459-6.346-9.7425-9.774a1.5173,1.5173,0,0,1,.2746-2.4551,69.8889,69.8889,0,0,0,9.0052-6.37c1.93-1.718,3.6477-4.84,3.553-7.2637-.0314-1.412-3.7025-3.1536-6.0322-3.8907a107.2174,107.2174,0,0,0-11.2171-2.4237c-1.0747-.2119-1.1924-.9181-.3374-1.5613,6.8323-4.934,13.0841-9.4677,19.3044-13.97A3.8611,3.8611,0,0,0,603,238.218a2.8754,2.8754,0,0,0-2.016-2.416c-5.8517-1.5373-11.7664-3.0674-18.049-4.7222-1.0432-.2742-1.2235-1.0745-.4-1.7805,4.44-3.7967,9.099-7.5618,13.4525-11.6722,5.7891-5.4834,5.0831-9.8366-2.6356-11.7976a42.7882,42.7882,0,0,0-18.3553-.7059c-11.4287,2.2982-22.6149,5.828-34.7183,9.1617-1.0356.3062-1.1924,0-.3373-.6429,53.8111-40.8761,56.7526-43.198,57.5761-54.0466.0629-1.106-.6745-1.5924-1.6551-1.137-28.8586,13.79-58,27.7294-87.1724,41.6763-.9805.4862-1.1607.2432-.3688-.5255,28.5921-28.4355,60.4866-53.4974,79.1793-91.2748.4865-.9808.1492-1.2867-.7372-.6432-30.24,21.5085-59.5375,42.3113-88.8276,63.1143a2.3,2.3,0,0,1-2.5107.337c-.4942-.4546-.3687-1.4981.3058-2.3532,8.213-10.48,16.6062-20.8108,24.4819-31.5335,11.829-16.0573,23.7443-32.1144,34.6242-48.783,4.0162-6.1577,5.82-13.7275,8.3619-20.8342a3.3834,3.3834,0,0,0-.7061-3.2477,1.9423,1.9423,0,0,0-2.7468-.0069l-.0376.0385Q519.6784,105.699,479.6105,147.03c-.7689.7686-1.4748,1.2-1.5925.9178a4.3207,4.3207,0,0,1,.8236-2.173c13.947-23.2893,28.1922-46.3591,41.6136-69.9545,8.0246-14.0958,7.0755-29.7529,4.5341-45.2291-.1178-.7608-.7376-1.4668-1.8985-2.4161-.8315-.675-1.6236-.3059-1.7806.7687-4.84,41.5116-36.3342,65.3578-61.1531,93.9105-.7061.8316-.9258.7059-.5256-.3057,11.672-27.5176,21.2969-55.184,12.99-83.6191-.3062-1.0432-.9179-1.0746-1.2866-.0627-6.37,16.8257-12.009,35.4242-20.74,52.4619-8.8874,17.3436-20.8656,33.1491-32.3573,49.3007-.6432.8864-1.0746.7373-1.0118-.3686,1.961-30.6395,6.8949-61.4047-11.829-89.1023-.58-.8941-1.0435-.7373-.9491.361.5489,5.9773,1.3177,11.9853,1.4118,17.9551.3924,25.3445-5.2713,49.2146-14.59,72.896-12.9273,32.9774-25.3368,66.3387-28.9529,102.0689a118.3,118.3,0,0,1-2.7928,13.727c-.2116,1.0749-.8548,1.1689-1.4354.2432-2.73-4.4713-5.1457-8.456-8.2441-13.5389-.5492-.9178-1.3492-.8627-1.7494.1491-1.655,3.7731-3.3651,6.5265-3.1535,9.1075.8551,11.2722,1.4436,22.7953,4.1969,33.675,4.4713,17.7046,10.7542,34.93,15.9,52.4543.8,2.6669,1.1689,5.3339,2.4871,7.3263a3.5884,3.5884,0,0,1,.675,3.0591c-.3689.9181-.675,1.6241-.675,1.6241q-.5062,1.5648-1.0119,3.13a1.8752,1.8752,0,0,1-2.3517,1.2254q-.0485-.0153-.0958-.033c-1.7173-.6751-3.4356-1.3495-5.06-2.0864-3.0354-1.373-7.844-1.318-9.1617-3.5222-7.1069-12.009-16.6691-11.4287-27.9177-6.9576-1.0039.4313-1.6785-.0865-1.4666-1.1607,1.4118-7.9069,3.1217-15.1711,3.5848-22.5207.2429-3.8279-1.3179-7.75-2.4241-11.64a1.855,1.855,0,0,0-2.2442-1.3585q-.071.0176-.14.04a104.92,104.92,0,0,0-11.5861,3.9534c-2.0864.9493-3.828,2.7218-6.22,4.8084-.8237.7373-1.561.4-1.53-.706.3686-13.6332,7.35-26.6547-.6119-39.9269a1.7166,1.7166,0,0,0-2.6043-.4313c-3.4983,2.8552-6.6517,5.428-10.1425,8.2753-.863.6751-1.5689.3689-1.5689-.7371-.1176-9.5542-.2118-18.41-.3058-27.2351a3.0565,3.0565,0,0,0-1.7409-2.6357,3.16,3.16,0,0,0-3.0986.7374c-6.432,6.4322-12.8643,12.8331-19.2729,19.2731-.7611.7608-1.6867,1.0984-2.0554.73a3.4362,3.4362,0,0,1-.243-2.6046q3.812-17.6959,7.6323-35.3613a2.9812,2.9812,0,0,0-1.2554-2.9652c-.3375-.1882-.6431-.3686-.9805-.5882a2.9669,2.9669,0,0,0-3.1927.2746c-4.4085,3.6477-9.1854,7.02-12.77,11.3739-10.3628,12.59-20.1674,25.6742-30.1527,38.5777a2.2534,2.2534,0,0,1-2.6674.7922,2.1815,2.1815,0,0,1-.8-2.6357c1.6-4.3142,3.0982-8.699,4.9967-12.8643,6.5264-14.2841,13.5153-28.3488,19.7987-42.7509,1.2236-2.753.8861-6.1888.1175-9.8915a1.2454,1.2454,0,0,0-2.0786-.7686c-23.87,17.3122-33.3141,46.0216-54.6033,66.1264-.8.7376-1.2317.4856-.9493-.58,1.4354-5.734,2.5416-11.6485,4.7772-17.069,7.8129-18.818,16.3631-37.2912,24.0815-56.11,1.5376-3.7023,1.4122-8.1187.8944-12.5584a1.3071,1.3071,0,0,0-2.0237-1.0745c-14.2845,7.57-21.5088,20.8026-30.0907,32.5688-8.3695,11.5234-15.6018,23.9012-23.2576,35.9735-.58.9257-1.5611,1.4748-2.2043,1.2317-.6433-.2511-.8944-1.3178-.5883-2.3608l26.3251-88.773a2.2385,2.2385,0,0,0-1.2237-2.6592c-.3059-.157-.6435-.2824-.9493-.4313a3.5083,3.5083,0,0,0-3.3418.4627c-27.6114,23.1953-33.9493,60.267-55.89,88.3332-.6744.8631-1.2.6436-1.2-.4547.0627-5.6086-.3923-11.3743.8943-16.7,5.3027-22.3718,11.6095-44.5235,16.8494-66.8954,1.3176-5.6.706-11.6408.706-17.524a2.9437,2.9437,0,0,0-1.8357-2.6353c-.0311,0-.0626-.0314-.0938-.0314a3.1434,3.1434,0,0,0-3.1847.8314c-3.3732,3.6477-7.0835,7.1068-9.6562,11.2722-17.1239,27.729-25.3057,58.9882-34.35,89.8708-1.6551,5.7027-2.8162,11.5545-4.5656,18.9045-.243,1.0747-.8236,1.137-1.2554.1254a78.5038,78.5038,0,0,1-5.7577-44.8921q3.86-25.8276,7.8443-51.6618c.5175-3.4908,1.1606-6.9815,1.8042-10.48a2.1928,2.1928,0,0,0-1.5613-2.4475,5.9344,5.9344,0,0,0-.6116-.157,3.4077,3.4077,0,0,0-3.1848.9805c-2.91,3.2791-6.3145,6.3462-7.7894,10.1427-6.5256,17.1-12.8016,34.35-18.0727,51.8814-4.11,13.8135-6.7774,28.0665-9.9935,42.1312a2.8382,2.8382,0,0,1-1.8357,2.1726c-.7686.157-1.5294-.6116-1.6863-1.6862q-5.7421-33.9578-11.4286-67.9308a2.6692,2.6692,0,0,0-2.2985-2.0864c-.18,0-.3683-.0237-.58-.0237a2.7369,2.7369,0,0,0-2.6354,1.6786c-2.024,5.24-4.5026,10.4247-5.4518,15.8451-5.0909,28.8039-4.2044,57.7252.8864,86.3488,8.5189,47.6452,25.4623,92.3812,48.0771,135.069Z" fill="#010101"/>
</svg>
