<svg id="Calque_1" data-name="Calque 1" xmlns="http://www.w3.org/2000/svg" width="30cm" height="33.4cm" viewBox="0 0 850.3937 946.7717">
  <path d="M371.25,476.1227l-10.3711-.0883a10.0528,10.0528,0,0,0-8.55,4.4437l-14.7266,13.981a10.64,10.64,0,0,0-2.7591,4.3232l-42.8315,34.8339a32.5364,32.5364,0,0,0-19.4829-5.67,78.2458,78.2458,0,0,0-10.09.7861c-26.918,3.449-49.1283,2.1014-70.2793-4.1949-1.6282-.5059-8.27-2.8884-15.9459-5.6469C138.9884,505.52,127.7754,501.846,124.11,501.846a7.09,7.09,0,0,0-6.4247,4.3556l-.9387,2.5423a6.6136,6.6136,0,0,0,.2169,4.949,6.5317,6.5317,0,0,0,3.6655,3.2886L173.7365,535.91a13.73,13.73,0,0,0,1.6283,9.2079c4.2027,7.1147,14.2609,10.2747,32.5885,10.2747,1.0991,0,2.19,0,3.2568-.0318a12.7544,12.7544,0,0,0,1.5959.3128,88.5584,88.5584,0,0,0,12.8815-.024c7.1468-.3772,14.51-.1929,21.841-.0323,9.5529.1846,18.48.3689,29.0435-.0964,10.7158-.4729,22.6831-1.0024,33.431-8.1489-2.92,3.73-5.7352,7.4272-8.494,11.061-3.6014,4.7644-7.1708,9.4322-10.748,13.8837-15.9778,19.9242-29.5171,38.2518-41.3556,56.0183-1.9088,2.88-3.6974,6.1438-5.4539,9.304-2.8478,5.2056-5.8233,10.5636-9.2081,14.0045a25.6826,25.6826,0,0,1-4.5479,3.385c-3.9785,2.5666-9.4248,6.08-11.1808,14.3174-2.1013,9.8414,2.7594,18.8008,6.6735,26.0037,1.0346,1.9167,2.07,3.7934,2.88,5.6145,2.92,6.2643,5.67,12.6249,8.4622,18.9855,1.9412,4.4191,3.85,8.8629,5.8311,13.2827l13.3466,29.701q10.8042,24.0632,21.5842,48.1254c2.19,4.9248,4.2273,10.4033,6.3608,16.2024,5.7029,15.5683,12.16,33.2066,24.5919,43.9544,27.2632,23.63,55.994,46.1521,85.4146,66.9585a6.406,6.406,0,0,0,8.0528-9.93,330.4329,330.4329,0,0,0-26.3486-21.28c-4.7964-3.6014-9.5608-7.2028-14.197-10.9324-13.7239-10.9967-20.3008-19.3624-29.5492-32.02l.0965-.1923a6.3606,6.3606,0,0,0,.2244-5.1332c-2.3261-6.0156-4.6121-11.9991-6.8981-18.0148-10.62-27.7285-21.584-56.4272-35.3719-84.035-9.2722-18.5123-18.3922-37.5058-27.2311-55.8977q-5.065-10.6118-10.21-21.2072c4.6361-19.9317,17.0762-38.0029,28.0729-54.0447,9.0235-13.13,19.0816-25.98,28.7952-38.42l5.0129-6.4168c2.0375-2.6066,4.0748-5.1734,6.1361-7.74-6.1679,29.14-1.1548,55.8977,14.9511,79.5833,11.2772,16.5715,28.2582,28.009,50.4754,33.9606a144.6273,144.6273,0,0,0,37.6583,5.1413l1.2831-.0321,1.476.0321a144.5706,144.5706,0,0,0,37.6257-5.1413c22.2181-5.9516,39.1984-17.3893,50.4755-33.9606,16.1057-23.6857,21.1191-50.4434,14.9432-79.5833,2.0692,2.5669,4.1384,5.1337,6.1438,7.74l5.0131,6.4168c9.7134,12.44,19.7717,25.29,28.7951,38.42,11.0286,16.0418,23.4691,34.113,28.0728,54.0447-3.4165,7.05-6.8016,14.1328-10.2182,21.2072-8.7991,18.3919-17.951,37.3854-27.2231,55.8977-13.7878,27.6079-24.7523,56.3065-35.34,84.035-2.2858,6.0156-4.58,11.9991-6.93,18.0148a6.3612,6.3612,0,0,0,.2565,5.1332.5809.5809,0,0,0,.0561.1923c-9.2078,12.6573-15.8172,21.023-29.5093,32.02-4.636,3.73-9.4327,7.331-14.197,10.9324a336.7438,336.7438,0,0,0-26.3806,21.28,6.4147,6.4147,0,0,0,4.3553,11.117,6.57,6.57,0,0,0,3.73-1.1872c29.3884-20.8063,58.1515-43.3288,85.4065-66.9585,12.4083-10.7478,18.8973-28.386,24.6-43.9543,2.1255-5.7991,4.1306-11.2774,6.3285-16.2025q10.7559-24.1107,21.5843-48.1572l13.3467-29.7014c1.973-4.3876,3.9222-8.8311,5.831-13.2506,2.7914-6.3605,5.5427-12.7212,8.4621-18.9855.8422-1.8206,1.845-3.6976,2.88-5.6144,3.9142-7.2028,8.775-16.1623,6.6734-26.0353-1.757-8.2058-7.2027-11.7188-11.1891-14.2854a26.9838,26.9838,0,0,1-4.5077-3.3849c-3.4169-3.4409-6.3606-8.7989-9.24-14.0363-1.7243-3.1279-3.513-6.3926-5.4541-9.2722-11.8463-17.7665-25.346-36.0942-41.3556-56.0183-3.5453-4.4516-7.1144-9.1518-10.7159-13.8838-2.7912-3.6337-5.6067-7.3311-8.5263-11.0609,10.7481,7.1465,22.7794,7.676,33.9044,8.1813,9.4888.409,19.05.2486,28.57.032,7.2428-.1285,14.5418-.3129,21.8409.0643a86.0126,86.0126,0,0,0,12.9377,0,13.5425,13.5425,0,0,0,1.5721-.2888c1.0587,0,2.1254.0318,3.2244.0318,18.3276,0,28.3858-3.16,32.5809-10.2747a13.323,13.323,0,0,0,1.6362-9.2079l53.1062-18.9291a6.2877,6.2877,0,0,0,3.6656-3.3207,6.3774,6.3774,0,0,0,.2166-4.9169l-.9385-2.5668a6.9769,6.9769,0,0,0-6.3926-4.3312c-3.6656,0-14.8786,3.6737-52.1035,17.0443-7.6762,2.7591-14.3487,5.1416-15.9459,5.6468-21.1512,6.2959-43.3689,7.644-70.2793,4.1629a83.6934,83.6934,0,0,0-10.09-.754,32.5112,32.5112,0,0,0-19.4908,5.67L515.57,498.782a10.3938,10.3938,0,0,0-2.7912-4.3233l-14.6947-14.0043a10.22,10.22,0,0,0-8.6464-4.4191l-10.2826.0642v-.0642c-.0884-4.2911-.1525-8.59-.281-12.8813l2.6953-.6578a21.01,21.01,0,0,0,6.144-1.9734l3.0719-1.596c36.9365-19.4266,75.1-39.4788,112.4769-59.6274,7.6758-4.1306,15.0072-8.8952,22.1538-13.499a10.4389,10.4389,0,0,0,5.7029-1.3476c7.4272-2.4463,13.25-8.3016,17.8545-17.8947,4.1067-8.5822,7.9-17.3893,11.5661-25.9394,1.8446-4.227,3.6656-8.43,5.5106-12.657a10.23,10.23,0,0,0,.6255-6.8337c-.1845-4.7,11.4055-21.833,15.7609-28.29,2.4786-3.6338,4.5478-6.7054,5.703-8.7106,13.3788-23.1242,13.3466-45.4952,13.2826-69.18v-4.9169a6.993,6.993,0,0,0-2.4705-4.5158,7.7518,7.7518,0,0,0-5.1094-1.8768c-6.3285,0-6.513,2.2219-8.462,23.6536-.401,4.6041-.9385,10.3067-1.123,11.2772-1.572,6.457-4.7643,11.9432-8.5263,18.2718l-2.0365,3.5372c-4.7884,8.2694-10.0823,16.7-15.6969,25.5947-16.3868,26.0678-33.3669,53.018-40.3851,81.34-3.4169,2.0694-12.9378,5.9834-16.7638,7.58-2.7834,1.1314-4.9809,2.0694-5.9514,2.5423l-83.4012,41.6686c3.0719-3.9784,6.1361-8.1171,9.0233-12.3122,9.7454-14.1649,19.3306-28.7311,28.5706-42.7995,7.9569-12.1276,15.9214-24.2229,24.0626-36.19a180.1267,180.1267,0,0,1,13.9716-17.0134c16.8918-19.0173,37.8825-42.6709,23.878-70.2792a11.8573,11.8573,0,0,0-1.187-1.8768c-.2887-2.318-.6576-4.4516-1.0667-6.4571-5.9275-27.76-12.6007-57.3331-20.4293-90.4513,1.6282-31.1451-14.9428-54.8628-30.96-77.7626l-.7462-1.0671c-8.7107-12.4719-17.6379-24.8162-26.6051-37.1927L518.6986,10.0687a6.4238,6.4238,0,0,0-10.78,6.9541L518.73,35.6635c8.4942,14.67,16.9482,29.3323,25.2258,44.0828,1.7486,3.1039,3.6656,6.1761,5.5743,9.28,1.1872,1.941,2.3826,3.8823,3.5372,5.8233a13.104,13.104,0,0,0,1.5721,2.6629c3.5374,6.2965,5.4783,11.0927,6.2966,15.6406,7.612,42.0456,14.1328,85.0617,20.4613,126.6742,1.6922,11.0848,3.3527,22.1774,5.069,33.2384-4.8849,4.5717-9.3925,11.6221-14.3811,19.9237-1.66,2.7271-3.1279,5.2058-4.3555,6.8982l-28.6347,39.8556q-29.4162,40.931-58.5927,82.0857a51.1932,51.1932,0,0,0-5.2615,9.7454,28.0631,28.0631,0,0,0-11.1492-14.1328c-1.9812-1.2834-2.4783-1.9731-2.5107-5.4862-.2486-15.9137-12.16-27.223-27.1023-24.6885a6.406,6.406,0,0,0-4.917,8.6465l4.1307,10.5951-8.7345-.3449-8.2137.3449,4.14-10.5951a6.54,6.54,0,0,0-.4093-5.5106,6.43,6.43,0,0,0-4.5076-3.1361c-14.9509-2.5344-26.8862,8.7748-27.1025,24.6885-.0321,3.5131-.57,4.2028-2.5105,5.4862a27.976,27.976,0,0,0-11.1491,14.1328,52.6355,52.6355,0,0,0-5.27-9.7454q-29.14-41.1711-58.5845-82.0856L282.708,299.8875c-1.219-1.7244-2.6949-4.171-4.355-6.8981-4.9811-8.3016-9.4889-15.352-14.3816-19.9238q2.5387-16.5915,5.0773-33.2383c6.2959-41.6125,12.8494-84.628,20.4613-126.6742A49.6918,49.6918,0,0,1,295.4612,98.05c.0323-.032.69-.9708.7221-1.0026a11.4167,11.4167,0,0,0,1.1872-2.23c1.1629-1.9408,2.35-3.85,3.5451-5.791,1.9089-3.104,3.8178-6.1761,5.5426-9.28,8.2692-14.7505,16.7633-29.4125,25.2577-44.0828L342.488,17.0228a6.4055,6.4055,0,0,0-10.74-6.954L320.43,25.7012c-8.9594,12.3765-17.8865,24.7206-26.5971,37.1928l-.7542,1.0671c-16.0415,22.9-32.613,46.6175-30.9524,77.7625-7.8364,33.0862-14.51,62.6914-20.4294,90.4514-.4411,2.0055-.786,4.14-1.0666,6.457a11.9944,11.9944,0,0,0-1.2194,1.8768c-13.9722,27.6079,7.0185,51.2616,23.87,70.2792a180.8228,180.8228,0,0,1,14.0045,17.0126c8.1174,11.9673,16.0739,24.0626,24.0387,36.19,9.2723,14.0683,18.8574,28.6347,28.5705,42.8,2.9115,4.1949,5.9515,8.3337,9.0234,12.3122l-83.4019-41.669c-.9465-.4732-3.1679-1.4117-5.9275-2.5423-3.8177-1.5965-13.3788-5.5105-16.7555-7.58-7.05-28.3218-24.0066-55.2721-40.3931-81.34-5.6069-8.8952-10.9326-17.3253-15.6969-25.5947l-2.0616-3.5373c-3.73-6.3286-6.9613-11.8147-8.4939-18.1432-.1846-1.099-.7221-6.8016-1.1314-11.4057-1.9412-21.4317-2.1254-23.6537-8.454-23.6537H155.44a6.3429,6.3429,0,0,0-4.54,1.8768,6.4264,6.4264,0,0,0-1.8849,4.5479v4.885c-.064,23.6857-.12,46.088,13.2905,69.18,1.155,2.0052,3.2242,5.0771,5.67,8.7106,4.3792,6.4567,15.9775,23.6214,15.8492,27.977a10.6126,10.6126,0,0,0,.5617,7.1465c1.8525,4.227,3.6737,8.43,5.4863,12.6569,3.6974,8.55,7.4911,17.3893,11.59,25.94,4.6118,9.5931,10.4354,15.4484,17.83,17.8947a10.2124,10.2124,0,0,0,5.7347,1.3475c7.1146,4.6361,14.4779,9.3684,22.1537,13.4991,37.3453,20.1485,75.541,40.2008,112.477,59.6274l3.04,1.5959a20.3559,20.3559,0,0,0,5.831,1.9093l3.0319.7219c-.12,4.2909-.1844,8.59-.2807,12.8813v.0884Z" fill="#010101"/>
</svg>
