<svg id="Calque_1" data-name="Calque 1" xmlns="http://www.w3.org/2000/svg" width="30cm" height="33.4cm" viewBox="0 0 850.3937 946.7717">
  <path d="M703.0534,41.34c-1.8094-5.8431-5.0213-10.5408-11.8023-12.2591,6.3908,11.7363,3.2451,22.9245-2.0749,33.1664-5.6689,10.9311-9.2712,13.7447-20.5838,11.0886C682.3369,46.4608,678.4443,22.4,656.01,1.8492a15.0834,15.0834,0,0,0-.0582,7.42c1.1613,4.5069,2.7223,8.89,4.0177,13.33a33.4646,33.4646,0,0,1-2.7553,26.36c-4.1832,7.4533-10.5742,8.59-16.99,3.0463-3.1787-2.7887-6.0671-6.0342-9.5282-8.3331-12.55-8.2-24.6093-16.9235-34.4031-28.4354a32.21,32.21,0,0,0-4.1832-3.6023l-1.8176,1.1371c2.988,7.6525,5.9677,15.3383,9.08,23.3146-2.4981-.5564-4.64-1.0375-6.7728-1.5274a8.9236,8.9236,0,0,0,2.6562,5.677c3.8925,3.7933,7.81,7.62,11.96,11.1221,14.8817,12.6077,25.0655,27.9787,27.2983,47.6919a148.7352,148.7352,0,0,1,.6557,23.4718c-.3235,6.5821-.4568,13.7115-3.1124,19.48-8.5987,18.65-18.26,36.8017-27.5973,55.12-.6473,1.2035-1.9087,2.1079-4.1168,4.44,0-13.421.7475-25.1238-.1908-36.7022-.9129-11.47-2.5314-23.0818-8.8808-33.2575a10.0845,10.0845,0,0,0-.8468,4.3077c-.4564,16.5-.2241,33.1-1.585,49.5418-1.5274,18.1188-6.1668,35.3986-20.2685,48.4716-9.1382,8.4577-18.2185,17.0146-27.4893,25.3146-1.2033,1.0374-3.5357.8142-5.3536,1.17a21.0861,21.0861,0,0,1-.423-5.0547c1.2035-7.5529,3.1125-15.0147,3.8261-22.634,1.4606-15.2383,2.3406-30.5435,3.378-45.8069a23.5387,23.5387,0,0,0-.9792-4.6727c-6.059,13.2631-10.7317,25.29-12.0264,38.2292-1.7179,16.89-5.0545,33.0334-15.2383,47.2012-1.9088,2.6313-2.2328,6.6151-2.5568,10.051-.4894,5.154-2.73,8.5238-7.5275,10.632a59.6268,59.6268,0,0,1-36.0218,3.7349c-5.8015-1.1369-10.0428-3.1788-13.13-8.3333-4.2747-7.1709-8.2334-14.8235-13.844-20.9161-7.5532-8.2-13.8694-16.6331-15.7865-27.8794a72.233,72.233,0,0,0-1.9088-8.2334c-3.536-12.2591-7.1712-24.4848-10.7651-36.7021-.7136.1244-1.3942.2574-2.1082.4153-.1327,21.4963,2.4652,42.8353,6.7727,65.2043-3.6269-2.8219-6.0918-4.8308-8.6568-6.7807-12.8979-9.8518-23.7627-21.231-27.9787-37.6067-1.9423-7.6195-4.05-15.2056-5.8683-22.8581-2.1078-8.8807-3.984-17.7948-5.9673-26.6841-6.7728,15.0144-1.5192,30.32-2.4569,45.7824-8.7231-14.9149-18.0274-29.6306-24.4848-45.4835-8.0342-19.8121-10.2087-40.404-1.3615-61.2449,4.283-10.018,11.288-17.4465,17.9611-25.4888,3.5357-4.2415,5.2869-9.9517,8.3331-16.0442h-7.5529c2.4652-13.0062,6.2249-25.4811,5.7105-38.7108a9.7391,9.7391,0,0,0-4.1833,3.6269c-7.0384,11.0558-14.01,22.1773-21.0733,33.2328-5.4532,8.4661-10.8314,17.0231-16.6664,25.2569-4.0834,5.8346-8.59,7.0714-14.2676,4.5065,1.7513-3.337,3.5027-6.6147,5.2209-9.8849-.4235-.2909-.8135-.59-1.228-.88-3.1457,2.3075-6.2914,4.6066-9.7939,7.138a33.3354,33.3354,0,0,1-5.0628-23.7046c1.7263-11.7692,4.1245-23.4389,6.0332-35.2082a86.761,86.761,0,0,0,.523-9.6611l-1.95-.49a39.8211,39.8211,0,0,0-3.337,5.1877c-4.4073,9.76-8.466,19.6787-13.0972,29.3148-7.7189,15.9774-6.1918,31.15,2.7887,46.1642,1.8093,3.0459,1.9755,7.0715,3.2368,10.5409,2.208,6.1253,4.5072,12.2505,7.1047,18.2515,4.0177,9.3375,9.6281,17.9942,8.8809,28.95-1.3615,20.1018,3.9592,38.1957,18.5172,52.5877,13.1885,12.973,26.6423,25.7134,40.62,37.8726,15.496,13.4873,31.7724,26.1279,47.592,39.2916,3.793,3.1458,7.1374,6.9058,10.64,10.4082-11.736-3.1124-22.2768-7.8186-33.2662-10.9643-11.5782-3.337-20.9486-9.0055-27.5886-19.09-.6473-1.0043-2.1745-1.4606-3.2786-2.1743-.7136,1.3277-2.2328,2.8219-1.9755,3.9255.9046,3.8514,1.6849,8.0344,3.7931,11.2468,9.2044,13.9437,18.5418,27.8543,28.5266,41.242,4.3493,5.8349,9.603,11.9932,15.886,15.1388,4.9965,2.5317,10.4415,3.76,13.7529,8.69,2.2658,3.3369,4.0178,7.0717,6.0259,10.5659,4.8967,8.5984,5.6436,17.1225-.2573,25.58a7.8435,7.8435,0,0,0-1.2281,2.7558c-4.8052,19.9446-9.47,39.9471-14.3673,59.85a10.499,10.499,0,0,1-3.2452,5.5114c-8.0342,6.3906-17.1142,10.5739-27.5222,11.1216-22.7581,1.27-45.5162,2.6309-68.2834,3.6023-4.6984.1907-9.4953-1.2037-14.2591-1.9174-3.345-.5145-6.8144-1.9755-10.018-1.5187-13.0976,1.842-26.1031,4.2494-39.1672,6.4487-4.54.7475-9.5036.49-13.5214,2.3075-10.0177,4.565-20.2267,9.1715-29.1821,15.4628-11.1468,7.8763-25.871,11.18-32.8091,24.6669-.3572.6558-1.228,1.0375-1.8759,1.5274-12.5828,9.37-19.1978,22.6334-22.8581,37.2831-4.025,16.21,1.8179,32.2946,2.0423,48.5045a2.1534,2.1534,0,0,0,.1579.5808c4.8052,21.9863,10.7649,43.807,14.0764,66.009,2.9463,19.7456,3.1789,39.9144,4.15,59.917.8384,17.28,1.0709,34.5942,1.4859,51.9074a21.1744,21.1744,0,0,1-.4813,7.1964c-4.7311,14.5245-8.4329,29.6388-15.0479,43.2839-5.0544,10.4412-7.3867,19.97-6.482,31.581,1.0043,12.8981-1.2619,26.0618-1.7847,39.1007-.3234,8.4248-.033,16.8571-.033,25.29-2.4652,15.0726-1.1954,22.4678,20.6251,18.8322,21.82-3.6269,30.2779,10.898,27.2653-6.0587-3.0461-16.99-21.1067-25.5479-21.1067-25.5479-1.0706-1.4939-3.2122-3.1452-3.0132-4.4486a87.2219,87.2219,0,0,1,3.4037-13.3879q6.4119-20.43,13.13-40.7528c3.0126-8.9472,6.0006-17.9606,9.6607-26.6175,10.1761-23.8953,20.6834-47.658,31.1246-71.429,5.6441-12.8979,10.051-26.4519,20.07-38.1215,5.9673,8.6569,9.3042-2.0752,13.6781-1.0707,9.8272,6.648,5.511,16.99,6.6152,25.6135,1.17,9.2375,1.0043,18.8655-3.8594,27.7214-8.9474,16.21-17.0482,32.9341-26.4519,48.8867-5.1543,8.7232-5.1213,16.1509-.7475,24.9661,8.3328,16.6993,17.0894,33.3323,23.1817,50.87,3.2119,9.271,9.9842,15.9192,13.13,24.9326,1.718,4.117-5.5114,20.1686,5.3781,17.762,10.9311-2.3655,36.3787,4.2165,36.9928,0,.6225-4.1748-4.2415-22.4346-16.9484-30.8922-12.7486-8.4992-12.4831-36.0877-12.4831-36.0877-4.0919-18.5091,1.7761-34.0712,13.6116-48.1479,6.8392-8.1338,13.8446-16.2761,19.3888-25.29,5.8349-9.5947,10.051-20.1935,14.9813-30.3441,1.4282-2.88,2.9795-5.7022,4.3741-8.6239,1.8508-3.8594,4.6728-5.9924,9.113-5.478a2.8865,2.8865,0,0,0,1.1953,0c9.5366-3.0126,18.8739-.614,28.3108.6808,4.6984.6807,9.6279-.1,14.359.39,1.9087.2243,4.7971,1.7847,5.2536,3.3369,7.6858,27.0744,16.857,53.8249,18.6084,82.3518.39,6.3908,4.1167,12.5492,5.8347,18.8986,1.5606,5.81-.614,11.7113-.0992,17.67l1.4936,16.9571s-6.615,33.8467-2.1744,34.66c4.4488.8142,15.7615-2.0086,22.6339,1.2037,6.8392,3.2369,22.7912-1.5937,22.7912-1.5937C468.1,908.5782,449.4254,894.8,449.4254,894.8c-.1992-13.6861-.9712-27.3644.0914-40.9847.4564-5.9012,3.8592-11.57,4.2161-17.4713.39-6.457-.78-13.097-2.0422-19.5211-2.4319-12.45-6.225-24.6425-7.91-37.15-1.5519-11.4456-.9044-23.1815-1.4938-34.76-.2574-4.9635,1.6265-8.01,5.7436-10.9559,11.7361-8.4991,36.503-9.0471,47.9815,2.5228,1.6849,1.7264,5.644,1.17,9.9187,1.56a1.2474,1.2474,0,0,1,1.17,1.1371c4.3409,33.3573,8.8145,67.8269,13.3212,102.6782.1335.9045,7.1711,27.6553,3.76,31.3816-1.8756,2.0087-.8048,6.715-.4812,11.5123.0668,1.0043-7.752,16.5666,1.942,28.0785,9.6943,11.5035,42.4126,10.3085,42.4126,10.3085s-1.2038-6.0674-4.25-19.3885C560.7927,890.3845,556.02,889.87,556.02,889.87c-4.15-6.7477-3.6932-12.5491,1.4276-17.9941-.1244-1.0042.1327-2.432-.4148-2.888-5.5775-4.54-3.6356-10.3089-3.3119-16.1109a220.95,220.95,0,0,0-.3237-22.2437c-.8462-20.7159-3.27-41.5-2.2989-62.15.7721-17.0561,5.9345-33.8467,8.4575-50.87,1.6849-11.5119,2.432-23.2149,3.1126-34.8512.4564-8.3,2.4982-15.5289,8.3-21.8868a71.0659,71.0659,0,0,0,9.6278-14.7487c2.3075-4.4073,3.2454-9.5368,5.486-13.9772,7.0634-13.9687,13.9026-27.8794,8.0012-44.1548a5.1941,5.1941,0,0,1-.1246-1.2037q-2.2909-23.1941-4.5732-46.3629c-.49-4.9884-1.5853-10.0509-1.3944-15.0063.357-8.2,2.3655-16.3756,2.2077-24.543-.3235-14.0765-.1658-28.4352-3.1788-42.0555-3.4028-15.4293-9.271-30.4772-15.4959-45.0934a364.4067,364.4067,0,0,0-21.8866-43.1259c-5.478-9.3045-4.8972-18.2849-2.9218-27.7467.49-2.2743,2.5316-4.4736,4.3493-6.1585,7.91-7.2374,16.99-13.4293,20.26-24.5512a23.4805,23.4805,0,0,1,4.3825-8.4245c7.5527-8.7894,15.5871-17.2139,23.2066-25.97a63.6006,63.6006,0,0,0,7.8847-11.3127c1.0042-1.8511.4813-4.5069.6808-6.8144-2.3738.2989-3.345.78-3.7931,1.5272-5.0629,8.4908-12.8732,12.8068-22.02,15.9525-11.3789,3.8926-22.4342,8.7814-33.6475,13.1968a33.3869,33.3869,0,0,1-5.287.8716c3.0461-3.8929,4.83-6.8062,7.1957-9.1382,7.7856-7.5861,15.6954-15.1143,23.7627-22.41,11.0556-10.018,22.5011-19.6459,33.49-29.7632,11.7112-10.7317,22.8-22.1694,34.6938-32.71,18.2264-16.1431,26.0367-36.0547,22.7913-60.0412-1.9421-14.4,4.8305-25.1654,13.0393-35.54a89.52,89.52,0,0,1,10.6985-11.4455,15.53,15.53,0,0,1,8.0675-3.76c5.6438-.5148,6.4906-1.9087,4.1831-7.23a12.9465,12.9465,0,0,1-.614-8.2c2.9215-9.7275,6.2249-19.3225,3.0127-29.5975Z" fill="#010101"/>
</svg>
