<svg id="Calque_1" data-name="Calque 1" xmlns="http://www.w3.org/2000/svg" width="30cm" height="33.4cm" viewBox="0 0 850.3937 946.7717">
  <path d="M671.9755,28.8568c-26.9164,11.3363,42.0669,57.8038,51.6013,86.1914,21.2773,59.95,36.039,128.5315,22.2744,191.9251.5054,14.2163-4.5433,54.0967-6.9,67.3022-3.4254,19.3052-13.8361,62.0834-36.9289,67.3065-2.5848.5769-17.3824-5.8357-18.8491-6.5334-128.6517-62.5708-415.2386-52.9114-438.47-87.3227-6.2026-8.7158,10.652-62.2222,14.2519-72.6864,7.5619-21.8006,7.4235-57.2627,10.7774-71.5326,3.251-13.8,6.01-50.3626-3.8593-57.3163-8.595-6.0595-24.65,23.6563-28.4548,29.2462l-28.8438,36.142c-4.2079,2.5846-8.4877,3.5774-12.6957,5.782l-4.9817,3.4569c-10.1109,2.6384-17.0826-6.8287-28.49-3.8408-3.1974.8183-9.5386,4.1186-13.4157,3.8408-10.3922-.7691-14.0106-16.7339-18.8671-23.46-10.8131-14.99-19.162-34.9565-32.7163-47.3216-4.91-4.4719-10.0976-7.1819-15.7411-11.144-13.3263,6.18-21.4294,33.4678-16.175,54.62,2.0975,8.3.3355,6.7795-1.1537,13.8361l1.1537,25.7677c1.31,7.1774,8.6309,28.9957,11.5468,40.0006,2.674,9.8875,5.0129,24.0007,9.2435,33.0878,1.4668,3.1974-.5227,6.6.3845,9.6055C94,339.6722,99.1206,366.0831,97.4079,391.2062c-.4875,7.6469,2.7056,18.3572,4.2617,25.7626v10.76L97.81,449.2693c-2.41,8.7695,1.0817,18.9162,2.3031,25.7677-.5411,18.6525,7.1818,52.9429,14.6231,69.2253,9.3461,20.37,26.9345,41.678,41.924,56.9321,11.81,12.034,25.244,24.9934,38.8519,35.0061,4.226,3.09,23.8576,21.5544,23.8576,24.5953,1.4355,3.5463,5.5408,6.6721,7.2848,10.3928,3.9308,8.4383,5.0666,17.6415,9.9947,25.3825l3.8592,8.0851c1.2075,5.0309,3.7207,9.5028,5.7465,15.0076l3.108,3.0545,2.2716,8.09c3.6357,8.4564,7.8078,18.867,11.144,27.3009,6.1845,15.5131,9.3284,33.262,14.6411,48.8422,3.9844,11.7208,4.959,25.4854,7.2845,38.8518.7157,3.8057,1.3775,14.1493-.7334,15.7546-2.0793,1.0641-5.1739.1074-8.0716.7693a20.1425,20.1425,0,0,0-11.5644,8.09c-1.4488,2.2365-11.8058,29.2062-11.1262,31.5269,4.9955,17.6641,41.96,18.867,60.72,12.3156,10.3928-3.5953,6.4619-16.6623,8.8728-28.4726l3.828-12.2976,2.7055-17.6954c1.9944-2.88,5.1024-4.1409,8.4921-5.7643.6976-6.1487-3.6356-11.51-2.3254-18.4643l2.692-35.7574V775.0206c3.6492-22.3416,3.1439-48.9137,7.3341-73.84,2.6562-16.1389,1.7127-31.5491,4.1947-46.1678.8049-4.5435-1.8337-8.1921-1.1539-11.5285,5.38-24.4748,102.21,22.3593,118.8542,30.3775,8.7158,7.5978,37.2957,22.4982,51.9189,33.4676,18.0262,13.5723,47.6884,23.0394,60.7686,40.77,3.6,4.8567,10.7639,20.2131,5.7643,28.8572-6.6005,11.51-28.07,25.8879-38.8474,34.608-4.874,3.9624-7.88,11.0545-14.6053,13.08-8.349,2.4818-15.1775-3.0364-21.17-4.2437-7.0924-1.4132-30.9366,14.2384-33.07,18.4643v.3848l2.3076-.3848c.872,6.462,3.39,18.6389,8.8407,21.17,4.1545,1.905,8.8187-1.0466,13.465.7512l2.6921,3.0945c7.7182,3.4391,18.8669-1.7663,23.4595-3.0945,5.2591-1.5338,10.0082,1.8694,15.0034-.3667l7.3205-7.7007,19.9849-11.5469,6.1847-5.3844c31.9651-19.578,61.8016-39.4416,78.45-74.22l1.5339.3844c-.3131,2.1823-.939,2.8442,0,4.2259,2.7637,3.6671,7.3742,5.5182,8.8231,10.7774,2.8127,10.026-14.4263,50.8321-18.08,59.6015-2.0795,5.0488-6.2875,20.1952-9.99,22.695-5.9922,4.0693-18.0441,1.744-23.8441,4.2258-4.9281,2.1286-15.3391,14.9362-18.4645,19.6183l.4024,1.9184c5.0488,1.1539,5.4467,10.0618,8.0495,13.8538,5.6615,8.1211,22.78,7.4952,32.3191,3.8415l3.8592,3.4614c11.0055.0486,32.0054-14.2566,34.6259-21.1567,1.2924-3.4388-1.52-5.2723,0-8.4519,3.98-8.577,12.1725-15.2849,16.1033-24.613,7.3742-17.2615,10.9513-37.05,18.08-55.7774l11.5643-22.306c3.81-9.2739-.1386-17.9766,3.09-27.69,1.8871-5.7955,7.5128-12.7673,5.3662-20.3832-1.7484-6.2563-9.628-10.8131-13.8361-15.0078-5.6435-5.572-9.0511-11.8774-13.836-18.4466-4.7851-6.4977-18.2186-27.44-7.7182-33.8523,10.0931-6.06,12.7316-19.0413,17.7093-28.07,10.7638-19.4437,24.8592-34.7823,28.4592-56.5472.5769-11.703.7154-25.4495,3.0542-36.9111,2.1514-10.5137-3.98-26.657,6.954-58.0624.0715-.21,20.5617-44.0037,20.7541-44.25,2.7054-5.5363,3.8949-10.9877,5.3974-15.7725,5.8852-9.99,9.6237-50.8857,8.8364-64.981C788.18,302.9,796.9676,41.3652,671.9778,28.8571Z" fill="#010101"/>
</svg>
