<svg id="Calque_1" data-name="Calque 1" xmlns="http://www.w3.org/2000/svg" width="30cm" height="33.4cm" viewBox="0 0 850.3937 946.7717">
  <g>
    <path d="M459.1036,248.5238h-8.1172a1.0421,1.0421,0,0,0-.9152.68,69.253,69.253,0,0,0,9.0321.9152.8022.8022,0,1,0,.1723-1.5951.8134.8134,0,0,0-.1723,0Z" fill="#010101"/>
    <path d="M833.8984,791.9314c-.3283-1.1029.223-1.5131,1.1848-.9152a.1722.1722,0,0,0,.094.0357c.9619.6451,1.5129.2345,1.1961-.8677-6.1463-21.6292-17.7351-40.2205-24.8783-60.7942-.3754-1.1027-.14-1.2435.5864-.3285,1.5131,2.0174,3.0732,4.0821,4.6333,6.1464.68.9146,1.3723,1.56,1.56,1.4663.129-.0938-.2346-.962-.7859-1.971q-12.8442-21.5178-25.7-43.0705c-.551-.962-.7387-1.971-.3163-2.2055.3637-.27,1.2316.2817,1.9237,1.2435,1.8766,2.5688,3.7534,5.1729,5.63,7.7882.692.9152,1.3721,1.654,1.5129,1.56.1877-.0475.0468-.88-.2346-1.7948-.3165-.9618-.41-1.9236-.129-2.1466.2228-.2342,1.0557.223,1.83,1.0556,3.8473,3.8942,7.6947,7.8708,12,12.2694.7859.8326,1.0087.6451.4222-.3634-.9618-1.736-1.8415-3.3431-2.6624-4.81a3.6339,3.6339,0,0,1-.6919-2.3808c.2345-.2348,1.15-.0941,2.0644.5981,4.762,3.2958,9.5362,6.2751,14.5681,9.8059.9618.6337,1.3841-.3282,1.0085-1.2431-.41-.9618,2.3461-2.475,1.29-2.6982-5.1844-1.0556-9.63-7.8818-9.63-7.8818-7.2842-11.5539-16.4451-22.2279-23.5413-33.8631a147.805,147.805,0,0,1-20.0693-51.6334,57.8133,57.8133,0,0,1-.7859-6.9672c-.0476-1.15-.3636-1.4665-.5512-.6923-.176.7861-.6336.5512-1.0087-.5394-4.6218-13.1958-9.02-25.852-13.3717-38.4494-.4108-1.1028-.6452-2.0178-.5046-2.1a5.4187,5.4187,0,0,1,1.1026,1.7353c1.8767,3.7067,3.7066,7.425,5.5831,11.1314.5046,1.0087,1.1029,1.7948,1.3258,1.7479.1875-.0938.1406-.9153-.1291-1.8886a12.2142,12.2142,0,0,0-.6451-1.6892c-11.3661-22.3563-22.6851-44.8067-34.3676-67.0345a47.5851,47.5851,0,0,0-9.067-11.9171c-10.9085-10.3458-22.2277-20.2923-33.2183-30.5088-3.894-3.6244-7.4246-7.6947-11.1783-11.5065a40.6126,40.6126,0,0,0-6.0992-5.5831c-14.9786-9.8059-28.3152-21.0783-39.4935-35.33-14.85-18.9668-35.142-31.6582-55.3053-44.2555a122.42,122.42,0,0,0-14.8378-8.5276c-6.92-3.0731-14.0287-6.3223-21.359-7.554-10.5332-1.7473-21.4423-1.2432-32.0218-2.6625a117.2344,117.2344,0,0,1-22.5445-5.8647c-17.5-6.0525-34.7784-12.7384-52.2316-18.8262-11.46-4.035-17.923-14.0283-26.4853-21.4531a3.7548,3.7548,0,0,1-1.0555-1.924c-.3638-1.0908-.4107-2.193-.1411-2.4277.2813-.27,1.3374-.082,2.346.4224,2.7914,1.372,5.5831,2.7913,8.61,4.2576,1.0087.5046,1.2783.176.5978-.7389-.7388-1.0087-1.4189-1.9706-2.1113-2.8855a4.7984,4.7984,0,0,1-1.0556-2.0644c.1411-.223,1.0556,0,2.1112.4693,4.6686,2.1463,9.3958,4.3048,14.0639,6.4042,1.0557.5044,2.1113.6919,2.2873.5044.2815-.2227-.035-1.1845-.6332-2.1936-.5512-.8677-1.15-1.8768-1.9236-3.12-.645-.9619-.2345-1.4193.8211-1.0088,7.5654,3.0262,14.2512,5.6887,20.89,8.2928,1.0557.4575,1.9705.6924,2.0643.5513.0475-.1407-.727-.7271-1.7353-1.2314-5.7356-3.0735-11.4128-6.1465-17.1369-9.1726-1.0091-.5395-1.7007-1.2787-1.5132-1.6423.1762-.3634,1.1846-.3634,2.2875,0,2.3338.7742,4.68,1.56,7.0138,2.3345,1.1029.3634,2.0647.4572,2.1935.2342.0938-.2814-.504-1.0556-1.4193-1.7948-.5512-.5045-1.1494-.962-1.7353-1.4193-.8677-.7275-1.5134-1.6069-1.4663-1.9238.0938-.3167,1.0908-.4105,2.24-.2694,1.6072.2226,3.2141.4573,4.95.68,1.1495.1406,1.3721-.3169.5041-1.0561-.5041-.41-1.0084-.82-1.5131-1.2782-.9146-.7271-.8208-1.7829.2817-2.1581,6.5453-2.3812,12.4565,1.1493,19.0133,2.2049,1.1379.1881,1.279-.27.3641-.9152-6.2283-4.3986-12.0113-8.4336-17.7354-12.4684-.9147-.6336-1.642-1.2787-1.6065-1.4192a4.8763,4.8763,0,0,1,2.0174.5511l10.7211,4.3987c1.1022.4105,2.064.5516,2.205.2817.1407-.2817-.5517-.9618-1.5135-1.56-4.2575-2.6625-8.48-5.2667-12.7379-7.93-.9618-.5982-1.701-1.2787-1.6541-1.56.0942-.27,1.056-.2226,2.1582.0938,1.0556.3168,2.1585.6451,3.3429.9618,1.1029.3169,1.56-.2694.9152-1.1966-4.7154-6.7325-13.1958-7.9636-18.7792-13.1957-.833-.7736-.5513-1.1846.5513-.8209,1.0906.3637,2.24.7392,3.6133,1.1967,1.1026.3634,1.2431.082.3283-.5986-.5982-.5043-1.1963-.9145-1.748-1.3723-.9146-.6919-.727-1.3369.4106-1.372,1.56-.1411,2.9793-.2349,4.54-.3287,1.1495-.0937,1.1846-.4574.0938-.8208-1.9709-.6922-3.7181-1.29-5.4081-1.8771-1.1022-.3752-1.9237-.88-1.8765-1.1025.0476-.2345,1.0084-.3169,2.1464-.0938,3.0265.5985,6.0523,1.056,9.0788,1.4194.5513.0468,1.138-.5983,1.7829-.9153a1.7045,1.7045,0,0,0,.4572-2.5218c-.4107-.3168-.3634-1.2314,0-1.9236a24.4214,24.4214,0,0,1-12.8787-5.9586c-.8215-.7742-.54-1.4193.6447-1.3255,1.0087.0475,2.0178.0938,3.1672.1875,1.1376.0476,1.1845-.2813.1289-.7388-.1762-.0938-.41-.1758-.5863-.27-1.0556-.4575-1.0556-1.15.0469-1.56,4.3047-1.56,8.7034-3.1669,13.1019-4.762,1.0557-.4109,1.8768-.9152,1.83-1.1967-.0475-.27-1.056-.5512-2.2054-.5981a7.4607,7.4607,0,0,1-.9969-.0468c-1.1494-.0357-1.5134-.8212-.7858-1.7362,1.3721-1.83,2.615-3.4367,3.7536-4.9026a2.4009,2.4009,0,0,0,.0934-2.9328c-.41-.5512-.7738-1.1024-.68-1.513a5.4911,5.4911,0,0,1,3.1539-2.9788,62.9383,62.9383,0,0,0,7.6478-2.6506c1.0084-.5044.88-1.0556-.27-1.1025-6.8262-.3164-13.6531-.6919-20.4795-1.0088-1.1495-.0468-2.1585-.3632-2.2051-.7742-.0357-.3751.3751-.9264.9264-1.2432.54-.3167.082-.727-1.0556-.9618-1.15-.27-2.3343-.5044-3.4837-.727-1.15-.2348-2.0647-.6451-2.0647-.9619,0-.2817.9152-.5984,2.0647-.6922,2.5687-.1877,5.1726-.3633,8.1518-.5982,1.1494-.0468,1.1494-.27,0-.504-4.856-.8215-9.3015-1.5958-13.7-2.3814-1.1376-.1876-2.0995-.6451-2.0995-1.0088-.0468-.3637.8212-.8677,1.9233-1.1029l1.3728-.3164c1.1376-.27,1.2314-.9152.223-1.5131-8.1056-4.7619-16.3512-9.571-25.6526-15.0256-1.0088-.5982-.8677-.9618.2694-.8209,7.2022.8677,13.5713,2.4277,19.4361-.4223.997-.5044.8677-1.1849-.2813-1.3724-2.1116-.3637-4.3985-.7743-6.6391-1.138-1.15-.1876-1.97-.5977-1.7948-.88.141-.27-.6332-.7738-1.736-1.0907-3.39-1.0556-6.7326-2.1116-10.1225-3.1672-1.1024-.3633-1.97-.9619-1.8882-1.4189.0467-.4578,1.0084-.8677,2.1578-1.0091,2.5687-.2227,5.1379-.4575,7.7416-.6919,1.1494-.082,2.0175-.3637,2.0175-.54,0-.2341-.9146-.5509-2.064-.7388-2.98-.4571-5.9589-.9146-8.9264-1.4189-1.1494-.188-2.0643-.6455-2.0174-1.056,0-.4575.9152-.9152,2.0529-1.1025,1.9351-.27,3.8585-.5867,5.7355-.8677,1.138-.1761,1.5952-.7274.962-1.1844a3.4315,3.4315,0,0,1-1.1967-1.7012c-.0938-.4573.786-1.0556,1.8768-1.3251,7.9755-1.9708,15.9992-3.9884,24.4682-6.1,1.102-.27,1.102-.41-.0476-.27-9.9816,1.0556-12.5972,1.2318-13.7825.0476-.7856-.833-.14-2.2523.8677-2.7568,2.3346-1.0906,4.54-2.3341,4.0352-5.7709a2.6085,2.6085,0,0,0-2.6625-1.9237c-1.8768.0938-3.9879.188-6.1347.4575-7.9763,1.009-8.6679,1.1025-11.73-4.7154a1.923,1.923,0,0,1,.9152-2.7094c3.53-1.6419,7.0024-3.2961,10.5332-4.9383,1.0556-.4689,1.7948-1.1022,1.7007-1.3839-.1406-.3168-1.1025-.223-2.2054.2345a54.419,54.419,0,0,1-7.7881,2.7456c-3.4841.832-7.4717,3.4826-10.3106-1.3258-.2226-.3166-.9615-.27-1.4193-.41-15.4831-5.1847-31.0127-10.3107-46.4608-15.53a30.8763,30.8763,0,0,1-7.8818-3.8587c-.9152-.6337-.68-1.185.457-1.138l1.1963.0941a4.0251,4.0251,0,0,0,2.24-.2348c.1406-.1876-.5863-.8208-1.5951-1.3252-4.035-2.1585-8.0706-4.2583-12.105-6.3691-1.0439-.5516-1.7829-1.15-1.6889-1.3259.0465-.2341,1.0556-.3283,2.1932-.1875.3287.0475.6451.0938.9618.1409,1.15.0821,1.1964-.1875.1408-.6453-8.9383-4.0349-18.6027-8.4335-28.409-12.879-1.0556-.4575-1.8295-1.1844-1.7354-1.5951.0938-.4223,1.1024-.6922,2.24-.6454,2.475.1407,5.044.27,8.246.4107,1.15.0468,1.15-.0938.0468-.3638-1.8768-.4105-3.4367-.7388-5.0318-1.1021-1.1026-.27-1.1963-.8677-.1876-1.42,4.903-2.5218,9.3953-4.856,13.6529-7.0611,1.0091-.5047.9152-.8211-.2341-.6335-5.5366.9622-11.1318,1.83-16.7149,2.792-1.1494.1876-2.1585-.0941-2.2522-.5047-.1289-.41.3286-1.2787,1.0091-1.7006.6915-.4579.3281-1.3725-.7743-1.5951-3.0265-.5981-5.9117-1.9236-8.7971-2.5222,0,0,7.5067-2.24-3.3431-3.8-10.1814-1.4193-18.8848-5.2315-27.4944-10.8145-6.9673-4.4929-15.4007-7.1554-23.4587-9.7591-9.6184-3.0734-19.5181-5.2315-29.277-7.8826-3.6717-.9618-7.1554-2.8852-10.8147-3.2957a102.2708,102.2708,0,0,0-13.4771-.1876,6.7328,6.7328,0,0,1-3.7536-1.1966,5.3446,5.3446,0,0,0-2.8386-1.4662c-20.2572-.3637-40.4553,0-60.161,5.2781-3.9413,1.0556-7.554,3.2022-11.4131,4.4923-1.5012.4929-3.8.68-4.903-.14-4.023-2.9327-7.7415-6.2757-11.4946-9.5832-1.7361-1.5131-3.39-3.0616-5.0909-4.6685-.8209-.7739-1.7829-1.2433-2.0994-1.0556a3.2642,3.2642,0,0,0-.5986,2.2519,8.2942,8.2942,0,0,0,.1879,1.8753c.9619,3.6595,2.1,7.3307,3.2023,10.9435,2.1935,7.6128,2.1581,7.4717-5.4081,9.9-3.2488,1.1022-6.7325,2.3339-9.2543,4.4929-3.2961,2.8854-6.7328,2.6981-10.5333,2.5687-3.261-.1411-6.5567.3167-9.8059.3633A63.2767,63.2767,0,0,1,27.854,57.7309a4.3837,4.3837,0,0,0-1.7829-.41,1.6379,1.6379,0,0,0-1.7948,1.7829,3.8688,3.8688,0,0,0,.4575,1.7829c4.1289,6.4629,8.4807,12.6562,16.0817,15.6707a65.9828,65.9828,0,0,1,11.8233,6.51c6.6036,4.2579,8.0706,9.3957,5.9121,16.9494-3.2961,11.46-7.0027,22.8724-9.114,34.6023-1.0087,5.63,1.2313,11.8585,2.1113,17.7695.3637,2.7563,1.5485,5.4081,1.5012,8.1167a265.3041,265.3041,0,0,1-10.8028,70.096c-1.15,3.8943-1.9354,7.8827-2.6625,11.2252-.2349,1.1026-.7274,2.5219-.9152,3.2138a4.438,4.438,0,0,0,0,2.5572,8.011,8.011,0,0,0,.9618,2.1585c.27.5041.68,1.196.8677,1.6065a7.6528,7.6528,0,0,0,.4577.6805,50.6553,50.6553,0,0,0,3.765,4.6331,2.6123,2.6123,0,0,1,.1758,3.2022c-.5977.7389-1.1494,1.4663-1.7829,2.1582a4.8234,4.8234,0,0,0-.9618,1.7829,19.772,19.772,0,0,0-.4575,2.3342,1.4381,1.4381,0,0,0-.0938.3752,4.6858,4.6858,0,0,0,1.56,3.6133c4.3986,2.6156,8.9739,4.9967,13.8289,7.5654a1.1858,1.1858,0,0,1,.1408,2.1935c-.41.3283-.8209.5982-1.2318.9152a1.4834,1.4834,0,0,0-.0938,2.5219c4.8564,3.39,10.0761,3.1668,15.53,2.3343,2.5687-.4107,5.2667,0,7.8823-.0357,1.1494,0,2.7913.27,3.39-.3755,3.7063-3.8,8.2924-4.1641,13.2427-4.7622,6.8262-.8208,12.8317-9.2074,11.87-16.1282-1.2436-9.1139,1.3724-15.9874,7.7884-22.9079,5.3131-5.8178,8.0587-14.0169,12.234-20.9372a11.0092,11.0092,0,0,1,5.079-4.3046c3.1669-1.2435,5.8648-.0475,6.7325,3.4719,2.1584,8.7148,5.6891,17.3714,5.8648,26.1217.3286,13.0551-1.3255,26.2507-2.932,39.27-1.7829,14.6621-9.1144,27.0251-17.2665,39.0361-9.2075,13.5126-14.4859,28.1277-11.6,45.0887,1.56,9.1609,1.7473,18.6031,2.1578,27.94a6.9453,6.9453,0,0,1-2.6506,5.325c-26.1685,14.9783-48.9357,34.4026-71.8082,53.78-3.8476,3.2607-8.2462,5.7828-11.9525,9.1258-9.7591,8.6561-10.9557,19.8813-8.7034,31.8457a23.1281,23.1281,0,0,0,2.6506,7.8354c6.8269,10.7211,7.1078,22.0394,4.1759,33.9451-4.5866,18.4155-8.7972,36.9718-13.5713,55.3987a17.4963,17.4963,0,0,0,1.9355,14.4275,90.6031,90.6031,0,0,1,12.3641,32.3038c1.7948,9.6652,7.061,17.5,12.6444,25.2891,4.3514,6.0523,8.1637,12.4684,12.3278,18.6031,3.4833,5.1373,6.9673,6.5566,12.3742,3.6712,4.4454-2.3813,9.1144-5.5481,11.8237-9.618,7.6006-11.4132,9.6184-24.3391,7.0024-37.8048a14.9224,14.9224,0,0,0-3.3895-7.3779c-6.7332-6.92-13.7-13.6532-20.9846-19.9754a13.28,13.28,0,0,1-3.7531-16.0342A33.2962,33.2962,0,0,0,59.29,587.0743a105.3105,105.3105,0,0,0,.1288-13.2895c0-1.1495.7857-1.56,1.701-.8677,6.8263,4.95,11.87,10.58,13.0083,18.228,2.1577,13.8877,10.7211,20.0224,23.2361,23.9635,21.758,6.8266,43.5752,12.3278,66.612,11.5069,10.6855-.364,10.8147.2227,10.0408-10.58-1.15-15.7645-8.9858-28.5493-18.4155-40.5137a7.1521,7.1521,0,0,0-4.8562-2.4281,116.2742,116.2742,0,0,0-15.5418,1.1967c-1.6419.2226-3.155,1.8765-4.481,3.0732-2.5687,2.2873-4.9968,4.6681-7.6592,7.19-.8677.821-1.924.7742-2.4285-.047a12.8774,12.8774,0,0,1-.8207-1.5131c-3.6244-9.0667-3.6244-9.2543-12.9728-9.2543a17.72,17.72,0,0,1-15.6241-8.7971c-7.3307-12.14-13.7821-24.7846-20.1982-37.3823-.9152-1.7478-.1407-4.9968.9618-6.8739a39.1441,39.1441,0,0,1,7.2373-9.3949,11.1084,11.1084,0,0,1,6.9673-2.5691c21.1134-.8212,42.2848-.774,63.3631-2.1463,19.1544-1.2435,38.2146-3.8592,57.2755-6.0993,2.4281-.27,5.4069-1.3727,6.8735-3.12,4.9968-5.8179,10.627-5.6769,16.8555-2.7913,12.234,5.7237,24.2918,11.87,36.7018,17.1364,17.829,7.5654,36.1033,14.1576,53.9794,21.6766,34.3206,14.4271,71.1985,18.6027,107.1261,26.6141,7.5536,1.7011,15.389,2.2989,23.1776,3.12,3.4833.3633,6.0055,1.9236,6.8735,5.2666,1.2314,4.6328,2.9321,9.395,2.9321,14.11.0475,17.1368,5.0909,32.6669,13.4311,47.376a105.1494,105.1494,0,0,1,7.788,15.7645c4.4454,12.1867,2.3812,23.5057-5.8644,33.5816-16.0817,19.6587-34.9661,36.5255-54.0735,53.0648-5.8648,5.1256-11.7765,10.263-17.2188,15.7526a13.3553,13.3553,0,0,0-3.53,7.8c-1.056,15.3894-2.6624,30.65-7.331,45.4876-3.39,10.6386,1.1845,19.94,5.4893,29.1947,3.6716,7.8827,7.4717,15.718,11.73,24.644a1.318,1.318,0,0,0,2.2989.3283c4.8087-5.2312,9.3011-9.7591,13.2895-14.7558a91.9842,91.9842,0,0,0,16.8086-34.3206c1.0556-3.7532.2345-8.2928-.6335-12.2808-1.0557-4.9968-3.4837-9.7121-4.4453-14.7558-.3287-1.7361,1.5949-5.2667,3.2022-5.7711,6.4629-2.0642,8.7972-7.5535,12.504-12.2808,7.0611-9.1139,15.26-17.4068,23.2361-25.84,8.5158-9.02,18.65-15.7176,29.7345-21.4417,11.823-6.1343,23.142-13.2426,34.3206-20.4795,2.7918-1.7829,4.6213-4.9971,6.8736-8.1062a2.6761,2.6761,0,0,1,3.155-.7857c8.8441,4.3986,15.495,12.0113,20.0227,22.45,9.0317,20.6206,5.407,40.0913-4.07,59.0115-8.5742,17.1838-18.0049,33.957-27.13,50.8594-5.5838,10.3572-14.4276,17.5125-23.8228,24.1512a25.95,25.95,0,0,0-7.1435,6.6389c-12.1516,18.38-21.77,38.0742-30.755,58.1436-2.3811,5.3248-1.9706,6.92,3.9411,7.706a129.4718,129.4718,0,0,0,22.2743.8212c12.6449-.5513,24.6444-3.6712,34.6379-12.14,7.5536-6.4161,11.9167-14.3452,11.0373-24.5618-.082-.5043-.047-1.0556-.129-1.56-2.0174-9.3485.3169-15.6707,10.5333-18.7323,7.6943-2.3461,11.87-9.4426,15.26-16.3161,9.806-19.8345,19.0135-40.0448,29.0894-59.7508,7.9291-15.389,16.6792-30.38,25.3475-45.3114,5.7239-9.9,11.7649-19.6119,18.005-29.1833,6.0875-9.2542,4.481-17.5943-1.1495-26.438-7.5656-11.8237-14.2513-24.1514-21.3479-36.2444-6.2751-10.6743-3.4367-21.5826,3.2491-29.6406,16.9494-20.4914,24.7848-45.4519,36.4676-68.5479.9264-1.83,1.4658-3.8005,2.4278-5.6887.5043-1.0087.9618-.8677.8326.2813a22.3922,22.3922,0,0,0-.3283,3.8477c.7388,16.1278,1.7007,32.2561,2.2052,48.3844.2227,7.6006-1.3255,15.3536-.5045,22.861,1.2316,11.2718,3.8,22.45,5.865,33.6285a43.4786,43.4786,0,0,0,1.8765,7.5654c.4107,1.1026.7388,1.0086.5984-.1407l-.4108-4.2579c-.0938-1.1494.0475-1.1494.27-.0469,4.4453,18.1924,8.4807,36.42,18.4156,52.6423.598.9619.8321.88.4692-.223-.1875-.4571-.3284-.9618-.5043-1.4193-.3754-1.1022-.0941-1.29.6331-.3751,5.689,6.9673,11.1316,13.7469,17.2779,21.3125.7271.9152,1.5131.7273,1.736-.4107.1406-.6915.2343-1.2432.3753-1.8412a1.5668,1.5668,0,0,1,2.2873-1.1849,57.8862,57.8862,0,0,1,7.6,3.7066,70.8214,70.8214,0,0,1,7.7065,5.9586c.8677.7388,1.5952.6924,1.5952-.0938,0-.7743.3754-1.3723.7859-1.2314a2.68,2.68,0,0,1,.7272.41,147.13,147.13,0,0,1,32.491,36.0568,110.6692,110.6692,0,0,0,21.5823,24.9256c3.1083,2.6624,5.6771,5.7707,9.1138,8.2456.9152.6919,1.2317.3755.692-.6336-.832-1.4189-1.7006-2.85-2.5216-4.2693-.5982-1.0088-.9153-1.9238-.7391-2.0529.1878-.14.9618.411,1.7009,1.279,2.24,2.5687,4.5276,5.2193,7.0959,8.1517.7391.9153,1.1493.6919.9618-.4574a.2675.2675,0,0,1-.0469-.1762c-.223-1.1493.3283-1.5131,1.29-.88,5.49,3.9883,10.7679,7.7415,16.3983,11.8233.9152.6451,1.7472.2817,1.83-.8676.1406-2.1585.2815-3.8942.3752-5.5014.0822-1.138.5045-2.1113.9153-2.1936.4107-.0466,1.3255.6335,2.0646,1.5135.176.2226.3166.41.4926.6331.7389.9153,1.431,1.6069,1.56,1.56.1876-.0475-.0821-.9615-.5045-2.0172-.7742-1.83-1.513-3.6133-2.2872-5.4544-.4575-1.0438-.6451-2.0175-.4106-2.1467.223-.0938.9618.5512,1.6422,1.4666,1.15,1.595,2.346,3.155,3.53,4.7618.6921.9153,1.3725,1.6069,1.56,1.5131s.047-1.0084-.2227-2.1581c-1.0087-3.4837-1.9705-7.0493-3.0264-10.8966Z" fill="#010101"/>
  </g>
</svg>
