<svg id="Calque_1" data-name="Calque 1" xmlns="http://www.w3.org/2000/svg" width="30cm" height="33.4cm" viewBox="0 0 850.3937 946.7717">
  <path d="M810.1968,577.9616C640.334,476.0031,515.2211,117.3888,513.8872,113.8032c-6.5928-17.6941-16.3857-27.755-29.0375-27.755-7.79,0-17.634,4.5576-20.2978,26.273-.57,4.6735-1.1816,10.136-1.8187,15.959l-8.8644-16.7461C441.2856,87.74,431.4157,87.74,428.1663,87.74c-5.5141,0-12.7011,3.3008-14.8137,12.6261-1.883,8.3515-5.5784,30.1334-7.9248,45.5327-1.5334,10.046-1.7007,20.2419-1.8508,30.0927-.444,27.6306-1.6514,45.1573-20.0811,56.711-7.7167,4.8428-15.3735,9.3575-22.7814,13.7306-27.1008,15.9846-52.6961,31.0815-76.0286,58.5275-9.7756,11.4873-17.0571,23.811-24.1025,35.7227-4.44,7.5066-8.6282,14.5945-13.396,21.49-9.6942,13.9987-24.1112,21.0959-40.7928,29.3056-1.4992.7469-3.007,1.4815-4.5147,2.2369-37.2562,18.507-74.9069,37.6916-111.3245,56.2476l-19.57,9.9713c-2.8073,1.4325-5.7071,2.756-8.5038,4.0385C48.7741,470.2558,25.8358,480.7714,36.86,507.89c7.1136,17.501,32.0465,36.1087,42.4356,43.2978,30.972,21.4388,68.1875,31.8514,113.763,31.8514a403.44,403.44,0,0,0,46.9482-3.0069c-.1844.0665-.3774.1266-.5683.1845-3.0176,1.0145-6.05,2.0269-9.0916,3.0669-5.8551,2.0012-13.6125,4.1545-21.84,6.4343-37.6765,10.4555-60.9,17.7519-63.4713,35.3623-.9051,6.14.7469,15.1719,13.6984,23.3154,26.2474,16.4945,72.87,27.1516,118.78,27.1516a308.2214,308.2214,0,0,0,80.2517-10.4963c9.1-2.4645,18.7921-6.4857,29.0543-10.7409,16.6732-6.921,35.564-14.7622,51.1051-14.7622a38.2908,38.2908,0,0,1,8.27.8472c2.0354,4.0128,4.1479,13.915,5.0015,17.8934.3024,1.4242.5855,2.75.8535,3.9293,14.16,62.3989,29.3229,124.8642,44.9065,188.6875a12.867,12.867,0,0,0,12.5,9.8186H541.1a12.8547,12.8547,0,0,0,11.2513-6.6361c58.0663-104.7981,148.7911-183.0807,255.4739-220.412a12.8714,12.8714,0,0,0,8.6134-12.1478V588.9961a12.8858,12.8858,0,0,0-6.2412-11.0346Z" fill="#010101"/>
</svg>
