<svg id="Calque_1" data-name="Calque 1" xmlns="http://www.w3.org/2000/svg" width="30cm" height="33.4cm" viewBox="0 0 850.3937 946.7717">
  <path d="M808.9466,248.5434c-1.1979-1.31-2.4619-2.6769-3.5939-3.9408,5.13,1.9575,8.9475,2.8431,12.08,2.8431,11.5644,0,11.5644-12.5274,11.5644-16.6487,0-21.28-65.2681-43.93-155.19-53.85a163.5872,163.5872,0,0,0-17.7551-.9744c-82.0514,0-138.8475,63.8808-160.2307,87.93-1.8459,2.0835-3.4594,3.8863-4.8121,5.3508-11.318,12.2724-32.8934,52.54-50.2247,84.8831-9.1,16.984-18.4946,34.5271-20.7787,37.0032a12.1875,12.1875,0,0,1-1.9346.112c-12.8082,0-60.5793-8.9334-97.39-30.07-24.9086-14.2986-38.9808-46.1487-55.2713-83.0258-10.1085-22.8739-21.5525-48.78-37.0463-73.2184-27.4163-43.2139-66.9819-63.7032-85.9922-73.5536a105.353,105.353,0,0,1-10.2088-5.6775c15.4938-9.415,40.74-27.1475,44.4664-44.7131.662-3.1582.3038-5.62-1.0954-7.3455a7.519,7.519,0,0,0-6.1934-2.44c-6.7837,0-17.4742,4.8464-26.0722,8.7442-2.1179.96-4.514,2.0464-6.4371,2.843,1.0748-1.4563,2.439-3.1582,3.5824-4.5913,6.6378-8.3058,11.2722-14.5192,10.378-18.91a4.748,4.748,0,0,0-2.4762-3.3015,5.232,5.232,0,0,0-2.4505-.5819c-5.4626,0-13.4679,7.6236-24.1726,18.3942-3.121,3.1355-6.8068,6.8411-9.1339,8.7672.3468-1.6365.9858-3.7632,1.4674-5.3854,1.892-6.3711,3.86-12.9658,1.0289-16.7719a6.6465,6.6465,0,0,0-5.6663-2.4963c-6.4369,0-12.0687,10.8251-19.334,26.13-1.8028,3.806-3.961,8.3515-5.3166,10.4695a59.2012,59.2012,0,0,1-1.522-7.6693c-1.2437-7.8931-2.4074-15.3505-7.6464-15.3505-4.7805,0-7.5032,7.9158-11.5329,20.8243-1.5219,4.8579-3.7715,12.0573-5.1618,13.7483-1.4989-.6822-4.6887-4.7261-6.649-7.2109-4.0756-5.1618-7.6007-9.6156-11.2951-9.6156a4.6684,4.6684,0,0,0-.662.043c-4.3534.6621-4.2762,6.7523-4.1644,14.4534.046,3.5166.1692,11.7336-1.2983,12.4157a10.4174,10.4174,0,0,1-1.2754.08c-2.161,0-2.8545-.7624-4.1213-2.1495a13.3235,13.3235,0,0,0-3.7058-3.081c-2.5507-1.3185-4.9811-.9834-6.6492.8311-4.1529,4.5227-3.3358,18.079-1.4787,39.8664.4155,4.9152.8052,9.5719,1.0631,13.8028.55,9.2483,3.8061,15.6972,9.6729,19.3113a113.2346,113.2346,0,0,0-4.0951,15.8979c-1.1436,6.7751-1.0434,15.6627,1.1063,18.1935a2.7855,2.7855,0,0,0,2.1495,1.0518,3.06,3.06,0,0,0,2.7882-2.0263c3.3474-6.953,7.4658-9.8076,11.7763-11.295-2.7427,4.13-1.9915,10.544-.7479,20.7987.66,5.4655,1.476,12.2724,1.98,20.4205,1.6337,27.1155,18.0934,35.3439,25.1237,38.86.5477.2694.86.5477.94.8054.4586,1.6794-2.8316,6.8526-6.6606,12.8311a321.3357,321.3357,0,0,0-18.1149,31.4381C28.6163,363.6773,23.79,419.4073,31.64,480.892c6.0444,47.4241,103.3431,144.4536,155.6022,196.5808,8.5894,8.5522,16.01,15.9523,21.6643,21.7761,3.2472,3.3358,6.4945,6.3568,9.75,9.0989-23.3065,41.0329-51.33,89.7984-53.8928,92.61a.8564.8564,0,0,1-.4815.0889c-1.5218,0-4.3219-1.2638-7.03-2.4847a49.3221,49.3221,0,0,0-10.2345-3.74,21.9084,21.9084,0,0,0-4.1874-.5245c-2.7857,0-3.5939,1.4216-3.8289,2.2729-.5246,1.9231-.0316,3.9609,10.7819,10.5784-4.1184,1.2868-12.5818,2.932-19.1537,4.21-10.6817,2.0808-21.7214,4.23-27.7,6.6149-17.05,6.8069-18.6722,8.7556-18.1908,11.3207.5247,2.7084,4.0985,2.7084,5.821,2.7084a107.7228,107.7228,0,0,0,13.5362-1.2868c23.7679-3.2931,29.6233-3.37,36.966-3.2363.9286.0229,1.892.0316,2.9348.043-.427.3038-.8627.6162-1.29.92-6.7151,4.78-17.9671,12.7853-21.28,24.9429-.5158,1.8571-.6736,3.3245.1776,4.4338a2.6436,2.6436,0,0,0,2.1153,1.04c1.6364,0,3.058-1.31,6.1819-4.1986a64.6031,64.6031,0,0,1,9.2687-7.489c6.7725-4.1758,39.4738-20.386,47.9057-21.596a16.2853,16.2853,0,0,1,2.1609-.1461c4.087,0,8.3287,1.4439,12.4271,2.8547,3.637,1.2437,7.0734,2.4074,10.12,2.4074a3.22,3.22,0,0,0,3.2816-1.8257c.9834-2.3276-1.0976-4.4881-5.2419-8.7988-4.23-4.4108-10.6243-11.0715-10.6243-15.8319,0-1.7912,2.62-7.2882,6.9185-15.0666a49.9729,49.9729,0,0,0,22.7047-8.578c8.8331-6.1677,10.02-8.16,9.349-10.2976-.2464-.7967-1.04-2.1181-3.5826-2.1181-2.45,0-6.8182,1.1551-11.43,2.3731l-2.62.697a18.15,18.15,0,0,1-4.3449.5353c8.5408-14.2957,19.2454-31.4144,29.6-47.6018a60.9434,60.9434,0,0,0,19.3028,3.18,73.92,73.92,0,0,0,23.7681-4.2532c-.7281,46.6733-2.7,113.3628-5.5429,125.3658-.74-.516-1.6451-1.1636-2.43-1.7455-4.7461-3.4506-11.2523-8.1853-16.3879-8.4863a2.4653,2.4653,0,0,0-2.33,1.4989c-.7165,1.691.4156,2.8431,2.4619,4.9268a29.3047,29.3047,0,0,1,3.7287,4.3334,21.8284,21.8284,0,0,1-5.8209-.3151,70.9687,70.9687,0,0,0-10.7132-.7281c-16.7949,0-37.1035,4.2876-44.75,5.9011-.9286.1892-1.6679.3469-2.2156.4588-2.2069.4356-3.27,1.4445-3.1784,3.0006.1433,2.2613.2116,3.2788,23.3635,5.7665,11.1487,1.198,24.8541,2.3385,33.4838,2.9548A45.62,45.62,0,0,1,267.86,867.37a43.4327,43.4327,0,0,1-8.5065,3.101c-13.9947,3.9956-25.2468,11.5185-30.1846,17.3079a2.2324,2.2324,0,0,0-.5015,2.5853l.7593.9974h1.4675c.9629,0,2.1266-.0889,6.0127-1.7684a141.9215,141.9215,0,0,1,15.27-5.4426,222.7447,222.7447,0,0,1,38.2643-7.8128c10.67-1.2781,14.0177-3.9981,16.4677-5.9784a5.7262,5.7262,0,0,1,3.4277-1.7254c2.4162-.258,7.0189,1.8486,11.0715,3.672,4.7922,2.1495,9.3376,4.1325,12.3813,3.763a3.5961,3.5961,0,0,0,3.0809-2.2956c1.1407-3.1784-1.433-8.1281-18.6864-26.3989-1.7254-1.8258-2.7773-8.048-3.3246-17.15a50.0483,50.0483,0,0,0,19.3341-14.935c6.3253-8.105,7.019-10.4008,6.1247-12.2379a2.8893,2.8893,0,0,0-2.6886-1.5877c-2.2156,0-5.7435,2.1266-11.8,5.8868l-2.3071,1.4329a20.7762,20.7762,0,0,1-9.1455,2.7429c-.0229-29.6662,2.4963-71.9286,5.239-105.2462,4.8265-5.1388,8.8447-11.4441,12.7854-17.6346,7.7813-12.2007,15.1126-23.745,27.2387-23.745a24.1087,24.1087,0,0,1,6.5488.9858,65.4395,65.4395,0,0,0,18.3484,2.4619c4.1558,0,8.1853-.301,12.45-.6046,4.5914-.3354,9.3374-.6822,14.611-.6822A125.3122,125.3122,0,0,1,450.19,673.51c7.77,2.4532,14.3616,3.6942,19.6007,3.6942,9.3261,0,13.0323-3.9751,14.4878-7.3111,4.6343-10.5677-6.291-27.9868-18.0588-40.7607-14.0156-15.2272-24.4158-25.135-31.2914-31.6955-3.3675-3.2127-6.4026-6.09-7.8815-7.8126,1.3328-.0458,3.7861.0086,6.7639.112,3.2127.1121,7.2193.2465,12.0115.2465,23.0056,0,46.6962-3.3275,72.4131-10.1887,16.0526-4.2762,19.1536-8.879,28.3334-22.5269,1.244-1.8458,2.6111-3.8721,4.1444-6.0992,3.7057-5.3968,5.8438-8.8251,7.2538-11.0972,2.1839-3.4908,2.1839-3.4908,4.2533-4.153.8856-.2779,2.0263-.6363,3.571-1.2208a73.7515,73.7515,0,0,1,12.4385-2.8317c7.939-1.3756,16.9382-2.932,24.8658-7.4a30.2562,30.2562,0,0,1,13.5018-3.6719c4.8693-.4155,9.4723-.8053,13.4015-6.2135,2.92-4.0067,3.39-8.6325,3.8176-12.7194.6048-5.8552,1.1408-8.965,5.732-10.2747,3.167-.9087,5.2163-2.3186,6.2479-4.2991,1.668-3.2156.3354-7.0217-1.3556-11.8453a65.8666,65.8666,0,0,1-3.2586-11.8224c-1.1981-7.569.3926-8.5206,5.6316-11.699a56.6126,56.6126,0,0,0,13.0089-10.2231c9.1026-9.6269,5.7551-16.3564,3.5281-20.8016-1.4789-2.9664-1.9375-4.2188-.9745-5.6634,19.2-28.8065,26.6226-43.7758,29.4771-51.2532,3.3017-8.6758,1.903-14.3072.4126-20.2628-1.4329-5.7092-2.9089-11.6218-.3352-21.5411,3.3476-12.9315,1.5792-17.5544-.8828-23.9686a62.17,62.17,0,0,1-4.4452-18.394c-1.12-11.2178-9.9309-15.4165-15.5856-17.3424,2.7882-.8283,6.7639-1.9489,11.61-3.3016a34.8809,34.8809,0,0,1,9.4378-1.1752c19.4345,0,46.8423,12.2924,71.0116,23.1289,21.7761,9.7732,42.3542,18.9988,55.7762,18.9988a19.33,19.33,0,0,0,8.9018-1.8714,11.2191,11.2191,0,0,0,6.4028-8.1826c2.0951-11.88-14.3417-29.724-25.2124-41.5229Z" fill="#010101"/>
</svg>
