<svg id="Calque_1" data-name="Calque 1" xmlns="http://www.w3.org/2000/svg" width="30cm" height="33.4cm" viewBox="0 0 850.3937 946.7717">
  <g>
    <path d="M754.9545,643.7207c1.57-30.7428-3.984-137.3116-125.7574-316.5042-2.5158-13.1394-12.7825-81.2716,37.5718-110.1469a23.3745,23.3745,0,0,0,11.7541-21.9359,23.7159,23.7159,0,0,0-14.7329-20.542c-14.6418-6.0343-49.2836-9.9842-96.4937,4.4066,11.5034,1.5937,25.2653,3.0469,41.5643,4.3155.648.0509,1.3046.1253,1.9419.2251a57.17,57.17,0,0,1,12.6508,3.287c8.0421,3.31,8.9878,14.442,1.4428,18.7658C560.0913,242.7577,581.49,332.4943,581.49,332.4943c143.453,210.1609,124.2473,318.083,124.2473,318.083,41.0012,23.5465,62.4654,78.656,72.1755,112.4693,1.4194,5.112,3.4528,11.6776,5.9089,18.9145a311.41,311.41,0,0,1,27.8959,19.6474,13.2395,13.2395,0,0,0,21.2475-12.5822C832.2251,784.6344,814.8872,684.9881,754.9545,643.7207Z" fill="#010101"/>
    <g>
      <path d="M355.1961,415.1114a13.2376,13.2376,0,0,0-17.58-6.4232,12.881,12.881,0,0,0-2.4393,1.4768L308.883,375.6294a640.2169,640.2169,0,0,0-65.17-13.3456c-.9454-2.2586-1.4447-3.57-1.4766-3.6694a13.238,13.238,0,1,0-24.8426,9.1555c1.2536,3.3953,31.3228,83.4452,97.1414,110.5952a38.8185,38.8185,0,0,0,14.7818,2.9874,35.077,35.077,0,0,0,16.8492-4.241,32.0405,32.0405,0,0,0,16.5666-22.6094c2.1567-10.9382-.3081-23.829-7.5365-39.3907Z" fill="#010101"/>
      <path d="M832.9646,789.0173c-.74-4.3834-18.0774-104.03-78.01-145.2966,1.57-30.7428-3.984-137.3116-125.7574-316.5042-2.5158-13.1394-12.7825-81.2716,37.5718-110.1469a23.3745,23.3745,0,0,0,11.7541-21.9359,23.7159,23.7159,0,0,0-14.7329-20.542c-19.6963-8.1245-75.62-12.5-149.6778,26.5848-13.0651-9.2385-43.2-28.2209-87.2144-42.2059-54.2151-17.2212-140.7816-29.7869-245.2765,8.1356-3.51,1.26-84.1188,31.0489-105.8972,108.2707-5.6433,2.8216-14.731,7.5683-23.91,13.2116-23.9034,14.699-34.57,26.81-34.57,39.2759A32.422,32.422,0,0,0,27.76,351.8c14.5162,13.8023,42.735,19.4477,86.3093,17.255a629.5974,629.5974,0,0,1,233.6392,31.9307c128.3728,43.2409,237.54,126.2229,324.7064,246.76-18.2941,9.9438-49.36,31.2168-74.4575,70.5331a13.2459,13.2459,0,0,0,13.2117,20.1935c1.0134-.1571,101.7991-14.7074,200.5569,63.1285a13.2288,13.2288,0,0,0,21.239-12.5828Z" fill="#010101"/>
      <path d="M397.3745,313.9623C289.08,279.7666,184.5025,328.827,135.0193,368.3408c.289,0,.5886.0171.88.0171a627.9184,627.9184,0,0,1,211.81,32.6276c128.3729,43.2407,237.54,126.2227,324.7065,246.76-.0085,0-76.8648-271.228-275.04-333.7827Z" fill="#010101"/>
      <path d="M437.7127,420.2c-15.3385-22.85-38.5111-57.3767-34.2869-107.5569a13.2227,13.2227,0,0,0-11.4291-14.2187l.2658-1.9739L277.235,282.4565a4.9117,4.9117,0,0,0-3.1362-.3824c-7.0393,1.9844-.6821,28.4439,1.3025,35.4725.4738,1.6681,11.803,41.3244,35.4727,79.9607,29.8462,48.7205,66.258,74.092,105.9716,74.092a96.6471,96.6471,0,0,0,12.7741-.8627c3.91-.5226,15.81-2.1161,20.5336-12.6167,5.229-11.6032-2.182-22.6413-12.44-37.92Z" fill="#010101"/>
    </g>
  </g>
</svg>
