<svg id="Calque_1" data-name="Calque 1" xmlns="http://www.w3.org/2000/svg" width="30cm" height="33.4cm" viewBox="0 0 850.3937 946.7717">
  <path d="M49.1159,602.9476C56.124,594.72,63.4085,586.74,69.8633,578.1a149.842,149.842,0,0,0,19.7054-36.2746c4.9013-12.7465,10.64-25.1879,15.7894-37.85,2.22-5.4831,3.9936-11.1647,5.8519-16.7895,1.1917-3.6312,3.5964-5.93,7.6749-7.8656v5.6529c-.305,26.5713-.6953,53.1422-.8369,79.7417-.05,12.8246,3.6031,25.1311,6.3764,37.5444.9153,4.128,2.1351,8.1712,3.2136,12.2427,2.0215,7.54.773,14.7967-1.3833,22.1166-3.1636,10.8031-5.93,21.7192-8.8665,32.5789-1.9434,7.235-4.2418,14.4347-5.7957,21.7832-3.5463,16.896-2.7166,33.8841-.3617,50.8653,1.2768,8.9231,2.5535,17.7892-.22,26.77a34.0893,34.0893,0,0,0-1.6882,10.8879c.2484,6.6534,4.71,10.9172,11.2782,11.6118,6.2849.6664,12.6046,1.2695,18.8965,1.5745,8.2845.3617,16.57.8654,24.8258.5037,9.9166-.4187,19.8119-1.7449,29.7277-2.5253,2.7452-.22,3.2134-1.7449,2.9082-3.93-.44-3.1351-.9929-6.2349-1.5179-9.5334a14.9464,14.9464,0,0,1,1.4683-.7233c4.4546-1.66,6.37-5.9016,3.7949-9.9445a85.3674,85.3674,0,0,0-8.81-10.945c-2.8585-3.1563-6.49-5.71-9.0652-9.0864a158.1615,158.1615,0,0,1-10.4411-16.0731c-2.7733-4.8233-2.135-10.2778-.695-15.2928,2.3832-8.1217,4.5466-16.4845,8.2847-24.0247a105.94,105.94,0,0,1,14.5767-22.0531c7.2278-8.37,15.7612-15.6261,23.6559-23.4146a57.375,57.375,0,0,0,16.1018-28.3162,130.0852,130.0852,0,0,1,3.7376-12.86,3.3844,3.3844,0,0,1,2.7453-1.5463c10.42.66,20.8113,1.7946,31.2243,2.2131,6.7667.2484,13.5761-.4185,20.3644-.6668,1.7236-.0779,3.4118-.0566,5.1284-.1345,13.6047-.4754,27.2945-.39,40.8425-1.6387,9.0011-.83,17.4-4.6815,25.4928-8.9444,5.7882-3.0218,11.69-5.8235,17.6762-8.8169a29.3228,29.3228,0,0,1,7.3414,14.2714c3.9652,16.5981,5.157,33.53,6.1781,50.454.5534,8.98,1.4684,17.9311,1.4684,26.876-.0285,9.9516-1.0781,19.868-1.3832,29.82-.17,5.32.83,10.7178.44,16.0093-.66,8.9232-1.8016,17.8464-3.1848,26.6839-.4682,2.88-2.2414,5.5965-3.4893,8.3418-3.3836,7.483-2.6032,14.0444,2.4969,18.8393a6.2609,6.2609,0,0,0,4.0713,1.745c14.5484-.5533,29.0892-1.3831,43.6657-1.9648,9.3347-.3333,18.7047-.39,28.0677-.447a5.8017,5.8017,0,0,1,3.6885,1.3335c3.32,3.2132,7.5046,3.2132,11.5761,3.27,11.5831.1633,23.1663.0853,34.7778.0569,4.8446,0,9.6964.2484,14.4915-.1419a51.0226,51.0226,0,0,0,9.3628-2.2415c1.745-.4751,3.3835-1.4184,5.157-1.7449,7.37-1.4469,7.4479-3.0782,6.0079-10.64-.468-2.4966-2.823-4.66-4.4047-6.93-1.4683-2.1351-2.965-4.2417-4.6247-6.2632-.5251-.6668-1.7167-.8016-2.3267-1.4683-5.4618-5.7312-11.7533-10.8314-14.9387-18.4209a21.8913,21.8913,0,0,1-1.4682-5.9582c-1.5818-14.13-3.6034-28.2381-4.4334-42.4245-.61-10.7177.39-21.5845.5533-32.3589.1136-9.0366-.1064-18.0666.17-27.1032.3333-10.69.44-21.4427,1.7448-32.0257,2.0215-16.8747,1.7734-33.7494.8871-50.5957-.7235-14.2429-2.6882-28.43-3.9367-42.6442a4.47,4.47,0,0,1,1.9933-3.3479q16.3744-9.7675,32.9763-19.258c12.3847-7.0933,24.8262-14.0233,38.4592-21.7265,2.355,2.7167,5.0718,5.9866,7.9231,9.0933,2.5465,2.7381,5.3768,5.2635,7.9515,7.98,3.2985,3.5182,6.6251,6.98,9.6113,10.7463,2.9436,3.6885,5.4054,5.0432,7.7032,3.4893,2.66-1.8017,3.4118-6.845,1.4186-9.9731a18.8839,18.8839,0,0,0-2.6883-3.3762C617.125,465.0762,613.55,454.99,609.45,445.18c-.3616-.8871-.7806-1.7734-1.44-3.2984,4.6247-2.1562,9.25-4.4048,13.9311-6.4831,3.22-1.4115,6.49-2.7379,9.81-3.8517,6.2349-2.0783,10.9731-6.1214,15.1581-10.9659,2.5748-3.0217,5.93-4.717,9.2566-2.4686,8.2,5.4831,17.6473,5.6248,26.7342,7.3415a8.6287,8.6287,0,0,1,1.44.2483c1.8585.7237,3.9653,1.5534,5.1284-.7451.61-1.2486.305-2.9652.4968-5.49,1.7449-2.4115,5.4617-1.4683,8.7315-1.8512a70.4224,70.4224,0,0,1,10.86-.667,29.2161,29.2161,0,0,1,7.7316,1.66,102.3482,102.3482,0,0,0,47.4605,3.88c10.7816-1.7449,21.8044-3.795,31.0611-10.583,6.15-4.5183,11.7747-9.3631,13.2146-17.3715a12.7141,12.7141,0,0,0-.5533-5.653c-15.9313,14.7111-35.161,14.5693-55.44,14.2431,5.2635-5.242,13.5764-6.8168,12.9947-16.52-6.9583,2.5534-13.413,5.015-19.9744,7.2635-7.1216,2.44-14.3566,4.4614-22.2228.9717,4.1-1.4684,8.0578-3.5467,12.2712-4.2419,14.6615-2.3547,25.1594-10.3064,33.3876-22.3075a86.97,86.97,0,0,0,11.9448-24.6841c2.7664-9.363,2.6884-18.9531,2.27-28.5645-.5249-11.6968-5.4054-22.2231-9.1715-33.0614-3.88-11.1647-6.0364-22.7194-4.5965-34.4089a84.4462,84.4462,0,0,1,12.1081-34.3595c2.9082-4.7383,5.54-9.6681,8.7528-14.1581a46.5461,46.5461,0,0,1,24.74-17.6749c2.8868-.8871,5.6815-1.993,8.5613-2.83,2.66-.7731,2.3337-3.2133,1.61-4.4332-2.7168-4.6817-1.8015-9.6965-1.9151-14.6264-.1065-4.9011-3.2628-7.7031-7.0365-4.9579-6.178,4.5112-13.4629,5.0929-20.1445,7.6748a102.7716,102.7716,0,0,0-35.2673,22.6911c-10.5334,10.3348-19.7547,21.6412-25.33,35.7991-4.6532,11.8316-10.3348,23.3011-12.4344,35.8774a116.8573,116.8573,0,0,0,.7164,42.7581c1.3832,6.8735,1.4683,14.0162,1.7166,21.06.0851,1.8229-1.1633,3.93-2.355,5.4832-3.5465,4.5683-7.3415,8.8946-10.3914,12.5266-5.98-2.0783-11.5478-4.2132-17.2578-5.9021a45.696,45.696,0,0,1-15.7113-7.93c-3.7948-2.9933-8.1217-5.2348-12.1082-8.0082-6.9582-4.8161-13.7181-9.9163-20.7262-14.6549-4.9013-3.3266-9.973-6.4545-15.1864-9.2849-8.5333-4.5681-17.123-9.0011-25.8475-13.1581-8.1218-3.8513-16.9316-3.3827-25.4647-2.6313a77.82,77.82,0,0,0-33.6924,10.6679c-9.2567,5.5119-18.3715,11.2215-27.6,16.7612-5.0363,3.05-10.64,3.9083-16.4562,3.7667a72.885,72.885,0,0,0-9.7248.0282c-5.2064.6387-9.001-2.6882-13.2429-4.4048A108.7229,108.7229,0,0,0,449.3,296.0038c-8.5616-.7452-17.0734-2.1918-25.6349-3.05-13.91-1.4114-27.7343-1.22-40.8637,4.4053-7.6536,3.2981-15.0233,7.2915-22.67,10.5047-2.0215.8582-4.7879.5532-7.093.0569-8.8667-1.9437-17.6479-4.2133-26.486-6.2349-7.8664-1.8018-15.8462-3.2134-23.6914-5.1852-14.1862-3.575-27.5426.5815-40.842,4.4616a292.9121,292.9121,0,0,0-28.4013,10.1434,134.0524,134.0524,0,0,0-19.0592,9.7529c-9.8382,6.0648-19.8963,12.023-28.8694,19.2579a272.8359,272.8359,0,0,0-27.21,25.7415,328.6216,328.6216,0,0,0-21.28,25.7415,180.8354,180.8354,0,0,0-14.3564,20.89,293.68,293.68,0,0,0-14.5764,29.2308c-2.4616,5.71-3.348,12.1083-4.9016,18.2012-1.6313,6.462-2.9933,12.9949-4.8731,19.3714q-4.33,14.7894-9.2566,29.3942c-2.6318,7.7883-5.5118,15.52-8.6182,23.1379-2.6317,6.4834-5.71,12.8032-8.7035,19.1447-4.1777,8.7881-8.0295,17.7045-12.7959,26.1595a132.3253,132.3253,0,0,1-13.8533,19.9183c-2.7448,3.22-7.625,4.49-11.058,7.2633a25.8917,25.8917,0,0,0-10.03,17.5131c3.7377-1.6952,6.8449-2.8584,9.6681-4.4614,6.263-3.5184,10.6965-9.0652,15.2715-14.4134Zm399.651,120.9463a44.4759,44.4759,0,0,0,3.7454-12.5193c1.908-11.945,3.49-23.94,5.0928-35.9413,1.3335-10.0581,2.5536-20.1162,3.83-30.1744a6.6828,6.6828,0,0,1,.7165.0567c1.66,6.9019,3.3828,13.8247,5.0151,20.7547a99.2048,99.2048,0,0,1,1.83,35.4942c-.8871,6.9514-2.0216,14.2718,1.22,20.8612,3.88,7.8733,2.9934,15.74,1.3831,23.7481-.9716,4.7949-2.3548,9.4763-3.8231,15.2927-1.9648-2.3549-3.1848-3.7662-4.3481-5.2634-3.66-4.795-7.1781-9.7245-10.9164-14.4346-4.3269-5.3767-7.3413-10.6679-3.7453-17.8748Z" fill="#010101"/>
</svg>
