<svg id="Calque_1" data-name="Calque 1" xmlns="http://www.w3.org/2000/svg" width="30cm" height="33.4cm" viewBox="0 0 850.3937 946.7717">
  <path d="M792.6578,345.7277c-13.7342-12.968-27.4127-25.9594-41.7321-38.2476-13.8055-11.8219-27.7848-23.5807-42.76-33.7985-12.4068-8.4632-26.3861-14.5718-39.662-21.7629-6.7327-3.6746-13.5524-7.2543-20.1272-11.2371a56.6136,56.6136,0,0,1-18.5548-17.6306c-11.3557-17.3775-26.7016-30.74-44.5376-41.0845-11.64-6.7253-23.8335-12.47-35.75-18.7994a37.9887,37.9887,0,0,1-7.9341-5.8637c9.7911-1.9439,18.4282.1818,26.5205,5.7688-3.7695-10.6446-13.2444-15.86-21.4861-22.19.1265-.4346.245-.893.3712-1.3276,7.0964,1.3909,14.1691,2.8052,21.052,4.1646-.8928-3.3665-3.5481-6.9777-9.9411-11.292-23.0273-15.5279-48.2126-23.8019-76.2415-21.6128a198.333,198.333,0,0,0-29.5707,3.9827c-20.19,4.7256-40.2229,10.1862-60.2,15.7415-4.1644,1.1458-7.9892,3.8328-11.6638,6.33-19.6926,13.4575-39.6064,26.67-58.8646,40.7445-17.4168,12.723-30.2818,29.7286-42.1111,47.6353-16.6029,25.1216-21.5417,52.7243-18.7679,82.2634,1.0507,10.8657,1.3274,21.763,2.1968,32.66,1.4778,19.1634-7.2547,32.9922-23.2174,42.0721-16.0178,9.1352-32.9682,9.5382-49.508.7428-9.9411-5.31-16.2081-14.1369-20.3723-24.355-8.8664-21.6131-10.0358-43.7156-1.3591-65.4155,8.4237-21.1466,18.1755-41.732,27.4369-62.5392,11.3321-25.4931,23.0589-50.812,31.705-77.4508,7.5941-23.4543,7.9339-46.5133-1.2329-69.6672C219.06,65.1941,206.7083,52.29,187.94,45.62c-25.0344-8.89-50.5584-11.0159-76.89-7.3728C93.1752,40.7127,80.2706,49.7608,71.1353,64.76A199.2192,199.2192,0,0,0,59.7482,85.2582C53.5448,98.9609,45.8559,111.7074,37.74,124.3037c-2.1961,3.398-3.9828,7.041-6.2666,10.376-7.0411,10.3994-7.6573,21.5734-3.3348,32.8735,5.1839,13.6157,10.6208,27.1288,16.9428,40.223,3.5244,7.3177,8.8583,13.7342,13.71,20.3722,1.1378,1.5721,3.4219,2.2833,5.1524,3.3979,1.0826-1.8569,2.9946-3.7057,3.1214-5.65.4268-6.1481.9562-12.47.1186-18.5548-3.0819-22.1028,3.2716-41.7008,14.0426-60.6268,4.1092-7.1912,9.111-12.4067,16.8-15.3386,6.0452-2.3154,11.79-5.405,17.8987-7.5309,11.9486-4.2039,20.7437-12.32,28.401-21.9842,2.5922-3.2716,5.1524-6.5747,7.7444-9.8464a15.9189,15.9189,0,0,1,12.2567-6.1086c9.08-.4979,17.3455,2.2834,25.0978,6.67,5.7685,3.24,7.4989,9.0087,7.7441,15.1566.4664,12.8652-.4582,25.5248-4.7807,37.876a568.6567,568.6567,0,0,1-24.6,58.8963c-15.7731,32.6283-30.2817,65.8738-41.74,100.3205-6.3849,19.2339-5.7369,38.895-2.1255,58.4377a138.0367,138.0367,0,0,0,8.0207,28.67c7.6258,18.1516,22.0161,30.2262,39.6381,38.0022,33.9248,15.03,67.9442,13.8608,101.4661-1.51,16.39-7.5072,28.9859-19.9455,40.871-33.1582,8.0208-8.9535,16.8241-17.0375,29.049-19.4792a139.0349,139.0349,0,0,1,21.699-1.9429,12.2832,12.2832,0,0,1,11.0159,6.6063c4.2908,7.72,8.6451,15.5593,11.64,23.8337,6.2978,17.622,9.071,36.1135,10.5572,54.6682,1.9442,24.3234,3.73,48.71,4.5676,73.065a312.0621,312.0621,0,0,1-1.8806,41.1794,98.6633,98.6633,0,0,0,2.8686,32.9051c5.46,22.2215,5.99,44.7905,6.638,67.4154.7112,25.7458,1.6673,51.4915,2.592,77.2374,1.17,32.5024,2.4656,64.9733,3.6113,97.452a127.4419,127.4419,0,0,1-.3715,14.1057c-.2133,3.4532-2.3155,4.7491-5.9268,5.1837q-27.8794,3.4259-55.6876,7.4989a13.2464,13.2464,0,0,0-3.9514,1.2089c-9.3168.3713-18.61.7348-27.9345,1.1064a12.3481,12.3481,0,0,0-12.1619,12.1618,12.6656,12.6656,0,0,0,5.9583,10.4707,11.171,11.171,0,0,0,11.0791,7.9258l52.8192.19c5.4606,1.5407,11.4823,2.6868,16.9427,1.9125a106.5262,106.5262,0,0,0,26.8286-7.0964c17.5906-7.4755,22.7192-32.0439,10.6524-46.8293a11.9865,11.9865,0,0,1-2.4735-6.6063c-.7429-16.1446-.9878-32.3206-1.7306-48.4967-1.5721-33.6719-3.73-67.32-5.0023-101-.83-22.2293-.8609-44.4819-.6162-66.7353.0631-6.33,2.5681-12.6279,3.3979-18.9892,1.2645-9.72,2.4734-19.4793,2.9322-29.2624.9561-19.2581-1.9759-38.0578-6.4484-56.8258-.5615-2.2833-.988-4.5676-1.3908-6.8512a136.255,136.255,0,0,0,12.7457,14.69,12.3774,12.3774,0,0,0,11.98,3.0581,12.0524,12.0524,0,0,0,4.3226-1.5487c5.3973-3.1452,8.1154-11.1423,4.3462-16.6029-4.7493-6.9146-7.926-15.283-8.4239-21.9528a55.7115,55.7115,0,0,1-.15-7.531c.0553-1.2009.1185-2.3707.2449-3.58a5.9437,5.9437,0,0,0,.1185-.7112,60.5466,60.5466,0,0,1,3.5561-12.0033,8.7423,8.7423,0,0,0,.5532-4.7571c5.0972-1.3829,10.2177-2.6236,15.2832-3.9828q16.3815-4.3981,32.779-8.7955,61.0693-16.393,122.1779-32.7789a11.3375,11.3375,0,0,0,6.5116.0553c6.0849-1.7857,12.1935-3.5481,18.2781-5.3339a12.04,12.04,0,0,0,6.3219,1.7858h1.2091a12.1139,12.1139,0,0,0,12.1616-12.0658l0-.0641a13.0405,13.0405,0,0,0-.3082-2.6552,15.1375,15.1375,0,0,0-2.6869-8.985,17.198,17.198,0,0,0-6.053-5.7688,18.2823,18.2823,0,0,0-7.9657-2.157,7.3123,7.3123,0,0,0-1.383.0235l-29.0805-17.1564c8.1789-2.9072,16.4213-5.65,24.758-7.9656,60.3187-16.7924,118.0374-10.0358,172.3661,21.8818,2.3787,1.3907,4.6623,2.9634,7.0094,4.4489.3712-.221.7428-.4664,1.1141-.7112-2.0387-4.5992-3.7057-9.3878-6.18-13.7341-6.7878-11.8221-16.3579-21.3919-26.141-30.6531ZM476.904,438.73c-12.32,3.303-24.79,6.2983-37.0146,10.0046-8.0841,2.4654-17.0375,5.7686-23.707,11.4187-1.3274-11.6956-2.6867-23.43-3.9828-35.1575-.6481-5.745-1.2642-11.5453-1.4144-17.3141-.1895-6.4248,2.2521-8.9534,8.6688-8.9534,7.9656,0,15.9311.9562,23.8652.6481,17.59-.6481,35.2206-1.6358,52.8112-2.8449,13.4656-.893,26.86-2.4025,40.3178-3.5166,1.3908-.0948,49.4844-5.2155,45.3121-6.638,2.8449-1.0194,5.6819-2.0388,8.495-3.0819q14.58,8.6055,29.1675,17.1875Q548.1595,419.6618,476.904,438.73Z" fill="#010101"/>
</svg>
