<svg id="Calque_1" data-name="Calque 1" xmlns="http://www.w3.org/2000/svg" width="30cm" height="33.4cm" viewBox="0 0 850.3937 946.7717">
  <path d="M189.3366,884.7233c5.1556,2.7192,10.4136,5.2564,15.7728,7.48,5.8536,2.4011,12.287,3.6089,18.5809,4.7325,3.9706.7289,8.176.4309,12.26.4194,5.6651.0069,11.3312-.0922,16.99-.1884a9.714,9.714,0,0,0,2.1092-.6529c4.7893-1.2207,9.8282-1.8482,14.3372-3.7817,1.8331-.8137,3.6662-1.6273,5.4958-2.536a117.0386,117.0386,0,0,0,44.011-22.653c6.1921-5.1569,7.7843-14.1116,2.7422-20.6928-4.7409-6.185-14.4982-7.8913-20.6823-2.7372a86.8937,86.8937,0,0,1-7.7515,5.8861c-.1793.143-.3784.2593-.5275.39-7.53,3.1143-15.0389,6.1937-22.701,8.8955-4.5411,1.5952-9.6776,1.3739-14.5444,1.9049-2.6663.2989-5.3871.2675-8.0283.7142-6.4422,1.1344-12.6215-.3783-18.9795-1.3352-10.6612-1.5511-19.7838-6.68-29.0569-11.3355-4.52-2.256-8.0846-6.4727-11.985-9.9124-3.5918-3.1772-7.315-6.2665-10.5528-9.7633a75.0155,75.0155,0,0,1-6.454-8.8927c-3.5158-5.0285-6.9746-10.0888-10.4419-15.1719a15.8548,15.8548,0,0,1-1.4724-2.9377c-3.3777-8.1792-7.07-16.2663-10.0273-24.5805a117.9861,117.9861,0,0,1-4.6879-18.1553,60.2884,60.2884,0,0,1-.9819-14.1978c.2181-5.1439,1.71-10.1807,2.1072-15.318.8006-10.04,4.8667-19.0745,8.9086-27.9939,2.3937-5.1995,6.2586-9.7208,9.4649-14.52,2.7469-4.0679,5.2557-8.3121,8.2532-12.1739,2.4761-3.1317,5.5244-5.7831,8.2421-8.7313,2.8767-3.1624,5.5931-6.4618,8.5043-9.6031,1.8141-1.9663,3.8656-3.6948,5.7906-5.5391,2.7329-2.5855,5.3647-5.3318,8.2088-7.7948,2.4668-2.1344,5.2654-3.8845,7.7449-5.9889,2.6285-2.2351,5.0845-4.7434,7.6245-7.11.3242-.3073.6614-.6461,1.0157-.9655,3.5464-2.9415,7.0107-5.999,10.6457-8.8093,3.0864-2.3855,6.5133-4.3642,9.548-6.79,1.5013-1.1978,2.9222-2.53,4.3427-3.8621a690.7135,690.7135,0,0,0,98.68-81.7374c3.5793.7819,7.2024,1.2387,10.8906,1.7041,5.5745.6943,11.0021.3755,16.5239.4405a79.34,79.34,0,0,0,9.9982-.7564c3.2756-.0533,6.5627-.2518,9.8191-.6134a31.1576,31.1576,0,0,0,6.6351-1.5911c9.9693-2.2573,19.3812-6.24,28.832-10.2122,3.4991-1.4539,5.5954-.6859,8.5625,1.8832,3.5328,3.14,4.89,6.9858,5.9278,10.891,1.1856,4.6368,1.2721,9.5784,1.7091,14.3865.2166,2.3127.0922,4.6311.3426,6.9393.1635,1.6832,1.8423,3.9569-.8091,4.6187a6.7747,6.7747,0,0,1-5.1051-1.4031c-4.2531-3.4636-8.5331-6.9071-13.7463-8.5744-5.2473-1.6884-15.4595.6667-19.5952,6.1245a12.4336,12.4336,0,0,0-2.3438,9.4c.2356,2.4455-.1846,5.4647,1.1035,7.211,3.4632,4.8119,6.6733,10.1053,14.0088,10.3932,2.77.1519,5.3772.2291,7.4574-1.1682,2.9836-1.9661,6.0628-1.0512,8.8441-.6314,1.316.1875,2.6541,3.25,3.0356,5.188.1958,1.09-1.2788,3.2-2.5,3.7658-5.5023,2.433-11.4451,3.9543-16.7065,6.8083-8.7251,4.7423-13.5295,12.8007-7.1316,22.4022,2.4614,3.7065,5.9537,8.3309,10.8863,8.2215,5.1379-.1221,10.7757,1.1616,15.3165-4.4244,2.6734-3.3173,5.4185-6.11,6.9082-10.222.5208-1.5123,2.7333-2.4093,4.4428-3.7882,3.06,2.8833,2.8393,3.4475.12,6.4757-5.9114,6.52-11.6258,13.5058-12.6095,22.53-.3671,3.4108,1.8425,7.6675,4.1243,10.5848,2.0079,2.5887,5.67,3.9878,8.736,5.6289,4.4964,2.371,12.1971-.4088,15.5358-3.8633,3.9261-3.9569,5.1726-8.9288,7.0751-13.6481a17.1379,17.1379,0,0,0,.5723-6.7211c-.1094-2.98-.58-5.9194-.8743-8.6842a39.6272,39.6272,0,0,0,5.2576-.76,5.8574,5.8574,0,0,1,1.8571-.2342,68.6966,68.6966,0,0,0,5.82,13.7487c.57,1.0791,1.2039,2.1234,1.8732,3.1886.1374.2521.2653.4813.403.7332a2.0487,2.0487,0,0,0,.4125.5187c.5942.8582,1.211,1.7072,1.8454,2.5136a14.0593,14.0593,0,0,0,4.06,4.333,17.7379,17.7379,0,0,0,7.9039,4.0758c.6457.248,1.2842.5433,1.912.834a7.9,7.9,0,0,1,1.0066-.5753,14.0984,14.0984,0,0,0,2.1087-.134,18.57,18.57,0,0,0,2.8083-.62,8.6672,8.6672,0,0,0,5.48-2.0547,22.8324,22.8324,0,0,0,8.248-14.5723c.616-5.5075.7729-12.06-5.17-16.8953a31.2943,31.2943,0,0,0-12.3353-6.2006,6.5167,6.5167,0,0,1-4.5053-8.5751c.1507-.4742.2466-.9968.3547-1.4892a6.8958,6.8958,0,0,0,1.6223-5.1506,3.6834,3.6834,0,0,1,1.99-1.3606c4.9531-.8387,10.0117-1.07,14.9633-1.9779a84.0975,84.0975,0,0,0,9.0406-2.9445,14.7515,14.7515,0,0,0,9.9762-9.0306,13.284,13.284,0,0,0,.8224-7.2968,47.7419,47.7419,0,0,0-3.701-9.9741c-3.0213-6.4325-8.5215-8.635-15.6175-8.8532a23.9705,23.9705,0,0,0-12.0373,3.1659c-2.3517,1.2261-4.1153,3.6645-6.0673,5.6162-.9315.9318-1.7564,2.0224-2.5765,2.97-4.8282-4.1882-8.0434-8.9955-12.7709-12.61a10.12,10.12,0,0,1-3.0707-10.7834c1.3567-4.2868,1.5319-8.93,2.5265-13.3517.9938-4.3154,2.5614-8.4945,3.5324-12.8006.7408-3.4215.9555-6.9472,1.431-10.4367.5006-3.9487,1.523-7.9329,1.352-11.8468-.127-3.1755-1.5746-6.3341-2.6829-9.3932-.8766-2.4229-1.5786-5.26-3.3188-6.928-3.6937-3.5149-5.2158-8.7-10.37-11.35-4.3523-2.2537-8.6012-4.69-13.2621-5.7544-6.4379-1.4785-12.498-4.4114-19.402-4.3292a191.5642,191.5642,0,0,1-19.7436-1.3331c-4.0251-.3643-8.0015-1.02-12.0021-1.5615a3.3308,3.3308,0,0,0-.34.0057c-3.3422.3878-6.6464.8044-11.0879,1.3654.1849-3.1-.2163-6.129.64-8.7443,1.6693-4.8619,2.7715-10.1889,6.8809-13.7807,5.0335-4.3707,9.4111-10.1637,17.3511-9.0569a5.3957,5.3957,0,0,0,1.4361-.2745c4.9411-1.1064,9.8326-2.5092,14.8194-3.2647a72.6131,72.6131,0,0,1,10.3837-.2182,7.225,7.225,0,0,0,1.0812-.1307c4.5427-.9185,9.0675-2.4451,13.6481-2.6844,11.2462-.5414,20.5267-6.5376,30.6519-10.3,5.6041-2.0963,10.0919-5.9471,14.2146-10.2651,2.852-2.9417,5.9823-5.6524,8.7112-8.7457,1.2027-1.3491,1.621-3.374,2.4967-5.03.8777-1.6307,1.7234-3.2749,2.5654-4.9265,1.6441-1.8008,3.2167-3.669,4.7691-5.6086.5927-.75,1.1752-1.5052,1.7552-2.2854q4.0314,17.0673,7.3945,34.2652c.546,2.8649,1.0951,5.7373,1.6016,8.5916-.0147,1.07-.0415,2.11-.026,3.1672-.0425,2.8661.5065,5.7384.6517,8.6338.1013,3.2211.0045,6.4522.0756,9.6854.0457,1.045.34,2.0955.4582,3.147.2782,2.2259.5,4.4656.8467,6.6644.1306.844.24,1.96.7949,2.3945,3.45,2.6547,6.6968,5.7612,10.5634,7.4907,3.2011,1.4541,7.1483,1.3661,10.7574,1.7229,4.7323.4817,9.4959.8894,14.24.988,2.8859.07,5.7954-.6258,8.6793-.6259,5.1367.0455,10.2637.3316,15.372.6346a2.602,2.602,0,0,1,1.8462,1.3443c2.2872,4.7087,6.3365,7.3227,11.1687,9.4169-1.187,2.82-2.4607,5.5339-3.5427,8.3737-2.0572,5.3359-1.3537,10.4756.8525,15.6571,1.8207,4.3172,3.9563,7.98,9.0395,8.7415a7.7473,7.7473,0,0,0,3.448-.0622c3.0936-1.0873,6.1685-2.3951,9.2343-3.6381,4.9792-2.0541,5.7791-7.0208,6.8943-11.21.7243-2.7029-.6012-5.9721-1.1795-8.9382-.1781-.8512-1.1677-1.5139-1.6673-2.3129-.532-.813-1.3882-1.7322-1.3514-2.5733a5.7183,5.7183,0,0,1,.2244-1.2251c.3361-.2772.6029-.5522.9086-.817a7.0975,7.0975,0,0,0,7.131,1.4088,32.4609,32.4609,0,0,0,1.3983,3.2753,26.3622,26.3622,0,0,0,11.0993,11.7838c3.0292,1.55,7.6915.6889,11.4685-1.1855a11.2286,11.2286,0,0,0,7.9428-6.4117,12.6633,12.6633,0,0,0,.805-7.1671,6.9,6.9,0,0,0-.4332-2.6729c-.8344-2.4052-1.8956-4.7623-2.7927-6.9749,3.2463-.56,6.2492-.6784,8.9866-1.6474,6.9609-2.4793,8.1047-2.8024,9.5162-12.6155a13.6666,13.6666,0,0,0-1.7617-8.8345,10.9188,10.9188,0,0,0-3.14-3.4308,15.9555,15.9555,0,0,0-2.4092-3.9034c-3.3089-3.8459-8.2109-3.0541-11.1082-.3765-3.8148.5884-7.1822,2.78-11.3543,3.2676-.3339-3.47-.7381-6.7439-.8639-10.025-.0341-.4963,1.0791-1.22,1.8372-1.5627,1.736-.88,3.5712-1.6237,5.3985-2.3645,6.0958-2.4011,9.2411-7.3516,11.4988-13.1468a16.69,16.69,0,0,0-.97-14.1679c-1.5338-3.0887-9.6726-7.245-13.1137-7.6-4.42-.4059-7.9855,1.145-11.7676,2.573-6.5446,2.4866-9.7073,9.6068-8.9987,15.8437a5.5789,5.5789,0,0,1-6.9618,6.12,19.7551,19.7551,0,0,0-4.6094-.0921,19.4046,19.4046,0,0,1-2.2636-8.7276,40.087,40.087,0,0,0-3.82-16.0365c-1.9006-3.9072-6.0182-7.5572-10.722-7.47a18.2068,18.2068,0,0,0-10.7814,4.16c-2.8751,2.5808-6.7314,4.9973-7.3,9.6243-.267,2.1393-1.6647,4.526-1.0151,6.2148,2.3259,6.17,3.13,13.23,8.9659,17.6252.1821.1022.1685.4155.27.7525-1.8809,3.2333-4.5068.8335-6.4591.4205-8.04-1.7873-9.9268-8.892-10.8736-15.3046-.9085-6.2964.3561-12.85.559-19.289.1533-4.4584.028-8.91.2237-13.35.1055-2.6893.7195-5.3387.76-8.0369.0228-2.8931-.5577-5.7793-.5383-8.68a61.579,61.579,0,0,1,.7492-7.9975c.4023-2.9766.95-5.9421,1.567-8.9091.656-3.0445,1.309-6.0966,2.1971-9.0679,1.8408-6.303,3.7209-12.5961,5.8829-18.8009,1.9464-5.6957,4.1716-11.3107,6.35-16.933.5266-1.3474,1.8207-2.558,1.9082-3.86.1985-3.826,3.0507-6.117,5.5657-7.3737,2.5347-1.274,6.0548-.8106,9.0944.7443,5.4907,2.7863,11.0474,5.4744,16.7281,7.884,4.9321,2.08,10.1361,2.1419,15.53,2.39,6.4941.2512,11.5183-4.4677,17.8856-3.576.9479.1258,2.0824-1.5652,3.2079-2.259,1.5313-.9724,3.1741-1.735,4.7-2.6352,5.1987-3.0308,10.67-5.6271,15.4456-9.1811,4.3788-3.2524,7.9932-7.5669,11.99-11.35,3.3461-3.1767,6.932-6.1077,10.1366-9.3941,2.4185-2.4926,4.354-5.4406,6.594-8.1335,2.6345-3.24,5.3992-6.4183,8.0668-9.6629,1.9257-2.3634,3.8939-4.709,5.6162-7.2272,2.8283-4.1275,5.6416-8.2927,8.16-12.576,5.1478-8.7518,10.6412-17.3015,15.3094-26.3683,3.2375-6.263,6.198-12.58,9.0794-18.9624a143.3655,143.3655,0,0,0,8.8825-24.1763,86.6191,86.6191,0,0,0,2.49-17.9087c.2624-8.5915-4.4123-15.2867-7.6794-22.4113A33.4617,33.4617,0,0,0,765.3,87.2532c-4.4329-3.7333-9.0934-7.269-15.7028-7.306-4.9089-.0056-9.8117-1.7549-14.7432-2.4021-2.6117-.348-5.3238.1624-7.9917.11-.9622.0122-1.9083-.0439-2.8648-.1046-.9066-.0456-1.8333-.1183-2.74-.1643-.9838-.0408-1.9328-.1043-2.9-.1255-1.8162-.0551-3.6425-.0706-5.4445-.026-1.0274.0034-2.067-.0236-3.0943-.02a131.8339,131.8339,0,0,0-19.0828,1.1422A175.4421,175.4421,0,0,0,650.67,88.7272c-1.5087.2689-2.998.5648-4.44.9119a29.447,29.447,0,0,0-7.6942,1.95c-.4917.3052-.9658.5674-1.4805.8374-7.1885,2.6773-14.0328,6.1381-20.88,9.3975a137.4181,137.4181,0,0,0-14.5715,7.8684c-3.7429,2.3706-6.9632,5.5314-10.3927,8.3283a75.3121,75.3121,0,0,1-6.3454,5.0172c-6.7691,4.3183-11.2337,10.938-16.0323,16.9721-3.3785,4.2888-4.7645,10.1088-7.1253,15.2159-1.6823,3.6365-1.4954,7.0689-.6912,11.0689.9577,4.8345-.41,10.0931-.0879,15.1149.3364,5.2536-1.9732,9.3814-4.0752,13.8476a6.9422,6.9422,0,0,1-7.1025,3.9083c-5.6936-.5756-11.4784-1.5275-15.9466-6.1081-2.2837-2.3362-5.5387-3.6632-8.2775-5.6038-1.6625-1.2164-3.086-2.776-4.6852-4.0092-4.9251-3.8415-9.8026-7.7375-14.8545-11.3952-4.09-2.9755-8.3385-5.755-12.6549-8.5067-6.99-4.4463-12.1323-10.3628-14.3628-18.4886-.4122-1.4506.1787-3.2025.3227-4.7993a15.4683,15.4683,0,0,1,3.3234.4989c3.3525,1.1556,6.6737,2.386,9.9871,3.6185a13.7042,13.7042,0,0,0,10.0259.3312c2.2823-.8988,4.6391-1.6784,6.8509-2.7511,4.9392-2.4775,7.0925-6.9907,8.55-12.0483,1.5166-5.1511-.7521-9.7274-3.4605-13.263-2.2122-2.9193-6.46-4.591-10.1252-5.9975-5.58-2.1606-11.1047-.888-16.2952,1.9022-.8043.467-1.3658,1.38-2.1948,1.7868a25.7859,25.7859,0,0,1-4.9716,2.0508,16.56,16.56,0,0,1-4.1586.1738c-1.96-2.6433-4.0279-5.4452-6.7045-9.099,4.6478-2.6759,8.3534-5.3122,12.4626-7.04,6.0117-2.5431,9.2039-7.2045,11.4122-12.6017a14.4625,14.4625,0,0,0,1.7712-3.3295,16.9189,16.9189,0,0,0-4.9605-19.522c-5.9248-4.7025-15.2154-6.0177-21.3067-.6994a20.8019,20.8019,0,0,0-3.8106,4.3938c-2.0036,2.43-5.1521,4.2518-6.0878,7.6908a18.5037,18.5037,0,0,0-1.0229,6.4554c.573,5.4037-.3716,6.956-6.1351,8.1585-2.6673-4.1062-2.3145-8.9182,1.0919-12.1193,2.9121-2.728,3.3026-6.254,4.3857-9.85,1.2812-4.3-1.5237-7.4887-1.4046-11.4238.0531-2.2545-3.3412-4.6856-5.3793-6.8489a16.3174,16.3174,0,0,0-4.1346-2.8257c-7.1244-3.67-13.395-.1612-18.9237,3.4872-2.5145,1.67-3.8322,5.88-4.7219,9.1947a21.353,21.353,0,0,0,1.108,14.595,17.218,17.218,0,0,0,2.441,2.7913,7.7623,7.7623,0,0,1,1.68,2.7126c.6641,2.896,1.0417,5.8641,1.6644,8.7681-2.084,3.4914-4.78,6.1671-8.2212,6.05a18.4509,18.4509,0,0,1-5.2386-2.9231c-4.8235-4.4366-5.5487-10.9748-8.9655-15.9111a23.76,23.76,0,0,0-13.7914-10.1384c-4.4918-1.1685-8.7684-.2875-13.1-.8a3.59,3.59,0,0,0-2.4072.7643c-5.6,4.2315-10.3605,8.6675-11.2089,16.5732-.6781,6.1129,1.9258,10.9307,4.7411,15.2495,2.7906,4.2586,7.91,6.887,13.11,8.111a22.258,22.258,0,0,0,3.0177.3945c3.0889,1.113,6.3066,1.936,9.4926,2.746a5.2007,5.2007,0,0,0,1.9252.1075,5.083,5.083,0,0,1,.8448,1.0644,20.4812,20.4812,0,0,1,2.53,10.0354c.0041.2709.0111.5492-.0068.8291a12.7557,12.7557,0,0,0-.6486,3.323,8.4428,8.4428,0,0,1-1.924,2.8022,35.973,35.973,0,0,0-22.8806,10.5776c-5.1815,3.1384-8.0645,8.15-9.1434,14.2937-.4095,2.46,1.3655,5.32,2.139,7.9869a18.6337,18.6337,0,0,0,15.8725,13.559c5.5262.7484,11.9128.3226,17.12-5.0508a43.204,43.204,0,0,0,8.2566-11.1464c.7155-1.53,1.5293-2.994,2.0487-3.9253,5.9319,3.0289,11.0871,5.5725,16.17,8.2861a4.7825,4.7825,0,0,1,1.9788,2.2574c2.0329,5.0141,4.0358,10.04,5.762,15.1438.5488,1.5272-.0055,3.37.3393,4.98.9405,4.3576,3.9548,6.9782,7.287,9.9271,3.3762,2.9923,7.9263,4.3042,11.538,6.8581a7.3063,7.3063,0,0,0,2.4508,3.5081,13.231,13.231,0,0,1,1.17,1.1081,8.5434,8.5434,0,0,1-.438,5.0134,10.6035,10.6035,0,0,1-3.5351,4.423c-2.0138.3681-4.0368.7134-6.0506,1.0813a16.5624,16.5624,0,0,0-2.4537.4759c-.4365.1156-.8869.263-1.3145.4007a6.3435,6.3435,0,0,0-2.6108.8476c-7.6929,2.5385-15.2934,5.4794-23.2,6.7331-10.746,1.71-20.09,6.7036-29.8786,10.6011a154.3475,154.3475,0,0,0-21.252,11.0166,84.2923,84.2923,0,0,0-14.8053,10.8473c-5.6266,5.27-10.5162,11.3416-15.6625,17.1037a79.0615,79.0615,0,0,0-12.6495,20.48,152.1747,152.1747,0,0,0-5.3469,14.7674c-1.71,5.1953-3.4544,10.3692-4.7566,15.6364-.88,3.5132-.8561,7.2139-1.5053,10.7743-.7689,4.1982-1.93,8.2739-2.7514,12.45-.7277,3.6278-1.1131,7.3181-1.8177,10.9364-.6233,3.2774-1.55,6.5018-2.15,9.77-.6188,3.5482-.8558,7.214-1.5477,10.7564-.8357,4.12-1.8892,8.222-3.05,12.298a34.5732,34.5732,0,0,1-2.5837,6.1627c-2.2,4.2247-5.2588,4.4005-7.9179.4667-2.421-3.52-4.54-7.2945-7.0924-10.7266-2.5049-3.3808-5.4185-6.49-8.1151-9.7583a10.4962,10.4962,0,0,1-1.1516-1.907c-2.9843-5.93-7.513-10.4859-12.63-14.6278-1.7927-1.4711-3.2012-3.406-4.8869-5.0261-2.6691-2.5934-5.379-5.1348-8.1549-7.5791a82.3491,82.3491,0,0,0-7.1374-5.8286c-3.2762-2.3116-6.7407-4.4157-10.1358-6.6089-4.1811-2.701-8.2535-5.7189-12.642-8.0633a95.4067,95.4067,0,0,0-12.5478-5.3584c-5.12-1.872-10.2021-3.9972-15.5312-4.9314-4.4207-.8192-9.1264-.1512-13.7153-.04-2.11.0643-4.5287-.327-6.2723.5557-7.8168,3.9253-13.78,9.2975-15.1216,18.8714-.8356,6.0715-3.3568,11.8681-4.9222,17.8311-.8836,3.2421-1.4328,6.5509-2.051,9.8616-.6437,3.4879-1.21,7.0145-1.823,10.49l-.9473.2872c-.37-.9137-1.139-1.877-1.0616-2.77.508-6.5541-2.1451-11.4931-6.5707-16.2933-2.3113-2.4919-5.0508-3.3067-7.6569-4.6589-3.096-1.6288-11.313,1.3949-14.1162,3.8063-2.607,2.2879-4.751,4.6343-5.44,8.0087a20.9742,20.9742,0,0,0-.6647,7.3389c.5054,2.96,1.985,5.7631,3.0592,8.6514,1.4832,4.0058,4.447,6.4795,7.9639,8.7993,2.8046,1.8435,4.8736,4.8208,7.2787,7.2837-4.0891,4.4012-6.0513,3.79-9.0216-.7387-4.6928-7.1713-9.9544-13.7958-19.5154-15.3443-7.4456-1.1667-15.8967,3.6665-17.9512,10.7861A20.1547,20.1547,0,0,0,87.38,408.9134a15.8742,15.8742,0,0,0,10.8368,7.0806c2.3286.3223,4.7514-.3175,7.1105-.2449a16.9119,16.9119,0,0,1,5.8328.8971c.7035.304,1.2929,2.43,1.0163,3.4394-1.785,6.2893-9.4227,7.9439-14.4566,3.4871a13.8469,13.8469,0,0,0-5.5823-2.4052c-5.2465-1.3371-9.7114,1.2907-14.3618,3.1144a13.5416,13.5416,0,0,0-7.7556,7.98c-1.3392,3.2249-1.9806,6.369-.6182,9.7294a12.5478,12.5478,0,0,1,.6345,1.7385c1.73,8.6713,8.8214,10.6762,15.8426,12.6394,1.0016.28,2.33-.6723,3.532-.8518,1.4911-.2263,3-.2137,4.4818-.3748a5.3181,5.3181,0,0,0,2.3865-.5547c2.2026-1.5083,4.2962-3.2187,6.4916-4.83,2.6963-1.9814,5.4394-3.9554,8.5445-6.2077.5814.0024,1.1727.0084,1.7536.01,1.4236,3.5113,2.6014,6.1552,3.5277,8.8746.5784,1.7528-2.6741,7.3709-4.6613,8.238-8.1113,3.6315-12.8207,10.3853-14.9043,18.4752-1.7959,7.0853.9846,14.4429,5.5985,19.4042,3.5876,3.8386,9.38,7.0207,15.84,4.912a8.388,8.388,0,0,1,2.4164-.0476c.8167-.0234,1.8909.2621,2.4217-.12,6.28-4.5068,11.6641-9.8552,13.5514-17.5838.6281-2.5936-.2438-5.5022-.3752-8.2975a14.2331,14.2331,0,0,1,1.3789-6.336,7.4061,7.4061,0,0,0,2.4572-5.4542c1.142-3.0392,3.2561-3.6589,5.8168-3.8706a14.3253,14.3253,0,0,1,3.1582.0913c1.6224,2.05,3.2481,4.1079,4.9042,6.1536,1.7551,4.5026,3.5737,8.9881,5.3015,13.51a23.7723,23.7723,0,0,0,15.8973,14.64c1.0215.3068,2.3572-.3668,3.5349-.607.3489-.0713.7288-.1544,1.1081-.2377,9.8571-.4971,19.2547-8.1585,21.4351-17.7646.1292-.5273.2507-1.0953.3343-1.6481.6824-4.497.7459-9.6752-2.829-13.4839A20.8993,20.8993,0,0,0,189.01,453.06a13.1516,13.1516,0,0,0-6.7617-2.1033c-1.663-.0468-4.2083-.7294-4.6826-1.8122a7.2068,7.2068,0,0,1,.5333-5.7114c3.3824-5.7323,7.22-11.1658,10.7981-16.74,1.78-2.7442,3.2312-5.6714,5.1105-8.3235a32.1879,32.1879,0,0,1,4.5142-4.3713c.1332-.0189.2464-.0647.41-.0958,1.2875,1.5706,2.872,3.2672,4.2182,5.1566a34.5769,34.5769,0,0,1,1.7,3.6719c3.3409,6.1369,6.4764,12.4185,10.1481,18.3509a138.9276,138.9276,0,0,0,10.7779,14.8947c2.3633,2.858,4.9242,5.5305,7.5753,8.1658a165.6444,165.6444,0,0,0,19.9339,23.9235c-.14.4349-.2428.8545-.3877,1.2561a86.2,86.2,0,0,1-6.2855,13.8825c-1.771,3.092-4.613,5.5808-6.8876,8.4285-1.0861,1.3988-2.11,2.8424-3.1807,4.2785l-30.7932,33.1557c-3.0866,2.9045-6.1873,5.8406-9.0931,8.9093-3.2459,3.4437-6.1429,7.23-9.2174,10.8151l-1.6082,1.716c-.3.1918-.6031.3767-.9037.5686a21.07,21.07,0,0,0-6.5854,6.7233c-1.0556,1.0171-2.1225,2.03-3.13,3.1242-1.9985,2.1819-3.6949,4.5927-5.4981,6.9332q-14.7354,15.8658-29.4787,31.7349a12.5445,12.5445,0,0,0-4.0184,3.7305c-37.8633,55.2958-52.2555,129.9244-20.2691,191.4472,16.2212,31.2052,41.3881,56.5852,73.3886,69.9542Z" fill="#010101"/>
</svg>
