<svg id="Calque_1" data-name="Calque 1" xmlns="http://www.w3.org/2000/svg" width="30cm" height="33.4cm" viewBox="0 0 850.3937 946.7717">
  <path d="M134.3086,699.1206c4.4486,8.8969,5.0876,18.0807,4.3828,27.7805a215.208,215.208,0,0,0-.1879,25.282c.1879,4.6368,1.63,9.2165,2.4906,13.7879a31.7236,31.7236,0,0,0,2.2118-6.3c3.834-13.7308,9.5033-26.9124,11.1009-41.2814,1.86-16.3851,2.0151-32.4177-6.4641-47.1066-10.4943-46.5658,20.9319-74.633,46.1479-107.6567-.3523,16.5733-.3849,33.1874-.4505,49.7609-.09,29.2551-2.5231,58.2482-8.766,86.856a134.5572,134.5572,0,0,0-1.54,49.5723c1.5075,9.5936,1.86,19.1048-.1231,28.6408-6.5948,31.4264-9.0606,63.4586-13.8614,95.1389-.4423,3.0723.385,4.8989,2.7529,6.9142,6.4635,5.44,7.52,8.4136,3.2032,16.9256a23.3286,23.3286,0,0,0-2.0809,5.3743,4.2975,4.2975,0,0,0,2.3673,5.2515c3.1052,1.7941,6.21,2.8507,9.6673,2.212,4.7682-.8691,9.4375-2.114,14.1728-3.0476,2.4989-.4754,2.9491-1.8517,2.2448-3.9325a7.4314,7.4314,0,0,0-1.4746-2.8187c-3.0065-3.1376-6.1443-6.1775-9.3149-9.1841a9.5666,9.5666,0,0,1-3.3917-7.9057c.32-5.7265.23-11.4528.418-17.18.5733-18.785.9256-37.5377,1.95-56.29a678.9945,678.9945,0,0,1,6.9471-68.71c.6718-4.3827,1.0893-9.0279,2.9412-12.9605a77.3939,77.3939,0,0,0,5.7591-18.5639c2.2448-12.2232,4.7435-24.4132,9.6017-35.94a211.99,211.99,0,0,1,29.5416-50.0476c1.9828-2.4987,3.81-5.0548,5.5056-7.6517a15.2813,15.2813,0,0,0,3.26,4.039,6.3975,6.3975,0,0,0-.0654,2.7771c4.26,14.566,7.84,29.288,8.6431,44.5176.8356,15.23-.0655,30.2711-5.0875,44.87a7.6666,7.6666,0,0,0-.32,3.965,470.21,470.21,0,0,0,18.3018,61.0582c12.8953,33.7938,25.7,67.5547,32.901,103.143a2.97,2.97,0,0,0,2.9411,2.6213,60.4437,60.4437,0,0,1,6.5621,1.3436c5.3415,1.2533,7.84,6.21,4.5467,11.0433-2.1793,3.2031-1.86,3.8421,1.5646,5.8252a7.3908,7.3908,0,0,0,2.4.991c7.1031,1.3763,14.1158.2868,21.12-1.057,1.4093-.2541,1.8268-1.1224,1.1878-2.589-4.293-9.7324-7.5206-11.78-18.0807-11.2316-.0655,0-.131-.1312-.3851-.3523,2.2694-6.4638.7949-12.5757-2.114-18.63-2.5885-5.44-4.9889-10.9778-7.3893-16.5079-13.73-31.3692-26.1831-63.1719-30.9836-97.3834-1.9171-13.5667-3.482-27.1087-2.0484-40.8965.77-7.5868,2.5644-14.4024,7.2994-20.5137a18.1165,18.1165,0,0,0,3.1051-7.4225A215.4828,215.4828,0,0,1,310.0607,643.92c2.1464-5.186,4.3832-10.3718,6.6851-15.7139a12.8791,12.8791,0,0,0,5.5055-3.7767c.2293-.2865.4178-.6061.6718-.8683,1.4416,0,2.8507.0983,4.3255.0658.3768,0,.7621-.033,1.1471-.0658a108.5359,108.5359,0,0,0,33.0234-2.1375,4.9118,4.9118,0,0,1,.6718-.0986,69.3893,69.3893,0,0,0,31.6883-12.6729,110.8189,110.8189,0,0,0,16.1228-11.65c-2.0154,5.153-4.2192,10.2732-5.2106,15.6148-2.0808,11.2973-1.7616,22.8242-.5167,34.277q1.5855,14.7832,2.5969,29.6321c.7948,12.0345-1.54,23.8154-3.7765,35.5551a94.4263,94.4263,0,0,0-1.3763,29.8613c.7046,5.1777,1.6631,10.3635,2.2364,15.5823,1.696,14.8448.6721,29.6646-.1558,44.5421-.9662,17.0646-3.1376,34.056-2.7524,51.2353.3851,17.86,1.8842,35.4651,7.4224,52.5795a7.73,7.73,0,0,1-.4175,4.6453c-1.2781,3.4242-.3853,4.7351,3.3259,4.6038,2.1792-.09,4.3913.1637,6.5948.2868a33.4108,33.4108,0,0,1-4.5792,3.7194,3.397,3.397,0,0,0-1.1146,2.6871,3.5128,3.5128,0,0,0,2.0811,1.917,24.0666,24.0666,0,0,0,4.7682,1.2122,65.1354,65.1354,0,0,0,21.0216.5168c-.2538-10.5928-.3193-10.5271-7.9711-17.4087a13.84,13.84,0,0,1-3.8671-5.8578c-1.4415-4.4159-2.1463-9.0524-3.3259-13.5666-2.7281-10.4371-5.6362-20.8988-5.7673-31.7457-.1557-11.9691-.3523-23.971.5161-35.8747,1.376-18.8835,3.1376-37.7589,5.6035-56.5439,2.4249-18.466,5.792-36.8334,8.9214-55.2089,3.5885-20.9564,7.0457-41.9534,11.1747-62.8195,3.5143-18.0159,7.8976-35.8419,11.9036-53.7589.221-.9586.4752-1.95.7373-2.9164.54.3523.7046.6718.7046,1,1.4009,19.4814,3.1945,38.9712,3.9977,58.461.4181,9.7653-1.2205,19.6207-1.4415,29.4108q-.762,35.7108-1.1223,71.4627c-.0575,7.6762.0324,15.3933.6718,23.0371,1.663,19.4569,3.49,38.914,5.669,58.3055,1.8842,16.8027,4.383,33.5067,6.4639,50.31.3192,2.4986,1.3761,3.6129,3.8422,3.9977,4.5714.7046,6.8736,4.162,8.315,8.0041a30.5792,30.5792,0,0,1,1.376,16.1309c3.3917.8275,6.5623,1.6961,9.79,2.3678,4.5137.9583,9.0608,2.0479,13.64,2.5886,3.1621.3851,4.8582-1.1794,4.7927-4.4159-.0575-2.6542-.287-5.7593-1.7206-7.7747a29.42,29.42,0,0,0-17.539-11.9366c-1.6631-.4506-3.3589-.7046-5.022-1.057-.1968-1.5972-.3523-3.0391-.549-4.4812-1.4419-11.8709-3.105-23.717-4.2515-35.6207-1.54-15.4508-2.7854-30.9753-3.9407-46.4672-.77-10.175-1.4992-20.3828-1.6631-30.5906-.1311-9.02.5737-18.0477.77-27.1007a735.3884,735.3884,0,0,1,5.3414-75.911c2.212-17.6629,5.7921-35.0388,11.9689-51.8087,2.0154-5.5711,4.26-11.1417,5.44-16.9011,3.81-18.1134,5.1531-36.5464,6.5292-54.9467.4835-6.8816.6392-13.8861,2.0481-20.5795a131.5907,131.5907,0,0,1,6.562-19.8994,23.8423,23.8423,0,0,0,.9913-12.5751c-1.3761-9.1592-5.923-16.9994-10.912-24.5528-2.3019-3.4816-4.7682-6.8736-6.98-10.429a3.7752,3.7752,0,0,1-.3523-3.0722c2.851-6.5948,5.6036-13.2476,8.9624-19.6131,12.3871-23.2337,24.61-46.5655,37.57-69.48A380.4181,380.4181,0,0,0,586.0722,270.46c5.35-21.4726,9.2819-43.2643,12.993-65.1216,3.744-22.2754,9.151-44.2967,13.9845-66.408a178.4709,178.4709,0,0,1,5.0875-18.179c.549-1.6959,2.5969-3.9325,4.0389-4.0306a67.0956,67.0956,0,0,1,15.8687.5159c10.8468,1.95,21.5379,2.6874,32.3847.09a42.5619,42.5619,0,0,1,12.1-1.0811c9.02.385,18.0478,1.0811,27.01,1.9823,6.3327.6063,11.5841-1.4093,16.9255-5.538-1.86-2.2694-3.2031-4.67-5.2185-6.21a144.5952,144.5952,0,0,0-15.5166-10.8795c-9.3147-5.4071-18.9162-10.3061-28.3867-15.4263-7.6516-4.129-14.1482-9.151-17.8921-17.532-2.6872-6.0541-7.9059-8.8969-15.0987-8.4794-5.12.2868-10.3061,1.2456-15.5247-.262a14.4165,14.4165,0,0,1-7.4878-4.5388c-3.4244-4.0386-3.744-9.028-4.4159-13.96-.9584-6.8406-2.1463-7.8649-9.0279-7.8974a4.0821,4.0821,0,0,1-.8926-.033c-3.7112-1.1223-6.3328.9913-8.7987,3.2279a5.9426,5.9426,0,0,0,.0986,8.4036q.1811.1769.3767.3378a48.0439,48.0439,0,0,0,8.4544,5.0873c5.2432,2.2366,8.9543,6.0132,12.1577,10.429-2.9738,5.8252-5.9559,7.4225-12.0348,6.1443A35.0369,35.0369,0,0,1,599,58.4806c-3.1295-1.5731-5.3741-.77-7.3894,1.5972-6.4638,7.488-13.1489,14.82-19.2607,22.6275a132.62,132.62,0,0,0-21.6362,41.06c-4.4159,13.6649-8.0039,27.617-11.9363,41.4046-7.9059,27.7151-16.9339,54.98-32.2617,79.6877a143.9708,143.9708,0,0,1-10.7813,15.5164c-17.9254,21.9235-38.759,41.028-60.0348,59.4613-18.4986,16.0326-38.21,30.6888-57.4123,45.9267-2.4989,1.9826-5.5056,3.4244-7.7748,5.6282-2.9491,2.9167-5.251,6.4641-8.0694,9.5364-6.5211,7.0451-13.0833,14.0827-19.8338,20.8989a40.1664,40.1664,0,0,1-8.1024,6.1443c-17.2122,10.1417-36.2514,15.8438-55.2,21.5376-16.8357,5.0547-33.253,10.8141-47.3932,21.6362-3.7112,2.81-8.0043,5.3414-10.5934,9.02-5.9886,8.4138-11.2974,17.188-14.656,27.2644a263.432,263.432,0,0,0-8.0369,30.0826,10.9114,10.9114,0,0,0-1.057,2.1464c-11.1337,30.4676-37.3742,51.5877-55.8072,77.5089-11.6494,16.4173-16.4831,35.3255-16.1636,54.4958a34.6831,34.6831,0,0,0-1.4336,24.3235c2.2694,8.0284,6.3329,15.6146,10.1423,23.1352Z" fill="#010101"/>
</svg>
