<svg id="Calque_1" data-name="Calque 1" xmlns="http://www.w3.org/2000/svg" width="30cm" height="33.4cm" viewBox="0 0 850.3937 946.7717">
  <path d="M660.4937,229.9893c-19.88-4.954-41.0282-7.7443-58.9589-16.749-16.717-8.4259-32.0154-22.0836-44.2465-36.542-16.78-19.8164-27.3072-44.1513-52.3555-57.6187-8.7349-4.7083-13.8161-20.0384-16.3208-31.4608-2.6316-11.9217-6.777-16.5983-18.7624-15.021a136.6807,136.6807,0,0,1-21.9248.9036c-36.1931-.8088-46.4106-6.3807-58.61-38.5234-1.7042-4.55-5.6986-5.4138-9.14-1.9814q-5.0532,5.0646-9.9083,9.9714c-3.4,3.5035-9.9954,7.467-13.7763,10.495-5.7866,4.6446-8.8541,12.1751-5.6043,21.5525.2141.5865.4044,1.1809.5865,1.7675.2775.9591-2.473,4.3361-5.85,7.8-1.5774,1.6092-3.0992,3.2816-4.5182,4.9542-3.1945,3.6858-8.18,9.7893-11.676,13.1582-4.6132,4.4-9.3849,8.1487-14.7673,9.5675-17.1536,4.4629-18.3343,12.8491-14.8308,23.6292,1.514,4.6447-.5,9.5675-5.1127,11.1452a28.7394,28.7394,0,0,0-8.981,4.3673,45.8493,45.8493,0,0,0-7.8634,8.4816c-2.9724,3.8682-1.5137,7.6808,3.2817,8.5449,3.8683.6817,7.7128,1.3317,11.6128,1.8628,1.054.15,2.4492-2.3544,3.5591-2.2592,2.481.2138,4.9223.5548,7.3717.9592,4.0585.618,5.4774,4.0184,3.1549,7.5538a18.46,18.46,0,0,1-5.1048,5.5728c-12.3576,7.8315-25.1119,15.0124-38.1192,22.48a7.3474,7.3474,0,0,0-2.1324,11.2719c15.3538,19.4754,15.9721,23.4391,5.6676,43.3744-2.2355,4.3358-.2855,8.8305,4.1456,10.8675,18.9209,8.7034,18.58,22.8842,8.0218,38.6188-2.7267,4.05-1.7675,8.7587,2.5049,11.0812,14.9893,8.0774,16.3206,12.4132,16.5983,40.4654a10.0362,10.0362,0,0,0,8.8222,9.512c19.23,2.7818,25.6351,14.086,14.7991,36.6607-1.1731,2.41,4.5816,11.7316,7.6177,11.9457,24.9607,2.045,25.0163,15.2032,16.5983,33.3473a8.93,8.93,0,0,0-.6818,3.6859c-.0634,2.1084,3.345,5.8893,7.6808,8.1171,8.2994,4.24,16.9077,8.0134,18.358,13.6258.6185,2.3775,1.2365,4.7638,1.8627,7.1814,1.0148,3.963-2.0451,6.468-6.8487,5.5723-3.9631-.7451-7.9581-1.4584-11.9216-2.1957-14.0221-3.8444-28.5438-6.6584-44.77-10.0982-4.74-1.0225-7.8,2.0134-6.7537,6.7534,9.3218,41.8927,22.6067,80.4081,52.2676,116.45a53.1123,53.1123,0,0,1,8.1725,15.1717c.3411,1.1493.7136,2.2909,1.1178,3.44,1.5457,4.6136.3725,10.8358-3.2819,13.3406-3.654,2.5129-5.3264,7.7452-5.0175,12.6034,1.0858,18.057-16.2892,31.8969-15.2348,49.9457.309,5.0811,2.2906,12.1358-.2143,14.9266-19.5389,21.5759-2.8455,44.8012-1.95,66.4174.9591,22.48,9.1,46.0695,19.4126,66.5043,34.0922,67.5669,131.13,94.192,191.57,53.2909a64.0413,64.0413,0,0,0,6.9675-5.2948,6.8674,6.8674,0,0,1,1.2051-.7136,11.5618,11.5618,0,0,0,1.2133-.7767c1.95-1.4507,3.9-2.9412,5.85-4.3912.7451-.563,1.4822-1.1495,2.2272-1.7044a31.1641,31.1641,0,0,0,3.25-2.8219,51.1619,51.1619,0,0,0,5.9449-5.85c1.3315-1.7359,2.6-3.6859,3.9-5.7231,34.8375-54.7811,12.7621-127.167-44.7063-145.8741-24.398-7.9584-47.6867-3.2816-66.0129,13.1028-16.7807,14.9813-25.5478,35.2657-19.88,59.45,4.6769,20.1254,19.476,29.13,37.1523,32.9745,19.1668,4.1457,37.6277-1.5218,48.4317-18.2391,4.5817-7.0626,4.2725-20.4033.745-28.52-2.5442-5.7866-13.9982-9.9083-21.7428-10.4316-3.5591-.2457-7.3083,2.6-10.4314,6.7771-2.9093,3.9078-.4044,8.0218,4.431,8.4578,1.9184.1822,3.8358.3725,5.7549.5548,4.8588.4359,9.1947,2.6,9.6938,4.8273.5231,2.2354-2.7588,5.4535-7.1815,7.4351-5.58,2.4493-11.121,4.7957-16.5984,4.6133-5.4217-.1821-15.4254-9.0759-14.8943-12.8489,1.2685-9.0762,5.478-21.4574,12.3817-25.0483,8.9175-4.6447,25.92-6.7852,31.738-1.5219,10.7488,9.8212,21.3387,25.3651,22.3613,39.2051,2.2908,32.0713-21.2117,51.8323-55.4627,56.4773-53.2832,7.2132-89.4207-35.1466-82.5482-91.7507,3.9079-31.9842,20.6886-57.4683,42.8594-77.19,2.1957-1.95,4.24-3.9,6.1907-5.9132,3.2815-3.4084,7.8631-6.0718,10.495-6.381a24.7415,24.7415,0,0,0,4.7084-1.0462q3.4839-1.1173,6.8722-2.3224a159.0306,159.0306,0,0,1,15.3619-4.5263c12.4447-2.7267,24.3032-5.0178,33.3157-11.3906,3.6543-2.5681,4.1775-9.6309,4.2409-17.3117.0634-4.8592,1.6406-12.4447,2.695-17.185a76.5336,76.5336,0,0,0,1.6091-16.8125,34.9766,34.9766,0,0,1,4.7083-16.0991,142.242,142.242,0,0,0,22.9409-68.1534c1.7678-25.6987-5.4457-52.0148-8.64-78.03-1.1416-9.3454-2.0136-18.7624-3.7178-27.9888-.9592-5.2633-3.1549-10.3125-5.1048-15.2986-3.6226-9.2264-7.031-18.6031-11.3983-27.4578-3.6464-7.4668-7.0549-18.3976-13.19-20.6252-14.2124-5.1368-21.1722-12.0726-18.0173-27.3076,3.0358-14.5222-5.1365-18.3657-17.3673-17.8663-15.33.6495-22.8525-5.7629-23.6928-21.7986a11.9124,11.9124,0,0,0-2.8139-6.0084c-2.2908-2.9412-3.7492-8.45-4.5182-13.0946a34.33,34.33,0,0,0-2.6634-8.117,17.8346,17.8346,0,0,0-1.4267-2.5682c-.9275-1.3315.6814-3.1863,3.6858-4.4866,1.8547-.8088,3.6225-1.6726,5.3265-2.5444,14.3-7.4907,26.2217-7.5541,41.4881-2.1957,25.08,8.8224,51.8323,12.8811,77.1576,21.1483,13.3486,4.3361,25.9194,10.9625,36.1377,16.1625a14.9276,14.9276,0,0,0,14.7354-1.6726c12.0488-9.5991,23.9387-18.4215,34.061-28.9162,11.7392-12.1437,7.2765-21.7112-9.3773-25.8568Z" fill="#010101"/>
</svg>
