<svg id="Calque_1" data-name="Calque 1" xmlns="http://www.w3.org/2000/svg" width="30cm" height="33.4cm" viewBox="0 0 850.3937 946.7717">
  <path d="M783.6188,52.7153c-12.9237,9.6492-24.0611,21.3137-34.287,34.0125-9.4465,11.7261-13.21,25.869-15.85,40.559-1.2644,6.9322-3.9328,8.9236-11.2035,8.6845-4.8519-.1545-7.2045-2.926-8.1233-9.0473-2.4409-16.497-9.8215-29.9447-23.0619-39.47-13.0637-9.3793-25.87-18.9978-36.5588-31.3957a24.7162,24.7162,0,0,0-4.7928-3.5587c-6.1165,6.0062-4.3668,13.571-4.5065,20.0245a85.0018,85.0018,0,0,0,9.9317,41.4c5.4327,10.4679,11.4315,20.8969,21.9146,25.8144,7.6673,3.62,9.3,8.4452,8.1231,15.8638-.3455,2.169-1.2643,4.2227-1.7195,6.3611-1.61,7.897-3.5874,15.74-4.5357,23.73-.9191,7.959,1.3747,16.134-1.1248,24.1546a95.5314,95.5314,0,0,0-2.2055,11.9114c-1.8156,10.738-5.8077,20.4725-12.9826,28.4392-9.2775,10.2823-21.7675,14.6517-33.8827,19.631-16.3421,6.6928-31.6476,15.223-45.1744,27.2265-10.395,9.2252-20.62,18.9672-32.1332,26.4783-16.5407,10.7919-34.1768,19.7467-51.32,29.489-24.8625,14.1421-45.6007,33.348-63.2587,56.4223-12.9239,16.852-22.4,35.7882-30.8392,55.3878a218.7021,218.7021,0,0,0-16.0554,55.2185,237.9233,237.9233,0,0,0-1.6616,51.2041c1.4042,19.2993,1.0291,38.8374.1986,58.1979-.7793,17.6089-5.6313,34.4913-11.9166,50.8416a240.0341,240.0341,0,0,1-39.1168,66.9136,218.3864,218.3864,0,0,1-64.178,53.3117c-21.481,11.7563-20.6684,10.4284-44.0166,14.6819-15.416,2.8331-23.6458,4.1122-39.0616,6.9759-10.5714,1.9609-18.4676,3.4607-29.0021,5.5141-15.9087,3.1033-20.6661,4.0937-36.6039,7.0193-6.9248,1.266-15.52,2.6748-22.4084,4.0332-9.7627,1.9609-21.9175,8.8127-30.4452,17.4661,3.5066.7489,36.0869,2.8786,39.0126,2.8475,8.33-.0926,31.1324-.5149,39.4615-.4532,11.7183.0307,18.5828-.1294,30.3006-.2145,52.0042-.4551,22.8363,3.2225,74.8183-.2742,12.718-.88,25.2666-1.8143,37.8451-4.408a138.401,138.401,0,0,0,40.7783-15.6787c30.3539-17.2148,54.07-42.5738,74.72-71.0126C422.7084,747.75,435.375,727.424,448.4385,707.43c2.47-3.7364,4.4843-3.0106,6.69-.3936a47.1033,47.1033,0,0,1,4.1979,6.4535c4.6238,7.7813,11.1667,14.4434,12.8061,23.9461,1.75,10.3445,3.8153,20.6577,4.8519,31.1178.9483,9.5569,2.0367,19.4536.691,28.8329-2.9333,20.38-7.0648,40.5818-5.4841,61.363.3676,4.8249,1.948,9.9817,6.4839,11.1859a62.15,62.15,0,0,0,18.7534,1.7523c11.9168-.4866,23.6642-4.8864,35.7575-1.4513,6.2564,1.8056,12.6,3.1652,18.805,5.1566,7.094,2.2618,14.5337,2.2,21.65,5.52,5.0576,2.3547,11.946.78,17.9815.2393,2.9846-.27,6.8075-1.42,8.5866-3.62,3.9034-4.794,7.7263-7.596,13.7838-5.0329.4558.2084,1.0586,0,1.5805.0309,9.4172.363,18.8048.7567,28.2221,1.0578,1.8671.0539,3.7051-.1547,6.8367-.3322-6.2564-13.0923-15.188-21.3523-27.0238-25.2739a220.8008,220.8008,0,0,0-47.1224-10.6454c-15.5923-1.5978-30.9863-5.0023-46.49-7.5035-5.8-.9338-10.6522-7.3026-9.3877-13.4243,2.9847-14.4742,7.293-28.4,15.3055-40.86a123.6875,123.6875,0,0,0,9.1892-17.3072c7.5206-17.4849,14.6735-35.1552,25.4434-50.903,2.47-3.5821,4.5947-3.7364,6.4323-.6019,5.3079,9.0474,11.3434,17.9481,14.9016,27.7752a348.4834,348.4834,0,0,1,13.24,46.4406c1.6026,7.4724.3674,15.8251-.522,23.6684s-3.33,15.5007-4.2784,23.3362c-.2574,2.1461,1.8671,5.55,3.7928,6.7856a34.5309,34.5309,0,0,0,10.77,4.0451c10.1082,2.4084,20.275,4.5543,30.4348,6.7234,2.7569.6019,5.7782.394,8.3586,1.4128,18.1507,7.3338,37.1026,8.87,56.26,8.6,4.705-.0617,9.7628-.7258,13.3208-5.25.7793-1.0267,2.8744-1.42,4.3079-1.2969,12.1152,1.15,24.2376,2.4473,36.3528,3.7364,1.4629.1537,2.9331.4247,4.94.7256-.3457-6.5154-3.9037-9.7344-7.9248-12.5753-3.36-2.3778-7.6088-3.86-10.1378-6.9322-8.6967-10.6763-20.2752-12.4827-32.4785-13.1463-6.2046-.3322-12.4312-.6331-18.6359-1.15-17.0846-1.4437-34.1692-3.1651-51.2614-4.3077-5.6832-.3934-8.7849-3.08-10.3359-8.3832-5.11-17.5549-1.1464-34.26,5.9472-49.9068a182.592,182.592,0,0,0,14.4452-47.16c2.779-17.8553,5.5137-35.7649,8.0059-53.6819,1.5216-10.7613,3.33-21.6148,3.5654-32.4771.2572-11.4873-1.066-23.0042-1.9556-34.4913q-.7276-12.7727-2.6685-25.4208c-2.301-13.0923-5.5137-25.9687-7.8145-39.0225a15.4876,15.4876,0,0,1,1.6392-9.858,283.0993,283.0993,0,0,1,16.4239-23.8528c1.0366-1.3895,4.999-2.2,6.2341-1.297,13.556,10.2518,19.6723,20.7118,11.6886,39.7406-2.1245,5.095-2.9332,9.5024.1691,13.9341,2.7055,3.86,5.9767,7.2949,9.0492,10.8844a1.8615,1.8615,0,0,0,1.4041.695c6.1459-1.2038,12.35-2.2313,18.3788-3.9834,1.4115-.3862,2.6171-3.0417,3.1906-4.8793,3.6465-12.0656,3.0733-23.645-3.6169-34.6226q-13.486-22.2081-26.5089-44.719c-1.0586-1.8374-1.9776-4.8557-1.2645-6.5154a152.7848,152.7848,0,0,1,7.9837-14.9836c2.0142-3.5279,3.36-3.1957,5.543.3939a197.3053,197.3053,0,0,0,14.6436,21.0126c4.0211,4.9177,9.16,8.839,13.725,13.301,10.3141,10.0741,10.7992,27.536,1.8673,38.7214-2.58,3.2577-4.7638,8.4684-4.33,12.4519a29.0871,29.0871,0,0,0,10.2773,19.932c1.6393,1.2969,5.3661,1.8991,6.8883.8182,6.2633-4.4387,11.3432-10.3442,11.2917-18.8511-.0881-13.988-.6029-28.0144-1.2349-42.0022-.206-4.5548-.2574-9.7114-2.2716-13.4784a207.7879,207.7879,0,0,0-15.0779-23.22c-5.05-6.994-10.3067-13.9341-11.1962-22.8888-.9776-9.7422-1.2936-19.5693-1.4628-29.3731-.147-7.6583-.4336-15.501,6.0281-21.2906,1.3748-1.2038,2.0657-3.3736,2.8156-5.2107,5.91-14.4742,10.0788-29.4658,11.2846-45.2371a158.75,158.75,0,0,0-4.308-50.8416c-.3749-1.5671.6617-3.4961,1.0366-5.2723.544-.1239,1.0587-.27,1.6026-.3939,6.8075,8.8389,15.8276,8.26,24.9875,7.1175,8.6158-1.0578,15.5041-11.1544,13.6664-19.9936-.6912-3.4043-1.6909-6.7548-2.183-10.19-1-6.94-2.0658-13.9334-2.4995-20.9281-.8306-12.8143-1.9776-25.6908-1.5216-38.4823.235-6.3917.6321-12.4515-1.4043-18.5114-.691-2.0843-2.0366-4.1916-1.9848-6.2452.3748-11.363-5.8-18.4189-14.012-24.0312-4.22-2.8638-4.1607-5.2492-.86-8.7771,8.3585-8.9548,15.0483-18.8745,17.5476-31.5962,1.9188-9.7113,3.9919-19.5154,7.41-28.7092a38.2056,38.2056,0,0,0,2.58-15.864c-.2867-4.7939-4.2783-7.4494-7.6087-4.9713Z" fill="#010101"/>
</svg>
