<svg id="Calque_1" data-name="Calque 1" xmlns="http://www.w3.org/2000/svg" width="30cm" height="33.4cm" viewBox="0 0 850.3937 946.7717">
  <g>
    <path d="M789.921,295.8011l-58.9161-36.8467A369.3013,369.3013,0,0,0,700.3238,224.24s11.3215-38.2028,9.4308-70.9353h.0345c26.9361,28.9969,56.8646,75.139,80.1317,142.4969Z" fill="#010101"/>
    <path d="M709.7545,153.3046c-1.1472-20.1242-7.3151-38.1935-24.1483-44.0724-10.289-3.5955-21.852-2.2417-33.2625,1.7027-31.3166,10.72-61.5779,40.72-61.5779,40.72a280.9821,280.9821,0,0,1,30.6559,13.992l52.7758,35.0545a342.5712,342.5712,0,0,1,26.1262,23.538s11.3216-38.2027,9.4308-70.9352Z" fill="#010101"/>
    <path d="M197.924,111.2584c-11.23-4.1417-22.73-5.6562-33.1364-2.0261-16.941,5.8972-23.0808,24.1552-24.22,44.43-1.82,32.698,9.385,70.685,9.385,70.685l.0091.0184A342.2466,342.2466,0,0,1,177.2284,199.86l52.4519-34.598a286.2935,286.2935,0,0,1,27.1046-12.4958s-28.5011-30.3391-58.8609-41.507Z" fill="#010101"/>
    <path d="M149.9531,224.3477l.0091.0183a365.836,365.836,0,0,0-30.5732,34.5888L60.4729,295.8011C83.74,228.4432,113.4805,182.65,140.4167,153.6438l.1514.0184c-1.82,32.6981,9.385,70.6851,9.385,70.6851Z" fill="#010101"/>
    <path d="M590.7659,151.6548a280.9821,280.9821,0,0,1,30.6559,13.992,322.1612,322.1612,0,0,1,52.7757,35.0546,342.5515,342.5515,0,0,1,26.1263,23.538,369.3013,369.3013,0,0,1,30.6811,34.7149s77.8466,101.9837,54.694,213.12c-1.4965-16.2252-10.6125-30.9427-20.0776-42.1472q-9.1936-10.89-17.2991-22.6133l-.0183.0184c6.5258,18.2764,22.634,93.0208-2.8407,196,9.6351-39.4647-26.0024-105.533-26.98-107.3527.7179,2.4644,36.615,125.2874-49.88,227.1285,15.6331-29.4441-11.51-97.7983-11.51-97.7983s5.4588,109.7276-57.1035,149.5779c22.7579-43.6409,14.53-114.4865,14.53-114.4865s-7.5741,99.9486-80.2486,158.7751c17.6224-27.2117,5.9062-82.2292,5.9062-82.2292S529.45,816.4338,483.45,852.7437c1.8448-22.9734-7.5034-66.0133-7.5034-66.0133s-2.0606,81.5386-49.2884,116.4233a2.3853,2.3853,0,0,1-2.8246,0C376.5969,868.269,374.4467,786.73,374.4467,786.73s-9.3481,43.04-7.5032,66.0134c-46-36.31-56.727-115.7969-56.727-115.7969s-11.7168,55.0175,5.9062,82.2293c-72.6745-58.8267-80.2489-158.7746-80.2489-158.7746s-8.2279,70.8457,14.53,114.4867C187.841,735.038,193.3,625.31,193.3,625.31s-27.1427,68.3542-11.51,97.7983C95.2952,621.2676,131.1922,498.4447,131.91,495.98c-.9775,1.82-36.6149,67.888-26.98,107.3527-25.4746-102.9791-9.3665-177.7232-2.8407-196l-.0183-.0184q-8.109,11.6957-17.299,22.6133c-9.4652,11.2044-18.5817,25.922-20.0777,42.1472-23.1526-111.1366,54.694-213.12,54.694-213.12a365.8112,365.8112,0,0,1,30.5732-34.5888A342.2672,342.2672,0,0,1,177.2282,199.86,320.8307,320.8307,0,0,1,229.68,165.2622a286.2752,286.2752,0,0,1,27.1048-12.4962s-28.5011-30.3391-58.8609-41.507l.1788-.4745c24.4536-10.6767,43.2922-10.7937,43.2922-10.7937L167.8073,83.1943s85.9855-35.8347,160.7015,0L266.1607,43.2351S372.9329,39.4788,418.2053,83.57a8.51,8.51,0,0,0,11.93,0c45.4537-44.1068,154.0983-40.3344,154.0983-40.3344L521.8843,83.1932c74.7168-35.8347,160.7023,0,160.7023,0L608.9987,99.99s18.8388.117,43.2923,10.7937l.0528.1515C621.0271,121.6552,590.7659,151.6548,590.7659,151.6548Z" fill="#010101"/>
    <path d="M516.8546,587.36s2.3933,70.217-85.7514,73.0417c-.7618.0183-1.5144.0436-2.2579.062-.9316.0183-1.8563.0365-2.8063.0365h-1.6843c-.95,0-1.8746-.0183-2.8061-.0365-.7436-.0184-1.4966-.0437-2.258-.062-88.1447-2.8247-85.7514-73.0417-85.7514-73.0417a66.2176,66.2176,0,0,0,52.829-1.6314,175.6831,175.6831,0,0,0,39.7608-26.9891,6.1194,6.1194,0,0,0,1.4616,1.9459,150.1774,150.1774,0,0,0,36.4356,25.0429,66.2175,66.2175,0,0,0,52.8291,1.6314Z" fill="#010101"/>
    <path d="M671.7054,146.7971c13.04,9.1074,15.3717,35.4218,2.4921,53.9047a322.1657,322.1657,0,0,0-52.7758-35.0545c12.8521-18.4921,37.2231-27.9575,50.2837-18.85Z" fill="#010101"/>
    <path d="M229.6811,165.2615a320.83,320.83,0,0,0-52.4518,34.5979c-12.8635-18.4923-11.5808-43.9553,1.46-53.0627,13.043-9.1072,38.1385,0,50.9928,18.4648Z" fill="#010101"/>
    <path d="M418.5724,852.7439c-46-36.31-56.727-115.7968-56.727-115.7968s-11.7168,55.0175,5.9062,82.2292c-26.218-21.2251-43.9644-47.7918-55.9307-73.0943,4.3551,21.9226,18.6435,77.8717,55.1231,106.662-1.8379-22.9735,7.5033-66.0133,7.5033-66.0133s2.15,81.5386,49.3959,116.4233a2.3853,2.3853,0,0,0,2.8246,0,95.62,95.62,0,0,0,24.3892-27.3284c-23.6367-38.524-24.9812-89.0947-24.9812-89.0947s-9.3483,43.04-7.5034,66.0133Z" fill="#010101"/>
    <path d="M598.3405,67.2755l-24.828,15.9177a162.0415,162.0415,0,0,1,49.6643-14.36A229.85,229.85,0,0,0,598.34,67.2755Z" fill="#010101"/>
    <path d="M380.1378,83.1932,322.9887,46.56a375.5542,375.5542,0,0,0-56.828-3.3249l37.5211,24.04c24.2288-.179,51.0021,3.7109,76.456,15.9177Z" fill="#010101"/>
    <path d="M316.1232,819.1761c-14.7634-22.7923-8.9374-65.0812-6.6612-78.2228a270.02,270.02,0,0,1-21.9589-80.5517s-8.2284,70.8457,14.5295,114.4867C239.47,735.038,244.9292,625.31,244.9292,625.31s-27.1428,68.3541-11.51,97.7982a238.6745,238.6745,0,0,1-38.7832-63.2368c3.6117,35.665,15.8281,89.5788,55.7587,115.0167-22.7486-43.6409-14.5294-114.4866-14.5294-114.4866s7.5836,99.948,80.2581,158.7747Z" fill="#010101"/>
    <path d="M183.5391,495.98c-.9775,1.82-36.6149,67.888-26.98,107.3527-25.4746-102.9792-9.3665-177.7232-2.8406-196l-.0184-.0184q-8.109,11.6957-17.299,22.6133c-9.4652,11.2045-18.5817,25.9221-20.0777,42.1472-23.1525-111.1365,54.694-213.12,54.694-213.12a365.7981,365.7981,0,0,1,30.5733-34.5888A342.3028,342.3028,0,0,1,228.8569,199.86,320.827,320.827,0,0,1,281.31,165.2615a286.2766,286.2766,0,0,1,27.1031-12.4955s-28.5011-30.3391-58.8609-41.507l.179-.4745c24.4534-10.6767,43.292-10.7937,43.292-10.7937L219.4358,83.1943a243.01,243.01,0,0,1,59.4093-14.3607c-58.5765-7.5011-111.0378,14.36-111.0378,14.36L241.395,99.99s-18.8386.117-43.2922,10.7937l-.1788.4745c30.36,11.1679,58.8609,41.507,58.8609,41.507a286.2726,286.2726,0,0,0-27.1038,12.4966,320.83,320.83,0,0,0-52.4518,34.5979,342.2848,342.2848,0,0,0-27.2663,24.5062A365.85,365.85,0,0,0,119.39,258.9544s-77.8465,101.9837-54.694,213.12c1.4966-16.2251,10.6126-30.9427,20.0777-42.1471q9.1933-10.89,17.2991-22.6133l.0182.0184c-6.5257,18.2764-22.6339,93.0207,2.8408,196-9.6351-39.4648,26.0024-105.533,26.98-107.3527-.7179,2.4644-36.615,125.2873,49.88,227.1284-10.8993-20.5257-1.0143-59.9467,5.9775-81.9514C163.3452,565.0952,183.01,497.7993,183.54,495.98Z" fill="#010101"/>
    <path d="M584.2332,43.2351s-82.92-2.8775-134.1812,25.8142a95.392,95.392,0,0,1,19.7909,14.5294,8.51,8.51,0,0,0,11.93,0c23.5195-22.829,63.9618-32.8334,97.5112-37.17Z" fill="#010101"/>
    <path d="M385.1676,587.36H333.5392s-2.3933,70.217,85.7514,73.0417c.7618.0183,1.5144.0436,2.258.062.9315.0183,1.8563.0365,2.8061.0365h1.6843c.95,0,1.8747-.0183,2.8063-.0365.7434-.0184,1.4966-.0437,2.2579-.062a142.753,142.753,0,0,0,19.908-1.9894C383.16,646.5078,385.1676,587.36,385.1676,587.36Z" fill="#010101"/>
    <path d="M550.2066,558.7394a66.9583,66.9583,0,0,1-86.18,26.9888A150.1713,150.1713,0,0,1,427.59,560.685a6.1179,6.1179,0,0,1-1.4616-1.9459,175.6859,175.6859,0,0,1-39.7609,26.9891,66.9583,66.9583,0,0,1-86.18-26.9888c-11.636-13.82-118.7294-175.0158-38.82-268.8259,55.6508-65.3157,102.44-53.8152,135.12-21.6471,17.1475,16.8606,28.9165,28.5493,28.9165,28.5493s11.3559-11.6887,28.5035-28.5493c32.68-32.1681,79.4688-43.6686,135.12,21.6471,79.9093,93.81-27.1841,255.0055-38.82,268.8259Z" fill="#010101"/>
    <path d="M419.7931,491.829c50.6147-39.6,64.329,2.9944,64.6687,4.0958-9.3941,8.0219-23.242,15.4541-43.2118,21.4315,1.0394,4.2313,1.2642,14.7795-10.5758,17.3081a6.5952,6.5952,0,0,0-3.55,2.0974h-.0182c-19.9974-2.6-19.8621-12.6823-18.7423-17.21a2.4552,2.4552,0,0,0-1.6843-2.9394c-22.6155-7.09-37.0735-16.09-45.9654-25.6811l3.1115-.1147s16.6444-40.7384,55.6876.6539Z" fill="#010101"/>
    <path d="M540.2228,330.6518c7.2142,12.5033,1.659,29.3893-10.8558,36.6149-12.5124,7.2326-31.8719,2.07-39.07-11.5441,10.0848-23.5747,33.6481-26.3352,49.9259-25.0891Z" fill="#010101"/>
    <path d="M360.0969,355.7226c-7.1981,13.6138-26.576,18.7767-39.07,11.5441-12.4963-7.2256-18.07-24.1116-10.8557-36.6149v-.0183C326.4488,329.3874,350.0122,332.1479,360.0969,355.7226Z" fill="#010101"/>
    <path d="M351.8157,558.7394c-11.6359-13.82-118.7294-175.0158-38.82-268.8259,18.974-22.2736,36.9268-35.6121,53.6362-42.2438-29.0679-12.1109-64.8315-5.2179-105.2646,42.2438-79.9094,93.81,27.184,255.0055,38.82,268.8259a66.9463,66.9463,0,0,0,83.6885,28.0838,66.6478,66.6478,0,0,1-32.06-28.0837Z" fill="#010101"/>
    <path d="M312.7983,489.0594a8.6078,8.6078,0,0,1-8.5153-7.4759L301.9793,464.25a41.35,41.35,0,0,1,5.2615-26.2l18.8662-32.278a8.6073,8.6073,0,1,1,14.9432,8.5464q-.04.07-.081.1386l-18.8686,32.2781a24.1108,24.1108,0,0,0-3.0654,15.2452l2.3037,17.3356a8.5922,8.5922,0,0,1-7.3716,9.66l-.0216.0029a8.2924,8.2924,0,0,1-1.1473.08Z" fill="#010101"/>
    <path d="M537.5956,489.0594a8.609,8.609,0,0,1-8.54-9.7429l2.3037-17.3357a24.0333,24.0333,0,0,0-3.0564-15.2452l-18.8684-32.2781a8.6033,8.6033,0,0,1,14.7675-8.8309q.0435.0726.0853.1459l18.8662,32.278a41.3551,41.3551,0,0,1,5.2707,26.2l-2.313,17.3333a8.6076,8.6076,0,0,1-8.5153,7.4759Z" fill="#010101"/>
    <path d="M343.8465,518.0011a8.5382,8.5382,0,0,1-3.3432-.6723c-83.4316-35.206-137.91-2.983-138.4468-2.6618-9.7889,5.98-18.7516-8.7125-8.9536-14.69,2.508-1.533,62.6265-37.099,154.0868,1.4966,8.6576,3.6393,6.0509,16.5371-3.3432,16.528Z" fill="#010101"/>
    <path d="M210.6061,557.2708a8.607,8.607,0,0,1-5.1628-15.5068c22.48-16.7712,54.0309-25.1877,91.1575-24.3526a234.8017,234.8017,0,0,1,49.4325,6.2734c11.0963,2.9118,6.7415,19.5569-4.3643,16.6542-.78-.2068-78.7345-19.9974-125.9253,15.2177A8.5426,8.5426,0,0,1,210.6061,557.2708Z" fill="#010101"/>
    <path d="M234.4218,597.7039a8.6027,8.6027,0,0,1-5.9683-14.8c50.2471-48.4184,115.3746-35.6007,118.126-35.0271,11.1861,2.3474,7.726,19.1277-3.4764,16.8513-.592-.1171-59.141-11.4111-102.7107,30.5732a8.563,8.563,0,0,1-5.9706,2.4023Z" fill="#010101"/>
    <path d="M513.6284,518.0011c-9.3941.0092-12.0008-12.8887-3.3524-16.5279,91.47-38.6043,151.5885-3.0289,154.096-1.4966a8.6049,8.6049,0,1,1-8.9,14.7295l-.0348-.0212c-2.2509-1.3538-55.5635-32.3583-138.4652,2.6343a8.5488,8.5488,0,0,1-3.3432.6813Z" fill="#010101"/>
    <path d="M646.8665,557.2708a8.5876,8.5876,0,0,1-5.1444-1.7141c-47.1816-35.2151-125.136-15.4242-125.9253-15.2177-11.0963,2.9027-15.461-13.7424-4.3552-16.6542a234.7234,234.7234,0,0,1,49.4234-6.2734c37.1427-.8351,68.6772,7.5723,91.1575,24.3526a8.6087,8.6087,0,0,1-5.156,15.5068Z" fill="#010101"/>
    <path d="M623.0443,597.7039a8.5788,8.5788,0,0,1-5.9706-2.4023c-43.7768-42.1907-102.1-30.69-102.6924-30.5732-11.23,2.329-14.7267-14.5225-3.4855-16.8513,2.742-.5737,67.8787-13.4005,118.1259,35.027a8.6054,8.6054,0,0,1-5.9774,14.8Z" fill="#010101"/>
    <path d="M367.7333,517.6064c-9.4194,0-11.9939,12.9623-3.29,16.5648,8.7032,3.5956,16.0368-7.3933,9.3665-14.0453a8.6907,8.6907,0,0,0-6.0762-2.5195Z" fill="#010101"/>
    <path d="M367.7333,542.8746c-9.456-.0344-12.0742,12.9713-3.3524,16.6013,8.7309,3.637,16.1172-7.3863,9.4285-14.0728A8.6829,8.6829,0,0,0,367.7333,542.8746Z" fill="#010101"/>
    <path d="M389.3714,532.0463a8.6007,8.6007,0,1,0,3.3073.6561A8.6034,8.6034,0,0,0,389.3714,532.0463Z" fill="#010101"/>
    <path d="M489.7508,534.8159c9.41.0092,11.9916-12.9323,3.2973-16.5463-8.6943-3.6117-16.0347,7.3519-9.3918,14.02a8.674,8.674,0,0,0,6.0944,2.5263Z" fill="#010101"/>
    <path d="M489.7508,542.8746c-9.4651-.0344-12.0925,12.9713-3.3523,16.6079,8.7309,3.6392,16.1149-7.384,9.4284-14.08a8.6833,8.6833,0,0,0-6.0761-2.5285Z" fill="#010101"/>
    <path d="M468.1036,532.0463c-9.4193,0-12.0007,12.9623-3.2973,16.5555,8.7127,3.6049,16.0348-7.3863,9.3667-14.036a8.58,8.58,0,0,0-6.0693-2.5195Z" fill="#010101"/>
  </g>
</svg>
