<svg id="Calque_1" data-name="Calque 1" xmlns="http://www.w3.org/2000/svg" width="30cm" height="33.4cm" viewBox="0 0 850.3937 946.7717">
  <path d="M278.9539,903.617c-3.3671-3.4512-1.1255-6.2063,1.3267-8.6193,3.7214-3.6619,7.6915-7.0709,12.3529-11.3126-10.9706-1.2586-21.0707-2.4492-31.18-3.5578-3.075-.3372-6.9205-.2247-7.3416-3.9927-.44-3.9384,3.7962-4.6278,6.4718-5.3632,9.5922-2.6366,19.3222-4.7719,29.4129-7.1959-1.1919-3.06-6.5039-3.6848-4.6275-7.92,1.614-3.6429,5.321-2.7135,8.1488-2.9808,14.5468-1.3754,29.033.6362,43.4985,1.6246,8.2314.5625,16.2385-.347,24.2186-1.33,7.7416-.9533,12.6922-5.8944,12.5306-14.2331-.6509-33.5815-4.3193-66.8967-8.9715-100.1291-.424-3.0289-2.3968-3.566-4.3212-4.2574-9.9133-3.562-19.89-6.9477-30.8578-10.746-.82,17.6819-1.6337,34.81-2.3951,51.9411-.1864,4.1937.2247,8.4573-.3774,12.5809-1.6883,11.5625,2.2686,19.5762,13.5907,23.5237a14.7137,14.7137,0,0,1,3.6093,2.0742c3.598,2.5922,6.442,5.9068,5.2117,10.5643-1.198,4.5354-5.4429,4.8857-9.4138,5.4064-16.05,2.1045-32.2381,2.9252-48.2138,5.8118-27.44,4.9582-54.0612,13.2125-81.1361,19.6272-2.9281.6938-6.1839,2.8466-8.35-.5478-2.1673-3.3964,1.0173-5.7105,3.0724-7.7953,3.2968-3.3444,6.9038-6.383,11.5976-10.6608-10.72-1.1239-20.2558-2.0621-29.7737-3.1538-3.4289-.3933-8.2562.2668-8.5919-4.5053-.2914-4.1419,4.29-4.6333,7.3524-5.4433,9.4032-2.4873,18.8916-4.6529,28.529-6.9878-1.4114-2.887-6.7-3.5051-5.1532-7.4845,1.3942-3.5853,5.5561-3.6778,8.7868-3.5957,15.3729.39,30.7343,1.2226,46.1067,1.6433a142.6425,142.6425,0,0,0,19.2384-.5467c10.42-1.1307,14.3065-6.01,14.4736-16.7757.3136-20.1994-3.9888-40.18-3.8333-60.22.1362-17.5389-9.011-24.3512-23.0273-31.3867-55.425-27.82-100.1251-68.4844-132.87-120.9476-33.6784-53.9594-34.5151-110.9929-9.4074-168.8692,17.0053-39.1992,38.73-75.93,60.1221-112.7488,16.4929-28.3867,22.38-58.6175,21.2576-90.6675-1.0981-31.353-31.503-62.9126-62.2294-67.0958-24.0046-3.2681-47.7779-8.2566-71.6145-12.6926-1.8077-.3364-5.0306.844-5.4167-2.4465-.3626-3.0894,2.3151-4.2806,4.5393-5.3281A109.7935,109.7935,0,0,1,89.08,110.9594c27.8209-8.69,52.0637-23.4539,74.7535-41.5771,13.8919-11.096,29.0692-20.4814,47.0612-24.5446,39.6435-8.953,78.6078,18.8308,83.3089,59.1655,3.8764,33.2584-1.6253,65.7393-6.0538,98.4158-5.6507,41.6941-17.5632,82.6081-15.9089,125.2173.598,15.4023,2.93,30.533,9.1449,44.7779,11.3239,25.9543,32.7377,36.1283,59.5707,39.1953,40.4714,4.626,81.3277,6.0128,121.3307,14.7442,31.8916,6.9609,60.746,20.0374,86.0842,40.6225,28.003,22.75,55.8087,45.7431,83.8114,68.4935,6.7123,5.4533,13.7774,10.4887,20.8493,15.4767,3.8689,2.7288,8.0345,5.0253,13.07,4.9867,30.5776-.2345,56.0132,12.696,79.5022,30.8517,10.1419,7.8391,19.2333,17.1111,30.91,22.9037,4.4567,2.2108,3.8191,4.9494.38,7.639-6.1994,4.8487-13.2682,8.1786-20.3843,11.3715A713.6663,713.6663,0,0,1,651.35,666.3027c-22.6552,6.1554-42.5192,16.6668-58.0235,34.5986-36.6082,42.34-84.5953,56.96-138.54,56.34-16.14-.1855-31.8971-4.3276-47.9938-8.48-1.7015,31.906-3.966,63.1373-3.9873,94.4806-.0047,6.8586,3.557,10.5733,9.1925,13.5854,5.9291,3.1691,14.8132,5.3887,12.9067,14.1757-1.9734,9.0956-11.5469,6.5755-17.7865,7.01-41.7114,2.9042-81.6462,13.8522-121.4446,25.6046Z" fill="#010101"/>
</svg>
