<svg id="Calque_1" data-name="Calque 1" xmlns="http://www.w3.org/2000/svg" width="30cm" height="33.4cm" viewBox="0 0 850.3937 946.7717">
  <g>
    <path d="M763.6921,777.0739a75.2281,75.2281,0,0,0-12.0145-6.0929c-8.8031-3.4042-14.8605-9.6117-17.07-18.5223-3.24-13.0155-13.3517-18.7723-24.3-20.2241C689.2676,729.4961,676.109,715.5,664.91,700.8329a42.9784,42.9784,0,0,1-6.3717-40.6419,13.6739,13.6739,0,0,0-.05-10.0834c-1.7378-4.9487.1931-11.2564.8082-16.9272,6.1717-55.8169,28.1835-105.6834,57.3469-152.84q4.1517-6.7044,8.3242-13.3517c7.1513-11.3921,10.0905-23.6854,11.7639-37.2087,3.5758-28.6057,4.6344-57.6047,13.3516-85.5381,8.9966-28.8557,8.3525-58.2695,3.0753-88.0193-2.7105-15.3394-2.0955-31.2586-3.69-46.8773-3.633-35.757-11.9858-70.3411-29.4424-102.0792-7.795-14.131-16.87-27.5685-25.8379-41.0345-3.69-5.5281-8.0452-11.3992-16.4268-8.2959-4.4123,1.6238-10.2837,12.8513-9.919,18.9373.0859,1.7376.9513,3.4968.7581,5.1409-.3648,3.5187-1.2013,6.9583-1.8736,10.42-.98,5.228-2.2884,10.3625-2.9036,15.6185-.5576,4.8632-.4219,9.7761-.5291,14.6961-.1431,5.6927-.5649,11.4209-.2863,17.1205.4791,9.4684,1.1227,18.5223-3.6259,27.6259-2.5459,4.92-1.1227,11.7926-2.2669,17.6-1.2015,6.15-3.4613,12.1-5.0275,18.1862-2.3743,9.111-4.9989,18.2148-6.7008,27.49-2.9893,16.12-4.892,32.4316-8.131,48.4936-4.22,20.9822-9.44,41.7642-13.9664,62.6891-1.931,8.9679-3.0466,18.0717-4.8919,27.068-.615,3.1038-2.3743,5.95-3.4041,8.9679-1.7878,5.2206-3.4107,10.5059-5.0058,15.7838-.2791.9224.1142,2.1242-.2791,2.9607-5.1632,10.9488-10.4766,21.876-15.6972,32.8247-2.8462,5.95-5.614,11.9572-8.3525,17.9359-.5291,1.1155-.6722,2.4025-1.2014,3.5183-11.0632,23.2994-22.8486,46.2909-33.0466,69.9764a292.2324,292.2324,0,0,0-22.2624,81.8478c-3.4107,29.1132-9.1109,57.9977-14.5529,86.825-1.6805,8.882-5.5066,17.378-8.8033,25.8664-2.1241,5.4779-9.8906,8.41-15.9192,6.9868-32.074-7.4872-64.2553-15.5614-97.3018-15.0035-19.8092.3361-39.4757,5.2778-59.2778,7.7377-59.8644,7.43-119.7288,14.9465-179.6789,21.9047-42.2076,4.8845-84.5294,5.7784-126.7729-.5362a55.1483,55.1483,0,0,0-6.7008-.5007c-.6437-.0286-1.3156.5007-3.6042,1.48,3.2116,2.2671,5.17,4.584,7.5733,5.1991,10.5842,2.6533,21.2824,4.9989,32.01,7.1228,8.9678,1.7593,18.2434,2.3742,27.04,4.72,20.2525,5.45,40.3982,3.2969,60.7367.9225,16.9847-1.9594,34.0478-3.5183,51.1184-3.969,6.479-.1645,12.9369,3.8837,19.5518,4.892,7.2371,1.1157,14.6386,1.0871,21.962,1.28,8.3814.2292,16.7556.0574,25.1087.172,8.9676.1072,18.1071-.7868,26.8177.722,14.138,2.46,27.9976,6.4861,41.9356,9.9474,13.91,3.44,27.769,7.0372,41.707,10.4482,9.8045,2.3745,19.6948,4.5843,29.5566,6.7581a7.075,7.075,0,0,0,4.3839-.1072c5.3921-2.8534,8.3813-.8654,9.6115,5.4136,6.2575-1.8952,11.9-3.5974,17.5423-5.3349.4434.6722.894,1.3158,1.3089,1.9882-23.9359,16.0619-47.4855,32.8248-71.9862,48.0214-24.665,15.2755-52.8271,21.9548-81.3186,27.29.1361,1.2015.2506,2.3743.3859,3.576,6.3716.9509,12.9941,3.5469,19.03,2.5169,14.7177-2.5458,29.192-6.7937,43.7735-10.2836,2.9037-.7008,5.3635-2.1239,8.2958,1.6233,1.5662,2.01,6.98,1.6162,10.5557,1.3374,8.9394-.78,17.8-2.4316,26.739-3.0746,5.614-.3858,11.3135.4219,16.9846.6436,2.2027.0858,4.9418.98,6.5365,0,13.3228-8.0739,28.1265-5.0561,42.1789-5.2205,22.6269-.3073,45.3112.9511,67.91,2.5675a132.7121,132.7121,0,0,0,62.968-10.9774A478.9562,478.9562,0,0,1,669.38,818.1664c16.0047-3.69,32.1239-7.68,45.9547-18.3575,12.4006-9.5831,27.2108-9.7761,42.0145-4.3838,7.3442,2.6817,14.9179,4.8057,23.9143,7.68-2.4314-12.3721-8.3524-20.3885-17.571-26.0313Z" fill="#010101"/>
    <path d="M464.4108,585.2952a35.8065,35.8065,0,0,0-5.7215-2.9016,12.5028,12.5028,0,0,1-8.1292-8.8206c-1.5427-6.1982-6.3583-8.94-11.5722-9.6311-10.0194-1.3042-16.2857-7.969-21.6188-14.9539a20.467,20.467,0,0,1-3.0344-19.3542,6.5123,6.5123,0,0,0-.0239-4.802c-.8275-2.3565.092-5.36.3849-8.0609,2.939-26.5809,13.4214-50.3282,27.31-72.7847q1.977-3.1929,3.9641-6.3583c3.4056-5.4251,4.8048-11.2794,5.6022-17.7194,1.7028-13.6224,2.2069-27.4323,6.3582-40.7346,4.2843-13.7416,3.9778-27.7489,1.4645-41.9162-1.2907-7.305-.9978-14.8859-1.7572-22.3238-1.73-17.0285-5.708-33.4977-14.021-48.6118-3.7121-6.7294-8.0338-13.1286-12.3044-19.5413-1.7574-2.6325-3.8313-5.4286-7.8228-3.9506-2.1011.7732-4.8973,6.12-4.7235,9.0181a16.3552,16.3552,0,0,1,.361,2.4486c-.1737,1.6756-.5726,3.3137-.8923,4.9621-.4665,2.4895-1.09,4.9347-1.3827,7.4377-.2656,2.3153-.2009,4.6555-.2519,6.9985-.0682,2.711-.2691,5.4389-.1363,8.1533.2281,4.509.5352,8.82-1.7266,13.1559-1.2124,2.3431-.5347,5.6158-1.08,8.3812-.5726,2.9287-1.6483,5.7622-2.3941,8.66-1.1307,4.3388-2.3807,8.6741-3.1911,13.0912-1.4235,7.6763-2.3295,15.4445-3.8721,23.0934-2.01,9.9921-4.4955,19.8888-6.6512,29.8536-.9195,4.2707-1.4508,8.606-2.3295,12.89a34.96,34.96,0,0,1-1.6211,4.2707c-.8514,2.486-1.6244,5.0029-2.3838,7.5162-.133.4393.0544,1.0115-.133,1.41-2.4588,5.2142-4.9891,10.4178-7.4753,15.6318-1.3554,2.8335-2.6734,5.6942-3.9777,8.5414-.252.5311-.32,1.1441-.5726,1.6754-5.2686,11.0956-10.8809,22.045-15.7374,33.3239a139.1714,139.1714,0,0,0-10.6017,38.9773c-1.6243,13.8642-4.3387,27.6194-6.93,41.3476a71.6792,71.6792,0,0,1-4.1923,12.318c-1.0115,2.6087-4.71,4.005-7.5806,3.3273-15.2743-3.5655-30.5995-7.4106-46.3368-7.145-9.4335.16-18.7991,2.5135-28.2291,3.6845-28.5084,3.5384-57.0169,7.1178-85.5659,10.4313-20.1,2.3261-40.2544,2.7518-60.3716-.2553a26.2281,26.2281,0,0,0-3.1911-.2385c-.3065-.0136-.6265.2385-1.7163.705,1.5291,1.08,2.4622,2.183,3.6065,2.4759,5.04,1.2636,10.1351,2.38,15.2435,3.392,4.2706.8378,8.6878,1.1306,12.8766,2.2477,9.6448,2.5951,19.2382,1.57,28.9238.4393,8.0885-.9336,16.2142-1.6755,24.3435-1.89,3.0854-.0784,6.1606,1.8492,9.3109,2.3294a83.0149,83.0149,0,0,0,10.4587.61c3.9914.1092,7.979.0274,11.9572.0819,4.27.051,8.623-.3747,12.7714.3439,6.7327,1.1715,13.3329,3.0888,19.97,4.7372,6.624,1.6382,13.224,3.3511,19.8615,4.9756,4.6692,1.1307,9.379,2.1831,14.0754,3.2183a3.369,3.369,0,0,0,2.0876-.0511c2.5679-1.3588,3.9914-.412,4.5772,2.5782,2.98-.9026,5.667-1.7132,8.354-2.5406.2116.32.4257.6265.6233.9467-11.3987,7.649-22.6134,15.6318-34.2811,22.8686-11.7458,7.2744-25.1569,10.4552-38.725,12.9954.0648.5727.1194,1.1308.1842,1.703,3.0342.4528,6.1879,1.689,9.0619,1.1986,7.0088-1.2123,13.9018-3.2353,20.8457-4.8972,1.3828-.3338,2.5542-1.0115,3.9506.773.7459.9569,3.3236.77,5.0267.6369,4.2571-.3712,8.4769-1.1576,12.734-1.4645a75.8006,75.8006,0,0,1,8.0883.3066c1.049.0408,2.3533.4666,3.1128,0,6.3446-3.845,13.3938-2.4078,20.0864-2.4862,10.7752-.1463,21.5779.453,32.3392,1.2226a63.2009,63.2009,0,0,0,29.9867-5.2281,228.0832,228.0832,0,0,1,39.4434-13.1548c7.6216-1.7573,15.2983-3.6577,21.8844-8.7422,5.9053-4.5636,12.9581-4.6554,20.008-2.0876,3.4978,1.277,7.104,2.2885,11.3883,3.6576a17.4857,17.4857,0,0,0-8.3676-12.3964Z" fill="#010101"/>
    <path d="M825.4037,637.0669a13.9363,13.9363,0,0,0-2.2259-1.1288,4.864,4.864,0,0,1-3.1626-3.4315,4.9416,4.9416,0,0,0-4.5021-3.7468c-3.8979-.5075-6.336-3.1-8.4107-5.8177a7.9627,7.9627,0,0,1-1.18-7.53,2.5331,2.5331,0,0,0-.0094-1.8681,7.7258,7.7258,0,0,1,.1494-3.1361c1.1434-10.3411,5.2215-19.58,10.6247-28.3164q.7689-1.2422,1.5421-2.4737a16.2364,16.2364,0,0,0,2.18-6.8936c.6625-5.3.8589-10.6724,2.4736-15.8475a34.0021,34.0021,0,0,0,.57-16.3072c-.5021-2.8419-.3881-5.7913-.6836-8.6849a48.9194,48.9194,0,0,0-5.4547-18.9122c-1.4439-2.618-3.1255-5.1075-4.7869-7.6023-.6838-1.0242-1.4906-2.112-3.0435-1.537a4.682,4.682,0,0,0-1.8376,3.5085,6.3655,6.3655,0,0,1,.14.9526c-.0675.6519-.2226,1.2891-.3471,1.93-.1815.9686-.4239,1.92-.538,2.8936-.1033.901-.0782,1.8113-.0979,2.7228-.0265,1.0546-.1047,2.1162-.053,3.1718a9.3465,9.3465,0,0,1-.6722,5.1183c-.4716.9115-.208,2.1847-.42,3.2606-.2225,1.1394-.6411,2.2418-.9314,3.3693-.44,1.6879-.9261,3.3746-1.2415,5.093-.5537,2.9865-.9062,6.0085-1.5062,8.9844-.7817,3.8873-1.7489,7.7376-2.5875,11.6138-.3577,1.6615-.5644,3.3484-.9063,5.0149a13.5837,13.5837,0,0,1-.6306,1.6614c-.3312.9672-.6321,1.9463-.9275,2.9241-.0516.1709.0212.3936-.0516.5486-.9566,2.029-1.941,4.0528-2.9083,6.0813-.5273,1.1024-1.04,2.2157-1.5476,3.3236-.0979.2066-.1244.4451-.2225.6518-2.05,4.3166-4.2331,8.5765-6.1225,12.9644a54.1435,54.1435,0,0,0-4.1245,15.1639c-.632,5.3937-1.688,10.7451-2.6962,16.0859a27.8934,27.8934,0,0,1-1.6307,4.7924,2.6377,2.6377,0,0,1-2.9492,1.2945c-5.9423-1.3871-11.9046-2.883-18.0271-2.78-3.67.0623-7.3136.9778-10.9823,1.4336-11.0909,1.3766-22.1819,2.769-33.2889,4.058a89.02,89.02,0,0,1-23.4871-.1,10.19,10.19,0,0,0-1.2414-.0928c-.1193-.0053-.2437.0928-.6678.2738.595.42.9585.8494,1.4031.9632,1.9609.4916,3.9429.9262,5.93,1.32,1.6615.326,3.38.44,5.01.8745,3.7523,1.01,7.4845.6108,11.2528.1709,3.1466-.363,6.308-.6518,9.4706-.7353,1.2-.03,2.3968.7195,3.6222.9063a32.3233,32.3233,0,0,0,4.069.2372c1.5528.0425,3.1042.0106,4.6518.0318a31.6133,31.6133,0,0,1,4.9686.1338c2.6192.4558,5.187,1.2017,7.7693,1.843,2.5767.6373,5.1448,1.3038,7.727,1.9358,1.8165.44,3.6488.8493,5.4759,1.2519a1.3092,1.3092,0,0,0,.8123-.02c.9989-.5285,1.5527-.16,1.7806,1.0031,1.1594-.3512,2.2047-.6665,3.25-.9884.0822.1245.1656.2437.2425.3683-4.4346,2.9758-8.7976,6.0814-13.3367,8.8968-4.57,2.83-9.7873,4.0675-15.0658,5.0561.0249.2225.0463.44.0716.6625a11.9154,11.9154,0,0,0,3.5255.4662c2.7261-.4716,5.4085-1.2586,8.11-1.9052.538-.13.9937-.3935,1.5371.3008.29.3723,1.2931.2988,1.9555.2477,1.6562-.1444,3.2978-.45,4.9542-.57a29.4877,29.4877,0,0,1,3.1468.1193c.4081.0159.9155.1815,1.2109,0,2.4684-1.4959,5.211-.9367,7.8144-.9672,4.1922-.0569,8.3948.1763,12.5816.4756a24.587,24.587,0,0,0,11.666-2.0337,88.746,88.746,0,0,1,15.3454-5.1183,20.9812,20.9812,0,0,0,8.5143-3.4011,7.8014,7.8014,0,0,1,7.7839-.8121c1.3607.4968,2.7634.89,4.4306,1.423a6.8032,6.8032,0,0,0-3.2553-4.8228Z" fill="#010101"/>
  </g>
</svg>
