<svg id="Calque_1" data-name="Calque 1" xmlns="http://www.w3.org/2000/svg" width="30cm" height="33.4cm" viewBox="0 0 850.3937 946.7717">
  <g>
    <path d="M446.14,629.9973v33.0158l49.4424,28.3709a20.9461,20.9461,0,0,1-20.8671,36.3252h0l-49.52-28.4339-49.5211,28.4339a20.8967,20.8967,0,0,1-28.5472-7.6424l-.05-.0865a20.9538,20.9538,0,0,1,7.7342-28.5962l49.4372-28.371V629.9974a41.1355,41.1355,0,0,1-4.4144-3.6606l-60.219-59.2606A36.15,36.15,0,0,1,364.9591,505.14H485.4339a36.15,36.15,0,0,1,25.3444,61.9366l-60.219,59.2606a37.0944,37.0944,0,0,1-4.42,3.6606ZM763.9916,329.8658c23.1136,60.0726,95.8267,272.3731,13.3948,374.688-79.7719,99.021-210.4157,133.262-266.22,147.8874-8.5669,2.2306-15.9714,4.1726-20.4955,5.65-38.3516,12.4733-62.8164,12.845-65.4764,12.845-2.6759,0-27.12-.3712-65.4922-12.845-4.5033-1.4768-11.9289-3.3983-20.4952-5.65-55.8049-14.6254-186.4487-48.8664-266.22-147.8874C-9.43,602.2389,63.2884,389.9383,86.381,329.8658c-22.3753-17.411-61.8945-55.8621-61.8945-110.4992,0-71.1,60.1566-143.5311,119.1917-143.5311.7751,0,1.5551.021,2.33.042,39.0063,1.3457,71.5507,42.0956,88.632,68.5815,14.1751-9.101,34.22-18.6732,55.9041-18.6732H559.8492c21.684,0,41.7292,9.5722,55.9041,18.6732,17.0813-26.4859,49.6257-67.2358,88.632-68.5815.7751-.021,1.5551-.042,2.33-.042,59.0355,0,119.1917,72.43,119.1917,143.5311,0,54.6371-39.5193,93.0882-61.9155,110.4992ZM287.2928,439.255a60.9185,60.9185,0,0,0,58.8255-45.3266,20.94,20.94,0,0,0-9.0223-23.035L272.9076,330.07a20.9376,20.9376,0,0,0-24.7056,1.6127,60.885,60.885,0,0,0,39.09,107.5723Zm284.464,175.5827c0-58.4384-25.9569-107.3467-77.159-145.41a116.49,116.49,0,0,0-138.8021,0c-51.2019,38.0637-77.1589,86.9719-77.1589,145.41,0,90.7424,63.1461,129.5444,116.1233,146.1125a102.3516,102.3516,0,0,0,60.8734,0c52.977-16.5681,116.1233-55.37,116.1233-146.1125Zm52.2387-236.4772a60.7867,60.7867,0,0,0-21.8045-46.6777A20.9455,20.9455,0,0,0,577.48,330.07l-64.2039,40.8233a20.9581,20.9581,0,0,0-9.0015,23.035,60.8693,60.8693,0,0,0,119.7207-15.5679Z" fill="#010101"/>
    <polygon points="211.53 271.788 211.364 283.494 205.649 685.504 393.879 836.481 617.404 744.326 686.03 495.312 638.972 275.709 211.53 271.788" fill="#010101"/>
  </g>
</svg>
