<svg id="Calque_1" data-name="Calque 1" xmlns="http://www.w3.org/2000/svg" width="30cm" height="33.4cm" viewBox="0 0 850.3937 946.7717">
  <path d="M13.587,224.2107c.03,7.1833-.12,14.3892.4929,21.52.5906,7.0041,2.31,13.8956,3.0124,20.8773.8747,8.7832,1.166,17.603,1.809,26.3936.3513,5.3143.7549,10.5993,2.803,15.6746a24.1839,24.1839,0,0,1,1.8087,7.3925c.501,8.6712.5825,17.3416,1.0838,26.0124a28.003,28.003,0,0,0,1.7493,9.5226,37.9722,37.9722,0,0,1,2.8629,8.8427c.7025,3.7672,1.5174,7.5048,2.4219,11.2121.5825,2.4219,1.5771,4.7614,2.0181,7.1833.9044,5.1127,1.4576,10.2779,2.3319,15.3908.5532,3.1242,1.6671,6.1892,2.1005,9.3434.7328,5.6885.501,11.616,1.8988,17.14,1.4873,5.9574,4.32,11.6157,6.72,17.3414.9343,2.28,2.2722,4.38,3.386,6.57a14.2839,14.2839,0,0,0,1.4875,3.2666c3.7076,4.5,5.0228,10.1957,7.1834,15.361a52.996,52.996,0,0,0,7.7063,12.266c2.9527,3.7674,6.69,6.8916,10.136,10.2479a15.6764,15.6764,0,0,0,2.3323,1.4576,10.5765,10.5765,0,0,1,2.5113,1.5772c1.9583,2.16,4.53,2.7433,7.1832,3.3861,2.7732.6428,5.4643,1.4875,8.1775,2.37,2.6237.8148,5.1653,1.8686,7.8262,2.6235,2.4518.7027,4.9933,1.0541,7.4749,1.6967,3.9092,1.0167,7.7962,2.13,11.6456,3.2966a20.6221,20.6221,0,0,1,3.8572,1.6967c.4633.2618,1.0762,1.166.9642,1.4876-1.1138,2.6834-1.3155,5.7257-3.9995,7.7963-2.7506,2.07-5.524,4.1708-8.1477,6.361-6.189,5.0828-11.885,10.7191-17.6928,16.2652a47.2069,47.2069,0,0,0-11.5626,17.641,56.0927,56.0927,0,0,0-3.6552,18.9485c-.0822,12.55-1.7789,24.9658-2.504,37.4341-.8224,13.8656-1.1735,27.6792,1.9508,41.4027a66.6438,66.6438,0,0,1-.1121,29.6081A80.6812,80.6812,0,0,0,80.95,694.302a31.2219,31.2219,0,0,0,2.8851,14.3967A55.932,55.932,0,0,0,92.013,721.72a32.3511,32.3511,0,0,1,5.4939,8.9625,4.0637,4.0637,0,0,0,.6652,1.0838c4.0066,5.1353,4.53,11.3842,5.4941,17.4313.3513,2.0706-.8746,4.38-1.1438,6.63-.7849,6.9216-5.3668,12.2585-7.5867,18.5674a3.5157,3.5157,0,0,1-.6131.8745c-2.8329,3.8568-5.6359,7.7663-8.5592,11.5637-2.13,2.7431-4.35,5.4042-6.7122,7.9157-2.34,2.5116-4.9334,4.814-7.3852,7.2431a16.3376,16.3376,0,0,0-1.024,1.3677c-.7923.9045-1.5771,1.7791-2.4219,2.6613-2.4817,2.5936-5.023,5.135-7.4748,7.7365-2.5414,2.6835-4.963,5.4268-7.4748,8.1175-2.6014,2.7733-5.2848,5.4865-7.856,8.3194-4.9334,5.4866-9.6948,11.1225-14.7478,16.4969-3.1546,3.3864-3.4461,8.7608-.112,10.8311a9.5175,9.5175,0,0,0,4.2608,1.1136c10.0759.5833,18.3357-4.6416,27.0063-8.5884,1.8388-.8448,3.5656-1.9807,5.3743-2.9749,4.0891-2.22,8.2075-4.41,12.3186-6.63.3513-.1722.5825-.5834.9345-.8448,1.3455-.9045,2.6311-1.8986,4.029-2.721,3.9762-2.2722,8.0054-4.4924,12.0045-6.7124.06-.03.112-.09.172-.12,2.8628-1.3677,5.7257-2.7432,8.5584-4.1116,1.1364-.56,2.2724-1.1139,3.4461-1.6671,1.7192-.8146,3.3859-1.7789,5.1646-2.4216,2.7134-1.0241,5.4941-1.8687,8.267-2.7732,2.6835-.8821,5.3374-2.31,8.0581-2.4818,7.7962-.4705,15.6224-.5826,23.4186-.4409a17.3643,17.3643,0,0,1,8.3494,2.0181,29.8723,29.8723,0,0,0,8.35,3.446,33.913,33.913,0,0,1,5.9872,2.1,47.9608,47.9608,0,0,1,5.3663,2.9452c1.2857.7325,2.5417,1.5173,3.7674,2.3694,3.7077,2.4219,7.5046,4.7541,10.5995,7.9682.9044.9045,1.8385,1.779,2.6908,2.6836.6428.6721,1.1659,1.4352,1.7788,2.1375,1.256,1.4878,2.6313,2.9154,3.8273,4.4627,2.5937,3.3637,5.4266,5.9875,10.0163,6.5407a50.2514,50.2514,0,0,0,17.11-1.4878c4.4028-1.0239,8.5816-3.1842,13.0214-3.827a21.0892,21.0892,0,0,0,13.7238-8.2c2.6539-3.2741,4.7542-7.0115,7.4153-10.2781,2.13-2.6009,4.35-5.6358,7.2431-6.9811,5.2543-2.5119,10.5692-5.285,16.639-5.726A13.1208,13.1208,0,0,0,295.88,814.4c4.2608-2.9226,9.3737-4.47,12.962-8.4092,2.3621-2.6009,5.5464-4.5893,7.4447-7.4745,2.6014-3.9169,6.1894-7.3029,7.303-12.1469.1121-.4705.5532-.8218.7549-1.2856,1.1139-2.4814,2.31-4.963,3.2741-7.5046,2.13-5.6361,4.1116-11.302,6.249-16.9379a16.7587,16.7587,0,0,1,1.308-1.9508,26.1486,26.1486,0,0,0,2.1079-4.0891c1.1662-3.5059,2.16-7.0713,3.177-10.6a40.1292,40.1292,0,0,0,1.1435-4.5c.9642-5.6659,1.3379-11.4441,3.8793-16.7286a27.1534,27.1534,0,0,0,2.0781-5.7856c.8445-3.88,1.368-7.8485,2.16-11.7355,1.1063-5.4866,2.22-10.98,3.5055-16.4371a51.4737,51.4737,0,0,1,2.362-7.1833c.7028-1.8088,1.8986-3.4457,2.5115-5.3147,2.0706-6.4507,3.9692-12.991,5.9875-19.4717a6.0967,6.0967,0,0,1,1.2259-2.4816c2.4219-2.5416,3.2965-5.7257,3.9391-9.03.2619-1.2485.7626-2.4517,1.084-3.6777.9866-3.91,1.9212-7.826,2.9449-11.7055a8.6392,8.6392,0,0,1,1.5174-3.4457,53.3331,53.3331,0,0,1,4.6718-4.6123,3.2264,3.2264,0,0,1,3.8874-.7922c1.5772.7325,2.8031,1.6071,2.975,3.5355.9942,10.45,2.0181,20.9372,3.0946,31.3869a12.412,12.412,0,0,0,1.196,5.1428c2.5113,3.939,2.9227,8.379,3.9166,12.73a12.35,12.35,0,0,0,2.3323,4.9034,90.504,90.504,0,0,0,8.3791,9.8364,103.0867,103.0867,0,0,0,10.1359,8.0056,4.8152,4.8152,0,0,0,2.8031.9341c4.7613.112,9.5154.2017,14.2468,0a8.4465,8.4465,0,0,0,4.0892-1.6369,64.6334,64.6334,0,0,0,16.467-16.1752,17.63,17.63,0,0,0,3.5656-8.47,49.635,49.635,0,0,1,1.8686-7.6169c.7849-2.5416,2.2725-4.9405,2.564-7.5349,1.2333-10.4271,2.1674-20.907,3.1019-31.3865a4.2124,4.2124,0,0,1,2.8554-3.6254,3.2815,3.2815,0,0,1,3.9467.5826,58.39,58.39,0,0,1,4.9629,4.9334,8.4832,8.4832,0,0,1,1.3678,3.4758c.6729,2.9824.9943,6.0471,1.7568,8.9921.8445,3.1544,1.9808,6.1968,3.0048,9.2911a8.8929,8.8929,0,0,0,1.1661,2.9452c2.9525,3.4458,3.9465,7.6541,5.0526,11.855.2616,1.0243.7923,1.9585,1.1361,2.9826q1.3231,3.756,2.5414,7.6167c.7327,2.28.8222,5.0828,2.22,6.8022,2.37,2.8031,2.8629,5.8976,3.3563,9.2016.6129,4.0891,1.3157,8.1475,2.16,12.1764.7025,3.3262,1.8163,6.57,2.4592,9.8967.7847,4.32,1.2257,8.73,3.6775,12.58a9.0323,9.0323,0,0,1,1.0466,3.0126c.7325,4.35,1.3455,8.7007,2.1078,13.051a23.6522,23.6522,0,0,0,1.0166,3.6478c.8221,2.5113,1.8164,4.9335,2.5114,7.4447.7626,2.8926,1.3756,5.7555,3.5357,8.0877a11.5834,11.5834,0,0,1,1.8388,3.8271c.7325,1.8391,1.3754,3.7075,2.0407,5.6061,1.0838,3.0348,2.1378,6.1294,3.1841,9.1941.5833,1.6671.7626,3.6551,1.7865,4.9708,3.1769,4.1116,4.1712,9.4555,8.0581,13.193,2.7731,2.6609,4.7837,6.1593,7.7364,8.6111,3.2963,2.803,6.4208,6.0469,10.8609,7.243.5232.1494.9343.6729,1.4275.9045,2.19.9642,4.2981,2.31,6.57,2.7508,4.7613.8746,9.4932,1.7489,13.7836,4.2011a8.2668,8.2668,0,0,0,1.9883.7325c4.2909,1.226,6.8021,4.6717,9.6052,7.7365a74.9522,74.9522,0,0,1,4.7315,6.4506c3.5581,6.249,8.17,11.01,15.7345,12.1467a29.99,29.99,0,0,1,8.0279,2.0705c6.3386,2.803,12.9988,3.625,19.7711,3.715,4.4925.0822,8.5511-1.1139,11.5336-4.8509,2.1-2.6535,4.35-5.195,6.6525-7.6767,2.4293-2.6311,5.0232-5.1128,7.5645-7.6543a4.49,4.49,0,0,1,.9044-.5231c4.2384-2.422,8.4392-4.8733,12.6774-7.3029a3.7243,3.7243,0,0,0,.5233-.3736,12.8448,12.8448,0,0,1,7.1234-3.0949c3.0946-.56,6.07-1.3751,8.499-3.6252a5.3069,5.3069,0,0,1,2.7133-1.0762c9.9564-1.8089,19.9727-1.495,29.9591-.2093a28.6625,28.6625,0,0,1,5.8976,1.6967c2.7432.9346,5.4568,1.9284,8.1476,3.0348,5.4866,2.28,10.9207,4.6418,16.3772,6.9816.09.03.12.0821.1792.112q6.4359,3.9018,12.8717,7.7441c.6129.3738,1.3154.5826,1.8987.9566,1.024.6428,1.9881,1.3455,2.9824,1.9882,1.3678.9048,2.6535,1.869,4.0813,2.6311,4.41,2.3622,8.88,4.6717,13.32,6.9742.142.06.2318.1792.3738.2318,2.37,1.2333,4.7315,2.4593,7.131,3.6254a18.1584,18.1584,0,0,1,3.0944,1.3977c3.4683,2.6907,7.6469,3.4159,11.7654,4.0588a25.2232,25.2232,0,0,0,8.641.03c1.6369-.3212,3.9392-2.0706,4.2382-3.5282a8.6244,8.6244,0,0,0-2.25-7.6841c-2.6312-2.6534-5.0526-5.5463-7.5646-8.3494-4.6118-5.1647-9.224-10.3975-13.8957-15.5624-3.0124-3.3264-6.1666-6.6005-9.2613-9.8668-2.13-2.25-4.2908-4.5-6.4506-6.72-2.6014-2.6835-5.2251-5.3439-7.8262-8.0277-1.5174-1.5771-3.1246-3.0947-4.5521-4.7317-2.5415-2.9152-5.1428-5.8379-7.4748-8.9325-2.8331-3.767-5.4343-7.7363-8.1177-11.6234a12.3045,12.3045,0,0,1-.5826-1.6069,12.4415,12.4415,0,0,0-1.4351-3.2965c-2.4816-3.0349-3.4984-6.6-4.38-10.3078a47.8778,47.8778,0,0,1-1.4278-5.1127c-.2913-2.16-.6722-4.5221-.06-6.5106,1.7268-5.5759,2.078-11.7353,6.3386-16.3174a1.8694,1.8694,0,0,0,.3513-.7926c1.0166-4.4625,4.6717-7.2131,7.2133-10.629a30.37,30.37,0,0,0,4.552-7.5572c.3809-1.0537.9343-2.078,1.3157-3.1244a51.7787,51.7787,0,0,0,2.4815-7.5944c1.1661-6.3611-.1792-12.61-1.5173-18.7989-2.078-9.3734-2.8628-18.8666-.6727-28.15,4-16.7886,3.2065-33.607,1.9509-50.5149-.5826-7.5048-1.5173-15.01-1.8089-22.5143a134.209,134.209,0,0,0-1.5176-17.8049,42.7786,42.7786,0,0,0-9.6948-21.348c-5.0455-5.8378-10.39-11.444-15.8841-16.9082-2.4815-2.4518-5.6584-4.2012-8.4688-6.3609-3.6776-2.8333-7.6466-5.3448-9.0445-10.2782-.8522-3.0945-.9343-3.356,1.921-4.7014a15.735,15.735,0,0,1,2.0183-.7327c3.9391-1.1362,7.8261-2.4516,11.825-3.356a119.2864,119.2864,0,0,0,19.1507-5.6362c4.38-1.7791,9.1417-2.25,13.2-5.3744a79.3139,79.3139,0,0,0,9.9864-9.0521c2.4217-2.6537,4.8213-5.3369,7.1235-8.0877a16.8172,16.8172,0,0,0,2.16-3.356c1.2558-2.6836,2.4816-5.3973,3.5954-8.1777a143.0828,143.0828,0,0,1,6.54-13.9854c2.8555-5.3445,5.0456-11.0329,7.5272-16.579.09-.1793.2391-.3516.3215-.56.9118-2.5117,2.28-4.9334,2.6608-7.5275.815-5.3438.8448-10.7786,1.637-16.1231,1.0167-6.6525,2.5116-13.2532,3.82-19.8529.7923-4.1188,1.5772-8.2376,2.4817-12.3186.8819-4.0066,1.8164-8.0056,2.8329-11.9748.6129-2.5414,1.4053-5.0526,2.13-7.5642.7923-2.8332,2.1377-5.6362,2.34-8.492.4635-7.0414.441-14.075.5831-21.1164.12-5.7184.7326-11.3245,3.0349-16.6688a16.1019,16.1019,0,0,0,1.1959-4.53c.5307-4.9334.9643-9.8966,1.3155-14.86.4705-6.4506.5825-12.9315,1.3156-19.36.7026-6.4209,2.4816-12.7594,2.8629-19.18.6129-10.1358.6129-20.2941.5826-30.4524-.12-23.598-.441-47.2184-.6728-70.809.2318-.03.5008-.03.7325-.06-.6128-4.9334-.6722-10.0163-1.9883-14.7179a87.8384,87.8384,0,0,1-3.2365-23.15c0-6.2189-2.25-11.7357-5.2319-16.8783-2.9451-5.0828-7.9981-7.6764-13.5446-9.1715a41.6948,41.6948,0,0,0-16.1157-.6651c-7.8262.9865-15.5924,2.4216-23.3585,3.79a33.8614,33.8614,0,0,0-5.3744,1.96c-2.19.8218-4.35,1.6967-6.54,2.4813-2.13.7925-4.2908,1.4354-6.3985,2.28-2.332.9341-4.6119,2.04-6.9142,3.1544-4.5,2.16-9.0221,4.35-13.5222,6.54-.1719.0822-.3215.2913-.4929.4033-1.5771,1.0543-3.1844,2.1079-4.7915,3.1246-3.5355,2.31-7.0935,4.62-10.6291,6.9216-.2913.1793-.493.5233-.7848.7325-1.0838.7849-2.13,1.5772-3.2441,2.3023-3.6178,2.37-7.3851,4.5-10.8309,7.0711-2.9527,2.19-5.494,4.9037-8.2673,7.3254q-10.5507,9.239-21.1686,18.5151c-2.13,1.839-4.2309,3.7376-6.3014,5.6658-3.1544,2.9153-6.2787,5.8979-9.4032,8.8429-2.34,2.25-4.7317,4.47-7.0114,6.75-2.6237,2.5941-5.1352,5.2551-7.7364,7.8785-2.28,2.28-4.6716,4.44-6.8919,6.8022-2.3919,2.5713-4.5821,5.3447-6.944,7.9458-3.3339,3.6777-6.78,7.2131-10.0462,10.9207-5.5165,6.2191-10.8908,12.5276-16.3848,18.7764-1.9509,2.2124-4,4.3727-6.01,6.54-2.3992,2.5942-4.881,5.1057-7.1832,7.7667-2.7731,3.2065-5.4641,6.48-8.1177,9.7768-2.6011,3.2741-5.1422,6.6-7.7065,9.8968-2.4293,3.0946-4.851,6.219-7.2431,9.3434-2.8329,3.7073-5.6958,7.4226-8.4988,11.16-2.22,2.9748-4.41,6.01-6.66,9.0218-2.8851,3.91-5.8676,7.7965-8.7229,11.7359-2.22,3.0943-4.2684,6.3084-6.5181,9.373-2.6536,3.6479-5.4568,7.1834-8.11,10.8311-.912,1.2558-1.5548,2.7136-2.43,4-2.6534,3.8271-5.4866,7.5046-8.0577,11.3916-2.5939,3.939-4.9335,8.0576-7.4751,12.0569-.9341,1.4874-2.1,2.8327-3.1243,4.26-1.0465,1.4353-2.0106,2.8929-3.0048,4.3506-.5831.8514-1.2259,1.6967-1.7566,2.6011-2.5639,4.41-5.075,8.85-7.6168,13.2228-.12.2095-.2617.3514-.3809.5306-1.0466,1.9287-2.0706,3.85-3.1245,5.7484-.6429,1.1736-1.2857,2.3695-1.9284,3.5357-1.0466,1.8388-2.1006,3.6774-3.0947,5.5463-2.2424,4.2379-4.4325,8.4986-6.6525,12.7294-.21.3514-.5832.613-.8224.9942-.8739,1.4277-1.7491,2.863-2.5414,4.35-.9044,1.667-1.6595,3.416-2.5937,5.083-.7923,1.4874-1.7791,2.8629-2.5415,4.35-2.4218,4.7319-4.7613,9.4859-7.1533,14.1873a10.9142,10.9142,0,0,1-1.0242,1.3755c-.5826.9641-1.1959,1.9283-1.6894,2.945-2.0779,4.1485-4.0288,8.357-6.1666,12.4681-1.3678,2.6011-3.2364,2.6011-4.724.12a4.1154,4.1154,0,0,1-.2094-2.3921c.4411-4.1781,1.2857-8.3268,1.2857-12.4678,0-3.2738-.4109-6.69-3.0945-9.2313-3.4758-3.2965-5.6959-7.2133-4-12.1167a22.35,22.35,0,0,1,3.6177-6.862c2.5117-3.0048,5.5764-5.5762,8.3794-8.3491,2.6011-2.6014,5.2319-5.1652,7.826-7.7666,2.13-2.16,4.3505-4.2907,6.3687-6.57,2.3022-2.6238,4.2605-5.606,6.7422-8.1175,1.7791-1.809,3.857-3.2965,4.6419-5.8977a1.5153,1.5153,0,0,1,.7325-.7325c1.9584-.8149,2.8329-2.4515,3.6477-4.2306a13.0557,13.0557,0,0,1,1.9286-2.5115c.994-1.2262,2.0182-2.3922,2.9748-3.6186,1.3457-1.6967,2.6312-3.4457,3.9469-5.2023,1.8986-2.5117,3.8793-4.9932,5.6659-7.5871a23.48,23.48,0,0,0,1.5172-3.5054c.4337-.9645,1.0167-1.869,1.5175-2.8031,1.024-1.9884,2.13-3.9691,3.0348-6.0174.7326-1.66.8746-3.7371,1.9286-5.1652,1.9583-2.6311,2.6834-5.5759,3.4158-8.6111a49.0459,49.0459,0,0,1,2.0108-6.047c.8522-2.31,1.8987-4.552,2.6611-6.8915.9044-2.7433,1.5173-5.6061,2.3619-8.38.9943-3.244,2.19-6.4207,3.1246-9.665.7924-2.6535,1.2857-5.3743,1.9883-8.0578a91.0758,91.0758,0,0,0,2.4816-9.8364c.2913-2.0183-.4409-4.1787-.9343-6.219a2.0294,2.0294,0,0,0-1.4276-1.2335c-2.9525-.142-6.54,2.8928-7.273,5.9276-.6727,2.7506-1.5174,5.4941-2.13,8.2672-1.084,4.8438-1.9884,9.6949-2.9824,14.5686-.8746,4.1781-1.6595,8.3491-2.5939,12.4677-.8221,3.5355-1.7267,7.0337-2.6909,10.51-.5825,2.048-1.1959,4.0588-1.9807,6.0471-.7625,1.9585-1.9585,3.7675-2.6313,5.7482a30.9574,30.9574,0,0,1-3.6476,8.0056c-2.3694,3.4457-3.4759,7.6466-6.3088,10.9805a46.4954,46.4954,0,0,0-4.612,7.2955c-1.5173,2.6607-3.6775,4.963-5.1725,7.4746-2.0107,3.3863-4.8733,5.8381-7.2058,8.7305-4.2684,5.2848-9.3434,9.9267-14.0751,14.83-5.9573,6.1069-11.8549,12.2663-17.9319,18.2537-2.564,2.5413-5.5165,4.5821-9.6052,4.1485a98.7343,98.7343,0,0,0-10.6293-.4111c-3.0048-.03-5.98.3809-8.9625.3212a7.9464,7.9464,0,0,1-4.32-1.3155,78.3943,78.3943,0,0,1-8.6712-7.4748c-7.5049-7.6245-14.92-15.413-22.3054-23.1568-3.3638-3.5285-6.63-7.1537-9.9338-10.7713a15.0394,15.0394,0,0,1-1.1963-1.9586c-.493-.7849-.8447-1.809-1.5772-2.25a8.5718,8.5718,0,0,1-3.4981-4.9035,8.22,8.22,0,0,0-1.024-1.6071c-2.6014-3.82-5.2849-7.6169-7.7962-11.5037a32.7828,32.7828,0,0,1-1.5774-3.9391c-.6128-1.2856-1.4049-2.4518-2.1-3.6778a30.6785,30.6785,0,0,1-2.1079-4.0892c-2.6236-7.5942-6.3013-14.86-7.3554-22.9474a4.6663,4.6663,0,0,0-.2315-.6129c-.9346-3.5356-2.0481-7.0713-2.7733-10.6591-.6129-2.9826-.5307-6.1071-1.1959-9.0818-1.0838-5.0527-2.7508-10.0165-3.7674-15.07-.7921-3.82-2.34-6.5405-6.3087-7.7364-2.22-.6727-2.6013-.7549-3.386,1.5174-1.6073,4.8211-.2092,9.4033,1.1063,13.9856.964,3.3635,1.9283,6.69,2.8628,10.0156.7325,2.5417,1.3454,5.083,2.13,7.5946.9344,2.9448,2.018,5.8376,3.0122,8.79.8447,2.4818,1.5473,4.9933,2.4516,7.4449.4637,1.3079,1.3682,2.4818,1.7792,3.82a68.6005,68.6005,0,0,0,4.41,12.3259c2.16,4.2012,3.4459,8.9325,6.1,12.9914,1.2256,1.8687,2.28,3.8571,3.4757,5.7557.6722,1.0464,1.4873,2.0108,2.22,3.0348.6428.9341,1.2259,1.9283,1.8986,2.8327,1.3155,1.7494,2.6534,3.4461,4.0289,5.1353,1.024,1.2558,2.19,2.3995,3.1544,3.6852,1.8986,2.564,3.4984,5.2847,5.9276,7.5569,2.7728,2.5714,4.6418,6.1071,7.1534,9.0223,2.19,2.5712,4.7016,4.8808,7.0637,7.3029,6.2789,6.4207,12.64,12.7592,18.8065,19.3a19.5986,19.5986,0,0,1,3.91,5.9276,10.6824,10.6824,0,0,1-2.4818,12.3781,13.653,13.653,0,0,0-4.2012,10.54,87.893,87.893,0,0,0,1.5173,12.6474c.3213,1.9807-.8222,3.005-2.19,3.7375-1.4651.7547-2.22-.5834-2.8031-1.5772-1.5177-2.5417-2.9526-5.113-4.38-7.7142-.4705-.8746-.7026-1.8387-1.1436-2.7433-2.362-4.7315-4.7241-9.4554-7.1236-14.1871-.06-.1495-.1718-.2093-.2616-.3512-.994-1.7791-2.0406-3.5358-2.9749-5.3448-2.28-4.38-4.5-8.79-6.78-13.1705-.2317-.4335-.6651-.725-.9341-1.1659-.815-1.3158-1.63-2.6238-2.3623-4-2.3918-4.6417-4.7613-9.2836-7.1532-13.9255-.1195-.2393-.3815-.4114-.5233-.6728-.9344-1.5771-1.8986-3.1246-2.7732-4.7315-2.19-4.029-4.3506-8.0879-6.5106-12.1167a2.7281,2.7281,0,0,0-.2689-.3514c-2.6836-3.9392-5.4866-7.8561-8.0579-11.8549-2.4515-3.7979-4.6718-7.7365-7.004-11.6235-.1793-.2913-.4706-.5233-.6722-.8146-2.8031-4.0591-5.5462-8.1478-8.3493-12.2363q-3.42-4.9446-6.9216-9.8668c-2.7134-3.7979-5.5165-7.5046-8.2374-11.302-2.4517-3.446-4.7241-7.0041-7.2356-10.42-2.5414-3.4758-5.2623-6.8019-7.8559-10.2481-3.0947-4.1183-6.1593-8.2371-9.2314-12.3856-.613-.8447-1.2257-1.719-1.8389-2.5939-2.19-2.9522-4.3205-5.9275-6.57-8.82-2.5937-3.3562-5.3669-6.57-7.998-9.8668-2.7433-3.4461-5.3146-7.0116-8.1176-10.3678-2.392-2.8926-5.0751-5.5162-7.5572-8.3192-2.4-2.6909-4.6493-5.4939-7.0113-8.1775-2.452-2.7432-5.0831-5.3447-7.505-8.1176-4.4924-5.1953-8.8728-10.51-13.4023-15.7047-1.8684-2.19-3.9391-4.2384-5.9572-6.3089-2.5118-2.6009-5.0233-5.1725-7.5049-7.7362-2.8031-2.893-5.5165-5.8156-8.32-8.7007-2.3321-2.3695-4.7014-4.7017-7.0337-7.0414-2.5712-2.5414-5.0831-5.1055-7.7141-7.5646-2.7134-2.5639-5.5463-5.0455-8.2894-7.5568-2.6536-2.4518-5.2252-4.9935-7.9159-7.3927-5.3669-4.754-10.8011-9.4555-16.2055-14.1873-5.3663-4.6717-10.1583-10.076-16.5492-13.4921a19.1119,19.1119,0,0,1-1.5249-1.1957c-1.5174-1.0466-3.005-2.1007-4.552-3.1247-3.2666-2.19-6.5408-4.35-9.8369-6.54-1.9883-1.3382-3.9469-2.7132-5.9875-3.9691-3.8869-2.422-7.5643-5.2251-12.0866-6.5108a2.0407,2.0407,0,0,1-.5309-.3512C103.2245,95.62,97.0651,94.6255,91.9,91.561a15.7269,15.7269,0,0,0-3.4758-.9343c-1.6368-.5309-3.214-1.1738-4.8211-1.6967-3.2666-1.1064-6.5407-2.31-9.8668-3.2144-2.6012-.6722-5.3439-.7849-7.9755-1.4275A72.1332,72.1332,0,0,0,44.831,82.3c-6.9518.2912-13.6118,1.7564-18.4253,7.3324-1.8092,2.1007-2.893,4.8139-4.47,7.1235a17.5586,17.5586,0,0,0-2.6537,8.8729c-.5531,6.3383-.9343,12.647-1.8088,18.8959-.5906,4.2908-2.3994,8.4394-2.7208,12.7-.4929,6.57-.1421,13.2006-.2317,19.7933q-.3024,23.7813-.6727,47.57c-.09,6.54-.2913,13.0809-.2616,19.6214Z" fill="#010101"/>
</svg>
