<svg id="Calque_1" data-name="Calque 1" xmlns="http://www.w3.org/2000/svg" width="30cm" height="33.4cm" viewBox="0 0 850.3937 946.7717">
  <g>
    <path d="M667.9843,591.872l-7.5857-5.866c-14.0916-10.8882-23.5633-24.9338-27.44-40.6049-21.87-88.756-99.5351-141.7346-207.7614-141.7346-108.2342,0-185.8919,52.979-207.7614,141.7346-3.877,15.6706-13.3507,29.7167-27.4421,40.6049l-7.5915,5.866c-44.32,34.0574-79.33,60.9888-61.3373,140.9286,16.0192,71.227,75.1515,128.54,147.1452,142.6184a198.6178,198.6178,0,0,0,38.0513,3.6829A189.5976,189.5976,0,0,0,382.34,863.3145a107.4724,107.4724,0,0,1,85.7149,0l.0218.0317c35.5669,15.532,74.9891,19.6407,114.1321,12.0728,71.97-14.0777,131.1-71.3913,147.12-142.6184,17.9925-79.9319-17.0158-106.8707-61.3433-140.9286Z" fill="#010101"/>
    <path d="M306.33,305.399c52.4441,0,95.0935-53.3275,95.0935-118.8667S358.774,67.6653,306.33,67.6653c-52.446,0-95.0934,53.3277-95.0934,118.867S253.8839,305.399,306.33,305.399Z" fill="#010101"/>
    <path d="M544.0636,305.399c52.444,0,95.0935-53.3275,95.0935-118.8667s-42.6495-118.867-95.0935-118.867c-52.4459,0-95.0934,53.3277-95.0934,118.867S491.6177,305.399,544.0636,305.399Z" fill="#010101"/>
    <path d="M209.65,378.306c0-65.5393-42.6474-118.8669-95.0934-118.8669S19.4627,312.7667,19.4627,378.306,62.11,497.1729,114.5562,497.1729,209.65,443.8452,209.65,378.306Z" fill="#010101"/>
    <path d="M735.8375,259.4391c-52.446,0-95.0934,53.3276-95.0934,118.8669s42.6474,118.8669,95.0934,118.8669c52.4361,0,95.0935-53.3277,95.0935-118.8669S788.2736,259.4391,735.8375,259.4391Z" fill="#010101"/>
  </g>
</svg>
