<svg id="Calque_1" data-name="Calque 1" xmlns="http://www.w3.org/2000/svg" width="30cm" height="33.4cm" viewBox="0 0 850.3937 946.7717">
  <g>
    <path d="M630.3755,604.4911a67.7855,67.7855,0,0,1-30.8688-60.7c.2663-5.0007.3207-10.0931.1651-15.1314a174.5613,174.5613,0,0,0-349.0327,5.6088c0,3.2134.0825,6.4639.2569,9.6707a67.5747,67.5747,0,0,1-30.878,60.5419A174.6309,174.6309,0,0,0,306.19,925.85c2.6264.1107,5.2411.1745,7.8651.1745a174.5438,174.5438,0,0,0,80.29-19.4883,67.0878,67.0878,0,0,1,61.7043,0,174.5564,174.5564,0,0,0,174.3267-302.045Z" fill="#010101"/>
    <path d="M205.5018,367.3452c0-13.6012-4.06-38.689-39.158-99.1768-18.0973-31.2131-35.9353-57.09-36.69-58.1771a26.5252,26.5252,0,0,0-43.6448,0c-.7472,1.0868-18.5852,26.9643-36.6919,58.1771C14.2309,328.6562,10.169,353.744,10.169,367.3451a97.6666,97.6666,0,1,0,195.3331.2236c0-.0746,0-.149,0-.2236Z" fill="#010101"/>
    <path d="M801.0759,268.1684c-18.1067-31.2131-35.9448-57.09-36.692-58.1771a26.5321,26.5321,0,0,0-43.6519,0c-.7472,1.0868-18.5853,26.9643-36.692,58.1771-35.0888,60.4878-39.1484,85.5756-39.1484,99.1767a97.6666,97.6666,0,1,0,195.3331.2318q0-.116,0-.2318c0-13.6012-4.0619-38.689-39.1484-99.1767Z" fill="#010101"/>
    <path d="M302.0828,287.157a97.771,97.771,0,0,0,97.6677-97.6561c0-13.613-4.062-38.6912-39.1484-99.1884-18.1067-31.2-35.9376-57.09-36.692-58.1772a26.5253,26.5253,0,0,0-43.6447,0c-.7545,1.087-18.5924,26.9762-36.69,58.1772-35.0981,60.4972-39.16,85.5754-39.16,99.1884A97.7829,97.7829,0,0,0,302.083,287.157Z" fill="#010101"/>
    <path d="M548.3105,287.157a97.7691,97.7691,0,0,0,97.6579-97.6561c0-13.613-4.0528-38.6912-39.151-99.1884-18.0966-31.2-35.9352-57.09-36.69-58.1772a26.5252,26.5252,0,0,0-43.6447,0c-.7546,1.087-18.5854,26.9762-36.6921,58.1772-35.0864,60.4972-39.1484,85.5754-39.1484,99.1884A97.7711,97.7711,0,0,0,548.31,287.157Z" fill="#010101"/>
  </g>
</svg>
