<svg id="Calque_1" data-name="Calque 1" xmlns="http://www.w3.org/2000/svg" width="30cm" height="33.4cm" viewBox="0 0 850.3937 946.7717">
  <path d="M774.88,472.9408c-17.0393-15.05-30.156-33.2788-41.3532-52.9259-.9527-1.683-.6537-4.5068-.1043-6.6,9.9106-38.168,19.9949-76.3149,29.9613-114.4829,1.14-4.4024,1.9543-8.8533,2.9071-13.3115-.3824-.2712-.786-.57-1.1684-.8416-7.5529,9.076-15.3492,17.9852-22.6309,27.2489-25.67,32.6528-50.6656,65.855-73.4009,100.6567-1.44,2.2256-3.1019,2.17-5.244,1.9265q-66.672-7.2083-133.3373-14.3476c-39.7744-4.3189-79.5216-8.7979-119.3163-13.1722-14.6469-1.6068-23.6673-9.2084-25.35-23.8552-1.2518-10.8634-.2435-21.9771-.3827-32.98-.0765-7.2817-.3755-14.5633-.6259-21.8172a8.4041,8.4041,0,0,0-.918-2.2812,62.0664,62.0664,0,0,0-26.4351,12.039c-9.6187,7.33-16.5176,16.9208-22.4919,27.2974-3.5886,6.1967-7.1219,12.4491-10.8705,18.5833-2.7679,4.5692-6.5722,6.0573-12.3308,6.28-26.3029.9458-52.6269,2.2532-78.8671,4.4787-17.1438,1.44-34.1757,4.618-51.2152,7.15-.5423.0765-1.085.1877-1.6273.299-1.4118.16-2.7953.3478-4.2077.5147-4.6458.5426-8.4779,1.4674-11.9,4.9447a6.47,6.47,0,0,0-.4659.5147,79.46,79.46,0,0,0-45.2825,2.5525,194.94,194.94,0,0,0-23.5,4.1867C74.1853,399.86,53.9119,405.862,33.597,411.5928c-6.2246,1.7385-11.6561,4.9726-15.1338,10.7868-1.5787,2.6636-1.7941,5.0283.3759,7.5529,2.448,2.7953,4.4577,5.9741,6.9338,8.7493,3.7765,4.18,6.7885,8.61,7.4414,14.3962a5.1147,5.1147,0,0,0,2.2258,3.6162c13.6659,5.863,24.2583,16.1351,36.1093,24.6132,37.3815,26.7828,79.4584,41.6174,124.8039,47.62,3.832.5214,5.1048,1.9891,6.0575,5.5707,9.5627,36.2692,22.9856,70.9321,45.1783,101.4983,5.2718,7.2539,12.2544,13.4229,19.1258,19.2857,3.5887,3.0461,8.6658,4.3466,13.6382,6.7109-.355-9.3958-1.0013-17.6026-.8972-25.8093.3825-30.8584,3.2342-61.452,11.4894-91.31a92.0532,92.0532,0,0,1,5.6263-14.2084,5.52,5.52,0,0,1,4.02-2.4132c34.12-2.3927,68.2754-4.5625,102.3956-7.01,4.1034-.2989,6.7392.5146,9.4794,3.7492,12.5256,14.6469,26.3238,27.9582,42.8415,38.0635,4.3189,2.6639,9.1874,4.4024,13.8544,6.4126,3.2339,1.3837,5,.4589,6.3357-3.2064,6.0855-16.7123,12.4978-33.3344,18.931-49.9073A99.3229,99.3229,0,0,1,499.27,506.95c18.7987,6.8782,37.5145,10.8706,58.0244,5.244a114.321,114.321,0,0,0-13.4994-9.4514,5.6461,5.6461,0,0,0-3.7765-2.7474c-.4382-.0764-.8972-.1878-1.3284-.3-7.692-4.5346-15.3283-8.8812-21.9563-14.6677.139-.41.2435-.7859.3824-1.1962,2.4691-.459,4.9727-.8691,7.47-1.3838,26.9778-5.5154,53.0584-14.1809,78.867-23.5561,18.4234-6.6835,36.485-14.3128,54.8246-21.1913a12.2467,12.2467,0,0,1,8.6658.3269A167.934,167.934,0,0,1,687.48,449.4963c15.62,10.3766,30.7541,21.5111,46.5137,31.672,15.537,9.9731,32.2981,17.4152,50.7979,20.2385a80.9788,80.9788,0,0,0,44.9908-5.4595,14.8526,14.8526,0,0,0,3.3662-2.0656c-23.5767,4.2151-41.7566-6.3566-58.2673-20.941Z"/>
</svg>
