<svg id="Calque_1" data-name="Calque 1" xmlns="http://www.w3.org/2000/svg" width="30cm" height="33.4cm" viewBox="0 0 850.3937 946.7717">
  <path d="M773.5947,214.5214c-6.0089-36.9885-21.4987-70.6387-38.8579-103.4877-15.89-29.9113-34.852-57.82-53.5465-86.1285-2.9378,1.7359-.8012,4.1395-.5342,6.1425,5.7419,38.19,9.6144,76.6477,7.6114,115.2386-1.2018,22.3-4.2731,44.1993-14.8221,64.3627-9.2138,17.76-22.567,28.0418-44.0657,26.5729-25.1041-1.7359-50.2082-2.1365-75.3124-3.0712-44.7334-1.6024-89.4668-4.6737-134.0667-4.1395-67.5674.9347-135.0014,4.4065-202.4353,7.0772-14.9557.5341-25.9053-5.4749-34.5849-16.9586-8.1455-10.6826-12.6856-22.9676-15.49-35.7868-9.4808-42.9974-5.8754-85.9949-1.0683-129.1259,1.0683-10.1485,4.6737-20.03,2.8042-30.4454C150.6655,53.0805,131.57,80.9888,115.68,110.9c-17.3592,32.8491-32.849,66.4992-38.858,103.4878-5.0742,31.2466-2.27,60.7573,20.03,85.4608,18.6945,20.6975,43.7987,29.11,69.971,35.2526,27.5077,6.41,55.6831,6.1425,83.5914,8.5461,9.4808.8012,10.5491,2.5371,7.0772,11.4838-2.5371,6.543-5.4748,12.9526-8.4125,19.2286-13.0862,27.2407-27.7748,53.8136-35.2526,83.5914-5.7419,22.567-.4006,41.128,16.291,57.419,16.291,15.7568,35.6532,27.3742,53.28,41.2615,11.6173,9.08,21.3652,18.8281,25.1041,34.4514,6.6766,28.1754,4.1395,55.6831-1.6024,83.3244-5.2078,24.57-13.62,48.3388-17.76,73.0423-4.6736,28.576,4.54,48.6058,27.6413,57.686,6.81,2.6707,13.7538,5.3413,20.8311,6.41,7.2107,1.0682,7.7448,4.1395,7.2107,10.4155-3.4718,40.7274,13.22,71.1728,49.2735,89.8674,30.7125,15.89,61.5585,12.8191,89.4668-6.81,28.4424-20.03,41.9292-48.4723,37.3891-83.3244-1.2018-9.7478,1.2018-12.8191,9.7479-15.6233,22.834-7.4778,32.582-22.3,32.1813-46.2022-.2671-13.22-3.3383-26.0389-6.6766-38.7245-8.4126-31.9143-18.294-63.5614-17.8934-96.9445.2671-29.6443,7.2108-56.0837,35.52-72.2412,6.276-3.6053,11.8844-8.4125,17.8934-12.6855A263.5323,263.5323,0,0,0,620.3,516.1714c17.4927-16.2909,22.834-35.52,16.825-58.7543-7.8784-30.5789-23.2347-57.82-36.4543-85.8614-2.8042-6.009-5.6084-12.1515-7.8785-18.4275-1.87-5.2077-1.0682-9.08,6.009-9.08,8.4125-.1335,16.9586-1.0682,25.3712-1.4689,28.9765-1.3353,57.686-4.54,85.1937-14.1544,17.6263-6.1425,33.65-15.0892,45.9352-29.3772C775.8648,273.9434,778.5354,244.9668,773.5947,214.5214ZM433.6837,895.388c-38.9915.1335-70.5051-35.7867-64.3627-73.0423.8012-4.9407,2.27-6.1425,7.2108-5.0742,36.5879,7.3443,73.1758,5.4748,109.4967-1.8695,9.08-1.87,10.95,1.4688,11.7508,9.08C501.6518,862.0049,471.607,895.2545,433.6837,895.388Z" fill="#010101"/>
</svg>
