<svg id="Calque_1" data-name="Calque 1" xmlns="http://www.w3.org/2000/svg" width="30cm" height="33.4cm" viewBox="0 0 850.3937 946.7717">
  <g>
    <path d="M270.9112,645.5976c-17.9513,31.6366-22.6962,60.7272-14.8891,91.6081,11.8774,46.9716,53.9987,63.5587,90.7425,63.5587,1.21,0,2.412-.0263,3.596-.0528,42.8506-1.3026,70.3442-22.1975,77.74-28.59l1.151-.9952v-28.471l-2.7217-.525a16.84,16.84,0,0,1-13.4458-13.2393l-.5734-2.8491-2.9194.18c-.8567.0528-1.698.1032-2.7195.1032a54.3665,54.3665,0,0,1-19.7349-3.8c-11.5942-4.5054-18.406-23.5131-20.9212-39.7906l-.1273-.8831-.5756-.7117a15.164,15.164,0,0,1-2.8843-5.1929L360.45,670.37l-3.98,4.8481a12.19,12.19,0,0,0-1.16,1.3311c-11.84,17.066-4.2462,44.9792-4.1605,45.2714a3.2477,3.2477,0,0,1-.7117,3.0906,3.6911,3.6911,0,0,1-2.9875,1.0984c-29.2768-4.2989-49.8031-16.1149-60.94-35.1468-7.0535-12.0311-10.219-26.6611-9.404-43.4634l.6788-13.9946Z" fill="#010101"/>
    <path d="M411.4282,670.0537c-8.8284-3.1741-18.843-6.7613-27.2343-6.7613-5.5511,0-10.0652,1.5948-13.36,4.7711a6.7325,6.7325,0,0,0-1.966,4.53,7.0121,7.0121,0,0,0,1.88,4.2484l1.5,1.6805c1.7508,1.5969,5.1578,3.4333,9.147,5.5774,12.5034,6.7372,33.4136,17.9863,38.2617,43.437a9.9605,9.9605,0,0,0,4.4374,6.4429l5.1907,3.4074v-25.03a3.3555,3.3555,0,0,1,6.7109-.0386v25.36l5.3709-4.0594A10.0661,10.0661,0,0,0,445.22,727.51c4.848-25.4507,25.7934-36.7263,38.2969-43.435,4.6063-2.4625,7.5258-4.0857,9.1469-5.5774,2.23-2.078,3.3544-4.0945,3.3277-6.0078a6.5469,6.5469,0,0,0-2.0165-4.4527v-.0263c-8.8877-8.5209-21.9667-4.5383-39.5051,2.0429-7.73,2.9085-15.0429,5.6368-20.9364,5.6893l.0263,3.3544-.1648-3.3544c-6.1352.0242-13.8149-2.7546-21.9668-5.6893Z" fill="#010101"/>
    <path d="M605.8343,737.18c-7.963,31.4762-30.8723,53.0212-64.6636,60.7008l-.9952.1383a117.0681,117.0681,0,0,1-25.0817,2.7459c-1.2016,0-2.4119,0-3.6135-.0769-42.5167-1.263-67.7873-22.1227-74.4718-28.4887l-1.072-.9951V742.579l2.6667-.525a16.8257,16.8257,0,0,0,12.7693-12.1586l.738-2.6781,2.8053.2153a28.546,28.546,0,0,0,3.4838.2065,50.2443,50.2443,0,0,0,18.5356-3.6135c15.2977-5.9553,20.2579-34.8372,21.0487-40.5265l.1274-.9951.6788-.7381a16.0358,16.0358,0,0,0,3.3543-5.9464l1.8627-6.4188,4.0156,5.3469a8.8441,8.8441,0,0,1,1.1247,1.4145c11.0866,16.9035,1.6717,45.1859,1.5443,45.4537a3.3748,3.3748,0,0,0,3.2,4.4787c19.7877-2.8843,35.5664-9.0965,47.1254-18.6631a59.0259,59.0259,0,0,0,14.2345-16.5958c7.08-12.0313,10.2211-26.6018,9.43-43.4525l-.6766-13.9708,6.95,12.1585c17.9511,31.6387,22.7223,60.7865,14.878,91.6081Z" fill="#010101"/>
    <path d="M474.55,717.7784c5.6544-2.1967,10.3728-9.72,14.0216-22.3776l2.1966-7.7153-7.02,3.8266c-10.4342,5.6893-20.9718,12.6156-27.364,24.4293l-2.7547,5.09,5.7665-.13a44.7388,44.7388,0,0,0,15.1548-3.1237Z" fill="#010101"/>
    <path d="M275.9987,487.0769c-10.5881-3.1743-31.2434-12.0313-50.5676-35.5423-7.0183-8.5715-15.1944-12.9232-24.2909-12.9232-9.5424,0-17.3251,5.004-20.2336,7.1568A48.9824,48.9824,0,0,0,170.13,512.4769C182.3477,530.795,195.4772,537.3,206.1158,537.3a24.0223,24.0223,0,0,0,9.9113-2.076c6.4011-2.8842,9.8082-8.0749,8.9932-11.1371l-.661-1.2631a79.2191,79.2191,0,0,0-10.6912-10.0652c-8.7274-7.2841-17.7447-14.8364-17.7447-27.1751,0-3.6729,1.1334-6.1859,3.3543-7.4467,4.0924-2.3351,9.4133.5733,19.2121,6.4252,9.2854,5.5272,20.8443,12.4267,33.5522,14.7771,14.63,2.7042,22.0436-2.3,25.64-7.0184l2.9589-3.8529Z" fill="#010101"/>
    <path d="M419.4769,234.1162a42.5155,42.5155,0,0,0-23.88-7.5764c-9.25,0-18.3973,3.1918-27.1571,9.5158-12.6308,9.0855-24.5325,10.7945-35.0432,12.2861-13.6261,1.94-26.4986,3.7761-39.3425,22.07l-5.7079,8.1518,9.4808-3.038c29.1763-9.3863,51.1431-14.7331,61.8343-15.067l5.3468-.1383c15.4953-.3077,41.4184-.8062,51.534-12.0291a17.3775,17.3775,0,0,0,4.378-10.6406v-.7294l-.0791-1.8628Z" fill="#010101"/>
    <path d="M309.18,418.56l-3.0884-.9446a130.995,130.995,0,0,0-24.0074-4.8481l-1.9924-.2393-1.1312,1.68a24.7378,24.7378,0,0,0-2.412,4.3517c-5.74,14.1488,4.3253,31.6629,22.439,39.024a43.6862,43.6862,0,0,0,16.3279,3.2774,36.7614,36.7614,0,0,0,9.5158-1.2346c8.4112-2.2564,14.597-7.3633,17.4549-14.39a24.0677,24.0677,0,0,0,1.0808-3.8531l.36-1.7748-1.3047-1.2878A81.9529,81.9529,0,0,0,319.04,422.54l-3.57-1.6476-3.8792,14.0983a3.3426,3.3426,0,1,1-6.4429-1.7837Z" fill="#010101"/>
    <path d="M554.36,437.35a3.3721,3.3721,0,0,1-4.0859-2.359l-3.7493-14.0983-3.62,1.6475A81.1385,81.1385,0,0,0,518.3981,439.42l-1.3312,1.3641.4986,1.8363a22.1087,22.1087,0,0,0,.8661,2.6427c2.8315,7.0271,9.0437,12.141,17.4549,14.39a36.9594,36.9594,0,0,0,9.54,1.2346,43.474,43.474,0,0,0,16.3307-3.2774c18.1139-7.3633,28.2056-24.8752,22.4391-39.0262a21.7561,21.7561,0,0,0-2.4382-4.2726L580.6,412.6907l-1.9638.2307a132.4209,132.4209,0,0,0-22.7488,4.6943l-3.0974.9446,3.9387,14.7331a3.3535,3.3535,0,0,1-2.368,4.057Z" fill="#010101"/>
    <path d="M146.5665,570.7657l-1.2878.8661c-6.1,3.9562-13.6526,8.9338-19.4191,6.9175a7.8577,7.8577,0,0,1-4.848-5.2172c-5.2941-15.8314-9.0437-48.1467-10.8036-66.0294l-1.6211-16.33L103.6884,506.65c-3.7761,12.0553-5.4829,29.6464-5.1161,52.2151.8414,50.3764,24.6115,55.8769,37.3786,58.8643l.7557-3.2444-.7557,3.2444c4.4787,1.0544,7.1041,1.7332,8.6748,3.697,1.39,1.7332,2.0692,4.0155,2.9347,6.9,2.5393,8.5122,6.7877,22.7468,35.4649,30.9512a64.1323,64.1323,0,0,0,17.616,2.6415,43.7446,43.7446,0,0,0,21.65-5.3468l9.0086-5.0786-10.2958-1.16c-31.56-3.4839-43.4019-14.7068-53.7066-26.8653-12.554-14.8363-10.9061-28.9348-9.0195-45.2647l.3184-2.6513c.29-2.6668-.2153-4.9513-1.3641-6.0742l-.6283-.4722c-1.441-.8919-3.9544-.8413-7.55.3077a12.28,12.28,0,0,0-2.4888,1.4519Z" fill="#010101"/>
    <path d="M380.7869,691.3852l-7.181-3.93,2.3855,7.8421c2.4958,8.1168,6.8712,18.3706,13.6347,20.9893a48.1911,48.1911,0,0,0,15.067,3.2512l6.2123.3184L407.74,714.51C401.26,703.5527,390.964,696.9188,380.7869,691.3852Z" fill="#010101"/>
    <path d="M461.4642,334.39c14.99.9951,36.4078,7.1568,51.7405,12.1433l10.744,3.4817-7.1216-8.7779c-10.5111-12.9735-20.13-16.0709-30.334-19.3393-6.8646-2.2055-13.9423-4.5143-21.3824-9.8609-8.3145-5.9707-15.8578-8.3319-22.5424-6.8889A19.8294,19.8294,0,0,0,430.41,313.95c-2.1022,2.6009-2.6514,4.9273-1.6826,7.1832,2.8315,6.3923,17.1956,12.2114,32.7371,13.257Z" fill="#010101"/>
    <path d="M530.5563,806.77l-5.8189,6.0849a62.0159,62.0159,0,0,1-17.7185,12.4924c-19.8645,10.0916-48.8848,16.1237-80.229,16.1237-43.7974,0-82.5643-11.5589-98.7407-29.4069l-6.0233-6.6846,8.8813,1.0741a123.9621,123.9621,0,0,0,19.6584.9425c41.8581-1.2521,69.6761-20.2578,79.6819-28.41l2.2055-1.7244,2.1529,1.8606a111.433,111.433,0,0,0,35.3005,20.4664,128.86,128.86,0,0,0,41.3854,7.807c3.5455.1384,7.1568.0857,10.83-.1274Z" fill="#010101"/>
    <path d="M829.6823,646.3863c-24.6093-25.4748-26.61-46.3433-26.6874-47.211a3.2662,3.2662,0,0,1,4.0156-3.5344l24.6621,5.2677-2.1968-5.74c-7.8948-20.9191-27.4166-54.1021-36.57-68.6814a3.4987,3.4987,0,0,1-.0791-3.5344,3.5532,3.5532,0,0,1,3.2006-1.5971l15.7723,1.4674-3.8-5.8167c-13.31-20.13-27.4165-46.8684-27.9394-47.94a3.3307,3.3307,0,0,1,.6084-4.0155,3.5826,3.5826,0,0,1,4.0858-.4723c5.74,3.4927,17.9843,1.4674,24.7458-.0768l4.6084-1.0742-2.5393-4.0156c-24.405-38.7076-57.7659-63.1634-58.1108-63.4533a3.2219,3.2219,0,0,1-1.1225-3.8024,3.1686,3.1686,0,0,1,3.3544-2.1966c8.2286.5227,15.7039,1.3312,22.38,2.3263l9.0941,1.4146-6.0741-6.8911c-27.0037-30.2723-63.1215-54.1-63.5146-54.3589a3.3348,3.3348,0,0,1-1.4674-2.41,3.4976,3.4976,0,0,1,.9424-2.7546l13.6347-13.626-3.4075-2.2055c-14.4408-9.4918-24.875-24.482-31.0347-35.3028l-2.8842-5.0876-2.8821,5.0019c-3.1411,5.27-6.1616,10.0411-9.3028,14.9659-2.7546,4.2727-5.2677,8.2881-7.4995,12.1675a3.37,3.37,0,0,1-4.53,1.2521,3.2113,3.2113,0,0,1-1.4673-1.7244c0-.0769-.0856-.2153-.0856-.2659a3.0876,3.0876,0,0,1,.3427-2.5393c2.2823-4.0858,5.0019-8.3584,7.8861-12.9736,13.1626-20.7322,31.217-49.144,40.922-104.6343,5.2171-29.8792-3.93-53.34-24.482-62.9063-17.1956-7.9717-43.5381-5.14-67.2557,16.8529a106.666,106.666,0,0,0-9.4391,9.9619c-1.4168,1.6739-2.669,3.1919-3.93,4.6856-.13.2152-.3427.3427-.4724.5316-18.7922,21.65-27.2871,25.0816-35.6432,26.8653a3.2723,3.2723,0,0,1-2.0171-.0856,3.5339,3.5339,0,0,1-2.2054-2.41,3.1867,3.1867,0,0,1,2.2454-3.9075c.029-.0079.0583-.0153.0875-.0223l.3955-.077c5.9462-1.34,14.0981-3.15,36.4341-29.8791,9.9619-11.9873,21.993-21.3407,34.7014-27.0038l12.64-5.6894-13.7645-.7294c-26.4721-1.4147-48.67,5.74-66.0542,21.3319-15.3086,13.6349-30.5558,25.666-45.3151,22.5423-69.54-14.9132-96.7484-2.1967-97.95-1.6738a3.2167,3.2167,0,0,1-2.6008.2571c-43.5887-13.4459-107.31-.2044-114.5194,1.4167a4.3071,4.3071,0,0,1-1.4059,0,94.9572,94.9572,0,0,1-43.9863-22.5423c-17.512-15.7018-40.5265-23.1924-66.6538-21.5976l-13.714.8676,12.5805,5.56A97.7827,97.7827,0,0,1,239.78,141.95c18.7136,22.5335,27.4762,27.3289,33.37,29.0885l-.5228,3.3542-.9447,3.2006c-8.0991-2.3329-17.5119-7.9718-37.0425-31.3532-25.9491-31.0192-57.1664-35.8168-76.6947-26.7973-20.5259,9.5666-29.6223,33.0184-24.4052,62.9041,5.4762,31.3467,13.9708,57.0894,26.738,80.884l.3954.738c4.8217,9.0174,9.7466,16.7739,13.7117,22.9861,2.9347,4.6086,5.6037,8.8811,7.9629,12.9758a3.8261,3.8261,0,0,1,.3427,2.5393,3.5059,3.5059,0,0,1-1.6036,2.0165,3.4416,3.4416,0,0,1-4.5318-1.2609c-2.2032-3.8792-4.7447-7.8861-7.8158-12.7077-2.5921-4.1452-5.474-8.7011-8.4089-13.6347l-2.8838-4.7379-2.8821,4.7383c-6.3418,10.57-16.9826,25.141-31.474,34.58l-3.4927,2.1967,13.6347,13.6347a3.2666,3.2666,0,0,1,.9424,2.7458,3.1208,3.1208,0,0,1-1.4651,2.41c-.345.2658-36.5133,24.0625-63.4555,54.3677l-6.1617,6.8911,9.147-1.4146c6.6339-.9974,14.1839-1.812,22.327-2.3351a3.3278,3.3278,0,0,1,3.4075,2.1549,3.4484,3.4484,0,0,1-1.2015,3.8772c-.3428.2657-33.7059,24.7477-58.1091,63.4553l-2.5393,4.0156,4.6064,1.072c6.8141,1.5442,19.0584,3.5366,24.7981.13a3.223,3.223,0,0,1,4.0089.3954,3.462,3.462,0,0,1,.6854,4.0155c-.6084,1.072-14.7067,27.81-27.9461,47.94l-3.8793,5.8168,15.7805-1.415a3.3479,3.3479,0,0,1,3.1919,1.5443,3.2955,3.2955,0,0,1,0,3.5344c-9.226,14.5706-28.6689,47.736-36.6406,68.6726l-2.2055,5.74,24.6708-5.2677a3.5476,3.5476,0,0,1,2.9326.738,3.3447,3.3447,0,0,1,1.1248,2.8052c-.0769.8677-2.0671,21.7273-26.6766,47.2022l-4.3516,4.4878,6.2123,1.1246a78.5648,78.5648,0,0,0,31.2938-1.21,3.4068,3.4068,0,0,1,3.3566,1.0826,3.5988,3.5988,0,0,1,.7381,2.1439,3.2627,3.2627,0,0,1-.2659,1.3378c-.13.2592-11.9016,26.9444-9.1469,49.676l.7359,6.34,4.7386-4.22c6.6318-5.8691,13.0328-9.9642,18.6629-11.7743a3.3648,3.3648,0,0,1,4.0156,1.5443c.5227,1.0827,13.3162,25.2706,16.5871,49.9327l.6852,5.0874,22.5425-13.9179a3.1192,3.1192,0,0,1,2.5394-.3339,3.03,3.03,0,0,1,2.0692,1.5443c.738,1.2015,17.7184,30.3493,21.1254,58.1614l.5228,4.6922,4.2726-2.0672c8.7009-4.41,20.31-12.7692,26.4215-27.7593a3.3536,3.3536,0,0,1,5.8938-.6086c.2658.3427,23.5462,35.49,39.7906,49.4846l1.3378,1.21,1.7332-.5227c7.5433-2.2055,26.1294-8.5471,35.5664-19.4538a3.18,3.18,0,0,1,3.3566-1.0719c.6.13,15.9082,4.145,30.8722,20.26l3.4928,3.7493,2.0693-4.6943c1.81-4.1368,4.222-9.6962,7.3611-16.6377l1.4673-3.2-3.2774-1.2631c-19.3154-7.6268-44.2675-24.3172-53.4145-60.6217-12.9757-51.22,8.7516-90.244,34.4418-125.2106a4.2229,4.2229,0,0,1,.995-1.2522c6.6846-9.0195,13.5756-17.7211,21.3321-27.3394,16.7254-20.8685,33.9719-42.4663,45.9265-65.6588,12.3649-24.0625,12.5781-48.3357.2042-68.5956l-3.0621-4.2727-2.601,4.5384c-5.8167,10.2981-17.6413,16.4333-31.6016,16.4333a48.7569,48.7569,0,0,1-18.6652-3.7493c-21.3385-8.6242-33.1039-29.8793-26.2656-47.3934l1.7331-4.4787-8.0991-.1274c-23.142,0-39.5051-6.6844-48.7311-19.926-16.3015-23.3221-3.8772-58.023-3.3543-59.4994a3.3259,3.3259,0,0,1,4.2725-1.9374,3.3716,3.3716,0,0,1,2.0166,4.2726c-.5229,1.3378-11.6355,33.1567,2.5413,53.3375,7.8927,11.2936,22.4632,17.0418,43.2547,17.0418,43.5294,0,77.9469,15.513,94.4573,42.5875,13.2393,21.6482,13.1625,48.9351-.13,74.8057-12.2354,23.7527-29.6968,45.53-46.653,66.7329-7.5,9.4391-14.8364,18.5861-21.5978,27.6825l-.4722.9445c-2.3329,6.8889-13.1032,42.5937,2.8841,69.7951,8.8285,14.9725,24.48,25.141,46.473,30.0923l4.6942.9951-.6106-4.7448c-1.329-9.6962-2.1966-27.9395,7.0294-41.17q9.1239-13.256,28.4866-15.6514c11.036-2.0165,23.9327,2.6009,35.3116,6.6845,7.6269,2.7546,14.7748,5.2677,19.7854,5.2677,4.6944,0,11.4294-2.5394,18.663-5.2172,9.8258-3.6707,22.07-8.3648,32.6842-7.0776l.6019.0769c13.5051,1.21,23.4077,6.478,29.3629,15.7019,8.6242,13.112,6.7614,31.3553,4.8745,41.0515l-.9951,5.0874,5.0018-1.21c16.7233-3.8,29.75-10.6912,38.8461-20.5236a57.5439,57.5439,0,0,0,7.0272-9.3535c15.9084-27.21,5.2171-62.9062,2.882-69.8038l-.4723-.9445c-6.7613-9.0965-14.0983-18.2435-21.5978-27.6738-16.9034-21.0487-34.3648-42.9385-46.6529-66.7329-13.3163-25.87-13.3691-53.1574-.2154-74.8057a83.3934,83.3934,0,0,1,7.6291-10.23,69.6624,69.6624,0,0,1,7.8178-7.6269c18.8431-16.0379,46.3873-24.739,79.0717-24.739,20.7915,0,35.36-5.7487,43.246-16.989,14.184-20.26,3.02-52.0854,2.5482-53.4166a3.3553,3.3553,0,0,1,6.2907-2.3329c.5229,1.4674,12.9736,36.1683-3.3565,59.4994-9.2328,13.2393-25.6132,19.915-48.729,19.915-1.072,0-2.2054,0-3.2774.0857l-5.9464.13,1.7332,4.4787c6.8118,17.4613-4.96,38.7164-26.2658,47.3406a49.2886,49.2886,0,0,1-18.1138,3.7408h-.525c-13.4963,0-25.1322-5.742-31.1643-15.4381l-2.9347-4.7362L508.802,452.17c-11.5567,19.7108-11.24,43.6679.9446,67.2579,11.9784,23.1926,29.2268,44.79,45.9237,65.6588,7.6819,9.6191,14.6474,18.32,21.7274,27.81a6.2928,6.2928,0,0,1,.8676,1.2016c25.3979,34.5735,47.1254,73.6063,34.15,124.8174-10.2959,40.7836-40.0455,57.2236-63.2487,63.8993l-3.6642,1.0039,1.597,3.5367c2.412,5.474,4.4022,9.9113,5.87,13.3162l2.0165,4.6855,3.4927-3.7409c14.9639-16.0467,30.2725-20.13,30.8722-20.2687a3.3277,3.3277,0,0,1,3.4075,1.0826,36.2806,36.2806,0,0,0,2.6009,2.6667c9.8235,9.3028,26,14.7858,32.8886,16.776l1.7353.5229,1.4147-1.2c16.3806-14.107,39.4985-49.1506,39.7116-49.4867a3.4134,3.4134,0,0,1,3.1412-1.4674,3.3552,3.3552,0,0,1,2.7547,2.0692c6.0825,14.9639,17.7183,23.3309,26.472,27.7573l4.22,2.0692.6018-4.6943c3.4074-27.81,20.3194-56.9511,21.0487-58.1594a3.2174,3.2174,0,0,1,2.0758-1.5463,2.9078,2.9078,0,0,1,2.5393.3954l22.5422,13.8413.7294-5.09c3.2775-24.66,15.9873-48.8827,16.5191-49.88a3.3765,3.3765,0,0,1,4.0836-1.5948c5.56,1.8013,11.9784,5.869,18.5355,11.6864l4.8218,4.2725.7293-6.4254c2.0758-18.2433-5.0808-40.39-9.147-49.5372a3.3948,3.3948,0,0,1,.5228-3.5345,3.2551,3.2551,0,0,1,3.3566-1.0827,78.6252,78.6252,0,0,0,31.3026,1.21l6.2122-1.0719Zm-590.1441,3.3214c-.4724.738-11.9016,18.929-38.5868,18.929a70.6593,70.6593,0,0,1-19.7877-3.02c-32.2122-9.147-37.3-26.2567-40.0982-35.696-.2659-.9424-.6084-2.0166-.8661-2.8052l-.6018-1.5442-1.6036-.5228c-.9446-.2679-2.412-.6107-3.5367-.8677-13.4963-3.15-41.5985-9.6193-42.5167-65.2392-1.1247-67.4709,17.1956-73.0746,19.4011-73.4678a3.348,3.348,0,0,1,2.669.6,3.3871,3.3871,0,0,1,1.2608,2.4712c.4723,5.8167,4.4787,56.0065,11.1636,79.4143l-3.2775,1.1247,2.0759,6.3417,9.8761-3.2707-.8061-1.7332c2.3263-1.208,4.9514-2.882,7.4137-4.4787a24.632,24.632,0,0,1,5.8191-3.2774c7.2842-2.2824,11.5062-.4723,13.7622,1.4168,3.0644,2.5394,4.4786,7.0184,3.8793,12.1586l-.2569,2.669c-1.812,15.3943-3.2007,27.5529,7.49,40.1838,11.6447,13.7622,23.8032,24.4028,64.321,25.5274a3.3361,3.3361,0,0,1,2.882,1.7333,3.5428,3.5428,0,0,1-.0768,3.3543Zm-8.9668-202.4283c25.949,31.56,53.9482,34.9667,54.2315,34.9667a3.4674,3.4674,0,0,1,2.3329,1.3378,3.6538,3.6538,0,0,1,.6019,2.6009c-1.6739,8.8811-11.6355,24.394-36.8976,19.702-13.9182-2.5922-26.5578-10.0828-35.9113-15.6954-2.2056-1.3376-4.7448-2.805-6.8976-3.9386l-6.9437-3.7409,2.1461,7.5412c1.94,6.9,8.152,12.0312,14.7837,17.591a84.6466,84.6466,0,0,1,11.5589,10.9593c2.5393,3.0622,2.9348,7.1545,1.21,11.2908-3.02,7.3634-11.7722,12.9737-21.5978,13.9183a23.5545,23.5545,0,0,1-3.15.2152c-10.4342,0-26.1273-4.8832-41.4359-27.8889a55.5512,55.5512,0,0,1,12.3649-75.75c7.629-5.6893,15.8579-8.4944,23.88-8.4944,10.88.0087,21.4439,5.217,29.7232,15.3855Zm302.5331-88.9831a3.4744,3.4744,0,0,1-2.5482,1.1336,3.9134,3.9134,0,0,1-1.2016-.2154c-1.81-.6788-44.5333-16.5958-68.3365-18.1907-11.0866-.738-25.8725-4.1451-33.9628-11.5083l-2.2823-2.0671-2.2055,2.0671c-7.08,6.4275-18.9222,9.226-23.7175,10.1684a3.3934,3.3934,0,0,1-2.412-.4723,3.32,3.32,0,0,1-.9912-4.5889c.0152-.0236.0308-.0471.0466-.07a3.2168,3.2168,0,0,1,2.155-1.4146c12.2355-2.4119,21.3319-7.293,23.1925-12.4243.7381-2.0781.13-4.3518-2.2032-7.2953a19.728,19.728,0,0,0-11.9807-8.3561c-6.5461-1.2631-14.0961.995-22.3271,6.9414-7.4994,5.3534-14.5684,7.6269-21.3913,9.8324-10.2189,3.3566-19.8645,6.4187-30.3492,19.3923l-7.08,8.7625,10.7-3.4927c9.3534-3.0116,18.0545-5.5509,25.9491-7.5433a3.1078,3.1078,0,0,1,2.4623.3953,3.205,3.205,0,0,1,1.5443,2.0672,2.9,2.9,0,0,1-.3426,2.4646,3.1835,3.1835,0,0,1-2.0693,1.5443c-20.3878,5.138-41.3062,12.8966-43.6678,13.7621a3.5553,3.5553,0,0,1-3.7493-.9423,3.4493,3.4493,0,0,1-.3933-3.8025c16.3016-29.75,31.56-34.624,44.9287-38.9735,6.6318-2.1549,12.9736-4.1451,19.5285-8.89,9.9553-7.1568,19.3154-9.8257,27.889-8.0135a25.442,25.442,0,0,1,13.9182,8.4945l2.5395,2.8739,2.5393-2.8733a25.3126,25.3126,0,0,1,13.9686-8.4945c8.4969-1.812,17.848.8654,27.8122,8.0134,6.5549,4.7448,12.8435,6.7614,19.5285,8.89,13.4458,4.3494,28.6272,9.2239,44.9286,38.9735a3.42,3.42,0,0,1-.4195,3.8529Zm40.9131-71.7958a3.3848,3.3848,0,0,1-3.62.9534c-.2065-.0857-18.0545-6.298-37.1629-11.8248a3.4779,3.4779,0,0,1-2.0165-1.5948,3.4276,3.4276,0,0,1-.2592-2.55,3.3529,3.3529,0,0,1,3.194-2.41,5.9121,5.9121,0,0,1,.9425.1368c7.4225,2.1461,14.6561,4.4021,20.741,6.3417l9.4809,3.0645-5.74-8.1519c-12.8462-18.32-25.7341-20.1827-39.3688-22.1227-10.4344-1.4674-22.3271-3.1479-35.0433-12.2949-24.6093-17.6437-49.0649-5.7421-55.9559-1.6739l-1.8629,1.0721.2066,2.0692c1.1335,12.2442,14.3136,19.109,41.4447,21.8109a3.322,3.322,0,0,1,3.0124,3.6052l-.0007.0083a3.3241,3.3241,0,0,1-3.5965,3.0272c-.0248-.0022-.0495-.0046-.0743-.0073-8.2814-.8149-30.3515-2.9347-41.1789-14.184l-2.592-2.7545-3.0117,3.8c-12.1168,13.3185-38.7692,13.8413-56.437,14.2367l-5.2172.0768c-20.31.6854-76.0929,20.13-76.6179,20.3194a3.2964,3.2964,0,0,1-3.6113-.9534,3.332,3.332,0,0,1-.4724-3.664c17.7184-36.0388,35.0432-38.51,53.2871-41.1263,10.219-1.4168,20.7828-2.9348,32.0825-11.0866,22.07-15.9171,44.5354-11.6952,58.1091-2.4713l1.7265,1.21,1.8606-1.0742c5.4323-3.2005,34.16-18.3268,62.8558,2.3263,11.3,8.1518,21.8636,9.7049,32.0824,11.0955,18.2434,2.59,35.49,5.0787,53.287,41.12a3.3672,3.3672,0,0,1-.4722,3.6707Zm9.0965,197.0838a3.4769,3.4769,0,0,1,2.3329-1.329c.3339,0,28.6688-3.8882,54.1525-34.9667,10.2979-12.58,23.7174-17.7211,37.7652-14.4411a45.7625,45.7625,0,0,1,22.9882,13.8392,56.3707,56.3707,0,0,1,13.5728,25.4771,3.2729,3.2729,0,0,1-2.3452,3.99l-.0647.0161a3.3888,3.3888,0,0,1-4.0857-2.4624c-4.0155-16.8529-16.9892-30.96-31.56-34.3139-11.6355-2.6688-22.3864,1.4675-31.0874,12.117-19.3155,23.5351-39.9708,32.4163-50.6094,35.5664l-4.6174,1.4168,2.9348,3.8c3.6223,4.745,11.0361,9.749,25.666,7.0185,12.6308-2.3241,24.1875-9.2239,33.55-14.7749,10.0389-5.9552,15.0429-8.7625,19.188-6.4275,2.1967,1.2609,3.3543,3.8,3.3543,7.5,0,12.2965-9.0195,19.8645-17.721,27.21a72.556,72.556,0,0,0-10.6912,10.0389l-.6855,1.2015c-.8061,3.0623,2.5483,8.2793,9.0175,11.1636,11.4293,5.14,29.4158,1.8628,45.8732-22.7225a3.2115,3.2115,0,0,1,2.155-1.4146,3.171,3.171,0,0,1,2.4625.4722,3.663,3.663,0,0,1,1.4672,2.144,3.3238,3.3238,0,0,1-.5249,2.4712c-16.9891,25.4771-34.76,28.6777-44.5859,27.6738-9.8851-.9446-18.5839-6.5482-21.5977-13.9182-1.81-4.1368-1.3379-8.2288,1.2016-11.2936a87.9172,87.9172,0,0,1,11.6444-11.0338c6.5483-5.4742,12.7079-10.6408,14.6981-17.5053l2.155-7.5523-6.95,3.752c-2.0693,1.0719-4.5319,2.5393-7.0184,4.0066-9.2262,5.56-21.9425,13.0241-35.7817,15.6514-25.35,4.6065-35.2347-10.83-36.9064-19.7108a3.9034,3.9034,0,0,1,.6524-2.66ZM735.8166,624.18c-1.1225.2658-2.59.6085-3.5343.8677l-1.6827.5228-.5228,1.6036c-.2571.8083-.6788,2.0165-.9446,3.0117-2.7546,9.149-7.807,26.2656-40.0454,35.439a70.9713,70.9713,0,0,1-19.7965,3.0116c-26.6765,0-38.1081-18.1908-38.5781-18.92a3.55,3.55,0,0,1-.0791-3.3544,3.2764,3.2764,0,0,1,2.8842-1.7332c16.038-.4723,27.5947-2.4119,36.511-5.4235,13.4985-4.6174,20.7322-11.7723,27.81-20.13,10.6914-12.64,9.303-24.798,7.5-40.1839l-.3427-2.669c-.5229-5.14.8654-9.6191,3.93-12.1673a11.516,11.516,0,0,1,7.5-2.4625,18.796,18.796,0,0,1,6.2123,1.072,25.5127,25.5127,0,0,1,5.9464,3.2775l.0768.0768c2.335,1.5553,4.9513,3.15,7.2094,4.36l-.9445,1.8014,10.0915,3.2774,2.067-6.34-3.2685-1.0743c6.6756-23.4583,10.6912-73.6832,11.1634-79.55a3.45,3.45,0,0,1,1.2609-2.4119,3.7868,3.7868,0,0,1,2.6689-.6019c2.0672.3954,20.5258,5.819,19.4011,73.47-.9183,55.6111-28.9939,62.0891-42.4926,65.23Z" fill="#010101"/>
    <path d="M605.8343,737.18c-7.963,31.4762-30.8723,53.0212-64.6636,60.7008l-.9952.1383a117.0681,117.0681,0,0,1-25.0817,2.7459c-1.2016,0-2.4119,0-3.6135-.0769-42.5167-1.263-67.7873-22.1227-74.4718-28.4887l-1.072-.9951V742.579l2.6667-.525a16.8257,16.8257,0,0,0,12.7693-12.1586l.738-2.6781,2.8053.2153a28.546,28.546,0,0,0,3.4838.2065,50.2443,50.2443,0,0,0,18.5356-3.6135c15.2977-5.9553,20.2579-34.8372,21.0487-40.5265l.1274-.9951.6788-.7381a16.0358,16.0358,0,0,0,3.3543-5.9464l1.8627-6.4188,4.0156,5.3469a8.8441,8.8441,0,0,1,1.1247,1.4145c11.0866,16.9035,1.6717,45.1859,1.5443,45.4537a3.3748,3.3748,0,0,0,3.2,4.4787c19.7877-2.8843,35.5664-9.0965,47.1254-18.6631a59.0259,59.0259,0,0,0,14.2345-16.5958c7.08-12.0313,10.2211-26.6018,9.43-43.4525l-.6766-13.9708,6.95,12.1585c17.9511,31.6387,22.7223,60.7865,14.878,91.6081Z" fill="#010101"/>
    <path d="M530.5563,806.77l-5.8189,6.0849a62.0159,62.0159,0,0,1-17.7185,12.4924c-19.8645,10.0916-48.8848,16.1237-80.229,16.1237-43.7974,0-82.5643-11.5589-98.7407-29.4069l-6.0233-6.6846,8.8813,1.0741a123.9621,123.9621,0,0,0,19.6584.9425c41.8581-1.2521,69.6761-20.2578,79.6819-28.41l2.2055-1.7244,2.1529,1.8606a111.433,111.433,0,0,0,35.3005,20.4664,128.86,128.86,0,0,0,41.3854,7.807c3.5455.1384,7.1568.0857,10.83-.1274Z" fill="#010101"/>
    <path d="M656.8125,457.215a3.3854,3.3854,0,0,0,4.0684,2.4889,3.3087,3.3087,0,0,0,2.4395-3.9928l-.0034-.014A57.3043,57.3043,0,0,0,657.68,441.23a30.791,30.791,0,0,0-5.7928,3.4311,48.5272,48.5272,0,0,1,4.925,12.5541Z" fill="#010101"/>
    <path d="M208.0554,486.2353l-6.9679-3.7494,2.0957,7.3369a41.8734,41.8734,0,0,0,11.1634.0263c-2.0955-1.2279-4.3515-2.5657-6.2906-3.6135Z" fill="#010101"/>
    <path d="M510.984,448.2064c.2833-.112.5732-.2153.8566-.3185l-.36-.5756Z" fill="#010101"/>
    <path d="M601.6474,491.1361c-1.8627,1.5443-3.697,3.1237-5.4829,4.718a20.3411,20.3411,0,0,0,6.5813,3.1413c1.0477-.9094,2.067-1.8034,3.1654-2.7218,7.998-6.6822,16.15-13.6347,17.4877-24.2226a104.7164,104.7164,0,0,1-8.991,5.9464c-2.858,4.8062-7.68,8.89-12.7605,13.1383Z" fill="#010101"/>
    <path d="M653.355,111.3326l4.4878-2.0165-7.13-.3932C651.6307,109.7115,652.5226,110.5,653.355,111.3326Z" fill="#010101"/>
    <path d="M249.5265,738.827a116.8847,116.8847,0,0,1-.369-57.92,54.6577,54.6577,0,0,1-7.4645-9.8587,59.9809,59.9809,0,0,1-6.4537-16.15c-5.4742,5.6126-16.4312,13.7381-34.28,13.7381-1.0984,0-2.2823-.2044-3.3807-.2571a117.0726,117.0726,0,0,0,1.3049,53.9658c9.2062,36.331,34.1583,53.0278,53.45,60.6218l3.2511,1.2877-1.441,3.2c-3.15,6.9942-5.5862,12.5278-7.3961,16.6726l-2.0429,4.6856-3.4839-3.7411c-14.999-16.1236-30.2812-20.1061-30.9337-20.2686a3.3525,3.3525,0,0,0-3.3543,1.0565,47.3316,47.3316,0,0,1-11.1635,9.0438c7.361,9.67,15.9588,20.0709,23.1661,26.2832l1.39,1.1839,1.7594-.4986c7.5434-2.23,26.13-8.5451,35.5423-19.5043a3.2717,3.2717,0,0,1,3.3543-1.0456c.626.1537,15.9347,4.16,30.9249,20.2577L295.39,825.33l2.0513-4.6921c1.7749-4.1452,4.2462-9.672,7.3874-16.6726l1.4411-3.1918-3.2511-1.2878c-19.3418-7.629-44.2939-24.326-53.4936-60.6589Z" fill="#010101"/>
    <path d="M130.2382,757.6458c4.848,11.01,10.1155,25.5628,11.8748,39.7622l.5755,4.7206,4.2462-2.12a61.7988,61.7988,0,0,0,10.3749-6.6076c-11.3437-13-22.9025-29.6463-27.0718-35.7553Z" fill="#010101"/>
    <path d="M829.656,646.3863c-24.583-25.4748-26.6084-46.3191-26.6853-47.211a3.2672,3.2672,0,0,1,1.1313-2.77,3.4023,3.4023,0,0,1,2.9084-.7644l24.6621,5.294-2.17-5.74c-7.9476-20.9212-27.4256-54.0756-36.6231-68.6727a3.3786,3.3786,0,0,1-.0264-3.5344,3.54,3.54,0,0,1,3.1743-1.6057l15.8073,1.4409-3.8291-5.79c-13.29-20.1568-27.364-46.8684-27.9636-47.9931a3.3414,3.3414,0,0,1,4.6678-4.4285c5.7665,3.46,18.0018,1.4169,24.7632-.101l4.6174-1.0566-2.513-4.0068c-24.4314-38.7427-57.7748-63.2225-58.1108-63.4553a3.3708,3.3708,0,0,1-1.1841-3.8531,3.2639,3.2639,0,0,1,3.3807-2.2055c8.1782.5756,15.7039,1.39,22.3621,2.3857l9.1207,1.3641L781.01,386.794C754.068,356.5192,717.9,332.7161,717.557,332.4854a3.3376,3.3376,0,0,1-1.4938-2.4712,3.2131,3.2131,0,0,1,.9687-2.6953l13.6286-13.6347-3.4333-2.2564c-14.4411-9.4809-24.8158-24.4292-31.0018-35.3006l-2.8578-5.0371-2.9347,4.9842c-3.1238,5.27-6.1355,10.0653-9.2328,14.9661-1.0719,1.7068-2.0934,3.3037-3.0884,4.9248l1.9133,1.261-13.6261,13.6347a3.2905,3.2905,0,0,0-.9709,2.6954,3.4513,3.4513,0,0,0,1.4938,2.4713c.3427.2306,36.4847,24.01,63.4554,54.3061l6.1353,6.8911-9.1228-1.3641c-6.6581-.9952-14.184-1.81-22.36-2.3856a3.2623,3.2623,0,0,0-3.3807,2.2054,3.3745,3.3745,0,0,0,1.1753,3.8531c.3427.2306,33.6882,24.7126,58.1175,63.4553l2.5129,4.0068-4.6154,1.0544c-6.7615,1.52-18.9991,3.5608-24.7654.1033a3.3409,3.3409,0,0,0-4.6679,4.4285c.5491,1.0456,12.6308,23.957,24.9543,43.3251.3077-3.69.5227-6.3155.6-7.4139a3.2014,3.2014,0,0,1,1.2878-2.3855,3.4261,3.4261,0,0,1,2.6425-.6348c2.1023.3932,20.5521,5.8255,19.4274,73.5008a134.0652,134.0652,0,0,1-1.1839,15.5415c.6084,1.441,1.1839,2.8558,1.6805,4.1957l2.1724,5.74-5.373-1.1576c-2.7282,12.1939-7.2842,20.5762-12.5276,26.4457A121.1135,121.1135,0,0,0,778.97,629.92l4.3762,4.5406-6.2122,1.0719a77.4613,77.4613,0,0,1-31.3466-1.2608,3.405,3.405,0,0,0-3.3544,1.1312,3.2936,3.2936,0,0,0-.4723,3.484c4.0594,9.1733,11.2163,31.32,9.1471,49.59l-.7382,6.3661-4.7953-4.2394c-6.5746-5.8168-13-9.885-18.5861-11.7457a3.3831,3.3831,0,0,0-4.0089,1.5948c-.5228.9952-13.29,25.2706-16.57,49.88l-.6765,5.1138L683.19,721.5808a3.36,3.36,0,0,0-4.6166,1.1221l-.0161.0268c-.7118,1.21-17.668,30.3845-21.0749,58.17l-.5757,4.718-4.2461-2.1286c-8.701-4.3761-20.372-12.732-26.4216-27.731a3.3493,3.3493,0,0,0-2.7547-2.0682,3.2738,3.2738,0,0,0-3.1216,1.4938c-.2064.3427-23.3485,35.36-39.7377,49.4846l-.18.1625a50.591,50.591,0,0,1,8.8285-3.57,3.3415,3.3415,0,0,1,3.3653,1.0743c9.3775,10.957,27.9636,17.2724,35.5313,19.5043l1.7594.4964,1.39-1.1751c16.3806-14.1335,39.5226-49.1508,39.7384-49.4847a3.3235,3.3235,0,0,1,5.8691.5734c6.0562,14.9659,17.7184,23.3573,26.4195,27.7331l4.2482,2.12.5735-4.718c3.4074-27.7858,20.3456-56.96,21.0749-58.1615a3.2312,3.2312,0,0,1,2.1025-1.5446,3.28,3.28,0,0,1,2.5393.3955l22.5422,13.8653.6788-5.1138c3.2774-24.6445,16.0358-48.8848,16.57-49.88a3.38,3.38,0,0,1,4.0068-1.6035c5.56,1.8605,11.9786,5.9288,18.5861,11.7456l4.7954,4.2483.7293-6.3681c2.0781-18.2681-5.0786-40.4233-9.1469-49.5961a3.3166,3.3166,0,0,1,.4723-3.484,3.3714,3.3714,0,0,1,3.3544-1.1225,78.8039,78.8039,0,0,0,31.3553,1.2609l6.2123-1.0807Z" fill="#010101"/>
    <path d="M577.5278,805.3555a119.0713,119.0713,0,0,1-17.1627-6.5306,104.7994,104.7994,0,0,1-11.2492,3.9033l-3.6992,1.0567,1.5706,3.5081c2.4713,5.4763,4.411,9.8784,5.8784,13.2921l2.0428,4.6942,3.484-3.7493a78.4661,78.4661,0,0,1,20.37-15.8315Z" fill="#010101"/>
    <path d="M188.92,629.87a3.3335,3.3335,0,0,0-2.8228-1.76c-1.8606-.0505-3.596-.1275-5.3534-.2307a54.62,54.62,0,0,0,7.7654,5.8432,5.7538,5.7538,0,0,0,.3339-.5227,3.2609,3.2609,0,0,0,.0769-3.33Z" fill="#010101"/>
    <path d="M469.5633,231.8578a104.176,104.176,0,0,1,12.7078,2.3263,47.3865,47.3865,0,0,0-33.2335-6.891c7.2688,2.6514,14.16,3.6468,20.5258,4.5647Z" fill="#010101"/>
    <path d="M489.094,230.6233a53.2339,53.2339,0,0,0,14.8869,7.5258,46.0738,46.0738,0,0,0-19.0825-10.2452c1.3883.8567,2.7788,1.698,4.1956,2.72Z" fill="#010101"/>
    <path d="M417.1176,325.3286a11.462,11.462,0,0,0,3.7234-4.5911c.7821-2.1175.1823-4.3494-2.1791-7.3369a19.8291,19.8291,0,0,0-12.0048-8.3143c-6.5285-1.3027-14.0719.9951-22.327,6.95a50.96,50.96,0,0,1-5.0612,3.2c8.3914,5.8453,21.2024,8.6769,31.1379,9.3292,2.0693.1276,4.3779.42,6.7108.7623Z" fill="#010101"/>
    <path d="M150.3421,652.146c1.3377,0,2.5921-.079,3.8266-.1559-8.8372-7.86-11.4293-16.3543-13.1121-22.0436-.2833-.9447-.6-2.0431-.8829-2.8052l-.5756-1.5706-1.63-.4723c-.9445-.2833-2.3856-.6261-3.51-.8919-13.4964-3.1412-41.625-9.6719-42.5432-65.2658-.05-3.5366-.0263-6.7877,0-10.0146-.3162.2152-.5227.3191-.8654.5584-2.4626,1.5969-5.0808,3.2444-7.4138,4.4527l.8413,1.76-9.885,3.2443-2.0957-6.3417,3.28-1.0984c-5.562-19.5306-9.259-57.509-10.59-73.0219-5.406,9.8257-14.2873,25.5539-22.885,38.578l-.4195.6283c-.1033,1.5683-.2154,3.2005-.2922,4.881l12.64-1.1577a3.3808,3.3808,0,0,1,3.2181,1.5707,3.2942,3.2942,0,0,1-.0263,3.5081c-3.9036,6.1881-9.67,15.7546-15.6162,26.2921,4.0331,46.08,29.3806,52.0084,42.02,54.9433,1.1226.257,2.5657.6,3.508.8917l1.6234.4724.5735,1.5706c.2921.78.6106,1.8868.8939,2.8051,2.8052,9.404,7.8926,26.4985,40.1048,35.696a72.7335,72.7335,0,0,0,19.8141,2.9874Z" fill="#010101"/>
    <path d="M594.3544,487.0769c10.5879-3.1743,31.2413-12.0313,50.5648-35.5423,7.02-8.5715,15.1965-12.9232,24.2931-12.9232,9.5423,0,17.3251,5.004,20.2335,7.1568a48.9821,48.9821,0,0,1,10.7768,66.7087C688.0046,530.795,674.8753,537.3,664.2345,537.3a24.0186,24.0186,0,0,1-9.9091-2.076c-6.4013-2.8842-9.8083-8.0749-8.9933-11.1371l.661-1.2631a79.6262,79.6262,0,0,1,10.6912-10.0652c8.7253-7.2841,17.7447-14.8364,17.7447-27.1751,0-3.6729-1.1246-6.1859-3.3542-7.4467-4.0945-2.3351-9.4149.5733-19.2139,6.4252-9.2832,5.5272-20.8421,12.4267-33.55,14.7771-14.63,2.7042-22.0436-2.3-25.64-7.0184l-2.9588-3.8529Z" fill="#010101"/>
    <path d="M428.2306,231.7216a45.3146,45.3146,0,0,1,25.4248-8.04c9.8588,0,19.5813,3.4075,28.9171,10.1157,13.4634,9.6962,26.13,11.5062,37.3171,13.0769,14.5289,2.0692,28.2318,4.0156,41.917,23.511l6.0849,8.6769L557.8,275.809c-31.061-10.0125-54.4447-15.7019-65.8476-16.038l-5.6806-.1367c-16.4927-.31-44.0895-.8589-54.8928-12.8111a18.3516,18.3516,0,0,1-4.6328-11.3261l-.0263-.782.0768-1.9638Z" fill="#010101"/>
    <path d="M388.183,334.39c-14.9988.9951-36.4077,7.1568-51.7406,12.1433L325.69,350.0149l7.13-8.7779c10.511-12.9735,20.13-16.0709,30.3252-19.3393,6.8733-2.2055,13.9511-4.5143,21.3913-9.8609,8.3056-5.9707,15.8577-8.3319,22.5423-6.8889a19.8587,19.8587,0,0,1,12.1585,8.8021c2.0935,2.6009,2.6515,4.9273,1.6827,7.1832-2.8074,6.3923-17.1714,12.2114-32.7371,13.257Z" fill="#010101"/>
    <path d="M16.3007,650.8916l6.2122,1.0743a77.9991,77.9991,0,0,0,31.27-1.2016,3.2887,3.2887,0,0,1,3.3544,1.1225,3.3873,3.3873,0,0,1,.4986,3.4839c-.13.2659-11.9017,26.9533-9.1739,49.676l.7556,6.34,4.7712-4.222c6.6054-5.8432,13.0241-9.9092,18.61-11.7632a3.3176,3.3176,0,0,1,4.0156,1.597c.5491,1.0193,13.2832,25.2684,16.5606,49.9037l.6788,5.1139,22.5758-13.892a3.322,3.322,0,0,1,4.57,1.0872q.02.0316.0383.0638c.7381,1.2347,17.6679,30.4,21.0749,58.1857l.5755,4.718,4.2463-2.12c8.701-4.3761,20.3632-12.7409,26.42-27.7331a3.3425,3.3425,0,0,1,2.73-2.067,3.3974,3.3974,0,0,1,3.139,1.4937c.2417.369,23.5726,35.54,39.7379,49.4846l1.39,1.184,1.7594-.5053c7.55-2.223,26.1273-8.5384,35.54-19.4954a3.299,3.299,0,0,1,3.3566-1.0567c.626.1627,15.9346,4.171,30.9248,20.2688l3.4927,3.7409,2.0407-4.6856c1.7859-4.145,4.2485-9.6785,7.3985-16.6726l1.4322-3.2005-3.2445-1.2878c-19.322-7.5939-44.2762-24.2668-53.4495-60.6218-9.98-39.4721.6875-71.6841,17.8236-100.3882a243.8037,243.8037,0,0,1-27.7507,7.9476,3.3252,3.3252,0,0,1-.0856,3.3192c-.4723.7644-11.8686,18.9291-38.5276,18.9291a71.949,71.949,0,0,1-19.814-2.9858c-32.2121-9.1975-37.3-26.2921-40.107-35.7049-.2833-.9424-.6-2.0408-.883-2.8052l-.5844-1.5706-1.6206-.4705c-.9446-.2833-2.3855-.626-3.51-.8918-13.5053-3.1413-41.6249-9.67-42.543-65.2659a265.2136,265.2136,0,0,1,.7906-26.8653c-1.21-4.7383-1.34-9.38-1.922-13.7293-4.9776-39.2656-10.0146-80.24,6.6054-123.17a3.2894,3.2894,0,0,1-.6.8413c-.3427.2306-33.68,24.6863-58.0912,63.4554l-2.5151,4.0068,4.6173,1.0544c6.7614,1.52,18.9974,3.563,24.7631.1032a3.3354,3.3354,0,0,1,4.6943,4.4023c-.6018,1.1247-14.6738,27.8362-27.9662,47.9929L38.55,522.9024l15.7551-1.4433a3.4032,3.4032,0,0,1,3.2269,1.5707,3.3349,3.3349,0,0,1-.0263,3.51c-9.1975,14.6035-28.7018,47.76-36.6231,68.6791l-2.17,5.7423,24.6622-5.2939a3.367,3.367,0,0,1,2.9174.7533,3.4461,3.4461,0,0,1,1.1224,2.8075c-.0768.8654-2.0758,21.7075-26.6347,47.1582Z" fill="#010101"/>
    <path d="M833.01,650.8916l-6.2122,1.0743a77.9865,77.9865,0,0,1-31.2676-1.2016,3.2962,3.2962,0,0,0-3.3632,1.1225,3.3779,3.3779,0,0,0-.4985,3.4839c.1384.2659,11.9017,26.9533,9.1733,49.676l-.7557,6.34-4.7711-4.222c-6.6076-5.8432-13.0258-9.9092-18.6124-11.7632a3.3049,3.3049,0,0,0-4.0068,1.597c-.5492,1.0193-13.29,25.2684-16.57,49.9037l-.6766,5.1139-22.5687-13.892a3.3277,3.3277,0,0,0-4.5783,1.0892l-.0371.0618c-.7381,1.2347-17.6678,30.4-21.0749,58.1857l-.5755,4.718-4.2462-2.12c-8.701-4.3761-20.3633-12.7409-26.4216-27.7331a3.34,3.34,0,0,0-2.7284-2.067,3.4031,3.4031,0,0,0-3.1412,1.4937c-.2394.369-23.5616,35.54-39.7358,49.4846l-1.39,1.184-1.76-.5053c-7.5432-2.223-26.1294-8.5384-35.5423-19.4954a3.2936,3.2936,0,0,0-3.3544-1.0567c-.626.1627-15.9346,4.171-30.9247,20.2688l-3.484,3.7409-2.0513-4.6856c-1.81-4.145-4.2463-9.6785-7.3875-16.6726l-1.441-3.2005,3.2511-1.2878c19.3153-7.5939,44.27-24.2668,53.4408-60.6218,9.9882-39.4721-.6767-71.6841-17.8217-100.3882,5.7665,2.12-1.81.2923,11.4556,3.4075-.5756,1.0484,5.32,4.6679,5.9464,5.6894.4723.7556,22.3007,21.1255,48.988,21.1255a71.9186,71.9186,0,0,0,19.8119-2.9858c32.2121-9.2,37.3018-26.292,40.1069-35.7047.2923-.9447.602-2.0431.892-2.8053l.5755-1.5706,1.6211-.4723c.9445-.2833,2.3857-.626,3.51-.8919,13.5052-3.1412,41.6249-9.6719,42.5431-65.2658a268.1147,268.1147,0,0,0-.78-26.8675c1.2015-4.736,1.39-9.3776,1.9133-13.7293,5.0545-43.4612,5.8937-66.869-6.6076-123.1677a3.3923,3.3923,0,0,0,.6.8414c.3448.2307,33.6794,24.6863,58.0845,63.4532l2.5218,4.0089-4.6154,1.0545c-6.7615,1.52-19.0079,3.5607-24.7742.1032a3.3305,3.3305,0,0,0-4.6838,4.4022c.6,1.1247,14.6717,27.8363,27.9637,47.993l3.8267,5.79-15.7532-1.44a3.3962,3.3962,0,0,0-3.2252,1.5706,3.34,3.34,0,0,0,.0243,3.51c9.2,14.6035,28.704,47.76,36.6141,68.6791l2.1792,5.74-24.66-5.294a3.3735,3.3735,0,0,0-2.9175.7557,3.4441,3.4441,0,0,0-1.1246,2.8051c.0769.8678,2.0671,21.71,26.6348,47.16Z" fill="#010101"/>
    <path d="M724.0177,570.9963a22.98,22.98,0,0,0-3.5871-2.0428c-2.9589-.8919-5.3973-.8919-6.8377.0263l-.5584.4459c-1.1489,1.1247-1.6739,3.4075-1.3553,6.0848l.31,2.6427c1.887,16.33,3.5431,30.4349-8.9844,45.2624-10.3069,12.1675-22.147,23.3837-53.733,26.894l-10.28,1.1313,8.9933,5.0809a43.2528,43.2528,0,0,0,21.624,5.3709,64.4907,64.4907,0,0,0,17.668-2.6426c28.6754-8.2024,32.915-22.439,35.4631-30.9512.8676-2.882,1.5443-5.1666,2.9083-6.9,1.5708-1.9638,4.171-2.6425,8.677-3.6882,12.7671-2.97,36.5352-8.4945,37.3764-58.8726.3692-22.5929-1.3377-40.1839-5.1139-52.2151l-4.8987-15.6426-1.6231,16.2951c-1.7575,17.8831-5.5094,50.1984-10.8036,66.0294a7.8066,7.8066,0,0,1-4.848,5.217c-5.74,1.99-13.3163-2.9347-19.4253-6.9175Z" fill="#010101"/>
    <path d="M826.7982,651.9659l6.2122-1.0743-4.3846-4.5383C804.0691,620.9026,802.0767,600.0671,802,599.2016a3.4,3.4,0,0,1,1.1247-2.8052,3.3507,3.3507,0,0,1,2.9083-.7556l.1383.0263a2.7064,2.7064,0,0,1,.8305-.0263l23.6229,5.0546-2.1021-5.5c-7.9366-20.9453-27.4147-54.0756-36.6143-68.6814a3.3267,3.3267,0,0,1,3.2006-5.0787l.6282.0505c.11,0,.1867-.0505.29-.0505l14.76,1.3378-3.7493-5.7158c-13.292-20.1545-27.364-46.8661-27.9636-47.9908a3.3746,3.3746,0,0,1,.6523-3.9825,3.2133,3.2133,0,0,1,2.6251-.7381,3.3128,3.3128,0,0,1,2.3857.3185,17.6263,17.6263,0,0,0,8.3561,1.8628,74.3617,74.3617,0,0,0,15.4382-1.9924l4.6155-1.0544-2.513-4.0067c-24.4291-38.7429-57.7748-63.2249-58.0932-63.4555a3.3853,3.3853,0,0,1-.6-.8414,461.4515,461.4515,0,0,1,8.3057,46.73c.2415.369.4723.7139.7138,1.0827l2.5131,4.0068-2.6009.5756a243.7373,243.7373,0,0,1,.661,38.9734c5.6387,3.4159,17.7448,17.145,16.8266,72.3958a133.6489,133.6489,0,0,1-1.1841,15.5482c.6107,1.4411,1.1841,2.8578,1.6827,4.1869l2.17,5.7421-5.3709-1.151c-2.7283,12.185-7.2843,20.5763-12.5277,26.4459a120.99,120.99,0,0,0,15.882,20.1826l4.3761,4.5385-6.2121,1.0719a77.6141,77.6141,0,0,1-31.3444-1.2608,3.3815,3.3815,0,0,0-3.3565,1.1246,3.3194,3.3194,0,0,0-.47,3.4927c4.0571,9.1712,11.2139,31.3181,9.1469,49.5878l-.7381,6.3661L745.616,690.57c-6.5724-5.8189-13-9.8762-18.5773-11.7389a3.3861,3.3861,0,0,0-4.0155,1.5969c-.5228.9952-13.2922,25.2685-16.57,49.88l-.6788,5.114-22.54-13.8672a3.37,3.37,0,0,0-2.5413-.3933,3.3176,3.3176,0,0,0-2.0935,1.5443c-.7117,1.208-17.6679,30.3757-21.0727,58.168l-.5755,4.7118-4.2484-2.12c-8.701-4.3761-20.361-12.743-26.4194-27.7331a3.34,3.34,0,0,0-2.7546-2.0692,3.2811,3.2811,0,0,0-3.1237,1.4938c-.2066.3427-22.4808,34.0221-38.8109,48.619a50.6484,50.6484,0,0,1,6.7372-2.5394,3.1853,3.1853,0,0,1,.8661.0242c.0263,0,.0769-.0242.1026-.0242a3.3262,3.3262,0,0,1,3.3543,1.0721c9.3888,10.9569,27.9662,17.2724,35.5423,19.5041l1.0216.2922,1.1246-.9709c16.2006-13.9423,39.5315-49.1243,39.7358-49.4846a3.5227,3.5227,0,0,1,3.15-1.4937c.1032,0,.18.0769.2834.1032a2.8616,2.8616,0,0,1,.661-.1032,3.292,3.292,0,0,1,2.7459,2.0692c6.0584,14.9638,17.7184,23.3552,26.4193,27.7331l3.33,1.6717.5228-4.2462c3.4075-27.7858,20.3457-56.96,21.075-58.1878a3.3288,3.3288,0,0,1,2.0757-1.5443,3.46,3.46,0,0,1,1.4169-.0241,3.3117,3.3117,0,0,1,2.1177.42l21.65,13.31.6-4.5584c3.28-24.6424,16.0468-48.8849,16.57-49.9038a3.2906,3.2906,0,0,1,3.4333-1.6827,3.3811,3.3811,0,0,1,1.5445.0856c5.56,1.8628,11.9784,5.92,18.586,11.7391l3.93,3.4927.6524-5.5613c2.702-22.6962-9.0612-49.4078-9.1733-49.6735a3.3632,3.3632,0,0,1,3.8618-4.6086.3549.3549,0,0,0,.18.0262,3.93,3.93,0,0,1,.7887-.05,84.5615,84.5615,0,0,0,17.3514,2.2564,65.713,65.713,0,0,0,12.9473-.9511Z" fill="#010101"/>
    <path d="M716.7578,182.4c-9.6962,55.4836-27.7485,83.8933-40.9131,104.6344-2.8823,4.6064-5.61,8.8811-7.884,12.9736a3.06,3.06,0,0,0-.3449,2.5393c0,.0769.079.2065.079.2571-.6018,1.0807-1.2542,2.0779-1.8627,3.02-12.3649-46.5234-44.92-59.5848-53.3375-76.1456C611.1633,218.2491,639.36,217.1,639.36,217.1l-39.5753-2.4625s12.0312-15.2581,47.0748-16.7255c-32.0827-13.839-76.4028-17.7711-76.4028-17.7711s1.1248-.738,3.1413-1.81a89.9524,89.9524,0,0,1,13.5821-5.9464c5.4235-1.81,14.52-10.6407,24.06-20.8685.13-.2064.3362-.3427.4635-.5228,4.4879-4.8217,9.0964-9.8257,13.3691-14.6474,23.7268-21.9932,50.06-24.7981,67.2556-16.8617,20.4752,9.5775,29.6464,33.027,24.4294,62.915Z" fill="#010101"/>
    <path d="M133.07,182.4c9.6962,55.4836,27.7573,83.8933,40.9132,104.6344,2.8821,4.6064,5.61,8.8811,7.8927,12.9736a3.0582,3.0582,0,0,1,.3361,2.5393c0,.0769-.0769.2065-.0769.2571.6,1.0807,1.2609,2.0779,1.8606,3.02,12.3739-46.5234,44.92-59.5848,53.3375-76.1456,1.34-11.4292-26.8653-12.5782-26.8653-12.5782l39.5753-2.4625s-12.0312-15.2581-47.0748-16.7255c32.0825-13.839,76.4113-17.7711,76.4113-17.7711s-1.1334-.738-3.15-1.81a89.3717,89.3717,0,0,0-13.5728-5.9464c-5.4324-1.81-14.52-10.6407-24.06-20.8685-.13-.2064-.3449-.3427-.4723-.5228-4.4787-4.8217-9.0964-9.8257-13.369-14.6474-23.7175-21.9932-50.06-24.7981-67.2557-16.8617-20.4752,9.5775-29.6463,33.027-24.4293,62.915Z" fill="#010101"/>
    <path d="M475.2264,529.534c-6.8888-23.2957-7.6028-58.581,42.8268-100.9615l.8678,1.2016a67.7994,67.7994,0,0,0-7.8093,7.6291,82.6571,82.6571,0,0,0-7.6268,10.2277c-13.1647,21.6483-13.1121,48.9352.2043,74.8079,12.297,23.7944,29.75,45.6579,46.6559,66.733,7.4994,9.43,14.8362,18.5772,21.5977,27.6714l.47.9445c2.3351,6.9,13.0264,42.5959-2.882,69.8039a56.6709,56.6709,0,0,1-7.0184,9.3535,79.7349,79.7349,0,0,0,.257-8.2794c-1.1753-71.0845-72.3871-107.9908-87.5419-159.1317Z" fill="#010101"/>
    <path d="M541.197,797.88l-.9973.1384a117.042,117.042,0,0,1-25.0817,2.7459c-1.1993,0-2.41,0-3.6113-.077-42.5191-1.263-67.7873-22.1227-74.4718-28.4887,44.8759,8.2287,112.527-8.76,124.0332-64.7932A58.9506,58.9506,0,0,0,575.2959,690.81c7.08-12.029,10.2278-26.6083,9.4392-43.4612l-.6788-13.9687,6.9416,12.1675c17.9359,31.6015,22.6806,60.7777,14.8363,91.5816-7.9366,31.5267-30.8723,53.0454-64.6372,60.7514Z" fill="#010101"/>
    <path d="M179.4656,308.3132a6.6422,6.6422,0,0,1-5.819-3.3808c-2.2564-3.9562-4.881-8.0748-7.7126-12.5539-13.6017-21.444-32.2384-50.8246-42.28-108.3051-6.0233-34.5734,5.2171-62.1264,30.1186-73.6831,27.6056-12.7865,63.172-.9447,88.5723,29.49,21.5713,25.8465,29.062,27.4936,34.545,28.728l-1.0215,6.6341-1.4673,6.5219,1.4673-6.5219-1.8606,6.4186c-9.5424-2.12-19.2649-6.0847-41.9169-33.2071-24.79-29.6991-54.3591-34.4176-72.6793-25.923-19.0848,8.8548-27.5025,30.9841-22.5688,59.2576,9.5688,54.8665,27.39,82.9334,40.39,103.4328,2.9612,4.6679,5.6895,8.9669,8.0487,13.1032a6.6715,6.6715,0,0,1-2.4847,9.1018l-.037.021a6.853,6.853,0,0,1-3.2951.8661Z" fill="#010101"/>
    <path d="M346.6614,810.7769c-40.5442,0-87.0434-18.5509-100.3619-71.1328-16.3542-64.6659,21.1513-111.4748,57.4321-156.7725,16.5872-20.73,33.7564-42.1389,45.5549-65.05,11.8422-23.0124,12.0311-46.1039.5249-64.9822-14.6563-24.01-45.9765-37.79-85.945-37.79-24.3019,0-41.6007-7.1831-51.5122-21.3407-17.2988-24.739-4.2725-61.0171-3.7232-62.5372a6.682,6.682,0,0,1,12.5539,4.5822c-.1033.3186-11.1635,31.3291,2.1527,50.3255,7.2338,10.3331,20.86,15.5745,40.4936,15.5745,44.7485,0,80.2381,16.1236,97.3481,44.2171,13.8412,22.672,13.8148,51.1408-.0506,78.0589-12.4,24.0866-30.0067,46.0534-46.9978,67.3084-35.7971,44.6893-69.615,86.9139-54.8818,145.1346,11.79,46.6288,54.8049,62.0386,91,60.9665,48.9947-1.5,77.3472-29.251,77.613-29.543a6.6923,6.6923,0,1,1,9.4632,9.4654c-1.3113,1.3115-32.4251,31.8167-86.683,33.4467-1.3027.0439-2.6426.0684-3.98.0684Z" fill="#010101"/>
    <path d="M308.3909,440.8085a7.2053,7.2053,0,0,1-1.7771-.2307,6.6868,6.6868,0,0,1-4.6922-8.2024l4.8217-17.54a6.6993,6.6993,0,0,1,12.9233,3.5367L314.8449,435.91A6.7167,6.7167,0,0,1,308.3909,440.8085Z" fill="#010101"/>
    <path d="M553.4917,440.8085a6.647,6.647,0,0,1-6.4428-4.9491l-4.668-17.4877a6.6847,6.6847,0,0,1,12.921-3.4335l4.6679,17.4877a6.6966,6.6966,0,0,1-4.7448,8.1783A8.1028,8.1028,0,0,1,553.4917,440.8085Z" fill="#010101"/>
    <path d="M282.16,290.9638a6.6943,6.6943,0,0,1-6.0079-9.6456c18.5356-37.6182,37.5083-40.3134,55.8264-42.9122,10.2805-1.4673,19.95-2.8314,30.5909-10.4868,28.7282-20.68,55.8023-8.5979,66.1069.6875a6.8374,6.8374,0,0,1,2.1966,4.4284c.7117,8.7253-1.6211,16.1484-6.9175,21.991-13.0241,14.4168-40.544,14.966-58.7853,15.3262l-5.217.1362c-16.4422.4987-60.16,14.6739-75.5966,20.1063a6.9326,6.9326,0,0,1-2.1966.369Zm113.4366-61.07c-7.337,0-15.959,2.1967-25.1916,8.8812-13.31,9.5929-25.6309,11.3525-36.5133,12.87-13.7029,1.94-25.0816,3.5609-37.0842,20.68,18.74-6.0321,48.2324-14.7836,62.7765-15.23l5.3709-.13c14.94-.2922,39.9686-.7887,49.1243-10.9308a14.0086,14.0086,0,0,0,3.5609-9.1491,39.4938,39.4938,0,0,0-22.0436-6.9921Z" fill="#010101"/>
    <path d="M571.4781,290.9638a6.9749,6.9749,0,0,1-2.2053-.369c-.18-.0527-17.9513-6.2907-36.9569-11.7654a6.6865,6.6865,0,0,1,3.7234-12.8435c7.4489,2.144,14.7068,4.4,20.8421,6.3924-12.029-17.1451-23.4077-18.7662-37.12-20.7058-10.88-1.5443-23.2212-3.3039-36.511-12.87-22.6191-16.2795-44.843-5.9464-52.3426-1.5465.703,7.5785,7.3611,15.6777,38.4243,18.7157a6.6867,6.6867,0,0,1-1.2829,13.3118l-.0218-.0022c-13.112-1.2784-52.9774-5.1841-50.4644-36.2209a6.7319,6.7319,0,0,1,2.6514-4.7954c12.0817-9.0436,42.4068-20.7586,70.8188-.2922,10.6384,7.6533,20.3434,9.0438,30.5886,10.4845,18.3467,2.6008,37.3018,5.294,55.8264,42.9055a6.6354,6.6354,0,0,1-5.9706,9.6017Z" fill="#010101"/>
    <path d="M318.902,362.7841a6.6958,6.6958,0,0,1-5.87-9.9113c16.9649-30.9073,32.8228-36.0119,46.8179-40.5265,6.4186-2.0672,12.4507-4.0068,18.6124-8.4353,10.7417-7.73,21.0134-10.588,30.5031-8.5714a29.3938,29.3938,0,0,1,18.14,12.6639c3.9826,5.1072,5.1139,10.8472,3.1654,16.1939-4.5295,12.4749-22.9772,17.2994-30.7095,18.79a6.6863,6.6863,0,0,1-2.5984-13.1177l.05-.01c12.0048-2.3351,19.5043-6.9175,20.7059-10.2452.1362-.369.4965-1.39-1.2785-3.57a9.275,9.275,0,0,1-.6106-.8675,15.9961,15.9961,0,0,0-9.8235-6.7878c-5.6125-1.1225-12.2464.9951-19.7459,6.3683-7.86,5.6365-15.1966,8.0222-22.3006,10.3045-9.9357,3.1917-18.87,6.0849-28.7546,18.2939,7.6532-2.4888,16.8881-5.2939,26.1383-7.6027a6.6746,6.6746,0,0,1,3.2423,12.95c-21.2287,5.32-43.0922,13.5491-43.3252,13.6259a6.2419,6.2419,0,0,1-2.359.4547Z" fill="#010101"/>
    <path d="M530.5563,362.7841a6.8816,6.8816,0,0,1-2.359-.42c-.4481-.1647-43.6437-16.3806-67.3855-17.96-15.6008-1.0478-35.7488-6.702-41.2313-19.2649-1.441-3.2686-2.9348-9.8235,2.7806-17.1362a29.367,29.367,0,0,1,18.1313-12.6639c9.49-2.0428,19.761.8413,30.5119,8.5714,6.1529,4.4286,12.2113,6.3682,18.6037,8.4354,14.0038,4.5141,29.8616,9.6191,46.8177,40.5264a6.6906,6.6906,0,0,1-5.869,9.9114Zm-84.0581-54.7016a14.2644,14.2644,0,0,0-3.1655.3341,16.4249,16.4249,0,0,0-9.6786,6.7613,5.7671,5.7671,0,0,1-.6019.8919c-1.8364,2.2581-1.4146,3.28-1.21,3.7493,2.0166,4.6086,14.5024,10.2211,29.8528,11.2668,15.3943,1.0215,37.1458,7.2952,52.5577,12.2965-9.8851-12.1849-18.8167-15.067-28.7545-18.268-7.104-2.2845-14.441-4.6679-22.3007-10.2979-6.1881-4.5143-11.7741-6.7352-16.699-6.7352Zm-18.6367,3.7411Z" fill="#010101"/>
    <path d="M664.1582,547.3315c-1.2345,0-2.3855-.0526-3.4074-.156-11.06-1.0719-20.8926-7.4994-24.403-15.9347-2.2055-5.3181-1.5705-10.6912,1.76-14.7573a87.952,87.952,0,0,1,12.0048-11.4051c6.34-5.32,11.9785-10.0037,13.65-15.9084-2.1176,1.1576-4.6679,2.6514-6.8887,3.9826-9.4392,5.6367-22.3886,13.3426-36.8558,16.02-27.9374,5.1644-38.87-12.374-40.7836-22.3622a6.72,6.72,0,0,1,1.1839-5.2171,6.6507,6.6507,0,0,1,4.6329-2.669c.2416-.0264,27.2871-3.6729,52.0084-33.7827,11.1373-13.582,25.7342-19.109,41.0934-15.5481,18.4587,4.2725,34.1517,21.0487,39.0855,41.7808a6.6819,6.6819,0,0,1-13,3.0973c-3.7234-15.6425-15.6756-28.7545-29.0709-31.8429-10.2716-2.3857-19.8909,1.4146-27.7594,11.0074-19.6844,24.01-40.7331,33.2095-52.1887,36.6406,3.1236,4.0595,9.4918,8.1519,22.4127,5.7665,12.1082-2.2231,23.3837-8.9581,32.4537-14.3641,9.9532-5.9465,16.5608-9.8764,22.5665-6.4451,2.3087,1.3049,5.0282,4.1627,5.0282,10.3485,0,13.894-10.0652,22.3365-18.9464,29.75a75.9631,75.9631,0,0,0-10.2276,9.5929c-.2307.8414,1.5705,4.7206,7.13,7.2336,10.1684,4.567,26.4985,1.3136,41.7281-21.5714a6.6929,6.6929,0,0,1,11.1637,7.3859l-.0245.0367C691.9682,542.7492,674.7218,547.3315,664.1582,547.3315Z" fill="#010101"/>
    <path d="M669.2631,671.9666c-28.4865,0-40.7484-19.5306-41.3854-20.5257a6.6954,6.6954,0,0,1,5.5357-10.1684c39.1293-1.0457,50.7471-11.1877,61.8848-24.3523,9.7225-11.5063,8.4682-22.4634,6.7108-37.6094l-.3185-2.669c-.7381-6.2978,1.1578-11.8224,5.14-15.1263,2.882-2.4119,8.1781-4.6942,16.8265-2.0429,1.9134.5755,3.8267,1.8365,6.7614,3.7493,2.0431,1.3312,6.9416,4.5054,9.7489,5.4741,7.1568-23.3309,11.403-79.86,11.4556-80.4445a6.5808,6.5808,0,0,1,2.5984-4.7953,6.83,6.83,0,0,1,5.32-1.2878c5.4742,1.0193,23.2715,9.5929,22.1469,76.8222-.9687,58.1944-31.9287,65.4039-45.1352,68.4661-1.072.2571-2.4624.5756-3.3544.8413-.2658.7382-.6105,1.9133-.8917,2.8315-2.9106,9.7995-8.3671,28.0165-42.33,37.7478a75.26,75.26,0,0,1-20.7146,3.0883ZM649.5787,653.596c7.4994,4.2462,19.3769,7.3611,36.7262,2.41,26.9177-7.7039,30.6942-20.3434,33.1831-28.7018.9182-3.1238,1.7331-5.7927,3.5081-8.0224,2.3613-2.961,5.9815-3.8023,10.5111-4.848,12.7181-2.9611,33.998-7.8861,34.7866-55.6725.4392-26.4217-2.1023-42.0115-4.9844-51.1584-1.9659,19.9413-5.6893,50.9522-10.957,66.757a11.094,11.094,0,0,1-6.9175,7.3128c-7.2841,2.5129-15.6424-2.9107-22.327-7.2865-1.553-.9951-2.8315-1.887-3.6728-2.2823-2.625-.7886-3.9035-.4722-4.0924-.3427a5.3316,5.3316,0,0,0-.3867,3.3277l.31,2.6513c1.9133,16.3806,3.697,31.8694-9.773,47.8041-10.7791,12.7693-23.41,24.4556-55.9143,28.0516Zm90.1166-83.456a.0825.0825,0,0,0-.0265.05l6.3682,2.0672Z" fill="#010101"/>
    <path d="M206.0652,547.3315c-10.5643,0-27.81-4.5823-44.2674-29.3036a59.0288,59.0288,0,0,1,13.1537-80.3325c19.7108-14.6058,42.5693-11.6711,58.2471,7.4379,24.9433,30.4021,51.7164,33.765,51.9975,33.7915a6.7046,6.7046,0,0,1,4.6351,2.669,6.58,6.58,0,0,1,1.184,5.2171c-1.887,9.9882-12.9233,27.5178-40.7836,22.3622-14.4673-2.6781-27.4167-10.3837-36.8558-16.02-2.2231-1.34-4.7712-2.8315-6.891-3.9826,1.6826,5.869,7.3126,10.5881,13.6611,15.9084a88.5694,88.5694,0,0,1,12.0049,11.4051c3.3214,4.0571,3.9561,9.43,1.7507,14.7573-3.51,8.4616-13.3184,14.854-24.3963,15.9347-1.0544.1034-2.2032.156-3.44.156Zm-4.925-105.39c-8.4177,0-15.3591,4.3516-18.2433,6.4958a45.65,45.65,0,0,0-9.9883,62.1775c15.2581,22.8851,31.56,26.1273,41.7281,21.5715,5.562-2.4889,7.3631-6.4011,7.1326-7.2337a78.3455,78.3455,0,0,0-10.2475-9.6192c-8.8878-7.4227-18.953-15.8557-18.953-29.75,0-6.1859,2.7284-9.0437,5.0282-10.3573,6.0058-3.4049,12.6134.5073,22.5758,6.4539,9.0613,5.3972,20.3369,12.1079,32.4429,14.364,12.8724,2.3856,19.2648-1.7069,22.3884-5.7664-11.456-3.4319-32.5047-12.64-52.1892-36.65-7.2842-8.9141-14.9638-11.6863-21.6747-11.6863Z" fill="#010101"/>
    <path d="M200.9777,671.9666a75.3394,75.3394,0,0,1-20.7323-3.1236c-33.9719-9.6962-39.4193-27.94-42.3277-37.7389-.2659-.9182-.6108-2.0759-.8941-2.8558-.8919-.2658-2.2564-.5755-3.3276-.8413C120.49,624.3339,89.53,617.1265,88.5609,558.9409c-1.1247-67.2315,16.6726-75.8029,22.1556-76.8244a6.6713,6.6713,0,0,1,5.32,1.2878,6.5893,6.5893,0,0,1,2.59,4.7977c.0526.5734,4.2989,57.1137,11.4556,80.4446,2.8315-.971,7.706-4.1452,9.7489-5.4829,2.9347-1.9133,4.8481-3.1676,6.7613-3.7409,8.6484-2.6781,13.9511-.369,16.8266,2.0407,3.9892,3.3037,5.8521,8.8042,5.14,15.12l-.2921,2.6516c-1.7507,15.17-3.038,26.13,6.7108,37.6356,11.12,13.1625,22.7554,23.3046,61.8848,24.3523a6.6954,6.6954,0,0,1,5.5335,10.1685c-.661,1.0456-12.9472,20.5763-41.4184,20.5763ZM106.89,507.62c-2.8579,9.1558-5.406,24.7456-4.9864,51.1672.7886,47.7513,22.07,52.7116,34.7778,55.67,4.5646,1.0478,8.1518,1.8891,10.511,4.8481,1.7859,2.223,2.6009,4.9249,3.5191,8.0244,2.4888,8.3562,6.2565,20.987,33.1807,28.693,17.2994,4.9337,29.1918,1.81,36.6913-2.41-32.4692-3.5872-45.1089-15.2756-55.8769-28.0428-13.4723-15.9346-11.6952-31.4323-9.7818-47.8129l.3162-2.6163a5.2094,5.2094,0,0,0-.3931-3.33c-.189-.1032-1.4939-.42-4.3517.4459-.5756.2923-1.8606,1.1775-3.3806,2.1726-6.7109,4.3762-15.0758,9.806-22.3623,7.2929a11.2048,11.2048,0,0,1-6.9151-7.3193C112.57,558.58,108.88,527.5435,106.89,507.62Zm23.6385,62.5193-6.3485,2.1175,6.3748-2.0671C130.5281,570.1635,130.5281,570.1635,130.5281,570.1393Z" fill="#010101"/>
    <path d="M315.1281,470.826a52.7926,52.7926,0,0,1-19.891-3.9563c-23.254-9.4391-35.8081-32.8227-27.9662-52.1117a36.3852,36.3852,0,0,1,6.5482-10.2717,6.6773,6.6773,0,0,1,9.8324,9.0371,22.6932,22.6932,0,0,0-3.98,6.2363c-5.0634,12.4508,4.1868,27.9923,20.6025,34.6856,16.4071,6.6493,33.91,1.9638,38.9472-10.5133A26.2148,26.2148,0,0,0,340.585,437.9a6.69,6.69,0,1,1,13.31,1.3641,38.6283,38.6283,0,0,1-2.2494,9.6962c-5.663,13.8412-20.19,21.8657-36.5176,21.8657Z" fill="#010101"/>
    <path d="M545.6058,470.826c-16.3279,0-30.848-8.0245-36.4583-21.8131a32.6484,32.6484,0,0,1-2.1791-8.7537,6.7116,6.7116,0,0,1,5.9793-7.3347,6.6079,6.6079,0,0,1,7.32,5.8088q.0093.0808.0166.1618a18.4093,18.4093,0,0,0,1.2609,5.09c5.0546,12.4508,22.5417,17.1694,38.9493,10.5111,16.4048-6.6581,25.6641-22.2325,20.6026-34.6833a21.8871,21.8871,0,0,0-3.9563-6.0233,6.6771,6.6771,0,0,1,9.8257-9.0437,34.92,34.92,0,0,1,6.5286,10.0651c7.8356,19.2978-4.718,42.6464-27.9638,52.11a54.5266,54.5266,0,0,1-19.9259,3.9056Z" fill="#010101"/>
    <path d="M435.0425,745.8041h-5.2939a20.3014,20.3014,0,0,1-19.9678-16.3806c-3.9628-20.7916-20.8685-29.8528-33.19-36.4847-4.7712-2.5745-8.5384-4.5911-11.19-7.0535-5.4473-5.0371-6.5724-10.0916-6.5724-13.42a16.9086,16.9086,0,0,1,5.2171-11.7742c13.883-13.3163,34.3318-5.9464,50.7894-.0263,7.293,2.6272,14.184,5.09,18.56,5.09h.0769c4.0946-.0263,10.9061-2.5745,17.4878-5.0545,15.9611-5.9816,35.8257-13.4459,49.9591.1032a16.9328,16.9328,0,0,1,5.1055,11.6621c0,3.3544-1.1247,8.3913-6.5725,13.42-2.6781,2.4625-6.4538,4.4786-11.19,7.0535-12.3475,6.6319-29.2268,15.7283-33.19,36.4847A20.3805,20.3805,0,0,1,435.0425,745.8041Zm-50.8487-79.1578c-4.3516,0-8.1519,1.0477-11.01,3.8025a3.4066,3.4066,0,0,0-.9686,2.0933,5.9484,5.9484,0,0,0,2.2824,3.5083c1.4409,1.3135,4.8479,3.15,8.4681,5.1138,13.0258,7.003,34.8394,18.742,39.9949,45.7612a6.9207,6.9207,0,0,0,6.8491,5.5356h5.2852a6.9322,6.9322,0,0,0,6.847-5.5356c5.1666-27.0192,26.9686-38.7318,39.9949-45.7612,3.62-1.9374,7.0535-3.7739,8.4682-5.1138,1.4432-1.3291,2.2845-2.6163,2.2582-3.5608a3.6639,3.6639,0,0,0-.8414-1.9133.6122.6122,0,0,0-.13-.1368c-7.473-7.1568-19.6317-3.3808-36.0119,2.7546-8.0222,3.02-15.6013,5.8432-22.07,5.8937h-.1626c-6.7021,0-14.6474-2.849-23.0915-5.8937-8.8042-3.1413-18.3444-6.5482-26.1624-6.5482Z" fill="#010101"/>
    <path d="M432.6065,779.2177a6.6733,6.6733,0,0,1-6.6846-6.6617V712.3569a6.6846,6.6846,0,0,1,13.369,0v60.1847a6.673,6.673,0,0,1-6.67,6.6757h-.0141Z" fill="#010101"/>
    <path d="M458.4525,730.9435a37.36,37.36,0,0,1-10.6668-1.34,6.6945,6.6945,0,0,1,4.0331-12.7671c.4723.1367,9.2239,2.5745,21.5209-2.1966,8.5471-3.33,13.738-24.3019,14.9133-33.9453a6.6827,6.6827,0,1,1,13.28,1.51q-.0068.06-.0147.1194c-.4722,3.8266-5.1138,37.6862-23.3572,44.79a53.7884,53.7884,0,0,1-19.7087,3.8291Z" fill="#010101"/>
    <path d="M406.9251,729.6557a57.8279,57.8279,0,0,1-20.9476-4.0331c-18.217-7.1063-22.885-40.9482-23.355-44.8013A6.6822,6.6822,0,0,1,375.8882,679.2c1.5179,12.2964,7.1545,30.9249,14.9133,33.9453,12.5782,4.9,22.2325,2.5656,22.327,2.5393a6.6825,6.6825,0,0,1,3.4075,12.9233,36.9444,36.9444,0,0,1-9.61,1.0484Z" fill="#010101"/>
    <path d="M347.975,729.3987a5.1248,5.1248,0,0,1-.9709-.0877c-30.3581-4.4528-51.6637-16.8266-63.3522-36.768-20.104-34.3139-3.8-77.9053-3.0973-79.757a6.6951,6.6951,0,0,1,12.5122,4.7689c-.1646.3955-14.6825,39.5491,2.17,68.2772,8.3648,14.2279,23.2541,23.7966,44.3269,28.5151-1.5531-11.2931-2.0144-29.7233,7.57-43.5382,7.13-10.2717,18.3022-16.1149,33.2071-17.3779a6.6954,6.6954,0,1,1,1.1072,13.3449c-10.9062.9182-18.5356,4.7448-23.3573,11.6863-9.0964,13.1361-5.74,35.0964-3.6992,42.4662a6.6638,6.6638,0,0,1-6.416,8.47Z" fill="#010101"/>
    <path d="M515.2211,810.7769c-1.329,0-2.669-.0241-4.0067-.05-54.4711-1.6475-82.4349-32.4185-83.5859-33.7326a6.68,6.68,0,0,1,9.98-8.8811h0c.3449.3865,25.666,27.8121,74.028,29.2707,36.1926,1.0807,79.208-14.3311,90.9975-60.9581,14.7331-58.2208-19.0826-100.4475-54.8818-145.1367-17.0156-21.2288-34.5977-43.1955-46.9978-67.28-13.8655-26.9444-13.892-55.3892-.05-78.0611,17.145-28.0934,52.6082-44.2171,97.348-44.2171,19.6339,0,33.26-5.2412,40.4934-15.5722,13.3164-18.9991,2.2564-50.01,2.1529-50.3281a6.6817,6.6817,0,0,1,12.554-4.58c.5491,1.5179,13.5754,37.7981-3.7234,62.535-9.885,14.16-27.21,21.3407-51.51,21.3407-39.9707,0-71.2887,13.7819-85.945,37.79-11.5084,18.8782-11.32,41.97.5229,64.9821,11.7983,22.9113,28.97,44.3465,45.5547,65.0524,36.28,45.2713,73.76,92.1046,57.4321,156.77-13.31,52.5052-59.809,71.0561-100.3618,71.0561Z" fill="#010101"/>
    <path d="M513.8923,729.3987a6.6813,6.6813,0,0,1-6.3242-8.8393c.0857-.2571,9.0173-27.0213-1.1752-42.5958-4.3517-6.623-11.6446-10.2959-22.2853-11.2139a6.6942,6.6942,0,1,1,1.1071-13.3426c14.8363,1.2608,25.734,7.0777,32.368,17.2462,8.9915,13.7642,7.5236,32.1088,5.3181,43.5644,20.7587-4.7711,35.439-14.3114,43.6942-28.3854,16.8881-28.7282,2.3351-67.8906,2.1791-68.2772a6.6911,6.6911,0,0,1,12.5035-4.769c.703,1.8276,17.0067,45.4164-3.0908,79.757-11.695,19.9415-33,32.3153-63.35,36.768a5.3455,5.3455,0,0,1-.9446.0878Z" fill="#010101"/>
    <path d="M657.8428,109.3161s25.394-.243,38.4931,12.3052,25.7212,19.764,21.0874,56.1456S693.3676,271.09,693.3676,271.09l-9.6743,47.8058L582.442,300.2746l-40.2854-96.0189,25.7347-47.1364,46.5523-32.0063Z" fill="#010101"/>
  </g>
</svg>
