<svg id="Calque_1" data-name="Calque 1" xmlns="http://www.w3.org/2000/svg" width="30cm" height="33.4cm" viewBox="0 0 850.3937 946.7717">
  <g id="Capa_1" data-name="Capa 1">
    <g>
      <path d="M456.6088,683.9983s-2.6158,173.36,1.6144,234.2519c0,0-22.9917,33.437-75.1977,6.3767,0,0,15.5678-156.43,12.9612-233.81C395.9868,690.8174,418.0576,653.5927,456.6088,683.9983Z"/>
      <g>
        <path d="M64.5651,686.1631c-.74-1.0371-.1625-3.2021,1.1355-2.94,5.6019,1.1629,11.1214,2.4625,16.678,3.833,26.2834-.5957,52.26-7.54,75.216-24.1463,5.9076-4.3115,12.51-9.1817,19.2828-14.5757a163.1679,163.1679,0,0,1-68.4506,1.1186c-1.55-.3426-2.129-3.3648-.2162-3.7517,11.5362-2.2914,23.0362-4.655,34.4642-7.3788-18.3368-2.4985-34.8789-10.7787-45.27-29.0258a1.7963,1.7963,0,0,1,1.7854-2.6332,151.1816,151.1816,0,0,0,40.7243,4.4822c32.6879-11.2109,70.6517-40.67,90.17-62.5792,3.3731-3.7969,6.53-7.7657,9.57-11.8243-26.5-3.87-57.1944-13.7463-71.41-38.2978-2.5891-4.4473.18-12.1226,5.2673-9.796,2.8142,1.2543,5.6822,2.4181,8.5593,3.5006,2.6424.4229,5.2411.7748,7.8295.9466,21.1334-.604,44.2055-7.37,64.5723-18.1926a49.919,49.919,0,0,1-25.2371-8.6415,26.0932,26.0932,0,0,1-10.9587-6.2058c-.8571-.7748-.5957-2.8409.64-2.7145-.2522-.2974-.5774-.5145-.8571-.8211-.7668-.9467-.0452-2.8051,1.0825-2.6692a81.8755,81.8755,0,0,0,27.0861-.6947,110.8525,110.8525,0,0,0,26.9153-19.3656c-22.2066,2.76-44.6386,1.7226-61.154-7.8109-1.0373.1347-2.1464.3426-3.157.3878-2.697.2621-3.9143-2.5436-3.7158-5.2221-1.281-1.065-2.6155-2.1115-3.7886-3.2743-1.3345-1.3717-.7759-3.8435,1.0556-3.9236,4.5093-.2621,9.6058-.4239,14.8825-.5958,27.3753-9.9307,52.143-28.43,76.3254-46.7583,18.3726-13.9,30.7843-30.027,41.4993-48.129-29.0432,5.4743-60.089,1.7944-79.8426-6.6566a2.1275,2.1275,0,0,1-.8788-2.8775,2.1511,2.1511,0,0,1,.1389-.2259c.0453-.0812.0453-.171.1081-.2522a2.075,2.075,0,0,1,.7943-.5678h.09c.145-.0729.2621-.2079.4064-.2079.2437,0,.4774-.0543.7207-.0543,21.476-3.49,42.5641-25.02,59.8461-39.5062,5.1048-4.302,9.8488-8.93,14.4676-13.5831-31.3155,21.0161-68.5142,35.5465-89.8,14.1509-.9024-.9107-.9024-3.0757.4867-3.2836,108.9765-20.6188,167.7669-134.096,205.2088-249.729,1.7033-5.2684,8.9019-5.8272,9.66.5134.3057,2.67.4324,5.3035.6134,7.9736a6.6859,6.6859,0,0,1,8.5323,5.4477c11.5657,56.7169,22.6427,151.6055,80.2238,168.8052,1.2448.397.6132,2.5528-.6135,2.2914a69.64,69.64,0,0,1-27.87-14.4409c22.9639,30.9645,55.9946,67.9279,90.901,70.8233,2.94.2975,2.6694,5.61-.2529,5.5468a136.8631,136.8631,0,0,1-68.5411-18.5355c16.2994,23.9384,36.5755,44.4225,59.8916,57.15,3.8154,2.11,2.0652,9.1374-2.1384,7.7206a165.8891,165.8891,0,0,1-68.279-44.2061h0c1.8936,3.7528,3.7878,7.5406,5.9528,11.2572,2.02,3.0119,4.05,6.1236,6.0249,9.2723,21.7467,31.9924,52.8737,53.0363,87.3923,57.7346,3.8435.5331,3.3648,6.7479-.3151,7.1351a107.3917,107.3917,0,0,1-35.9075-2.165c20.0508,16.6955,43.9975,29.423,65.9065,24.9388,2.76-.5677,3.59,4.1407.9026,5.0882-33.0574,11.428-61.1,1.4612-89.6025-17.94,34.0945,45.5863,76.668,78.5356,132.9786,78.0665,2.4347,0,3.617,2.8048,3.4183,5.3033,3.8434-.3426,5.9167,6.2059,2.0746,8.5417-32.5975,19.7175-67.8106,23.4158-102.4373,16.65,3.2918,3.2381,6.6474,6.431,10.0028,9.3536,31.298,27.61,66.0789,47.706,104.6469,54.4344a4.2065,4.2065,0,0,1,3.3193,3.8064c3.6983.1707,7.4508.3335,11.1491.4691,5.4477.207,6.0608,10.0482.739,11.5177a225.4884,225.4884,0,0,1-123.1282-.4776c2.8051,4.9155,5.7366,9.7054,8.6681,14.4944.6495.5958,1.2987,1.2544,1.9387,1.8945,22.1078,20.1414,49.6448,26.0127,72.9792,43.2587,2.056,1.56.3972,5.7-1.8759,4.6635-18.7975-8.4161-38.1356-14.0983-56.2476-24.029,7.6853,11.0936,15.7669,21.9184,24.48,32.4892,25.58,31.1364,63.6258,75.522,100.2815,81.8091a5.3023,5.3023,0,0,1,4.1859,5.3939,70.572,70.572,0,0,0,15.0985-7.4056c2.7238-1.8213,5.9167,2.2823,4.0234,5.3765-18.9417,31.7043-69.2,27.87-97.3777,24.7678a205.4743,205.4743,0,0,1-51.3949-13.3759c13.1874,12.3384,29.2242,20.9617,44.0347,29.3315,2.7236,1.5518,1.47,6.9007-1.5069,5.5658-6.1689-2.7155-12.2947-5.3488-18.4-8.1084a181.8315,181.8315,0,0,0,87.4823,40.6338,3.1179,3.1179,0,0,1,1.1371.4239c2.6784-.7759,5.3487-1.38,7.9736-2.3275,2.8134-.9827,3.9679,3.9234,1.6413,5.6016-62.5435,45.2613-148.1133,28.8633-208.6723-22.2066,8.1455,11.1213,17.075,21.2231,28.8993,25.8865a3.3413,3.3413,0,0,1,1.3356,4.1757c10.6068,3.9688,21.3137,8.1094,31.9924,13.1153,4.5008,2.1559,3.59,11.7614-1.7134,10.823-39.2087-7.1248-79.59-12.1667-114.425-36.1415a219.0644,219.0644,0,0,1-37.5392-33.3916,340.6832,340.6832,0,0,0,24.4428,42.1033c.7582,1.0733-.5413,2.5437-1.3522,1.5068-17.8592-23.3426-38.4965-48.0478-49.7352-77.6784.3058,8.7587.64,17.4176,1.317,25.9685,1.7853,23.46,1.1,51.1955,7.8287,74.4394A206.93,206.93,0,0,0,452.8752,840.4c.5229.9117-.036,2.5888-1.1185,2.0309-12.3572-6.2153-19.3747-15.19-27.8-27.8354-13.9891-20.9532-31.7044-37.2968-45.1438-59.0341-2.5881-4.1851-5.1955-8.7227-7.7114-13.5026a142.1387,142.1387,0,0,0,10.48,33.7613c.6494,1.4343-1.1721,2.5528-1.849,1.182a175.4265,175.4265,0,0,1-18.2471-54.4345c-21.5757,35.4928-48.8512,60.2526-77.1,88.7271-1.0556,1.0187-2.3091-.6947-1.4077-1.8675,2.2731-2.8955,4.3115-5.998,6.45-9.0191-4.3744,4.7982-8.8125,9.4525-13.3041,14.1878-1.1637,1.2535-2.6515-.4691-1.9848-2.0117a586.3579,586.3579,0,0,0,25.733-68.55c-62.6057,24.8141-145.4617,46.8489-196.3233-1.7586-2.4532-2.3266-1.7051-8.7133,2.1733-7.9737,5.3311.9828,10.9864,1.8491,16.8136,2.5889a113.76,113.76,0,0,0,44.2683-8.5056c-35.2851,1.7225-69.5515-5.8178-94.3915-32.8223a68.1846,68.1846,0,0,1-7.64-5.8178,1.8011,1.8011,0,0,1,.388-2.8954C64.9437,686.5872,64.7365,686.4162,64.5651,686.1631Z"/>
        <path d="M658.9218,378.0214c-33.0574,11.4279-61.1005,1.4612-89.6025-17.94a245.9168,245.9168,0,0,0,43.5387,45.8476,166.8323,166.8323,0,0,0,24.6688,16.2622c-4.9164-.9107-9.7054-1.9932-14.1793-3.021a173.0762,173.0762,0,0,1-41.9778-15.27c-13.0878-6.9992-40.246-29.495-51.6739-40.2829C537.1,392.561,564.34,432.88,561.7974,430.8591c-29.765-23.6855-39.2622-38.2981-54.371-65.7454-1.7946,38.226,2.3452,76.8307-2.3091,115.0834-.46,3.7157,1.6959,11.9518-.5772,9.1911-9.9937-12.1226-48.2011-111.2309-53.9111-122.4521-8.7854,27.5554-35.7635,77.8134-36.3945,75.4868-5.6645-21.9186-1.4251-45.6316.6495-68.5052-17.7323,16.9208-65.9162,37.35-62.29,33.5627,32.399-33.9866,63.8417-79.8436,70.0291-132.7174.4867-4.3566,9.6418,48.3555,11.7891,74.179,16.1-25.31,22.9908-93.6341,24.6331-90.1346,15.1353,32.3991,22.7477,68.7038,35.8273,102.1759,5.1954-25.7422-3.2927-87.735-.74-85.0563,8.5234,9.1457,15.55,19.7534,23.1081,30.0176a131.1311,131.1311,0,0,0,22.2051,22.6938c-9.2374-17.3086-23.7213-58.2316-22.4228-56.0306,12.321,21.44,33.03,36.3224,55.2372,46.1451a123.2121,123.2121,0,0,0,15.5409,10.364,113.5243,113.5243,0,0,0,40.5342,13.9078c3.8435.5331,3.3648,6.7479-.3151,7.1351a107.3917,107.3917,0,0,1-35.9075-2.165c20.0509,16.6955,43.9976,29.423,65.9066,24.9388C660.7793,372.3661,661.61,377.0747,658.9218,378.0214Z" opacity="0.5" style="isolation: isolate"/>
        <path d="M608.0323,262.6312c-.7861,0-1.5158-.1707-2.2906-.1707-1.1639-.4694-2.3276-.812-3.5-1.3717a3.6863,3.6863,0,0,1-1.8407.1719c-34.8521-5.0061-65.8895-31.3617-95.3383-54.0014,5.3571,8.84,12.7533,16.3443,18.8871,23.4608,2.4985,2.8948.2162,9.281-3.4008,8.587-22.08-4.4472-42.4746-22.5049-58.069-42.79,1.3892,10.3094,3.8516,20.3574,4.33,30.8841.216,4.4019-5.0421,6.3407-7.1711,3.2021-9.3267-14.0354-13.9172-30.7123-20.2948-46.5875-7.1433,16.7232-12.2573,34.067-22.54,48.8606-2.1825,3.1025-6.1513,1.9027-6.1964-2.4087-.1267-13.0693,1.3622-25.8778,2.417-38.8209-13.2774,7.1165-25.2186,18.1206-35.3664,30.4961-2.976,3.6613-7.3058-2.1556-4.3568-5.827,21.17-25.7064,31.2628-60.1713,47.0386-90.4053a2.9778,2.9778,0,0,1,5.6462,1.2092,191.6147,191.6147,0,0,0,3.798,24.8038c6.8551-12.8079,9.0736-26.229,9.8052-42.023.18-3.5715,3.9781-5.25,5.9167-2.6249,7.766,10.6521,13.2864,23.2171,20.4483,34.2932-2.3366-25.3637-7.9018-50.0328-9.7322-75.5311a530.47,530.47,0,0,1-1.3173-53.343,5.492,5.492,0,0,1,1.597,3.49c.3058,2.67.4324,5.3035.6135,7.9737a5.9764,5.9764,0,0,1,4.3475.262,7.0735,7.0735,0,0,1,4.1847,5.1863c11.5614,56.7161,22.6384,151.6047,80.2195,168.8044,1.2448.397.6132,2.5528-.6135,2.2914a69.64,69.64,0,0,1-27.87-14.4409c12.4014,16.678,27.7356,35.1052,44.7107,49.0408,14.3412,11.7345,29.846,20.2578,45.712,21.7286.1708,0,.3058.0544.4783.0544a2.0712,2.0712,0,0,1,1.6229,1.0733C610.864,259.79,610.1879,262.6312,608.0323,262.6312Z" opacity="0.6" style="isolation: isolate"/>
        <path d="M236.22,595.93c14.2164-3.978,27.7363-6.9909,40.8962-10.9589,13.6923-13.458,29.2059-23.47,43.0056-36.8821,14.378-13.9356,23.2791-34.6359,37.7845-47.5342,2.6334-2.3266,6.6289-.7759,6.4487,3.6714a91.2012,91.2012,0,0,1-2.0023,17.5166c-1.4343,7.9728-6.8643,32.6416,5.8089,13.3211,5.7459-8.757,9.2373-18.8871,16.3434-26.2742,1.6959-1.7225,3.8063-1.0281,4.9434,1.0464,6.9272,12.8891,2.38,26.9958.55,41.1484,8.6674-15.4062,12.6269-33.8239,22.0534-48.9235a2.881,2.881,0,0,1,5.3662.3058c8.2258,18.2472,6.5753,39.1635,5.2767,59.6115,6.0073-18.4178,9.8681-37.5674,15.4328-56.4184a2.8255,2.8255,0,0,1,5.4753-.5588c10.4444,24.371,13.4028,51.7635,20.7095,77.47,2.236-27.8249.64-55.5162.1616-83.5046-.036-3.1479,3.8968-5.0061,5.4486-2.4172a656.66,656.66,0,0,1,56.3634,124.1747A722.4351,722.4351,0,0,0,514.137,513.4083c-.6769-3.6168,3.265-6.1245,5.2944-3.3631,16.3347,22.3056,31.2718,45.1606,50.6375,63.8861,15.0089,14.4862,30.6033,28.2057,46.1082,42.0507-8.6672-13.2049-18.03-25.49-25.1373-40.4989-11.3476-24.029-26.41-46.5423-35.1589-72.1672-.7307-2.1559,1.2448-5.1771,3.0573-3.4,17.254,17.21,33.0028,36.2318,51.7283,51.1512,1.8934,1.5054,3.95,2.841,5.9528,4.2745,1.37,2.2823,2.7061,4.618,4.1313,6.9007.6494.5958,1.2987,1.2544,1.9387,1.8945.9475.8211,1.9217,1.5068,2.8772,2.3366,21.5847,18.1917,47.7683,24.36,70.1018,40.9205,2.056,1.56.3972,5.7-1.8759,4.6634-18.7975-8.4161-38.1356-14.0982-56.2477-24.029,7.6854,11.0936,15.7669,21.9184,24.48,32.4893,21.2148,25.8688,51.0339,60.7209,81.5206,75.4684a69.3239,69.3239,0,0,0,18.7607,6.3406,7.7881,7.7881,0,0,1,1.101.4425c-40.995,11.9415-88.8266-4.2394-123.9409-25.8779a243.079,243.079,0,0,1-45.712-36.4942c-5.3394-5.3939-10.3547-11.1214-15.3247-16.9927a91.5041,91.5041,0,0,1-8.5325-11.3107l-2.3718,9.019a124.5213,124.5213,0,0,0,5.2221,17.3819,309.3487,309.3487,0,0,0,24.3894,54.6146c11.7531,19.87,27.1138,36.0518,39.38,55.4617,2.4172,3.8435-1.66,8.1907-4.5641,5.0061-26.7354-28.9445-62.6338-40.5981-93.7607-60.91A164.7091,164.7091,0,0,1,480.06,623.9185c3.7434,25.796,14.1249,49.9958,17.4631,76,.5228,3.8782-3.5,6.99-5.7912,3.7065-12.0866-17.1287-19.2658-37.4409-27.4741-57.5372-7.7926-19.1125-14.4224-43.0423-26.0674-59.5662-8.9472,26.9606-11.5452,59.3954-30.6385,79.0584a3.3091,3.3091,0,0,1-5.71-2.201c-2.6157-17.85,6.1336-48.6075-1.7771-65.3842-7.2246,18.4633-16.6326,38.0459-33.5359,43.7372a3.5348,3.5348,0,0,1-4.1235-2.8262,3.4976,3.4976,0,0,1-.0521-.4118c-1.3891-17.1645,5.7912-31.2718,10.3363-46.7051a121.7837,121.7837,0,0,1-21.4762,20.9986c-2.2185,1.6053-4.0492-1.3356-3.6168-3.7526a118.9235,118.9235,0,0,1,7.6762-25.7516c6.5577-16.7767,3.942-12.384-5.89-3.0573-12.6454,11.9507-24.1731,21.5212-40.4436,23.3344a1.6938,1.6938,0,0,1-1.4972-2.6249c7.1071-10.6162,14.1424-20.7549,19.4468-32.49-26.8247,21.8281-57.925,35.6278-90.3968,31.2718a2.0091,2.0091,0,0,1-.273-3.7884Z" opacity="0.4" style="isolation: isolate"/>
        <path d="M533.2407,428.7393c2.9226,2.8957,5.8808,5.7,8.8391,8.5056A264.1614,264.1614,0,0,0,566.4509,455.14a208.7244,208.7244,0,0,1-28.1243-24.281c-.3058-.3058.1627-.9561.4693-.6495,13.3767,12.2133,28.2324,20.4926,43.07,29.7113,15.622,9.7054,28.1871,23.9124,42.7988,35.683a173.8846,173.8846,0,0,0,50.7808,27.6449c8.28,3.0137,17.3364,4.618,26.0307,7.0361a226.888,226.888,0,0,0,26.0674,3.5356c.8654.036.9561,1.5869.135,1.8037-3.1117.82-6.2328,1.29-9.3628,1.8125a2.1975,2.1975,0,0,1-1.47,3.229,141.5751,141.5751,0,0,1-25.9593-1.7225c-61.5512-3.4009-124.0934-50.5472-159.7218-107.263C530.1734,430.038,531.7612,427.2329,533.2407,428.7393Z" opacity="0.4" style="isolation: isolate"/>
        <path d="M64.5651,686.1631c-.74-1.0371-.1625-3.2021,1.1355-2.94,5.6019,1.1629,11.1214,2.4625,16.678,3.833a136.6274,136.6274,0,0,0,54.9841-12.33,123.2194,123.2194,0,0,0,20.2319-11.816c5.9076-4.3115,12.51-9.1817,19.2828-14.5757a163.1679,163.1679,0,0,1-68.4506,1.1186c-1.55-.3426-2.129-3.3648-.2162-3.7517,11.5362-2.2914,23.0362-4.655,34.4642-7.3788-13.9356-1.8944-26.8341-7.1526-36.7557-17.5526a59.47,59.47,0,0,1-8.5139-11.4732,1.7964,1.7964,0,0,1,1.7855-2.6332,151.1814,151.1814,0,0,0,40.7242,4.4822,147.8734,147.8734,0,0,0,19.51-8.5777c27.2394-13.98,54.9307-36.3676,70.6609-54.0014,3.373-3.7969,6.53-7.7657,9.57-11.8243-25.2277-3.7074-54.0641-12.98-69.0822-35.0237-.7573-1.1092-1.6413-2.11-2.3266-3.2741-2.5891-4.4473.18-12.1227,5.2673-9.7961,2.8142,1.2544,5.6822,2.4181,8.5593,3.5006,2.6424.423,5.2411.7748,7.8295.9467,21.1334-.6041,44.2055-7.37,64.5723-18.1927-2.0383-.1358-3.9688-.4424-5.9167-.74a50.6391,50.6391,0,0,1-15.5141-5.6559,35.5033,35.5033,0,0,1-3.8063-2.2463,26.0932,26.0932,0,0,1-10.9587-6.2058c-.8571-.7748-.5957-2.8409.64-2.7145-.2522-.2974-.5774-.5145-.8571-.8211-.7668-.9467-.0452-2.8051,1.0825-2.6692a81.8755,81.8755,0,0,0,27.0861-.6947A110.8525,110.8525,0,0,0,273.1457,433.79c-1.01.1267-2.0385.2079-3.0573.3058-21.187,2.3183-42.3378.9826-58.0958-8.1176-1.0373.1348-2.1464.3427-3.157.3878a2.93,2.93,0,0,1-3.0849-1.8583,6.7119,6.7119,0,0,1-.6308-3.3631c-1.281-1.065-2.6155-2.1115-3.7887-3.2743-1.3345-1.3717-.7759-3.8435,1.0557-3.9236,4.5093-.2621,9.6058-.4239,14.8824-.5958A204.56,204.56,0,0,0,260.6174,390.44c11.23-7.4685,22.1892-15.6577,32.9771-23.8469,18.3726-13.9,30.7844-30.027,41.4993-48.129a153.9379,153.9379,0,0,1-71.22-3.5089,82.5065,82.5065,0,0,1-8.6228-3.1477,2.1276,2.1276,0,0,1-.74-3.1034c.0452-.0812.0452-.171.1081-.2522a2.0755,2.0755,0,0,1,.7942-.5678h.09c.145-.0729.262-.2079.4064-.2079.2437,0,.4773-.0543.7206-.0543,21.476-3.49,42.5641-25.02,59.8461-39.5062,5.1048-4.302,9.8489-8.93,14.4676-13.5831-31.3154,21.0161-68.5142,35.5465-89.8,14.1509-.9023-.9107-.9023-3.0757.4868-3.2836,2.6517-.5134,5.141-1.3345,7.7305-1.9385.28.18.532.3878.7934.5588a52.7979,52.7979,0,0,0,8.6681-.6494c18.2924-3.0136,37.36-11.2109,54.1-20.3214,35.5382-19.3112,57.1058-52.7925,82.5847-86.599,1.4252-1.8575,4.3209.3518,3.4554,2.67a205.6584,205.6584,0,0,1-31.7052,54.9484,169.3926,169.3926,0,0,1-22.2058,37.0085c2.0652-1.4168,4.1664-2.842,6.1421-4.3474,11.7531-8.93,23.0278-21.1428,35.6907-27.7817,2.39-1.2987,4.2939,2.1113,2.5076,4.4021-4.6449,6.034-9.5431,11.7345-14.5221,17.1285-19.8441,23.1985-40.4989,43.0423-64.455,56.96a143.0686,143.0686,0,0,0,17.7142-2.1919c33.4278-6.5937,61.8846-20.9531,85.5348-51.0153,1.4334-1.8222,4.0131.848,2.7146,2.8411a305.1106,305.1106,0,0,1-19.2659,27.3929C370.0292,321.5575,335.87,362.498,296.4358,388.6374a355.3331,355.3331,0,0,0,85.8314-64.7884c2.2914-2.3367,4.88,1.416,2.9767,4.0131-8.5325,11.8077-16.217,22.7212-24.8676,32.6973-25.2009,35.9169-55.8774,71.8152-90.964,91.1264h.0361c24.8951-4.9154,56.7879-25.1475,75.6761-45.0719,1.4786-1.55,3.9863.7861,2.6518,2.7155a155.1752,155.1752,0,0,1-17.4445,21.0152c-6.7193,9.1013-12.7359,18.0217-21.7734,25.8329A184.3856,184.3856,0,0,1,270.1238,481.28c45.7212-9.958,93.0929-44.3052,125.764-84.3158,2.7413-3.3288,6.1513,1.2884,4.6809,4.87a95.9676,95.9676,0,0,1-16.2993,25.5354c-6.1782,11.2478-11.8879,22.5945-17.9219,33.6346a1.21,1.21,0,0,1,.4868,1.6053c-3.9236,6.8552-7.8741,13.6651-12.0763,20.2219,11.3836-11.6,22.2964-23.9384,33.0491-36.36a147.8021,147.8021,0,0,0,7.3058-16.01c.5051-1.37,2.5972-1.2447,2.3367.5242-3.5264,23.56-13.0424,48.5171-26.8424,66.0336-2.2823,2.9315-6.2869-.5145-5.1952-4.0955a128.3218,128.3218,0,0,1,9.9122-23.46,273.1157,273.1157,0,0,1-35.8809,42.9161,162.6559,162.6559,0,0,1-20.4389,16.046c-9.8309,10.9043-19.8975,21.5214-30.4139,32.0018-18.5445,18.4549-41.2388,29.4592-63.4907,39.5522a257.6078,257.6078,0,0,1-68.0442,20.7446c37.91,5.0882,79.608,7.027,112.9543-15.649,1.7586-1.2172,4.1665,1.6413,2.7413,3.7074a59.7228,59.7228,0,0,1-16.3794,16.217,241.19,241.19,0,0,1-89.0521,56.717c-9.119,3.238-18.6525,6.4755-28.4394,9.3175,53.6136-5.782,111.3854-4.0955,152.1-52.36,1.3613-1.6054,3.6973.7306,2.48,2.5888-3.68,5.6462-7.595,12.8894-11.9056,19.5817a1.7632,1.7632,0,0,1-.145.9026c-20.4747,36.4473-44.476,60.4316-74.3578,73.8444,6.7479.0454,13.4757-.0544,20.1782-.4876,19.9973-1.1546,40.5709-5.682,58.854-15.9462,15.361-8.5777,25.0209-26.9154,35.1772-42.411a1.0209,1.0209,0,0,1,1.8759.74,79.8968,79.8968,0,0,1-1.5518,10.4444.7206.7206,0,0,1,.1358.6853c-5.8538,19.9336-9.8226,46.02-17.0566,69.488,3.9328-4.88,7.8658-9.7056,11.7079-14.7569,20.9257-27.3927,31.5325-61.5058,44.2508-94.41.216-.5229.9744-.82,1.1906-.1348.1894.6132.2706,1.1721.397,1.7769.352-.3878.9736-.3057.92.3881-.0906.9467-.0906,1.9294-.1441,2.8769a50.2373,50.2373,0,0,1,.4322,11.8252c2.0386,15.4328,9.0295,30.6671,14.197,44.1245,6.2779,16.3434,12.8985,32.6065,20.5295,48.093a255.6871,255.6871,0,0,0,30.7935,47.6248,198.6828,198.6828,0,0,1-7.3244-49.9968c-.5586-36.4489-1.66-83.3332,14.6848-115.5072.7028-1.38,2.2185-.2621,1.9571,1.1185-.3343,1.8582-.56,3.7527-.8663,5.611.9115-.262,1.9218.2068,1.777,1.6772-2.2011,22.5584,12.7452,47.6691,21.6109,66.5573A146.1341,146.1341,0,0,0,504.02,767.4652a221.481,221.481,0,0,0,59.7525,32.3461c-28.0247-25.2729-48.5715-61.2444-57.3561-105.7566-.3435-1.7769,1.7134-2.5889,2.3986-1.0825,2.941,6.3329,6.0886,12.7183,9.3988,19.059,1.0825-2.2369,3.373-3.5356,5.6285-1.7586,38.8477,30.838,77.0283,57.7986,122.4521,73.0234,24.9213,8.3524,51.07,7.802,76.5776,3.3194,5.1954-.92,10.6254-2.4985,16.1274-4.0594,3.1746.74,6.314,1.38,9.4523,1.949a3.1177,3.1177,0,0,1,1.1371.4238c2.6784-.7758,5.3487-1.38,7.9736-2.3274,2.8134-.9828,3.9679,3.9233,1.6413,5.6016-2.8411,2.0746-5.782,3.8332-8.7132,5.7-59.7372,36.6657-137.1184,21.7024-194.4477-23.5947.5774.7388,1.1355,1.4695,1.6959,2.11A113.8632,113.8632,0,0,0,577.23,790.7014c.7582.352,1.4251.8746,2.2011,1.1814.4238.1528.5678.6317.8211.9827,3.9142,2.769,7.9376,5.3044,12.0326,7.6762,6.8191,2.6341,13.629,5.4391,20.475,8.632a4.8911,4.8911,0,0,1,2.3367,2.6787c1.4519,3.5263-.037,8.8391-4.05,8.1444-33.3372-6.034-67.4586-10.6973-98.3427-26.6623a144.5954,144.5954,0,0,1-16.0823-9.4791,219.0559,219.0559,0,0,1-37.5392-33.3916,340.6832,340.6832,0,0,0,24.4428,42.1033c.7582,1.0733-.5413,2.5437-1.3522,1.5068-17.0844-22.3331-36.6476-46.0277-48.1475-74.0247.1441,10.2638.2522,20.3747.2345,30.2515.5044,9.2281.8562,18.9694,1.4972,28.6731a183.0611,183.0611,0,0,0,5.8263,37.8288,206.9457,206.9457,0,0,0,11.293,23.5957c.5228.9118-.036,2.5889-1.1185,2.0309-12.3572-6.2152-19.3748-15.19-27.8-27.8353-10.1921-15.262-22.3147-28.07-33.3548-42.3481A194.4223,194.4223,0,0,1,378.814,755.56c-2.588-4.185-5.1954-8.7226-7.7114-13.5025a142.1457,142.1457,0,0,0,10.48,33.7612c.6495,1.4343-1.172,2.5529-1.849,1.1821a175.4271,175.4271,0,0,1-18.247-54.4345c-21.5758,35.4928-48.8512,60.2525-77.1,88.7271-1.0556,1.0187-2.3091-.6947-1.4077-1.8676,2.0309-2.58,3.8793-5.3847,5.8089-8.0723-1.8853,1.9571-3.7343,3.9234-5.6287,5.7457-2.3635,2.5068-4.6818,4.9607-7.0353,7.4952a.9694.9694,0,0,1-1.3564.1988l-.0244-.0187a1.7291,1.7291,0,0,1-.604-2.1918,592.0452,592.0452,0,0,0,23.74-62.3712c.6494-2.0747,1.3539-4.1056,1.9931-6.179-62.6057,24.814-145.4617,46.8488-196.3233-1.7586-2.4532-2.3266-1.7051-8.7133,2.1733-7.9737,5.0336.9475,10.4092,1.7225,15.9021,2.453a3.9771,3.9771,0,0,1,2.8048-1.55c7.6311-.6493,15.2712-.9024,22.9466-.9024a120.6148,120.6148,0,0,0,19.4284-5.9168c-32.9751,1.597-64.96-5.0881-89.3042-27.9886-1.7049-1.6051-3.446-3.0573-5.0882-4.8343a68.1846,68.1846,0,0,1-7.64-5.8178,1.8011,1.8011,0,0,1,.388-2.8954C64.9437,686.5872,64.7365,686.4162,64.5651,686.1631Z" opacity="0.4" style="isolation: isolate"/>
        <path d="M550.8737,394.1128c5.8272,4.7085,11.176,9.57,16.4341,14.4047,20.1867,12.9789,42.1033,20.6642,64.4828,26.9957,33.1386,9.3175,65.8257,6.35,99.4428,8.4964.7757.0453.9734,1.3357.2789,1.8126a81.9568,81.9568,0,0,1-28.637,11.3024c-52.2695,30.1525-133.9532,10.2637-152.867-62.2909C549.8724,394.2829,550.4859,393.8154,550.8737,394.1128Z" opacity="0.5" style="isolation: isolate"/>
      </g>
    </g>
  </g>
</svg>
