<svg id="Calque_1" data-name="Calque 1" xmlns="http://www.w3.org/2000/svg" width="30cm" height="33.4cm" viewBox="0 0 850.3937 946.7717">
  <g>
    <path d="M426.4919,291.4553s12.9364,12.854,22.6419,15.9045c9.7,3.0529,24.9569,3.6616,24.9569,3.6616s-6.1035-5.5288-6.1035-9.7823-9.66-24.3457-18.8534-25.18Z"/>
    <path d="M450.6329,273.1628l19.7606-13.5952s11.7406-5.4306,16.3309,0,14.795,5.0584,16.8426,4.2237C503.5671,263.7913,471.6962,284.3884,450.6329,273.1628Z"/>
    <path d="M378.5389,296.3833s-6.8047,11.9893-14.2875,18.1129l-7.4827,6.1242s4.6814-2.0392,17.3929-3.06c12.7149-1.0212,29.0142-6.63,32.09-21.1753Z"/>
    <path d="M415.0145,296.1844l6.0538-2.6436,11.4689,9.5235s-.2448,31.7969,2.3079,45.0845,25.0068,109.629,32.1467,153.2933c7.15,43.6628,11.3765,106.6171,9.7725,161.67C475.16,718.16,467.68,911.7872,467.68,911.7872h-9.5351s5.4451-134.1453,6.1275-153.7639,4.767-185.4047-.6767-213.2512C458.1453,516.9313,413.3834,307.6589,415.0145,296.1844Z"/>
    <path d="M461.4231,494.2864s45.4317-39.41,81.097-68.5445c32.48-26.534,61.2336-47.9446,74.84-53.9273,0,0-65.2668,51.7515-79.5554,61.9563s-59.96,43.044-70.1242,87.94Z"/>
    <path d="M503.1234,453.2741s-31.37,2.5855-38.168-23.6116c-6.8045-26.1927-2.0422-28.5733,0-40.1433l2.0362-11.5671s8.8568-1.6992,22.7986,6.1265C503.7379,391.9012,530.4556,419.5887,503.1234,453.2741Z"/>
    <path d="M510.2052,458.4975s-7.8265,32.4044,9.1866,49.4149c17.0024,17.0106,42.8607,10.1762,48.3044,10.8731l5.4435.691s2.0422-5.782,3.4018-11.5633,5.7789-37.252-18.0318-49.4149S519.54,449.3835,510.2052,458.4975Z"/>
    <path d="M534.1414,432.2932s-21.0352-67.2774,79.8223-65.7443c0,0,1.0172,1.4775,5.6142-.027,0,0-2.0476,44.4223-23.987,60.7515C573.6452,443.6029,558.5942,447.6843,534.1414,432.2932Z"/>
    <path d="M400.1227,586.9758c-4.3388-.7964-12.8712-13.53-10.2957-29.1747,2.5769-15.6486,8.1529-23.6831,24.8846-28.76,0,0,0,1.2684,9.8679-4.653,0,0,15.8785,28.7566,9.4394,43.9839C427.5826,583.5942,420.721,590.7869,400.1227,586.9758Z"/>
    <path d="M393.5472,587.9853s-29.8931,5.0173-31.6921,34.8063c-1.7916,29.795,11.9711,29.2034,13.4712,35.3958,0,0,10.7707-1.1746,15.5573-6.78C395.6774,645.7948,414.4641,621.9072,393.5472,587.9853Z"/>
    <path d="M271.3246,528.9532c2.3905-.3322,5.8034-1.0038,15.024-6.058,9.2206-5.0482,33.2135-13.6659,51.5623-3.0289,13.6331,7.91,25.1275,24.2288,25.4688,48.7991,0,0-16.3421,21.2114-37.2933,19.1923s-38.3728-16.3679-43.835-31.237C276.7867,541.7461,271.3246,528.9532,271.3246,528.9532Z"/>
    <path d="M467.538,628.0048s-42.5649-26.2709-77.47-45.25c-31.7974-17.2862-59.6611-30.8841-72.3031-33.9218,0,0,63.6781,33.4493,77.4677,39.8513,13.7955,6.4051,57.9018,27.0479,72.6869,62.4047Z"/>
    <path d="M469.4662,377.7973s28.3559,53.8561,33.6574,75.4768c0,0-29.9316,1.55-37.6219-21.7544s-3.9237-24.4408.4835-47.8562l1.0066-5.7113Z"/>
    <path d="M530.9445,425.53s-10.2216-36.2086,32.9975-51.9437a131.1346,131.1346,0,0,1,55.6369-7.0646,470.5142,470.5142,0,0,0-85.4369,65.7713Z"/>
    <path d="M510.2052,458.4975a29.119,29.119,0,0,1,25.3638-7.7019s28.555,1.5144,38.2535,24.0681c0,0,9.1805,19.5815-.6828,44.6133C573.14,519.4766,539.1242,467.5715,510.2052,458.4975Z"/>
    <path d="M424.58,524.3884s-11.0979,4.7553-19.5464,8.5777c0,0-14.2178,5.6969-15.3512,25.8389,0,0-3.161,17.42,8.703,27.3715C398.3849,586.1765,422.1248,548.074,424.58,524.3884Z"/>
    <path d="M392.8405,587.5475s-25.8089,7.0535-29.85,27.7727c0,0-5.5189,26.0777,5.8958,35.77,0,0,6.752,5.5658,6.44,7.096C375.3263,658.1867,364.78,618.1352,392.8405,587.5475Z"/>
    <path d="M271.3246,528.9532a62.8727,62.8727,0,0,0,15.9993-6.567c6.2814-4.13,31.88-13.595,50.587-2.52s27.1334,33.077,25.4688,48.7991C363.38,568.6654,310.1589,530.1363,271.3246,528.9532Z"/>
    <path d="M493.69,227.57s22.457,0,11.74,14.2891-50.5224,38.27-61.2406,47.9686c-10.3852,9.3954-28.4325,14.478-49.0452,12.9293-.657-.05-1.32-.11-1.9852-.1723-21.4333-2.0432-20.9214-1.1474-38.7823.4453s-50.0094,6.7-67.87-18.8167-16.3294-38.2732-16.84-50.0094c0,0-19.4252-18.6031-30.2771-41.8452,0,0-7.4842-19.9016-8.5051-28.0676s9.1836-33.1678,28.5776-42.8634c0,0-9.697-32.1511,27.0445-56.1351s67.871-29.0869,90.8336-25.004l22.4541,8.676s20.4123-18.8808,47.4574-12.7589A33.5091,33.5091,0,0,1,463.071,46.4122s21.9452,0,30.62,14.2885,32.15-1.0208,30.1076,78.5871c0,0-1.5246,42.8651-11.7348,58.6852C501.8584,213.792,493.69,227.57,493.69,227.57Z"/>
    <path d="M395.8827,278.09s30.2756-15.9881,41.5026-21.09,30.9623-20.4138,42.1925-23.8166c0,0,12.9235-4.7625,19.3911-2.0407,0,0,12.2463,5.2816-11.2287,23.0528-23.48,17.7706-53.1266,43.2761-61.2747,45.3307s-45.8954,2.3806-41.1316-6.4661S388.4765,281.9769,395.8827,278.09Z"/>
    <path d="M272.7286,234.2041s23.8136,14.968,61.9161,9.1853c0,0,40.14,2.6591,44.5658,1.3286a76.6551,76.6551,0,0,0,11.2258-5.0708S340.09,241.3434,307.09,199.8437c0,0-4.4252-10.5461-19.3926-15.65,0,0,.3384-14.63-11.2255-19.3926,0,0-12.9294-24.835-13.2692-39.8034a44.5125,44.5125,0,0,0-26.1958,28.5777s-7.689,21.9408,11.2272,50.0094S268.7183,232.1,272.7286,234.2041Z"/>
    <path d="M317.6342,245.0915s42.99,32.87,57.3614,35.9964c18.3344,3.99,10.937,10.9628,8.2122,13.0032s-56.3888,11.9014-83.2641-6.8115c0,0-27.0049-24.2645-18.8395-49.0975C281.1042,238.1819,307.4808,245.9576,317.6342,245.0915Z"/>
    <path d="M342.47,261.0881s.5647-.2119,1.5942-.6072c7.834-3.0021,38.394-17.9591,57.7625-27.7147,23.9927-12.0846,33.5177-11.4832,39.6411-18.6275s25.52-14.61,26.88-39.1065-6.47-36.74-3.7456-57.1524S459.501,83.1859,453.3763,79.103s17.3461-.6783,25.8542,10.2048c8.51,10.8872,25.1819,33.684,28.9187,40.1445a29.7424,29.7424,0,0,1,0,26.8753c-4.7611,9.1851-24.4991,21.7731-30.9607,30.96s-18.032,31.2937-26.5357,40.139-26.1971,25.514-45.9266,30.2783S347.9125,262.085,342.47,261.0881Z"/>
    <path d="M484.5662,179.43s4.7042,43.5516,1.6438,50.8724a202.0837,202.0837,0,0,0-30.1475,15.6811c-14.2518,9.4809-52.0272,27.3148-58.8317,31.3989a25.1941,25.1941,0,0,0-9.3457,9.2333S346.213,269.9277,342.47,261.0881c0,0,34.3894,2.3264,45.955.6257s39.169-3.1555,72.1268-47.63C460.552,214.0837,477.7063,185.0439,484.5662,179.43Z"/>
    <path d="M402.6019,74.4791s37.363-11.3636,49.1149,2.9537,19.077,23.0968,2.062,66.9846C453.7788,144.4174,425.517,82.9845,402.6019,74.4791Z"/>
    <path d="M322.3967,101.21s7.4072-29.6142,45.1487-32.8631c31.14-2.6791,62.7437,10.5558,83.7888,70.9491,0,0-2.3791,13.9632-9.5235,13.9632,0,0-3.0658-3.0632-4.4254-12.2468s-27.5209-33.9065-48.96-37.7029C360.6072,98.3839,322.3967,101.21,322.3967,101.21Z"/>
    <path d="M297.8986,125.68s-.6753-20.8371,24.4981-25.1749c27.2847-4.7011,66.0286,2.8043,66.0286,2.8043l-9.5546,8.3177s-43.5477-3.8362-56.474,29.5031c0,0-16.3282-3.7411-17.6875,12.5883s5.1,41.1628,31.9779,56.1326c0,0-8.9819,10.5829-14.29,6.7931-7.5685-5.4036-17.1063-22.269-28.2849-29.1593l-6.4148-2.8354L283.03,170.8872s-1.1163-9.6926,10.11-25.3422A95.7794,95.7794,0,0,0,297.8986,125.68Z"/>
    <path d="M357.1,209.0552h42.5224c13.6117,0,19.3936-3.0588,23.1352-7.4842,6.8045-8.05,20.7791-8.1654,20.7791-8.1654l-14.0813,27.7826a57.4987,57.4987,0,0,0-12.3873,4.66c-6.0084,3.19-28.6432,13.8708-28.6432,13.8708s-29.6246-.7538-43.6669-9.417c-11.4689-7.0731-19.3855-11.7034-19.3855-11.7034l11.3142-9.2036Z"/>
    <path d="M453.7788,144.4174A78.9043,78.9043,0,0,1,457.18,163.47c0,8.1657-8.0032,26.5541-10.9838,30.9582s-13.7626,25.449-13.7626,25.449,24.8246-13.8849,30.052-23.4112,11.0792-21.096,5.475-50.1017c0,0-5.2033-19.2491-1.1889-32.5409a71.8241,71.8241,0,0,0-2.8186-15.6738c-2.187-6.0522,0-1.3594,0-1.3594S465.347,122.6413,453.7788,144.4174Z"/>
    <path d="M322.3967,141.4921s-11.5633,37.6317,11.9094,50.22c0,0,1.36,18.14,2.3808,18.14s-7.1189-1.072-20.9741-18.6587C301.2209,172.7943,297.3084,134.521,322.3967,141.4921Z"/>
    <path d="M334.3061,191.7118s6.1207-2.0421,18.3687,3.0617,23.4784,4.424,34.0228,2.0422a26.28,26.28,0,0,0,19.0484-15.6469c2.3861-6.1277,4.087-8.51,10.549-8.17s16.3248-5.1007,18.0286-10.5444a20.124,20.124,0,0,1,7.4871-9.1936l5.7281-3.7575,3.7953-10.2048s5.9287,7.8242,3.1871,30.2743a35.722,35.722,0,0,1-3.1871,11.0491l-7.797,12.7845s-14.1125,1.2969-20.7792,8.1653c-8.8465,9.118-12.3474,7.3221-19.61,7.4045s-60.5986,2.2072-67.4053,1.1862"/>
    <path d="M322.3967,140.6752s1.0237,33.6953,25.8571,40.4945c0,0,23.4341,4.7611,32.6389,8.1624l13.056,4.808s-20.18,9.2777-39.9938,1.1433c-15.8277-6.496-19.6488-3.5708-19.6488-3.5708S311.5961,184.418,322.3967,140.6752Z"/>
    <path d="M379.4974,111.08c2.0619,1.837,36.1144.6512,33.0556,36.117,0,0-8.5011,31.4174-31.6607,42.1342a51.67,51.67,0,0,1,9.5436,3.7557c5.7862,2.8441,14.5447-9.0722,15.31-11.9182.7409-2.75,1.91-9.2718,11.75-8.1713.33.0355,2.5119-.4065,2.8694-.4237,7.95-.4036,9.8762-2.6662,13.9576-10.1193s7.4872-9.1936,7.4872-9.1936a20.1551,20.1551,0,0,1-4.4255-12.2467s-4.9515-17.6734-36.8212-33.7054l-12.1388-3.999-9.5546,8.3177"/>
    <path d="M336.92,174.6188c1.4846.7026,12.099,1.6268,7.2511-6.0081s-6.2116-32.1286,6.4617-34.9356c0,0,28.94-12.28,39.8035,20.5173,0,0,3.114,2.5809,4.1935-.9315a20.5027,20.5027,0,0,0,0-11.7688c-1.2145-3.99,2.1017-11.1349,5.9284-6.0323s6.1242,11.7373,7.4006,11.7373a43.1036,43.1036,0,0,0,4.64-.5956s4.569-23.8948-17.824-31.8029-38.3244-3.2109-47.7626,1.8913-18.0118,8.6154-24.6156,24.8022C322.3967,141.4921,325.2037,169.057,336.92,174.6188Z"/>
    <path d="M361.5215,177.0488c7.6536-.509,10.9725.4966,12.7587-2.43s13.9117-6.7534,20.35-8.0291a32.5256,32.5256,0,0,0,12.5655-6.3806c1.1019-.7652-7.1857,27.0815-26.303,29.1222,0,0-26.8342-5.5718-32.6389-9.9842C342.4459,174.9317,353.8681,177.56,361.5215,177.0488Z"/>
    <path d="M359.9913,175.2389s-1.52-8.3376,4.6473-11.9312a28.7554,28.7554,0,0,1,15.5873-3.8565c5.1051.2545,12.05,2.908,14.4039-.4622,2.3579-3.37,8.228-9.097,10.7792-9.8066,0,0,5.1249-2.82,4.8392,2.8626a16.3452,16.3452,0,0,1-7.1,9.8166c-6.1261,4.1105-17.0561,3.7783-20.7038,6.7491a80.5824,80.5824,0,0,1-10.718,6.6282Z"/>
    <path d="M359.9913,175.2389s-21.2666-7.119-9.3585-23.7029,27.7288-4.3389,32.575,7.9079C383.2078,159.4439,355.9071,158.1173,359.9913,175.2389Z"/>
    <path d="M403.1478,51.6325s38.14,13.3628,46.43,23.3571-9.1995-13.3072-44.6925.0207l-3.0588-1.47s-47.7925-22.9361-76.454,20.4408l-2.9761,7.23s-20.58,2.4645-23.6417,19.3044-.512,15.87-5.6146,25.03-10.11,25.3422-10.11,25.3422-8.9989-6.0038-16.6608-29.0848-16.6969-56.4966,27.4928-79.9691C338.0463,38.3562,365.1335,29.2621,403.1478,51.6325Z"/>
    <path d="M366.0493,162.4574s-5.8915-12.57-13.6305-9.1967a10.2028,10.2028,0,0,0-5.3183,9.1967s.3882,9.3557,12.8908,12.7815C359.9913,175.2389,357.2283,167.1728,366.0493,162.4574Z"/>
  </g>
</svg>
