<svg id="Calque_1" data-name="Calque 1" xmlns="http://www.w3.org/2000/svg" width="30cm" height="33.4cm" viewBox="0 0 850.3937 946.7717">
  <g>
    <g>
      <path d="M724.5829,306.7609l-74.34,38.9524-7.57-47.7921L527.223,400.0737l38.976-192.4451-46.1581,17.4591-1.2094-82.5985L473.6954,163.22,425.239,69.7078l-48.4608,93.517-45.2363-20.7314-1.1177,82.5909-46.143-17.4564L323.1773,400.07,207.8028,297.9164l-7.5667,47.7961-74.3143-38.9356,5.0711,58.8865L22.9166,356.9161l60.1925,85.8387L42.4269,471.962l70.7905,43.8387L84.3509,546.55,220.99,590.6853l-55.1616,10.2139,18.6886,33.3649-54.9819,48.1966,77.1787,17.6954-5.3477,38.5117,213.583-65.2369c.6047,8.95,1.2977,17.1509,2.089,24.4545,4.9107,45.3633,37.8189,173.7355,39.2165,179.1784l15.8932-4.0856c-.3406-1.322-34.0174-132.6654-38.8-176.8606-.772-7.1283-1.4483-15.1689-2.0369-23.9758L649.1445,738.678,643.6891,700.15l77.14-17.6879-54.8734-48.1967,18.6929-33.3724-55.2256-10.21,136.7031-44.1313L737.26,515.799l70.8069-43.8511L767.28,442.7457l60.1969-85.83-108.0689,8.7473Zm69.409,69.325-49.47,70.5462,33.9853,24.332-66.93,41.4475,24.8617,26.484L562.6063,595.01l96.5371,17.8517-13.9909,24.9693,40.7665,35.8038L625.33,687.5257l3.9567,27.9295-198.98-60.7708c-.6594-13.238-1.1708-27.7167-1.5509-43.1312L482.95,629.6387,503.1787,666.82l14.4113-7.8423-11.8174-21.7229,21.2645,7.0964,20.1478,37.0359,14.4113-7.8424-11.7369-21.5766,28.2784,9.4369,5.1908-15.5656-28.742-9.5916,21.4723-11.6813-7.8422-14.4115-34.9072,18.9924-22.5927-7.5388L532.052,610,524.21,595.5884l-34.7691,18.92-61.0556-20.3739c-.2153-11.98-.3642-24.3914-.4559-37.0954l106.434-44.9756,86.48,27.0774,4.9021-15.6525L557.7278,502.19l46.9511-19.84,42.1423,13.1928,4.9023-15.6527-23.68-7.4132,73.4982-31.0581-6.385-15.1086-76.6821,32.4036L640.492,388.155l-15.6611-4.8862-26.1483,83.8086-50.2519,21.2351,9.0221-28.91-15.6611-4.8863-13.1541,42.161L427.8425,539.2694c-.1018-33.2057.1463-67.8515.5879-101.4662l34.3589-47.27-13.2737-9.6449-20.6651,28.4333c.5113-31.1694,1.1555-60.7569,1.7973-86.6276l62.8147-86.4268-13.2738-9.6449-48.787,67.1317c1.0629-38.8734,1.9578-64.2226,1.9922-65.1569l-16.3977-.5846c-.1337,3.72-1.0327,29.1766-2.0747,66.8374L392.8049,264.417l-13.2737,9.6449,34.6794,47.7106c-.6493,25.7109-1.2987,55.09-1.8167,86.0868l-48.6684-66.9608-13.2737,9.645,61.53,84.6485c-.4643,34.3993-.7258,69.9717-.6112,104.0927L310.4063,496.62l-31.32-83.08-15.3482,5.7835,25.8133,68.4847-48.7467-20.5993L225.3308,417.606,209.67,422.492l11.3426,36.3531-76.9949-32.5358-6.3847,15.1086,72.3162,30.5594-66.6254,20.8575,4.9021,15.6525L233.3135,481.85l48.6919,20.5756-26.4678,10.0078,5.8,15.3483,42.5745-16.0985,107.5542,45.4486c.0942,12.5224.2449,24.7739.4609,36.6227l-62.1926,20.754-34.7726-18.92L307.1193,610l21.337,11.6091-22.5917,7.5387-34.9094-18.9912-7.8424,14.4113,21.4741,11.6807L255.843,645.84l5.1905,15.5656,28.2819-9.4377L277.576,673.5457l14.4113,7.8424,20.151-37.0366,21.2638-7.0966-11.82,21.722,14.4112,7.8424,20.2319-37.18,56.0682-18.71c.4038,16.3229.9538,31.6635,1.6712,45.6526L221.1552,715.47l3.8813-27.9453-60.5493-13.8824,40.843-35.8038-13.9951-24.9775,96.417-17.8478L114.0386,538.9,138.9,512.4123,71.9626,470.9528,105.86,446.6244,56.3936,376.0861l92.6079,7.4982-4.1655-48.3765,68.035,35.6439,6.46-40.8186L348.9566,444.81,306.2471,233.48l40.2618,15.2289,1.0934-80.8038,36.553,16.75,41.0827-79.2894,41.0869,79.294,36.4689-16.75,1.1857,80.7962,40.2459-15.2245L501.4205,444.8072,631.1458,330.03l6.4647,40.8227,68.0029-35.6278-4.2454,48.36Z"/>
      <path d="M472.9874,376.4786l-13.2738-9.6478,18.9148-26.024,13.2737,9.6478Z"/>
      <path d="M369.3017,259.9514l-17.2434-23.7243,13.2737-9.6478,17.2435,23.7243Z"/>
      <path d="M205.7846,409.63l-7.0122-22.4722,15.67-4.8893,7.0122,22.4723Z"/>
      <path d="M242.0347,517.7975l5.8083,15.3413L220.73,543.4039l-5.8083-15.3412Z"/>
      <path d="M691.1977,509.4l-28.0005-8.776,4.9034-15.645,28,8.7759Z"/>
      <path d="M562.2325,443.3522l-15.6695-4.8893,8-25.6364,15.6695,4.8893Z"/>
    </g>
    <path d="M460.1042,864.5281l-23.4063-94.1129-11.5707-59.9788-6.9594-45.35S211.412,733.3551,211.412,731.8921s5.8518-34.1341,5.8518-34.1341L146.07,676.79,195.32,638.2672l-19.0175-32.6714,75.5827-12.1908-150.19-50.0009,22.9187-30.4584L56.3924,469.059,92.43,445.6525,38.3029,365.1932l99.9646,8.289-3.4136-52.1767,70.7067,35.11,9.3613-42.9115L335.2706,425.172,294.31,220.8544l44.862,17.5548.4878-82.8975,39.498,18.0424,46.0406-83.385,42.2214,78.9963,43.8868-14.1413v78.0217l44.8621-11.7032L517.6448,417.3693,637.6021,313.9914l3.901,42.424,74.6076-36.5723-4.3886,56.6355,96.5511-11.7736-51.6891,75.096,34.1343,31.2076-66.3171,46.7889,27.3072,22.4555L677.1,565.1223l-16.0918,11.7032-18.0424,4.8761-15.1166,5.8517-14.63,1.9506-1.4628,4.3885,58.5156,10.24-17.0662,29.7456,46.325,42.424L636.1392,691.42l-.4876,35.5971-44.8622-16.092-35.11-11.2162-38.0351-9.2651-22.4311-8.2889-22.431-4.3888-25.8445-10.7278L433.7723,664.6l-8.645,2.4382,13.522,94.6Z"/>
  </g>
</svg>
