<svg id="Calque_1" data-name="Calque 1" xmlns="http://www.w3.org/2000/svg" width="30cm" height="33.4cm" viewBox="0 0 850.3937 946.7717">
  <g>
    <path d="M689.7458,477.9264a302.28,302.28,0,0,0-14.9372-53.92c-2.6995-7.07-5.638-14.6946-9.1442-22.0769a9.145,9.145,0,0,0,2.9348-4.4775c15.5072-52.1967,3.79-109.4206-25.5385-154.6207-29.1253-44.8859-74.2432-77.4569-122.9906-98.1984a324.7269,324.7269,0,0,0-45.3788-16.3979c.7427-3.8607,1.0463-7.8589,1.6247-11.8063,1.0034-6.83,1.9122-13.6716,2.8207-20.5159,1.8782-14.1539,5.2721-29.0539,4.54-43.3879-1.2014-23.5276-16.83-41.0547-41.1759-37.1182-19.3456,3.13-49.42,8.3909-54.7944,31.0319-2.885,12.1561,1.4389,25.1531,2.7833,37.2318,1.3516,12.1454-.225,26.0261,2.6333,38.202-17.6975,2.6548-34.924,12.522-49.8062,21.8-2.8154,1.3622-5.529,2.7332-8.1053,4.0848a199.0131,199.0131,0,0,0-65.7685,56.1885c-36.5522,48.2851-50.9524,109.5369-88.1364,157.457-3.5045,4.5167-3.11,9.7566,1.6978,13.1718a97.9078,97.9078,0,0,0,27.5524,13.8255c-17.8333,15.1661-28.6647,38.5678-34.87,60.9732-10.3636,37.42-11.3062,78.01-15.2143,116.4763a9.1723,9.1723,0,0,0,6.751,8.8657,143.4882,143.4882,0,0,0,51.4238-.3321c-12.1937,23.7588-15.7839,51.054-15.7356,78.0244a221.7908,221.7908,0,0,0,5.1506,47.6656c2.6958,12.0973,5.7788,31.8051,21.652,32.4032,13.3576.5035,28.2273-13.1736,38.6035-20.4524,4.1151-2.8868,8.1694-5.8647,12.1917-8.8835-3.4362,20.1319-.4947,41.7205,4.1638,61.1142a200.6377,200.6377,0,0,0,36.9084,76.4428,189.3325,189.3325,0,0,0,13.7414,15.8159c4.57,4.6829,10.3474,11.715,17.14,13.0255,16.4014,3.1634,20.77-21.1914,25.3583-32.06.4428-1.0479.8784-2.0977,1.3192-3.1456,2.0585,6.3913,4.67,12.5952,6.6539,17.9172a345.8672,345.8672,0,0,0,17.6513,39.057c5.7607,11.0294,12.4238,27.5826,23.1339,34.656,12.7665,8.43,21.5538-2.7655,27.1311-13.2191a336.875,336.875,0,0,0,31.2373-83.2751,318.51,318.51,0,0,0,5.9646-33.69c.6694,2.13,1.3085,4.2615,1.9032,6.3949a479.989,479.989,0,0,1,12.2881,55.3246c1.1426,7.3839,11.9043,9.4923,16.5728,4.3756a308.2918,308.2918,0,0,0,54.889-83.334,297.4325,297.4325,0,0,0,15.8979-45.5594c1.9638-7.6552,4.7954-16.6818,5.7808-25.4975,8.7747,5.4433,19.1365,11.3884,28.5468,9.8977,14.0628-2.2264,15.2072-19.6562,17.3352-30.885a343.2571,343.2571,0,0,0,5.688-48.4066,320.3808,320.3808,0,0,0-1.1907-45.9392c-.2948-2.9778-.5678-6.1324-.907-9.3478q13.9655,7.5735,27.9487,15.1144c5.31,2.8618,14.0968.7142,15.2107-6.1879A335.8846,335.8846,0,0,0,689.7458,477.9264ZM480.5164,151.032a313.3235,313.3235,0,0,1,43.3825,16.48c27.9946,13.0879,54.3249,30.1321,76.2589,52.0163,41.4027,41.3082,65.3329,101.1137,54.182,159.075-20.0025-15.1571-42.4079-24.6227-67.1264-31.555a224.9459,224.9459,0,0,1-49.3594-19.84c-5.5541-3.1127-11.86-5.3487-17.2351-8.5623-6.1611-3.683-10.0282-10.4475-15.4072-15.132a156.5218,156.5218,0,0,1-18.2278-19.3046,185.5285,185.5285,0,0,1-26.7652-44.3556,187.8932,187.8932,0,0,1-11.5617-39.1461,112.8854,112.8854,0,0,0-1.2461-42.0956c6.5715,4.44,14.0895,7.9822,19.9916,11.5776A290.5223,290.5223,0,0,1,505.74,197.2459c23.0322,19.7435,43.4169,45.0858,54.42,73.5594a2.61,2.61,0,0,0,5.0291-1.387c-4.9452-32.3227-21.8717-59.3521-45.2232-81.76a291.4216,291.4216,0,0,0-40.3435-31.8686c-3.5045-2.3333-7.4519-5.1506-11.6579-7.8607C472.1237,148.7716,476.296,149.7788,480.5164,151.032ZM374.984,322.0757c5.0532-4.7561,9.85-9.48,14.3429-14.0664,17.6833-18.0512,33.6653-38.657,44.8092-61.48.0178.4552.0089.9015.0374,1.3621.68,11.0725,1.4979,22.136,2.1943,33.2065,1.3542,21.5289,2.4861,43.0809,3.2063,64.64,1.4371,43.0025,1.3817,86.2708.3234,129.2786-.1037,4.2042,6.0754,4.0628,6.443,0,3.958-43.69,6.0022-87.2366,6.4111-131.1264.2-21.552.0465-43.0951-.63-64.6382q-.31-9.9033-.7819-19.79a200.7379,200.7379,0,0,0,39.9155,54.5674q6.9495,6.687,14.5289,12.6829c.3436,10.11,2.5118,20.4629,3.0521,30.2821a277.62,277.62,0,0,1-1.464,47.7656,273.9564,273.9564,0,0,1-27.8541,91.8623,266.5647,266.5647,0,0,1-25.3564,40.4887c-1.18,1.5479-5.8791,9.3854-7.88,9.5853-.6339.0624-6.5681-5.1148-7.1733-5.547a146.5657,146.5657,0,0,1-19.0973-16.3674c-24.0426-24.3588-36.5682-54.9105-42.4871-88.21-2.2887-12.8809-5.1167-25.9733-5.2149-39.1116-.0946-12.738,2.0459-25.5939,2.5834-38.36.4669-11.05,2.5541-25.1835.0921-37.0245ZM410.54,41.3859c7.5626-5.2023,17.8816-7.4427,26.6741-9.4531,10.2941-2.3529,20.74-4.7578,27.0221,5.945,5.6149,9.562,3.3655,21.8235,1.7943,32.1657-1.655,10.8993-3.4546,21.7753-5.1184,32.6728-1.0479,6.8626-3.09,14.6411-3.61,22.0984-13.7485-1.7788-27.5774,2.5011-40.4137-1.2553-12.3113-3.6027-8.0446-11.183-8.0446-22.7178A204.9642,204.9642,0,0,0,405.37,68.8044C403.7718,58.7515,400.7882,48.0933,410.54,41.3859ZM199.2932,364.9652c30.5034-43.3665,44.8116-95.42,73.754-139.81A194.7207,194.7207,0,0,1,296.24,196.0372c22.7751-15.6839,45.6482-33.3712,70.7445-45.575,2.685-.9658,5.3881-1.8853,8.1231-2.7154a163.6491,163.6491,0,0,1,25.2958-5.0257c-1.1336.873-2.2477,1.746-3.3456,2.5872-6.5878,5.049-13.04,10.2691-19.2989,15.7215a322.6253,322.6253,0,0,0-36.7041,38.2222c-20.4362,24.7818-43.619,54.3924-50.8523,86.28-.28,1.2354,1.3658,2.4763,2.3085,1.3425,10.1439-12.2024,17.8709-26.0365,27.0972-38.9264a383.8731,383.8731,0,0,1,32.3959-39.8871,452.3287,452.3287,0,0,1,35.2988-33.2172q10.104-8.66,20.8434-16.5354a91.8738,91.8738,0,0,0,13.9914-11.1473,24.8315,24.8315,0,0,1,4.2364,5.6949,53.8639,53.8639,0,0,1,5.7487,23.7374c-.1035,2.8207-.1357,5.6432-.075,8.4675a132.1033,132.1033,0,0,1-2.3619,18.28c-6.8181,34.6133-26.6187,64.6508-50.5542,89.9288-5.0774,5.363-10.3315,10.6832-15.7356,15.9051a5.8047,5.8047,0,0,0-2.2244,2.055c-.04.0643-.0715.1338-.1125.1981-19.101,18.185-40.171,34.965-62.9994,47.362C267.7716,375.24,230.1716,381.8523,199.2932,364.9652ZM179.5675,558.0111c2.8065-32.4531,4.3792-65.6472,11.4365-97.4022a136.22,136.22,0,0,1,36.8057-68.575c36.8162,4.158,74.59-13.4234,107.3748-36.9233-2.88,4.315-5.68,8.68-8.6284,12.84-10.5529,14.8787-21.1486,29.7074-32.3808,44.0861-21.8893,28.0184-43.8771,56.8973-68.1168,82.9109a1.1774,1.1774,0,0,0,1.6639,1.6639c27.8345-23.6489,54.5945-47.0754,78.4253-74.9521,11.3064-13.2254,22.3787-26.7311,32.7084-40.7367,5.3917-7.3125,11.5439-14.8563,16.5461-22.925a191.85,191.85,0,0,0-.5124,19.2489c-.5693,8.075-1.3692,16.1338-2.5314,24.1372-4.3205,29.761-13.4129,58.5471-30.5036,83.5189-31.23,45.6348-86.0273,79.2893-142.2874,73.1087Zm71.4939,142.163c-4.9723,3.2832-10.0012,6.4948-15.1251,9.5352a27.36,27.36,0,0,1-3.8027,2.1977c-.0909.0358-.1588.0679-.2356.1011a1.7747,1.7747,0,0,0-.1161-.4748,89.8075,89.8075,0,0,1-2.9832-10.4564,222.6128,222.6128,0,0,1-6.6271-42.1866c-1.6872-29.5663,4.17-58.4719,9.2657-87.41,39.7246-10.8118,75.5858-36.8985,100.5406-69.5568a142.16,142.16,0,0,0,14.0594-21.45c1.3245-2.6075,1.8317-8.0376,4.3722-9.75,6.1342-4.13.58,8.3088-.2108,10.6618a486.2632,486.2632,0,0,1-21.3628,52.4c-15.7255,33.3493-37.3935,65.186-60.55,93.8029a2.5074,2.5074,0,0,0,3.5437,3.5439c28.7129-26.1064,51.0344-55.9549,70.421-89.5075a352.855,352.855,0,0,0,23.923-51.0327c1.6762-4.3991,3.2831-8.7873,4.731-13.19a166.2933,166.2933,0,0,0,28.2024,52.1146c-6.266,8.0962-10.3489,17.5673-15.3768,26.5723q-9.8067,17.5674-21.2468,34.1528a419.1606,419.1606,0,0,1-50.0384,59.6608,402.6437,402.6437,0,0,1-61.3836,50.271ZM368.764,811.46c-3.0992,7.4382-6.1521,14.8967-9.2246,22.3465l-4.2526,10.3154q-1.0146,2.4611-2.0281,4.9185c-4.3276-2.835-8.7176-8.8515-11.9649-12.5023A164.5191,164.5191,0,0,1,329.5215,821.71a192.3985,192.3985,0,0,1-29.361-64.6634c-5.2024-21.236-4.9042-42.6846-6.3913-64.2277,3.5832-2.8993,7.1351-5.8362,10.626-8.8445a431.8981,431.8981,0,0,0,45.15-45.2764c-5.2958,16.8925-7.2734,35.5489-8.5981,51.0755-2.6441,30.98-1.7227,64.4706,6.4986,94.4618.25.91,1.8066,1.0373,1.9727,0,4.6989-29.4467,3.2385-59.8824,6.6967-89.6342a300.8651,300.8651,0,0,1,8.2015-45.2074c.3731-1.3543.7695-2.7135,1.1659-4.07.3177,1.9809.6468,3.9617,1.0266,5.97a280.5954,280.5954,0,0,0,16.2156,54.2817,225.876,225.876,0,0,0,18.3012,36.1416,83.0957,83.0957,0,0,0-5.4255,7.907,156.3621,156.3621,0,0,0-8.8515,18.93Q377.7565,790.0083,368.764,811.46Zm105.7252-33.9357c-1.5479,12.4346-3.1313,24.8565-5.5951,37.1485a329.2475,329.2475,0,0,1-21.7893,69.157q-3.7359,8.3844-7.9375,16.5495c-1.0533,2.046-2.1726,6.0719-3.917,7.3661q-1.32,2.7021-.4659.4928l-1.8317-2.8439c-5.4451-11.0313-12.8451-21.2664-18.4974-32.2621-5.84-11.3581-11.0794-23.0536-15.9276-34.8686-3.2171-7.8411-5.5684-17.9189-10.3582-25.4493q5.3448-12.8008,10.6617-25.6154c2.7029-6.5164,10.5636-36.9892,21.354-22.0925,2.9866,4.1222,2.8635,12.168,3.0885,17.0549.5552,12.0872-1.4515,24.7711-1.2373,36.4637.3071,16.6871-.9926,38.3233,6.8164,53.532a1.2924,1.2924,0,0,0,2.3368-.3052c2.362-7.9553,1.864-16.7551,2.112-24.9958.2659-8.833.807-17.6817,1.7657-26.469,1.0123-9.2655,2.6208-18.4849,3.9213-27.7149a65.1435,65.1435,0,0,0,1.364-13.5039c14.02,6.2807,25.951-.7178,35.3488-11.9329C475.255,770.6574,474.914,774.1087,474.4892,777.5247Zm2.0532-44.7966c-4.6277,8.26-17.23,33.6028-28.6559,29.4448-24.0935-8.7693-38.9479-40.2459-48.4725-61.7712-12.6416-28.57-19.1026-59.1986-24.8566-89.7628.1838-1.2265.3766-2.453.507-3.6848a2.7633,2.7633,0,0,0-.0429-.6284q10.4523-14.5923,19.69-30.0056c6.1629-10.3349,13.2149-21.1859,17.2049-32.7975,3.4224,3.3171,6.9806,6.4931,10.6975,9.4834,6.5075,5.2351,11.37,6.9057,12.7577,15.5874,1.2623,7.9-.266,15.982.441,23.9211,1.1408,12.7882,2.2994,25.5923,3.1065,38.4072.7681,12.1953,1.3086,24.4,1.4585,36.62.1427,11.6364-.6125,23.6211,2.0477,35.0326a1.2393,1.2393,0,0,0,2.2423.2929c4.6561-10.4993,5.7272-22.1715,6.8395-33.4975,1.255-12.7827,2.1426-25.61,2.4852-38.45.3436-12.8273.2409-25.6064-.682-38.4053-.7857-10.9117-5.3863-22.7339,3.9415-31.0177A147.8488,147.8488,0,0,0,483.176,529.91c.5427-.8444,1.0551-1.71,1.5889-2.56,1.7,9.6263,4.86,19.3008,6.7511,28.3254a425.7667,425.7667,0,0,1,8.048,50.4327c2.5583,29.4807,1.0392,59.2344-7.0823,87.7885a179.852,179.852,0,0,1-15.9393,38.8328Zm98.1161-7.825a271.8271,271.8271,0,0,1-15.1625,45.4162A263.5411,263.5411,0,0,1,520.78,833.2329,306.3448,306.3448,0,0,0,510.694,795.465c-5.363-15.6658-11.2831-33.2208-21.8841-46.2444a174.5934,174.5934,0,0,0,12.4666-23.2822,220.2721,220.2721,0,0,0,16.3248-58.6469,187.8264,187.8264,0,0,1,6.1289,28.48c2.9084,22.5339,2.737,45.409,3.6743,68.0608.1374,3.3241,5.5308,4.465,6.1271.83a298.5435,298.5435,0,0,0,3.7242-73.6846,172.0692,172.0692,0,0,0-5.5148-32.7565,280.7713,280.7713,0,0,0,24.3459,21.0273q11.8151,9.1345,24.36,17.2263c-3.1056,8.9839-3.5966,19.3261-5.7894,28.4294Zm51.7308-57.8989q-1.4031,9.6244-3.4224,19.1473a70.59,70.59,0,0,0-1.9317,8.6308c-.0589.13-.1011.23-.1536.3535-.3355-.0768-.7086-.15-1.1427-.2142-3.7454-3.0457-9.735-4.8648-14.0126-7.1957q-8.2961-4.5176-16.3248-9.5067a308.7752,308.7752,0,0,1-28.8825-20.2024c-8.6606-6.8608-17.0693-14.0056-25.312-21.3628-4.7576-4.2447-9.7512-10.38-15.3981-14.7823a374.9826,374.9826,0,0,0-6.7931-57.2705c-3.4278-17.8976-6.5663-40.5333-17.4852-55.9316a291.1975,291.1975,0,0,0,15.9444-36.1039c-2.2743,10.8138,1.6033,22.5822,5.6826,32.6924,6.1184,15.1608,14.454,29.5073,22.4074,43.7538,16.0893,28.8219,32.6993,57.5312,54.2533,82.5,2.0781,2.4066,5.2272-.6606,4.0955-3.16-12.7417-28.1361-28.6022-54.7562-42.8026-82.2413-7.143-13.827-14.5875-27.7275-20.4326-42.1669-.3927-.9676-.7551-1.9459-1.1068-2.93a167.5351,167.5351,0,0,0,23.041,25.99c15.5233,14.1691,33.735,24.3711,52.0341,34.458,5.5915,3.0832,11.2046,6.1289,16.8067,9.1923.5375,6.084,1.7,12.2044,2.2513,17.9744a351.1156,351.1156,0,0,1,1.7371,38.85,308.2161,308.2161,0,0,1-3.0527,39.5258Zm46.2695-94.0689c.1195-1.0854-30.9624-17.4763-33.7993-19.1044-9.9636-5.7184-22.0413-9.884-32.5333-15.409a202.9961,202.9961,0,0,1-33.7653-21.2825,153.456,153.456,0,0,1-35.0828-40.5779c-6.6235-11.1224-10.9939-23.53-16.5767-35.2079q1.5908-6.5931,2.8745-13.2452a293.9422,293.9422,0,0,0,5.3523-62.1514c-.0768-3.3242-.1447-6.8394-.2628-10.43,1.7889,2.2744,3.8616,4.4454,5.6364,6.4663q8.8746,10.101,17.6921,20.2489c11.71,13.52,23.2177,27.1345,34.0938,41.3384a379.3612,379.3612,0,0,1,29.3413,43.7034c4.308,7.6177,8.3337,15.4285,11.97,23.3927,3.7437,8.1981,6.0735,17.7816,11.3135,25.1762a1.9607,1.9607,0,0,0,3.62-.98c1.221-15.52-7.9436-33.9741-14.0628-47.9175a355.0743,355.0743,0,0,0-26.8544-49.2786,513.4113,513.4113,0,0,0-32.2513-43.6719c-5.3041-6.5894-10.8422-12.9879-16.398-19.3668,3.5494,1.4854,7.1377,2.8778,10.7707,4.1472,15.4213,5.3863,31.6264,8.4287,46.7354,14.7351a140.72,140.72,0,0,1,29.9233,17.2119c4.1277,13.0826,10.719,25.86,15.1681,38.586a354.0311,354.0311,0,0,1,13.7,50.9524,314.3438,314.3438,0,0,1,3.3939,92.6653Z"/>
    <polygon points="392.545 49.227 401.027 104.537 401.027 125.16 372.306 137.13 322.42 166.759 280.937 200.341 244.394 258.774 208.838 336.639 187.11 366.269 192.541 370.221 224.394 383.801 206.368 406.516 182.911 454.419 181.43 481.58 173.036 545.038 170.812 568.248 226.615 564.297 219.456 596.89 212.048 638.698 217.974 680.101 223.652 719.363 244.641 716.646 285.919 691.708 288.098 725.782 293.77 758.622 310.492 804.054 338.717 849.041 355.754 858.871 378.718 815.907 394.52 853.684 434.768 919.612 456.743 885.784 486.126 773.189 506.127 804.3 513.781 852.698 560.695 793.685 571.559 761.053 591.806 690.226 624.399 709.238 639.955 650.225 636.994 565.285 674.6 586.521 681.438 583.851 684.154 525.038 671.562 439.358 653.782 394.171 667.859 368.986 662.425 317.627 642.918 249.231 597.751 206.021 540.448 161.821 512.053 149.969 484.151 141.574 467.83 135.155 470.077 104.29 475.508 73.918 474.522 33.671 456.25 23.548 412.793 32.931 398.223 43.054 392.545 49.227"/>
  </g>
</svg>
