<svg id="Calque_1" data-name="Calque 1" xmlns="http://www.w3.org/2000/svg" width="30cm" height="33.4cm" viewBox="0 0 850.3937 946.7717">
  <g>
    <path d="M274.63,922c2.3767-13.6664,8.3187-19.0141,21.3908-19.0141H373.86c5.3477,0,8.9128-1.1884,12.478-5.3477,4.7535-5.9419,10.6954-11.29,16.6373-16.6373,7.7245-7.13,10.6955-16.0432,10.1013-26.1444q-8.0217-96.259-16.0432-192.5179c-1.7826-23.7677-2.9709-46.9411-4.7535-70.7088a11.8233,11.8233,0,0,0-4.7536-10.1012c-5.9419-3.5651-7.7245-9.507-7.7245-16.0431,0-14.2606-.5942-28.5212,0-42.7818.5942-5.9419-1.1883-7.13-6.5361-8.3187-73.68-16.0431-127.751-57.6365-159.8374-126.5626-20.2025-42.7818-24.956-88.5345-20.7967-134.8814,7.13-77.2448,29.71-150.33,61.7959-220.4449,2.3768-5.3477,5.3478-7.7244,11.29-7.7244H584.2034c6.5361,0,8.9129,2.3767,11.29,7.7244,30.3038,64.7669,51.1,132.5046,60.6075,203.8076,8.9128,69.52-.5943,135.4755-43.97,193.1121-33.8689,45.7526-79.6216,73.0855-135.4756,84.9693-5.3477,1.1884-6.5361,2.3768-6.5361,7.7245q.8913,21.3909,0,42.7817c0,5.3478-.5943,11.29-5.3477,14.2606-7.7245,4.1593-6.5362,10.6955-7.13,17.2316-3.5652,52.883-7.7245,106.36-11.8838,159.2432-2.3768,33.2747-5.3477,66.5494-8.3187,99.8241-.5942,10.1012,2.3768,18.42,10.1013,24.956,6.5361,5.9419,13.6664,11.8838,19.0141,19.6083,2.3767,3.5652,5.9419,2.3768,9.5071,2.3768h78.4332c13.6664,0,19.0141,5.3476,21.985,19.0141C476.655,922,375.6425,922,274.63,922Z"/>
    <path d="M620.4492,154.3052H274.0358c-8.3187,0-11.8838,1.7825-14.2606,10.1012-11.29,40.9992-20.7967,81.9984-21.3909,124.78-.5941,47.5353,11.29,92.1,34.4631,133.693,1.1884,2.3768,4.1593,4.7536,3.5652,8.3187-7.7245-4.1593-19.0141-15.449-29.1154-29.7095-27.927-41.5934-38.6224-88.5345-35.6515-138.4466,4.7536-73.68,26.1445-143.2,55.26-210.9378,2.3768-5.9419,5.3477-8.3186,12.478-8.3186h292.342c6.5362,0,10.1013,1.1883,12.4781,7.7244A679.9411,679.9411,0,0,1,620.4492,154.3052Z"/>
  </g>
</svg>
