<svg id="Calque_1" data-name="Calque 1" xmlns="http://www.w3.org/2000/svg" width="30cm" height="33.4cm" viewBox="0 0 850.3937 946.7717">
  <g>
    <path d="M397.4491,848.2265q-1.2232.7479-2.5,1.4428c-10.9272,5.9554-22.1983,7.8168-33.0962,9.6162-16.4145,2.7117-31.9989,5.29-47.3256,21.8634H536.3447c-15.3191-16.5736-30.9128-19.1517-47.3256-21.8634-10.9-1.7994-22.1688-3.657-33.0959-9.6162l-.26-.1426a40.8364,40.8364,0,0,1-20.604-35.8591V500.3063a40.6055,40.6055,0,0,1,2.1942-13.3482,187.1471,187.1471,0,0,1,20.8269-41.873,175.2518,175.2518,0,0,1-64.607.1407,184.3137,184.3137,0,0,1,21.0627,41.6865,40.5517,40.5517,0,0,1,2.2381,13.4524V813.1429a40.9589,40.9589,0,0,1-19.3255,35.0838Z"/>
    <path d="M702.341,81.3242C627.617,71.2,529.2776,65.6227,425.4364,65.6227S223.2558,71.2,148.5318,81.3242C45.8369,95.2447,34.3181,111.1088,33.29,113.0472c1.0276,1.9455,12.5472,17.8078,115.2421,31.7245,74.7258,10.1246,173.0651,15.7015,276.9046,15.7015s202.1787-5.5769,276.9028-15.7015c102.6965-13.9163,113.7366-30.6,114.7648-32.5456C816.0763,110.2879,805.0364,95.2447,702.341,81.3242Z"/>
    <path d="M710.5162,138.33c-76.2161,10.7425-177.4609,16.6578-285.08,16.6578s-208.8641-5.9153-285.08-16.6578c-57.9949-8.1734-89.597-17.1881-106.584-26.0272A199.059,199.059,0,0,0,231.9138,296.3939h14.7086a22.7176,22.7176,0,0,1,22.562,19.4281,158.075,158.075,0,0,0,312.5039,0,22.7156,22.7156,0,0,1,22.56-19.4281h14.71A199.06,199.06,0,0,0,817.104,112.2261a130.5019,130.5019,0,0,1-18.96,7.7437C777.4051,126.8781,747.9222,133.0565,710.5162,138.33ZM160.3347,183.4084a9.1425,9.1425,0,0,1-9.0437,7.89,9.2676,9.2676,0,0,1-1.2654-.0879c-11.19-1.5487-22.6626-3.2163-34.1-4.9552a9.1428,9.1428,0,0,1,2.7435-18.0786c11.355,1.728,22.7468,3.3829,33.8566,4.9224a9.1428,9.1428,0,0,1,7.81,10.3041Zm179.4907,24.428h-.1328c-41.5072-.5942-94.11-4.65-152.1323-11.7317a9.143,9.143,0,0,1,2.2143-18.1509h0c57.3933,7.0051,109.3268,11.0168,150.1849,11.6a9.1428,9.1428,0,0,1-.126,18.2851Z"/>
    <polygon points="231.029 120.964 82.572 146.175 96.575 192.86 274.449 238.611 378.09 238.611 368.285 168.071 231.029 120.964"/>
  </g>
</svg>
