<svg id="Calque_1" data-name="Calque 1" xmlns="http://www.w3.org/2000/svg" width="30cm" height="33.4cm" viewBox="0 0 850.3937 946.7717">
  <path d="M600.4423,386.6805c-3.359-15.1709,9.9393-27.963,22.1567-34.0188a106.9323,106.9323,0,0,1,62.0537-9.5172c37.6614,5.7429,73.859,33.3737,80.973,71.956a70.1175,70.1175,0,0,1,.7895,23.0636c-3.1437,22.935-9.3947,45.5526-15.2591,67.9039A433.7939,433.7939,0,0,1,719.6473,590.12c-13.7638,27.615-31.7139,52.3051-47.5913,78.66-7.621,12.6517-14.6517,25.6518-22.35,38.2583a341.7033,341.7033,0,0,1-26.84,36.8359c-19.8994,24.5609-39.6575,49.2995-64.3477,69.2945-23.4555,18.9952-48.9569,36.4234-76.7946,48.222-13.672,5.794-27.3786,11.455-40.8911,17.6224-13.4626,6.1447-26.9074,13.0915-41.6044,15.72-14.7843,2.6437-30.0264,1.6338-44.9658,2.2733-15.1057.6459-29.9861,3.0863-44.9887,4.77-59.7509,6.71-118.7017-5.8012-175.6362-23.3347-13.4-4.127-26.8071-8.4868-39.7524-13.9037-2.4347-1.0192-16.4936-5.702-15.666-9.8087.6942-3.44,15.8543-.6345,17.9817-.5241,14.8126.7743,29.2675-1.4544,43.8249-3.9845,29.018-5.0421,56.8791-14.81,85.0856-23.03,14.3135-4.1708,28.8014-8.0328,42.4612-14.0991,14.5065-6.4428,27.92-14.998,41.844-22.5584,26.99-14.6562,56.9747-23.353,82.905-39.9706,26.1411-16.751,51.4136-36.4939,70.1945-61.3971,9.7787-12.965,19.0893-26.2443,29.7373-38.533,9.5694-11.046,20.1914-21.0607,30.0491-31.83,20.29-22.1682,30.5946-51.25,44.8618-77.28,7.4132-13.5243,15.2221-26.8812,21.3153-41.0743A192.2457,192.2457,0,0,0,600.6749,457.85c3.64-20.5577,5.1573-42.141,1.6257-62.8361A69.0232,69.0232,0,0,0,600.4423,386.6805Z"/>
  <g>
    <path d="M646.6216,59.1851a23.109,23.109,0,0,1,12.306,2.794,30.3942,30.3942,0,0,1,9.09,8.0638A64.8337,64.8337,0,0,1,674.942,81.38a134.8179,134.8179,0,0,1,5.4435,12.9c1.6246,4.3879,3.0449,8.8079,4.3165,13.0065,1.27,4.2017,2.3378,8.2,3.37,11.711,1.0622,3.5642,2.1318,7.2491,3.0386,11.19.9062,3.9437,1.6435,8.1678,2.3154,12.5944s1.318,9.0442,1.9126,13.856c.5874,4.8156,1.093,9.8519,1.4537,15.13s.57,10.7884.6188,16.4753q.0694,8.5321-.351,17.5127c-.2844,5.9859-.7683,12.1126-1.5513,18.3927-.5861,4.7075-1.3675,9.5028-2.2949,14.3883q-1.0446,5.4978-2.3719,11.1756-1.3325,5.6777-3.0268,11.5691-1.7029,5.894-3.756,11.9691-2.0414,6.0694-4.4069,12.3009c-10.1,26.586-42.1087,57.9643-53.8142,69.2265a3.8283,3.8283,0,0,0-.2894,5.4063c.0166.0185.0335.037.0506.0553,0,0,14.5768,11.534,21.718,9.8042s14.9584-6.473,23.7666-1.5c8.8056,4.9742,17.0287,5.9984,24.8539,2.8224s27.4216-3.17,27.4216-3.17,9.466-3.1814,7.8029-5.1995c-5.8723-7.1462-19.7152-27.3436-24.3966-63.5306-.7788-6.0332-1.3063-12.5071-1.54-19.42-.1165-3.4576-.1866-7.0087-.188-10.66s.0665-7.4056.2209-11.2644c.1643-4.1184.4253-8.3523.8081-12.7149.5525-6.28.957-12.41,1.159-18.4043s.27-11.8611.2554-17.592q-.0168-5.7728-.1032-11.35-.0985-5.583-.2784-10.9922c-.1174-3.604-.2617-7.1317-.4315-10.56q-.5145-10.278-1.335-19.4507c-.5392-6.1076-1.147-11.8515-1.75-17.2892-.6076-5.4311-1.3367-10.4789-2.3209-15.0635s-2.1667-8.8121-3.3283-12.8854c-.9962-4.4356-2.2139-9.1037-3.7829-13.8386-1.5679-4.7371-3.3912-9.572-5.4664-14.3613s-4.3588-9.5617-6.9-14.16a111.7358,111.7358,0,0,0-8.39-13.1321A58.3292,58.3292,0,0,0,662.9658,45.427a39.8742,39.8742,0,0,0-13.6237-7.0222c-3.628-.9316-4.4842,4.7557-5.4942,9.134A19.4384,19.4384,0,0,0,646.6216,59.1851Z"/>
    <path d="M646.6216,59.1851a23.109,23.109,0,0,1,12.306,2.794,30.3942,30.3942,0,0,1,9.09,8.0638A64.8337,64.8337,0,0,1,674.942,81.38a134.8179,134.8179,0,0,1,5.4435,12.9c1.6246,4.3879,3.0449,8.8079,4.3165,13.0065,1.27,4.2017,2.3378,8.2,3.37,11.711,1.0622,3.5642,2.1318,7.2491,3.0386,11.19.9062,3.9437,1.6435,8.1678,2.3154,12.5944s1.318,9.0442,1.9126,13.856c.5874,4.8156,1.093,9.8519,1.4537,15.13s.57,10.7884.6188,16.4753q.0694,8.5321-.351,17.5127c-.2844,5.9859-.7683,12.1126-1.5513,18.3927-.5861,4.7075-1.3675,9.5028-2.2949,14.3883q-1.0446,5.4978-2.3719,11.1756-1.3325,5.6777-3.0268,11.5691-1.7029,5.894-3.756,11.9691-2.0414,6.0694-4.4069,12.3009c-10.1,26.586-42.1087,57.9643-53.8142,69.2265a3.8283,3.8283,0,0,0-.2894,5.4063c.0166.0185.0335.037.0506.0553,0,0,14.5768,11.534,21.718,9.8042s14.9584-6.473,23.7666-1.5c8.8056,4.9742,17.0287,5.9984,24.8539,2.8224s27.4216-3.17,27.4216-3.17,9.466-3.1814,7.8029-5.1995c-5.8723-7.1462-19.7152-27.3436-24.3966-63.5306-.7788-6.0332-1.3063-12.5071-1.54-19.42-.1165-3.4576-.1866-7.0087-.188-10.66s.0665-7.4056.2209-11.2644c.1643-4.1184.4253-8.3523.8081-12.7149.5525-6.28.957-12.41,1.159-18.4043s.27-11.8611.2554-17.592q-.0168-5.7728-.1032-11.35-.0985-5.583-.2784-10.9922c-.1174-3.604-.2617-7.1317-.4315-10.56q-.5145-10.278-1.335-19.4507c-.5392-6.1076-1.147-11.8515-1.75-17.2892-.6076-5.4311-1.3367-10.4789-2.3209-15.0635s-2.1667-8.8121-3.3283-12.8854c-.9962-4.4356-2.2139-9.1037-3.7829-13.8386-1.5679-4.7371-3.3912-9.572-5.4664-14.3613s-4.3588-9.5617-6.9-14.16a111.7358,111.7358,0,0,0-8.39-13.1321A58.3292,58.3292,0,0,0,662.9658,45.427a39.8742,39.8742,0,0,0-13.6237-7.0222c-3.628-.9316-4.4842,4.7557-5.4942,9.134A19.4384,19.4384,0,0,0,646.6216,59.1851Z"/>
  </g>
</svg>
