<svg id="Calque_1" data-name="Calque 1" xmlns="http://www.w3.org/2000/svg" width="30cm" height="33.4cm" viewBox="0 0 850.3937 946.7717">
  <g>
    <path d="M246.4744,360.9761c-.2984-1.4455-.7767-1.9226-1.5741-2.0889-.7973-.1679-.7973-.1679.18-1.2827.9615-1.1,2.0882-.7751.9615-1.1-1.1133-.3328-3.1838-.8309-3.1838-.8309-.6324.47-2.5406-.332-2.4012,2.354.1218,2.7278-1.9425,1.1158.1218,2.7278,2.0559,1.6134,1.8985,2.08,2.6665,3.6822.7805,1.6171-.1741,2.5651.9314,3.0494,1.1112.4837-.2913-1.9175.3478-2.7071.655-.794-.1616-.3305.8141-1.5886C246.3176,361.9266,246.5944,361.5379,246.4744,360.9761Z"/>
    <path d="M255.4253,359.9528a7.1811,7.1811,0,0,0-.1492-1.61l-3.1663-.9772c-.4864.78-1.4644,1.9068-1.4744,2.85-.01.9707-1.7724.952.2984,1.6037,2.0726.66,1.4588-1.098,2.0726.66.6106,1.7631-2.1046,2.3688-.9865,3.3434,1.0934.9628-.6463.1439,1.0934.9628,1.7453.8149,1.2588,1.6026,2.2393.0237.9825-1.5868.0136-1.2762.9909-2.3835.954-1.1071,1.4514-2.22.9708-2.6971C256.8412,361.2529,255.415,360.9132,255.4253,359.9528Z"/>
    <path d="M251.9558,371.8788c.174-2.0721-.7892-2.0823-.4427-3.3549a3.0253,3.0253,0,0,0-.9372-2.7164c-.4783-.6512-.4732-1.1311-1.428-1.3068-.95-.1607-2.8579-.03-2.3845.4706.6641.6825-1.1435,1.4148-.2076,2.5418.9518,1.1348.1621,1.7571.6285,3.0388a4.23,4.23,0,0,0,1.72,2.7252c1.258.9686-.6445.9484.7717,2.4063,1.413,1.4461.9276,2.0785,1.9012.4833C252.5575,374.5958,251.762,373.9487,251.9558,371.8788Z"/>
    <path d="M262.4576,373.2654c.4935-.7991-.7886-.6382.5025-1.5962,1.2731-.9371.3166-.4681-.3076-1.7511s-2.0473-1.9314-2.6934-1.6257c-1.927.9317-2.9037,3.0093-1.9575,3.808.9431.8072.9526-.1475,2.0732.8193C261.1756,373.89,261.97,374.057,262.4576,373.2654Z"/>
    <path d="M255.0011,368.7269c-1.2644.1106-.9648,1.2516-.9786,2.5426-.0135,1.2766-.4982,1.7276.4553,2.8628a3.1563,3.1563,0,0,1,1.0767,3.2091c-.18,1.8975-.3443,2.8665.12,2.8715.5016.0053.1853-1.599.6736-2.545a9.0933,9.0933,0,0,0,.8207-2.2309,4.2649,4.2649,0,0,0,.0221-2.0727C257.0452,372.25,256.5988,368.5778,255.0011,368.7269Z"/>
    <g>
      <path d="M768.6224,449.7563s.814-1.5933-.1481-1.9249c-.9411-.3271-5.0484-3.2352-5.8567-3.7243a12.1271,12.1271,0,0,0-3.8057-1.3077,19.1647,19.1647,0,0,1-3.3413-.5308c-1.7574-.3353-5.26-.5208-6.0667.4312a4.4366,4.4366,0,0,0,3,2.2587,10.45,10.45,0,0,1,4.4441,2.12,34.311,34.311,0,0,0,3.0054,1.9532,17.6972,17.6972,0,0,0,3.6659,1.1416c1.107.17,2.542.82,3.4951.6761A2.8066,2.8066,0,0,0,768.6224,449.7563Z"/>
      <path d="M808.7226,427.6838c-1.2652.1532-1.1212.6375-2.4054,1.2583-1.2838.6171-1.46,2.6961-1.9557,3.8081-.4879,1.1045-2.5727,1.729-3.0558,2.52s-1.117,1.25-1.93,2.374c-.82,1.101-.9859,2.2208-2.2725,3.8043-.5989.7132-.8157,1.1018-.4984,1.9091a3.685,3.685,0,0,1-.1828,2.0673l-1.7779,1.7331-1.6163,1.8973c-.6343.16-.8056.7845-.8159,1.7462-.01.9674-.331.9641-.6526,1.8958-.3293.9678-1.128,1.1062-1.9319,1.5815a5.2126,5.2126,0,0,0-1.4587,1.5817,8.03,8.03,0,0,0,2.2374.3362c1.2756.0135-.185,1.6075-.185,1.6075s-.96.7785-1.608,1.2437a8.7919,8.7919,0,0,0-1.7655,1.7521,3.8967,3.8967,0,0,0-.6665,2.53,5.6782,5.6782,0,0,0,2.8714.1969c1.5975-.2961,3.4972.5241,4.2943.5326s3.5164.0372,5.75-.1057c2.2322-.1579,1.1077.3213,3.0083.342a22.1281,22.1281,0,0,0,2.5612-.1165,15.0515,15.0515,0,0,0,3.0486-.9343c1.7548-.6119,1.76-1.0957,2.87-1.0839,1.1166.0115.3129,1.1177.3026,2.0842-.01.9435.1525.7908.7787,1.269a6.3139,6.3139,0,0,1,1.2689,1.9274,6.7341,6.7341,0,0,1-1.7727,1.1064c-1.1175.4682-1.2843.625-1.61,1.2522-.3182.63.6325.4935,1.43.6486a4.44,4.44,0,0,0,2.0747.0219,2.7863,2.7863,0,0,0,2.0889-1.4,4.8236,4.8236,0,0,1,2.4122-1.8963c1.1225-.4676,2.4046-1.0917,2.0958-1.8922-.3189-.8034.801-.3157,3.1819.5165l-.01.9515a13.1175,13.1175,0,0,0,.28,3.8271l3.0251-1.232,1.8865,3.2027a4.1751,4.1751,0,0,0,2.7257-1.25c1.2888-1.2593.3428-.7819.495-1.5928.1748-.7828.343-.9412.6721-2.0621.3273-1.118.807-.6142,1.1276-1.4221a4.4753,4.4753,0,0,0-.2869-2.3974l-3.0551.9314a3.646,3.646,0,0,1,.6493-1.27c.487-.6255.83-1.4181.1985-3.5021a7.941,7.941,0,0,0-2.2368.9284c-.9709.6278-.9878,2.2249-1.9385,2.8445-.9686.6427-2.2255-1.1337-2.2255-1.1337-.1455-.8058.0066-.63,2.2725-3.3323.797-.951,1.4363-.6224,3.0494-2.0368,1.5954-1.4068,1.2855-.9412,1.4449-1.7358.1624-.7993-1.43.3122-2.0637.4534-.6553.1554-1.2979,1.1035-2.097,1.42-.7934.3042-2.3808-.6666-2.3808-.6666s-1.1229.63.3183-.6352c1.4431-1.2573,0,0-.1528-1.12-.135-1.119-1.1037-.6493.0287-2.7065.569-1.0191,1.4507.0153,1.7571-.7847.334-.7941,1.1328-.9443,1.1412-1.73.0085-.8117-2.2058-1.4658-2.8543-1.6392-.6289-.1527-.9355-.81-1.4243-.5022-.4677.3362-2.2393-.17-2.5238-1.9252-.0951-.5731-1.4577,1.099-1.4577,1.099a6.6149,6.6149,0,0,1-1.611,1.5712c-.8026.4715-.8149,1.5886-1.296,1.91a4.498,4.498,0,0,1-1.4347.4559,6.8668,6.8668,0,0,0-.9156-3.3548c-.2738-.4277-1.6087-.0171-2.7178-.0288-1.118-.0114-1.9151-.02-1.7414-.6561a4.0726,4.0726,0,0,1,.8138-1.74c.474-.6326,0,0,1.4414-1.1062,1.4556-1.1018.8177-1.7551.8177-1.7551-.475-.1552-1.5978.1492-2.548-.027-.9583-.1607-1.1024-.6413-1.9118-.65-.7867-.0083,0,0-1.7668,1.5738a27.2542,27.2542,0,0,0-2.9095,2.9971,6.062,6.062,0,0,1,.8207-2.2183c.8159-1.589.8109-1.109.8177-1.7551.0067-.63.3309-1.1133.3426-2.2158s.6477-1.4364,1.9524-2.5327c1.2754-1.1033,3.0463-2.0478,3.8585-3.9451.8124-1.9138-.3112-1.2834-.93-2.5667-.6167-1.2747.6374-.4685,2.0864-1.0866,1.45-.628,1.4382-.1443.6632-2.2334-1.1145-.483,0,0-1.9181.1345C809.2045,427.6893,810.0016,427.5391,808.7226,427.6838Z"/>
      <g>
        <path d="M628.2809,773.5319c.1476.4658,1.4093,1.7511,1.2641,2.0678a1.1575,1.1575,0,0,0-.1033.8838c.091.241,2.2324.4952,2.2324.4952l1.2751-.458,1.0412-.46c.9809-1.4324,1.2258-1.9908.9894-2.2381a6.9894,6.9894,0,0,1-1.1878-1.601c-.0761-.3222-.3738-1.6788-.4522-1.8261a6.2435,6.2435,0,0,1,2.3222-1.2675c.2369.0769.8119-.0649,1.1313-.94a8.82,8.82,0,0,0,.4856-1.367c.0786-.3941.0084-.7855.4178-1.1019.3963-.3125.72-.549.72-.549s1.1181-1.0215,1.2937-.5509c.1417.4935.1316,1.4437.61,1.94.461.468.9527-.1564,1.53-.5569a6.143,6.143,0,0,1,1.4316-.854c.3214-.071.7294-.484,1.0345-.3152.3225.163.472.4042.9535.966.4722.5691,1.5917.2564,1.43.9737-.0259.1008-.0507.1472-.0973.1772a7.04,7.04,0,0,1,.887.8763c1.6353,1.85,2.7531,1.6957,1.6353,1.85-1.1192.142-1.5826-.11-1.9785.4421-.4132.5645-.0138,1.2917-.3463,1.7674-.324.4687.0721.2249.3157,1.1133.1446.5784,2.1718,2.5554,3.581,3.8663,1.26-.8288,2.6384-1.886,2.1378-3.47a3.7257,3.7257,0,0,0,3.9672-3.0471c-.49-.0984-1.09-1.0493-1.4414-1.4044-.4716-.4845-.9551-.6552-1.7491-1.3022-.7866-.6578-.4385-2.24-1.4-2.5669-.9462-.3351-1.5724-2.2557-2.3536-2.264-.8116-.0086-.8-1.1149-2.2291-1.297a8.2536,8.2536,0,0,1-2.5462-.4994c-1.9081-.8156-2.5377-1.453-3.1642-1.3085-.6519.1471-.46-2.3913-1.924-.3375-1.4514,2.05-1.5863-.81-2.242,1.2444-.653,2.0629.1368,1.4439-.653,2.0629-.8178.6322-1.1331.32-3.3668,1.0936a5.626,5.626,0,0,1-3.5216.279l-2.223.29s-.3292.4764-3.0429.4476a4.9383,4.9383,0,0,1-3.9745-1.477c-.9526-.6566-2.5322-1.1248-3.0052-1.7806a7.8167,7.8167,0,0,0-1.4232-1.7709,6.138,6.138,0,0,1-1.8838-2.0962,13.4521,13.4521,0,0,1-1.4046-3.0391c-.4669-1.274-.3867-1.6518-.7754-2.0961-.2382-.2623-.45-.5035-.6508-.7423-2.1876-2.5636-2.2223-3.1361-2.6565-3.427-.4681-.331.665-1.9154.3579-2.8627-.3174-.9657.0185-1.7594.0354-3.3484.0169-1.6012.6472-1.7406.5066-3.3472a6.9869,6.9869,0,0,1,.3646-3.817c.4821-.8071.7815.1547.9717-1.9041a31.0563,31.0563,0,0,1,1.1653-4.6211c.0049-.4716,1.1376-2.54,1.1478-3.4916a3.3146,3.3146,0,0,0-.7611-2.0842c-.4734-.7943-.9476-.505-1.7052-1.72a.3956.3956,0,0,0-.0384-.0472c-.7859-1.2874-1.1885-2.058-1.5691-2.5607-1.4095-1.9486-5.0661-3.0975-5.3782-3.5878-.3084-.4753.4862-1.4222-1.1082-1.6056-1.5962-.1708-2.38-1.1238-3.4883-.83-1.1265.3015-3.525.6013-5.109.905-1.6116.308-1.4485.6148-3.2145.9212-1.7514.3062-2.3671-1.3009-4.1318-.9985-1.7446.3066-1.1-.8121-3.02-.3525-1.9253.4591-1.1035-.4917-2.8746.29a4.5712,4.5712,0,0,1-1.0082.3144c-.8832.1226-1.2051-.241-2.1941.607-1.2926,1.0961-3.8709,3.3124-3.6738.4331a3.7221,3.7221,0,0,1,.095-.6184,7.3164,7.3164,0,0,1,2.3414-3.97c.3344-.4791,1.7656-1.0984,1.7739-1.8956s.1748-1.44.1814-2.0659c.0069-.65.0322-3.0354-.1121-4.4676-.1424-1.4448-3.0078-2.43-.2747-2.873,1.2781-.2144,1.5244-.7217,1.4169-1.3038-.1064-.6427-.683-1.3752-.7519-1.8878-.1566-.9453-1.2592-2.24-.4534-2.8778.8035-.6371,1.6111-1.5647,1.5994-.462-.0115,1.1247.76,3.5379.7531,4.1571,0,0,1.3029-1.8938,1.1416-2.3817a5.6368,5.6368,0,0,1,.1951-2.7087c.3271-1.1146.6409-.79.8191-1.8938a3.9442,3.9442,0,0,0,.0254-2.3978c-.3144-1.7675-.6147-2.8725.0422-3.99.6427-1.1123-.6433-.1663,1.9344-2.6831,2.5727-2.5135,2.4086-1.414,3.2266-3.1532.8156-1.75,2.3891-1.0961.8263-2.71-1.58-1.6173-1.0978-2.4131-2.5238-2.5789-1.4372-.1738-1.1082-1.1214-3.0332-.0321a23.6759,23.6759,0,0,1-2.72,1.4066c-.6358.3174-4.1455-.8337-4.9447-1.0077-.7935-.1633-1.8-.6543-2.3895-.0254a7.459,7.459,0,0,1-5.7546,2.0111c-1.7572-.1836-2.0534-1.1385-3.0464.3-.96,1.4144,1.14-.9657-.96,1.4144-2.098,2.37-1.7281-1.775-2.1132,3.7971-.3777,5.5815-.0573,5.4253-.8649,6.214-.807.792-.6393.156-1.131,1.43-.4794,1.2713.4613,1.5954-.6578,2.5344a11.0336,11.0336,0,0,1-2.4135,1.8809c-1.3034.48-.0115,1.1441-1.3151,1.5954-2.2352.7754-2.05-.819-3.0046-.5156-.9671.3139.332-1.2616-1.593-.4969-1.9274.7838-3.9994,1.887-3.9994,1.887s.3138-.1633-1.44.4568a12.8893,12.8893,0,0,1-3.8424.4309c-.7971.1693-.153-1.2733-2.3879-.3463-2.2388.9438-.7974-.1591-2.2388.9438-1.454,1.106-2.0861,1.2453-2.8818,1.0909-.7992-.1671-.1528-1.2863-1.5787-1.7847-1.4232-.4866-.6109-1.9157-2.2191-1.9328-1.5821-.0167.3227.316-1.5821-.0167a9.7663,9.7663,0,0,1-3.03-.8292c-1.7379-.97-1.9029-1.1375-1.8977-1.6206.0049-.4721-.7582-3.5047-1.5415-3.8415-.7958-.3256-.6094-3.511-1.4064-3.3566-.8011.1492-.9553-.9692-2.0509-2.2655-1.1027-1.279-1.7436-.49-2.6785-3.2031-.935-2.7285,1.4027,2.7185-.935-2.7285-2.3356-5.4588-2.6572-3.5318-3.1325-4.3411a6.0587,6.0587,0,0,1-1.4051-3.5265c-.1326-2.0627-.2664-4.304.2238-5.4087.4779-1.12.809-1.1161.9748-2.2315a5.8694,5.8694,0,0,0-.2869-3.0352c-.3068-.6343-.78-1.7607-.4583-2.2284,0,0,2.426-1.5645,2.2645-2.22-.1561-.6395-2.02-4.968-1.5368-5.4345.4831-.4705,3.056-2.8373,3.0627-3.4753a19.3713,19.3713,0,0,1,.4778-1.9512v-.037a9.8085,9.8085,0,0,0,.208-1.8728,14.2217,14.2217,0,0,0-.12-3.6649c-.3-1.9255.1861-2.55-1.074-4.1564-1.2588-1.61-2.3751-1.7815-1.8847-2.893.4955-1.105.6647-2.38,1.3161-3.0108a13.6067,13.6067,0,0,1,1.9234-1.4181c1.2866-1.7352.82-3.5072,1.7856-3.6476a10.845,10.845,0,0,0,1.92-.4592c.48-.15.8168-1.6736,1.6132-1.74,1.7574-.1479.9526.49,2.5528.0271,1.5867-.4553,4.6334-1.2341,4.6383-1.6907.0052-.4944.0052-.4944,1.1351-1.4187,1.1242-.9667,2.2284-.3214,2.4117-1.908s.32-.3016.1836-1.5873c-.1531-1.2709.3109-1.266,1.9142-.7769a7.6022,7.6022,0,0,0,3.1908.1836c2.0925-1.8837,4.6539-2.9827,5.6124-2.6465a6.4433,6.4433,0,0,1,2.05,1.1263c.9568.66-.1508.1776,2.5491.84a8.9437,8.9437,0,0,0,3.3379.51c.4784.005,1.434-.3943,2.0917-.4528a5.5133,5.5133,0,0,1,4.1369.682c1.4211.8122,1.5943.0169,2.3813.9726.7888.9755-.1784,1.1322.9451,1.7663,1.1044.6493,1.2528.9794,2.5353.3591,1.2768-.6359.3256-.4874,1.2768-.6359l.9584-.1526s-2.0718,1.2584.1548,1.2821,3.6728-1.55,3.0457-2.045c0,0,1.4329-.4642,1.7542.8149.3037,1.2838.6083,2.1029,1.7295,1.4644,1.1314-.6219,2.0919-1.4239,1.2994-1.9077a3.433,3.433,0,0,1-1.571-2.5659c.01-.9546.0185-1.7546.0185-1.7546l-1.5857-.814s.3292-.9509-.95-1.1273c-1.2614-.1722-4.57.0944-3.497-.6752,2.4118-1.7269,1.932-1.0935,2.7241-.6093.7813.4878,2.2371-.2934,3.0308.0322.7939.3293.3081.3241,1.9112-.1394,1.6-.4658,1.13-1.4145,2.3969-.4573a16.4781,16.4781,0,0,0,4.1372,1.8033,4.4961,4.4961,0,0,0,.6441-1.27c.1593-.6427,1.0108-1.9154,1.441-1.2488,1.4232,2.0768,3.0026,2.0935,3.4962,1.4606a2.7117,2.7117,0,0,1,2.0859-1.0924,13.1565,13.1565,0,0,1,2.711.1963c.4765.1478,3.8121.3443,3.8121.3443l3.182.6762.6347,1.6123s1.8947,1.279,1.7373,1.9127c-.1684.6555,2.05,1.4674,2.05,1.4674a36.1076,36.1076,0,0,0,3.9928-.9126c.4868-.1535,2.2452-1.1024,2.2452-1.1024,2.5615-.769,1.9307-.93,2.5547-.1305.6292.8.4768.798,1.4232,1.2988.9516.4935,2.064.8181,2.5342,1.7826.4615.9527,1.43.6641,1.8963,1.6136.4681.9565,1.42,2.0913,1.5692,2.5648a21.6486,21.6486,0,0,0,1.2375,2.2452l.1623,1.5985a7.4019,7.4019,0,0,0-1.0061,4.2981c-.01.9618-.5424,2.1856-.19,2.55,2.0522,2.1028,1.2485,2.7127,2.5185,3.2085a4.2223,4.2223,0,0,1,1.8938,2.2642,16.3322,16.3322,0,0,1,.78,1.5929,6.9674,6.9674,0,0,1,.7718,2.3988c-.01.9562-1.1463,2.707-.3551,2.0774l2.2123,2.5676a3.949,3.949,0,0,0,1.4314.0151c.6373-.1476,1.6008-.6127,1.754.6642a25.4977,25.4977,0,0,0,.76,3.5121c.1614.4935,1.11.7977,1.5859.9726.4694.1706,1.7446.1836,1.7383.8149l1.9425-1.898a7.6128,7.6128,0,0,1,.6507-1.9028c.4971-.9464,1.4746-2.3775,1.4746-2.3775s.9784-2.0481.323-2.2206c-.6271-.1732-.296-.3246-.6016-2.5636a6.282,6.282,0,0,1,.0338-3.1926c.1722-.8.4811-.4674.1793-1.4293-.3206-.9641.0068-.6312-.9461-1.6114-.9411-.9611-.1341-1.7459-1.2524-2.3954-1.1093-.6542-.6274-.9616-1.0891-2.5646-.463-1.6058.3092,2.08-.463-1.6058-.7441-3.6786-1.4011-3.3594-.7324-4.7952.6477-1.4285,1.1264-1.57.81-2.529a10.1881,10.1881,0,0,0-1.72-2.5735c-.4706-.6554-2.0643-.82-2.5312-2.7305a17.0579,17.0579,0,0,1-.5968-3.3589c-.1377-1.4485-1.43-.9793-.1226-2.872,1.2922-1.9077.31-.329.1836-2.8785-.1262-2.5454-.7666-1.7561.1893-3.3393.9819-1.5864,2.0993-2.5308,2.6019-3.9561.4935-1.4451-.3106-.8,1.7734-2.5412,2.0932-1.7384,4.6828-3.9571,5.6419-4.5621a18.8816,18.8816,0,0,0,3.37-2.5164,11.77,11.77,0,0,0,1.9474-1.8782c.7952-.9629.8034-1.7628,2.0909-2.6965,1.2854-.946.6495-1.9145,2.4053-1.2511a5.4279,5.4279,0,0,0,3.516.1967c.6327-.1528-.6737,1.4194,1.7637-1.5821,2.4113-3.0071,3.3767-2.9973,3.7059-3.6262.315-.64,2.7377-2.2121,3.046-1.725.3141.4791.309.9511,1.4263.3285,1.1228-.6257,2.5734-1.582,2.2509-1.7353-3.0185-1.4625-3.81-1.9511-3.162-2.5742.65-.6312-.7746-1.1179,1.1278-1.2643,1.9258-.1542,1.8428.48,2.5545.027,1.7707-1.0994,3.3771-1.8716,3.5484-2.5074.1544-.6524.4847-1.7506.4847-1.7506-2.38-1.1515-2.8666-.3558-3.01-1.4748a3.814,3.814,0,0,1,.3358-2.0648s1.2774.327.9628-1.2739a11.09,11.09,0,0,1,.0337-3.1829c.0085-.7971.0169-1.598-1.4123-1.4576-1.4295.1443-1.1161-.1672-2.3816-1.1355-1.2529-.9641-2.8439-1.4607-1.73-1.7656,1.1213-.3012,2.7039.9835,2.7174-.2842a2.3949,2.3949,0,0,0-1.0994-1.9429,4.664,4.664,0,0,1-1.25-2.4021c-.1343-3.0409-2.0357-3.6927-.4435-4.1469,1.6012-.4705-.198,3.9768,2.2568-.61,2.43-4.5989,1.494-6.206,2.61-6.678,1.1351-.4605-.5106,3.0267-.3731,5.5806.1288,2.554-.6515.9485.1288,2.554.7948,1.6014,1.9052,1.2879,2.0457,2.5738.1531,1.2657-2.4132,1.8771-.8182,3.173,1.5681,1.2933,2.8517.5191,3.02-.7634.1819-1.2663-.2933-1.909.84-2.7027,1.1248-.7726,1.6042-1.1,1.6091-1.5642.0051-.48.9635-1.1224.66-2.3954-.3144-1.2706-1.4232-1.77-1.4135-2.7256.01-.9575-.4705.3122-.6175-1.5954-.0688-.8666-.122-1.517-.1769-1.9822.3779.7615,1.1453,1.7717,1.7783,1.6741a9.5058,9.5058,0,0,1,1.9135-.1458c.48.005.1563.4928,1.2822-.292,1.1177-.7886,4.9688-3.3008,4.3464-4.4293-.619-1.104.336-1.5926.5165-2.7087.1587-1.1159,1.1292-2.0488.6626-3.0091-.4736-.9683-2.2233-.3487-2.21-1.6248a4.4122,4.4122,0,0,1,.8257-2.8648,7.0543,7.0543,0,0,1,2.0722-.9286l-.5118,3.1763,2.4241-1.7063a2.409,2.409,0,0,1,1.2717-.8066c.967-.2985,1.1324-1.5724,2.2539-1.403,1.1112.17,2.23-.1345,3.1922.0337.95.1687-1.1342,1.7358,1.9131-.3035,3.0518-2.0453,4.4671-.5528,5.1123-.7392,1.6011-.4551.7955.1628,1.6011-.4551a10.7117,10.7117,0,0,0,1.7774-2.3873,2.2722,2.2722,0,0,0,1.7606-.4619c.6321-.6187,2.8848-1.2447,2.5731-1.8937-.3265-.63-.6313-1.1164-1.2542-2.2257-.6378-1.1319.3238-.7956-.4577-2.4058-.775-1.605-1.7537.4605-.775-1.605.9805-2.056,1.1258-1.2568,1.1443-3.0124s.0288-2.7113,1.6319-3.4906c1.6-.7952,1.3061-1.5839,2.9038-2.8423,1.6076-1.2522-1.2694-1.1362,2.1-1.8847,3.3463-.7762,1.4231.6529,2.5352.1776,1.1248-.4718,3.0415-.1185,3.0486-.7644a8.5428,8.5428,0,0,1,1.1416-2.3814,2.4922,2.4922,0,0,1,2.7146-1.0889c.4874.0052,2.886-.2946,2.886-.2946l4.1533-1.22s.7968-.15.9633-.62c.1591-.489.8175-1.9137,1.2835-1.4367.4737.5,2.2194,1.4682,2.2431-.111,0,.01.0016.02.0015.0295.6219-2.9726.3558-2.9161-.3008-2.7045l-.002-.0192c-.008-.2129.0219-.3529.1685-.3192,1.4382.3413,3.4218.75,4.1556-.1136l1.6145-1.8938s1.5762,1.7609,2.0595,1.4525a12.9758,12.9758,0,0,1,3.5228-1.2384,19.4581,19.4581,0,0,0,2.88-.7658c.6341-.1561.4864-1.7511,1.1314-1.7446.63.0067-.3154.1558.63.0067.9654-.1442.6208,1.6.6208,1.6-.6495,1.1107-.3231,1.7445.7959,1.447a12.4623,12.4623,0,0,1,3.5129-.7754c.6286.1849,1.7415.6772,1.5648,1.46-.1607.8016.3178,1.4462-1.4429,1.4271-1.75-.0185.6508-1.8995-3.1908-.1923-3.8522,1.7271-3.0343.9235-4.0011,1.0674-.9568.1485.0115-1.11-2.0743.3023a33.0846,33.0846,0,0,0-4.1789,3.4682c-1.443,1.253-1.62,2.3692-2.7409,3.1536-1.1362.7805.3,1.1284-.19,2.4-.4986,1.27-.6561,2.2208.6215,2.2344,1.2751.0136,2.05.9771,3.3342.6735,1.2823-.3153,3.83-.5976,4.4825-1.3832.6395-.7909,3.85-2.5048,4.1964-3.7923a3.2272,3.2272,0,0,1,1.765-2.3678,13.8513,13.8513,0,0,1,3.5265-1.23,43.9272,43.9272,0,0,0,5.4427-1.219c1.1165-.32,3.5006-.93,4.9532-1.24,1.4308-.3016,4.8031-1.5464,5.2879-2.1714a13.5826,13.5826,0,0,1,2.0932-1.7258l2.714-.1377a7.8056,7.8056,0,0,1-2.063-1.7772c-.4683-.8017.8276-2.7019-.1412-2.4-.9475.3151-1.7331-.8034-3.5023-.0371-1.7712.79-2.4051,1.0959-2.8923,1.7284-.4783.634-.6171-1.2819-1.7331-1.2937-1.13-.0115-3.6825,1.0788-4.8126,1.2244-1.1193.1626-1.8752-2.4167-1.8752-2.4167l-2.8894.1351a4.4023,4.4023,0,0,1-2.5166-2.1034,7.96,7.96,0,0,0-2.3814-.9764,8.2771,8.2771,0,0,1-1.4231-1.2941,3.75,3.75,0,0,1-.141-1.7582s-.1377-1.4321-.6224-1.4373c-.4786-.005-1.6233-1.6527-1.8983-2.094-.7734-1.2756-1.5586-2.4091-1.5586-2.4091s3.5329-2.6694,3.231-3.6364a3.8088,3.8088,0,0,0-1.2606-2.0784c-.627-.4788-4.633,1.703-4.4672,1.074a1.4073,1.4073,0,0,0-.794-1.45,18.47,18.47,0,0,1-1.5809-1.4483s5.7466.2157,6.7187-.5781c.9547-.7829,2.0867-.9375,3.0462-1.8708.9613-.9526,2.58-1.89,2.7372-2.84.1729-.9656-2.0607-1.473-2.6829-2.2643a16.6866,16.6866,0,0,0-2.3667-2.57c-.9565-.8218-4.4533-1.1723-4.4533-1.1723a5.2166,5.2166,0,0,0-2.3934-.1919c-.6358.3147-4.3166.9182-4.8,1.2408-.4888.3-.0016.1479-1.6026.769-1.6009.6245-1.9268,1.09-2.7187,1.248a30.7246,30.7246,0,0,0-3.1987.7624c-2.2381.6069-2.5614.1314-3.5068.9182a21.9678,21.9678,0,0,1-4.3479,2.6693c-1.4377.6336-.4852.3073-2.8934,1.8912a68.8113,68.8113,0,0,0-5.4643,4.4006c-1.2878.95,1.1294-1.1047-2.41,1.7383-3.534,2.82-5.3015,4.4032-5.3015,4.4032-.66,1.4088,1.4566-3.5,1.4566-3.5s3.0579-2.0486,3.6939-2.5021a19.8635,19.8635,0,0,0,2.74-2.6885,13.4459,13.4459,0,0,0,1.6183-2.2215c.4886-.9356.18-1.2753,1.2962-1.576,1.1317-.3089,2.8809-.9211,3.3735-1.7121a15.2693,15.2693,0,0,1,2.1066-2.8628c.4852-.3084,2.0931-1.2419,2.0931-1.2419a6.2475,6.2475,0,0,1,1.4331-.311,5.3641,5.3641,0,0,0,2.2391-.1339c.4692-.3043,3.2-1.8688,3.2-1.8688l1.9365-2.219a24.2513,24.2513,0,0,1,2.9038-3.0083c.4675-.1434,4.0056-1.7144,4.0056-1.7144l2.0813-.6076s7.98-.23,8.6125-.2222,1.2645-.3034,2.5648-.4524c1.2634-.1531,3.6686-1.0789,4.1274-.7605.2936.1885.819.5968,1.3222.9572.369.2786.7172.526.9067.6636.4766.3106,2.0793-.2914,2.72.0289.628.3121,4.6238-.2645,4.6238-.2645l1.5839,1.12,5.8865.0623a11.1858,11.1858,0,0,1,3.2059-.5975c.7973.1562,5.1291-2.1807,5.6093-2.3261.4727-.1536,1.8971.3373,2.8762-.93.97-1.2688,5.6034-2.6593,5.6152-3.7692s2.268-2.5127,2.5778-3.0048c.3381-.4793,2.081-.4608,2.89-.5991.7886-.15,3.3462.0354,4.4621-.5984,1.1247-.6266,3.2055-1.4013,3.6877-1.0829.4765.33,4.3167-1.2305,4.3167-1.2305l2.7334-2.1979,1.1418-2.2228-2.0438-2.4085-.7754-1.9223c.816-1.9137,2.568-2.2006,2.4179-3.6365-.1367-1.4443-1.0918-1.7763-.9187-3.0507.1781-1.274,1.6162-1.8884.3472-2.6981a37.4726,37.4726,0,0,0-4.4418-2.4415,24.7666,24.7666,0,0,0-4.2978-.8577c-.9494-.1574-1.76,1.106-1.932,1.5768-.1521.4821.4668,1.7719-.6456,2.0659-1.121.3214.01-.9431-.2923-3.6728-.2776-2.7135-.9245-2.5426-2.2016-2.5562a16.8823,16.8823,0,0,0-4.4688.7489,32.035,32.035,0,0,0-3.0567,1.7043l-2.3982,1.0993s-.1644.4705-1.7708,1.4165a22.3086,22.3086,0,0,1-4.3231,2.1853,3.55,3.55,0,0,1-2.3812-.98c-.8063-.8057-.63-1.7625.1729-1.9205.8093-.13,4.6272.3741,4.7881-.4214.1624-.7912,2.0909-1.42,2.261-1.8787.1589-.4811.9544-.322,1.4415-1.1133.4883-.78,1.2762-1.4139,1.76-1.1027a5.65,5.65,0,0,0,3.67-.1085,9.06,9.06,0,0,1,2.889-.7737l2.5469-.9246,2.2526-1.0938a15.8317,15.8317,0,0,1-3.1695-1.4679c-1.0993-1.6018.3506-3.3418-1.2489-3.2006a11.0575,11.0575,0,0,0-3.9941.7585c-1.4381.6145-1.4462,1.4117-2.232.2894s-.3-1.9255-.7737-2.3974c-.4716-.4808-1.0889-2.4022-1.8981-1.448-.8053.9436-1.1188.7774-1.9276,1.8744a2.5942,2.5942,0,0,1-2.2515.9511,11.8837,11.8837,0,0,0,.8212-2.23c.005-.4721-1.5839-.98-2.2151-.9863-.6446-.0069-1.274-.8065-1.7446-.482-.48.3-.9264-3.2164-.9264-3.2164a16.2521,16.2521,0,0,0-1.2586-1.7622c-.7908-.9586.1589-.6359-.7908-.9586-.9584-.3273,1.1125.0115-.9584-.3273-2.0711-.3508-.01.9548-.6411.9482-.6339-.0068-1.0974-1.9261-1.9017-2.0889-.7883-.1791-1.0745-2.5761-1.7216-2.5824-.6287-.0067-.4652-1.7527-1.5791-1.4478-1.1195.3015-1.733-1.2942-1.733-1.2942s-2.2152-1.1457-.1516-1.429a32.4485,32.4485,0,0,0,3.1973-.6117s1.2993-2.2257.5093-2.2341c-.7972-.0085-.6235-2.7135-1.5762-3.0446-.9463-.3188-1.1026-1.288-2.0457-2.0943-.943-.8034-.9312-1.9241-.4581-2.0659.482-.1613,2.5544-.6232,1.2941-1.5953a22.566,22.566,0,0,0-3.4911-2.4235c-1.2613-.651-1.2563-1.131-2.2079-1.3076-.955-.1607.0084-.7957-.773-1.9216-.7892-1.12-.63-1.7476-1.427-1.7561-.79-.0083-1.1141.6178-1.903-.5072-.7854-1.1185.0489-4.6166-.4311-4.6216-.2181-.0024-.5286-.2616-.8448-.5316-.2091-.3194-.6721-.9437-1.52-2.0544-3.2986-4.3428-.6293-.7837-.768-1.4388-.1738-.6394.0137-1.2878-.482-1.5986a6.4694,6.4694,0,0,1-2.2115-1.454c-.7873-.9792-.434-2.8818-1.5638-3.06-1.1147-.15-.7887-.8013-1.0943-2.0808-.2984-1.2789-.0894-2.7809-.7752-2.0774-3.0644,3.154-2.2588,3.0156-3.0751,4.1054-.8035,1.1012-.4777-.8795-.79,1.028a.1919.1919,0,0,0-.0129.0779c-.3462,2.0725-2.5595.6176-2.722,1.734-.182,1.1078.3035,1.2912.7715,2.2439.4558.96,1.25,1.274.6123,1.912-.6393.64-1.8958-1.1373-1.9145.6263-.0185,1.7477-1.4729,2.216-1.1484,2.8571.3.638,3.5195-.9246.7695,1.2854-2.7339,2.1985-1.3268,4.809-2.4262,4.5952-1.7453-.3422-1.5575-3.5277-2.8555-2.8957-1.2752.6138.4885-.7991-1.2752.6138-1.7635,1.4231-.6312-.1621-1.7635,1.4231a2.4963,2.4963,0,0,1-.66.7425c.06.04.1184.1607.168.5211.1389,1.2848-.9942.7165-1.9354,1.0972-2.5561,1.0947-1.7434-.3328-2.5561,1.0947-1.7617,1.2521-.3017-1.5971-1.4091-1.7683-1.1159-.1774.0137-1.2822-1.7551.4581-1.7952,1.7242-.3432.9471-1.7952,1.7242-1.424.7891-2.5423-.027-1.5777-1.6051.9823-1.58,1.7879-2.3674,1.3255-2.5314-.4854-.1517.0254-2.3891-1.0839-3.3636-1.1168-.9672.6427-.9485-1.1168-.9672-1.7428-.0185-5.2973,1.6642-5.5986,1.8593-2.0934,1.2531-.0288,2.7057-2.0934,1.2531-2.0607-1.4637-2.666-3.8564-1.557-3.5235,1.1108.3251,1.5838.972,2.3972.6565.7866-.31,1.4347.1807,1.59-.6143.0833-.34.1668-.191.2206-.11a8.6847,8.6847,0,0,1-.3525-1.3344c-.6264-2.5554-.192,2.3961-.7874-1.1147-.6-3.5329-1.895-3.0559-2.0353-4.1629-.1424-1.123-.4615-1.6138-.4563-2.097.005-.4794.8175-.7763.8361-2.5319.0187-1.7669-.6258-1.6081-.6155-2.57.01-.9519-2.0833.3022.1862-2.7059,2.2658-3,2.2793-4.2767,2.2793-4.2767-2.0725-.6666-1.5857-.8209-2.7014-.8327-1.1325-.0115-.6542.6427-2.7212.7754-2.0774.13-.784-1.5967-1.2759-1.4475-.4676.1536-3.1829.596-3.1829.596l-1.4263-.3277a6.268,6.268,0,0,0-3.3433-1.3042,9.5647,9.5647,0,0,1-1.2555-1.923c-.4591-1.931.18-2.3892-.6036-2.725-.8076-.3416-.9431-1.77-2.0626-1.7818-1.1095-.0115-2.5446-.6534-3.033-.5229-.4658.1721-.1392-1.2553-.4455-1.75-.316-.4734.0154-1.4417-1.4078-2.0752-1.44-.6657.1706-2.2373-2.8638-2.1108-3.0165.1345-2.7066.7675-2.7066.7675a6.5567,6.5567,0,0,0-4.95-.1952c-1.1153.4514-.8034.4548-2.24,1.0781-1.4485.6153-.3481,1.5856-1.4485.6153-1.0989-.9674-1.094-1.4347-1.8842-1.61-.8026-.1512-1.1006-.6414-1.9206-.163-.7983.4546-.14-.98-1.4293.1276-1.2946,1.1236-1.2961,1.27-1.9167.1462-.6186-1.128.0186-1.7524-.9433-1.9282-.9527-.173.8192-1.902-2.0643-.8223-2.87,1.0942-3.5229.9287-4.1463.4271-.642-.4779-1.1013-2.0767-2.3694-1.6068a8.9789,8.9789,0,0,0-2.8906,1.08c-1.1189.7886-2.5506.4442-3.3738,1.5615-.7967,1.1133-.946.1492-.97,2.3758s1.2625,1.29,1.5482,3.215a12.4958,12.4958,0,0,0,1.2526,3.5174c.4645,1.2808,1.6011-.463.4645,1.2808-1.129,1.7368-.1963,3.51-.69,4.46a15.0173,15.0173,0,0,0-.8245,2.2183c-.3344.9559-.3328.8015.4651,2.0774.7839,1.2845,2.0509,2.2566,2.0391,3.3661-.0115,1.1307.3054,1.4347.1287,2.2419-.1607.7983.945,1.6063,1.087,2.2381.1576.659.78,2.58.1325,3.0415-.65.4732-2.7063.1183-2.88.9206-.4983,2.3929-.1792,2.3963-1.4841,3.8131a5.5621,5.5621,0,0,1-2.5643,1.7291,6.4174,6.4174,0,0,1-.8155,1.743c-.4925.64-2.9021,2.6841-1.779,2.8537,1.1143.1783,3.97.5225,5.7272,2.1347,1.7313,1.6156,4.44,1.3237,4.4331,1.9567-.0068.6376.7939.4921,1.5724,2.0985.784,1.5966,1.8823,2.4054,2.1921,3.5291.3214,1.1179.7995,1.2816.7913,2.0707a9.8631,9.8631,0,0,0,.135,1.61c.1357,1.5915,1.1024.6456-.3731,4.2925a9.2668,9.2668,0,0,0-.3417,3.5121c.2928,1.1133.6051,2.5468.6051,2.5468s-.1691,1.6075-.6523,1.9069c-.489.3214-.0187,1.7684-2.2716,2.8542-2.2369,1.0747-3.5246,1.4049-4.332,2.3643a22.4908,22.4908,0,0,1-2.7478,2.662,12.9965,12.9965,0,0,1-1.2805,1.1087,13.1987,13.1987,0,0,1-2.8774,1.5658c-.6449.1518-2.2358-.1781-3.5183.2762-1.275.4661-.9343-1.5987-2.3883-.4936-1.4482,1.0912-1.6042.93-1.6177,2.21-.0135,1.2649,2.8393,2.9037,2.6821,3.3628-.17.4821-.1666.176-.0221,2.0919a6.87,6.87,0,0,0,.6019,2.8794c.309.7878,2.3782,1.127,1.5724,2.2366-.8128,1.101-.1716.961-.5072,2.3881-.3342,1.4312.4632,1.76.2833,3.5108a8.6043,8.6043,0,0,0,.7549,4.1582c.3035.6479,1.7572-.3066,1.9071,1.1374.1388,1.4284,1.0888,2.2389.9067,2.8751-.1573.6406-1.1055.3064-1.5886.7794a22.7643,22.7643,0,0,0-1.2976,2.06c-.4935.6395-1.1313,1.1048-.6542,1.5824,1.4194,1.4531,2.2065,1.7867,1.8859,2.5879-.3274.7928-1.6262,3.007-1.9385,2.3659a5.3438,5.3438,0,0,0-2.0592-1.612c-1.5858-.813-1.4253-1.6161-2.5441-.1856-1.14,1.4148-1.13.46-1.1468,2.0492-.0169,1.5933.7908.9633,1.4165,2.567.6161,1.5967-1.4232-1.9248-2.8476-2.7455a3.9128,3.9128,0,0,0-3.5006-.1863c-2.4089,1.2419-3.0529,1.235-3.691,1.8669a3.4528,3.4528,0,0,1,1.1226-1.2564,4.5531,4.5531,0,0,0,1.3067-1.5839c.651-1.2684.6359.17.651-1.2684.0153-1.4347.5019-2.06-.1409-2.233-.6449-.1735-1.1167-.8048-1.9088-1.2961-.7919-.4884.9653-.6237-1.088-1.2888-2.07-.667-2.3613-1.8879-3.02-1.9416-2.0774-.1877-3.531,1.8723-2.0774-.1877a11.6283,11.6283,0,0,1,1.6151-1.8327c.4276.318,1.1355.7116.0662-.0639.0561-.0775-.0129-.1011-.2107-.1538-2.0645-1.46-1.5724-2.0976-2.5365-2.2617-.9619-.1655-.4769-.6428-1.4192-.8123-.9619-.1734-.6438-.9653-1.2675-1.6106-.6258-.6363-.9552-.7994-.7838-1.2762.17-.4862.3175.1492.65-1.4359a8.7052,8.7052,0,0,0,.3426-2.39c.0085-.7976,1.1386-.7857.02-1.9063a5.254,5.254,0,0,1-1.07-3.2179l.17-1.7348s-1.2647-.987-1.2581-1.6068c.0068-.6455.0235-2.22.505-2.5467a4.1827,4.1827,0,0,0,1.3029-1.9006c.1555-.6327,1.59.6474-.6122-2.3967-.2763-.3818-.4737-.6427-.6363-.8339.0086-.812.8932-.1842-.1425-.9493a4.7608,4.7608,0,0,0-3.34-.9715c-.9526.1368-1.9179.2852-3.1971.4382-1.2773.1451-3.3463.2859-4.14-.21-.792-.4725.0167-1.5892-1.4268-1.6044a22.1975,22.1975,0,0,0-3.1907.1286c-1.5964.15-1.2581-.3414-2.8747.4415-1.5925.7794-.0018.1586-1.5925.7794-2.37-3.37-1.2314-4.3209-3.4815-4.17-2.2266.1073-2.2438-.0785-2.852-.3517-1.7491-.8073.6427-1.115-2.848-2.27-3.5-1.1542-3.81-1.1575-4.61-1.0073-.7988.1538-1.3887.4105-1.9293-.1791-1.8842-2.1013.3585-2.224-2.1912-3.3687-2.539-1.1477-2.3794-1.1467-2.69-1.7885-.3085-.6367-1.5861-.9595-2.0611-1.293a13.052,13.052,0,0,0-2.22-.8282l-1.756-.4952c-1.9011-.8127-1.891-1.775-2.8546-1.7852-.95-.01-1.2516-.9652-2.3724-.6563-1.12.3138-1.4505.94-2.23.3021-.8034-.6551-.482-1.4479-1.42-2.096-.957-.6441-.9536-.9612-1.9033-1.1378-.9549-.1687,2.0721-.9376-1.9059-.1788-3.9941.7656-4.4887.1111-5.6029.7485a23.3233,23.3233,0,0,1-3.5173,1.553,10.012,10.012,0,0,1-2.8748.437c-.7972-.0085-2.2285.1424-1.9027-.4876.32-.646.0052-.4836,1.1273-1.5782,1.1206-1.1171,1.61-1.4286,1.4481-1.91-.1385-.48.0034-.3214-1.0889-1.9227a8.8393,8.8393,0,0,1-1.3985-2.891,6.7739,6.7739,0,0,0-1.0875-2.89c-.9527-1.1085-.6084-2.0667-.9335-2.8632-.3036-.8,1.284.0136-.7825-1.4347a7.3652,7.3652,0,0,0-3.338-1.6438c-1.4245-.4955-1.7858-.84-2.2218-.658-1.9147.7728-3.8393,1.87-3.3614,1.5537,0,0-.2835-3.6653-.6036-3.03a18.8565,18.8565,0,0,0-1.8932-2.1c-.6255-.49-1.5858-.8148-.9485-1.4416.6374-.6356,1.3067-1.1085,1.3136-1.7535.0065-.619.0133-1.26.0252-2.3863.0115-1.11,1.4564-3.1743.9933-4.61a5.9887,5.9887,0,0,1-.4526-2.4029c-.1483-1.5918-.7825-1.4389.1913-2.3844.9616-.933,3.0442-1.72,2.8878-2.6693-.1419-.9713,1.7849-2.224,1.6412-3.0218-.1582-.7913.9527-.4726.9766-2.7086.023-2.22.5237-2.7478.9888-2.8556a7.5454,7.5454,0,0,0,3.3666-2.0368s.4989-1.1133.0185-1.7446c-.4717-.6427-.619-1.1362.5023-1.4366a23.7026,23.7026,0,0,0,2.563-.9366l1.4431-.7815s.8139-1.58-.1463-1.9154a.8035.8035,0,0,1,.0167-1.5812c.7988-.1548,3.1938-.7671,3.1938-.7671l1.45-.3017c-.7911-1.7642-1.4183-2.7337-.7826-2.5613a15.6111,15.6111,0,0,0,2.7038.0286,9.8351,9.8351,0,0,0,1.4365.8124,9.65,9.65,0,0,0,2.7192-.6169l1.289-1.2546,1.7625-.1469s1.2868-1.5766.6508-1.9075c-.6273-.3122-2.0626-.9823-2.3727-1.7819-.3051-.7958.3252-.6263-1.0921-1.7594-1.4175-1.14-1.7445-1.6008-2.8621-1.4643a5.2007,5.2007,0,0,1-2.0795.1357c-.6271-.1643.5039-2.2225-1.2427-1.761-1.7675.4649-2.7416,1.4127-2.8783.7588-.1687-.6335-.3051-1.4462-.3051-1.4462a8.36,8.36,0,0,0-2.0639-.9772c-1.443-.4873-2.5419-1.7709-1.7353-1.2913a40.5766,40.5766,0,0,0,5.5506,1.4984s-.6411.6346-.3255.9588c.3121.3168.6374-.4727,2.0659-.2984a3.563,3.563,0,0,1,2.2276,1.13,8.3422,8.3422,0,0,0,2.8733.676,6.3031,6.3031,0,0,1,2.0506.97,7.9991,7.9991,0,0,0,4.304.2191s-.3139-.4861.3328-.6276c.6321-.1748,1.7661-.472,1.7661-.472s.32-1.9072.3246-2.39c.0052-.48-.1254-2.07-.1254-2.07,1.7607-.4646,2.2252.3366,2.2252.3366l1.9086,1.2969,1.5941.0169s2.5525-.6027,2.548-.1315a6.5022,6.5022,0,0,0,1.9189-.4536l2.7251-1.8938,2.2477-.769s.1677-1.433.651-1.7484a33.0541,33.0541,0,0,0,2.4186-2.3725l.1641-1.274,2.261-1.8717.3362-1.4384-.12-3.0408-1.596-.0169a5.191,5.191,0,0,0-2.234-.6623,1.25,1.25,0,0,1-.8067-.2984,5.9336,5.9336,0,0,0,4.3418-.7663,17.674,17.674,0,0,1,1.9122-1.7345c.9722-.6354,1.5524-1.3913,2.1072-1.7331a8.4685,8.4685,0,0,0,2.4-1.9086c1.4586-1.4077.9789-1.2579,1.62-2.2022l.6553-.9527s-1.42-2.2419-1.8846-2.2469a11.0013,11.0013,0,0,1-2.2307-.8283s.0135-1.2808.4778-1.4218c.4935-.1576,1.6134-.47,1.6134-.47a4.9766,4.9766,0,0,0,2.7073.6617l1.4347-.6178,1.7472,1.4683c.7736,2.2276,1.2586,1.7612,1.73,2.4039a9.9611,9.9611,0,0,0,2.2266.6542s.7848-.15,1.2664-.3033l1.4577-1.4152a1.7779,1.7779,0,0,0,1.7446.324c1.1263-.2936,1.2417.6934,1.9116.8314,1.5947.3309,1.6-.1492,1.9237-.7907.3183-.6274-1.259-2.2371-1.259-2.2371l-1.26-1.4454-1.73-1.7742c-1.5838-.9722-.6172-1.4372-2.2273-1.2877-1.5961.1254-2.868-.1969-1.2564-.5088a14.79,14.79,0,0,0,1.5981-.2965.5773.5773,0,0,0,.5224-.5208,1.679,1.679,0,0,0,.1115.2141c.9323,1.5986.9339,1.4409,1.5773,1.6054.6289.1662.957.6413,1.4232.8129a14.8385,14.8385,0,0,1,1.89,2.2469c.1544.4854,1.062.0973,1.4334.8076.9327,1.77,1.5738,1.9358,1.5738,1.9358a15.436,15.436,0,0,0,2.841,1.7854c-1.24-2.2442-1.583-1.1265-1.24-2.2442.3258-1.1109-.6238-.633.3258-1.1109.9546-.4648-1.9066-.3375.9546-.4648a8.1066,8.1066,0,0,0,4.1663-1.0735c.1765-1.43-1.5807-1.2935.1765-1.43,1.748-.147,1.9126-1.1018,1.9126-1.1018l.9819-1.5784s.7974-.1571,1.5981-.3082c.7987-.1378.9549-.4966,1.6094-1.4136a6.9237,6.9237,0,0,0,1.1469-2.2344c.97-1.73,1.3006-2.6931.67-3.0091-.6341-.3356-2.6986-1.3132-2.6986-1.3132a6.4422,6.4422,0,0,0-1.74-2.08c-1.0986-.823-2.2322-.5108-2.37-2.1061-.146-1.5988,1.4388.6464-.146-1.5988-1.56-2.2546-.9324-1.4518-1.56-2.2546-.6328-.8035-1.2928.1528-.6328-.8035.6513-.9367-.7855-1.1185.6513-.9367,1.4336.1579,2.0728-.4651,2.5438.0269.482.4692.9447.6524,1.4282.3244.487-.304-.135-1.1219.3452-1.2764.482-.1568.7659-.7575,1.4346-.62,1.6048.3385,2.07-.2826,2.4017-.7708,0,0,.9858-1.9039.5035-1.7425-.4867.1525-1.4371-.9667-2.0708-.8182-.6345.151-1.2855.94-1.43-.0152-.1545-.962-2.0659-.6572.0169-1.5978,2.0721-.933,1.9152.02,2.0721-.933l-.6083-2.25c-2.2151-1.1336-3.4957-.6676-4.7746-1.1608-1.27-.4846-1.1122.1469-1.901-.6578-.7885-.8126-.1492-1.4369-.78-1.5984-.6359-.1644-3.0294.4476-2.5594-.0271.4921-.4786.4973-.9641,1.6074-1.1,0,0,.3469-1.9153-.2931-1.9221a12.6666,12.6666,0,0,0-2.7224.9348,7.4851,7.4851,0,0,1-1.9127-.02c-.4769-.1721-.7818-1.4512-2.21-1.4662a28.8406,28.8406,0,0,1-3.038-.3574c-.4766-.005-2.7138.2965-2.7138.2965s-2.0609-1.14-2.5461-.8242a20.4817,20.4817,0,0,1-3.5019.76s-.1389-2.0744-1.6051-.4965c-1.4445,1.581-.1621,1.4486.4684,1.4553l.45,2.8624c.2968,1.9175-1.4413,1.1018.2968,1.9175,1.7435.8034,1.7637-1.099,2.8618,1.2986,1.0886,2.4134-.6458,1.2778,1.0886,2.4134,1.7437,1.1442,3.355-.2817,1.7437,1.1442a9.5949,9.5949,0,0,1-3.0566,1.874s-.6269-.4866-1.5994.2964c-.9526.7867-2.0544-1.7668-2.23.2927-.1886,2.0752-.0634,2.9735-.349,3.3493-1.2994,1.7463-1.2926,1.0965-1.3111,2.8563-.0186,1.7477.9381,2.2448-.34,2.5447l-1.2862.3106-1.2781,1.4139c-1.456,1.1092-1.7886,1.1057-2.261,2.0612-.4831.9487-.65.2976-.1836,1.5839a2.9486,2.9486,0,0,1-.0237,2.2463l-2.23.2856c-2.24,1.2455-2.6169.8158-2.8759,1.5551-.8354,2.238-.6844,3.0332-.8354,2.238-.1436-.7987-.4547-3.0486-.4547-3.0486a16.4442,16.4442,0,0,0-1.8793-2.564s-2.7309-1.9316-2.8464-2.4166c-.4508-2.09-.2744-2.8843-.5968-3.843-.3087-.9432-1.2617-1.2864-.2966-2.0725s.9785-2.0621,2.0945-1.42c1.1042.6564.6057,2.4,1.1042.6564a2.8447,2.8447,0,0,0,.5039-1.7379,10.2263,10.2263,0,0,0-1.257-2.4195l.02-1.9221-1.0921-1.7514-.9455-1.7653-1.5975.2964-2.0627-1.2868-1.9064-.6657a1.67,1.67,0,0,0-.7885-.6474,2.3938,2.3938,0,0,0-2.7086-.0287c-.9562.7828-1.6079,1.2677-1.7684,1.9-.1714.6288-1.6069,1.12-1.4577,1.5771.6244,1.9211.171.6132-.8034,1.5817-1.779,1.75-2.1036,2.2162-2.2731,3.1591a10.4782,10.4782,0,0,1-.4973,1.77,11.9863,11.9863,0,0,1-.283-3.364c.1748-1.4288.0252-2.3819.349-2.8586.3169-.4714,2.7263-.7795.4971-1.7537-2.2292-.9822-3.0848-.6395-3.0121-1.3167.171-1.7454,1.2835-1.7337,1.9244-1.5609.6381.1458,1.7286.76,1.4383-.1513-.6172-1.9282.0253-2.3936-1.2412-2.5656-1.288-.1685-1.4284-1.4461-2.0641-1.1466-.634.3214-1.749-1.1208-2.2258-1.2923-.4694-.1645-.9377-1.1277-1.5681-1.293-.6644-.1623-1.1186-1.13-1.7716-.1741-.6427.9369.8832,1.2357-.4935,1.7507-2.0687.7757-3.4741-.1945-4.3-.2033-2.0728-.0219-3.0106-1.3161-2.2063-1.9456s-3.8624,2.5115.8058-.63c4.6536-3.1292,4.9691-3.459,5.6035-2.9727.6272.4947,1.2685.6512,1.4416.0153.1592-.6279.5-2.2215-.306-2.5553-.7813-.3137-.6173-1.4339-2.0416-1.7695-1.4261-.34.1615.4729-1.4261-.34a6.6158,6.6158,0,0,1-2.701-2.4141c-.9307-1.128-1.8823-2.2478-1.8776-2.7268.0052-.4883-1.2432-.0211-1.4244-.5035a6.021,6.021,0,0,1-.1293-3.3417c.0085-.7971.33-.3214-.4669-1.7618a7.07,7.07,0,0,0-2.3518-2.7431c-.4769-.1635-2.5171-3.3712-3.0009-3.3763-.482-.0051-.9511-.1687-1.5963-.1756-.63-.0066-2.3689-.9845-2.8628-.8233-.4752.1574-.9412-.6513-1.425-.4908-.48.1385-.95-1.1278-.95-1.1278s2.0841-.3723,3.0434-.4552a5.9828,5.9828,0,0,0,3.3578-1.5579l.8213-1.9053,2.261-2.0443-.9467-1.4407s.1664-.1578-.3035-1.1167c-.475-.9655.3153.0033-.475-.9655a11.8962,11.8962,0,0,1,2.3988-.4578,34.5853,34.5853,0,0,0,3.9979-.7568,5.042,5.042,0,0,1,2.3873.3458c1.5856,1.1382,6.06-.8953,5.4271-.902,0,0,1.1213-.2936,1.2923-2.6972.2042-2.3988.2141-3.3465.7-3.1748.4764.1557,1.7445-.4686,1.7445-.4686a3.4546,3.4546,0,0,1,1.1347-1.4232,4.0739,4.0739,0,0,0,1.7654-1.57c.331-.6421,1.9573-3.4834,2.115-3.9691.1716-.4736-.4505-1.9235-.4505-1.9235a8.8654,8.8654,0,0,0-1.9016-.6531c-.48-.005-1.9122-.9641-2.7107-.8263a20.9851,20.9851,0,0,1-3.9894.1243,11.0551,11.0551,0,0,0-3.9908.1162,2.0457,2.0457,0,0,0-1.9034-1.13c-1.4275-.0152-.9324-.98-2.3669-.995a24.9134,24.9134,0,0,0-3.676.4476c-1.2788.1442-2.87-.1931-3.9893-.0422-1.1319.1457-2.3862-.5123-3.51-.2-1.11.3087-1.75-.3428-3.353.44-1.6028.7919-1.2822.4693-2.0876,1.42-.8076.9346-1.4338-.5027-.8076.9346a8.436,8.436,0,0,1,.6111,3.0389s-.4716-1.269-1.4194-.9736c-.9657.322-1.2759-.6442-1.6123.3151-.3286.9526-.01.9557-.3455,2.548-.3359,1.5866-.324.4607-.3359,1.5866-.0115,1.1166.6173,1.921-.0372,3.5027a7.583,7.583,0,0,0-.8275,2.8694c-.0066.6381-.33,1.5849.1286,2.0814.482.473-.0033.3055,1.2689,1.4441,1.264,1.1156.9369,1.9167,1.4136,2.7256a5.6178,5.6178,0,0,1,.7752,2.2361c.1437.961-.6527,1.9075-.6662,3.1841a3.3522,3.3522,0,0,0,.4458,1.9074c-.187,1.9236.6357.6636-.187,1.9236-.8,1.2758-1.8746.5247-2.3963,1.417-1.1288,1.8838-.8229,1.0972-.0185,1.744.792.6587,1.4232,1.9612.9436,2.0829a6.5581,6.5581,0,0,1-3.6676-.3443,3.2993,3.2993,0,0,0-1.4586.9211,11.5939,11.5939,0,0,0-1.9365,2.7014c-.6568,1.1065-.6535.7907-.6657,1.9-.0114,1.1171-.8121,2.5514-.19,3.5006.6222.9777.3139.4871,1.5824,1.1348,1.2706.6549,1.4318.99,2.2292,1.145.7852.167-1.6256,1.58-1.9476,2.3846a5.1062,5.1062,0,0,0-.6574,2.7c.4405,2.2325,1.5537,3.188,1.7115,3.8361.1458.6393,1.4212.8113,1.7369,1.2943.3046.482,1.7465.1771,1.7465.1771l1.7475.6482,2.3863.68a11.3644,11.3644,0,0,0,3.9671,1.9564l2.3918.3379a2.499,2.499,0,0,0,.9816.8343c-.3334.0161-.6349.2174-.8466.769-.649,1.7331-1.1139.3087-.649,1.7331.4632,1.4552,1.1025,1.2969,1.0975,1.7675-.0052.4874-1.6164,1.9043-1.6164,1.9043s-1.7648,1.505-1.2855,1.5765c1.9043.3443,3.34.36,3.8227-.1181.4831-.466.4867-.8.9648-1.4214a10.7663,10.7663,0,0,0,.9836-1.7485s1.0961,1.2873.7771,1.9417a8.5634,8.5634,0,0,0-.3388,2.0418c-.4993,1.7711.9356,1.1487-.3478,2.3988-1.2892,1.27-3.3822,3.1553-3.3822,3.1553s-.79-.6469-1.4451.6144c-.6493,1.2773-1.4433.7969-2.5628,1.0981-1.119.3048-.3-.4828-1.9167.2963-1.6041.784-.6269-.481-2.2475.6153-1.5938,1.1008-1.0952-1.447-1.5938,1.1008-.507,2.5467-2.1,2.37-1.3084,3.1726.7867.8045,1.5953.0168,1.8877,1.7721a21.7735,21.7735,0,0,0,.9206,2.8747c.3195,1.28.4768.9651-.0237,2.2356-.419,1.0861-.8223,1.7116-.95,2.1555-.0354-.1977-.08-.4761-.1746-.88-.6076-2.8846-.431-3.8376-1.0773-3.6842a4.75,4.75,0,0,1-1.9134-.3427c-1.5908-.341-2.3831-.8131-2.6858-1.62-.3036-.8041-1.2605-1.4462.0221-2.0817,1.2818-.62,2.24-1.0817,2.2453-1.5654.0049-.47.0152-1.438.02-1.9026a15.9616,15.9616,0,0,1,.1816-1.5873c-.9379-1.29-.4464-2.3906-1.096-2.0921-2.0847.9291-1.756-.0186-2.0847.9291l-.7814-1.45c-1.9167.776-.4838.4856-1.9167.776-1.9206-.65-1.9052-.8165-2.2151-1.6169-.3194-.8043,0-1.411-.6283-1.5959-1.7574-.5057.1715-.6363-1.7574-.5057-1.9112.1416-2.371-.97-2.8606.2912-.4935,1.27.9412.6542-.4935,1.27-1.442.6313-1.94,1.1089-2.4.7792-.4695-.33-.9818-.823-1.4393-.6417-1.9193.7727-2.8588-.3633-1.9193.7727.9519,1.1119,1.4371.3214,1.5791,1.4474.119.8251-.1263,1.3947.08,1.8255a2.3088,2.3088,0,0,0-1.3649.2334,2.9181,2.9181,0,0,0-.192,2.23,1.4477,1.4477,0,0,1-1.448,1.9033c-.4836-.0052-1.4286-1.3-1.4286-1.3s1.2993-2.2141-1.2563-1.131c-2.5716,1.09-2.2317.46-2.2317.46a11.8324,11.8324,0,0,1-2.4094.295c-1.1175-.0115-2.8464-.1107-3.339-.0354a22.58,22.58,0,0,0-3.5178.76,9.85,9.85,0,0,0-1.7625.1478c-2.2353.6108-3.0434.2738-3.511.5969-.4868.2993-1.6025.7792-1.7639.2858-.1456-.4727.2066-1.3821-.2964-1.4338-1.7539-.1772-2.8771-.189-3.3556-.1942-.4711-.0049,1.5965.5007-.4711-.0049-2.071-.4936-2.3594-.6894-2.8456-1.3018-1.44-1.7675-.6216-2.2266-2.0667-2.0948-1.4383.1433-1.1061-.9667-2.2308-.1711-1.1189.7805-1.5921-.35-2.7086.1187-1.1142.4673-1.2431,1.1153-2.0722.4572l-1.4354-1.1325c-1.5724-.972-1.567-1.4523-2.0523-1.6114-.4624-.1636.4922-.4856-1.4194-.9779-1.9226-.4919-2.7282.2958-3.1769-1.16-.4648-1.4313-.3281-.4665-.4648-1.4313-.1564-.9608.48.005-.1564-.9608-.6187-.9581-.4577-1.4481-1.2448-2.4-.7856-.96-.1426-1.5945-1.1043-1.6047-.9516-.01-1.2654-.5013-2.2238-.3443-.9526.1442.8021-.4636-.9526.1442-1.77.6391-1.6171.6407-3.052,1.2561-1.4361.6113.3191.0035-1.4361.6113-1.7694.62-3.1972.6046-3.8328,1.0775-.6571.4679-2.7172.446-3.6826.5986a23.6784,23.6784,0,0,0-2.7153.6127c-.4784.1624-.6312-.3309-1.766.6161a6.3825,6.3825,0,0,0-1.93,2.0642c-.1716.4661-.6493,1.0916-.6542,1.5824a10.5889,10.5889,0,0,0,2.2133,1.7708c.7795.3413.3262-.0148,1.7432-.1392a4.25,4.25,0,0,1,2.4039.3385s1.117-1.2566,1.61-1.2511l.464.005s-.6238-1.1318.6622-.9516a6.1709,6.1709,0,0,0,2.5434-.287,3.1553,3.1553,0,0,0,1.5927.1643c.7991-.1389,1.2911-.7835,1.7711-.7784a15.3453,15.3453,0,0,1,2.7239-1.0813,6.4165,6.4165,0,0,0,1.752-.302s1.1241-1.2648,1.7656-1.0994c0,0,.95.1729.459,1.29a2.5557,2.5557,0,0,1-1.9175,1.41c-.4873.1535-2.2458.4591-2.2458.4591a10.2113,10.2113,0,0,1-3.2128,2.0349s-1.11-.6415-1.5944-.1746c-.4831.4692-.4361-.1413-1.28.4608-2.2511,1.5733-2.5563,1.098-3.2108,1.7228,0,0-1.1133-.1714-1.61,1.4173-.4809,1.585-1.5867.617-.4809,1.585a5.2611,5.2611,0,0,1,1.7337,2.0984c.4538.9641.929,2.09.929,2.09,1.26,1.4439,1.8929,1.4506,2.2036,2.0837.3123.6386.1607.4971.4613,1.7615a17.1052,17.1052,0,0,0,.6142,2.0828s-1.2706-1.6378-1.9-1.2842c-1.4365.77-2.6265-.5813-2.0794.284a8.3675,8.3675,0,0,1,1.4066,3.6917c-.0067.6312.629.15.6172,1.2682,0,0-2.5188-3.0512-3.1588-3.058-.6319-.0068-1.7428.1471-2.2232-.3408-.475-.48-1.3629-1.2869-.4614-1.7612a5.9748,5.9748,0,0,0,2.5766-2.0527s.6526-2.07.0185-1.7486c-.6357.31-.3143-1.2823-.9411-1.4485a6.9843,6.9843,0,0,0-2.3813-.4973c-1.76.4534-2.2151,1.0559-2.7261.4432a12.5082,12.5082,0,0,1-1.7339-2.7291l.1837-1.4287a14.9317,14.9317,0,0,1-4.2876-1.1631c-2.0606-.9846-2.2188-2.0888-2.2188-2.0888a4.3893,4.3893,0,0,0-3.5162.4347,2.71,2.71,0,0,1-2.55.6041c-.7977-.3144-1.2619-1.4408-1.9078-.1789a13.5514,13.5514,0,0,0-.9765,2.5348,17.4766,17.4766,0,0,0-2.7264-.0289c-.4677.1616-.9411-.1492-2.06-.0218a8.66,8.66,0,0,0-2.4113.3029c-.6358.3264-.939-.4778-1.7379-.18-.8034.32-.7919-.806-1.9282-.02a8.1234,8.1234,0,0,1-2.3916,1.0994s-.3273-.4952-1.44-.3474c-1.1192.1537-1.416-1.1133-2.3847-.8179-.9546.3184-.9478-.3159-1.7486-.0184-.8006.32-1.3377.8508-1.759.31-1.251-1.6114-.3032-1.2878-1.251-1.6114-.96-.3306-.6291-1.29-1.91-.8244-1.279.4706-1.2755.146-2.0724.2952-.8008.158-.6384-.6445-1.4372-.4863-.8006.1454-.9411-.8067-.9411-.8067s-.1759-.4856,1.4412-1.2611c1.6027-.78-.1388-.7985,1.9282-1.4064,2.0814-.6249,2.194-1.2216,3.0484-.9273a1.4331,1.4331,0,0,0,1.9074-.6174s.8148-.9626.18-1.2908a28.2478,28.2478,0,0,1-3.9482-3.5407c-.3033-.4828-3.962-1.4736-4.1233-1.967-.1618-.4536-1.42-.9577-2.5463-1.2911a9.633,9.633,0,0,0-3.6529-.3629,6.2108,6.2108,0,0,0-2.8835,1.2565c-1.7744,1.0876-.7987.1464-3.1938.121-2.3932-.0254-3.3549-.0356-3.9861-.3478-3.1714-1.6419-1.4245-1.1514-3.1714-1.6419-1.7452-.5061-2.7122-.0288-3.3378-.6815-.6365-.6453-.3164-.9587-1.7457-1.6157-1.4216-.6373-.9327-1.12-2.6916-1.1382-1.7607-.0187-2.7071-.505-3.9859-.3516-1.2774.1372-.8008.4665-2.2288.1271-1.4384-.3328-1.1072-.8089-2.2219-1.6169-1.1112-.8034-.777-2.0845-2.3749-1.9359-1.596.1426-5.8872-1.33-5.8872-1.33a10.4422,10.4422,0,0,0-2.0678-.6764c-.9619-.1679-2.849-.9846-3.8142-.8362-.9634.1441-3.0241-.1907-4.3047-.2042a5.6942,5.6942,0,0,0-3.3427.6026c-.9724.6354-.1755-.4813-.9809,1.4325-.8193,1.9053-.9856,2.0616-1.7878,2.3665-.7878.3127-1.9179.943-2.5452.77-.6359-.1733-2.2565.6227-2.2429-.6542s-.6323.1477.0134-1.276l.6674-1.4354a6.139,6.139,0,0,1-1.4335-.1747c-.4784-.151-.633-1.2787-.3055-2.0715a4.0717,4.0717,0,0,0,.1938-2.3988c-.16-.7989.8168-1.89-.4689-1.7458a6.5591,6.5591,0,0,0-3.03.5985c-2.41,1.7293-2.8814,1.08-2.41,1.7293.4718.64.6374-.6379,1.111.4923.4668,1.1147.45,2.7117-.351,3.0124-.8.32-.63-1.5921-1.4279-.1578a5.839,5.839,0,0,0-.9955,2.8587,1.856,1.856,0,0,1-1.2908,1.417s-1.74-1.9328-2.2209-1.938a12.1631,12.1631,0,0,1-2.6972-1.1532,4.9222,4.9222,0,0,1-1.735-1.6086c-.7977-.9628-.6005-2.708-1.8847-3.2021-1.2653-.5005-.4526-1.9188-1.2435-2.5649a10.1668,10.1668,0,0,1-2.3709-2.261c-.93-1.2855-.4442-1.9107-1.879-2.4134a20.2266,20.2266,0,0,0-2.6972-.9844c-.9619-.1678.6518-.6306-.9619-.1678a.8129.8129,0,0,1-.62-.0421,14.16,14.16,0,0,0,.9047,3.7144c.3072,1.1177,1.42,1.6015.9277,2.25-.4705.6172-1.5191-.0774-2.081.7668-1.6214,2.3729-.6391.7941-1.6214,2.3729-.9665,1.5839-1.7725,1.0915-2.2437,1.4118-1.6062,1.1-2.2307-.1828-2.2307-.1828-1.9076-.02-3.8246-.3614-4.4672.1118-.6394.476.4868-.1539-1.4506.7814a10.3706,10.3706,0,0,0-3.046,1.8823c-1.1262.9462,1.7776-1.575-1.1262.9462-2.8984,2.53-3.8482,2.3536-3.8482,2.3536s.0115-1.1247-1.5772-1.1414c-1.6082-.017-1.7526-.9621-2.5564-.3328-.8035.6216-.9545.4534-1.76,1.258a9.3278,9.3278,0,0,1-1.7778,1.4117c-.4832.3037-.9569-.6455-1.7626-.0187a23.7133,23.7133,0,0,1-2.0753,1.4117,1.8441,1.8441,0,0,0-.1851,1.7459,1.6429,1.6429,0,0,1-.0171,1.6092l-1.5975.2961c-.9666,1.4213,1.8863,2.565-.9666,1.4213-2.8721-1.1485-3.9585-2.1118-3.0024-2.5816.9622-.4731-.317-.153.9622-.4731.3338-.0694.4044-.0688.3787-.0379.078-.03.1533-.0719.26-.11a12.398,12.398,0,0,0,2.5675-1.5619,10.4028,10.4028,0,0,0,1.61-1.2677s.1593-.6472,1.445-1.26c1.2874-.6161,1.2908-.9422,2.4029-1.0842,1.12-.1547-.49.9458,1.12-.1547,1.606-1.0933-.4722-1.2729,2.247-1.7278,2.7276-.4465.965-.4651,3.5194-.5977a8.8713,8.8713,0,0,0,3.8335-.9217c.4853-.1544,1.7695-.7784,1.7695-.7784a17.53,17.53,0,0,0,2.2526-1.0934l4.0055-2.832s1.297-2.05.3387-1.9014c-.965.1554-.7919-.6554-2.0741-.022-1.2875.6241-1.7626.147-2.72.9256-.974.7906-1.7518.148-2.23.2893-.4873.1615-.1548-1.1033-1.7591-.165-1.6062.9267-1.7554.6159-3.0462,1.5561-1.2855.9388-.0018.1562-1.2855.9388-1.2748.7908-2.2229-.0229-3.0393.292a4.006,4.006,0,0,0-1.9144,1.4117c-.6428.7815-.6343-.0068-1.7661.2975-1.1144.3176-1.9024-.4917-3.1971.4382-1.2855.9469-1.7675.4692-2.2419,1.5861-.4922,1.1115-.3275.6295-1.1362,1.7391-.8072,1.1133-1.1248.14-1.9132.4555-.8149.3119-.6312-1.1168-1.76-.1852-1.1194.9551-2.1724,1.3464-1.9147.9468,1.297-2.0545,1.9247-1.89,1.297-2.0545-.6447-.1734-.9537-1.1288-1.8957-1.1388-.9655-.01-.8049-.6466-1.7561-.6567-.9654-.01-1.2759-.6427-1.77.62-.4775,1.2712,1.1148.3182-.4775,1.2712-1.6183.9265-.01.9436-1.6183.9265-1.596-.0169-4.1558-.044-4.9458.5942-.8034.6291-.4767-.3185-1.9195,1.0968-1.4522,1.4153-1.5953-.1721-1.4522,1.4153.1357,1.6028-.173,1.274.7649,1.915.9567.6553,1.9239.5111,2.5479,1.1554.6258.6331.1848.6134.7644,1.7649l-2.8419-1.4618a22.3185,22.3185,0,0,0-3.4924-1.1546l.0008-.08a.5789.5789,0,0,0-.1492.01c-.64.16-2.8648-.03-3.3447.131a13.6684,13.6684,0,0,1-3.67.2826,17.9015,17.9015,0,0,1-3.8267-1c-.6328-.49-.4615-1.122-2.212-1.9378a12.58,12.58,0,0,1-3.1735-1.7894c-1.5862-1.1344-1.3623-1.3758-2.0544-1.77-.1273-.0865-.24-.1335-.3529-.2044l.2134-2.0436a5.18,5.18,0,0,0-2.2177-.023l-.0164.0077a1.0983,1.0983,0,0,0-.1545.0475,8.75,8.75,0,0,1-.8766.3916,12.1908,12.1908,0,0,1-1.204.3261c-1.2786.3148-2.8614-.8271-3.98-.5148-1.1164.3133-2.0731-.3461-3.3464.13a5.8054,5.8054,0,0,1-2.5542.2948l-.0007.0618c-.0552-.002-.1168-.0055-.17-.007s-.113-.0162-.1678-.0168c-.6324-.0066-.4787-.152-1.4232-.6536-.9447-.4737-.79-.6386-1.8981-1.4476a7.1517,7.1517,0,0,0-2.2151-1.1406c-.9928-.4283-.5945-1.109-1.515-1.3658.1529-.0338-.2454-.2346-2.6158-.9058-5.2512-1.4863-4.4576-1.018-4.4576-1.018a6.9251,6.9251,0,0,0-3.34-.9786,37.0992,37.0992,0,0,0-4.6254,1.0687,6.7642,6.7642,0,0,1-1.6028.6212c-1.112.304-2.23-.19-3.3514-.0355-1.1182.1463-3.1907.1243-3.6654-.3673-.4663-.4887-.1439-.6322-1.1029-1.1219a21.0756,21.0756,0,0,1-2.05-1.1346c-.8076-.497.3145-1.5948-2.2362-1.15-2.5433.4531-3.6808,1.0871-4.7947.9078a3.9161,3.9161,0,0,0-2.5565.299c-1.4347.4638-2.0376.8952-2.7028.45-2.5358-1.625-3.33-2.2711-3.33-2.2711a9.5057,9.5057,0,0,1-2.5384-.5065,5.2835,5.2835,0,0,0-2.5516-.8232c-.4821.1535-.7034-.1661-1.5909-.3421a27.147,27.147,0,0,0-4.1473-.3574,10.9606,10.9606,0,0,0-2.8641.1293c-1.766.3017-2.7087.2917-3.3642.4435a6.0116,6.0116,0,0,1-1.7519-.0186s-.1337-1.9041-2.0537-.8144a9.5309,9.5309,0,0,1-3.2022,1.23c-.955.3151-.1819,1.2749-.955.3151-.801-.9633.1507.0016-.801-.9633a10.0191,10.0191,0,0,1-1.4256-1.7593c-1.4207-.015-2.8464.7821-3.4982.11-1.4266-1.45.4182-2.3347-.1308-2.713a5.942,5.942,0,0,0-3.0137-1.47c-1.2758-.1722-1.0941-1.6042-3.0263-.986-1.9167.6173-2.0774,1.265-3.9907,1.2447-1.9221-.02-1.4347-.8236-3.038-.1987-1.6009.6174-.1643,1.1164-1.6009.6174-1.4246-.4829-.7679-1.4388-1.5739-1.9273-1.5738-.98-.62-1.2833-2.2169-1.1327-1.5962.1295-1.6474-.8608-2.2252-.0236-1.7915,2.533-.3549,2.0566-1.7915,2.533-1.4327.4527-2.6477.2467-2.3861-.5165.5021-1.4285.51-2.2224,1.301-1.9,0,0,1.7531-.9363.9732-1.4171a9.312,9.312,0,0,0-3.34-.8359c-.6394-.0068-2.9525-.0776-3.1871-.505-.7818-1.4577-.9434-1.924-2.2146-.9863-1.2948.9491-3.0571,1.5648-3.8679,2.8255-.8106,1.2672.4651,1.2808-1.77,2.0533a21.8578,21.8578,0,0,1-4.4882,1.3831c-1.2648.1532-2.22-.17-4.1367-.0438-1.915.1462-2.0558-.4274-2.7193-.33-3.185.4341-3.1884.7592-4.809,1.8593-1.6068,1.0931-.9526.9425-2.2366,1.57-1.2766.6209-1.4449.7707-1.9444,1.7235-.478.9694-.0034.325-1.4433,1.1061-1.4361.7857-1.2734.3084-2.2208.6225a8.321,8.321,0,0,0-1.5285.6145s-4.0471-2.441-5.2547-1.01c-1.2039,1.4291-4.0781,1.6228-5.0627,4.2543-.9859,2.6183-4.3532,3.535-4.371,5.2163-.0178,1.6715,1.6544,1.22-.501,3.3482-2.1915,2.1233-4.35,2.8234-5.7916,3.9916-1.455,1.2024-5.5216,1.6112-5.5216,1.6112l-2.1469-.7138-2.1641.9128-3.3514-.0355c-2.3975,1.889-2.6209.2192-2.3975,1.889.2066,1.68-2.1848,2.8578-2.4312,3.5589-.2485.7089,2.3829.9964,3.0789,1.7149.7183.7271-.7137.9483.9478,1.6849,1.6572.7371,4.7541,2.9152,5.7183,2.6945a3.4015,3.4015,0,0,1,2.62.259c1.1962.4963,3.1038.5164,3.332,1.718.2265,1.1861,1.8924,2.166,2.1233,2.8876.2314.7252-.5028,2.15.6852,2.4016a24.1747,24.1747,0,0,0,2.6018,2.8969s1.7458.1068,2.1439.9818a1.1841,1.1841,0,0,0,1.5364.6661l.046-.0193c.3329-.1461.571-.0593,1.3594-.3762.8025-.32.8972-.5624,1.2883-.3924.4017.1708,1.2569.4194,1.2569.4194a6.6093,6.6093,0,0,0,1.0643-1.2715,7.8431,7.8431,0,0,1,1.2794.4963,3.8114,3.8114,0,0,0,1.18.325c1.1107.3528,2.1463.5879,2.1463.5879a1.0881,1.0881,0,0,1,.3137.6378.71.71,0,0,1-.4737.73c-.812.2188-.9014.782-.5706,1.011.2984.25.6273.4811.5521.732,0,0-.4942.64.6206.9581a4.0124,4.0124,0,0,1,1.7356,1.0625l1.3667-.2334a2.936,2.936,0,0,1,1.5141-.4551,3.1277,3.1277,0,0,0,1.204-.0682c.7059-.0781,2.9459-.1283,2.9459-.1283l1.189.6427-.1836,1.5962a2.9855,2.9855,0,0,0-.8625-.0092c-.4071.0884-.8767-.7218-1.6771-.4132-.801.313-.8828.71-1.3658.86-.4783.1466-.9641.0675-1.3593.3764-.3949.3213-.3933.1623-.2492.7944.1616.6469-.0815.9691-.4153,1.0356-.3144.0819-.9418-.8764-1.4085-.6342a13.4017,13.4017,0,0,0-1.5365.5329c-.3213.2333-.1224.3514-.6465.7941-1.0329.8517-.8025.5407-1.6034.8457-.8.3157-6.6188-.1365-6.8429-.2316a3.5947,3.5947,0,0,0-1.593-.4767c-.8838-.0094-.8093-.1869-1.6711.2106-.8883.3812-.5672-.3275-1.443.0618a5.3361,5.3361,0,0,1-1.9175.3746,5.5749,5.5749,0,0,1-.5636-.8c-.1436-.3176.4029.2444-.22-.64-.6233-.8693-.71-.6456.0153-1.4347a8.1823,8.1823,0,0,0,1.05-1.3456,1.0236,1.0236,0,0,0-.1483-.8844c-.3172-.3121-.4741-1.0444-1.0321-1.05a11.67,11.67,0,0,0-1.515-.16c-.3938.074,1.2842-.791-.7116-.0879-1.9953.6979-3.612,1.4779-4.0036,1.3073-.4024-.1708-1.5064-.9756-2.07-.108-.5694.8767-.5687.8107-1.37,1.0339-.8.224-1.35-.3385-1.8341.0619-.4821.3776-.5564-.1714-1.0432.62-.476.7992-.5655.5581-.334,1.2723.2314.7214,1.1034,1.3809.7095,1.6051-.4085.2272-1.2821-.2418-2.1524-.1856a10.2011,10.2011,0,0,0-2.242.0574c-.7076.2325-.7818-.09-1.3592.2256-.56.3075-.7054-.0074-1.7509.8667-1.0528.8594-.971.8608-1.3677,1.1686-.409.3214-.4868.1544-.969.3148a1.8467,1.8467,0,0,1-1.4286.07c-.5572-.2566-2.5672.684-2.5672.684-.877.6378-2.3185,1.1212-2.322,1.4187-.0142,1.3492.2894,2.7952.7546,2.8735.4844.079,1.0445-.1554,1.2825.168.2341.3277,1.8309.1045,1.8259.5765-.0051.4833,1.2808.4969,1.5919.582.3234.0839,2.31-.3016,2.56-.2128.2242.0758,1.04-.1556,1.5925.1749.5565.3269,1.04.093,1.7385.4936.72.41,1.5167.6589.6264,1.0551-.8827.385-2.8719.5145-3.1837.6708-.3348.1574-1.1925-.9763-1.5954-.0833-.4145.8545.2256,1.1088.5312,1.3552a3.4546,3.4546,0,0,1,1.2711,1.7694c.2181.8723.94.9648.9337,1.5106-.0061.5722-.1809,1.3554.1492,1.5988a5.18,5.18,0,0,0,1.6651.3429s1.2616.0134,1.59.4224a3.8264,3.8264,0,0,0,1.5881.8131c.3108.073,2.0705.1885,2.0705.1885a6.9552,6.9552,0,0,1,1.4295.0151c.2389.0644-.3174-.1.7265.0077a24.4539,24.4539,0,0,0,2.7858-.0672l3.2711-.5259s.1658-.0763.7272-.3829c.561-.3144,1.3658-.8711,1.6871-.5431a2.19,2.19,0,0,0,1.8135.9709c.9664-.068,1.5242-.2239,2.083-.2835.5533-.0793,1.0444-.5541,1.3479.1682.3115.7153.6365.8156.7116,1.2842.07.4729.91.1219,1.3571.0145.8722-.23.8722-.23,1.3481.0142.4827.23.624.8035,1.2693.0912a11.4023,11.4023,0,0,1,1.8637-1.4886c.3969-.3214.3994-.5609,1.0329-.8752.65-.31,1.5371-.7729,1.5371-.7729s.7874-.2308,1.2019-.4009a5.6666,5.6666,0,0,1,1.1864-.2967,13.2285,13.2285,0,0,0,1.7534-.6158,7.3563,7.3563,0,0,1,1.6012-.4668c1.0349.1705,1.5921.2574,1.7554.5759a2.817,2.817,0,0,1,.1538,1.2051c-.0043.3939.1455.7865-.3444,1.0215-.4666.242-.39.08-.8751.47a8.7571,8.7571,0,0,0-.7322.7043,2.2447,2.2447,0,0,0-.5658,1.4363c-.0043.4056,2.05,2.2683,2.05,2.2683s1.1816,2,.935,2.23c-.2454.2454.1395,1.0444.0624,1.4356-.0819.4047.3116.7149-.4191,1.1048-.7163.4059-.23.5589-.8673.9577-.6542.3918.8553.1677-.27,1.1191a7.5485,7.5485,0,0,1-2.3139,1.3243,7.4323,7.4323,0,0,1-3.1946.3647,9.8917,9.8917,0,0,0-1.4366-.498,1.299,1.299,0,0,0-1.0385-.0115c-.6421.237-.3977-.0777-1.2.3939a12.44,12.44,0,0,0-2.0063,1.0889c-.6436.5494-.4928.7176-.7231,1.0394a12.4819,12.4819,0,0,0-.7231,1.1839l-1.13.468c-.7116.0689-1.204.0635-1.6707.1329-.4845.0755-.0867-.4728-.8857-.16-.8024.3088-1.2088.3849-1.4367.302-.8644-.3263-.9557-.4166-1.0985-.9756-.1606-.5547.6366-.3806-.1606-.5547a9.7208,9.7208,0,0,0-2.0632-.2651l-1.1976-.0127a5.4913,5.4913,0,0,0-1.8487.7766c-.3165.2447-.0018.1666-.5587.717-.5659.5559-.9041,1.2166-1.2855,1.5026-.9732.7092-.8133.1467-1.0494,1.1913-.2517,1.0224-.0887,1.35.28,1.6666.4073.3247.9572.7408.9572.7408s-.26.6972-.4181,1.0127c-.4017.9628-1.1872-.1553-1.8193-.0193a2.6466,2.6466,0,0,0-1.4512.7036,4.5238,4.5238,0,0,1-1.1215,1.033c-.56.3192-.7057-.48-1.2011.6329a16.3059,16.3059,0,0,1-1.056,1.7287c-.4017.8078.6461-.79-.4017.8078-1.0548,1.5823-.7339,1.5857-.5767,2.2955.1392.7242-.4189.7184-1.0587,1.5823-.6557.8632-1.2072.2379-1.2147.9457-.0076.7166-.2378,1.0347.1356,1.5954.4.5647,1.3565,1.3837,1.4232,1.77a1.7594,1.7594,0,0,0,.2335.715c.241.5739.9542.8952,1.106,1.1362a.9115.9115,0,0,0,.8732.334c.3251-.0776,1.1277-.2347,1.2949-.4776.1479-.2338.8649-.6981.9553-1.1889.0864-.4706.9779-1.3389.9779-1.3389a9.8787,9.8787,0,0,0,.8027-.8691,6.117,6.117,0,0,1,1.2854-.8637l-.7433,1.7471c-.9569.5549-1.5168.5491-1.7725,1.0993a9.5335,9.5335,0,0,0-.3113,1.1181c-.2555.7163-.2571.8637-.0918,1.1907.1492.3219.4738-.0731,1.1111.4908.6261.5624,1.4257.3318,1.5135.7389.07.3955-.268.8757.0644.9517.2971.0918,1.2647-.1447,1.5969-.0556.31.0758,1.51-.2281,1.1853.3181-.3264.56-.2525,1.0411.4729.7236a11.3953,11.3953,0,0,1,1.839-.526,1.1249,1.1249,0,0,1,.8014-.3976c.4837.005-.72.0813.4837.005,1.1931-.06.47-.1531,1.1931-.06.7169.08.414-.9594.939.4884.5551,1.4291.8722,1.4325.5509,1.8268a4.93,4.93,0,0,1-1.38,1.031c-.2277.0789-.78-.399-.78-.399s-1.4166-1.7717-1.6544-1.224a1.9808,1.9808,0,0,1-.8966,1.0337c-1.1973.6227-1.5429.3047-1.5946-.0169-.0728-.6464-.1572-.8911-.5475-1.1464-.4017-.2242-.2276-.9418-.6944-.8659-.4859.0717-.8925.1572-1.2992.2181-.3924.082-.0675-.4727-1.0361-.0115-.958.4693-.4706-.07-1.1988.9468-.7231,1.04-.7239,1.1058-1.1338,1.3493-.4011.2269-1.2849.8633-.8776.8675a7.3013,7.3013,0,0,1,2.3022.264c.7065,1.1957.5494.9573,1.0238,1.361.4738.4106.0817-.8723,1.4908.8935,1.4326,1.7667,2.8608,2.2618,2.8567,2.6562a4.0171,4.0171,0,0,0,.3035,1.5967,1.0163,1.0163,0,0,0,.705.6648c.4026.1441.87.0091,1.2724.3189.4017.3252.4017.3252,1.521.2562a32.1165,32.1165,0,0,0,3.2686-.511s.3177.7965.7935.3959c.484-.3823,1.5307-.6963,1.7718-1.0259a11.6992,11.6992,0,0,1,1.6082-1.1661,4.9768,4.9768,0,0,0,.7893-.4017,5.3022,5.3022,0,0,0,1.0495-1.2539,9.3711,9.3711,0,0,1-.2058-1.7688c.0085-.8-1.4509.1423.5739-1.5023,2-1.6574,2.4252-2.291,2.5742-1.9572.299.703-.0115,1.0249-.42,1.5-.4126.4761-1.0466.7936-1.2188,1.3419a2.1644,2.1644,0,0,0-.0127,1.1976,18.74,18.74,0,0,0,.7,2.1622c.2314.7258.4733.8178.4675,1.3658-.0058.5456.7813,1.1915.6912,1.8364-.0868.6377-.3977.3944-.0868.6377.3286.2425,1.4462.3395,1.5116.9747a2.9147,2.9147,0,0,1-.09,1.6547c-.2622.3293-.2563-.2245-.8973.4-.6355.6312-1.1287,1.3522-1.0549,1.7553.0753.3957.1556,1.0268.72,1.1141a2.0248,2.0248,0,0,1,1.19.7284c.3788.41.5415.7328.2142,1.2089a1.4527,1.4527,0,0,0-.24,1.2578,4.52,4.52,0,0,1-.35,1.5944s-1.8249.3048-.23.3214a7.2659,7.2659,0,0,0,2.7106-.2954c.3912-.1512-.8149.1607,1.6015-.6839,2.3888-.8722,4.4808-1.874,4.4808-1.874s2.1648-1.6519,2.4906-.93c.3039.723-.0867-.1666.3039.723.39.8738.8677.72,1.4276.7262.5543.0058.8023-.3007.8816.254.0689.5524,1.2653-.0726,1.2653-.0726l.5639-.5466s.5218.9029.7105,1.1978c.8576,1.46,1.7554,1.3729,1.9635,1.7775.7946,1.4354,1.11,1.9261,1.11,1.9261.8746.2525,1.2589.404,1.2589.404l.8992-.935.5-3.0337,1.1254-.8625a2.6832,2.6832,0,0,0,.4864-.7878c.0955-.3126-.4636-1.3617-.2081-1.7576a3.07,3.07,0,0,1,.8874-.7873,7.9085,7.9085,0,0,0,1.0976,1.0483c.241.068,1.2558,1.363,1.0214,1.608-.2434.2337-1.2058.0607-1.6137.4591a2.5379,2.5379,0,0,0-.7948,1.1012c-.2618.6427-.5624.795.14,1.2081.7116.3982,1.5121.2514,1.6757.49a4.9561,4.9561,0,0,0,.8688.74l2.8138-1.34.792-.7116,1.911-.6254s2.18-1.0856,2.4267-1.63c.231-.5688.1607-.7361.7251-1.1942.5614-.4769,1.2039-1.4188,1.3626-.8558a4.24,4.24,0,0,1-.4988,2.6138c-.41.4092-1.0484,1.0976-1.3857,1.5-.3157.3841.3984.7238-.236,1.0338-.65.3173-2.3282.6869-3.0547,1.5649-.727.87-.9541.2327-.7311,1.261.228,1.0387.9448,1.1277,1.0184,1.6927a1.7731,1.7731,0,0,1-.5721,1.3511c-.2418.2215-.8837.4617-.8078.7886a12.712,12.712,0,0,1-.2583,1.9921c-.261,2.07-.8034,1.8249-.3473,2.7075.4669.8838,1.1064.89-.1661,1.1079-1.28.2274-1.9221-.02-2.4072.1493-.4693.1415-.71.4645-1.2,1.0124-.4858.552-.2424.3141-1.1191.6257a2.1425,2.1425,0,0,0-1.4431,1.261c-.3258.6347-.7334.6428-.7392,1.1955s.4858.1637-.2454.9512c-.733.7783-.0043.3949-.733.7783a5.0027,5.0027,0,0,1-1.5889.63c-.6463.1471-.1515-.8807-1.4417-.0153-1.2869.8711-1.1247,1.1133-2.0915,1.5662a12.381,12.381,0,0,1-1.4353.7085c-.5624.2261-1.4557.29-1.8444.6846a14.5707,14.5707,0,0,1-1.5255,1.5226c-.8916.6984-.969.4538-1.69.8522-.7287.3745-.7237-.0886-.805.6947-.09.8111.316.8155-.0993,1.6817-.4132.8818-.82.8625-1.0463.9518-1.0415.4535.0769.241-1.7608-.1852,0,0-.9526.315-1.2625.1532a12.1426,12.1426,0,0,0-2.3943-.1021,9.83,9.83,0,0,1-1.2791.3036c-.2446-.0026-.5554-.2464-1.1166.0728-.5738.3-.3111-.0879-.8769.4632-.5638.5386-1.2357.5854-1.5309,1.0233-.4894.71-1.2872.9412-1.4461,1.3924-.1722.497-.4821.3389-.82.804-.3243.4953-.6358.4919-.7171,1.2687-.1021.811-1.0707,1.2645-1.0707,1.2645-.8592.1574-1.4136-.015-1.4171.3171-.0032.3055-.722.2323-1.21.4513-.4827.2429-1.0344-.3164-1.2058.1538-.1487.4624-.8608.3122-.4721.707a1.96,1.96,0,0,0,1.1033.73c.3167.0033.7971.0084.7929.4149-.0043.4018-.01.9548.3061,1.0395a9.6327,9.6327,0,0,0,1.2038.0783s.7042.0926.7847-.1385c.0769-.2392.5739-1.3554.5739-1.3554l.7183-.2315.7116,1.3681,1.2887-1.2739a2.0774,2.0774,0,0,0,.7282-.1378,15.5837,15.5837,0,0,0,1.3554-1.0224,1.5886,1.5886,0,0,0,.4046-.7077c.0838-.4048.2159-.9943.6514-1.1182.8117-.2315.7116-.983,1.0452-1.0253,1.4446-.2088,1.8531-.3055,1.85.02-.0035.32.2984.5566.37.8.0825.241-.3875.801.8054.4109,1.1948-.39,1.114-.3162,1.3647-.7041l1.9833.2525c.473.66.9445,1.2948,1.2659,1.0581.3231-.244.8023-.4706.9722-.7865a12.487,12.487,0,0,1,.7225-1.1178l.1721-1.0233,2.16-.5414s.2458-.6359.3293-.9592c.0884-.3051,1.1071.3359,1.1071.3359.5615.8649-.1709,1.5954.0673,1.6723a10.2953,10.2953,0,0,0,2-.4477l.3939-.8772.9756-.9411,2.9664-1.3992a.9044.9044,0,0,1,.7275-.2515c.3848.0968,1.1091-.2207,1.515-.05.3777.1626.8837-.3962,1.1214-.3127.226.0837.4775-.0759.709-.5456.2464-.4806.66-1.1958.66-1.1958s.9478.01.8792-.2218a5.964,5.964,0,0,0-.9484-1.4533c-.2253-.1573-.1454-.6322.1731-.7907a9.0254,9.0254,0,0,0,1.36-.7823c.4-.3214,2.967-1.81,2.967-1.81l.8837-.3037s.8022-.47,1.0376-.0746c.2347.4018,1.2155-1.0228,1.4536-.9353a6.1536,6.1536,0,0,0,1.6-.5279,15.1839,15.1839,0,0,0,1.59-.7153,15.6242,15.6242,0,0,0,2.4287-3.3268,4.5561,4.5561,0,0,0-.0651-.875c-.0756-.24-.2958-.8766.2513-.8016a8.0619,8.0619,0,0,0,1.6692-.218,9.7275,9.7275,0,0,0,1.686-.6118,5.9252,5.9252,0,0,1,.65-.9536,16.6369,16.6369,0,0,1,1.7648-1.0167l2.0714-.8608.899-.7919,2.2359-.8451.8034-.5646a1.1918,1.1918,0,0,1,.8729-.2967,5.139,5.139,0,0,0,2.4766-.2984,9.1057,9.1057,0,0,0,.589-1.5839,4.246,4.246,0,0,0,.3213-.9589,1.1989,1.1989,0,0,1,.4025-.8548c1.2008-.95,1.6079-1.2676,1.6079-1.2676l1.0389-.0741s.7246.0076.9663-.3757c.2434-.4068.077-.243.4854-1.04.4074-.792.8952-1.0268.6534-1.4347-.2349-.3931-.2374-.1607-.3038-.9581-.078-.7976.0925-1.67-.4691-1.5208-.5527.16-1.5891-.4888-2.0559-.4124a6.3085,6.3085,0,0,1-1.6112.2181c-.4771-.0982-.9931-.2276-.862-.7319-.2342-.6336.5842-2.4621.8205-2.3857.2242.0838.39.3246.8768-.3046.4924-.6362.3256-.7929.9756-1.0994a8.1332,8.1332,0,0,0,1.2854-.8758,7.6259,7.6259,0,0,1,.7158-.53,6.2633,6.2633,0,0,1,1.9962-.791,5.9024,5.9024,0,0,0,1.6021-.5482c.5725-.6938,1.538-1.3409,1.6156-1.8191.0918-.4562.0074-.7041.3359-1.1108a6.68,6.68,0,0,1,1.2077-.9389l.01-.958s-.07-.88.3258-1.1184a3.4824,3.4824,0,0,0,.8041-.7035s1.2843-.62,1.365-.8637a3.1119,3.1119,0,0,1,.6531-.7894c.241-.2257.1607-.6359.8106-1.0978a7.06,7.06,0,0,1,1.6062-1.104c.56-.2336,1.2976-2.0629,1.6906-2.0588s.241-.3155,1.0459-.867c.8048-.5483.9586-.7052,1.438-.78a6.1842,6.1842,0,0,0,1.601-.6211c.49-.24.7357-.8708,1.1289-1.0253.4073-.1613,1.4477-.5409,1.7651-.3878.3117.1628.72-.2974,1.108.2525a.8851.8851,0,0,0,1.3543.2651,8.4461,8.4461,0,0,1,1.0434-.63c.4886-.3167,1.7642-.3032,2.0817-.6858a4.633,4.633,0,0,1,1.7675-1.2693c.5667-.1492,1.9221.0205,1.2706.4925a10.8212,10.8212,0,0,0-1.686,1.0925c-.6393.6355-.6383.5494-.88,1.112-.2469.5579-.9762,1.0339-.0884,1.1907.857.1747.3115.0033,1.3356.66,1.0314.6407,2.1057.885,1.5022,1.2028a2.3184,2.3184,0,0,1-2.5433-.251,1.98,1.98,0,0,0-1.9045-.1867c-.655.3183-.4065.08-1.208.3124-.7995.2236-1.6.3774-1.9864.0444a5.9093,5.9093,0,0,1-.8034-.8048s.2618-.952-.7078-.3981c-.9715.5469-1.7643.3134-2.2551,1.33-.4737,1.035-.0836,1.0391-.6437,1.3583-.5624.2995-.7959-.2559-1.4335.2239-.6542.4656-.652.2991-.565.7805.068.4839-.1715.4814-.2659,1.0444-.0839.5441.4791.071.3964,1.0372-.09.9538.1623.3994-.4217,1.3448-.5682.95-1.5946,1.3444-1.6,1.816-.0052.48-.7345.7965-.98,1.351-.2432.5668-.9526.3034-.9606,1.0148-.0077.7308.4731.3452-.0144,1.3658-.4891,1.0307-1.3759.6157-.4891,1.0307a10.11,10.11,0,0,0,2.6283.3529c.32.0689,1.8187.2514,1.8187.2514a.9635.9635,0,0,1-.0809.7954c-.2481.3184-.0918,1.1976-.9834,1.672a8.5487,8.5487,0,0,1-1.756.7668c-.3129.0781-1.4378-.4247-1.6654-.1837-.2561.2452-.8952.3386-.5689.88.3.56.2942,1.12.5469,1.2006l.0265.0083c.0992.001.2977-.0048.7706,0,1.43.0152,4.4746-.5912,5.0317-.4968.5587.084-1.0531,1.4161,1.2665-.3142,2.3374-1.7272,2.8191-1.8845,3.6957-2.5058.8994-.6291.9706-.6934,1.5325-1.0285a25.3683,25.3683,0,0,1,2.72-1.1617,4.3159,4.3159,0,0,0,1.5976-.3008,9.4184,9.4184,0,0,1,1.3679-1.01c.9576-.5611.8082-.8682,1.5142-.64a2.4745,2.4745,0,0,0,1.5226.1013,4.1166,4.1166,0,0,0,.96-.2953,16.54,16.54,0,0,0,1.531-.8736,28.4094,28.4094,0,0,0,2.5755-2.6062c.2442-.4774.8781-.7879.73-1.3428-.1587-.5589.8082-.8691-.3944-.8819-1.1891-.0126-1.1936.3822-1.665-.4082-.4751-.8014-.9552-.97-.78-1.6135a2.2288,2.2288,0,0,1,.9591-1.4242c.56-.4,1.1331-.3936,1.3763-.7822.2451-.3955.1627-.7912.4871-1.337a2.9583,2.9583,0,0,1,1.1229-1.1133c.2417-.0755,1.2848-.23,1.2848-.23l-.8967,2.0626a12.67,12.67,0,0,0,.3735,1.5206.8852.8852,0,0,0,1.2509.0512q.02-.0182.0384-.0375a5.6043,5.6043,0,0,0,.8881-1.0269,1.8911,1.8911,0,0,1,.954-.23c.3089.08,1.9984.3385,1.9984.3385s.8763-.6214,1.0387-.23c.15.4081,1.5959-.1492,1.8235-.2127.24-.0836.1759-.8885.7253-.7231a1.5635,1.5635,0,0,1,1.0273,1.38c.1607.87,1.1979.6461,1.4205,1.0392.2489.4091.6278.4131.877.8148.24.4166.6211.7294.4609.9668-.155.2384-1.5016-.9052-1.8377.2205-.3308,1.1067.4718.6427-.0958,1.5035-.567.8711,2.3942-.2156,2.3942-.2156s1.2011.3378,1.2676.7371c.0791.3953,1.515.9677,1.515.9677s.5587-.2271.7129-.0738c.1558.1681,1.274.18,1.4411-.062.1564-.2383.8022-.4715,1.045-.7818.23-.3228.8762-.4736,1.3519-.8635a12.4948,12.4948,0,0,1,1.9323-.9423c.32-.144,1.4362-.6112.8006-.1388-.6359.4531-1.61,1.3251-2.1876,1.799-.5579.4727-.5579.4727-.309,1.033.2318.5549,1.3324.8459,1.4176.9736.6217.8852,1.976.9847,2.1414,1.2254.157.2347.8686.3228.7892.8056-.0831.467.7954.1634.8768.4772.0729.318,5.1907-.9771,5.5807-.6487.4.3177.5509.7136,1.1007.8047a4.65,4.65,0,0,0,1.4524-.1433,6.9028,6.9028,0,0,1,1.6677.0912c.0713.1673,1.0389-.3834,1.0389-.3834l1.0344-.3025,1.5323-.15a2.8811,2.8811,0,0,1,.8657.25c.2443.1682,1.1945-.2283,1.3575.1027.1507.3076,1.1835.4954,1.4238.56a5.1008,5.1008,0,0,0,3.0326-.7609,2.9325,2.9325,0,0,1,.4724,1.2083c-.0051.472.2336.3893.3037.7957.0874.3916.4681,1.5985.7057,1.601a3.1333,3.1333,0,0,1,1.43.2626c1.0316.3164,1.515.3214,1.8288.4915.3149.1606,1.3516.1721,1.756.4092a2.17,2.17,0,0,0,1.9926-.4509,4.3216,4.3216,0,0,1,1.5328-1.0276c.5521-.134,1.5188-.3745,1.8261-.4457.325-.0733.5661-.6312,1.2165-.459.6349.1466,1.6454,1.202,1.3384,1.6044-.33.3871-.886.2226-1.5364.5371-.6409.3024-1.0362-.0115-1.5157.6137-.4854.633-.729.3984-.3231,1.04.3815.6417,5.7042,2.6939,6.017,3.1692a1.5864,1.5864,0,0,0,1.1936.8918c.4781.005.5584-.548,1.2035-.0574.6276.4675,1.259.5664,1.5724,1.1269.3042.5638,1.1936.3328,1.345.9723.1522.6487,1.4289.5729,1.4221,1.2068a1.3382,1.3382,0,0,0,.6992,1.2106,13.7875,13.7875,0,0,1,1.4364.5608c.403.255,1.187.1814,1.275.7363.0689.5607.3878.4949.5274,1.0489.1747.5557.8086.25,1.2787.5674.4888.33.407-.3086.9609.4008.5486.7328-.74,1.3573,1.2646,1.05a20.7444,20.7444,0,0,0,2.6355-.4441c.6345-.151.1593-.4706,1.269-.3772,1.1278.0971.2631-1.9116.5756-1.8311.3308.0929,1.8378.9626,1.451-.1432-.3849-1.1255-.7845-1.21-.6942-1.5231.0779-.3244.8807-1.027.8807-1.027s1.2588,1.7771,1.17,2.1589a5.2977,5.2977,0,0,0-.0918,1.5962c.0719.241.4791-.0848.7946.2484a13.0574,13.0574,0,0,0,2.6221.9827s1.7216.2306,1.8211.0193c.4159-.7848.505-2.3.0271-2.5518-.4633-.2449-.1424-.9573-.3013-1.6785-.1393-.7127.6739-2.22.8116-1.1863.1541,1.0426.9386,2.2575.9311,2.9611-.0075.7148,1.0228,1.4448.8521,2.0077-.1672.5517,1.1183.9559,1.4347,1.2062.3093.2433.4631.0869,1.1018.6419.6264.5718,2.1332.6692,2.3689.9842a9.8586,9.8586,0,0,0,2.4.9044s1.5.8964,1.4152,1.3756a8.2527,8.2527,0,0,1-.3311,1.6718c-.171.2372,1.8328.1007,1.8286.49a2.963,2.963,0,0,1-.4229,1.5927c-.4122.792.624.8035.8706,1.2855.2288.482,1.7367,1.14,1.2526,1.529-.4879.3855-.9542.5631-.9592,1.0262-.0051.4875.704.638,1.0249,1.121.3064.49,2.2175,1.0757,2.2175,1.0757a5.8491,5.8491,0,0,1,1.1055.9623,10.0258,10.0258,0,0,1,.5394,1.6886c-.0033.3059,1.5059.9783,1.58,1.3627.072.4064.9351,1.2014,1.3346,1.6113.4017.4028,1.1972.7051,1.27,1.2083.1477,1.115,1.1,1.0444,1.5035,1.2154.3914.1535,1.4271.2463,1.2543.658-.1515.3891-1.0388.38-1.5081.6887-.4833.3121-.3364.3135-.5674.88-.2447.5386.145.7093-.3329,1.1833-.4956.4738,2.8786.1844,3.1049.1134.2272-.0781.8034-.6292,1.2889-.624.48.005,1.671-.21,1.8306.2639.1426.468.6254.7177.7726,1.357.1653.6478,1.5013,1.4582.862,1.92-.6485.4918-.9653.3219-1.1988.7718-.2568.489-.4855.6443-.1745,1.0541.3135.3939,1.274.6516,1.6579.8952.396.2433,1.1194.8895.9493,1.3593-.1716.482-.0051.4832-.7275.7965-.7279.3058-.7987.1427-.8054.7805-.0069.6456.0758-.3084-.0069.6456a2.5248,2.5248,0,0,0,.8532,1.9116c.2366.2425,1.3575-.38,1.274.0987-.0794.4792.5454,1.2043-.0195,1.8479-.5572.621-.6384.5466-.81,1.0168-.15.4813,1.1851,1.0494,1.0274,1.5314-.1715.4694.7109.6452.7109.6452l.1508-.06.0195.0049,1.6183-.642,1.0988.0115a1.7869,1.7869,0,0,0,.4077-.1148c.08-.0263.1676-.0539.2615-.0857.2507-.0745.4808-.11.5165.0459.0744.3141.5522.5624.5479.97a2.6423,2.6423,0,0,1-1.44,1.7119c-.5616.1522-.99-.1262-1.2645.04a.39.39,0,0,0-.3573.2877c-.2295.6362.1643.397.0677,1.3392-.0918.9619-.5535.7137-.0918.9619.4848.2451,2.4065-.04,2.405.0988-.0017.1666.9526-.1288.9458.4976-.0066.6376.9382,1.4449,1.019,1.6847a6.4689,6.4689,0,0,0,.94,1.0477c.05-.0183.0992-.0532.1492-.0756l.0218.02c1.2961-.4662,2.5068-2.526,2.7488-2.7629a3.0416,3.0416,0,0,1,.7087-.5665.1942.1942,0,0,1,.23.15l.0007.0031c.1741.482,1.1992,1.5364.9411,2.0057-.2516.4764-.3225.3214-.64,1.0365-.3407.7089,1.2638,1.1315,1.1667,1.5946a8.2764,8.2764,0,0,0-.2469,1.7569c.0781.3222,1.1809.74,1.4264.9742.2365.25,1.2475,2.8067,1.639,2.8108.4043.0043,1.2088-.3857,1.1163.4942a3.6086,3.6086,0,0,0-.0177,1.6625,4.9691,4.9691,0,0,0,1.03.9831s.8755.1553.9428.48c.08.3142,1.28.4083,1.2778.6521l-.0026.24,1.7454-.38.0217-.0218.1492-.0331a4.1269,4.1269,0,0,1,.7257-.6187c.05-.0135.1089-.0485.1477-.0382.3321.0887,1.0444.0962,1.2058.4231.1436.314,1.2522,1.0374.69,1.43a.9185.9185,0,0,1-.1836.0864c-.7018.1761-1.8669.0257-2.2649.1445-.0264.0086-.0377.0277-.0627.0372-.0356.0062-.08.009-.1083.0175a1.7474,1.7474,0,0,0-.9747.8674c-.2434.4035-1.2953.505-1.4381.79a3.4464,3.4464,0,0,0-.4318,2.4739c.0667.5462-.1817,1.43.1522,1.3514a1.2563,1.2563,0,0,0,.1676-.0567l.0013.0028a17.7257,17.7257,0,0,0,1.6477-.7329c.1875.001.7625.0483.4117.6518a2.8548,2.8548,0,0,1-1.0485,1.1061c-.4089.3213-.6327.0715-.7928.7888a5.407,5.407,0,0,0,.0406,1.6828c-.005.48.9538,1.12,1.419,1.681.4866.5671,1.5169,1.1262,1.7576.9712.0221-.0148.0627-.0387.0918-.0566.0216-.0045.0635.0115.0791.0017a2.8914,2.8914,0,0,1,.463-.2525c.1732-.0482.3318-.0516.3925.0846.1607.3348,1.3469.9781,1.3469.9781s.0537-.0344.1262-.0792l.0448.0244s1.31-.8321,1.5826-.9358c.3465-.1067,1.0559-.2877,1.0518.13-.0051.4837,1.2719.0135,1.3512.7371.065.72.3777,1.1143-.016,1.5167-.4117.4017-.7305.5456-.2541.7172.4838.1629,2.0639.3275,2.06.6666-.0033.3059.96.3161.96.3161a23.3739,23.3739,0,0,0,5.973-.2426c.0344-.0091.0639-.0293.0972-.0411.0184-.0045.06-.01.0737-.0138a3.9577,3.9577,0,0,0,.7133-.3433c.1214-.031.2181-.0159.2471.1622.0745.4812-.174.7116-.5729,1.5839-.4132.8779-.58.7087-.1006,1.2755.4706.5613,1.2687.8028,1.5169.6459.0254-.0156.0715-.0292.1062-.0448.0183-.0063.05,0,.0643-.01a1.095,1.095,0,0,1,.16-.0666c.2841-.0751.6039-.0909.5519.1307-.0905.3391-.1972,1.5216-.2746,1.9929-.0828.4828.16.6394.3954.9669.2375.3245,1.75.5838,1.75.5838l1.3551.0144,1.3438.08s.8071.2556.56.9725c-.2451.7085.8545,1.61.9266,1.8348.0756.2371.5638.4936.7912.57.2436.0957.5561.0059,1.2073.1059a2.1339,2.1339,0,0,1,1.3455.4049c.39.3167,1.1787,1.1226,1.1759,1.3766-.0023.2242.79.72.4678,1.0263-.0071.0069-.0145.0069-.0216.0115-.1907-.0188-.3788-.2271-.5009-.0609-.1282-.0388-.2331.0129-.2788.4461a7.8636,7.8636,0,0,0-.0064,1.1321l.1768.0018c.0282.4378.071.7629.071.7629a13.6711,13.6711,0,0,0,1.739,1.051,7.67,7.67,0,0,0,1.3438.4247,1.6369,1.6369,0,0,1,.957.6376c.15.2486.4811.2525.384.8888-.0829.6377-1.0426.5531-1.2863.8608-.23.318-.6335.2324-.4158.7881.2491.559.928.9881.4671,1.2074a4.37,4.37,0,0,1-2.6961.4435c-.4869-.0052-1.4485-.0738-1.8389-.02a5.3736,5.3736,0,0,0-1.5984.39,2.0275,2.0275,0,0,1-1.9949-.4862c-.3871-.4177.0918-.4132-1.2548-1.1385-1.3636-.7288-1.6709-1.1344-2.1449-.9-.4821.2227-.4807.0651-.89.2181-.4054.1547-.4018-.1619-.7969.1506-.3968.32-.5547.1607-.5632.9564-.0085.8009,1.26,1.6882,1.2564,2.017-.0032.3056-.6419.2181-.8073.9426a3.94,3.94,0,0,0-.2568,1.51c.0681.4073.7015.3279,1.187.9707.4647.6365.3972.16,1.02,1.0485.6334.8837,1.5884.5773,1.4159,1.1327a11.7628,11.7628,0,0,0,.5385,3.1875,2.631,2.631,0,0,1-.0161,1.5165,1.4333,1.4333,0,0,0,.1306,1.3587c.3258.56,1.1187,1.1294,1.0267,1.6122-.0846.4705-1.0579,1.3343-1.133,1.5693-.0751.2542.3141.65.54,1.6881.228,1.0424,1.0329.4793.5429,1.4363a8.2842,8.2842,0,0,1-.9778,1.506l-.4346,3.89s-.343,2.2509-.4362,2.8808c-.0724.6448.0789.7189-.0115,1.11a9.1687,9.1687,0,0,0,.073,1.2839c-.005.4721,0,0,.1441.7946.1581.7989-.02.6693-.1644,1.12-.3364,1.0215-.1721,1.9089-.3508,2.3791-.1575.4811.2264,1.1972.1548,1.7691-.0928.5445.218,1.2706.1344,1.6684-.0908.4046.6256.482.0688,1.0407-.5639.5509-.8026.4673-1.0529.8666-.2451.4-.5522.1447-.7124.7007-.1721.5657.3064,1.2014-.0983,1.9095a6.1382,6.1382,0,0,0-.6576,1.52c-.0829.3122-.0025.2391-.0115,1.1248-.009.8547.07.2984-.415,1.4193-.4872,1.1158-1.3658.4576-.5773,1.9812.7825,1.5288,2.3314,4.6658,2.42,4.9759.0711.3138.7136.56.3788,1.4346-.3284.8747-1.0354-.0924-.8074.9628a21.0572,21.0572,0,0,0,.4535,2.3093c.3091.9544.782,1.4389.6241,1.9944-.18.5624.3877-.1614.1427.88-.25,1.034-.5623.9526-.5718,1.8231-.01.9042.71-.458-.01.9042a10.224,10.224,0,0,0-.7369,1.342c-.5725,1.1775-1.0391-.0994-.65,1.5823.3762,1.6718-.015,1.4272.3673,2.4639.3926,1.0492.7086.8121,1.0915,1.4576.4006.6427,1.2872-.064,1.36.9618.0718,1.0412.6207,1.12.6113,2.006-.0092.87,1.1084,1.048.6069,2.551-.4834,1.5107.6845,3.437.676,4.2379-.0086.8078-.2386.3146.3083,1.1981.5418.8769.87.165,1.3511,1.059.4638.8667.4679.4765.8563.9526a17.853,17.853,0,0,1,1.4951,1.8573c.0913.2288.3214-.2478.6415.7989.3046,1.047.9342.9652,1.0991,1.13.15.1682.7313-.6266.7231.1743-.0084.7891-.1082,1.5067.3774,1.5118.4781.0051,1.2092-.78,1.3572-.7042.1518.0812.5578-.1532.9663-.3805a2.8691,2.8691,0,0,1,1.433-.3071,6.4469,6.4469,0,0,0,1.7626.0187c.7116-.1492,1.04-.3062,1.2689-.0629.2366.2384,1.7274.0024,1.274.1712a18.1711,18.1711,0,0,1-2.2329.53c-.4054.1534-.6419-.0878-1.0444.1466a3.2128,3.2128,0,0,1-1.1106.3022c-.9774,1.1119-1.54,1.3529-1.224,1.8321.3121.4786.4476.438.2295.868-.8158,1.5894-1.4321.237-.8158,1.5894a20.5536,20.5536,0,0,0,1.3308,2.4933,2.7952,2.7952,0,0,0,1.2646,1.0491c.317.1549.72-.7152.9648.0837a7.0772,7.0772,0,0,1,.0469,2.24c-.0083.7933-.0883,1.6739-.0237,2.2346a2.3757,2.3757,0,0,0,.7847,1.3631,34.8638,34.8638,0,0,1,2.4457,2.5824c.2375.3118.8034.5723,1.1018.8809.3276.3365.8042.4848.8782,1.054a2.0678,2.0678,0,0,0,.2875,1.1165c1.0263,1.1205,1.679.8917,1.76,1.4507.0544.5568.1492.3248.2949,1.1274.1564.7829.164.0672.1514,1.2625-.0128,1.1984.07.3989.4507,1.4359.3946,1.04.3364-.31.3946,1.04.06,1.37-.2432,1.0491.3077,1.6861.55.6439,1.192.5768,1.3487.811.15.241.7987-.15,1.1144.17.3086.3322,1.5012.0967,1.5012.0967s-.6973-.7268.8916.01,4.5336.6861,4.921.8493c.4059.17,1.116.34,1.2788.7321.1623.4078.9463.3272,1.0261.963.0658.6463.5555.2571.7906.805.2172.5665.4716.4837.9556.4158.4686-.0764.5581-.4732,1.0256-.144.4767.3185.6482-.16.9587.1651a2.3847,2.3847,0,0,0,.79.4879c.3192.17.64-.0624.8734.4929s.6382.4793.8591,1.0444c.2525.5562.4017.3912.8838.8838.4734.482.9549.17,1.1806.6427.2358.4821.792.5739,1.1838,1.1228a29.3382,29.3382,0,0,1,2.2709,3.7017,12.7642,12.7642,0,0,1,.5457,2.5045l-.17.0919a.55.55,0,0,1-.0155.1462c-.0662.3787-.2284.1436-.0075.7157.2332.5428-.2251-.1737.2332.5428a4.4191,4.4191,0,0,1,.9432,1.77c.151.7988.6239.6443.859,1.3663a9.5679,9.5679,0,0,0,.779,1.5983,5.9287,5.9287,0,0,1,.7139.963,14.2982,14.2982,0,0,1,1.3368,2.0941c.23.714,1.7145,2.5709,2.109,3.4526.3982.8786,1.42.8894,1.41,1.8521-.01.9548.2356,1.0276.1492,1.5954-.08.5634.2347-.0757.3778,1.1207.1558,1.1937.7866,1.3586.7789,2.0774-.0076.7158.6268,1.0349.46,1.6139-.153.5359-.0058.5375.0688,1.0257.0766.4639.25.4658.5648.8766.3073.4088.3081.3274.698.6568.4.31,1.8207,1.21,1.8207,1.21l1.4356,1.299,1.4933.8854,1.97,1.6963s.7151,1.0508.9508,1.0533a2.11,2.11,0,0,1,1.0307.8821,12.6539,12.6539,0,0,0,1.0215,1.36,2.1227,2.1227,0,0,1,.5509.7254c.0744.3179.7837,1.2767.69,1.9217-.0845.6457-.1628,1.0228-.1628,1.0228.1393,1.2051.1377,1.3635-.0988,1.7744-.2433.3881-.6272-.5021-.9563-.1766-.3223.3058-1.0423.7039-1.5094.1505-.4847-.5772-.0784-.8134-.8755-.6473-.8019.1341-.8019.1341-1.28.2109-.4864.0764-1.118-.0115-1.36.2326-.2434.2342-.6385.0784-1.11.4641-.4809.3967-.0937.8034.2146,1.1119.3175.3323,1.36-.2213,1.5221.3451.1465.5588,1.2464,1.448,1.576,1.7729a8.2653,8.2653,0,0,1,1.17,1.7446c.4706.91.3164.9086.9462.9892.6372.0872,1.3605-.3107,1.7489.1687.3986.4838.79.72,1.4277,1.38.6312.6449,1.8317.3366,1.98.7335.162.3918.5549.0817.96.3227.3909.2474.8753.1792,1.1863.4144.3147.2429.2419-.3993.797.0085.5524.4081.7968.09,1.67,1.0582a29.8542,29.8542,0,0,0,2.9293,2.1045,3.6618,3.6618,0,0,0,.94,1.12c.5538.4115,1.0271.7337,1.0964,1.2135.0868.4721.551.8761.3942,1.7484-.1778.8874.3057.726-.3378,1.5982-.6522.8737-.1714.489-.5722,1.667-.422,1.1988.0731.4733.062,1.5244-.0115,1.0292-.1716.4749.5343,1.5991.6983,1.1176.3794,1.277,1.41,1.7716,1.0457.4828.9483.3231,2.1578.8931a6.0862,6.0862,0,0,1,2.288,1.788c.6244.71,2.7641,2.0938,3,2.4173.2362.315.3908,1.2724.7825,1.44.4038.17,1.5118.4179,1.7316.7328a16.4255,16.4255,0,0,1,1.2149,1.1965c.2909.4935.4617.097,1.014.8219.5486.7263.8-.2306.8551,1.2124.0737,1.4323.16,1.9549.4635,2.0741a4.5076,4.5076,0,0,0,2.234.1823,12.4238,12.4238,0,0,0,2.1569-1.5734l-.06-1.2035a8.6511,8.6511,0,0,0-.55-.9583c-.2362-.3118-.62-.9685-.9371-1.3625a1.8853,1.8853,0,0,1-.5435-1.2051c-.08-.6386.2507-.3959-.1461-1.27s-.33-.3243-.624-1.29c-.3181-.94-1.1909-.6433-1.5876-.6474-.4-.0043-1.8389-.0195-2.0732-.3275-.2374-.3348-1.2634-1.3085-1.5036-1.2272-.2258.0791-.6386.2262-1.03-.6556-.3873-.8832-.6984-1.2841-.5394-1.7466.1659-.4852-.0459-.7.3365-1.033a1.6947,1.6947,0,0,0,.6527-1.9154,2.3891,2.3891,0,0,0-1.1-1.2144c-.3165-.0759-1.1018-1.3577-1.1018-1.3577s.569-1.033-.1538-1.2044c-.7174-.1653-.3773-.6454-1.3374-1.0346-.9606-.4238-1.9989-.28-.6217-.9773,1.35-.6936,1.8285-.5416,1.8326-.9275a16.2668,16.2668,0,0,0-2.2774-2.7431s1.1064.886.7093.0814a5.0961,5.0961,0,0,0-1.0981-1.8376c-.7865-.8827-.6129-1.6883-1.4074-1.9325s-.9423-.8844-1.7432-1.8514a14.0788,14.0788,0,0,1-1.0223-1.3733,3.675,3.675,0,0,0-1.1808-.87c-.5477-.339-1.2546-2.0172-1.809-2.3482A2.7839,2.7839,0,0,1,406.06,623.1c-.4686-.8911-.3034-2.8037-1.1727-3.0636a3.3591,3.3591,0,0,1-1.8078-2.5594,3.4481,3.4481,0,0,0-1.0145-2.0912c-.3148-.2359-2.1462-.4218-1.0236-1.8519,1.1306-1.4117,1.4691-1.9653.7528-2.5328-.72-.5462-1.7255-2.3313-2.203-2.2545-.4809.0786-.644-.2355-1.4312.1425-.8016.4051-.9664.0744-1.7619-.0926-.7954-.174-1.1942-.8089-1.7506-1.1394a4.3582,4.3582,0,0,1-1.7276-1.84,7.9225,7.9225,0,0,1-.7733-2.2515c-.1525-.7979-.5332-3.0218-.5332-3.0218s.1664-.1648-.1377-1.5332c-.3043-1.3529-.0853.7187-.4527-2.228-.369-2.9634-3.37-4.5073-.1169-3.3542,3.2515,1.1441,4.61.8442,4.8464,1.0947.2365.2344.404.1516.8766.0093.48-.1531.8938-.72,1.52-.1421.637.5555.4735.0786.9378.9541.4706.8864,1.2649.9756,1.3478,1.3714a.8333.8333,0,0,0,.7782.65c.3328.0036.901-1.108.9629.0832a7.676,7.676,0,0,0,.931,2.7162l-.5807,1.9943a9.64,9.64,0,0,1,1.5767,1.8571,17.9575,17.9575,0,0,0,.54,1.8421c.3088.7995,1.5,1.3658,1.3336,1.9172-.1722.5633.1568.4.5446,1.2855a19.779,19.779,0,0,0,1.255,2.083c.2219.4813.7932.7321.8564,1.444a3.9435,3.9435,0,0,0,.5363,1.9281,10.5817,10.5817,0,0,1,.7893,1.0517c.3988.4651,1.3486.6337,1.43,1.1133.0727.4766.3721.6454.6185,1.2866a18.0953,18.0953,0,0,0,1.332,2.25s1.0286.7223,1.2608.8826c.2355.1689.4779-.1527,1.6014.6554,1.1007.8159-.006.5642.5425.81.5556.2379,1.98.7484,1.98.7484l.8734.3186s.6239.8108.547,1.0454a19.4128,19.4128,0,0,0,.2948,2.9471c.0719.2411.7083.4052.96.5665.2252.1652.5624-.31.8546.0984.329.3941,1.2022.2518,1.2777.4935.084.2325.5494.1555,1.0254,1.1973a2.7449,2.7449,0,0,0,1.1832,1.37,8.7739,8.7739,0,0,0,2.0483,1.619s.6478-.0746.7953.407c.16.4765.88.3265.392,1.28a15.36,15.36,0,0,1-.8157,1.7476c-.4138.5523-.4132.4863-.4189,1.036a4.5657,4.5657,0,0,0,.7819,1.6673,5.6649,5.6649,0,0,1,1.2675.7441c.164.2375.8723.4,1.1248.56.2251.1656,1.6578.8961,1.6578.8961a1.1438,1.1438,0,0,1,.8744.4037c.2365.4048,1.4117,1.8478,1.4117,1.8478l.96.1763s.8723-.3033,1.1822.0977c.33.3978.72.5535.786,1.0412a2.138,2.138,0,0,1-.0135,1.2837,1.54,1.54,0,0,0-.0822,1.0355c.0663.4647.7874.8054,1.0224,1.361.2331.56,1.6549,1.1342,1.8192,1.5265.1481.4086.8583.4161,1.0363.6612.143.23.7019.1549,1.1018.5647.3893.3911,1.2688.173,1.4994.974s.7919.64,1.0359,1.3621c.2174.7172-.8943.4626.8587,1.3773,1.7377.8811,3.0015,2.0121,2.8526,2.3315-.1821.3232,1.1631,1.9309,1.1605,2.1788-.0023.2241,3.1688,2.2526,3.2435,2.5673a12.0223,12.0223,0,0,0,.6863,1.7626c.1744.2344.9612.2427,1.0336,1.4543a21.0526,21.0526,0,0,0,.6153,2.4654c-.006.565.3986.488-.18,1.1274-.5648.6312-.4745.1419-.08.7955.39.6385,1.0968,1.13,1.1662,1.6015a5.889,5.889,0,0,0,.4739,1.1153c.0844.241.4689.7357.1537,1.2044-.3241.4761-.3191-.0035-.4145.7965a8.4526,8.4526,0,0,0-.0219,2.06c.0835.3378.5343.2653.1557.899a7.8934,7.8934,0,0,1-1.3726,1.811c-.4765.4675-.8008-.02-.48.7959.2946.7993.7636,1.6757.9237,2.0907a21.2821,21.2821,0,0,1,1.5724,2.3217c.2329.7136.216,2.31.5333,2.4726.3154.17,1.4168,1.2182,1.74,1.449.302.2479,1.1,1.3815,1.3261,1.441.238.1033.9695-.3729,1.453-.2082.4767.1715,1.7392.242,1.9022.5768a4.435,4.435,0,0,0,1.5065,1.45c.5484.2525,1.8217,1.2913,1.8182,1.6174-.0035.3241.5565.16.7787.7263a3.9452,3.9452,0,0,0,.87,1.1273,6.6489,6.6489,0,0,0,1.823,1.04c.39.2512.3935-.0533,1.0989.2586a9.5218,9.5218,0,0,1,1.9111,1.0659c1.1119.7231,3.6717-.0505,3.9011.192a14.1475,14.1475,0,0,0,1.912.9864s1.4364-.1514,1.6711.2534c.235.3978,1.7282,1.2913,1.817,1.6094.0849.3214,1.4189.9657,1.4155,1.2914-.0033.3208,1.8956,1.3773,1.8956,1.3773a3.0262,3.0262,0,0,1,.8851.4c.3178.25-.2442.4928,1.5876.829a5.3918,5.3918,0,0,1,2.535,1.21,11.7261,11.7261,0,0,1,1.5046.9665l1.8333.0194,1.5883.7477a3.5928,3.5928,0,0,1,.7214.3131c.629.3328,1.8218-.0453,2.1532.108.31.17,1.8134.7472,1.8134.7472s1.0374.0836,1.1036.49c.0918.3995.5532.6492,1.121.8825a8.9309,8.9309,0,0,1,1.5759.59c.4768.31.8124.0732,1.7543.64.9418.5708,6.6665,2.7125,6.6665,2.7125s1.9948.662,2.4024.3422c.3963-.3125,2.1374.4171,2.45.4985.3328.076,1.67.4117,1.9236.4143a7.7133,7.7133,0,0,0,2.1583-.371c.3141-.2376.1448-.1579.8009-.39a8.3749,8.3749,0,0,0,2.789-.9992,13.1088,13.1088,0,0,1,2.8119-1.2465,2.5,2.5,0,0,0,1.1964-.5413c.323-.4131-.2357-.4935.7181-.5636a2.6844,2.6844,0,0,1,1.5925.1712c.8838.2525,2.789,1,2.789,1,1.2691.6351,2.3031.894,2.7856,1.1429.4637.2327,2.8319,2.42,3.159,2.5a7.0269,7.0269,0,0,1,1.5691,1.0609c.2436.235,1.2031.81,1.3468,1.1174.1631.33.0887.3288,1.0282.8108.9564.5018.8212-.9354,1.5159.5653a30.7681,30.7681,0,0,0,1.64,2.6658,13.8165,13.8165,0,0,1,.8569,1.9156,1.4934,1.4934,0,0,0,.3572.7275,1.5555,1.5555,0,0,0,1.2358.7247c.8-.0688,7.0586,2.6352,7.0586,2.6352s.7919.7116,1.0311.483a3.7165,3.7165,0,0,1,2.1577-.2947,6.5817,6.5817,0,0,1,2.2182.82l.0549.0395c.5868.4131.6156.08,1.531.9331a12.9671,12.9671,0,0,0,2.9506,1.4619c.3754.3361,1.1133-.2193,1.6661.2647a9.056,9.056,0,0,0,2.6089.8982s2.2446.1979,2.4689.2578a12.5716,12.5716,0,0,0,3.0342.3661,15.3916,15.3916,0,0,1,4.0606.2008h.0141c.3306.2365,1.2646-.1331,1.257.5785a11.6406,11.6406,0,0,1-.3318,1.9062c-.056.2512.1607.5313.422.7937.2511.2315.5426.4591.7655.6463.46.4029,2.5251,1.303,2.5988,1.8679.0812.5465,1.4144,1.62,1.2581,1.8428-.162.2382.4712.1635.6992,1.0444.2423.88,1.2606,1.6016,1.4246,1.8514.162.2454.162.2454.8655.8863.7141.6391,2.1392.9013,2.2235,1.1422.077.2365.7.8041.7866,1.0559.0771.2286.8692.7128.864,1.1928-.0036.3518.3452.7152.3558,1.0091l.0043-.0027a.3772.3772,0,0,1-.1349.28c-.4074.3011-.5209,2.6742-.4353,2.9382a9.5647,9.5647,0,0,1,.0666,1.7522,3.0164,3.0164,0,0,0,.38,1.7552c.31.3986.8549,1.4485,1.169,1.3784a2.32,2.32,0,0,1,1.0341.25l.8762.2335a9.7606,9.7606,0,0,1,1.8363,1.1455c.077.2445,1.3407,1.3676,1.4987.813l.1743-.5515s.1607-1.2788.1629-1.5142c.0027-.2437-.6256-.6489-.9286-1.4522-.3227-.8006,1.3416.5854,1.4183.9a7.5361,7.5361,0,0,0,.4592,1.6722,2.6505,2.6505,0,0,0,.5524.7249c.2391.1607.8737-.0768.9625.25.07.3133.4656,1.0487.7858.8856.3176-.1623.7136-.3985,1.0277-.1547.3234.2536,1.1213.1774,1.4363.5714.3074.3982,1.2752.18,1.195.74-.0981.5561.9327,1.12.93,1.36-.0027.2508.3175-.078.31.6447-.0076.7116-.243.5509-.3995,1.1055-.1739.56.2269.4821.3787.89.166.4088.4042.31.472.8027.0744.4878.82.4569,1.0251.5705.8051.3991.0715,1.4243.632,1.195.5739-.2181,1.515.1044,1.6837-.2066.156-.3234.0905-1.0352.48-.8071.4049.2435-.2353-.0023.9543.4087a4.7421,4.7421,0,0,1,1.8238,1.1363c2.15.2627,3.66.36,4.2887.5254.6427.1722,1.606.264,1.8411.6492.2366.4095,1.1082.8979,1.1758,1.2158.0689.3292.8709.2564.8709.2564a2.7011,2.7011,0,0,1,.316,1.4339c-.1722.49.8594.3183,1.0309.5026.151.1415.7857-.0731,1.0381-.1714C627.5677,773.2779,628.1194,773.0386,628.2809,773.5319ZM557.4017,466.976c.7378-.48,3.6886-2.5238,5.0428-3.6079a12.111,12.111,0,0,1,5.027-2.1438,15.2331,15.2331,0,0,0,5.65-3.3577c.2506-.6074,1.0189-4.017,1.87-3.642s1.5734,1.2373,1.5681,1.7252,1.7277-1.8127,2.4676-2.5365,2.0963-2.0522,1.9824-2.786,2.0849-.9543,2.8093-.2145a8.77,8.77,0,0,1,1.5686,1.7252c.1182.3681,1.9564-.3451,2.9339-.4568a16.0858,16.0858,0,0,1,3.5336.5253,11.192,11.192,0,0,1,1.6909,1.7266c.1177.3672,1.33,1.1125,1.2005,1.8438s2.6513,3.2009,3.1316,3.9391-.3813,1.46-.389,2.1922.7256.6182,1.3412.1368.8749-1.9445,1.4848-1.938,3.1809-.6975,3.2951.0344,1.6889,1.849,1.1894,2.9422-1,2.1863-.0284,2.6846,3.03,1.9855,2.6588,2.4693-1.5953.8378-1.6018,1.4479a1.55,1.55,0,0,0,1.2032,1.5992c.8533.1311,2.6721,1.2489,2.5435,1.8581s-.6234,1.2139-.0181,1.7083a9.1483,9.1483,0,0,0,2.6756.8821s6.2359-1.0324,7.0836-.4132,3.4142.2809,4.0208.6526c.606.3737,2.6793.5165,3.0431.7649s1.4583.626,1.5747,1.1153,1.949.3869,2.4382.2695,2.6826.2731,3.0407,1.01,1.4462,1.7239,1.6824,2.4581,1.83.1419,2.0605,1.365,2.1772,1.8527,2.0474,2.584.84,1.3521.5924,1.7153.2269,1.5889-1.2437,2.1833-2.3293.9517-3.42.2086-2.9159-1.2511-3.3973-1.8672a11.6436,11.6436,0,0,0-2.9017-2.5931c-.73-.2525-1.5724-1.36-1.8219-.8745s-.5086,1.9483.2222,2.0782,1.2127.7445,1.8111,1.8493,2.1787,1.7316,1.192,2.6972-1.2386,1.6959-2.4641,2.171-1.7136.47-1.72,1.0811a14.9587,14.9587,0,0,1,.3405,2.4439c-.0156,1.4641.3385,2.5664-.1557,3.1712s-.6273,1.58-1.6089,2.0588a12.3771,12.3771,0,0,0-2.4623,2.0482,5.9767,5.9767,0,0,0-1.2476,2.55c-.135,1.2191-.0194,1.8309-.7554,2.1894s-1.827-.3856-2.5709.7049-1.8434,1.2012-1.12,2.0625,1.8278.264,2.8029.3961a3.1926,3.1926,0,0,0,2.6971-1.07c.6177-.7256,1.36-1.6937,2.3363-1.6834a17.99,17.99,0,0,0,3.18-.5768,5.8432,5.8432,0,0,1,.99-1.3322,19.5124,19.5124,0,0,1,2.3275-.83l2.1915.5116c1.0856,1.2317,1.9384,1.3627,2.4293,1.1238a6.5361,6.5361,0,0,0,1.3577-1.4505l1.1112-1.2083s1.2153.5013,1.58.6268a8.4375,8.4375,0,0,0,2.2018-.4642s1.4673-.23,1.8331-.2252a5.83,5.83,0,0,0,1.4711-.595s1.3551-1.2063-1.2051-1.4767-3.2859-.89-3.6535-.7712-.8464-.7417-.1092-1.2223a4.6081,4.6081,0,0,1,2.6981-1.192c1.466-.1056,1.8316-.1018,1.8485-1.689s-1.2045-1.477.0168-1.5862,2.5733-.9491,3.1782-.4548,1.8264.3862,1.9447.7533,3.3119-1.5513,4.044-1.5436,1.4685-.3512,1.9512.1427-.3747.85,1.2088,1.1114a5.2607,5.2607,0,0,0,4.4051-1.0519c.3689-.24,1.1254-2.5513,1.98-2.5422s.9871-.966,2.5785-1.4371a31.0223,31.0223,0,0,0,3.1872-1.3094c.98-.3558,2.22-2.1734,3.1989-2.4064s1.4745-.9617.9788-.2343a71.8839,71.8839,0,0,1-6.1677,6.1592c-1.2308.9634-2.1994.2205-2.3356,1.5622s.4737,1.3478-.0285,2.6847-.1377,1.4629-.8774,2.1877-.4962.7273-1.4764,1.0823-1.2874.13-1.7135.4705c-1.3543,1.0842.0937,2.6869-2.7,1.4367s-2.7917-1.4948-4.0134-1.3857-2.56-.2713-3.4155-.1583-3.9574-.6763-3.9081.2033a9.1184,9.1184,0,0,1-.1618,3.7812,4.2334,4.2334,0,0,1-2.2226,2.4177c-1.2269.5968-3.1877,1.3084-3.1877,1.3084a10.4694,10.4694,0,0,1-1.3693,2.5488c-.4922.3611-1.8347.3468-2.9382.8231s-2.9417,1.19-2.9417,1.19a2.2489,2.2489,0,0,0-2.3185-.0245c-1.228.7191-.9879,1.088-2.2151,1.6851s-5.258.9207-6.729,1.515-3.7792-.4063-4.5087-.6578a15.8446,15.8446,0,0,0-2.5539-.8818c-.8529-.1307-2.072-.2657-2.3085-1s-1.2243.3533-.236-.7345-.12-.246,1.4823-1.6934,3.2338-5.7024,3.8494-6.1837a11.4308,11.4308,0,0,1,1.4758-1.0829,1.9847,1.9847,0,0,0,.754-2.066,24.88,24.88,0,0,0-.5789-2.9357c-.36-.6144.6268-1.58-.0918-2.8081a2.5428,2.5428,0,0,0-1.8148-1.4835c-.4872-.1278.0168-1.5862-1.2089-1.1113s-.7437,1.09-1.974,2.0534-1.4854,1.9366-2.585,2.0476-3.16-1.2542-2.4217-1.8568a3.1092,3.1092,0,0,1,2.3313-1.1949c1.8349-.3475,2.45-.8288,2.33-1.0739s.2455-.12.3844-1.7049-.3017-6.106.1945-6.833-.3353-2.9327-1.0634-3.3063-3.5187-1.9906-4.1305-1.875-2.6767-.7609-3.4128-.4017-1.8239-.63-1.8239-.63.1246-.2429-1.3555,1.2062-1.1087.9641-1.8577,2.5431.2351.8564-.7567,2.3111-.4025,3.4134-1.6047,1.6921-.71-2.0824-1.8163-1.3624a7.3008,7.3008,0,0,0-1.7256,1.5681c-.74.7248-1.6005,1.3262-1.7316,2.1786a7.7254,7.7254,0,0,0-.274,2.8046,1.5819,1.5819,0,0,1-.3878,2.0712,4.0992,4.0992,0,0,0-1.0087,3.04,3.5675,3.5675,0,0,0,.9584,1.7192c.7231.8624,2.065.8767,1.9226,2.8275a10.3063,10.3063,0,0,1-.7752,4.02c-.6268,1.58-1.4952,2.9133-1.8718,3.8858s.5937,1.5927-.6372,2.556a16.1186,16.1186,0,0,1-3.07,1.7986s-4.1388-1.02-4.6182-1.88a45.6935,45.6935,0,0,1-1.406-5.5074c-.235-.8568-1.4361-2.7-.32-4.3969s1.4842-1.8153,1.4945-2.7916-.9361-3.7934-.3119-5.13.6267-1.58,1.4892-2.3032a5.5372,5.5372,0,0,0,2.1029-2.6628,10.4716,10.4716,0,0,0,1.2589-3.648c.01-.9762.7468-1.3351.3934-2.5594s.1479-2.4387-.3469-1.8339-1.8708,3.7637-3.3554,5.7-1.6113,2.3026-1.9741,1.9328-.5957-1.3494.5165-2.6794,1.1074-.8434,1.9822-2.7864.9841-.7223,1.0022-2.4307.5206-3.0452,1.1267-2.6734a11.8542,11.8542,0,0,0,2.9238.5194c1.34.2584.7242.74,1.95.2649s1.8485-1.6889,2.3383-1.8059.741-.846,2.2057-.83,1.2139.6221,2.0746.022.75-1.7019,1.6-1.204.3645.1262,2.3132.5124,1.83.0194,3.2924.2786,1.3451-.23,2.5613.1492.487.1277,1.2166.38.0078-.733-1.3239-1.724a7.0877,7.0877,0,0,0-3.2783-1.6212c-.7321-.0078-.8581.3578-1.8227-.7509s-.35-1.59-1.3257-1.6005-1.5785-.7494-3.17-.2784-1.9462-.6312-3.5445.45-2.3364,1.6842-3.1924,1.7972a6.9587,6.9587,0,0,1-2.6795-.5165c-.8515-.2536-1.3218-1.9672-2.4274-1.2462s-1.9363-1.6068-3.394-2.233-2.4279-1.2463-3.651-1.015-3.42.33-1.7031-.5059,2.8247-1.6792,4.1738-2.2749,2.943-1.312,1.24-1.8181-2.7981-.8843-4.025-.2869a27.1255,27.1255,0,0,0-3.4426,2.4047,14.7158,14.7158,0,0,0-3.3223,2.5277c-1.2346,1.3295-.9956,1.82-2.7078,2.1677s-1.092-.6207-2.9307.0918-.98.3558-1.8381.7132-1.7059-.2628-2.6808-.3942-2.07-.5113-1.7-.8733,1.1127-1.33.5027-1.3364-1.5776-.8715-2.6838-.1505-.25.6074-1.3577,1.45a6.98,6.98,0,0,1-3.4275.94,2.1441,2.1441,0,0,1-1.2191-.1341l-.1118-.9784C553.3513,469.13,556.6645,467.4562,557.4017,466.976ZM371.7955,274.8315c.1994.2037.7011.4106.599.5606s.8043.16,1.0559.2125,1.5641-.1847,1.6609.1691.7017.36.241,1.01-2.1748.783-2.6276.7277a3.9971,3.9971,0,0,1-1.9112-.373,2.5972,2.5972,0,0,1-1.1988-.97c-.2-.2038-.9526-.4132-1.3028-.6688a2.1751,2.1751,0,0,0-1.3076-.2661,6.6221,6.6221,0,0,0-1.162.29c-.5564.1958-.7532-.2092-1.3084-.1148s-1.5615-.067-1.7658.1829-.2525.0479-.6091.447-1.17,1.0458-1.3232,1.2458-1.2614.1377-.7107.4963,1.5555.5709,2.0056.9284,1.35,1.0215,1.2948,1.4242.2463.557-.3611.8023a5.487,5.487,0,0,1-2.0158.0293,1.4589,1.4589,0,0,0-1.1619.29c-.4571.3474-.2586.6017-.7662.9985a2.2056,2.2056,0,0,1-.7613.4963c-.5065.2463-.4031-.0042-1.2166.6921s-1.9876,2.1456-2.4906,2.04a1.6324,1.6324,0,0,0-1.9179.3329,4.5726,4.5726,0,0,1-2.277.8831c-.5059.1958-1.5587-.2687-1.5567-.4706a1.8847,1.8847,0,0,1,.2613-.9038,8.2619,8.2619,0,0,1,1.2694-.9443,12.5838,12.5838,0,0,1,1.7675-.3841,10.9809,10.9809,0,0,0,1.214-.4408,5.3754,5.3754,0,0,0,1.8732-.8364c.2049-.3.4145-1.0539.6178-1.2028s1.0593-.14,1.214-.4915.664-.8493.6657-1.0007.107-.5527.1086-.7043.0069-.6542-.1427-.8071-1.0484-.9182-1.3007-.8709a8.04,8.04,0,0,0-2.1178.1288c-.456.2472-1.1624.3408-1.3667.59s-1.3631.2377-1.6673.4361-.3528-.0038-.7619.5463-.1575.6028-.8693,1.2a4.6778,4.6778,0,0,0-1.1721,1.2469c-.2053.3506.0415.8576-.3665,1.3066a3.054,3.054,0,0,0-.5113.7,3.5685,3.5685,0,0,1-.9173.9975c-.3558.2483-.9569-.06-1.26-.0133a6.0247,6.0247,0,0,1-1.0058-.1619c-.2525-.0026-.3464-.6083-.7007-.4607a5.3828,5.3828,0,0,1-1.562-.0165,5.6645,5.6645,0,0,0-1.31-.0139,3.3949,3.3949,0,0,1-1.6142.1846c-.452-.156-1.4612-.0155-1.6592-.32s-.551-.3585-.7485-.7134-.341-1.1119.0123-1.1592.6028.208,1.2087.0632a6.3674,6.3674,0,0,1,1.4135-.2876c.1511.0521.3543-.1474.4581-.398a6.9807,6.9807,0,0,0,.4132-1.0039,1.9278,1.9278,0,0,1,.3617-.8523c.2043-.25.1565-.5026.614-.85s2.3861-1.6879,2.842-1.9352.307-.45.5644-.9512-.2887-1.2626-.5415-1.2151a15.6822,15.6822,0,0,1-1.71-.27c-.5033-.0559-1.8061-.7247-1.6029-.8736s.8065-.0419,1.6152-.2851a7.959,7.959,0,0,1,2.219-.1782c.2525.0028,1.5157-.3871,1.56.2181a1.0227,1.0227,0,0,0,1.0263,1.0191l.0211,0a6.4,6.4,0,0,0,1.9653-.03c.6065-.1447,1.4641-.2869,1.8684-.3834s.8657-.8475.5123-.8007-1.6512-1.0758-2.3546-1.2854a18.8531,18.8531,0,0,1-2.0544-1.08c-.3011-.1042-1.2061-.2649-1.6582-.4208a2.4442,2.4442,0,0,0-1.4076-.3172c-.6561.0937-1.2083-.0632-1.7636.0315a5.7137,5.7137,0,0,0-1.5652.2861c-.557.2457-1.8211.6856-1.8211.6856s-.5059.1964-1.1636.4416-1.5587-.3192-2.1646-.2246-1.1049-.3139-1.3571-.3166a1.7166,1.7166,0,0,0-.96.292c-.406.2475-.7523-.31-1.4117.0856a4.1719,4.1719,0,0,1-1.0133.5437,5.1,5.1,0,0,1-1.9588-.2022,5.7815,5.7815,0,0,1-2.9766,1.7883c-1.5942.21-2.2551-1.8437-2.2551-1.8437,1.8438-2.2557.7187-3.4049,1.8438-2.2557s2.5021.0265,3.1871-.1935a10.5677,10.5677,0,0,1,2.7295.0289s2.0545-.6608,2.9671-.8786,2.9612-.4237,2.9612-.4237l3.4342-2.0109a20.5149,20.5149,0,0,0,2.952.486c.91.01,2.5.2538,3.19-.421a28.4747,28.4747,0,0,1,4.8006-2.2242l5.4793-1.7619s2.2865-1.1133,3.4217-.8742a9.4043,9.4043,0,0,1,3.3951,1.6285,10.1257,10.1257,0,0,0,2.9449,1.169s-4.3243.1816-4.5588.8617-3.8721.4132-2.9693,1.1058,2.0256,2.0692.6606,2.0545-4.0921-.2707-3.412-.0361a23.6728,23.6728,0,0,1,3.6249,1.403,19.9185,19.9185,0,0,1,3.06.5761,1.378,1.378,0,0,0,1.4632-.1861,1.4274,1.4274,0,0,1,1.4117-.0856c.3.2048,2.1185-.2295,2.368.025s.9571.01,1.5119-.0344,1.5141-.2356,1.6689-.5867.4183-1.4576.87-1.3012.8082-.1926,1.1641-.4916.715-.899,1.0172-.8952.6054-.0947.9049.2112.9964,1.0683.89,1.571.6952.9651.1872,1.3629-1.4189.7407-1.6263,1.2929-.4667,1.2544-.57,1.5559a2.4477,2.4477,0,0,1-1.1194.9959,11.8068,11.8068,0,0,0-1.3189.8422C371.8,274.4283,371.596,274.6277,371.7955,274.8315Zm65.1065,36.8523a16.6272,16.6272,0,0,1-3.6518.2525,24.0026,24.0026,0,0,1-3.0556-.9081c-.8723-.3007-2.3414.5595-2.3414.5595a32.05,32.05,0,0,1,3.346,1.0567c1.017.4487-.9035,2.6182-1.3412,2.6137s-1.3169.2779-1.7469-.457-3.3521-.4733-3.3521-.4733-.5932.87-1.03.7189-2.6347.7019-3.3644.6942-.75,1.89-.7546,2.3275-1.7762,2.317-2.7963,2.16-2.6471,1.8695-2.7993,2.4518a7.2512,7.2512,0,0,1-1.9267,2.7529c-.5869.2857-2.7776.4085-2.9175-.1769s-2.478-.3183-3.0618-.3245-1.0511,2.7623-1.0573,3.3462-1.0371,1.4486-2.0617,1.73-2.6256-.1737-2.6318.41-1.1738.5714-1.7587.7116-1.4563-.3074-1.45-.8912-3.6566.691-3.6566.691-3.509.5468-3.9468.5421-2.3336-.1707-2.7642-.9051a4.4017,4.4017,0,0,0-2.1748-1.3367,2.9156,2.9156,0,0,0-2.34.4132c-.7361.576-2.1908.1228-2.9191-.0309s-1.4393-1.9128-2.1661-2.2124-.8462-2.7824-.8462-2.7824a9.122,9.122,0,0,0,2.4517,2.7993,2.9917,2.9917,0,0,0,2.9175.1769,9.0371,9.0371,0,0,0,1.6193-1.2969c.8849-.8665,1.0215.0108,1.7514.0185s1.89.75,2.9128.6147,1.0309-.8648,1.19-2.1768,1.6338-2.61,2.0774-3.1893,1.0268-.427,2.9164.3229,1.6068-.1285,2.7809-.7.4512-1.3085-.423-1.4637-1.0045-1.6163-1.7331-1.77-.2754-1.6086-.9923-2.7834-2.3161-1.7767-3.1841-2.5157c-.7238-.6158-1.7367-1.63-2.0575-1.9544-.1919-.0229-.2754-.0586-.11-.112l.11.112c.3174.0385.9287.0459,1.2018.0484a8.9881,8.9881,0,0,1,2.6148,1.1949,21.88,21.88,0,0,0,2.4637,1.6317c.5822.1521,1.4522.7452,1.8916.6044s2.3306.4626,3.2059.4718a1.2826,1.2826,0,0,1,1.301,1.181c-.0046.4384,1.736,1.4781,1.736,1.4781l2.6152,1.1955a6.576,6.576,0,0,0,3.0615.3248c.5915-.1121.8663.8845,3.0664-.114.48-.2172,1.6116-.5667,1.6116-.5667a3.373,3.373,0,0,0,2.346-.9965c.8865-1.0123.1553-.8746,1.7731-2.0247s1.1722-.4259,1.9065-.8561.885-.866,2.06-1.5839.5839.0062,1.7577-.5653.74-1.0139,1.6287-2.1726,1.1783-1.0089,1.7636-1.1487,1.8912.604,2.6211.6117,3.793.1861,4.67.05,3.49,1.2042,3.49,1.2042S438.0712,311.55,436.902,311.6838Zm74.847,109.7715c-.1118-.9776-2.284-3.32-3.4927-4.431a4.4194,4.4194,0,0,1-1.8-2.9482c.009-.8536,1.6108-2.302,1.0034-2.5522a7.5138,7.5138,0,0,0-3.0548.3336c-1.223.2317-.7248-.74-1.4439-1.9676s.6268-1.5808,1.1281-2.7956,1.25-2.7938,1.7369-2.667a11.3979,11.3979,0,0,0,3.5393.0375c.8567-.2347,2.2651-6.4447,2.2651-6.4447s.8284,2.45,1.1844,3.43c.279.769.9827-.6,2.08-.4659s.8477.62-.8723,1.7a19.266,19.266,0,0,1-2.9488,1.7989c-1.7173.8365.595,1.4711,1.44,2.3343s2.0617,1.2426,2.5435,1.8581-.2713,2.5594-.3985,3.0471.9594,1.5971,1.5694,1.6035,1.3348.746,1.0763,2.0858a3.5772,3.5772,0,0,0,.8207,3.182,6.0718,6.0718,0,0,1,1.0724,2.4525c.1183.3673,1.3076,3.3094,2.0372,3.56s1.44,2.3344,1.8007,2.8266a10.0464,10.0464,0,0,1,.8185,3.4263,7.5747,7.5747,0,0,1-1.14,3.8934c-.993,1.5759-1.8645,3.154-3.1962,2.1631s-.8412-1.23-.9491-2.5729a6.4034,6.4034,0,0,1,.3981-3.0475,12.3123,12.3123,0,0,0,.8935-3.6518,11.6962,11.6962,0,0,0-.3379-2.6885,13.42,13.42,0,0,0-2.0914,1.5643c-.3715.4844-1.3477.4741-.8452-.8637a4.0611,4.0611,0,0,0-.2156-2.6873,2.75,2.75,0,0,0-2.1761-1.9753C513.6567,420.8981,511.8608,422.4329,511.749,421.4553Z"/>
        <path d="M277.1561,415.3581c-.7937-.3213-1.5768-.33-2.212-1.454-.6312-1.1248-1.1125-.9756-1.251-2.4189-.1514-1.4323.005-.4687-.7787-1.7445-.7834-1.2963-1.6126,1.719-1.2606-2.0943.3737-3.8335-.9067-3.5213-.8952-4.6426.0114-1.11-.521-.9959.1781-1.7539,1.77-1.8951,1.9246-1.8937,2.2692-3.1587.2066-.79-.9654-.01-3.1853-.5015-2.231-.507-2.07-1.1434-3.671-.6772-1.601.4517-2.5346-2.579-2.71.61-.2021,3.1763-.6886,4.4558.8853,5.4157,1.5981.98.9634-.1367,1.5981.98.6263,1.1248-1.7675,1.0994.2984,1.9177,2.0516.8226,1.757-.7778,2.0516.8226.3162,1.6048-.1654,1.7461.6107,2.5516.805.8048-.4812.9577,1.2679,2.24,1.7331,1.3063.31.6489,1.7331,1.3063,1.4209.6495.619,1.4452,1.895,2.5684,1.2545,1.1352.461.9611,1.8983,1.6141,1.4209.66.78,1.6054,1.4209.66C277.9415,416.6469,277.9516,415.6909,277.1561,415.3581Z"/>
        <path d="M266.7357,390.6942c3.1844,1.615,3.0108,1.3039,4.144.8448.7473-.3213.3236-1.1226-.1409-2.2373a13.9218,13.9218,0,0,0-1.4187-2.4085c-.9289-1.9313.17-.961-1.0717-3.0275-1.2528-2.1022-1.4283-1.14-1.5635-2.9021-.1481-1.7491-.6262-1.9207-1.1083-2.0881-.4622-.1634-1.7361-.3443-2.0467-1.2829-.31-.982-.3072-1.3029-.9412-1.6184-1.5787-.8176-3.9606-2.4364-2.385-.66,1.5762,1.7641,1.7317,2.0947,1.8692,3.6863.148,1.5871-.814,1.4253-.8292,2.8535-.0153,1.4385-3.0357,1.0925-.8171,3.0234,2.2069,1.9448,2.8478,1.6264,4.4234,2.9278C266.432,389.1017,263.56,389.0713,266.7357,390.6942Z"/>
        <path d="M284.3076,403.5531a18.3154,18.3154,0,0,1-3.32-3.38c.2345.9616-.0253,2.3861,1.1608,3.8373a13.202,13.202,0,0,0,3.5522,3.147c.9591.4821.7334-.9486.7435-1.9066S285.5676,404.5649,284.3076,403.5531Z"/>
      </g>
      <path d="M751.5038,469.22c-.9275.234-2.41,1.429-1.9856,2.1642.4316.7312.2755,1.805,1.4921,2.3327,1.2378.5309,2.3727,2.1369,2.5907,1.2568.243-.8722-.5433-1.8972-.8286-2.6885-.2839-.7993-.8594-1.0145-.64-1.604C752.3639,470.1185,751.7968,469.1576,751.5038,469.22Z"/>
      <path d="M763.1177,473.6964c-2.5416.55-7.7492-.5068-8.2562-.1521-.4836.3271-.9492,1.1381-.0962,2.2381a3.295,3.295,0,0,0,3.0388,1.1237,2.132,2.132,0,0,1,2.1522.5215,1.3907,1.3907,0,0,0,1.9211.4213l.0448-.03c.8022-.4247.8745-.2762,1.5963-1.5069.7461-1.2253,1.6979-1.3621,1.1857-1.8732C764.21,473.9339,765.6677,473.1376,763.1177,473.6964Z"/>
      <path d="M778.5619,473.4355c1.1828-2.3893-.2121-1.1732-1.35-2.9915-1.1308-1.8142-1.2256.13-2.4.7717-1.158.6371-3.9455,4.5248-4.331,5.0939-.36.579-.3.801-.3.801-.07.722.7847,1.1713,1.8719,1.3957,1.0891.2282.7964.0782,2.3323-.4075C775.9119,477.5965,777.3752,475.81,778.5619,473.4355Z"/>
      <path d="M778.33,480.9705a19.5381,19.5381,0,0,1,2.7051-1.6457c1.3814-.777.7315-.9976.241-2.8247-.4873-1.8185-1.5114-.4529-3.3319-.0352-1.8094.4229-1.4263,2.3708-1.9119,3.0277-.5931.782-.3042.9437-.1568,1.5909C776.008,481.7318,777.385,481.6732,778.33,480.9705Z"/>
    </g>
  </g>
</svg>
