<svg id="Calque_1" data-name="Calque 1" xmlns="http://www.w3.org/2000/svg" width="30cm" height="33.4cm" viewBox="0 0 850.3937 946.7717">
  <g>
    <path d="M615.0318,526.5625a17.6809,17.6809,0,0,1-1.4387-3.65,4.8328,4.8328,0,0,0-.8233-2.4419c-.8161-1.2355-.2072-3.4737-.8161-3.4737-.6217,0-1.2449-1.4152-1.6283-2.0274-.4218-.5978-.8288-2.4206-1.45-3.032a2.8585,2.8585,0,0,1-.6058-2.4612,13.5442,13.5442,0,0,0,.6058-3.0533c0-.8094.7929-3.8677.7929-4.6709,0-.8174,1.2089-3.461.8013-4.2641-.4155-.8421-.1858-2.2438-.4155-3.4547a29.6912,29.6912,0,0,0-.4282-3.067,2.2107,2.2107,0,0,1,.2232-2.8613c1.2-1.4018,2.2428,1.0324,2.0135-3.4492-.2013-4.467-.4312-6.7173-1.0276-6.1034a40.5992,40.5992,0,0,0-2.62,5.4929c-2.0286,1.8348-3.0681.8351-3.0681.8351s-.41-.6313-1.2025-1.6446c-.8262-1.02-2.8934-2.83-3.2772-3.4668-.41-.5866-1.2482-6.1075-2.8662-5.87-1.6366.2038-5.3234-3.2428-5.3234-3.2428s.6089-2.0276-.3856-2.0276c-1.028,0-4.069-2.0129-4.069-2.0129s-2.4324-.6121-2.8637-1.2321c-.41-.5977-.2142-3.46-1.2332-3.2564a2.0179,2.0179,0,0,1-2.2384-1.77l-.0043-.0406c-.1995-1.2219-.0208-4.8991-.4256-5.5186-.4064-.5986.6337-.1837-.4064-2.6116a7.4926,7.4926,0,0,0-1.8562-3.08,1.2029,1.2029,0,0,1-1.1634,1.2412l-.0325.0007c-1.2359,0-2.8529-.203-3.06-.8136-.2262-.6058,0-1.22-.609-1.64-.6026-.3814.609-1.4133-1.2208-1.4133-1.8329.0134-2.0131-1.7657-2.6587-.79-1.6148,2.4332-1.5733,5.25-2.4319,4.4535-1.8328-1.6056-1.4471-4.2387-2.045-5.4741-.6023-1.1986-1.415-1.6186-1.415-3.461,0-1.824,1.009-2.85-.4349-4.6725-1.4225-1.829-.2194-2.2366-2.0555-3.4463-1.83-1.2587-.7894-2.6724-2.2364-3.2446-1.4168-.6256-.6219-.8294-1.4375-1.6525a14.946,14.946,0,0,0-2.2365-1.6046,2.2879,2.2879,0,0,1,0-2.454c.811-1.2114,3.2675-2.2439,1.2176-2.6387-2.0441-.4076-1.0285.4218-3.4609-1.0069a9.7283,9.7283,0,0,0-5.103-1.1987s4.0668-1.0382,2.0383-2.0466c-2.0383-1.0189-6.1081-.8-6.31-1.6307-.2174-.8034-1.2241-.8034-1.61-2.0267-.4273-1.2106-.8468-2.6433-2.0679-2.8024-1.2114-.2246-.6216-1.468-2.24-1.468s-.6263-.3876-2.8507-.17a4.6322,4.6322,0,0,1-4.4765-1.4152c-1.2354-1.23-1.051-1.6971-1.8475-2.6433-2.6554-3.24-2.6554-4.4831-2.6554-5.6946,0-1.2232.8016-2.44-.4033-2.638-1.2611-.2091-1.8581-1.2162-2.4606-2.6568a12.1251,12.1251,0,0,1-.621-5.27,12.3968,12.3968,0,0,0-.1923-3.2571s3.0319,1.2028-.8439-3.2572c-3.8828-4.4807-3.0541-3.6671-3.0541-3.6671s-1.0215-1.3881-1.6216-2.2368c-.6238-.788.172-1.4012-1.2448-1.8084-1.4226-.3948-1.0156-.2295-1.4479-2.4413-.3822-2.243.2149-4.4734-.1925-5.4873-.4189-1.0325-.238-3.2692-.4276-4.4925a28.3124,28.3124,0,0,1-.4433-4.674c-.1805-3.67,1.04-2.2368-.1805-3.67-1.23-1.4012-1.8324-2.0264-2.6555-2.0264-.8177,0-.4075-.4076-2.05-1.4019-1.6283-1.0332-1.2207-1.8419-2.4539-3.08-1.2233-1.1979,0-1.4133-1.2233-1.1979-2.43,1.02-4.0485,1.6342-4.0485,1.6342-2.0226,1.4527-1.51.8873-3.0626.4123-2.6252-.7761-1.6066-1.4329-2.84-2.6315-1.2575-1.21-.6273-2.0267-1.2575-2.6522-.5966-.5716-.41-2.045-.817-2.8472-.3787-.8033.22-1.2251-.5967-3.2573-.8246-2.0264-.4274-4.04-.8492-5.0545-.4-1.04.4218-1.8361-.4-3.0533-.8214-1.2363,0-2.8608-.8214-3.6775-.8135-.7959.2174-1.4279-1.4219-2.6454a3.9807,3.9807,0,0,1-1.8576-2.625c-.4093-1.0326-.2013-1.8361-.5962-3.0479-.4316-1.2163.9919-.8335-1.2442-3.0636-2.2524-2.2575-1.62-.8033-2.2524-2.2575-.6089-1.3962.2229-2.2183-.208-3.4427-.401-1.21-.609-1.019-1.2263-2.8353-.6-1.8361.6173-1.8361-.6-1.8361-1.2329,0,.38-.8228-1.2329,0-1.642.8033-2.6522.8287-3.0448,1.8555a5.3067,5.3067,0,0,0-.6089,2.6454,26.3131,26.3131,0,0,1-.3971,4.6723c-.3859,1.4153.8278.4086-.9829,2.8618-1.8564,2.434-2.0594,2.8424-2.0594,4.06.0225,1.2106-.7949,1.0189-1.6065,2.6514-.8166,1.6381-1.2122-.1855-.8166,1.6381a4.5037,4.5037,0,0,0,1.2482,2.6454c.5991.8038,1.7175,1.3038,1.0061,2.0464-2.24,2.2177-1.2227.19-2.24,2.2177-1.0067,3.4737.8234,3.0532.0209,4.8889-.4759,1.0593-.3343,1.1638-.3167,1.2563-.394.4131-1.063,1.1519-.5.585-2.0219,2.2369-1.8054,1.6187-1.209,3.6655.6367,2.033.8144,1.4019.8144,3.0329a19.7369,19.7369,0,0,1-.3829,3.8883c-.5994,2.85-1.1009,3.35-1.0069,4.2648.2174,2.0394,1.1184,1.8555,1.4374,2.6435,1.0158,2.6586,1.7516,3.66,1.0158,4.4614-1.4222,1.6518-.21-.8016-1.4222,1.6518a8.3018,8.3018,0,0,1-1.125,1.83c-.0175-.69-.0773-1.3355-.0773.0917-.1121.1257-.0882.19,0,.5073,0,3.46.41.8366,0,3.46-.4162,2.653-1.4263,3.257-1.4263,3.257s.621.2053.214,2.0414l-.4012,1.8291c-.4005,1.8219-.1956-.1911-.4005,1.8219-.2019,2.0591,1.4291,1.0388-.2019,2.0591s-3.8428,2.4412-3.8428,3.6791a3.6265,3.6265,0,0,1-.6282,2.013,10.9469,10.9469,0,0,1-3.0286,4.0924c-2.0255,1.21-1.642-1.2372-3.0652.2187-1.4018,1.4075-1.8334-.1974-2.84.8015-.9906,1.0267-.6-.9989-2.8393-.1973l-2.2368.8294s-.2261-2.2446-1.0188-2.2177c-.8134,0-1.6428-1.02-2.6433-1.02-1.0222,0-.8287-1.4328-1.8573-1.6246-1.0221-.2182-2.83-.6-2.83-.6s.3973-1.8341-.2237-2.262a7.3816,7.3816,0,0,1-1.4285-2.0076,2.2516,2.2516,0,0,0-2.026-.414c-1.0277.414-2.043-1.6174-2.664-.79-.6114.79-1.2124-1.4525-2.8522-.827-1.6179.6241-1.4161-.41-2.2423-1.0069-.8108-.6-1.8082-.823-2.6442-1.4168-2.0282-1.4209-.8016,0-2.0282-1.4209-2.6466-2.2167-2.9744-2.6575-3.662-3.2373-2.05-1.6173-1.0278-3.6774-2.6674-3.6774-1.6186,0-.1932.2166-1.6186,0-1.4352-.19-1.64.83-2.6467,1.04-1.0061.1975-1.8324-.6056-2.8629-.6056-1.0162,0-.8107-1.6186-2.02-1.8341-1.2354-.1781-1.046-.792-1.642-1.6066-.6027-.8285-.4076-1.23-1.2211-2.2383a12.82,12.82,0,0,0-2.24-2.2423c-2.2639-1.415-4.0744-2.0272-4.9008-2.6313l-2.2368-2.8441,1.2114-2.2368c2.0228-2.0464,2.62-3.0653,3.2429-3.46a5.58,5.58,0,0,0,1.2123-1.6307,7.035,7.035,0,0,0,1.4048-2.8694c0-1.0006,1.6939-1.9025.81-2.4342-1.6213-1.02,2.2423-1.4352,2.2423-1.4352-2.4555-.8015-4.3333-.1518-4.2649-.8015.1894-2.2191.1242-3.8171,1.2122-3.6789,4.0692.6112,3.6585,1.026,4.8825.803,1.2245-.1918,1.2245,1.23,2.0261-.3947.823-1.6326,1.4352-1.02.6206-2.4357-.8134-1.4209-1.0276-1.6247-.2133-3.0653.8017-1.409.19,1.8355,1.6186-2.2383,1.4013-4.0842,2.4326-3.2557,2.4326-3.2557a14.1522,14.1522,0,0,0-3.2735-4.0737c-2.0226-1.4-1.4231-4.8483-2.4549-2.6252-.9943,2.2167-1.208,1.836-1.5945,3.6591-.4265,1.8285,1.6289,1.42-.4265,1.8285-2.0265.4081-1.8331-.7825-2.6354-1.2234-2.2425-1.1988-.8169-.1921-2.2425-1.1988-.8382-4.0708-.0205-4.8874-.8382-4.0708a24.8958,24.8958,0,0,1-2.2161,2.4531c-1.0273.796-2.2355.796-2.8357,1.4272-.6123.62-1.7058,1.3554-2.4652.816-2.2432-1.6055-2.388-2.1372-3.25-2.2177-2.0474-.2286-1.6158-1.02-3.0654-.42-1.4114.6241-.8144-1.4034-2.2374-.8033-1.4155.6138-.2492,2.5673-.7922,2.2369a49.4692,49.4692,0,0,0-5.1115-2.837c-2.8675-1.2234-2.6477-2.4068-3.6536-1.7949-1.0189.5852-1.0317-.8423-3.0662-.4348-2.0227.4348-1.6066-.3933-2.4293-.5972-.8173-.191-1.0339-1.6261-2.05-1.6046-1.0037,0,.3836-3.0682-1.0279-2.4556-1.4047.612-2.218,1.0522-3.044.8294-.814-.1975-1.4133-1.8085-2.0353-2.2447-.6383-.4067,0-1.8292-1.4253-1.5911-1.4463.19-1.4463-1.6327-3.0682-.2037-1.62,1.4133-2.2366-.6329-3.2435,1.4133-1.02,2.0328-1.4254,1.447-1.02,2.0328.41.6122,1.04,2.0414,2.6436,2.2313,1.6437.2109,2.6595-.3894,3.4548.4081.8267.8094,2.2634.4133,2.2634,1.4336,0,1.0061,1.0164,2.4078.4013,3.44a18.98,18.98,0,0,1-1.61,2.258l-2.0376.4006s-1.4254-1.0182-2.2426-.5907c-.8229.3876-1.2089-.2109-1.8329,1.2105a6.4676,6.4676,0,0,1-2.2159,2.4542c-2.2368-.5986-3.6833-3.4746-4.2976-3.4474,0,0-3.6566,1.02-4.6725,2.2368-1.0068,1.2233-.79,3.0668-1.4133,3.0668a9.9614,9.9614,0,0,0-4.0485.8294s-1.2543.203-1.4264,1.2162c-.2175,1.0206-1.4254,0-2.453,1.2369-.9942,1.2109-1.0159-.4348-.9942,1.2109,0,1.6246.1926,3.29.8015,3.29,0,0-2.01,3.2238-2.01,4.8485,0,1.646-2.0346.0333-3.6567,1.646-1.64,1.6515-2.7585,2.3831-2.8371,3.6637a48.49,48.49,0,0,0-.3978,5.2919c0,2.0328,0,2.44,1.2121,3.679a8.6234,8.6234,0,0,1,1.6516,4.0586c-3.2494,1.23-4.4789,1.23-5.2956.02,0,0-3.277-3.6527-4.4823-2.428-1.23,1.21-4.8831,1.21-4.8831,1.21-3.645,5.7168-5.2837,5.3039-5.2837,5.3039v-3.251a9.6379,9.6379,0,0,0-1.2307-6.0789c-3.6807-3.6591-3.27-5.7055-6.11-5.7055-2.8719,0,.3865,2.4548-2.8719,0-3.2469-2.428-5.2908-3.6383-5.2908-3.6383s-2.8546,1.21-3.2587,2.4546c0,0-3.5055-.9162-4.4574,1.6247a12.2851,12.2851,0,0,1-4.48,5.315c-3.662,0-4.4791-1.2154-5.69-.4066-3.65,2.4675-4.07,4.0841-4.07,4.0841l-.3866,5.7129s-4.4791.42-5.3029,2.4412a11.7978,11.7978,0,0,0-1.1754,4.0865,16.4213,16.4213,0,0,1,2.0472,4.4805l-4.9018.788-5.3138-2.8153-1.1907,5.2838s3.6678,1.2178,4.0752,3.2571l-4.4581,5.6993-1.2091,4.0995-2.4589-7.7379-3.8775-3.871s-1.432-1.1959-1.8334-.59a10.8779,10.8779,0,0,0-2.8357,3.4547c-1.417,2.6575-5.0763,5.5082-5.4622,6.1388-.4307.5985-.2287,1.1979,0,2.0122.19.8286,1.1973,1.0354,1.1973,2.4683.0205,1.4133-.953,3.6186-.5764,4.4415,1.2208,2.8545.1911,2.8749-.8253,3.7093-1.0072.7972-3.8441,2.6268-3.8441,2.6268s1.6287.2174.2,2.2312c-1.4146,2.0464-3.6535,4.7169-4.2513,5.5264-.6145.7972-1.208,1-2.037,2.0275a16.6642,16.6642,0,0,1-2.4326,2.2358c-2.8606,1.6307-5.89,3.488-5.89,3.488a36.4091,36.4091,0,0,0-4.0715.42c-3.0455.403-3.26.2109-4.4829,1.0134-1.2093.8286-1.0155.3884-2.2278,1.4424a25.1056,25.1056,0,0,1-3.0495,2.0463s-1.6439-1.2234-2.2428-.41c-.6.823-.8027-1.8339-2.0236-1.6056a7.7931,7.7931,0,0,0-3.6689,1.2123c-1.0178.8351-1.0178.4067-2.2365,1.4336a18.04,18.04,0,0,1-4.2618,2.0463,17.2222,17.2222,0,0,0-2.6489,1.4289s-2.638,1.4208-3.4492,1.8539a2.3244,2.3244,0,0,1-1.8567-.2175s-6.107-.7235-7.102-.3812c-2.4413.823-3.6655.4147-4.2648,1.2312-.6025.816-1.8991.3344-2.6585,1.0261-2.8368,2.6242-2.623.8294-3.6321,3.0463-1.04,2.2638-.6208.8366-2.0443,2.2638a22.8014,22.8014,0,0,1-5.2837,3.0532,7.1711,7.1711,0,0,0-2.0239,1.4462c-.4349.5867-.6,1.4152-1.628,2.0193-1.022.6257-4.0753-.1894-4.0753-.1894s-1.4013,1.0322-.8025,2.0138c.5978,1.0394-4.6722,3.9-4.4815,4.5124.2174.6327-.4285,2.0465-.9918,3.067-1.0276,1.8085-3.2736-.8032-3.2736-.8032s-1.4233-1.02-.6089-1.8554a3.7978,3.7978,0,0,0,.9941-2.434,6.7106,6.7106,0,0,0-.1894-2.4289s-.6208-.6247-1.8329.8042c-1.2093,1.4133-.9823,3.6638-1.6153,5.493a25.8786,25.8786,0,0,1-1.2243,3.2706c-.6113,1.4019-.1812,1.4019-.1812,2.6575,0,1.198.8264,3.8708.63,4.467a20.6483,20.6483,0,0,0-.63,2.6411c-.3826,2.0328.23,2.0328-.7926,3.2571a8.6735,8.6735,0,0,0-1.6151,3.0518,31.304,31.304,0,0,0-1.4112,4.0724c-.4035,1.23-.8049,1.026-.183,3.48a21.2233,21.2233,0,0,0,1.6388,4.6739c.3866.8017.8015-2.2365,2.0284,1.21,1.2151,3.46,3.2778,6.508,3.4824,7.3294.198.7841,1.8322,2.2168,1.8322,2.8169,0,.6242-1.0092,1.65-1.0092,2.4668,0,.8039,1.4254-.2295,1.2107,2.2368a4.039,4.039,0,0,1-1.5945,3.2571s-1.043-4.2831-2.4534-4.0795c-1.4254.21-.41-2.2309-2.4661-2.6514-2.0377-.3624-3.0535-2.4087-2.8422-1.0069.2141,1.4274,3.4519,2.8561,3.6861,4.2777a6.3447,6.3447,0,0,0,1.4169,3.46c.8054,1.0069.4066-1.4336.8054,1.0069.4252,2.454-.3987,2.6522-.9982,2.454-.5992-.21-.2141-2.2368-2.67-2.428-2.4293-.2037-3.0414-1.0323-3.4483-1.6307-.4066-.6192-.2085-2.428-1.2239-3.46a8.2593,8.2593,0,0,1-1.4226-1.7845c-.1926-.3423-.4076-.6844-.6208-1.0509a22.9551,22.9551,0,0,0-1.6406-2.2177s.2116,5.6834,1.6406,5.6834c1.4254-.0311,1.8507,1.0012,1.8507,2.2112,0,1.2313,1.4166,2.6665,1.824,3.2453.4195.6248,1.0158.2363,2.0583,1.2233,1.007,1.0268,1.6287.6185,2.837,1.23,1.2359.6121.6239,3.8693,1.416,4.4479.8477.6448,1.043,0,1.6375,1.83.6238,1.8425,1.86,1.4343,2.05,2.6575a53.5569,53.5569,0,0,1,.0206,5.9038,31.4367,31.4367,0,0,0,1.04,4.8753,18.0764,18.0764,0,0,1,3.25,4.6709c.21.8167-.7906-1.4133.6229,2.4548,1.4235,3.8693,3.4731,3.8493,3.6843,5.0656.214,1.2379,1.8324,5.6914,1.45,6.3044a13.6533,13.6533,0,0,0-.6088,3.4471,1.5915,1.5915,0,0,1,.2116,2.0466c-.8141,1.034.1926,1.6326,0,3.4547-.1932,1.8556.8294,1.4339,1.0159,3.2575.2194,1.829-.2778,2.2358,1.0308,3.6789,2.0471,2.2087,3.2823,4.2362,4.0959,4.8619a10.33,10.33,0,0,1,2.4324,2.8488c.8263,2.6333,1.45,3.448.8472,5.4946-.6081,2.0258-.2262-1.0126-.6081,2.0258a12.3808,12.3808,0,0,0,1.0155,6.088s-.8022,2.6771-1.208,3.6964c-.3865,1.019-.4106-1.0195-.3865,1.019,0,2.0218.2134,2.6333.2134,4.06,0,1.4215.6033,1.0085-.1865,3.2708-.8294,2.2367.79,1.1986-.8294,2.2367-1.6307,1.0084-2.8386.8031-3.8428,1.6341-1.0458.8207-2.0626.203-2.2462,1.8275-.1982,1.6187.4129,2.434.2084,3.8558-.1958,1.4486-.8136-.211-.1958,1.4486.5909,1.6032,1.6186,1.21,2.6586,1.4133,1.0071.19,2.2185,0,3.2493.7953,1.0068.8365,2.6442.4013,2.6442,1.2177,0,.804,1.8389,1.0206,1.8389,2.0274s1.0154,2.25,1.446,3.2437c.382,1.0339,3.4451,2.6585,3.4451,2.6585s3.2675.1894,3.44.999c.2381.8112,3.28.6059,3.28.6059l5.2923-.6448a9.8013,9.8013,0,0,1,4.8858.6255c1.8373,1.007,7.139-1.04,7.139-1.04l3.2226-1.4272,2.4446-2.2384,2.2368-2.446,4.2678-1.2524,5.4834-2.6261,1.8353-2.2773,1.4226-1.623s4.6723-1.2587,5.8806-.83c1.2481.4081,3.485.1709,3.6928.5975.1783.403,4.25-1.8554,4.25-1.8554a13.2779,13.2779,0,0,0,2.8493,0,18.2193,18.2193,0,0,1,3.0527-.2109s1.2122-.61,1.8361,0c.6078.6,1.6155-.42,2.2365.6.6146,1.0057,4.8857.8017,4.8857.8017l4.3016-.4068,2.8368-.2227s1.6186-.831,2.2161-.41c.5991.41,2.4347-.204,2.4347-.204s2.2347-.6311,2.8727-.8285a24.6094,24.6094,0,0,0,3.2494-2.8608s2.2128-1.6142,2.4053-2.24c.227-.6161-.5993,0,2.0472-3.2761,2.6309-3.2494,4.8771-4.0651,5.6913-4.2778.7923-.1894,4.0691-1.4133,4.6717-1.6364.6-.2174,4.0452-2.2448,4.0452-2.2448l3.258-2.8615s2.05-1.8284,2.24-1.23c.2174.6175,3.4732.2175,3.4732.2175l9.7482-.04a30.5343,30.5343,0,0,0,3.8581-.2109c1.0307-.2029,5.5073-1.6461,5.5073-1.6461l3.2587-.4,2.4352-1.8554a11.1149,11.1149,0,0,0,3.0626-1.8355c.9832-1.0206,1.4254-1.6246,2.4294-1.8556a18.4193,18.4193,0,0,1,3.0453-.6312h3.87a6.5245,6.5245,0,0,1,3.2556.2031c1.0092.6121,4.0755-1.2234,4.6693-.8286.6024.4083.8284-.5851,4.0753,0,3.2494.6058,5.4851-1.2178,6.3114-.4148.8142.8032,3.4515-.2174,3.4515-.2174s3.46-1.2321,4.4756-.6115c1.007.5994,3.8677,1.824,3.8677,1.824a18.5016,18.5016,0,0,0,3.2581,2.6237c1.2338.5983.0222,2.8507.8173,3.04.8262.2174,2.87.8022,2.87.8022H360.96a13.9287,13.9287,0,0,0,3.6678-1.4336c.6123-.5849,2.2369.5987,2.2369.5987a5.5742,5.5742,0,0,0,2.8543,2.6586c2.6684-.8367,2.2614-1.2243,3.46-.8367,1.2336.4086,1.8119.5535,2.457,1.4153,1.6367,2.2369,2.4294,2.4549,3.0623,2.6252.6245.2244,2.24-.1974,2.4358,1.4352.2139,1.6246,1.6371-.6.2139,1.6246-1.4254,2.2573-2.809,1.6461-2.2421,2.4612,2.2421,3.2572,3.8762,3.2572,4.0959,4.264.2144,1.0147,3.8671,1.6112,3.8671,1.6112a24.3036,24.3036,0,0,1,1.0164,2.844c1.0189,2.236,1.836,2.6454,1.8569,3.2564,0,.61,2.2432,1.02,1.8331,2.0255a2.31,2.31,0,0,0,0,2.0337,23.99,23.99,0,0,0,.8093,2.44,21.9661,21.9661,0,0,1,1.0469,3.6472,16.8351,16.8351,0,0,0,3.0534,4.5006s2.837.3876,3.0534.9877c.2029.6176,1.83,0,1.83,0s1.642-2.0414,1.0186-2.0414c-.6325,0-.2139-1.6187.1932-2.4288a26.7885,26.7885,0,0,1,1.8308-2.67l3.2277-3.0414,2.64-2.4531s2.66-1.4145,2.2589-1.6176c-.4219-.219,1.615-2.0606,1.615-2.0606a14.4578,14.4578,0,0,0,2.0137-1.0325,13.3218,13.3218,0,0,0,1.8532-1.8292,6.0959,6.0959,0,0,0,2.4245-3.4482,13.84,13.84,0,0,1,1.2179-2.0528l1.2115-1.6262a4.1068,4.1068,0,0,1,.1927-2.6575c.5994-1.2233,3.054,3.2572,2.4507,3.2572-.5969,0-.38,2.25-1.0026,2.6575-.61.4227-.203,1.212-.61,2.238-.41,1,.6306,2.053,0,2.6587a10.3473,10.3473,0,0,0-1.8331,2.6513c-.1741.6058-.795,2.6333-.9822,3.243-.22.6.4066,1.4288-.4013,2.8638-.8133,1.4133-.8133,1.2235-.5969,2.217.1691,1.0267,1.6186.8229.5969,3.2569-1.0035,2.4676,0,1.6375-1.0035,2.4676a4.7472,4.7472,0,0,1-2.8393,1.21c-1.4254.211-.2025-1.8221-1.4254.211a10.663,10.663,0,0,0-1.4265,3.0518l1.8361,1.85,1.64-2.8761,2.4057-.2174a3.6,3.6,0,0,1,1.86-.203,2.243,2.243,0,0,0,2.2335-1.0126,23.9761,23.9761,0,0,0,1.202-3.4608c.2019-1.2369.8022-3.2508.8022-3.2508,2.8607.3865,6.3122,2.0074,5.7119,2.42-.6089.3884.8142,1.0205.6,1.8372-.1933.7881.4272,2.428-.1692,3.8677a22.973,22.973,0,0,0-1.0213,2.85c-.2133.5985.1968.5985-.4043,1.8148-.6024,1.2115-.5213,1.2386.4043,1.6333a7.6194,7.6194,0,0,0,5.2838-.2166s4.4831-1.0267,4.29.1974c-.2076,1.1966,1.4354,1.0126,1.2149,1.8142-.1865.8294-.8081,3.257-.8081,3.257s2.24,1.7711,2.6674,2.2448c1.64,1.822,2.2893,1.9859,2.24,2.6323a7.9043,7.9043,0,0,0,.4349,3.8619,8.3932,8.3932,0,0,1-.2194,1.8411c-.1926.8175,1.236,1.2315.62,2.021-.5962.8431.0908.4469.4076,1.6445.8262,3.0263,1.13,3.1784,1.26,4.4672.1863,2.2367.5395,2.2715.9919,2.8367,1.8473,2.25,2.8628,3.0535,3.27,3.652,1.4231,2.0536,1.83,2.6522,2.4549,3.6591.5991,1.0252,3.0647.394,3.2809,1.0252,0,0,3.437-.4147,3.437.1911,0,0,4.8986,2.2184,4.6966,2.8154a20.2667,20.2667,0,0,0,3.2554,1.0338c.6229,0,1.0187-.6255,2.028-.2036,1.0256.3933,1.0048-.4218,2.4522.2036a23.3239,23.3239,0,0,0,4.454.9815s3.4761-.62,3.2827.4c-.1926,1.0137,2.05,1.4082,2.05,1.4082l2.0195.6255s1.6065.4271,1.8354,1.21c.21.8168,2.4508,1.6187,2.4508,1.6187s1.811-.6121,2.0294-.2053l.2174.4161,3.6462-2.047,3.044-2.0586,1.4266-1.83,2.2389-1.427,1.0079.8142,1.64-1.0172a5.4679,5.4679,0,0,1,1.209-3.0613l2.0252-1.4155s2.6464.9934,1.8179,1.6073c-.7872.6176-.5971,2.4532-1.1931,2.87l1.8313,1.1883,3.2478-2.2169s2.6575,2.0259,1.2287,2.8368c-1.4222.8152-2.453.4069-2.6213,1.007-.2259.6116.8136.6116,1.6271,1.0191a15.3185,15.3185,0,0,0,3.0455.803H520.95l1.8317,1.6187s1.2426,1.2308,1.2426,1.824c0,.6172,2.0353,1.8284,2.0353,1.8284s.6017,1.2227,1.0091,2.0392c0,0,1.4225-1.6307,1.4225-2.25,0-.6105,1.8214-2.8411,1.8214-2.8411l2.0343-.4161,1.8323-.4067c2.4326-3.2706,4.6727-4.4806,5.0824-5.2982a16.1618,16.1618,0,0,1,2.6438-2.6719s0-.604,2.0255-2.0172c2.0226-1.4479,3.6448-3.2572,3.6657-2.4549,0,.8033,2.24-.2308,2.24.4084,0,0,4.4546-2.6857,4.865-1.6517.3828,1.0125,3.2763,1.4074,3.2763,1.4074a8.2357,8.2357,0,0,1,2.6282-.4148,11.4149,11.4149,0,0,0,3.0539-.4218,8.3466,8.3466,0,0,1,2.6313-.4067,5.321,5.321,0,0,0,2.2459-.3949c1.0041-2.2518,1.6378-3.8558,1.6378-3.8558a35.1317,35.1317,0,0,1,2.2145-4.5139s.6691-1.323.1963-2.033c-1.2327-1.81-.624-5.0672-.624-5.0672a5.7618,5.7618,0,0,0,1.0026-2.4668c0-1.02.4018-1.02.6048-2.0408a8.9737,8.9737,0,0,0,0-2.44c0-.79.2039-3.0341.2039-3.0341a7.8937,7.8937,0,0,0,2.022-3.48,33.01,33.01,0,0,1,1.414-3.2373l3.2373-3.8885s.8134-2.0257,1.0159-2.6712c.2023-.5994.2023-1.8108.4064-2.4279a24.8,24.8,0,0,0,.7893-2.8448c.2163-1.0261,0-2.2365.6145-2.6434.6212-.3948,1.221-2.4539,1.221-2.4539s1.0159-2.04,1.2116-2.6454a30.1693,30.1693,0,0,1,2.4293-3.4547s.4075-.2093.6-1.6525a18.2651,18.2651,0,0,0,.2107-2.428,5.3227,5.3227,0,0,1,1.6186-2.2422c1.2116-1.0284,2.025-2.4555,2.6493-2.8639a5.3446,5.3446,0,0,0,2.2277-1.6365c1.6066-1.6056,2.0367-2.0275,3.0526-3.0734.9993-1,.1966-.3892,1.806-2.2184,1.6223-1.85,3.2615-3.69,3.2615-3.69s.6032-3.0391,0-3.0391c-.632,0-.225-1.6207-.225-1.6207s1.6148-1.6307,1.6148-2.6454a10.7487,10.7487,0,0,1,.4219-2.4539,6.6753,6.6753,0,0,0,1.2-2.4549c0-.8142,1.0394-2.8409,1.0394-3.4547a31.7238,31.7238,0,0,1,.7656-3.8557s1.2124-2.6587,1.04-3.4789c-.2233-.804.7712-2.2311.5812-3.4562-.1953-1.2163.19-2.2368,0-3.2636a6.0689,6.0689,0,0,1,0-2.6506,24.5829,24.5829,0,0,1,1.6123-3.257c.3866-1.0071,1.61-2.44,1.61-3.04a8.1026,8.1026,0,0,1,.8015-2.638,4.6889,4.6889,0,0,0,1.0077-2.87,16.3168,16.3168,0,0,0-.1932-2.6575S615.64,527.3656,615.0318,526.5625Z"/>
    <path d="M598.446,232.6025c.6692-.7426,1.7453-.5516,1.2357-2.1252-.5428-1.5857-.5428-1.0524-.3708-2.2951.1812-1.2108.1812-.8818-2.9873-3.3177-.8829-.71-1.5975.3478-3.88.172-2.2867-.1449-1.5945.3828-2.6334.7107-1.0762.3624-.1721,1.4146,0,2.1252.1771.7039.3472,1.5666-.8656,5.0928-.1663.5333-1.4229.5333-3.8645,1.2433-1.13.3287-.5183,1.5856-.7016,2.126a8.0769,8.0769,0,0,1-2.1038,2.1038,5.0924,5.0924,0,0,1-3,.8835c-1.908.1919-2.9716.5468-4.5568.5468s0,0-.884-.6853c-.8717-.7235-2.9936.1654-2.9936.1654s-4.5718.9132-5.1.9132c-.5246,0-1.9262.8566-2.6413.33-.686-.5194-1.2321-.1586-2.453-.5a23.8106,23.8106,0,0,1-2.8241-.8818c-1.22-.5455-3.3489.2832-4.2235,0-.5308-.1721-2.2939,1.4133-2.9958,3.1769l.74,2.4555a7.6852,7.6852,0,0,1,4.0508,1.23,9.7973,9.7973,0,0,0,4.3945.678c2.1069,0,1.5738.8876,1.5738.8876a21.1733,21.1733,0,0,0,2.65,1.046c1.5908.5333,1.048,1.0659,1.5908,1.4152.5195.3541,1.2244.69,3.1681.3423,1.92-.3759,1.2179.3287,2.8065,0,1.58-.3759,1.95.1571,3.5272-.3759a7.28,7.28,0,0,0,2.9641-1.4133c1.6031-1.0592,1.7757-1.0592,2.9957-1.9406,1.2361-.897.7109.1585,1.7781-.1719,1.053-.3756,1.1967-.5315,3.313-2.4674a16.745,16.745,0,0,0,2.997-3.0066c1.5638-1.9342,1.3928,0,2.1069-.0254a10.8683,10.8683,0,0,0,3.8763-.5206c1.0509-.54,1.0509-1.2313.4966-5.1C595.112,231.55,596.6832,234.5374,598.446,232.6025Z"/>
    <path d="M604.2427,232.2077a8.988,8.988,0,0,0,3.3289-4.0516c.3579-.5194,1.76-4.0346.8762-4.7384-.8762-.698.7027,2.2756-1.5945-1.23-2.2878-3.4952-18.8551-14.5348-26.07-15.069-1.8659-.1382,12.5179,7.5485,16.0358,9.8042,3.5326,2.2951,4.75,3.6927,5.4645,6.87.7111,3.1513.371.17.5436,4.0269C602.9947,231.6951,601.955,233.655,604.2427,232.2077Z"/>
    <path d="M573.5673,207.1526c1.0872,0,2.4649-1.06,2.1151-3.3487-.3616-2.2971-1.51-2.126-3.1947-1.5582-.5074.1431-1.9086,1.92-1.0295,3.1573C572.3664,206.6183,572.5138,207.1526,573.5673,207.1526Z"/>
    <path d="M567.2213,193.9664c.358-.8818,1.7395-.3559.3369-1.7439-1.3891-1.4133-2.1127-2.1372-2.8145-1.5858-1.3357,1.0072-.3528,3.5191.7229,3.5191C566.5078,194.1558,566.8442,194.8483,567.2213,193.9664Z"/>
    <path d="M530.6387,200.0406c1.9271.5333,1.5736.8811,2.8308.6971,1.2187-.1638,4.0484.8884,5.1007-.191,1.4038-1.4152,2.26-2.8035-.0242-4.2051-2.2822-1.4133-1.9359.5194-2.8282.6982-.8794.1837-4.0243-.1584-5.9826.1973-1.9149.3477-.862.8817-1.2123,1.5657C528.1619,199.5263,528.7038,199.5263,530.6387,200.0406Z"/>
    <path d="M642.9914,252.3628c-1.9347-1.4153-2.3083-2.4547-3.5018-2.9873-1.2481-.5079-1.4289-2.4549-3.0233-2.283-1.5945.1894-2.104-1.908-2.9756-2.442a7.1718,7.1718,0,0,1-2.2964-1.9471c-.88-1.0395,0-.3493-1.2307-2.442-1.2477-2.1055-1.4253-5.1118-4.0753-5.8036-2.0467-.5194-.34,4.7522.2054,6.14a30.1593,30.1593,0,0,1,1.2414,4.5864,11.1929,11.1929,0,0,0,1.9349,4.2171c1.0536,1.7515,1.9484,3.6842,3.3587,4.3882,1.405.7116,3.69.5062,3.8611,1.3881.1869.8955-.1716,2.4677,1.0492,2.4677a13.6208,13.6208,0,0,0,3.5421-.8939,3.7215,3.7215,0,0,0,2.2842-2.6454S644.94,253.7581,642.9914,252.3628Z"/>
    <path d="M654.8025,260.9689c1.0732,1.4153,1.76,2.6117,3.0078,2.7836,1.2321.184,1.7478.5325,2.1139,0,.3524-.5194,1.4047-1.7636.5-1.7636-.8654,0-2.2877-1.5872-3.1706-2.6466a27.1231,27.1231,0,0,0-2.6212-2.2487,9.9082,9.9082,0,0,0-1.5931-1.5991,11.6827,11.6827,0,0,0-2.6513-1.7636c-.1792,2.2971-.7006,2.1188.7007,3.7108C652.4964,259.0141,653.7382,259.5338,654.8025,260.9689Z"/>
    <path d="M652.2,265.8778c-1.2532,0-.7347-.7116-1.2532,0a9.7473,9.7473,0,0,0-1.9139,5.0927c.0242,1.7757.3639,2.6585.88,3.0078.5548.3624.1963,0,1.0528-2.6465.8863-2.6371,0-1.7636.8863-2.6371C652.707,267.8129,653.4221,265.8778,652.2,265.8778Z"/>
    <path d="M667.1639,276.3856c-1.2328.1853-2.3071-1.5737-2.3071-1.5737s-.17-1.9334-.8824-2.46a6.2326,6.2326,0,0,1-1.5758-1.573c-.5395-.7161-1.2182-1.9342-1.9327-1.7431-.7114.1711-1.7636-.5525-2.8246-.5334-1.058,0-2.8178,0-3.5091,1.0659-1.0091,1.5147,1.1218,1.9216,2.2878,2.283a6.2361,6.2361,0,0,1,3.3581,2.4691s1.4012-.2068,1.7636.3272a10.13,10.13,0,0,0,2.1168,1.9231c1.0284.8684,2.4506.8684,2.6252,1.775.1658.8549-.1746,1.9342,1.0725,1.5784a2.4874,2.4874,0,0,0,1.5681-1.4334S668.3973,276.2216,667.1639,276.3856Z"/>
    <path d="M688.1018,277.0429c-.5436-1.9341-.9052-4.0395-1.5945-4.5791a29.7191,29.7191,0,0,0-2.9957-2.797c-1.2482-.69-3.5334-1.9336-3.5334-1.9336a3.0542,3.0542,0,0,0-1.5945-1.2178c-1.2235-.5315-1.3867-1.928-3.1648-1.4081-1.7421.5594-2.8153.3692-2.8153,1.0929,0,1.1517,1.9317,1.1971,2.8359,2.0917a37.7211,37.7211,0,0,0,2.8034,2.6333c.8624.69,3.3619.69,3.8822,1.7426.51,1.0388,2.6476,1.75,4.0488,2.6115C687.3873,276.1609,688.2377,277.5492,688.1018,277.0429Z"/>
    <path d="M709.9193,287.5387c-1.2115-1.0537-1.57-1.9213-2.79-2.9754a25.5935,25.5935,0,0,1-3.3738-3.335,3.6987,3.6987,0,0,1-.7015-2.6243,24.5108,24.5108,0,0,0-.884-4.41c-.2-.8684-1.7878-2.0917-1.7878-2.0917a1.6985,1.6985,0,0,1-.3252,1.3883c-.6907.9059-.9051.7034-.881,2.8424a16.3565,16.3565,0,0,0,.53,3.843c.1812,1.2242-.1681,1.0522,1.4232,3.5191a17.357,17.357,0,0,0,2.8272,3.5092,38.2077,38.2077,0,0,0,2.8188,2.8145c.88.8818,1.9326,2.454,2.4531,2.6242,0,0,1.5945-.862,1.5945-2.1036C710.8229,289.3083,711.1526,288.6046,709.9193,287.5387Z"/>
    <path d="M700.274,293.0128c0-1.4152,0-1.04-1.4254-2.8035-1.4012-1.763-.7027-.5324-1.4012-1.9333-.7084-1.4147-1.0545-.691-3.3277-1.2243a9.7262,9.7262,0,0,1-2.4867-.8818c-.6815-.3359-.884,0-1.7674-.157a4.1336,4.1336,0,0,0-3.1677.717c-1.9109,1.23,1.5945,3.8612,1.5945,3.8612s1.26,1.409,2.1168,1.409a5.3763,5.3763,0,0,1,2.3051.8685,14.7977,14.7977,0,0,1,3.3377,2.0918,3.0979,3.0979,0,0,0,4.2236-.5315C701.4887,293.0128,700.274,294.428,700.274,293.0128Z"/>
    <path d="M764.4821,594.8563c-4.9212-1.0729-16.3373-8.1006-15.2606-6.4688,1.13,1.6253,2.7369,2.1449,4.3786,8.12,1.6645,5.9754,2.1828,4.3411,4.9075,6.5016,2.7137,2.1522,6.5262,7.5658,7.612,9.1982,0,0,4.3437,1.6187,5.9617-2.7237s1.6187-3.251-.551-7.6066C769.3449,597.56,769.3449,595.9156,764.4821,594.8563Z"/>
    <path d="M767.7466,617.0959c.0241,4.8349,2.7614,10.2777,4.9081,4.8619,2.1635-5.4271,3.24-7.593,1.5964-8.6973C772.6124,612.2069,767.7466,614.9165,767.7466,617.0959Z"/>
    <path d="M817.1879,630.0106c-5.45-2.1826-5.4043,3.2317-8.6851,6.5278-3.2242,3.2438-5.9618-2.7021-13.0309-3.7833-7.0467-1.0729-3.8125-3.2443-5.9859-8.1325-2.17-4.8815-2.17-4.8815-4.886-7.0459-2.7127-2.146-1.082,4.3541-1.082,4.3541a4.8636,4.8636,0,0,1-4.8866-.539c-3.8135-2.6889-1.6187,5.9818-3.7676,9.7844-2.158,3.79,0,5.9684-1.0767,10.3375-1.06,4.33-1.6066,5.9611-4.85,8.6723-3.2494,2.7308-4.3344,2.7308-4.8773,6.52-.5281,3.8105,3.8186,2.1724,9.2538,4.3169,5.4286,2.1722,2.716,3.257,5.4286,7.5927,2.7247,4.3184-.5194,5.4159-2.14,10.3166-1.6132,4.897-.5423,4.3318,4.38,6.5016,4.8651,2.1525,4.3188,1.6187,7.011-3.8094,2.7137-5.4214,4.3349-3.2708,9.2333-8.7251,4.8587-5.441,4.8587-3.7887,5.9351-8.1521,1.073-4.3351,0-5.4287-.0453-10.3288,0-4.8637,3.2823-1.614,6.5046-1.6263,3.28,0,3.28,1.6187,2.7137-2.719-.5517-4.3423,1.6418-3.2691,3.8019-5.98,2.15-2.7038,3.221-1.6307,4.8638-6.5125C822.62,632.6908,822.62,632.1239,817.1879,630.0106Z"/>
    <path d="M769.0066,681.123c-8.693-2.1563-9.7637-1.0658-11.3789.5665-1.6407,1.6384-3.8157-.5059-3.8157-.5059,0-4.3438-1.6377-4.9343-4.3416-5.9883-2.7158-1.0731-2.1852-5.4151-4.8952-1.6066-2.719,3.811-2.1555,1.62-3.2244,6.527-1.0889,4.8778-1.7756,4.2521-3.8016,7.5946-5.9351,9.7912-8.1024,9.2381-8.654,13.0613-.5217,3.777-1.5952,3.777-5.383,7.046-3.8138,3.2706-6.5058,2.7254-13.0191,8.7193-6.5052,5.9865-7.0575,1.6643-13.0074,7.6453-5.9529,5.961-6.5083,4.8895-10.273,10.8682-3.8017,5.9882-1.6581-5.427-6.4867,8.6992,0,0-13.01,4.3694-6.4968,8.7,6.5143,4.3223,8.6972,2.684,11.9439,3.7567,3.2578,1.0851,2.1846,3.243,5.4286,3.8026,3.282.5194-2.1492,0,3.282.5194,5.4053.5323,5.96-.5589,10.2938-.0329,4.3505.5532,7.5993-.5461,9.2185-2.1841,1.616-1.6318-1.6187-.5194,5.4047-7.0729,7.0467-6.5279,7.0467-8.1537,9.1968-13.05,2.1579-4.8886,1.06-8.6774,3.776-10.8634,2.7159-2.1762-.539-1.085,5.4326-3.2555,5.9344-2.1852,1.0729-2.1578,8.6481-3.8232,7.58-1.6578,4.8644-1.6506,7.58-1.6578,2.7407,0-8.13-1.5992-4.3436-5.9292,3.79-4.3679,9.2184-8.16,11.3706-12.002,2.1493-3.789.5183-8.1309,3.2319-9.7643C767.409,689.2706,772.8377,682.0849,769.0066,681.123Z"/>
    <path d="M691.084,764.338c-2.7137.02-7.6023,2.7385-4.32,4.9226,3.2439,2.1249,3.2439,2.1249,5.9469-.0259C695.4148,767.0437,692.7108,764.338,691.084,764.338Z"/>
    <path d="M550.0028,697.08c-2.17-.8293-4.3728-2.4475-5.7115-1.6307-1.3567.8016-6.7734,1.901-8.13,3.2827a8.4812,8.4812,0,0,1-5.7121,1.6363c-.7927-.2817-1.3387-1.6307-3.5085-.5315-2.1613,1.0848-2.1851-1.9025-5.158-1.6186-2.9866.2641-4.081-1.6245-6.7977-2.9809-2.7152-1.334-3.7884-2.6827-4.6144-1.8689-.8135.803-1.89,1.0611-1.89,1.8889,0,1.824-3.7976.8221-2.4211,4.8891,1.3388,4.068,1.3388,2.4413,4.3562,5.698,2.9723,3.2373,2.1633,4.6065,2.9957,7.6.8168,2.9691,0,1.8825.8383,4.8633.8136,2.9874-3.2829,1.6307,0,5.4413,3.28,3.7688,2.7374,4.5922,5.6991,6.4947,3,1.8878,2.1864,1.606,4.3566,2.9609,2.1825,1.3476,1.0944,1.9024,3.81,2.1642,2.7146.27,2.9775-.8166,4.6144.54,1.6268,1.3356.7949-4.6,2.9715-4.3556,2.1788.277,2.1788.8151,3.2494.5453,1.0872-.2683-.5548-4.8876.52-5.7105,1.0947-.8031,2.7136-1.9141,3.555.54.81,2.434,1.8964,3.5192,3.8074,2.966,1.8777-.5315-.3027-5.42-.0313-6.7887s-.8038-3.5141.5315-5.1459c1.3539-1.6395,1.6408-.2847,2.4293-2.7111a23.3732,23.3732,0,0,0,.8057-7.607c-.0216-2.7112-.0216-5.1572-.305-7.869C550.0028,697.08,552.1854,697.85,550.0028,697.08Z"/>
    <path d="M548.8852,682.6759c-.5548-.803-3.2709-2.6975-4.6238-1.5919-1.7543,1.3826.81,1.5919,2.4505,3.2238,1.6308,1.6056.0242,5.9476,2.4565,5.1459,4.3318-1.3548,4.3318-1.91,2.6888-3.7889C550.2175,683.761,549.4274,683.4793,548.8852,682.6759Z"/>
    <path d="M423.38,623.5768c-2.1849-.5548-3.8009-1.3427-5.4319-.8032-1.6428.5587-7.0444,2.1975-7.0444,2.1975-.8261.8034-3.7889,1.3565-2.1641,2.7114,1.6186,1.3826,3.2614,2.1389,5.1364,1.0658,1.89-1.0715,1.1008-1.349,4.6264-1.0984,3.5143.27,4.3319.5469,5.408-1.3557C424.9873,624.371,425.55,624.1094,423.38,623.5768Z"/>
    <path d="M500.3184,682.2494c.2593-1.6207-.0242-1.3686-1.9263-2.4431-2.1729-1.21-4.0733,1.3755-2.4325,3.5416,1.6428,2.1842.0241,4.3284,2.7364,3.2569C501.412,685.4929,500.0317,683.8857,500.3184,682.2494Z"/>
    <path d="M579.4265,296.6918a13.5145,13.5145,0,0,1-3.2253.0121l-2.8606-.9934s-2.0471,0-2.65-.6122c-.6083-.5975-1.8509-2.0448-1.64-2.6521,0,0-2.4324-2.8352-3.065-2.6575a6.2425,6.2425,0,0,1-3.8553-.5866,3.0158,3.0158,0,0,1-.8382-2.23,4.0347,4.0347,0,0,0-.5992-2.6575c-.6128-.5745-1.0378-3.2316-2.4429-2.2247-1.4344,1.0141.61.2109-1.4344,1.0141-2.0252.8294-2.8426.447-2.8426-.3964a5.0883,5.0883,0,0,0-1.04-3.2421c-1.0035-1.64-.5991-4.2641-2.668-4.47-2.0258-.19-3.0294-.8271-2.6218-2.236a2.204,2.204,0,0,0-1.6428-2.6189,15.5423,15.5423,0,0,1-4.0756-2.0462c-.6185-.6123-3.0543-1.8277-3.4689-3.0384-.4288-1.2249-.4288-2.4357-1.2426-2.8508-.7926-.4068-2.2184-.5994-2.6465-2.6506-.3894-2.021-1.6186-1.83-.3894-2.8508,1.2036-.9935-2.6586-1.81,2.4325-1.5911,5.0792.1571,4.6726.1571,5.8969-.8621,1.2106-1.0069,1.6148-1.0267,1.6148-1.824,0-.8357.1933-1.408-.6207-2.2373-.8135-.8342-.8135-1.2235-2.24-1.8292-1.4279-.6105-.4069-1.6308-2.2392-2.2439-1.8329-.6106-3.8765-1.8086-6.336-2.6244-2.41-.8031-5.8816-.5994-6.4988-1.21-.6039-.6065,0-1.0268-.8294-2.2112-.8145-1.2378-.4069-1.6342-2.0131-2.0414a5.3785,5.3785,0,0,1-3.0662-1.4133c-.8144-.8167,2.0226.19-1.8451-4.2833a23.9511,23.9511,0,0,0-9.1815-6.2786c-.8138-2.0394-3.6655-4.0588-4.89-4.6708-1.2289-.6105-5.4923-2.4342-6.3081-2.8409-.82-.3964-3.4732-1.83-5.1128-2.43-1.6066-.5919-3.0295-1.2036-6.9114-2.6116-3.88-1.4073-5.2957-.8093-6.5229-1.2043s-7.3249-3.4347-8.5553-4.0454c-1.22-.5993-2.8628-2.0408-4.6747-2.6266a11.5048,11.5048,0,0,0-3.807-.3141v-2.7733c-.8136.0483-1.38.1132-1.38.1132a4.0642,4.0642,0,0,1-3.2833-.4066c-1.6031-1.0206-.1893-2.475-2.4293-2.475s-3.46-.7959-6.1-.7959c-2.6433,0-4.2622-1.4232-6.33-2.2382-2.014-.8016-2.4112-4.0723-4.2509-3.652-1.8147.4083-3.4534-.2165-5.091-.2165-1.642,0-2.025-1.6186-3.4511-2.0274-1.4139-.3812-3.0536-.3812-3.8788-.6105-.8167-.1933-1.1971-2.0331-2.0353-1.8437-.805.2174-1.2107-.6112-2.2218,0-1.0394.6241-3.0589,1.0405-4.0691,2.4542-1.0178,1.4424-2.6587,1.0338-2.8727,1.824a8.1467,8.1467,0,0,0-.1924,2.0328,2.6142,2.6142,0,0,1-1.007,1.8361,8.2258,8.2258,0,0,1-3.2557,2.2368c-.8164.4081-1.224-1.0147-2.0487-.5986a16.2615,16.2615,0,0,1-2.8411.8031c-1.4253,3.4864-3.0619,3.6775-4.4756,5.1045-1.4253,1.4073-2.0465,1.1853-3.0654,3.2437a6.7324,6.7324,0,0,1-2.8425,3.0536c-1.0147.83-1.0147.2037-3.0534.6255-2.0375.4005-4.682-.2174-5.2844-.8429-.5968-.5724-.4011-.8016-.823-2.2368-.4069-1.4025-2.0346-2.6575-2.6427-3.8431a9.8524,9.8524,0,0,0-2.0294-3.2627c-.8112-.6176.2658-3.6519-1.48-2.0463.2595-1.3573,0-2.4286-.8144-4.6144a1.4684,1.4684,0,0,0-.4-.6584,5.5943,5.5943,0,0,0,1.4737-1.7749c2.4324-3.8087,0,0,0-4.3428,0-4.3279-.5429-2.973-.5429-5.685,0-2.7365-4.0723-.5587-4.8866-.8285a16.9194,16.9194,0,0,0-4.0721.27,27.4569,27.4569,0,0,1-4.334-3.7907c-1.6375-1.9079-1.3563-.5531-2.7127-.8213s-5.17,0-7.0544-.5332c-1.9044-.5534-3.52,2.4348-4.5964,3.2508-1.0972.8013-1.6368.2562-3.0178.2562-1.3348,0-3.7919,2.4531-3.7919,2.4531s-1.073,3.2826-2.7127,1.9025c-1.6279-1.3684,0,0-1.8984-2.7179-1.8905-2.71-2.7168-.8016-5.68-.27-2.9958.545-1.3794.8285,1.0741,3.81a18.9742,18.9742,0,0,0,3.53,2.1522,12.0617,12.0617,0,0,0,2.7151,2.7493c1.3365.79,0,0,2.7127,0,2.7168,0,2.7168.5079,3.79.5079a14.8728,14.8728,0,0,0,2.9715,1.1166c1.3835.2388,1.08,2.4343.8287,3.7771-.2619,1.3626,1.1008,2.1856,1.6307,3.5405.54,1.3287,1.64.7957,2.4442.5341.8093-.2834,3.5272-.2834,5.1459-.8093,1.6255-.5476,0,0,1.9085,1.0713,1.9046,1.1,1.3564.817,2.9752.2836,1.6186-.5452,2.4324.2578,4.3549-1.0794,1.89-1.3548,2.4334.5342,3.2476.7958a11.1822,11.1822,0,0,0,1.61.524,2.2254,2.2254,0,0,0-1.3494.5763c-1.2115,1.2106.212,1.42-2.4326,1.2106-2.6583-.1975-2.0487-1.4272-3.4725-.8093a6.58,6.58,0,0,1-3.0289.4084s-2.05,1.0206-2.4444,2.4343c-.4107,1.4271-.4107,1.8272-2.6705,1.8272-2.2192,0-.7905-2.0172-2.4325-2.0172-1.6186,0-1.7636-1.8825-2.4335-.4355-1.2234,2.6531-2.6454,2.4532-1.2234,3.4865,1.4172.9942,1.6308,1.62,2.8664,2.0347a5.4556,5.4556,0,0,1,2.6229,1.6046c1.4254,1.2435.8262,1.2435,1.64,2.4556.8136,1.2219.6,2.4459.8136,3.8684a21.3646,21.3646,0,0,0,.6088,2.454c.2086.9871.2086,1.4152,2.4335,1.8085a12.6089,12.6089,0,0,0,3.0561.4221,1.878,1.878,0,0,0,1.8327-.8154,7.4317,7.4317,0,0,0,1.23-4.08c.196-.6121.4077-1.4272.8138-2.6252.41-1.2433-.0456-2.33.603-2.6454,2.8361-1.4153,3.2558-4.0724,2.8361-1.4153-.41,2.6133-1.2654,2.428-1.4133,3.4481-.4066,2.6253,0,2.8488.604,3.6521a2.3291,2.3291,0,0,0,2.6466,1.21c1.6421-.2093,1.6421-.5978,2.4654.8312.787,1.4133,1.0065.61,2.2159.8015,1.2241.2245,4.093-1.2236,3.8669-.3885-.1933.7832.823,1.6046.6336,2.4469a1.544,1.544,0,0,0,.5991,1.8164c.6.4083,2.0284,1.4271,2.0284,1.4271l3.2554.1719a7.67,7.67,0,0,0,2.0387.6456c1.2266.191,3.4481,1.4209,5.4916,1.21,2.0255-.1975,2.4356-.4068,4.0721,1.2431,1.6186,1.6262,3.2588,1.4018,4.6725,2.2185a14.4129,14.4129,0,0,0,4.2894,1.0134,22.6143,22.6143,0,0,1,3.0382.8285c1.01.3948,3.4764.6121,3.8821,1.21.4084.62,4.2633,1.4216,4.0516,2.6586-.2078,1.2188,1.6283,2.8488,1.8416,4.0611a4.589,4.589,0,0,0,1.2332,2.8288c3.2555,3.2573,3.4361,3.9016,3.6418,4.921.2161,1.0258,2.05,2.4141,2.05,3.0215,0,.616-.4219.2093,2.453,2.6632,2.84,2.4356,3.4371,2.8508,2.2185,4.06-1.2331,1.2235-3.4754-.178-3.4754-.178s-.3858-1.0317-.7928,1.1986a1.7549,1.7549,0,0,0,0,1.04,5.3708,5.3708,0,0,0-3.8788.7959c-1.6186,1.4351-3.2554,1.0267-4.2648,2.6454-1.0259,1.6261-.4075-.2166-1.64,3.257-1.2,3.4738-2.0234,2.23-2.0234,4.6843,0,2.43-.1927,1.8158,1.2337,1.8158a38.6966,38.6966,0,0,1,5.2967-.1894,30.9227,30.9227,0,0,0,6.07.1894c1.2569-.1894,2.8642.6138,3.4754-.8086.6216-1.4282,1.8332-2.2177,1.2186-2.8418a4.2266,4.2266,0,0,1-.8142-1.8428s1.0219,2.2361,2.24,2.4669c1.2329.19,0-1.4464,1.2329.19a2.9008,2.9008,0,0,0,3.2468,1.4026c.8158-.1925-.215-.1925,2.6455-1.21,2.8478-1.0068,2.6585-3.0532,2.8478-1.0068a5.7983,5.7983,0,0,0,1.8361,4.0453,31.1623,31.1623,0,0,0,2.8364,2.6729c.8262.803,3.4518,2.637,3.6652,3.65.2174,1.0078.6248,0,1.6407,1.6334a4.6192,4.6192,0,0,0,2.0759,1.6024l.0073,2.8456a6.7532,6.7532,0,0,0,3.0978.565c1.4263-.2174,4.8739-.6391,4.8739-.6391l3.0594.2174a17.6979,17.6979,0,0,1,3.2527-.0261c2.4573.8159,4.2895,1.408,5.3052.7958a19.0254,19.0254,0,0,1,3.0543-1.4133,16.5463,16.5463,0,0,1,3.4419-1.2314c.6058-.0253,1.8295-.0253,2.2366-.8269.3946-.8176,1.447-1.245,1.0188-2.2383-1.4463-3.2493-1.2211-3.8694-2.4533-3.66a15.832,15.832,0,0,1-3.6687-.2094,40.6355,40.6355,0,0,1-5.0791-1.4152l-3.8764-2.4068s3.4694.8022,5.9019,1.6038a32.67,32.67,0,0,0,4.6719,1.4012,17.4134,17.4134,0,0,0,3.6655-.4066,1.6386,1.6386,0,0,0,1.8537-2.0474c-.4274-2.2167-3.2825-2.6236-.4274-2.2167a9.3721,9.3721,0,0,0,4.69-.4418l1.3928-2.6251,1.018.2037,2.6474-.63c.4069-2.0464-1.007-2.4413.4069-2.0464,1.4223.4139,4.5511-.422,4.8794.4066.8094,2.0466,1.6468,1.04,2.6646,1.64,2.4542,1.4012,3.2471.3757,3.8806,1.0069.5991.5843,2.2176-.027,2.4348.5651.19.6328,2.2573-.9735,3.4451,0,2.4565,2.033,5.7031,5.0792,5.7031,6.5137.0215,1.4152.0215,1.8282,1.45,2.6392,1.4461.8093,3.2111,1.6248,3.2461,2.2233A5.3438,5.3438,0,0,0,532,284.5949c.4036.6058.4036,1.6455,1.0159,2.2456.62.6105,2.4562.8,2.6465,1.6039.2167.85.0241,1.2307.2167,2.0344.2117.8406,2.641.42,3.2554,1.21a9.7667,9.7667,0,0,0,1.8269,2.2431c.823.6175,1.8538.6175,2.2549,1.4073.421.83,2.8507.4218,3.4753.6137a10.9629,10.9629,0,0,0,2.84.6105c.8253,0,1.6151-1.2426,2.226-.4076.625.8176,3.8925.4076,4.9082,1.007a33.0382,33.0382,0,0,0,5.8838,1.8028,7.824,7.824,0,0,0,3.87.203c2.0429-.203.4073-1.21,2.0429-.203,1.62,1.0069,2.4336,1.2163,3.0692,2.428.5965,1.2243.7871.6256,1.8329,1.639,1.0035,1,2.0349,1.4144,2.8364,1,.8139-.4217,2.0229-.2037,2.2367-1.8433.1932-1.6174-1.2049,0,.1932-1.6174,1.4505-1.6318-1.6156,1.8283.41-.8169C581.0626,297.0852,580.8724,296.4864,579.4265,296.6918Z"/>
    <path d="M380.8908,254.9689c1.2259,1.2041,1.0212-1.034,2.267-3.7061,1.1934-2.6181,2.6219-3.421,3.4506-5.4741.8109-2.0465.5971-2.6575-.1956-5.6968-.8495-3.0423-1.8965-6.403-2.6557-5.9023-.5993.4069-2.8662,7.3161-4.6963,9.7708-1.83,2.428-.1925,1.2242-.1925,1.8283a29.4172,29.4172,0,0,1,.4123,5.0745A4.4825,4.4825,0,0,0,380.8908,254.9689Z"/>
    <path d="M365.0358,237.6379c-1.2242,1.2418-1.0278.8214-3.8685,1.2418-2.8513.3812,0,0,.6214,3.0343,0,0,1.8119,2.6454,2.4348,2.6454,0,0,1.2071-2.0018,1.8335-2.8628a12.7891,12.7891,0,0,0,2.2367-3.414c.6-1.6652-.4069-1.6652-1.64-3.4888C365.4307,232.9654,366.2464,236.4264,365.0358,237.6379Z"/>
    <path d="M347.3355,265.5282c.5969-2.6575,0-2.8488.804-3.4609.8111-.5977,1.435.6121,2.8581-1.8219a15.1457,15.1457,0,0,0,1.6186-3.4816s-.6114-1.21-2.4382-.2039c-1.1008.6122-4.0751,1.6407-5.3,3.461-1.229,1.857-2.6433,0-2.4325,3.46.1957,3.4481-1.4231,4.5156,1.4172,4.0738C346.7105,267.1482,346.7105,268.1742,347.3355,265.5282Z"/>
    <path d="M337.7764,272.0364c2.8393.8086,1.007,2.0518,2.8393.8086,1.83-1.2162,3.8564-1.4336,3.0334-2.2368-.82-.79-3.44-.5993-3.44-.5993l-.8253-.19C338.7834,271.029,334.9041,271.2189,337.7764,272.0364Z"/>
    <path d="M403.8985,185.48c1.9026-2.9616,1.3564-2.9616-1.3563-4.6134-2.7127-1.6246-4.6152-1.3684-7.3279-.8232-2.8387.6,1.086,4.3637,4.3559,5.19C402.805,186.0249,402.0027,188.4657,403.8985,185.48Z"/>
    <path d="M130.8825,272.9524c2.7161.2681,2.9755-1.8888,2.9755-1.8888a21.271,21.271,0,0,0,.2738-2.9883c0-1.3689.2834-4.3366.2834-4.3366s-3.5327-2.1778-4.3437-1.6382c-.8022.5669-3.2615-.54-3.2615-.54s-1.3541-1.0849-2.4333-.5333c-1.0936.5333-4.9071,2.1595-4.9071,2.1595a25.6351,25.6351,0,0,1-5.1572-2.9888s-1.6065-1.343-.5039-2.428c1.0707-1.0974-4.63-1.9008,2.4309-1.6308,7.0438.2756,7.3271,0,8.6834-.27,1.36-.25,1.6094,0,2.4356-.8365a20.4535,20.4535,0,0,0,1.91-2.434,2.2037,2.2037,0,0,0-2.4589-.539c-1.6158.539-5.1692,1.3683-5.9593,1.0921-.8232-.27-1.1065-1.6247-3.2588-1.3429-2.1731.2508-2.1731-.8151-3.5265.2508-1.3593,1.0921-2.4657.8221-3.2554,1.0921a3.4647,3.4647,0,0,1-2.7191-.27c-2.9836-1.9086-4.6023-2.1579-5.7-2.1579a20.0586,20.0586,0,0,0-3.2579.5194s-3.5272-3.5071-4.6125-3.5071c-1.1,0-1.6279-.823-2.9628-.297-1.3594.56-1.6436-2.44-3.2829-.2563-.5507.7341-.9032.9235-1.1428.9681.0081-.1967-.0254-.2348-.1249.0206-.3429-.0031-.35-.2786-.35,1.1692-1.0951,4.0867-2.6994,3.2574-2.6994,3.2574s-2.091.8818-3.0018.2831c-2.4289-1.638-2.4289-1.0729-4.3527-1.638-1.8778-.5194,1.0944-2.1524-1.8778-.5194-3.0047,1.6248-7.0564.2492-8.1437.8032-1.0948.5326-4.0821.2818-3.79-.554.2621-.8024-.79-2.6053-1.3682-3.2365-2.1586-2.4547-3.5393-3.5392-4.8954-2.9881l-4.6063-1.0976a6.1965,6.1965,0,0,0-3.8008-1.0865s-2.4294-3.5135-2.9842-2.7238c-.5427.8485-4.0516-.27-3.53,3.2841.2022,1.3408-3.8011-1.6334-5.6873-1.0871-1.9025.5263-3.69-2.0138-4.6184-.2753-2.1708,4.0642-1.8874,4.9342-2.9968,6.2364-2.6913,3.2445-4.5781,1.6118-2.6913,3.2445a9.961,9.961,0,0,0,5.4052,2.1855c1.6428.2815,1.9262-.2763,2.9992-.2763a2.8757,2.8757,0,0,1,2.7152,2.1643c.26,1.3565-.2832,1.3565.26,2.4539.5419,1.0849.8134,2.7058,1.8965,2.7058a20.4252,20.4252,0,0,0,4.0871-1.1008h4.0708l5.41,2.1864,3.2792,1.6262s6.481.3624,7.5745.2681c2.9995-.2681,1.1-.7878,4.0725-.7878,2.9995,0,4.3562-.8366,4.89,0,.5427.7878,2.9715-.5669,3.5393.5194.53,1.0779,2.716,1.0779,2.716,1.9144,0,.8014,2.429,1.1047,3.5273,1.6047,1.075.54,3.7912.2968,4.6032,1.1065.8038.8142,3.7912.8142,4.9008,1.0793,1.073.2832,3.5056-.56,4.3191.2832.8263.7881,4.6152.2684,5.4317.5253.8262.2629.5428,0,3.5393,0,2.9754,0,1.6367-.5253,2.9754,0,1.3554.5462,6.7731-1.3681,6.7731.5462l5.4316-1.0715a31.1281,31.1281,0,0,0,6.7826,2.9731A10.8387,10.8387,0,0,0,130.8825,272.9524Z"/>
    <path d="M148.7937,269.7c-3.2615-1.8934-5.185-2.6657-5.9777-2.4548-2.7158.8294-3.4243-1.67-4.3254.2834-1.6428,3.5344-1.6428,3.5344-1.3715,4.6192.3343,1.3358,1.67.71,2.9811,2.1786,2.4324,2.7158,3.5332,2.7158,4.3585,1.881.7939-.8025.0335-1.1318,1.0731-2.1587C148.532,271.0636,149.9424,270.3916,148.7937,269.7Z"/>
    <path d="M160.1819,269.7c-.3866-.7632-2.43-.8084-6.2344,0-.9612.2039-1.3681,2.4478-2.1934,3.79-.79,1.3617,0,1.0848.566,3.27l1.0738.8017a16.837,16.837,0,0,0,4.8974-.2683c1.6308-.5334,0,0,.8136-1.6066C159.9225,274.0488,161.536,272.4168,160.1819,269.7Z"/>
    <path d="M164.254,280.0312c1.6366.52,2.4567,2.15,3.79,1.0721,1.3795-1.0721,3.7641-2.4875,4.6144-3.2706,2.451-2.1452.8319-3.7833.8319-3.7833-3.5272-1.9009-3.2557-3.5343-4.8834-3.2628a30.5961,30.5961,0,0,1-4.0746.2771,2.7257,2.7257,0,0,0-2.4389.8078c-.8388,1.1-2.1944,2.704-1.0992,4.6064C162.093,278.3913,162.6112,279.4644,164.254,280.0312Z"/>
    <path d="M177.5414,271.8715c.2834,2.9809.2834,1.8808,1.6187,3.2634,1.3691,1.343,3.2735,2.428,4.3683,2.16,1.076-.2516,2.9715-.8166,3.7887-1.0864a2.77,2.77,0,0,0,1.6377-2.4558c0-1.0657-.1664-3.1694-1.0976-3.5054-2.9938-1.0715-6.1162-.2833-6.762-.8031-2.7356-2.1985-7.882-2.7374-9.7745-1.1113C169.4472,269.9445,177.2583,268.8922,177.5414,271.8715Z"/>
    <path d="M218.7923,275.6874c3.7955,0,6.2007-.44,6.5048-1.36,1.0975-3.2634,1.6307-3.8119,0-3.5405-1.64.2771-2.1458,0-3.79.8286-1.6367.8017-1.0723.2564-2.9957.5334-1.9041.2683-3.5121-.277-4.0517-1.362s.54-2.1594-2.4309-1.8943c-3.0185.2832-2.2041-.56-4.0949,0-1.8992.5516-3.5143-.56-4.6056.2832a12.097,12.097,0,0,1-3.2524,1.34s-2.17,2.9755-4.3382,1.9017c-1.6332-.8017,2.9755,1.6325,4.8809,2.7179,1.8865,1.0731,5.1574,1.0731,5.9589,1.343a7.7638,7.7638,0,0,0,4.6247.5649C213.1044,276.4779,218.7923,275.6874,218.7923,275.6874Z"/>
    <path d="M244.04,271.8715c2.7007-.54,1.3562-.8078,2.7007-.54,3.2373.8166,3.5423,1.0849,4.6157,1.0849,4.0717,0,4.6177-.8017,4.6177-.8017,2.9625,0,2.7149,1.4336,4.0476-.2832,2.1944-2.7048,2.9845-1.8881,2.1944-2.7048a6.6237,6.6237,0,0,0-2.9992-1.0978s-2.17-1.3563-3.5263-.5261a21.4375,21.4375,0,0,1-2.6918,1.3288l-1.6428,1.9144a42.956,42.956,0,0,0-4.6157-.5463c-1.3444,0-2.5081-.9352-3.5239-.2569-2.4595,1.62-4.0993.5194-2.4595,1.62C242.3972,272.1485,241.3249,272.4168,244.04,271.8715Z"/>
    <path d="M233.9726,267.8072c-1.6187,1.3682-2.15,1.085-2.15,2.44a2.831,2.831,0,0,1-1.3555,2.17s-3.8135,1.1063-2.7136,1.3356a15.0024,15.0024,0,0,0,4.0691.5747l2.15-2.4555a24.035,24.035,0,0,0,3.8129.5452,2.808,2.808,0,0,0,.2617-3.79C236.9678,267.3709,235.6124,266.4564,233.9726,267.8072Z"/>
    <path d="M256.8017,279.2068c.0526-.0121.2061-.04.698-.1034a2.9409,2.9409,0,0,0,.3616-.1585Z"/>
    <path d="M243.4742,295.7494c.8246.8159.8246,0,2.7365-.808,1.89-.8166,3.2341-3.2507,5.4046-2.731,2.17.5786,1.6428,1.381,3.5329-.2515,1.899-1.6246,2.9744-2.7231,3.7887-3.5393.8264-.79,2.4652-1.6261,3.28-2.9809a11.02,11.02,0,0,0,1.0738-2.4341c-1.6405-3.2574.5444-4.8954-2.9755-4.3557-1.4557.2366-2.3193.3756-2.8155.4538-1.2321.4282-4.4224.7841-5.8839,2-1.6371,1.3563-1.6371-.5516-3.5151,1.6318-1.89,2.1588-3.25,2.428-4.3432,4.33-1.0767,1.9143-2.4325,0-1.36,3.5252C243.4742,294.1249,242.6808,294.9414,243.4742,295.7494Z"/>
    <path d="M264.3624,281.92c1.9055-1.1,9.5038-1.3684,13.0338-4.6255,3.5151-3.2451,2.7135-.5334,5.43-2.16,2.7156-1.6442,3.5386-1.3826,4.3338-2.4482.8231-1.0716,1.3779-1.0716,2.18-2.7231.8143-1.6308-1.616-.7882-5.4038-1.0713,0,0-7.3528,1.3547-8.1454,1.3547-.8262,0-3.53.2681-3.53.2681s-4.0721,1.1-5.181,1.3564a8.4871,8.4871,0,0,1-3.7887.5453c-1.3573-.2683-1.8881,1.0739-3.2682,2.1587-1.3328,1.1119-2.1612,2.719-.8049,2.4674A6.93,6.93,0,0,1,263.29,278.11C264.3624,278.6493,263.4134,282.4852,264.3624,281.92Z"/>
    <path d="M191.645,289.2358c1.3572-.54,2.1863.2955,5.9994,1.0985,1.3316.2818,1.357.8016,3.2466,1.6246a23.82,23.82,0,0,1,2.6881,1.3627c1.6428.8033,4.8864-1.1114,4.8864-1.1114,1.1122-.7912,2.4693-.5194,1.6428-2.4279-.8176-1.9017-.8176-1.6326-2.4358-2.4357a4.2333,4.2333,0,0,1-2.7127-3.27c-.54-1.8753-2.4542-.8024-4.3406-1.8952-1.9054-1.0786-2.1857.5532-5.6879,0-3.5393-.5333-2.72.2778-3.5393,0-.82-.2619-1.8965.2778-3.5355.8231-1.64.5515-.2567,1.0721.5666,4.6253C189.2129,291.1359,190.3127,289.7827,191.645,289.2358Z"/>
    <path d="M426.7,257.7706s-.5194-.1058-1.2062-.19C425.7292,258.3558,426.7,257.7706,426.7,257.7706Z"/>
  </g>
</svg>
