<svg id="Calque_1" data-name="Calque 1" xmlns="http://www.w3.org/2000/svg" width="30cm" height="33.4cm" viewBox="0 0 850.3937 946.7717">
  <g>
    <path d="M270.61,861.6137q-2.2893,2.9581-4.3841,6.0138c-1.6173,2.3594-3.132,4.7626-4.5679,7.2a118.0347,118.0347,0,0,0-8.607,17.8343c-.3144.8248-.6281,1.6491-.9227,2.4794l-6.9862,19.6816-3.6352,10.2413,2.9412-1.2328,4.1044-1.72q4.0639-1.7028,8.1289-3.4071l82.2138-34.4588,70.4687-29.5362,11.89-4.9833-3.507-11.7574q-5.9638-19.994-11.9279-39.9878l-11.8443-39.7061q-.6366-2.135-1.2734-4.27l-1.1-3.687q-5.2785,4.7255-10.5572,9.4515L323.987,810.85l-36.4331,32.6169q-1.1508,1.03-2.2732,2.081-4.3331,4.0515-8.2393,8.3811-1.97,2.1833-3.8269,4.4319Q271.8827,859.9709,270.61,861.6137Z" fill="#010101"/>
    <path d="M579.7822,861.6137q2.29,2.9581,4.3839,6.0138c1.6173,2.3594,3.132,4.7626,4.5681,7.2a118.002,118.002,0,0,1,8.6071,17.8343c.3146.8248.6278,1.6491.9228,2.4794q3.4932,9.84,6.9862,19.6816,1.8183,5.12,3.6359,10.2413l-2.9414-1.2328-4.1044-1.72-8.1293-3.4071-82.2136-34.4588L441.03,854.7088l-11.89-4.9833,3.5068-11.758q5.9646-19.994,11.9281-39.9878,5.922-19.8531,11.844-39.7062.6366-2.135,1.2735-4.27.55-1.8435,1.1-3.687l10.5572,9.4514,57.0569,51.0806,36.4327,32.6169q1.1508,1.03,2.2731,2.081,4.3332,4.0516,8.2394,8.3811,1.97,2.1831,3.8273,4.4318Q578.5105,859.9709,579.7822,861.6137Z" fill="#010101"/>
    <path d="M19.3794,637.7106q.8049-2.314,1.61-4.63l7.0431-20.2659q1.0859-3.1248,2.1721-6.2494l.1552-.0665,4.4441-1.9014,48.6772-20.8277q57.2852-24.5114,114.5706-49.0223l92.787-39.7015q42.9279-5.4279,85.856-10.8568l9.6534-1.2206V290.1006q-4.8262,3.5322-9.6534,7.0641-42.9281,31.4118-85.856,62.8244l-92.787,67.8973L83.4806,511.7214q-24.3382,17.81-48.6774,35.62-2.2218,1.6263-4.4441,3.2529l-.1552.1139q-1.0861,5.472-2.1721,10.9435L20.9889,597.14q-.8046,4.0542-1.61,8.1088v32.4623Z" fill="#010101"/>
    <path d="M831.0136,637.7106q-.8049-2.314-1.61-4.63l-7.0432-20.2659q-1.0861-3.1248-2.1721-6.2494l-.1554-.0665-4.4442-1.9014-48.6773-20.8277L652.3411,534.7469l-92.7857-39.7016q-42.9282-5.4279-85.856-10.8568l-9.6539-1.2206V290.1006l9.6539,7.0641,85.856,62.8244q46.3929,33.9486,92.787,67.8973,57.2853,41.9174,114.57,83.8359,24.3388,17.81,48.6773,35.62l4.4441,3.2529.1554.114q1.086,5.4718,2.1721,10.9434l7.0432,35.4887q.8047,4.0542,1.61,8.1088v32.4641Z" fill="#010101"/>
    <path d="M459.5929,61.5528q-1.4281-3.1995-2.9739-6.23-1.6944-3.3271-3.4969-6.4207-1.0983-1.8876-2.2253-3.6765a102.5723,102.5723,0,0,0-7.2617-10.1737c-6.79-8.316-13.5389-13.3439-18.4386-13.3439s-11.6483,5.0279-18.4384,13.3439a107.6,107.6,0,0,0-9.4818,13.8415,133.2093,133.2093,0,0,0-6.4765,12.66c-1.2483,2.796-2.4233,5.6844-3.5079,8.6437a113.7057,113.7057,0,0,0-7.3356,38.6207V648.6561c0,46.9363,10.5106,103.3056,21.5975,145.51q1.7284,6.579,3.4638,12.6723c1.5134,5.3181,3.0183,10.325,4.4895,14.9656,2.5718,8.1125,5.0408,15.0976,7.2722,20.6368,3.623,8.9922,6.621,14.1751,8.4174,14.1751s4.7943-5.1829,8.417-14.1751c1.6951-4.207,3.527-9.2482,5.4362-14.9836q.9075-2.7252,1.8358-5.6545,1.1559-3.6459,2.3361-7.5835,1.07-3.579,2.1537-7.3816c1.1534-4.0531,2.3116-8.2863,3.4639-12.6719,11.0869-42.2044,21.5975-98.5735,21.5975-145.51V108.817a113.7108,113.7108,0,0,0-7.3355-38.6207C462.0167,67.2372,460.8417,64.3488,459.5929,61.5528Z" fill="#010101"/>
  </g>
</svg>
