<svg id="Calque_1" data-name="Calque 1" xmlns="http://www.w3.org/2000/svg" width="30cm" height="33.4cm" viewBox="0 0 850.3937 946.7717">
  <g>
    <path d="M657.5723,443.4292c-3.317,1.1058-227.7271,25.425-227.7271,25.425L178.904,460.0106l-78.4884,40.1286L118.7667,556.14l125.2925.7369,192.4187-60.3848,148.0826,55.962,125.2924-18.4256,7.4136-59.6466S660.8886,442.3239,657.5723,443.4292Z" fill="#010101"/>
    <g>
      <g>
        <circle cx="181.4807" cy="547.9386" r="53.8009" fill="#010101"/>
        <path d="M201.7158,498.4161c15.6394,9.4105,29.4345,24.9393,30.1778,44.5084,1.0176,26.7947-10.98,57.1868-56.3052,55.9657a67.0391,67.0391,0,0,1-21.8038-4.4816c8.091,4.8682,19.8141,7.1954,29.9446,7.1954,29.7131,0,51.5526-23.6116,51.5526-53.3257A53.8148,53.8148,0,0,0,201.7158,498.4161Z" fill="#010101"/>
        <circle cx="181.4807" cy="547.9386" r="32.8147" fill="#010101"/>
        <path d="M211.6246,547.9386a30.1435,30.1435,0,1,1-30.1439-30.1435,30.1436,30.1436,0,0,1,30.1439,30.1435Z" fill="#010101"/>
        <circle cx="181.4807" cy="547.9386" r="21.3676" fill="#010101"/>
        <g>
          <g>
            <path d="M184.57,562.1484a3.0894,3.0894,0,0,1-3.09,3.0886h0a3.0886,3.0886,0,0,1-3.0888-3.0884V533.7293a3.0892,3.0892,0,0,1,3.0888-3.0892h0a3.09,3.09,0,0,1,3.09,3.0892Z" fill="#010101"/>
            <path d="M195.69,544.5411a3.0888,3.0888,0,0,1,3.0894,3.0882v.0008h0a3.0888,3.0888,0,0,1-3.0888,3.0888H167.2714a3.0893,3.0893,0,0,1-3.09-3.0888h0a3.09,3.09,0,0,1,3.09-3.089Z" fill="#010101"/>
          </g>
          <g>
            <path d="M193.8218,555.9116a3.0884,3.0884,0,0,1,.0005,4.3677l-.0005,0h0a3.089,3.089,0,0,1-4.3685,0l0,0-20.0948-20.0954a3.0884,3.0884,0,0,1-.0005-4.3677l.0005,0h0a3.0888,3.0888,0,0,1,4.3682,0l0,0Z" fill="#010101"/>
            <path d="M189.2353,535.5976a3.0879,3.0879,0,0,1,4.3669-.0009l.0009.0009h0a3.0887,3.0887,0,0,1,0,4.3682l0,0-20.0948,20.0955a3.09,3.09,0,0,1-4.3686,0h0a3.0889,3.0889,0,0,1-.0005-4.3683l.0005,0Z" fill="#010101"/>
          </g>
          <circle cx="181.4805" cy="547.9387" r="12.3552" transform="translate(-357.3201 340.8982) rotate(-50.655)" fill="#010101"/>
        </g>
        <path d="M132.7663,545.2987l4.579-3.5613s.5091-16.79,17.044-29.255c15.0994-11.3814,33.58-9.4124,33.58-9.4124l1.7807-3.5614s-23.1487-2.7983-39.176,10.1756C131.2719,525.3084,132.7663,545.2987,132.7663,545.2987Z" fill="#010101" opacity="0.4" style="isolation: isolate"/>
        <path d="M182.945,533.3425a1.463,1.463,0,1,1-1.463-1.463h0a1.4629,1.4629,0,0,1,1.4628,1.4629Z" fill="#010101"/>
        <path d="M193.1206,537.4125a1.4628,1.4628,0,1,1-1.4632-1.4624h0A1.4625,1.4625,0,0,1,193.1206,537.4125Z" fill="#010101"/>
        <path d="M197.9541,547.7156a1.463,1.463,0,1,1-1.4632-1.4628h0a1.4628,1.4628,0,0,1,1.463,1.4625Z" fill="#010101"/>
        <path d="M193.6291,558.7812a1.463,1.463,0,1,1-1.4636-1.4624h.0006A1.463,1.463,0,0,1,193.6291,558.7812Z" fill="#010101"/>
        <path d="M182.8175,562.5971a1.4628,1.4628,0,1,1-1.463-1.4626h0A1.4628,1.4628,0,0,1,182.8175,562.5971Z" fill="#010101"/>
        <path d="M172.6419,558.1454a1.463,1.463,0,1,1-1.4632-1.4628h0A1.463,1.463,0,0,1,172.6419,558.1454Z" fill="#010101"/>
        <path d="M168.572,547.8427a1.463,1.463,0,1,1-1.463-1.463h0a1.4628,1.4628,0,0,1,1.4628,1.4628Z" fill="#010101"/>
        <path d="M172.6419,537.4125a1.463,1.463,0,1,1-1.4636-1.4624h.0008A1.4628,1.4628,0,0,1,172.6419,537.4125Z" fill="#010101"/>
      </g>
      <circle cx="181.4805" cy="547.9387" r="6.7837" transform="translate(-286.1295 209.5412) rotate(-35.7825)" fill="#010101"/>
    </g>
    <g>
      <g>
        <circle cx="650.1996" cy="547.9386" r="53.8007" fill="#010101"/>
        <path d="M670.4336,498.4161c15.64,9.4105,29.4355,24.9393,30.1787,44.5084,1.0174,26.7947-10.98,57.1868-56.3044,55.9657a67.04,67.04,0,0,1-21.8045-4.4816c8.09,4.8682,19.8139,7.1954,29.9444,7.1954,29.7133,0,51.5528-23.6116,51.5528-53.3257A53.8144,53.8144,0,0,0,670.4336,498.4161Z" fill="#010101"/>
        <circle cx="650.1995" cy="547.9386" r="32.8147" fill="#010101"/>
        <circle cx="650.1997" cy="547.9381" r="30.1439" fill="#010101"/>
        <path d="M671.5675,547.9386A21.3678,21.3678,0,1,1,650.2,526.571h0A21.3678,21.3678,0,0,1,671.5675,547.9386Z" fill="#010101"/>
        <g>
          <g>
            <path d="M653.2883,562.1484A3.0886,3.0886,0,0,1,650.2,565.237h0a3.0885,3.0885,0,0,1-3.0888-3.0884V533.7293A3.0889,3.0889,0,0,1,650.2,530.64h0a3.0893,3.0893,0,0,1,3.0888,3.0892Z" fill="#010101"/>
            <path d="M664.4087,544.5411a3.0894,3.0894,0,0,1,3.09,3.089h0a3.0894,3.0894,0,0,1-3.09,3.0888H635.99a3.0888,3.0888,0,0,1-3.0888-3.0888h0a3.0889,3.0889,0,0,1,3.0886-3.089h28.4189Z" fill="#010101"/>
          </g>
          <g>
            <path d="M662.5412,555.9116a3.09,3.09,0,0,1,0,4.3681h0a3.09,3.09,0,0,1-4.3694,0l-20.095-20.0954a3.0884,3.0884,0,0,1,0-4.3677l0,0h0a3.0891,3.0891,0,0,1,4.3686,0l0,0Z" fill="#010101"/>
            <path d="M657.9539,535.5976a3.0883,3.0883,0,0,1,4.3674-.0006l.0006.0006h0a3.0888,3.0888,0,0,1,0,4.3682l0,0-20.095,20.0955a3.09,3.09,0,0,1-4.3685,0h0a3.09,3.09,0,0,1,0-4.3688Z" fill="#010101"/>
          </g>
          <circle cx="650.1994" cy="547.9386" r="12.3552" fill="#010101"/>
        </g>
        <path d="M601.4849,545.2987l4.5792-3.5613s.5083-16.79,17.0446-29.255c15.0985-11.3814,33.58-9.4124,33.58-9.4124l1.78-3.5614s-23.1487-2.7983-39.1759,10.1756C599.9916,525.3084,601.4849,545.2987,601.4849,545.2987Z" fill="#010101" opacity="0.4" style="isolation: isolate"/>
        <path d="M651.6636,533.3425a1.4627,1.4627,0,1,1,0-.0006Z" fill="#010101"/>
        <path d="M661.8394,537.4125a1.463,1.463,0,1,1-1.4636-1.4624h.0008A1.4628,1.4628,0,0,1,661.8394,537.4125Z" fill="#010101"/>
        <path d="M666.6727,547.7156a1.4631,1.4631,0,1,1-1.4633-1.4628h0a1.4629,1.4629,0,0,1,1.4629,1.4628Z" fill="#010101"/>
        <path d="M662.3477,558.7812a1.4625,1.4625,0,1,1-1.4625-1.4624h0A1.4629,1.4629,0,0,1,662.3477,558.7812Z" fill="#010101"/>
        <path d="M651.5363,562.5971a1.463,1.463,0,1,1-1.4634-1.4626h0a1.4627,1.4627,0,0,1,1.463,1.4626Z" fill="#010101"/>
        <path d="M641.3607,558.1454a1.4626,1.4626,0,1,1-1.463-1.4628,1.4626,1.4626,0,0,1,1.463,1.4628Z" fill="#010101"/>
        <path d="M637.2906,547.8427a1.4631,1.4631,0,1,1-1.4631-1.463h0a1.4628,1.4628,0,0,1,1.4628,1.4628Z" fill="#010101"/>
        <path d="M641.3607,537.4125a1.4621,1.4621,0,1,1,0-.0006Z" fill="#010101"/>
      </g>
      <circle cx="650.1994" cy="547.9386" r="6.7837" fill="#010101"/>
    </g>
    <path d="M118.7667,556.14l-72.2375.1458-2.1692-17.96L27.3769,522.9742l-2.2112-14.74,16.2145-7.37,9.5812-35.377s38.3247-21.374,108.3413-32.4275,105.393-9.5814,105.393-9.5814,106.8678-67.8055,120.8711-70.0164l14.0034-2.2111S602.9863,340.1952,616.99,347.566s84.02,56.0133,84.02,56.0133,91.39-5.8963,95.8118,2.948,5.1593,72.9646,5.1593,72.9646l20.6367,4.4221-5.1595,28.0048-11.7919,5.1591-4.4228,14.0032-91.39,2.948s-19.11-43.1786-24.3212-44.2208c-22.1107-4.4222-46.4324-6.6335-77.3873,5.8958-12.7627,5.166-23.5839,56.7506-23.5839,56.7506L244.06,556.8767s1.0224-16.5886-8.8447-39.062c-13.2658-30.2175-55.2024-45.1-89.9156-22.8476C116.556,513.3928,118.7667,556.14,118.7667,556.14Z" fill="#010101"/>
    <path d="M295.2806,430.1093c-2.4293-.2028,15.3408-18.9853,35.3764-34.64,20.6-16.0951,49.6719-32.7818,55.2766-33.9026,11.0553-2.2109,78.86-5.1591,78.86-5.1591l-16.2145,69.2793S312.97,431.584,295.2806,430.1093Z" fill="#010101"/>
    <path d="M335.8172,399.8925c20.5989-16.0955,49.6718-32.7821,55.2759-33.9031,8.995-1.799,55.5581-4.0856,72.6006-4.8759l1.1011-4.7052s-67.8051,2.9482-78.86,5.1591c-5.6047,1.1208-34.677,17.8075-55.2766,33.9027-20.036,15.6551-37.8061,34.4372-35.3776,34.6392,1.6117.134,4.207.2072,7.5862.2289A257.1963,257.1963,0,0,1,335.8172,399.8925Z" fill="#010101"/>
    <polygon points="487.274 354.934 476.219 423.477 602.987 420.53 587.51 353.46 487.274 354.934" fill="#010101"/>
    <polygon points="492.27 359.417 588.98 356.408 587.51 353.46 487.274 354.934 476.219 423.477 482.22 423.477 492.27 359.417" fill="#010101"/>
    <path d="M599.3,354.9338l19.6356,64.5907,46.5555-.8168a18.0184,18.0184,0,0,0-3.3689-11.0263c-3.6845-4.4223-13.8491-11.4092-30.3936-28.426C605.9345,352.7231,599.3,354.9338,599.3,354.9338Z" fill="#010101"/>
    <path d="M604.2485,356.0141c-3.655-1.796-4.9475-1.3674-4.9475-1.3674l19.6355,64.5908,4.5079-.0793Z" fill="#010101"/>
    <path d="M24.4963,506.2429s82.961-.4091,93.48.57c6.6815.6222,5.8856,17.33-1.8691,18.5346-13.0145,2.0217-78.71.8556-78.71.8556s-16.69.3846-17.9183-9.0614A10.26,10.26,0,0,1,24.4963,506.2429Z" fill="#010101"/>
    <polygon points="25.525 507.436 21.229 511.573 118.77 513.005 116.702 507.754 25.525 507.436" fill="#010101" opacity="0.5" style="isolation: isolate"/>
    <path d="M706.8425,484.1338s105.1893-.4093,118.5272.57c8.4705.6221,7.4618,17.33-2.3708,18.5342-16.5014,2.0217-99.8.8558-99.8.8558s-21.1618.3844-22.7191-9.0616C699.1577,487.0231,706.8425,484.1338,706.8425,484.1338Z" fill="#010101"/>
    <polygon points="708.146 485.327 702.698 489.463 826.376 490.896 823.752 485.645 708.146 485.327" fill="#010101" opacity="0.5" style="isolation: isolate"/>
    <polygon points="587.068 501.328 238.9 510.445 230.794 503.074 594.401 491.747 587.068 501.328" fill="#010101"/>
    <path d="M86.4212,469.6565c-1.646-5.5557-39.7172-2.8812-39.7172-2.8812a73.1728,73.1728,0,0,0-5.35,12.3473c-1.9883,7.3837-.6173,20.9909-.6173,20.9909l44.2441-.4117S87.755,474.159,86.4212,469.6565Z" fill="#010101"/>
    <path d="M49.5854,469.6565a48.5346,48.5346,0,0,0-4.322,11.1114c-.6173,4.1161-.6173,17.0807-.6173,17.0807l7.6146.206s-1.2346-9.6725.6173-14.4054,10.9071-14.8169,10.9071-14.8169Z" fill="#010101"/>
    <polygon points="786.504 418.317 266.169 435.27 210.157 464.749 755.959 439.008 786.504 418.317" fill="#010101"/>
    <path d="M77.1251,464.9126s58.5929-17.1142,88.0735-20.7993S266.17,435.2689,266.17,435.2689l17.69,9.5813s-97.2858,2.211-117.1858,3.6845S85.219,466.2608,85.219,466.2608Z" fill="#010101"/>
    <path d="M799.9138,435.5575s-19.6541-.4911-21.6194-.4911a5.2244,5.2244,0,0,0-4.9139,4.4222c0,2.4566,1.4746,18.18,1.9651,20.1449s3.44,3.9307,6.8794,3.9307,20.6368.4913,20.6368.4913Z" fill="#010101"/>
    <polygon points="778.173 438.175 779.934 459.969 786.979 459.969 785.217 437.955 778.173 438.175" fill="#010101"/>
    <polygon points="586.054 545.533 243.813 548.525 241.111 534.275 590.703 529.361 586.054 545.533" fill="#010101" opacity="0.7" style="isolation: isolate"/>
    <polygon points="704.695 522.974 805.665 517.077 817.458 511.919 817.458 511.919 701.211 515.804 704.695 522.974" fill="#010101" opacity="0.7" style="isolation: isolate"/>
    <path d="M443.7906,450.3779a13.6347,13.6347,0,1,1,0-.0006Z" fill="#010101"/>
    <path d="M606.6718,443.0075a13.635,13.635,0,1,1-13.6355-13.6346h0A13.6352,13.6352,0,0,1,606.6718,443.0075Z" fill="#010101"/>
    <path d="M265.6377,535.5153l-.169-.5225c-.0816-.2519-8.1075-25.6136-3.715-60.0186,3.8112-29.8594,16.2325-46.6162,16.3569-46.7825l.1207-.1254c.7013-.5756,70.528-57.7186,106.3439-70.8757,8.6773-3.1876,88.9391-6.5367,92.3511-6.6777l.9-.0374L465.865,425.1774c-.08.25-8.0955,25.245-9.5465,48.4624s5.08,56.2292,5.146,56.56l.1721.8615-.8776.0193Zm13.6008-106.3684c-.8588,1.1831-12.3863,17.5307-16.0228,46.0142a152.9007,152.9007,0,0,0,3.498,58.8557l193.14-4.39c-1.02-5.3821-6.337-34.781-5.0061-56.08,1.43-22.8762,9.1717-47.4329,9.5977-48.7688l11.6409-72.7551c-9.053.3858-83.0194,3.6182-91.0022,6.55C350.0043,371.46,281.84,427.0193,279.2385,429.1471Z" fill="#010101"/>
    <path d="M460.7509,531.0811l-.0169-1.474,119.9713-1.3533c.2314-4.0795,1.7237-24.16,9.1887-33.0255,5.63-6.687,12.2973-9.5357,18.18-12.049,6.428-2.7465,11.5053-4.9159,12.6124-11.1886.5208-2.9514-4.8119-30.6176-11.8877-61.6738-8.9618-39.337-14.7139-58.0454-16.439-59.1376-4.0937-1.7528-84.68-.0137-115.3837.8059l-.0386-1.4739c4.5206-.12,110.7747-2.9266,116.0208-.6775,3.4266,1.4686,12.2286,38.0218,17.1687,59.682,6.3969,28.0373,12.639,59.168,12.01,62.7309-1.245,7.0588-6.9164,9.4821-13.4841,12.2881-5.7307,2.45-12.2262,5.2247-17.6316,11.6438-7.8274,9.2963-8.8677,32.5994-8.8774,32.834l-.0289.6989Z" fill="#010101"/>
    <path d="M446.9847,449.0266a2.7026,2.7026,0,0,1-2.7026,2.7024H414.8014a2.7027,2.7027,0,0,1-2.7027-2.7024h0a2.7027,2.7027,0,0,1,2.7027-2.7024h29.4807A2.7026,2.7026,0,0,1,446.9847,449.0266Z" fill="#010101"/>
    <path d="M609.62,442.148a2.7028,2.7028,0,0,1-2.7028,2.7022H577.4364a2.7027,2.7027,0,0,1-2.7026-2.7022h0a2.7025,2.7025,0,0,1,2.7022-2.7027h29.4809a2.7028,2.7028,0,0,1,2.7028,2.7025v0Z" fill="#010101"/>
    <polygon points="44.36 538.326 119.819 539.477 122.284 528.462 34.169 528.956 44.36 538.326" fill="#010101" opacity="0.7" style="isolation: isolate"/>
  </g>
</svg>
