<svg id="Calque_1" data-name="Calque 1" xmlns="http://www.w3.org/2000/svg" width="850.3937" height="946.7717" viewBox="0 0 850.3937 946.7717">
  <g>
    <path d="M63.5918,572.966c19.3156,52.7464,60.6707,99.3018,98.93,136.1995C215.7638,760.55,279.7775,791.38,344.5342,807.6006c146.8477,36.65,309.1727,29.5924,451.6869-28.9734-105.74-41.4789-211.1091-106.1117-264.7222-210.1186-18.2012-35.4119-29.4686-74.1669-34.1737-113.6647-2.8478-24.5159,5.3241-53.2416-16.963-70.3284-12.1342-9.2864-34.4214-14.3629-49.5271-9.9054-13.8676,4.0859-20.8014,9.1625-36.8977,7.3052-9.9054-1.1144-19.0679,3.7145-26.497-2.8478-7.429-6.6861-14.3628-14.1152-22.9062-19.1917-17.4583-10.2769-48.1651-18.82-66.9854-9.2864-13.9914,7.0576-25.0112,19.0679-38.7549,26.497-22.6587,12.3818-38.8788,3.5907-61.7851,4.086-21.5443.4953-47.67,11.6389-65.7472,22.6586-29.7163,17.9536-50.8891,49.2795-56.7085,83.577-5.0766,29.84-.8668,58.5658,9.0386,85.558Z"/>
    <g opacity="0.1">
      <path d="M63.4679,573.2137c19.3156,52.7463,60.5469,99.3018,98.8066,136.1994,53.2416,51.3844,117.2553,82.215,182.012,98.4351,146.8478,36.65,309.1728,29.5924,451.687-28.9733-14.3629-5.6956-28.7257-11.7627-42.9648-18.325-118.2459,29.7162-244.2923,28.23-360.6809-.8668-64.7567-16.22-128.6466-47.0507-182.0121-98.435-38.1358-36.8977-79.4909-83.4532-98.8065-136.2-9.9054-27.1161-14.1152-55.718-9.0387-85.5581a122.5026,122.5026,0,0,1,13.7438-38.5073c-1.61.8668-3.3431,1.8573-4.9527,2.8478-29.7163,17.9536-50.8891,49.2795-56.7085,83.577C49.4765,517.2481,53.6863,545.9738,63.4679,573.2137Z"/>
    </g>
    <path d="M85.3836,330.0356c-24.64,27.1161-37.7644,60.7945-42.7171,97.0731-2.2288,16.8392-4.3336,35.5357-1.8573,52.2511,3.3431,22.411,13.7438,43.3362,16.0963,66.1186-4.21-39.374,5.0765-84.32,27.24-117.3792,22.7825-34.05,62.0327-56.0894,103.3878-46.6792,18.4488,4.21,27.859,26.1255,49.5271,14.9819,25.2588-13.0009,29.221-46.3078,66.1186-35.5357,31.6974,9.1625,21.5443,47.1746,50.5177,52.87,26.1255,5.0765,25.7541-16.7154,39.8693-31.5735,6.0671-6.5624,17.4583-1.9811,22.7824,5.2,8.0482,10.7722,25.5065,46.6793,36.65,15.601,1.8573-5.2,2.8478-10.8959,6.0671-15.3533,4.4574-5.9433,12.5055-8.42,19.8108-7.5529,34.6689,4.3336,51.1367,56.0894,85.4342,65.0043,19.0679,4.8289,36.031-6.81,34.05-27.4876C596.1317,393.6779,560.72,372.8765,570.13,347.37c2.6-7.1814,11.02-10.6483,18.6965-11.7627,26.0017-3.9622,51.0129,7.8005,68.595,25.8779,13.9914,14.3629,26.7446,36.1548,48.66,38.755,17.0868,1.981,35.7833-10.6484,36.2786-27.7352.2476-7.5529-2.724-15.601.7429-22.2872,3.343-6.3147,11.3912-8.6672,18.5726-8.5434s14.3629,1.8573,21.4205.99c12.5056-1.61,23.2777-12.3817,24.7635-24.8873,3.2193-26.7446-28.23-43.5838-49.6509-47.7937-23.2777-4.5812-50.1462-7.0576-63.89-26.3731-7.0576-9.7816-9.41-22.9063-18.2012-31.2021-13.4962-12.7532-35.6595-8.5434-52.6225-.8667s-34.2976,18.325-52.7464,15.8487c-17.2106-2.2288-30.7068-15.3534-45.4411-24.64-47.4222-29.9638-96.454-11.2674-142.8856,9.534-18.6965,8.42-38.3835,19.3156-58.69,22.9063-27.859,4.9527-56.2132-11.7627-83.2055-3.0954a134.98,134.98,0,0,0-45.07,24.7635c-8.6673,7.1814-13.0009,18.82-21.2967,26.0017-11.7627,10.2769-28.1066,9.7816-41.9742,14.8581-18.4488,6.6862-33.926,18.0774-46.8031,32.3165Z"/>
    <path d="M329.3046,195.57c.4952-5.6956,5.9432-9.7816,11.3912-11.3913,5.5718-1.4858,11.3912-1.2381,16.963-2.2287,10.153-1.8572,20.3061-10.153,19.0679-20.3061-.7429-6.3147-5.9432-11.6389-12.01-13.4961s-12.7532-.8667-18.5727,1.7334c-16.8392,7.4291-26.3732,30.7068-19.4393,47.9175"/>
    <path d="M629.9339,404.0787A104.7029,104.7029,0,0,1,661.5074,441.1c4.5813,9.0387,9.9054,18.0773,21.1728,13.0008,9.9055-4.4574,9.7816-13.3723,5.2-21.7919-10.4007-18.9441-36.65-29.3448-57.2038-28.7257"/>
    <path d="M719.7017,233.7055c4.7051-7.1814,15.4772-6.6861,23.6492-3.8383s16.7154,7.0576,24.8874,4.4574a6.0778,6.0778,0,0,0,3.4669-2.2287c7.1814-10.5245-11.5151-18.5727-18.82-17.706-10.896,1.2382-25.8779,10.1531-31.945,19.068"/>
    <path d="M654.8213,519.353A130.4453,130.4453,0,0,1,668.07,558.8508c.99,6.5623,1.7334,13.3723,4.9527,19.1917,3.2192,5.6956,10.153,10.1531,16.4677,8.172,4.4574-1.362,7.6767-5.6956,8.6672-10.2769,5.6957-25.0112-22.411-49.2794-43.46-55.718"/>
    <path d="M57.1533,554.27c-4.4575,0-8.42-3.467-9.534-7.8006v-.1238c-1.1144-11.1436-4.4575-22.0395-7.9243-33.4307-3.0955-10.2769-6.4386-21.049-8.0482-32.1926-2.6-17.5821-.4953-36.65,1.8573-54.7274,5.2-40.4884,20.3061-74.6621,44.6982-101.6544,14.6105-16.22,31.5735-27.859,50.3938-34.6689a132.5035,132.5035,0,0,1,15.9725-4.21c8.791-1.8573,17.2106-3.7146,23.1539-8.9149,3.0954-2.724,5.8194-6.6862,8.6672-10.896,3.4669-4.9527,7.3053-10.6483,12.7532-15.23a143.3,143.3,0,0,1,48.1651-26.497c16.7154-5.3242,33.0594-2.3526,48.908.4952,12.5056,2.2287,24.2683,4.3337,35.5357,2.3526,14.7343-2.6,29.7162-9.6578,44.0791-16.4678,4.21-1.9811,8.42-3.9622,12.5056-5.8194,48.908-21.9158,100.9114-40.736,151.429-8.9149,3.9622,2.6,7.8005,5.3242,11.6389,8.0481,10.153,7.1815,19.687,13.9915,30.2115,15.3534,12.6294,1.61,25.5064-4.4574,39.0026-11.02,2.9716-1.4859,5.9432-2.8479,8.9148-4.21,25.63-11.5151,48.4128-10.6484,62.528,2.6,6.4385,6.0671,10.0292,13.8676,13.1247,20.6776,1.981,4.3336,3.8383,8.5434,6.3147,11.8865,9.9054,13.8676,29.9639,17.5821,49.4032,21.049,2.9717.4953,5.9433.99,8.9149,1.61,24.1445,4.7051,60.9183,24.5159,56.8323,57.6991-1.9811,16.5915-16.0963,30.5829-32.564,32.6878a67.131,67.131,0,0,1-15.1058-.3714,51.77,51.77,0,0,0-7.5529-.6191c-4.705.1238-9.1625,1.4858-10.4007,3.7145-1.1143,1.9811-.7429,5.5718-.2476,9.41a52.49,52.49,0,0,1,.6191,8.791c-.3715,9.6578-4.8289,18.82-12.877,25.7541a44.2873,44.2873,0,0,1-33.4308,10.5245c-20.43-2.3525-33.4308-17.5821-44.9458-31.0782-3.0955-3.5907-6.0671-7.0576-9.1626-10.2769-17.5821-17.9536-39.7454-26.497-60.6706-23.2777-4.8289.7429-10.4007,2.724-11.6389,6.067-3.4669,9.534,2.3525,18.6965,12.3818,32.5641,7.5529,10.4007,15.23,21.1728,16.4677,33.6784,1.1144,12.258-2.8478,23.03-11.3912,30.2115-8.9149,7.6767-21.2966,10.1531-33.926,6.81-19.1918-4.9527-32.6879-20.43-45.6888-35.4119-12.3818-14.239-24.0206-27.6113-38.6311-29.4686-4.7051-.6191-9.2863.99-11.3912,3.9622-1.4858,1.8572-2.3526,4.8288-3.2193,7.9243-.4952,1.7334-.99,3.4669-1.61,5.0765-3.9622,11.2674-9.9054,17.4583-17.5821,18.325-13.4962,1.4859-22.9063-13.4961-30.7068-25.5064-1.4858-2.3525-2.8478-4.4574-3.9622-5.9433-1.8573-2.4763-5.3241-4.5812-7.8-4.705-.99-.2477-1.1144.1238-1.2382.2476-3.5907,3.7145-6.1908,8.42-8.791,12.8771-6.3147,11.02-14.8581,26.2493-39.374,21.42-18.9442-3.7145-25.3827-18.325-30.583-29.9639-5.3241-12.1341-9.2864-19.8108-20.6776-23.1539-18.325-5.3242-24.8873,2.1049-35.66,14.3629-6.1909,7.0576-13.3723,15.1057-23.7729,20.5537-18.5727,9.5339-31.6974.3714-41.2314-6.4385-4.8288-3.3431-9.5339-6.6862-14.4866-7.8-34.2975-7.8-71.1952,9.0387-93.8539,42.8409-19.9346,29.84-29.84,72.4334-25.7541,111.3121a9.0334,9.0334,0,0,1-8.0481,9.9054h-.9906Zm111.8074-184.117a77.6187,77.6187,0,0,1,20.6775,2.6c8.5434,1.9811,15.1057,6.6862,20.9252,10.7721,9.534,6.6862,13.9914,9.534,22.5348,5.0766,7.429-3.8384,12.8771-9.9054,18.5727-16.4678,11.02-12.6294,24.8873-28.23,54.2321-19.687,20.0585,5.8194,26.7446,21.049,32.1926,33.1831,5.2,11.6389,8.2958,17.706,17.5821,19.5632,11.6389,2.2288,13.9914-1.7334,20.1823-12.6294,2.8478-5.2,6.1909-11.02,11.2674-16.3439a19.7193,19.7193,0,0,1,15.4772-5.9432c7.8005.3714,16.0963,5.0765,21.1728,11.8864,1.362,1.7335,2.9717,4.21,4.7051,6.9338,2.6,4.086,9.41,14.4867,13.2485,16.9631a23.8467,23.8467,0,0,0,2.9717-6.0671c.4952-1.362.99-2.8478,1.362-4.21,1.2381-4.21,2.7239-9.0387,5.9432-13.4961,6.0671-8.172,17.0869-12.5056,28.23-11.1436,21.4205,2.724,35.9072,19.4394,49.8986,35.5357,11.7627,13.3723,22.7824,26.1255,36.65,29.7162,6.9338,1.8573,13.4961.7429,17.83-2.9716,3.9621-3.3431,5.6956-8.5434,5.0765-14.8581-.7429-7.6768-6.6861-16.0964-13.1247-24.8874-10.153-14.1152-21.7919-30.2115-14.6105-49.4033,3.4669-9.2863,12.6294-15.601,25.8779-17.5821,26.8685-4.086,54.7274,6.1909,76.3955,28.4781,3.3431,3.3431,6.6862,7.1814,10.0293,11.1436,10.2769,12.01,19.9346,23.2777,33.307,24.8873a26.187,26.187,0,0,0,19.5631-6.3147c4.086-3.5907,6.4386-8.0481,6.5624-12.6294a27.4859,27.4859,0,0,0-.7429-6.3147c-.6191-5.6956-1.362-12.877,2.2287-19.8108,4.4574-8.42,14.239-13.3723,26.1255-13.3723H761.8a77.9809,77.9809,0,0,1,9.2863.619,56.1784,56.1784,0,0,0,11.02.3715,20.496,20.496,0,0,0,17.0869-17.0868c2.6-21.792-27.4876-34.9166-42.47-37.8883-2.8478-.4952-5.6956-1.1143-8.6673-1.61-21.7919-3.9622-46.6792-8.5434-60.7944-28.3542a83.1084,83.1084,0,0,1-8.0482-14.8582c-2.6-5.8194-5.2-11.3912-9.0387-14.9819-12.3818-11.6389-35.9071-2.3525-42.8409.7429-2.8478,1.2382-5.6956,2.6-8.5434,3.9622-14.6105,7.0576-31.0783,14.9819-49.1557,12.6294-14.9819-1.9811-26.8684-10.4007-38.26-18.5727q-5.2-3.9-10.7722-7.429c-42.9647-27.1161-88.1582-10.7722-134.466,10.0292-3.9622,1.8573-8.0481,3.7145-12.1341,5.6956-15.4773,7.3053-31.5735,14.982-48.66,17.9536-14.4867,2.6-28.3543.1238-41.85-2.3526-14.3628-2.4763-27.859-4.9527-40.2408-.99a126.1275,126.1275,0,0,0-42.098,23.1539c-3.4669,2.9716-6.3147,7.1814-9.41,11.6389-3.3431,4.8289-6.81,10.0292-11.6389,14.239-9.41,8.2958-21.049,10.7721-31.202,13.0009a127.9086,127.9086,0,0,0-13.62,3.5907c-15.9725,5.8194-30.5829,15.8486-43.2124,29.84-21.9157,24.1445-35.4118,55.0989-40.1169,91.8728-2.2287,16.8392-4.086,34.5451-1.8573,49.7747.3714,2.724.8667,5.3241,1.4858,8.0481,4.8289-23.1539,13.4961-45.07,25.5065-62.8993,22.2871-33.4308,56.8322-52.7464,91.8727-52.7464Z"/>
    <path d="M528.4034,839.2979a776.0381,776.0381,0,0,1-186.2219-22.9063c-73.1762-18.325-135.828-52.1273-186.098-100.6638l-3.7145-3.5907c-38.3835-37.0215-78.0051-75.2812-98.3112-135.828A405.298,405.298,0,0,1,41.676,529.506a9.0332,9.0332,0,1,1,17.7059-3.5907,369.8485,369.8485,0,0,0,11.8865,44.6981c18.82,56.3371,55.2227,91.3775,93.73,128.5228l3.7145,3.5908c48.0413,46.3078,107.8452,78.748,177.9261,96.2063,143.5047,35.9072,293.6956,28.6019,425.3138-20.3061C573.5968,694.555,477.5143,562.4415,486.4292,385.506a8.7,8.7,0,0,1,9.41-8.5434,8.9931,8.9931,0,0,1,8.5434,9.41C495.4679,563.1844,591.9218,688.8594,799.44,770.3314a8.8419,8.8419,0,0,1,5.6956,8.2958,9.081,9.081,0,0,1-5.5718,8.42c-84.4436,34.669-177.0593,52.2511-271.1607,52.2511Z"/>
    <path d="M191.3716,631.6556c-17.9536-10.4007-41.7266-27.859-61.5374-53.2416s-31.6974-52.1273-38.755-71.5666c-6.9337-19.5633-9.5339-32.0688-8.5434-32.44,1.2382-.3714,5.82,11.5151,14.1152,30.2115,8.42,18.5727,20.8015,44.0791,39.8694,68.4712s41.3551,41.9742,58.07,53.4893c16.9631,11.3912,28.1067,17.5821,27.4876,18.82C221.7069,646.2661,209.5728,642.0563,191.3716,631.6556Z"/>
    <path d="M146.4258,463.3873c-8.5435-42.5933-4.5813-77.8813-2.4764-77.6337,2.6.1239,2.4764,34.669,10.896,76.0241,8.0481,41.4789,21.2966,73.4239,18.9441,74.4144C171.9322,537.3065,154.7215,506.1044,146.4258,463.3873Z"/>
    <path d="M200.1626,492.6084c-1.7334,1.3619-18.2012-20.9253-23.8968-53.737-6.067-32.8116,1.4859-59.3086,3.5908-58.69,2.4763.3714-.9906,26.2493,4.8288,57.2037,5.448,30.9544,17.706,53.9845,15.4772,55.2227Z"/>
    <path d="M391.09,599.7106c-.7429.7429-10.6483-8.6672-23.03-26.6208-12.6294-17.83-26.9922-44.822-36.7739-76.767a304.0152,304.0152,0,0,1-13.7437-83.9484c-.2476-21.9157,1.9811-35.288,2.9716-35.1642,2.8478-.1238-.7429,53.9845,18.9441,116.5125,18.6965,63.0232,53.8607,104.5021,51.632,105.9879Z"/>
    <path d="M493.4868,645.3994c-.6191.7429-13.4962-7.3053-30.583-24.8874-17.0869-17.4583-37.393-45.07-52.994-78.9957a347.8579,347.8579,0,0,1-27.6113-91.006c-3.5907-24.1445-3.3431-39.25-2.3525-39.25,2.9716-.4953,6.6861,60.2992,37.7643,126.6655,15.23,33.1831,34.1737,60.423,49.7748,78.5,15.4772,18.2012,26.8684,27.859,26.0017,28.9734Z"/>
    <path d="M543.7568,623.8551c-.99.6191-9.6578-8.791-22.04-25.3826-12.3817-16.7154-28.6018-40.9836-40.9836-70.7-12.5056-29.7163-17.706-58.69-18.4489-79.7386-.7429-21.1728,2.1049-33.9261,3.0955-33.8022,1.362.1238.6191,13.0008,2.9716,33.3069,2.2287,20.3061,8.2958,48.0413,20.3061,76.8908,12.01,28.7257,26.9923,52.994,38.012,70.4523s18.0774,28.23,17.0869,28.9733Z"/>
    <path d="M376.8505,708.67c-.4953.7428-15.4772-7.4291-37.6406-24.3921-21.7919-16.7154-50.5176-42.9648-73.5477-78.8719-23.2777-35.7833-34.5452-73.3-39.7455-100.2923-5.2-27.1161-5.6956-44.2029-4.7051-44.3267,1.362-.1239,3.9622,16.7153,10.6483,43.0885s18.4489,62.4041,40.9837,97.0731c22.2872,34.7927,49.6509,61.1659,70.2047,78.8719,20.8014,17.7059,34.6689,27.6113,33.8022,28.85Z"/>
    <path d="M568.8917,760.0547c-.1238.619-4.8288-.1239-13.4961-1.8573a126.0878,126.0878,0,0,1-15.3534-4.086,192.8651,192.8651,0,0,1-19.8108-6.9338c-14.6105-5.448-31.2021-13.7438-49.1556-23.8969A429.0718,429.0718,0,0,1,416.3483,684.65,406.3777,406.3777,0,0,1,369.05,637.2274c-12.7533-16.0963-23.6492-31.3259-30.8306-45.1934a163.8712,163.8712,0,0,1-9.2864-18.82,92.4566,92.4566,0,0,1-5.6956-14.7343c-2.6-8.2958-3.8383-13.0009-3.2192-13.1247,1.4858-.4953,7.5529,17.7059,23.5254,43.7076,7.6767,13.2485,18.9441,27.6114,31.6973,43.2124a459.131,459.131,0,0,0,46.8031,45.9364,511.3631,511.3631,0,0,0,53.2416,38.3834c17.3345,10.2769,33.307,19.068,47.4222,25.0112,27.9828,12.5056,46.5554,16.9631,46.184,18.4489Z"/>
    <path d="M300.0835,719.69c28.7257,17.4583,71.0714,37.5168,120.3508,51.88a520.42,520.42,0,0,0,129.39,20.9252c33.6784.8668,54.48-1.61,54.7274-.1238.1238.4953-5.0765,1.61-14.4867,3.0954-9.41,1.7335-23.1539,2.724-40.2407,3.0955-34.05.4953-81.5959-3.9622-131.7421-18.82-50.1462-14.6105-92.8632-35.9071-121.2175-54.9751a229.27,229.27,0,0,1-18.82-13.3723,148.3419,148.3419,0,0,1-13.4961-11.02c-7.0576-6.4385-10.7722-10.153-10.4007-10.6483C255.1377,688.6118,270.9864,702.3555,300.0835,719.69Z"/>
    <path d="M558.6149,692.0786A251.3887,251.3887,0,0,0,618.79,731.9479c51.3843,24.2683,98.5589,29.221,97.94,32.3165-.1238.99-11.8865.8667-30.7068-2.2287a275.9352,275.9352,0,0,1-70.9475-22.2872c-26.3732-12.5056-47.67-29.221-60.6707-43.2124-13.1247-13.9914-18.9441-24.3921-18.0774-25.0112C537.442,670.6582,544.7473,679.8207,558.6149,692.0786Z"/>
    <path d="M449.2838,283.8517c.1239-1.362,14.1153,0,36.031-.8668,10.8959-.3714,23.8968-1.7334,37.0215-7.0576,6.5623-2.6,13.4961-6.1909,21.2966-9.1625,7.6767-2.9716,16.7154-5.448,26.3732-3.9621,9.534,1.4858,17.4583,6.3147,24.1445,10.8959,6.81,4.7051,12.7532,9.2863,18.9441,12.8771,12.01,7.429,24.7635,11.02,34.5451,8.2957,10.0293-2.4763,16.4678-8.9148,19.068-13.9913,2.7239-5.0766,2.3525-8.7911,3.0954-8.7911.3714-.1238,2.1049,3.5907,0,10.1531-1.9811,6.4385-8.7911,14.8581-20.43,18.5726-11.8865,4.21-26.9923.3715-40.117-7.1814-13.4961-6.9338-25.63-19.5632-40.4883-22.04-14.982-2.2287-29.4687,7.0577-43.5839,12.01-14.4867,5.4479-28.6019,6.1908-39.8693,5.8194-22.6586-1.1144-36.1547-4.5813-36.0309-5.5718Z"/>
    <path d="M223.5641,320.7493c-.7428-.8667,10.4007-7.429,29.7163-6.3147,18.6965.3715,44.3268,8.42,67.1092-8.5434,12.6294-7.8,27.7352-10.2769,40.2408-9.1625,12.7532.8667,23.6492,4.4574,32.3164,7.9243,17.2107,7.3053,26.7446,13.62,26.3732,14.4867-.6191,1.2382-11.2674-3.2192-28.4781-8.791-8.6672-2.6-19.0679-5.3242-30.7068-5.6956-11.7626-.3715-24.1444,1.7334-35.66,8.791-5.9432,3.3431-12.2579,7.3052-19.3155,9.1625a64.1048,64.1048,0,0,1-20.1823,2.1049c-12.63-.6191-23.4016-3.0954-32.3165-4.086-17.9535-2.6-28.6018,1.362-29.0971.1238Z"/>
    <path d="M329.4283,195.6935c-.4953.1238-1.362-2.724.99-6.6862,2.2287-3.9621,8.5434-7.9243,16.0963-8.791,7.5529-.9906,15.3534-1.4858,21.4205-7.3053,2.8478-2.724,4.8289-6.3147,4.5812-9.9054-.1238-3.5907-2.6-7.3052-6.3147-9.41-7.4291-4.21-17.9535-1.362-24.3921,3.5907a39.118,39.118,0,0,0-13.0008,18.5726c-4.4574,12.8771-.7429,21.6681-2.1049,22.04-.6191.6191-7.1814-8.172-3.7145-23.773a41.96,41.96,0,0,1,13.9914-23.1539,35.86,35.86,0,0,1,15.1058-7.3053c5.8194-1.2382,12.6294-.99,18.5726,2.4764,5.6956,3.3431,10.2769,9.5339,10.4007,16.4677.2477,7.0576-3.5907,12.7533-7.8,16.22a29.4063,29.4063,0,0,1-13.7438,6.5623,120.8842,120.8842,0,0,1-12.1341.8667c-6.9338.1238-11.6389,2.3526-14.2391,4.8289s-3.0954,4.8289-3.7145,4.7051Z"/>
    <path d="M629.9339,404.0787c.6191-.8667,9.534,3.4669,20.5538,15.1057a105.1881,105.1881,0,0,1,15.8486,22.6587c2.2287,4.21,5.3242,8.42,8.42,9.2863,2.724,1.1144,8.42-1.1144,10.5245-4.086,2.2287-2.8478,1.61-7.5529-.6191-11.8865a40.6294,40.6294,0,0,0-8.791-11.515A67.8435,67.8435,0,0,0,654.2022,410.27c-13.8676-5.3242-23.5254-5.3242-23.5254-6.6862-.1238-.99,9.9054-3.3431,25.5065.99a65.7382,65.7382,0,0,1,25.0111,13.2485,49.6444,49.6444,0,0,1,10.896,13.4962c2.8478,5.2,5.2,13.4961.1238,20.6775a19.1914,19.1914,0,0,1-8.9149,6.4385,16.5966,16.5966,0,0,1-11.02.6191c-7.6767-2.9716-10.4007-9.0387-12.8771-13.4961a134.9671,134.9671,0,0,0-13.62-22.5348c-9.1625-11.8865-16.7154-17.83-15.8487-18.9441Z"/>
    <path d="M722.3019,229.1243c2.724-2.4764,8.0481-4.21,14.239-3.7146,6.4385.2477,13.1247,3.3431,19.687,4.9527a19.8976,19.8976,0,0,0,9.6578.4953c1.7335-.3714,2.6-.8667,2.4764-1.1144a3.7627,3.7627,0,0,0,.6191-2.8478c-1.1144-4.21-10.7722-8.6672-15.4772-8.42-6.4386.6191-12.63,3.3431-17.3345,5.6956-9.7816,4.8289-14.2391,10.0293-15.23,9.41-1.1144-.4953,2.1049-7.8,12.01-14.6105,4.8289-3.3431,11.02-7.0576,19.5632-8.42,5.2-.3715,9.1625.99,13.4961,2.8478,4.086,2.1049,8.9149,4.7051,11.02,11.3912a11.6224,11.6224,0,0,1-1.61,9.41c-2.1049,3.4669-5.8194,4.3336-7.9243,4.8289-4.9528.99-9.6578,0-13.4962-1.1144-7.8-2.4763-13.2485-5.6956-18.325-6.5623-10.5245-2.6-15.23,3.0954-16.0963,2.4763C719.2065,233.5817,719.4541,231.4768,722.3019,229.1243Z"/>
    <path d="M654.6974,519.3529c.8668-.4953,7.0576,7.3052,12.5056,22.2872,2.8478,7.3052,4.7051,17.3345,6.5624,26.7446,1.2381,4.7051,2.9716,8.9149,6.4385,11.515,3.4669,2.724,7.5529,3.3431,10.4007.743,3.0954-2.4764,4.086-7.5529,3.9621-12.5056a34.7965,34.7965,0,0,0-3.5907-13.7438c-4.21-8.42-10.4007-14.9819-16.0963-19.9346-11.3912-9.9055-20.6775-13.1247-20.1823-14.3629.1239-.99,10.5245.1238,23.8969,9.534a65.1478,65.1478,0,0,1,19.4393,21.1728,39.9243,39.9243,0,0,1,4.9527,17.0868,38.6121,38.6121,0,0,1-.99,9.7817,18.6384,18.6384,0,0,1-5.9433,9.5339,14.8989,14.8989,0,0,1-11.3912,3.5907,17.738,17.738,0,0,1-9.9054-4.3336c-5.448-4.3336-7.6767-11.02-8.7911-16.22-1.7334-10.7721-2.4763-19.1917-4.5812-26.7446-3.7145-14.7343-7.8005-23.5254-6.6862-24.1445Z"/>
  </g>
</svg>
