<svg id="Calque_1" data-name="Calque 1" xmlns="http://www.w3.org/2000/svg" width="30cm" height="33.4cm" viewBox="0 0 850.3937 946.7717">
  <path d="M293.1687,397.1394c-64.1693,42.9981-42.3372,103.4154-21.5826,166.3536,20.7434,62.9338,29.2056,82.1927.6694,145.3939a502.5058,502.5058,0,0,0-27.2078,75.63,110.1556,110.1556,0,0,0-7.9,47.0958c5.7845,104.44,89.9493,99.7847,193.779,94.0221,103.82-5.7583,187.9909-10.4172,182.1863-114.86a107.09,107.09,0,0,0-3.9215-23.3059l.0242-.0071c-7.4-42.2165-91.814-124.833-43.3073-205.77,50.6689-84.5676-16.3755-117.4179-16.3755-117.4179,2.0382,36.86-23.8274,125.81-72.2257,97.6731-34.0131-19.7607-42.908-59.1159-45.21-80.8166-.3231-3.1115-.5406-5.8793-.6475-8.1637-.2209-4.4082-.1475-7.0692-.1475-7.0692l-.4168.0442L414.14,256.2424c-2.1225-29.7562,22.3493-39.2438,22.3493-39.2438C403.8263,169.9171,414.3044,36.57,414.3044,36.57s6.6549-5.0907-14.768-15.8581c-21.4259-10.76-10.47,23.5056-18.6327,33.0251-8.1573,9.5161-24.7216-4.0028-24.7216-4.0028L340.2048,226.4c16.1465,5.256,23.8208,12.6812,27.48,18.7511l6.2317,262.5349c-14.1154,28.4666-36.0811,28.5108-61.1657-1.9267C279.703,465.68,293.1687,397.1394,293.1687,397.1394Z" fill="#020303"/>
</svg>
