<svg id="Calque_1" data-name="Calque 1" xmlns="http://www.w3.org/2000/svg" width="850.3937" height="946.7717" viewBox="0 0 850.3937 946.7717">
  <g>
    <path d="M825.3413,545.8541,738.3177,469.09l83.9459-80.08a11.8674,11.8674,0,0,0-4.9448-20.0045L705.5922,336.7632l41.2929-108.1356a11.8437,11.8437,0,0,0-1.9131-11.74,11.9973,11.9973,0,0,0-11.1828-4.2218L618.9515,231.1794l-9.34-115.2937a11.8936,11.8936,0,0,0-6.7926-9.7894,12.0265,12.0265,0,0,0-11.9233.955L495.138,172.7405,436.9692,72.5685a11.9967,11.9967,0,0,0-20.7179,0L349.48,187.5555l-115.4987-66.66a12.0217,12.0217,0,0,0-11.9614-.0286,11.88,11.88,0,0,0-6.0061,10.2851l-.28,115.6655L99.7985,237.2618a11.9962,11.9962,0,0,0-10.8158,5.075,11.8277,11.8277,0,0,0-.9883,11.8517l49.6411,104.6067L28.7737,399.6A11.8618,11.8618,0,0,0,25.41,419.9258l89.9632,73.3319L34.6352,576.5331A11.867,11.867,0,0,0,40.36,596.3279L153.2609,624.215,116.247,733.868a11.8421,11.8421,0,0,0,2.3738,11.6564,12.0022,12.0022,0,0,0,11.34,3.7848L243.982,726.36l13.8569,114.8441a11.8986,11.8986,0,0,0,7.1708,9.5176,12.02,12.02,0,0,0,11.8772-1.4157l93.1045-69.3517L432.0467,874.6a11.9767,11.9767,0,0,0,10.1167,5.5485c.1557,0,.3114-.0032.4687-.01a11.9689,11.9689,0,0,0,10.1183-6.343L506.9437,774.64l98.2573,61.9266a12.0213,12.0213,0,0,0,11.9519.4925,11.8885,11.8885,0,0,0,6.4034-10.0451l4.816-115.5686,115.4733,14.046a12.0035,12.0035,0,0,0,11.008-4.6507,11.8368,11.8368,0,0,0,1.4523-11.8057l-45.5-106.453,110.3744-36.55a11.8631,11.8631,0,0,0,4.1613-20.1778Z"/>
    <ellipse cx="422.5752" cy="471.3067" rx="246.3925" ry="246.2018"/>
    <path d="M422.5815,225.1065q-9.2571,0-18.3409.68c127.5109,9.3762,228.05,115.7132,228.05,245.5217,0,129.8069-100.539,236.1439-228.05,245.5217q9.0831.6673,18.3409.68c136.0768,0,246.3909-110.2283,246.3909-246.2C668.9724,335.3348,558.6583,225.1065,422.5815,225.1065Z"/>
  </g>
</svg>
