<svg id="Calque_1" data-name="Calque 1" xmlns="http://www.w3.org/2000/svg" width="850.3937" height="946.7717" viewBox="0 0 850.3937 946.7717">
  <g id="Page-1">
    <g id="_001---Four-Leaf-Clover" data-name="001---Four-Leaf-Clover">
      <path id="Shape" d="M630.2725,167.8248a136.2275,136.2275,0,0,1-10.2537,52.1469c-52.44,21.0932-99.3135,73.68-163.9113,145.1619A57.3474,57.3474,0,0,0,425.2,356.1983a58.1378,58.1378,0,0,0-49.6567,27.6848C304.061,319.2853,251.4746,272.4116,230.3815,219.9717a136.2237,136.2237,0,0,1-10.2536-52.147c0-64.5977,41.8933-119.2349,102.5361-119.2349,71.0429,0,102.5361,68.5528,102.5361,68.5528S456.6934,48.59,527.7363,48.59C588.3791,48.59,630.2725,103.227,630.2725,167.8248Z" fill="#030203"/>
      <path id="Shape-2" data-name="Shape" d="M527.7363,48.59a103.6644,103.6644,0,0,0-22.1771,2.4609c48.6753,11.3229,80.7692,60.2327,80.7692,116.7741a136.2274,136.2274,0,0,1-10.2536,52.1469c-50.272,20.2143-95.593,69.5781-156.1333,136.5635,1.7431-.1465,3.4716-.3369,5.2586-.3369a57.3474,57.3474,0,0,1,30.9074,8.9353c64.5977-71.4824,111.4714-124.0687,163.9113-145.1619a136.2275,136.2275,0,0,0,10.2537-52.1469C630.2725,103.227,588.3791,48.59,527.7363,48.59Z" fill="#030203"/>
      <path id="Shape-3" data-name="Shape" d="M394.2928,464.4472C329.695,535.93,282.8214,588.5159,230.3815,609.6091a136.2279,136.2279,0,0,1-52.147,10.2536C113.6367,619.8627,59,577.9694,59,517.3265,59,446.2836,127.5523,414.79,127.5523,414.79S59,383.2972,59,312.2542c0-60.6428,54.6371-102.5361,119.2349-102.5361a136.227,136.227,0,0,1,52.1469,10.2536c21.0932,52.44,73.68,99.3136,145.1619,163.9114A57.3477,57.3477,0,0,0,366.608,414.79a58.1381,58.1381,0,0,0,27.6848,49.6568Z" fill="#030203"/>
      <path id="Shape-4" data-name="Shape" d="M630.2725,661.7561c0,64.5977-41.8934,119.2348-102.5362,119.2348-71.0429,0-102.5362-68.5527-102.5362-68.5527s-31.4932,68.5527-102.5361,68.5527c-60.6428,0-102.5362-54.6371-102.5362-119.2348a136.2257,136.2257,0,0,1,10.2537-52.147c52.44-21.0932,99.3135-73.68,163.9113-145.1619A57.3473,57.3473,0,0,0,425.2,473.3825a58.1379,58.1379,0,0,0,49.6568-27.6848c71.4824,64.5978,124.0688,111.4715,145.1619,163.9114A136.2276,136.2276,0,0,1,630.2725,661.7561Z" fill="#030203"/>
      <path id="Shape-5" data-name="Shape" d="M620.0188,609.6091c-21.0931-52.44-73.68-99.3136-145.1619-163.9114a58.0207,58.0207,0,0,1-21.4154,20.3608c59.91,54.3881,103.84,96.7794,122.6333,143.5506a136.2275,136.2275,0,0,1,10.2536,52.147c0,56.5413-32.0939,105.4657-80.7692,116.774a103.665,103.665,0,0,0,22.1771,2.4608c60.6428,0,102.5362-54.6371,102.5362-119.2348A136.2276,136.2276,0,0,0,620.0188,609.6091Z" fill="#030203"/>
      <path id="Shape-6" data-name="Shape" d="M791.4007,517.3265c0,60.6429-54.6371,102.5362-119.2349,102.5362a136.2279,136.2279,0,0,1-52.147-10.2536c-21.0931-52.44-73.68-99.3136-145.1619-163.9114a57.346,57.346,0,0,0,8.9353-30.9073,58.138,58.138,0,0,0-27.6847-49.6568c64.5978-71.4824,111.4714-124.0687,163.9113-145.1619a136.2279,136.2279,0,0,1,52.147-10.2536c64.5978,0,119.2349,41.8933,119.2349,102.5361,0,71.043-68.5527,102.5362-68.5527,102.5362S791.4007,446.2836,791.4007,517.3265Z" fill="#030203"/>
      <path id="Shape-7" data-name="Shape" d="M722.848,414.79s68.5527-31.4932,68.5527-102.5362c0-60.6428-54.6371-102.5361-119.2349-102.5361a137.4787,137.4787,0,0,0-21.3129,1.787c54.227,8.4666,96.6037,47.3571,96.6037,100.7491,0,71.043-68.5527,102.5362-68.5527,102.5362s68.5527,31.4932,68.5527,102.5361c0,53.3921-42.3767,92.2826-96.6037,100.7491a137.4665,137.4665,0,0,0,21.3129,1.7871c64.5978,0,119.2349-41.8933,119.2349-102.5362C791.4007,446.2836,722.848,414.79,722.848,414.79Z" fill="#030203"/>
      <path id="Shape-8" data-name="Shape" d="M483.7922,414.79a57.3462,57.3462,0,0,1-8.9353,30.9073A58.1379,58.1379,0,0,1,425.2,473.3825a57.3473,57.3473,0,0,1-30.9073-8.9353A58.138,58.138,0,0,1,366.6081,414.79a57.3462,57.3462,0,0,1,8.9353-30.9073A58.1378,58.1378,0,0,1,425.2,356.1983a57.3474,57.3474,0,0,1,30.9074,8.9353A58.138,58.138,0,0,1,483.7922,414.79Z" fill="#030203"/>
      <g>
        <path id="Shape-9" data-name="Shape" d="M357.8192,308.3286a14.65,14.65,0,0,0,19.9653-21.4447c-34.5547-32.2257-68.1133-65.9161-79.612-94.5237a62.0473,62.0473,0,0,1-4.8045-24.5355A59.9535,59.9535,0,0,1,304.72,131.0729a14.6481,14.6481,0,1,0-22.7191-18.4859,88.5916,88.5916,0,0,0-17.9292,55.2377,91.1706,91.1706,0,0,0,7.0017,35.5215c12.861,32.0059,44.0027,65.1105,86.7456,104.9823Z" fill="#030203"/>
        <path id="Shape-10" data-name="Shape" d="M120.8728,537.3943a14.6481,14.6481,0,0,0,2.124,20.5951,88.5912,88.5912,0,0,0,55.2377,17.9292,91.17,91.17,0,0,0,35.5214-7.0018c32.006-12.8609,65.1105-43.944,104.9824-86.8042a14.65,14.65,0,0,0-21.4447-19.9652c-32.2257,34.5547-65.9161,68.1133-94.5237,79.612a62.05,62.05,0,0,1-24.5354,4.8631A59.9538,59.9538,0,0,1,141.4826,535.27a14.6482,14.6482,0,0,0-20.61,2.124Z" fill="#030203"/>
        <path id="Shape-11" data-name="Shape" d="M492.5811,521.2522a14.65,14.65,0,0,0-19.9653,21.4448c34.5547,32.2256,68.1133,65.9161,79.612,94.5236a62.0473,62.0473,0,0,1,4.8045,24.5355A59.9535,59.9535,0,0,1,545.68,698.5079a14.648,14.648,0,1,0,22.7191,18.4858,88.5905,88.5905,0,0,0,17.9292-55.2376,91.1681,91.1681,0,0,0-7.0018-35.5215c-12.8609-32.0059-44.0027-65.11-86.7456-104.9824Z" fill="#030203"/>
        <path id="Shape-12" data-name="Shape" d="M531.662,347.41a14.65,14.65,0,1,0,21.4447,19.9652c32.2257-34.5546,65.9161-68.1133,94.5237-79.612a62.0507,62.0507,0,0,1,24.5354-4.8045A59.9538,59.9538,0,0,1,708.9177,294.31a14.648,14.648,0,1,0,18.4858-22.7191,88.5912,88.5912,0,0,0-55.2377-17.9292,91.17,91.17,0,0,0-35.5214,7.0018c-32.006,12.861-65.11,44.0026-104.9824,86.7456Z" fill="#030203"/>
        <path id="Shape-13" data-name="Shape" d="M44.3516,517.3265c0,66.81,57.5521,117.1842,133.8829,117.1842,2.7685,0,5.4491-.249,8.1736-.3808A719.6863,719.6863,0,0,0,44.9961,893.8686a14.6507,14.6507,0,0,0,28.007,8.6131A698.4034,698.4034,0,0,1,205.7,656.9955c0,1.582-.22,3.1493-.22,4.7606,0,76.3308,50.3746,133.8829,117.1842,133.8829A126.8077,126.8077,0,0,0,425.2,740.3574,126.8078,126.8078,0,0,0,527.7363,795.639c66.81,0,117.1842-57.5521,117.1842-133.8829a151.3433,151.3433,0,0,0-3.0468-30.2921,151.4686,151.4686,0,0,0,30.2921,3.0468c76.3308,0,133.8829-50.3746,133.8829-117.1842a126.8077,126.8077,0,0,0-55.2816-102.5361,126.8078,126.8078,0,0,0,55.2816-102.5362c0-66.81-57.5521-117.1842-133.8829-117.1842a151.3433,151.3433,0,0,0-30.2921,3.0468,151.4686,151.4686,0,0,0,3.0468-30.2921c0-76.3308-50.3746-133.8829-117.1842-133.8829A126.808,126.808,0,0,0,425.2,89.2235,126.8077,126.8077,0,0,0,322.664,33.9419c-66.81,0-117.1842,57.5521-117.1842,133.8829a151.3433,151.3433,0,0,0,3.0468,30.2921,151.4613,151.4613,0,0,0-30.2921-3.0468c-76.3308,0-133.8829,50.3746-133.8829,117.1842A126.808,126.808,0,0,0,99.6332,414.7905,126.8077,126.8077,0,0,0,44.3516,517.3266ZM527.7363,766.3429c-60.511,0-88.0932-57.6106-89.2211-60.0568a14.675,14.675,0,0,0-26.6008-.0147c-1.1572,2.4609-28.7394,60.0715-89.25,60.0715-50.0962,0-87.8881-44.9694-87.8881-104.5868A121.1077,121.1077,0,0,1,242.1,620.185c50.77-22.807,95.549-71.292,155.5034-137.6182a72.6688,72.6688,0,0,0,78.8649-15.63C540.92,525.2658,587.6906,568.58,606.4255,615.1314a121.5772,121.5772,0,0,1,9.1989,46.6246c0,59.6174-37.7919,104.5869-87.8881,104.5869ZM469.1442,414.79A43.9441,43.9441,0,1,1,425.2,370.8463,43.9441,43.9441,0,0,1,469.1442,414.79ZM776.7527,312.2542c0,60.511-57.6107,88.0932-60.0569,89.2211a14.6481,14.6481,0,0,0,0,26.6009c2.4609,1.1572,60.0569,28.7394,60.0569,89.25,0,50.0963-44.9694,87.8882-104.5869,87.8882a121.1109,121.1109,0,0,1-41.5711-7.324c-22.807-50.77-71.2919-95.5491-137.6182-155.5034a72.6688,72.6688,0,0,0-15.6294-78.865C535.6755,299.071,578.99,252.3,625.5411,233.5651a121.5775,121.5775,0,0,1,46.6247-9.199c59.6174,0,104.5868,37.7919,104.5868,87.8881ZM322.664,63.2379c60.511,0,88.0932,57.6106,89.2211,60.0569a14.6749,14.6749,0,0,0,26.6008.0146c1.1572-2.4609,28.7394-60.0715,89.25-60.0715,50.0962,0,87.8881,44.9694,87.8881,104.5868a121.1077,121.1077,0,0,1-7.324,41.5711c-50.77,22.807-95.549,71.2919-155.5034,137.6914a72.6689,72.6689,0,0,0-78.8649,15.5562C309.4808,304.315,262.71,261.0008,243.9748,214.4494a121.5792,121.5792,0,0,1-9.1989-46.6247C234.7759,108.2073,272.5678,63.2379,322.664,63.2379ZM133.7045,401.5046c-2.4462-1.1572-60.0569-28.7394-60.0569-89.25,0-50.0962,44.97-87.8881,104.5869-87.8881a121.1109,121.1109,0,0,1,41.5711,7.324c22.807,50.77,71.2919,95.5491,137.6914,155.5034a72.669,72.669,0,0,0,15.5562,78.865C314.7248,530.51,271.4106,577.2809,224.8592,596.0157a121.5775,121.5775,0,0,1-46.6247,9.199c-59.6174,0-104.5869-37.7919-104.5869-87.8882,0-60.5109,57.6107-88.0932,60.0569-89.221a14.648,14.648,0,0,0,0-26.6009Z" fill="#030203"/>
      </g>
    </g>
  </g>
</svg>
