<svg id="Calque_1" data-name="Calque 1" xmlns="http://www.w3.org/2000/svg" width="850.3937" height="946.7717" viewBox="0 0 850.3937 946.7717">
  <g>
    <path d="M508.2226,653.1782a23.057,23.057,0,0,0-9.2665-7.6565l-12.035-1.1236c-4.0309.3243-7.4711.8108-11.004,3.3244l-18.8806,13.4249a23.1705,23.1705,0,0,0-5.4557,32.3055L585.8067,882.27l56.6418-40.2632Z"/>
    <path d="M472.4422,679.4025a23.17,23.17,0,0,1,5.4556-32.3055l1.8881-1.3437a15.4623,15.4623,0,0,0-3.8688,1.9691l-18.8806,13.4249a23.1706,23.1706,0,0,0-5.4557,32.3055L585.8067,882.27l20.5023-14.5717Z"/>
    <path d="M610.143,836.54l-18.8806,13.4249a23.1669,23.1669,0,1,0,26.85,37.7612l18.8806-13.4249a23.1669,23.1669,0,0,0-26.85-37.7612Z"/>
    <path d="M360.178,636.2783,162.2909,722.0865,189.94,785.84l201.9643-87.5689Z"/>
    <path d="M189.94,765.8014l-20.3285-46.8887-7.3206,3.1738L189.94,785.84l201.9643-87.5688-8.3978-16.4134Z"/>
    <path d="M378.5489,691.4258c-47.132,48.14-130.6119,133.4151-130.6119,133.4151l49.6687,48.6145L472.9866,695.0976Z"/>
    <path d="M378.5489,691.4258c-.4054.417-.8571.88-1.2741,1.2973l60.9622,2.3746L279.895,856.1386l17.7106,17.3285,175.381-178.3694Z"/>
    <path d="M545.4973,616.7143a22.9441,22.9441,0,0,0-11.7106-2.6757L522.5278,618.44c-3.4518,2.0966-6.3128,4.0773-8.34,7.9113L503.346,646.8306a23.1608,23.1608,0,0,0,9.6373,31.3093L717.7276,786.5354l32.514-61.4257Z"/>
    <path d="M525.3078,656.2013a23.1638,23.1638,0,0,1-9.6372-31.3093l1.0772-2.0386a15.4511,15.4511,0,0,0-2.5715,3.4981l-10.8418,20.4791a23.1607,23.1607,0,0,0,9.6372,31.3093L717.716,786.5353l11.7685-22.2281Z"/>
    <path d="M718.9207,734.7353l-10.8419,20.4791a23.1641,23.1641,0,0,0,40.9465,21.6721l10.8419-20.479a23.1641,23.1641,0,1,0-40.9465-21.6722Z"/>
    <path d="M724.4881,356.9111a450.7524,450.7524,0,0,0-95.144-166.9632l-4.2462-4.7265A148.9017,148.9017,0,0,1,591.321,49.4989l-57.64,96.0663s-38.4265,57.64-57.64,134.4929c-14.7365,58.9463-115.28-134.4929-115.28-134.4929-19.2132-57.64-105.6729-76.853-105.6729-76.853a322.0055,322.0055,0,0,1-48.648,317.8066l-1.7868,2.2479A164.1892,164.1892,0,0,0,168.6292,491.404c0,159.1626,129.0363,288.1989,288.199,288.1989S745.0271,650.5666,745.0271,491.404a449.49,449.49,0,0,0-3.7082-57.64Z"/>
    <path d="M555.7572,640.4028A157.7381,157.7381,0,0,0,668.1741,489.31v-17.119l-26.86,20.1355a52.1537,52.1537,0,0,1-79.7158-61.0982l30.453-76.1229a119.2048,119.2048,0,0,0-49.3588-146.5012l-9.0111-5.3989A119.2267,119.2267,0,0,1,511.3554,340.81l-84.2309,84.231A129.3511,129.3511,0,0,0,555.7573,640.4028Z"/>
    <path d="M148.0518,376.4894a119.7237,119.7237,0,0,0,18.81-113.7041l-20.9425-59.58L121.403,276.4459a119.82,119.82,0,0,1-19.4054,35.9865l-3.8619,4.8993A119.74,119.74,0,0,0,91.43,455.8594l35.045,54.7578-3.7082-51.53A119.8294,119.8294,0,0,1,148.0518,376.4894Z"/>
    <path d="M159.4762,773.8054a23.1688,23.1688,0,0,0,42.51-18.44l-9.22-21.2552a23.1688,23.1688,0,0,0-42.51,18.44Z"/>
    <path d="M248.2844,857.61l16.5524,16.2048a23.1642,23.1642,0,1,0,32.41-33.1047L280.6942,824.505a23.1642,23.1642,0,0,0-32.41,33.1047Z"/>
    <path d="M456.8282,741.1764c-152.1114,0-276.402-117.931-287.1423-267.3334a161.96,161.96,0,0,0-1.0567,17.561c0,159.1626,129.0363,288.1989,288.199,288.1989S745.0271,650.5666,745.0271,491.404c0-7.8583-.3459-15.6781-.7493-23.4786-7.82,152.169-133.3209,273.251-287.45,273.251Z"/>
    <g>
      <path d="M423.95,345.6518l28.2435,56.487,15.14-75.7195A119.7227,119.7227,0,0,1,482.07,288.3l3.2086-5.3413A119.7567,119.7567,0,0,0,474.596,144.6811L432.98,94.7266l10.1254,50.6654a119.7414,119.7414,0,0,1-14.7366,85.0955A119.7666,119.7666,0,0,0,423.95,345.6518Z"/>
      <path d="M204.2054,438.4757l-30.4816-46.08-5.1773,67.381a105.1913,105.1913,0,0,1-8.78,34.6645l-2.22,4.9918a104.7878,104.7878,0,0,0,23.8642,118.9775l41.4076,38.9864-14.1351-42.9542a104.7652,104.7652,0,0,1,3.8288-75.4623,104.7989,104.7989,0,0,0-8.3068-100.5048Z"/>
      <path d="M639.4107,228.2375l24.7082-49.4165,13.2571,66.2665a105.1877,105.1877,0,0,0,12.8922,33.3542l2.8051,4.6881a104.7878,104.7878,0,0,1-9.3569,120.9859l-36.4091,43.6909,8.8573-44.3442a104.7659,104.7659,0,0,0-12.8921-74.4514,104.7982,104.7982,0,0,1-3.8619-100.7735Z"/>
      <path d="M716.5591,427.8777l46.7521-53.6114-10.267,87.7927A147.665,147.665,0,0,0,754.905,508.38l1.3838,6.8509c11.343,55.8651-11.3832,115.5511-56.6729,148.7836L641.822,706.4221,668.728,653.75c15.5123-30.3505,20.44-65.2818,13.7982-97.95-9.1171-44.9107,3.7131-93.1542,34.0329-127.9223Z"/>
    </g>
  </g>
</svg>
