<svg id="Calque_1" data-name="Calque 1" xmlns="http://www.w3.org/2000/svg" width="84.8566" height="39.8511" viewBox="0 0 84.8566 39.8511">
  <path d="M87.1123,69.9255a5.3291,5.3291,0,0,1-5.3267-5.3069,5.3217,5.3217,0,0,1,10.6425-.069A5.3377,5.3377,0,0,1,87.1123,69.9255Z" transform="translate(-7.5717 -30.0744)"/>
  <path d="M77.7014,65.5221c-.0522-2.2989-.0789-4.5984-.1224-6.8975-.0364-1.93-.14-3.8553-.3557-5.7745a38.823,38.823,0,0,0-.8942-5.0868,27.5959,27.5959,0,0,0-2.9824-7.4221,16.5605,16.5605,0,0,0-7.15-6.7268,19.0861,19.0861,0,0,0-6.78-1.9381,16.5537,16.5537,0,0,0-6.0958.6551A20.59,20.59,0,0,0,48.12,34.7377a1,1,0,0,1-1.17.029,17.2749,17.2749,0,0,0-1.5722-.8347,22.5591,22.5591,0,0,0-8.9772-2.2238,26.5552,26.5552,0,0,0-3.7083.1166,22.4976,22.4976,0,0,0-3.0811.5092,20.1927,20.1927,0,0,0-6.5961,2.9571.7064.7064,0,0,1-.8574.0354c-.8373-.496-1.7012-.945-2.565-1.3935-2.4695-1.2822-4.9917-2.458-7.48-3.7023-.5175-.2587-.6233-.2217-.87.3049-1.1516,2.4585-2.3167,4.9105-3.5183,7.3451-.2649.5368-.2064.7034.342.949,2.53,1.1329,5.0374,2.3155,7.5556,3.4742.47.216.4788.244.2252.68-.0146.0252-.0282.0511-.0429.0764A26.2712,26.2712,0,0,0,12.2707,55.132a19.2926,19.2926,0,0,0,.4055,5.344,14.18,14.18,0,0,0,2.8072,5.812,9.8848,9.8848,0,0,0,10.3253,3.2553A10.8434,10.8434,0,0,0,33.21,62.4866a21.4348,21.4348,0,0,0,.9773-9.7418,33.1026,33.1026,0,0,0-.7413-4.1365,16.4609,16.4609,0,0,0-1.2188-3.5835,20.7879,20.7879,0,0,0-2.3631-3.6119.6019.6019,0,0,1-.1748-.2679,15.1832,15.1832,0,0,1,11.6323.119,1.45,1.45,0,0,1-.216.4079q-.5446.8312-1.0284,1.6989a25.737,25.737,0,0,0-3.2224,10.377,26.2782,26.2782,0,0,0-.0249,4.4089,15.4117,15.4117,0,0,0,.8308,4.02,12.4444,12.4444,0,0,0,4.2977,5.9181,8.744,8.744,0,0,0,4.2876,1.713,10.6979,10.6979,0,0,0,2.8551-.0665,9.5936,9.5936,0,0,0,4.612-1.9851,11.6107,11.6107,0,0,0,3.145-4.0174,16.43,16.43,0,0,0,1.6188-6.97,27.7637,27.7637,0,0,0-.269-4.4886,24.7412,24.7412,0,0,0-2.0034-6.9594,26.3281,26.3281,0,0,0-2.16-3.8394c-.2135-.3166-.1786-.4161.1721-.5659.0447-.0191.09-.0358.1359-.0532a10.5849,10.5849,0,0,1,2.7988-.6813,8.9062,8.9062,0,0,1,8.7663,4.6481,18.3319,18.3319,0,0,1,1.8724,5.0443,31.0508,31.0508,0,0,1,.6906,6.701c.02,2.4558-.0364,4.9111-.0963,7.3661q-.0541,2.2209-.107,4.4418c-.0134.5432.1442.6993.6878.6878.6041-.0127,1.2083-.0273,1.8125-.0276q3.203-.0016,6.406.006c.54.0007.6344-.0868.6-.6342C77.7237,67.4511,77.7233,66.4862,77.7014,65.5221ZM25.1969,59.0027a3.6354,3.6354,0,0,1-1.1775,1.9394,1.51,1.51,0,0,1-.7488.3713,1.2446,1.2446,0,0,1-.9939-.3318,3.7539,3.7539,0,0,1-.9969-1.317,5.553,5.553,0,0,1-.4577-1.772c-.0719-.649-.0965-1.3013-.107-1.7071a17.7081,17.7081,0,0,1,2.1512-8.5822,1.1118,1.1118,0,0,1,.0564-.1022c.0977-.1433.1514-.1482.2608-.0086a8.8874,8.8874,0,0,1,.9621,1.53,10.722,10.722,0,0,1,.971,3.0772,25.1273,25.1273,0,0,1,.3917,4.3A10.4736,10.4736,0,0,1,25.1969,59.0027Zm24.2791.3056a3.3926,3.3926,0,0,1-.8927,1.5175,2.4214,2.4214,0,0,1-.3185.255,1.0615,1.0615,0,0,1-1.21.024,3.0786,3.0786,0,0,1-.902-.8624,4.2108,4.2108,0,0,1-.7117-1.7411,15.1312,15.1312,0,0,1-.1586-3.6684,17.2481,17.2481,0,0,1,.9149-4.5935,15.8155,15.8155,0,0,1,1.2656-2.7839c.0476-.0821.075-.1816.178-.2366A13.3354,13.3354,0,0,1,48.81,49.66a18.62,18.62,0,0,1,1.1619,6.1354A11.3989,11.3989,0,0,1,49.476,59.3083Z" transform="translate(-7.5717 -30.0744)"/>
</svg>
